<?xml version="1.0" encoding="UTF-8" standalone="no"?>
<!DOCTYPE svg PUBLIC "-//W3C//DTD SVG 1.1//EN"
 "http://www.w3.org/Graphics/SVG/1.1/DTD/svg11.dtd">
<!-- Generated by graphviz version 12.2.1 (0)
 -->
<!-- Title: di::container::ZipView&lt; Views &gt; Pages: 1 -->
<svg width="519pt" height="118pt"
 viewBox="0.00 0.00 518.75 118.25" xmlns="http://www.w3.org/2000/svg" xmlns:xlink="http://www.w3.org/1999/xlink">
<g id="graph0" class="graph" transform="scale(1 1) rotate(0) translate(4 114.25)">
<title>di::container::ZipView&lt; Views &gt;</title>
<!-- Node1 -->
<g id="Node000001" class="node">
<title>Node1</title>
<g id="a_Node000001"><a xlink:title=" ">
<polygon fill="#999999" stroke="#666666" points="510.75,-78.25 388.25,-78.25 388.25,-44.75 510.75,-44.75 510.75,-78.25"/>
<text text-anchor="start" x="396.25" y="-64.75" font-family="Helvetica,sans-Serif" font-size="10.00">di::container::ZipView</text>
<text text-anchor="middle" x="449.5" y="-52" font-family="Helvetica,sans-Serif" font-size="10.00">&lt; Views &gt;</text>
</a>
</g>
</g>
<!-- Node2 -->
<g id="Node000002" class="node">
<title>Node2</title>
<g id="a_Node000002"><a xlink:href="classdi_1_1container_1_1ViewInterface.html" target="_top" xlink:title=" ">
<polygon fill="white" stroke="#666666" points="338.75,-110.25 188.5,-110.25 188.5,-76.75 338.75,-76.75 338.75,-110.25"/>
<text text-anchor="start" x="196.5" y="-96.75" font-family="Helvetica,sans-Serif" font-size="10.00">di::container::ViewInterface</text>
<text text-anchor="middle" x="263.62" y="-84" font-family="Helvetica,sans-Serif" font-size="10.00">&lt; ZipView&lt; Views... &gt; &gt;</text>
</a>
</g>
</g>
<!-- Node2&#45;&gt;Node1 -->
<g id="edge1_Node000001_Node000002" class="edge">
<title>Node2&#45;&gt;Node1</title>
<g id="a_edge1_Node000001_Node000002"><a xlink:title=" ">
<path fill="none" stroke="#63b8ff" d="M350.27,-78.6C363,-76.38 375.89,-74.14 387.96,-72.04"/>
<polygon fill="#63b8ff" stroke="#63b8ff" points="349.89,-75.11 340.64,-80.27 351.09,-82 349.89,-75.11"/>
</a>
</g>
</g>
<!-- Node3 -->
<g id="Node000003" class="node">
<title>Node3</title>
<g id="a_Node000003"><a xlink:href="classdi_1_1meta_1_1EnableView.html" target="_top" xlink:title=" ">
<polygon fill="white" stroke="#666666" points="139,-110.25 0,-110.25 0,-76.75 139,-76.75 139,-110.25"/>
<text text-anchor="start" x="8" y="-96.75" font-family="Helvetica,sans-Serif" font-size="10.00">di::meta::EnableView</text>
<text text-anchor="middle" x="69.5" y="-84" font-family="Helvetica,sans-Serif" font-size="10.00">&lt; ZipView&lt; Views... &gt; &gt;</text>
</a>
</g>
</g>
<!-- Node3&#45;&gt;Node2 -->
<g id="edge2_Node000002_Node000003" class="edge">
<title>Node3&#45;&gt;Node2</title>
<g id="a_edge2_Node000002_Node000003"><a xlink:title=" ">
<path fill="none" stroke="#63b8ff" d="M150.6,-93.5C163.02,-93.5 175.81,-93.5 188.11,-93.5"/>
<polygon fill="#63b8ff" stroke="#63b8ff" points="150.83,-90 140.83,-93.5 150.83,-97 150.83,-90"/>
</a>
</g>
</g>
<!-- Node4 -->
<g id="Node000004" class="node">
<title>Node4</title>
<g id="a_Node000004"><a xlink:href="classdi_1_1meta_1_1EnableBorrowedContainer.html" target="_top" xlink:title=" ">
<polygon fill="white" stroke="#666666" points="352.25,-59 175,-59 175,0 352.25,0 352.25,-59"/>
<text text-anchor="start" x="183" y="-45.5" font-family="Helvetica,sans-Serif" font-size="10.00">di::meta::EnableBorrowed</text>
<text text-anchor="start" x="183" y="-32.75" font-family="Helvetica,sans-Serif" font-size="10.00">Container&lt; ZipView&lt; Views...</text>
<text text-anchor="start" x="183" y="-20" font-family="Helvetica,sans-Serif" font-size="10.00"> &gt;,(concepts::BorrowedContainer</text>
<text text-anchor="middle" x="263.62" y="-7.25" font-family="Helvetica,sans-Serif" font-size="10.00">&lt; Views &gt; &amp;&amp;...)&gt;</text>
</a>
</g>
</g>
<!-- Node4&#45;&gt;Node1 -->
<g id="edge3_Node000001_Node000004" class="edge">
<title>Node4&#45;&gt;Node1</title>
<g id="a_edge3_Node000001_Node000004"><a xlink:title=" ">
<path fill="none" stroke="#63b8ff" d="M363.78,-46.76C372.02,-48.19 380.17,-49.61 387.99,-50.97"/>
<polygon fill="#63b8ff" stroke="#63b8ff" points="364.47,-43.32 354.01,-45.06 363.27,-50.22 364.47,-43.32"/>
</a>
</g>
</g>
</g>
</svg>
