<?xml version="1.0" encoding="UTF-8" standalone="no"?>
<!DOCTYPE svg PUBLIC "-//W3C//DTD SVG 1.1//EN"
 "http://www.w3.org/Graphics/SVG/1.1/DTD/svg11.dtd">
<!-- Generated by graphviz version 10.0.1 (0)
 -->
<!-- Title: di::container::string::StringViewImpl&lt; Enc &gt; Pages: 1 -->
<svg width="356pt" height="234pt"
 viewBox="0.00 0.00 355.75 234.25" xmlns="http://www.w3.org/2000/svg" xmlns:xlink="http://www.w3.org/1999/xlink">
<g id="graph0" class="graph" transform="scale(1 1) rotate(0) translate(4 230.25)">
<title>di::container::string::StringViewImpl&lt; Enc &gt;</title>
<!-- Node1 -->
<g id="Node000001" class="node">
<title>Node1</title>
<g id="a_Node000001"><a xlink:title=" ">
<polygon fill="#999999" stroke="#666666" points="347.75,-132.88 211.75,-132.88 211.75,-99.38 347.75,-99.38 347.75,-132.88"/>
<text text-anchor="start" x="219.75" y="-119.38" font-family="Helvetica,sans-Serif" font-size="10.00">di::container::string</text>
<text text-anchor="middle" x="279.75" y="-106.62" font-family="Helvetica,sans-Serif" font-size="10.00">::StringViewImpl&lt; Enc &gt;</text>
</a>
</g>
</g>
<!-- Node2 -->
<g id="Node000002" class="node">
<title>Node2</title>
<g id="a_Node000002"><a xlink:href="classdi_1_1container_1_1string_1_1ConstantStringInterface.html" target="_top" xlink:title=" ">
<polygon fill="white" stroke="#666666" points="175.75,-226.25 0,-226.25 0,-180 175.75,-180 175.75,-226.25"/>
<text text-anchor="start" x="8" y="-212.75" font-family="Helvetica,sans-Serif" font-size="10.00">di::container::string</text>
<text text-anchor="start" x="8" y="-200" font-family="Helvetica,sans-Serif" font-size="10.00">::ConstantStringInterface</text>
<text text-anchor="middle" x="87.88" y="-187.25" font-family="Helvetica,sans-Serif" font-size="10.00">&lt; StringViewImpl&lt; Enc &gt;, Enc &gt;</text>
</a>
</g>
</g>
<!-- Node2&#45;&gt;Node1 -->
<g id="edge1_Node000001_Node000002" class="edge">
<title>Node2&#45;&gt;Node1</title>
<g id="a_edge1_Node000001_Node000002"><a xlink:title=" ">
<path fill="none" stroke="#63b8ff" d="M166.16,-175.29C169.42,-173.92 172.62,-172.53 175.75,-171.12 201.09,-159.76 228.81,-144.81 249.1,-133.36"/>
<polygon fill="#63b8ff" stroke="#63b8ff" points="164.99,-171.99 157.06,-179.02 167.64,-178.47 164.99,-171.99"/>
</a>
</g>
</g>
<!-- Node3 -->
<g id="Node000003" class="node">
<title>Node3</title>
<g id="a_Node000003"><a xlink:href="classdi_1_1meta_1_1EnableView.html" target="_top" xlink:title=" ">
<polygon fill="white" stroke="#666666" points="164.12,-161.88 11.62,-161.88 11.62,-128.38 164.12,-128.38 164.12,-161.88"/>
<text text-anchor="start" x="19.62" y="-148.38" font-family="Helvetica,sans-Serif" font-size="10.00">di::meta::EnableView</text>
<text text-anchor="middle" x="87.88" y="-135.62" font-family="Helvetica,sans-Serif" font-size="10.00">&lt; StringViewImpl&lt; Enc &gt; &gt;</text>
</a>
</g>
</g>
<!-- Node3&#45;&gt;Node1 -->
<g id="edge2_Node000001_Node000003" class="edge">
<title>Node3&#45;&gt;Node1</title>
<g id="a_edge2_Node000001_Node000003"><a xlink:title=" ">
<path fill="none" stroke="#63b8ff" d="M175.84,-131.84C187.78,-130.02 199.89,-128.17 211.41,-126.41"/>
<polygon fill="#63b8ff" stroke="#63b8ff" points="175.32,-128.38 165.96,-133.35 176.37,-135.3 175.32,-128.38"/>
</a>
</g>
</g>
<!-- Node4 -->
<g id="Node000004" class="node">
<title>Node4</title>
<g id="a_Node000004"><a xlink:href="classdi_1_1meta_1_1EnableBorrowedContainer.html" target="_top" xlink:title=" ">
<polygon fill="white" stroke="#666666" points="162.25,-110.25 13.5,-110.25 13.5,-64 162.25,-64 162.25,-110.25"/>
<text text-anchor="start" x="21.5" y="-96.75" font-family="Helvetica,sans-Serif" font-size="10.00">di::meta::EnableBorrowed</text>
<text text-anchor="start" x="21.5" y="-84" font-family="Helvetica,sans-Serif" font-size="10.00">Container&lt; StringViewImpl</text>
<text text-anchor="middle" x="87.88" y="-71.25" font-family="Helvetica,sans-Serif" font-size="10.00">&lt; Enc &gt; &gt;</text>
</a>
</g>
</g>
<!-- Node4&#45;&gt;Node1 -->
<g id="edge3_Node000001_Node000004" class="edge">
<title>Node4&#45;&gt;Node1</title>
<g id="a_edge3_Node000001_Node000004"><a xlink:title=" ">
<path fill="none" stroke="#63b8ff" d="M173.58,-100.06C186.22,-101.99 199.1,-103.96 211.32,-105.83"/>
<polygon fill="#63b8ff" stroke="#63b8ff" points="174.47,-96.66 164.05,-98.61 173.41,-103.58 174.47,-96.66"/>
</a>
</g>
</g>
<!-- Node5 -->
<g id="Node000005" class="node">
<title>Node5</title>
<g id="a_Node000005"><a xlink:href="structdi_1_1util_1_1OwnedType.html" target="_top" xlink:title=" ">
<polygon fill="white" stroke="#666666" points="155.12,-46.25 20.62,-46.25 20.62,0 155.12,0 155.12,-46.25"/>
<text text-anchor="start" x="28.62" y="-32.75" font-family="Helvetica,sans-Serif" font-size="10.00">di::util::OwnedType</text>
<text text-anchor="start" x="28.62" y="-20" font-family="Helvetica,sans-Serif" font-size="10.00">&lt; StringViewImpl&lt; Enc</text>
<text text-anchor="middle" x="87.88" y="-7.25" font-family="Helvetica,sans-Serif" font-size="10.00"> &gt;, StringImpl&lt; Enc &gt; &gt;</text>
</a>
</g>
</g>
<!-- Node5&#45;&gt;Node1 -->
<g id="edge4_Node000001_Node000005" class="edge">
<title>Node5&#45;&gt;Node1</title>
<g id="a_edge4_Node000001_Node000005"><a xlink:title=" ">
<path fill="none" stroke="#63b8ff" d="M165.7,-50.55C169.12,-52.05 172.48,-53.57 175.75,-55.12 202.97,-68.06 232.39,-85.92 252.8,-98.96"/>
<polygon fill="#63b8ff" stroke="#63b8ff" points="167.3,-47.42 156.72,-46.76 164.58,-53.88 167.3,-47.42"/>
</a>
</g>
</g>
</g>
</svg>
