<?xml version="1.0" encoding="UTF-8" standalone="no"?>
<!DOCTYPE svg PUBLIC "-//W3C//DTD SVG 1.1//EN"
 "http://www.w3.org/Graphics/SVG/1.1/DTD/svg11.dtd">
<!-- Generated by graphviz version 10.0.1 (0)
 -->
<!-- Title: di::container::ZipView&lt; Views &gt; Pages: 1 -->
<svg width="514pt" height="118pt"
 viewBox="0.00 0.00 513.50 118.25" xmlns="http://www.w3.org/2000/svg" xmlns:xlink="http://www.w3.org/1999/xlink">
<g id="graph0" class="graph" transform="scale(1 1) rotate(0) translate(4 114.25)">
<title>di::container::ZipView&lt; Views &gt;</title>
<!-- Node1 -->
<g id="Node000001" class="node">
<title>Node1</title>
<g id="a_Node000001"><a xlink:title=" ">
<polygon fill="#999999" stroke="#666666" points="505.5,-78.25 383,-78.25 383,-44.75 505.5,-44.75 505.5,-78.25"/>
<text text-anchor="start" x="391" y="-64.75" font-family="Helvetica,sans-Serif" font-size="10.00">di::container::ZipView</text>
<text text-anchor="middle" x="444.25" y="-52" font-family="Helvetica,sans-Serif" font-size="10.00">&lt; Views &gt;</text>
</a>
</g>
</g>
<!-- Node2 -->
<g id="Node000002" class="node">
<title>Node2</title>
<g id="a_Node000002"><a xlink:href="classdi_1_1container_1_1ViewInterface.html" target="_top" xlink:title=" ">
<polygon fill="white" stroke="#666666" points="333.5,-110.25 183.25,-110.25 183.25,-76.75 333.5,-76.75 333.5,-110.25"/>
<text text-anchor="start" x="191.25" y="-96.75" font-family="Helvetica,sans-Serif" font-size="10.00">di::container::ViewInterface</text>
<text text-anchor="middle" x="258.38" y="-84" font-family="Helvetica,sans-Serif" font-size="10.00">&lt; ZipView&lt; Views... &gt; &gt;</text>
</a>
</g>
</g>
<!-- Node2&#45;&gt;Node1 -->
<g id="edge1_Node000001_Node000002" class="edge">
<title>Node2&#45;&gt;Node1</title>
<g id="a_edge1_Node000001_Node000002"><a xlink:title=" ">
<path fill="none" stroke="#63b8ff" d="M345.02,-78.6C357.75,-76.38 370.64,-74.14 382.71,-72.04"/>
<polygon fill="#63b8ff" stroke="#63b8ff" points="344.64,-75.11 335.39,-80.27 345.84,-82 344.64,-75.11"/>
</a>
</g>
</g>
<!-- Node3 -->
<g id="Node000003" class="node">
<title>Node3</title>
<g id="a_Node000003"><a xlink:href="classdi_1_1meta_1_1EnableView.html" target="_top" xlink:title=" ">
<polygon fill="white" stroke="#666666" points="133.75,-110.25 0,-110.25 0,-76.75 133.75,-76.75 133.75,-110.25"/>
<text text-anchor="start" x="8" y="-96.75" font-family="Helvetica,sans-Serif" font-size="10.00">di::meta::EnableView</text>
<text text-anchor="middle" x="66.88" y="-84" font-family="Helvetica,sans-Serif" font-size="10.00">&lt; Self, should_enable &gt;</text>
</a>
</g>
</g>
<!-- Node3&#45;&gt;Node2 -->
<g id="edge2_Node000002_Node000003" class="edge">
<title>Node3&#45;&gt;Node2</title>
<g id="a_edge2_Node000002_Node000003"><a xlink:title=" ">
<path fill="none" stroke="#63b8ff" d="M145.43,-93.5C157.85,-93.5 170.69,-93.5 183.04,-93.5"/>
<polygon fill="#63b8ff" stroke="#63b8ff" points="145.67,-90 135.67,-93.5 145.67,-97 145.67,-90"/>
</a>
</g>
</g>
<!-- Node4 -->
<g id="Node000004" class="node">
<title>Node4</title>
<g id="a_Node000004"><a xlink:href="classdi_1_1meta_1_1EnableBorrowedContainer.html" target="_top" xlink:title=" ">
<polygon fill="white" stroke="#666666" points="347,-59 169.75,-59 169.75,0 347,0 347,-59"/>
<text text-anchor="start" x="177.75" y="-45.5" font-family="Helvetica,sans-Serif" font-size="10.00">di::meta::EnableBorrowed</text>
<text text-anchor="start" x="177.75" y="-32.75" font-family="Helvetica,sans-Serif" font-size="10.00">Container&lt; ZipView&lt; Views...</text>
<text text-anchor="start" x="177.75" y="-20" font-family="Helvetica,sans-Serif" font-size="10.00"> &gt;,(concepts::BorrowedContainer</text>
<text text-anchor="middle" x="258.38" y="-7.25" font-family="Helvetica,sans-Serif" font-size="10.00">&lt; Views &gt; &amp;&amp;...)&gt;</text>
</a>
</g>
</g>
<!-- Node4&#45;&gt;Node1 -->
<g id="edge3_Node000001_Node000004" class="edge">
<title>Node4&#45;&gt;Node1</title>
<g id="a_edge3_Node000001_Node000004"><a xlink:title=" ">
<path fill="none" stroke="#63b8ff" d="M358.53,-46.76C366.77,-48.19 374.92,-49.61 382.74,-50.97"/>
<polygon fill="#63b8ff" stroke="#63b8ff" points="359.22,-43.32 348.76,-45.06 358.02,-50.22 359.22,-43.32"/>
</a>
</g>
</g>
</g>
</svg>
