<?xml version="1.0" encoding="UTF-8" standalone="no"?>
<!DOCTYPE svg PUBLIC "-//W3C//DTD SVG 1.1//EN"
 "http://www.w3.org/Graphics/SVG/1.1/DTD/svg11.dtd">
<!-- Generated by graphviz version 10.0.1 (0)
 -->
<!-- Title: di::container::RepeatView&lt; T, Bound &gt; Pages: 1 -->
<svg width="158pt" height="181pt"
 viewBox="0.00 0.00 158.25 180.50" xmlns="http://www.w3.org/2000/svg" xmlns:xlink="http://www.w3.org/1999/xlink">
<g id="graph0" class="graph" transform="scale(1 1) rotate(0) translate(4 176.5)">
<title>di::container::RepeatView&lt; T, Bound &gt;</title>
<!-- Node1 -->
<g id="Node000001" class="node">
<title>Node1</title>
<g id="a_Node000001"><a xlink:title=" ">
<polygon fill="#999999" stroke="#666666" points="145.75,-33.5 4.5,-33.5 4.5,0 145.75,0 145.75,-33.5"/>
<text text-anchor="start" x="12.5" y="-20" font-family="Helvetica,sans-Serif" font-size="10.00">di::container::RepeatView</text>
<text text-anchor="middle" x="75.12" y="-7.25" font-family="Helvetica,sans-Serif" font-size="10.00">&lt; T, Bound &gt;</text>
</a>
</g>
</g>
<!-- Node2 -->
<g id="Node000002" class="node">
<title>Node2</title>
<g id="a_Node000002"><a xlink:href="classdi_1_1container_1_1ViewInterface.html" target="_top" xlink:title=" ">
<polygon fill="white" stroke="#666666" points="150.25,-103 0,-103 0,-69.5 150.25,-69.5 150.25,-103"/>
<text text-anchor="start" x="8" y="-89.5" font-family="Helvetica,sans-Serif" font-size="10.00">di::container::ViewInterface</text>
<text text-anchor="middle" x="75.12" y="-76.75" font-family="Helvetica,sans-Serif" font-size="10.00">&lt; Self &gt;</text>
</a>
</g>
</g>
<!-- Node2&#45;&gt;Node1 -->
<g id="edge1_Node000001_Node000002" class="edge">
<title>Node2&#45;&gt;Node1</title>
<g id="a_edge1_Node000001_Node000002"><a xlink:title=" ">
<path fill="none" stroke="#63b8ff" d="M75.12,-57.81C75.12,-49.59 75.12,-40.84 75.12,-33.63"/>
<polygon fill="#63b8ff" stroke="#63b8ff" points="71.63,-57.74 75.13,-67.74 78.63,-57.74 71.63,-57.74"/>
</a>
</g>
</g>
<!-- Node3 -->
<g id="Node000003" class="node">
<title>Node3</title>
<g id="a_Node000003"><a xlink:href="classdi_1_1meta_1_1EnableView.html" target="_top" xlink:title=" ">
<polygon fill="white" stroke="#666666" points="142,-172.5 8.25,-172.5 8.25,-139 142,-139 142,-172.5"/>
<text text-anchor="start" x="16.25" y="-159" font-family="Helvetica,sans-Serif" font-size="10.00">di::meta::EnableView</text>
<text text-anchor="middle" x="75.12" y="-146.25" font-family="Helvetica,sans-Serif" font-size="10.00">&lt; Self, should_enable &gt;</text>
</a>
</g>
</g>
<!-- Node3&#45;&gt;Node2 -->
<g id="edge2_Node000002_Node000003" class="edge">
<title>Node3&#45;&gt;Node2</title>
<g id="a_edge2_Node000002_Node000003"><a xlink:title=" ">
<path fill="none" stroke="#63b8ff" d="M75.12,-127.31C75.12,-119.09 75.12,-110.34 75.12,-103.13"/>
<polygon fill="#63b8ff" stroke="#63b8ff" points="71.63,-127.24 75.13,-137.24 78.63,-127.24 71.63,-127.24"/>
</a>
</g>
</g>
</g>
</svg>
