<?xml version="1.0" encoding="UTF-8" standalone="no"?>
<!DOCTYPE svg PUBLIC "-//W3C//DTD SVG 1.1//EN"
 "http://www.w3.org/Graphics/SVG/1.1/DTD/svg11.dtd">
<!-- Generated by graphviz version 10.0.1 (0)
 -->
<!-- Title: di::container::IntrusiveListNode&lt; Tag &gt; Pages: 1 -->
<svg width="484pt" height="132pt"
 viewBox="0.00 0.00 484.25 131.50" xmlns="http://www.w3.org/2000/svg" xmlns:xlink="http://www.w3.org/1999/xlink">
<g id="graph0" class="graph" transform="scale(1 1) rotate(0) translate(4 127.5)">
<title>di::container::IntrusiveListNode&lt; Tag &gt;</title>
<!-- Node1 -->
<g id="Node000001" class="node">
<title>Node1</title>
<g id="a_Node000001"><a xlink:title=" ">
<polygon fill="#999999" stroke="#666666" points="269.75,-78.5 144.25,-78.5 144.25,-45 269.75,-45 269.75,-78.5"/>
<text text-anchor="start" x="152.25" y="-65" font-family="Helvetica,sans-Serif" font-size="10.00">di::container::Intrusive</text>
<text text-anchor="middle" x="207" y="-52.25" font-family="Helvetica,sans-Serif" font-size="10.00">ListNode&lt; Tag &gt;</text>
</a>
</g>
</g>
<!-- Node3 -->
<g id="Node000003" class="node">
<title>Node3</title>
<g id="a_Node000003"><a xlink:href="structdius_1_1runtime_1_1detail_1_1FreeList.html" target="_top" xlink:title=" ">
<polygon fill="white" stroke="#666666" points="453.75,-123.5 328.25,-123.5 328.25,-90 453.75,-90 453.75,-123.5"/>
<text text-anchor="start" x="336.25" y="-110" font-family="Helvetica,sans-Serif" font-size="10.00">dius::runtime::detail</text>
<text text-anchor="middle" x="391" y="-97.25" font-family="Helvetica,sans-Serif" font-size="10.00">::FreeList&lt; SizedTag &gt;</text>
</a>
</g>
</g>
<!-- Node1&#45;&gt;Node3 -->
<g id="edge2_Node000001_Node000003" class="edge">
<title>Node1&#45;&gt;Node3</title>
<g id="a_edge2_Node000001_Node000003"><a xlink:title=" ">
<path fill="none" stroke="#63b8ff" d="M281.23,-79.86C296.68,-83.68 312.85,-87.67 327.85,-91.38"/>
<polygon fill="#63b8ff" stroke="#63b8ff" points="282.14,-76.48 271.59,-77.47 280.46,-83.27 282.14,-76.48"/>
</a>
</g>
</g>
<!-- Node4 -->
<g id="Node000004" class="node">
<title>Node4</title>
<g id="a_Node000004"><a xlink:href="classiris_1_1Task.html" target="_top" xlink:title=" ">
<polygon fill="white" stroke="#666666" points="428.62,-72.12 353.38,-72.12 353.38,-51.38 428.62,-51.38 428.62,-72.12"/>
<text text-anchor="middle" x="391" y="-58.62" font-family="Helvetica,sans-Serif" font-size="10.00">iris::Task&lt;&gt;</text>
</a>
</g>
</g>
<!-- Node1&#45;&gt;Node4 -->
<g id="edge3_Node000001_Node000004" class="edge">
<title>Node1&#45;&gt;Node4</title>
<g id="a_edge3_Node000001_Node000004"><a xlink:title=" ">
<path fill="none" stroke="#63b8ff" d="M281.64,-61.75C306.21,-61.75 332.53,-61.75 353.08,-61.75"/>
<polygon fill="#63b8ff" stroke="#63b8ff" points="281.64,-58.25 271.64,-61.75 281.64,-65.25 281.64,-58.25"/>
</a>
</g>
</g>
<!-- Node5 -->
<g id="Node000005" class="node">
<title>Node5</title>
<g id="a_Node000005"><a xlink:href="structiris_1_1mm_1_1PageStructurePhysicalPage.html" target="_top" xlink:title="A physical page of memory used for the page tables themselves.">
<polygon fill="white" stroke="#666666" points="476.25,-33.5 305.75,-33.5 305.75,0 476.25,0 476.25,-33.5"/>
<text text-anchor="start" x="313.75" y="-20" font-family="Helvetica,sans-Serif" font-size="10.00">iris::mm::PageStructurePhysical</text>
<text text-anchor="middle" x="391" y="-7.25" font-family="Helvetica,sans-Serif" font-size="10.00">Page&lt;&gt;</text>
</a>
</g>
</g>
<!-- Node1&#45;&gt;Node5 -->
<g id="edge4_Node000001_Node000005" class="edge">
<title>Node1&#45;&gt;Node5</title>
<g id="a_edge4_Node000001_Node000005"><a xlink:title=" ">
<path fill="none" stroke="#63b8ff" d="M281.3,-43.63C294.18,-40.44 307.56,-37.13 320.34,-33.97"/>
<polygon fill="#63b8ff" stroke="#63b8ff" points="280.46,-40.23 271.59,-46.03 282.14,-47.02 280.46,-40.23"/>
</a>
</g>
</g>
<!-- Node2 -->
<g id="Node000002" class="node">
<title>Node2</title>
<g id="a_Node000002"><a xlink:href="structdi_1_1util_1_1Immovable.html" target="_top" xlink:title=" ">
<polygon fill="white" stroke="#666666" points="108.25,-72.12 0,-72.12 0,-51.38 108.25,-51.38 108.25,-72.12"/>
<text text-anchor="middle" x="54.12" y="-58.62" font-family="Helvetica,sans-Serif" font-size="10.00">di::util::Immovable</text>
</a>
</g>
</g>
<!-- Node2&#45;&gt;Node1 -->
<g id="edge1_Node000001_Node000002" class="edge">
<title>Node2&#45;&gt;Node1</title>
<g id="a_edge1_Node000001_Node000002"><a xlink:title=" ">
<path fill="none" stroke="#8b1a1a" d="M120.11,-61.75C127.97,-61.75 135.98,-61.75 143.8,-61.75"/>
<polygon fill="#8b1a1a" stroke="#8b1a1a" points="120.26,-58.25 110.26,-61.75 120.26,-65.25 120.26,-58.25"/>
</a>
</g>
</g>
</g>
</svg>
