<?xml version="1.0" encoding="UTF-8" standalone="no"?>
<!DOCTYPE svg PUBLIC "-//W3C//DTD SVG 1.1//EN"
 "http://www.w3.org/Graphics/SVG/1.1/DTD/svg11.dtd">
<!-- Generated by graphviz version 10.0.1 (0)
 -->
<!-- Title: di::vocab::Span&lt; T, dynamic_extent &gt; Pages: 1 -->
<svg width="330pt" height="170pt"
 viewBox="0.00 0.00 330.25 169.88" xmlns="http://www.w3.org/2000/svg" xmlns:xlink="http://www.w3.org/1999/xlink">
<g id="graph0" class="graph" transform="scale(1 1) rotate(0) translate(4 165.88)">
<title>di::vocab::Span&lt; T, dynamic_extent &gt;</title>
<!-- Node1 -->
<g id="Node000001" class="node">
<title>Node1</title>
<g id="a_Node000001"><a xlink:title=" ">
<polygon fill="#999999" stroke="#666666" points="322.25,-103.88 211.75,-103.88 211.75,-70.38 322.25,-70.38 322.25,-103.88"/>
<text text-anchor="start" x="219.75" y="-90.38" font-family="Helvetica,sans-Serif" font-size="10.00">di::vocab::Span&lt; T,</text>
<text text-anchor="middle" x="267" y="-77.62" font-family="Helvetica,sans-Serif" font-size="10.00"> dynamic_extent &gt;</text>
</a>
</g>
</g>
<!-- Node2 -->
<g id="Node000002" class="node">
<title>Node2</title>
<g id="a_Node000002"><a xlink:href="classdi_1_1meta_1_1EnableView.html" target="_top" xlink:title=" ">
<polygon fill="white" stroke="#666666" points="175.75,-161.88 0,-161.88 0,-128.38 175.75,-128.38 175.75,-161.88"/>
<text text-anchor="start" x="8" y="-148.38" font-family="Helvetica,sans-Serif" font-size="10.00">di::meta::EnableView</text>
<text text-anchor="middle" x="87.88" y="-135.62" font-family="Helvetica,sans-Serif" font-size="10.00">&lt; Span&lt; T, dynamic_extent &gt; &gt;</text>
</a>
</g>
</g>
<!-- Node2&#45;&gt;Node1 -->
<g id="edge1_Node000001_Node000002" class="edge">
<title>Node2&#45;&gt;Node1</title>
<g id="a_edge1_Node000001_Node000002"><a xlink:title=" ">
<path fill="none" stroke="#63b8ff" d="M158.88,-124.5C164.6,-122.72 170.28,-120.91 175.75,-119.12 189.81,-114.53 205.01,-109.26 218.84,-104.35"/>
<polygon fill="#63b8ff" stroke="#63b8ff" points="157.85,-121.16 149.33,-127.45 159.91,-127.85 157.85,-121.16"/>
</a>
</g>
</g>
<!-- Node3 -->
<g id="Node000003" class="node">
<title>Node3</title>
<g id="a_Node000003"><a xlink:href="classdi_1_1meta_1_1EnableBorrowedContainer.html" target="_top" xlink:title=" ">
<polygon fill="white" stroke="#666666" points="169.75,-110.25 6,-110.25 6,-64 169.75,-64 169.75,-110.25"/>
<text text-anchor="start" x="14" y="-96.75" font-family="Helvetica,sans-Serif" font-size="10.00">di::meta::EnableBorrowed</text>
<text text-anchor="start" x="14" y="-84" font-family="Helvetica,sans-Serif" font-size="10.00">Container&lt; Span&lt; T, dynamic</text>
<text text-anchor="middle" x="87.88" y="-71.25" font-family="Helvetica,sans-Serif" font-size="10.00">_extent &gt; &gt;</text>
</a>
</g>
</g>
<!-- Node3&#45;&gt;Node1 -->
<g id="edge2_Node000001_Node000003" class="edge">
<title>Node3&#45;&gt;Node1</title>
<g id="a_edge2_Node000001_Node000003"><a xlink:title=" ">
<path fill="none" stroke="#63b8ff" d="M181.62,-87.12C191.75,-87.12 201.81,-87.12 211.26,-87.12"/>
<polygon fill="#63b8ff" stroke="#63b8ff" points="181.69,-83.63 171.69,-87.13 181.69,-90.63 181.69,-83.63"/>
</a>
</g>
</g>
<!-- Node4 -->
<g id="Node000004" class="node">
<title>Node4</title>
<g id="a_Node000004"><a xlink:href="classdi_1_1container_1_1ConstantVectorInterface.html" target="_top" xlink:title=" ">
<polygon fill="white" stroke="#666666" points="167.88,-46.25 7.88,-46.25 7.88,0 167.88,0 167.88,-46.25"/>
<text text-anchor="start" x="15.88" y="-32.75" font-family="Helvetica,sans-Serif" font-size="10.00">di::container::ConstantVector</text>
<text text-anchor="start" x="15.88" y="-20" font-family="Helvetica,sans-Serif" font-size="10.00">Interface&lt; Span&lt; T, dynamic</text>
<text text-anchor="middle" x="87.88" y="-7.25" font-family="Helvetica,sans-Serif" font-size="10.00">_extent &gt;, T &gt;</text>
</a>
</g>
</g>
<!-- Node4&#45;&gt;Node1 -->
<g id="edge3_Node000001_Node000004" class="edge">
<title>Node4&#45;&gt;Node1</title>
<g id="a_edge3_Node000001_Node000004"><a xlink:title=" ">
<path fill="none" stroke="#63b8ff" d="M164.69,-50.52C182.92,-57.1 201.87,-63.95 218.39,-69.92"/>
<polygon fill="#63b8ff" stroke="#63b8ff" points="166.09,-47.3 155.5,-47.2 163.71,-53.89 166.09,-47.3"/>
</a>
</g>
</g>
</g>
</svg>
