<?xml version="1.0" encoding="UTF-8" standalone="no"?>
<!DOCTYPE svg PUBLIC "-//W3C//DTD SVG 1.1//EN"
 "http://www.w3.org/Graphics/SVG/1.1/DTD/svg11.dtd">
<!-- Generated by graphviz version 10.0.1 (0)
 -->
<!-- Title: di::vocab::Optional&lt; T &gt; Pages: 1 -->
<svg width="384pt" height="170pt"
 viewBox="0.00 0.00 383.50 169.88" xmlns="http://www.w3.org/2000/svg" xmlns:xlink="http://www.w3.org/1999/xlink">
<g id="graph0" class="graph" transform="scale(1 1) rotate(0) translate(4 165.88)">
<title>di::vocab::Optional&lt; T &gt;</title>
<!-- Node1 -->
<g id="Node000001" class="node">
<title>Node1</title>
<g id="a_Node000001"><a xlink:title=" ">
<polygon fill="#999999" stroke="#666666" points="375.5,-97.5 239.5,-97.5 239.5,-76.75 375.5,-76.75 375.5,-97.5"/>
<text text-anchor="middle" x="307.5" y="-84" font-family="Helvetica,sans-Serif" font-size="10.00">di::vocab::Optional&lt; T &gt;</text>
</a>
</g>
</g>
<!-- Node2 -->
<g id="Node000002" class="node">
<title>Node2</title>
<g id="a_Node000002"><a xlink:href="classdi_1_1meta_1_1EnableView.html" target="_top" xlink:title=" ">
<polygon fill="white" stroke="#666666" points="161.5,-161.88 42,-161.88 42,-128.38 161.5,-128.38 161.5,-161.88"/>
<text text-anchor="start" x="50" y="-148.38" font-family="Helvetica,sans-Serif" font-size="10.00">di::meta::EnableView</text>
<text text-anchor="middle" x="101.75" y="-135.62" font-family="Helvetica,sans-Serif" font-size="10.00">&lt; Optional&lt; T &gt; &gt;</text>
</a>
</g>
</g>
<!-- Node2&#45;&gt;Node1 -->
<g id="edge1_Node000001_Node000002" class="edge">
<title>Node2&#45;&gt;Node1</title>
<g id="a_edge1_Node000001_Node000002"><a xlink:title=" ">
<path fill="none" stroke="#63b8ff" d="M172.83,-127.51C183.14,-124.78 193.61,-121.94 203.5,-119.12 226.92,-112.47 253.11,-104.32 273.22,-97.91"/>
<polygon fill="#63b8ff" stroke="#63b8ff" points="172,-124.11 163.21,-130.03 173.77,-130.88 172,-124.11"/>
</a>
</g>
</g>
<!-- Node3 -->
<g id="Node000003" class="node">
<title>Node3</title>
<g id="a_Node000003"><a xlink:href="classdi_1_1meta_1_1EnableBorrowedContainer.html" target="_top" xlink:title=" ">
<polygon fill="white" stroke="#666666" points="203.5,-110.25 0,-110.25 0,-64 203.5,-64 203.5,-110.25"/>
<text text-anchor="start" x="8" y="-96.75" font-family="Helvetica,sans-Serif" font-size="10.00">di::meta::EnableBorrowed</text>
<text text-anchor="start" x="8" y="-84" font-family="Helvetica,sans-Serif" font-size="10.00">Container&lt; Optional&lt; T</text>
<text text-anchor="middle" x="101.75" y="-71.25" font-family="Helvetica,sans-Serif" font-size="10.00"> &gt;, concepts::LValueReference&lt; T &gt; &gt;</text>
</a>
</g>
</g>
<!-- Node3&#45;&gt;Node1 -->
<g id="edge2_Node000001_Node000003" class="edge">
<title>Node3&#45;&gt;Node1</title>
<g id="a_edge2_Node000001_Node000003"><a xlink:title=" ">
<path fill="none" stroke="#63b8ff" d="M214.97,-87.12C223.19,-87.12 231.32,-87.12 239.14,-87.12"/>
<polygon fill="#63b8ff" stroke="#63b8ff" points="215.24,-83.63 205.24,-87.13 215.24,-90.63 215.24,-83.63"/>
</a>
</g>
</g>
<!-- Node4 -->
<g id="Node000004" class="node">
<title>Node4</title>
<g id="a_Node000004"><a xlink:href="classdi_1_1function_1_1monad_1_1MonadInterface.html" target="_top" xlink:title=" ">
<polygon fill="white" stroke="#666666" points="177.25,-46.25 26.25,-46.25 26.25,0 177.25,0 177.25,-46.25"/>
<text text-anchor="start" x="34.25" y="-32.75" font-family="Helvetica,sans-Serif" font-size="10.00">di::function::monad</text>
<text text-anchor="start" x="34.25" y="-20" font-family="Helvetica,sans-Serif" font-size="10.00">::MonadInterface&lt; Optional</text>
<text text-anchor="middle" x="101.75" y="-7.25" font-family="Helvetica,sans-Serif" font-size="10.00">&lt; T &gt; &gt;</text>
</a>
</g>
</g>
<!-- Node4&#45;&gt;Node1 -->
<g id="edge3_Node000001_Node000004" class="edge">
<title>Node4&#45;&gt;Node1</title>
<g id="a_edge3_Node000001_Node000004"><a xlink:title=" ">
<path fill="none" stroke="#63b8ff" d="M188.21,-49.97C217.65,-59.22 248.97,-69.05 271.99,-76.28"/>
<polygon fill="#63b8ff" stroke="#63b8ff" points="189.5,-46.7 178.91,-47.05 187.4,-53.38 189.5,-46.7"/>
</a>
</g>
</g>
</g>
</svg>
