<?xml version="1.0" encoding="UTF-8" standalone="no"?>
<!DOCTYPE svg PUBLIC "-//W3C//DTD SVG 1.1//EN"
 "http://www.w3.org/Graphics/SVG/1.1/DTD/svg11.dtd">
<!-- Generated by graphviz version 10.0.1 (0)
 -->
<!-- Title: iris::Task Pages: 1 -->
<svg width="334pt" height="155pt"
 viewBox="0.00 0.00 334.00 155.00" xmlns="http://www.w3.org/2000/svg" xmlns:xlink="http://www.w3.org/1999/xlink">
<g id="graph0" class="graph" transform="scale(1 1) rotate(0) translate(4 151)">
<title>iris::Task</title>
<!-- Node1 -->
<g id="Node000001" class="node">
<title>Node1</title>
<g id="a_Node000001"><a xlink:title=" ">
<polygon fill="#999999" stroke="#666666" points="178.12,-20.75 119.38,-20.75 119.38,0 178.12,0 178.12,-20.75"/>
<text text-anchor="middle" x="148.75" y="-7.25" font-family="Helvetica,sans-Serif" font-size="10.00">iris::Task</text>
</a>
</g>
</g>
<!-- Node2 -->
<g id="Node000002" class="node">
<title>Node2</title>
<g id="a_Node000002"><a xlink:href="classdi_1_1container_1_1IntrusiveListNode.html" target="_top" xlink:title=" ">
<polygon fill="white" stroke="#666666" points="125.5,-90.25 0,-90.25 0,-56.75 125.5,-56.75 125.5,-90.25"/>
<text text-anchor="start" x="8" y="-76.75" font-family="Helvetica,sans-Serif" font-size="10.00">di::container::Intrusive</text>
<text text-anchor="middle" x="62.75" y="-64" font-family="Helvetica,sans-Serif" font-size="10.00">ListNode&lt; Tag &gt;</text>
</a>
</g>
</g>
<!-- Node2&#45;&gt;Node1 -->
<g id="edge1_Node000001_Node000002" class="edge">
<title>Node2&#45;&gt;Node1</title>
<g id="a_edge1_Node000001_Node000002"><a xlink:title=" ">
<path fill="none" stroke="#63b8ff" d="M94.61,-49.85C108.5,-39.99 124.04,-28.94 134.9,-21.22"/>
<polygon fill="#63b8ff" stroke="#63b8ff" points="92.7,-46.92 86.58,-55.56 96.76,-52.62 92.7,-46.92"/>
</a>
</g>
</g>
<!-- Node3 -->
<g id="Node000003" class="node">
<title>Node3</title>
<g id="a_Node000003"><a xlink:href="structdi_1_1util_1_1Immovable.html" target="_top" xlink:title=" ">
<polygon fill="white" stroke="#666666" points="202.88,-147 94.62,-147 94.62,-126.25 202.88,-126.25 202.88,-147"/>
<text text-anchor="middle" x="148.75" y="-133.5" font-family="Helvetica,sans-Serif" font-size="10.00">di::util::Immovable</text>
</a>
</g>
</g>
<!-- Node3&#45;&gt;Node2 -->
<g id="edge2_Node000002_Node000003" class="edge">
<title>Node3&#45;&gt;Node2</title>
<g id="a_edge2_Node000002_Node000003"><a xlink:title=" ">
<path fill="none" stroke="#8b1a1a" d="M125.69,-119.23C113.26,-110.4 97.98,-99.54 85.59,-90.73"/>
<polygon fill="#8b1a1a" stroke="#8b1a1a" points="123.52,-121.99 133.7,-124.93 127.58,-116.28 123.52,-121.99"/>
</a>
</g>
</g>
<!-- Node4 -->
<g id="Node000004" class="node">
<title>Node4</title>
<g id="a_Node000004"><a xlink:href="structdi_1_1vocab_1_1IntrusiveRefCount.html" target="_top" xlink:title=" ">
<polygon fill="white" stroke="#666666" points="326,-83.88 143.5,-83.88 143.5,-63.12 326,-63.12 326,-83.88"/>
<text text-anchor="middle" x="234.75" y="-70.38" font-family="Helvetica,sans-Serif" font-size="10.00">di::vocab::IntrusiveRefCount&lt; T &gt;</text>
</a>
</g>
</g>
<!-- Node3&#45;&gt;Node4 -->
<g id="edge4_Node000004_Node000003" class="edge">
<title>Node3&#45;&gt;Node4</title>
<g id="a_edge4_Node000004_Node000003"><a xlink:title=" ">
<path fill="none" stroke="#63b8ff" d="M171.65,-119.35C187.36,-108.18 207.69,-93.73 220.97,-84.3"/>
<polygon fill="#63b8ff" stroke="#63b8ff" points="169.92,-116.28 163.8,-124.93 173.98,-121.99 169.92,-116.28"/>
</a>
</g>
</g>
<!-- Node4&#45;&gt;Node1 -->
<g id="edge3_Node000001_Node000004" class="edge">
<title>Node4&#45;&gt;Node1</title>
<g id="a_edge3_Node000001_Node000004"><a xlink:title=" ">
<path fill="none" stroke="#63b8ff" d="M211.85,-56.23C196.14,-45.06 175.81,-30.61 162.53,-21.17"/>
<polygon fill="#63b8ff" stroke="#63b8ff" points="209.52,-58.86 219.7,-61.8 213.58,-53.16 209.52,-58.86"/>
</a>
</g>
</g>
</g>
</svg>
