<?xml version="1.0" encoding="UTF-8" standalone="no"?>
<!DOCTYPE svg PUBLIC "-//W3C//DTD SVG 1.1//EN"
 "http://www.w3.org/Graphics/SVG/1.1/DTD/svg11.dtd">
<!-- Generated by graphviz version 10.0.1 (0)
 -->
<!-- Title: di::container::string::ConstantStringInterface&lt; Self, Enc &gt; Pages: 1 -->
<svg width="550pt" height="272pt"
 viewBox="0.00 0.00 550.25 272.25" xmlns="http://www.w3.org/2000/svg" xmlns:xlink="http://www.w3.org/1999/xlink">
<g id="graph0" class="graph" transform="scale(1 1) rotate(0) translate(4 268.25)">
<title>di::container::string::ConstantStringInterface&lt; Self, Enc &gt;</title>
<!-- Node1 -->
<g id="Node000001" class="node">
<title>Node1</title>
<g id="a_Node000001"><a xlink:title=" ">
<polygon fill="#999999" stroke="#666666" points="137.5,-118.88 0,-118.88 0,-72.62 137.5,-72.62 137.5,-118.88"/>
<text text-anchor="start" x="8" y="-105.38" font-family="Helvetica,sans-Serif" font-size="10.00">di::container::string</text>
<text text-anchor="start" x="8" y="-92.62" font-family="Helvetica,sans-Serif" font-size="10.00">::ConstantStringInterface</text>
<text text-anchor="middle" x="68.75" y="-79.88" font-family="Helvetica,sans-Serif" font-size="10.00">&lt; Self, Enc &gt;</text>
</a>
</g>
</g>
<!-- Node2 -->
<g id="Node000002" class="node">
<title>Node2</title>
<g id="a_Node000002"><a xlink:href="classdi_1_1container_1_1string_1_1MutableStringInterface.html" target="_top" xlink:title=" ">
<polygon fill="white" stroke="#666666" points="314,-161.25 173.5,-161.25 173.5,-102.25 314,-102.25 314,-161.25"/>
<text text-anchor="start" x="181.5" y="-147.75" font-family="Helvetica,sans-Serif" font-size="10.00">di::container::string</text>
<text text-anchor="start" x="181.5" y="-135" font-family="Helvetica,sans-Serif" font-size="10.00">::MutableStringInterface</text>
<text text-anchor="start" x="181.5" y="-122.25" font-family="Helvetica,sans-Serif" font-size="10.00">&lt; StringImpl&lt; Enc, Vec &gt;</text>
<text text-anchor="middle" x="243.75" y="-109.5" font-family="Helvetica,sans-Serif" font-size="10.00">, Enc &gt;</text>
</a>
</g>
</g>
<!-- Node1&#45;&gt;Node2 -->
<g id="edge1_Node000001_Node000002" class="edge">
<title>Node1&#45;&gt;Node2</title>
<g id="a_edge1_Node000001_Node000002"><a xlink:title=" ">
<path fill="none" stroke="#63b8ff" d="M148.65,-112.17C156.8,-113.86 165.04,-115.58 173.08,-117.25"/>
<polygon fill="#63b8ff" stroke="#63b8ff" points="149.61,-108.79 139.11,-110.18 148.19,-115.65 149.61,-108.79"/>
</a>
</g>
</g>
<!-- Node7 -->
<g id="Node000007" class="node">
<title>Node7</title>
<g id="a_Node000007"><a xlink:href="classdi_1_1container_1_1string_1_1MutableStringInterface.html" target="_top" xlink:title=" ">
<polygon fill="white" stroke="#666666" points="310.62,-83.88 176.88,-83.88 176.88,-37.62 310.62,-37.62 310.62,-83.88"/>
<text text-anchor="start" x="184.88" y="-70.38" font-family="Helvetica,sans-Serif" font-size="10.00">di::container::string</text>
<text text-anchor="start" x="184.88" y="-57.62" font-family="Helvetica,sans-Serif" font-size="10.00">::MutableStringInterface</text>
<text text-anchor="middle" x="243.75" y="-44.88" font-family="Helvetica,sans-Serif" font-size="10.00">&lt; Self, Enc &gt;</text>
</a>
</g>
</g>
<!-- Node1&#45;&gt;Node7 -->
<g id="edge6_Node000001_Node000007" class="edge">
<title>Node1&#45;&gt;Node7</title>
<g id="a_edge6_Node000001_Node000007"><a xlink:title=" ">
<path fill="none" stroke="#63b8ff" d="M148.82,-79.75C158.07,-77.88 167.44,-75.99 176.48,-74.16"/>
<polygon fill="#63b8ff" stroke="#63b8ff" points="148.22,-76.3 139.11,-81.72 149.61,-83.16 148.22,-76.3"/>
</a>
</g>
</g>
<!-- Node3 -->
<g id="Node000003" class="node">
<title>Node3</title>
<g id="a_Node000003"><a xlink:href="classdi_1_1container_1_1string_1_1StringImpl.html" target="_top" xlink:title=" ">
<polygon fill="white" stroke="#666666" points="542.25,-264.25 350,-264.25 350,-205.25 542.25,-205.25 542.25,-264.25"/>
<text text-anchor="start" x="358" y="-250.75" font-family="Helvetica,sans-Serif" font-size="10.00">di::container::string</text>
<text text-anchor="start" x="358" y="-238" font-family="Helvetica,sans-Serif" font-size="10.00">::StringImpl&lt; Enc, container</text>
<text text-anchor="start" x="358" y="-225.25" font-family="Helvetica,sans-Serif" font-size="10.00">::StaticVector&lt; meta::EncodingCode</text>
<text text-anchor="middle" x="446.12" y="-212.5" font-family="Helvetica,sans-Serif" font-size="10.00">Unit&lt; Enc &gt;, SizeConstant &gt; &gt;</text>
</a>
</g>
</g>
<!-- Node2&#45;&gt;Node3 -->
<g id="edge2_Node000002_Node000003" class="edge">
<title>Node2&#45;&gt;Node3</title>
<g id="a_edge2_Node000002_Node000003"><a xlink:title=" ">
<path fill="none" stroke="#63b8ff" d="M298.65,-167.52C314.83,-177.57 332.84,-188.11 350,-196.75 355.48,-199.51 361.21,-202.22 367.02,-204.83"/>
<polygon fill="#63b8ff" stroke="#63b8ff" points="300.96,-164.84 290.63,-162.48 297.24,-170.76 300.96,-164.84"/>
</a>
</g>
</g>
<!-- Node4 -->
<g id="Node000004" class="node">
<title>Node4</title>
<g id="a_Node000004"><a xlink:href="classdi_1_1container_1_1string_1_1StringImpl.html" target="_top" xlink:title=" ">
<polygon fill="white" stroke="#666666" points="502.12,-187.5 390.12,-187.5 390.12,-154 502.12,-154 502.12,-187.5"/>
<text text-anchor="start" x="398.12" y="-174" font-family="Helvetica,sans-Serif" font-size="10.00">di::container::string</text>
<text text-anchor="middle" x="446.12" y="-161.25" font-family="Helvetica,sans-Serif" font-size="10.00">::StringImpl&lt; Enc &gt;</text>
</a>
</g>
</g>
<!-- Node2&#45;&gt;Node4 -->
<g id="edge3_Node000002_Node000004" class="edge">
<title>Node2&#45;&gt;Node4</title>
<g id="a_edge3_Node000002_Node000004"><a xlink:title=" ">
<path fill="none" stroke="#63b8ff" d="M325.45,-147.46C347.1,-151.67 370.01,-156.13 389.93,-160.01"/>
<polygon fill="#63b8ff" stroke="#63b8ff" points="326.24,-144.05 315.75,-145.57 324.9,-150.92 326.24,-144.05"/>
</a>
</g>
</g>
<!-- Node5 -->
<g id="Node000005" class="node">
<title>Node5</title>
<g id="a_Node000005"><a xlink:href="classdi_1_1container_1_1string_1_1StringImpl.html" target="_top" xlink:title=" ">
<polygon fill="white" stroke="#666666" points="526.12,-136 366.12,-136 366.12,-51.5 526.12,-51.5 526.12,-136"/>
<text text-anchor="start" x="374.12" y="-122.5" font-family="Helvetica,sans-Serif" font-size="10.00">di::container::string</text>
<text text-anchor="start" x="374.12" y="-109.75" font-family="Helvetica,sans-Serif" font-size="10.00">::StringImpl&lt; di::container</text>
<text text-anchor="start" x="374.12" y="-97" font-family="Helvetica,sans-Serif" font-size="10.00">::string::TransparentEncoding,</text>
<text text-anchor="start" x="374.12" y="-84.25" font-family="Helvetica,sans-Serif" font-size="10.00"> di::container::StaticVector</text>
<text text-anchor="start" x="374.12" y="-71.5" font-family="Helvetica,sans-Serif" font-size="10.00">&lt; char, di::meta::Constexpr&lt;</text>
<text text-anchor="middle" x="446.12" y="-58.75" font-family="Helvetica,sans-Serif" font-size="10.00"> 12zu &gt; &gt; &gt;</text>
</a>
</g>
</g>
<!-- Node2&#45;&gt;Node5 -->
<g id="edge4_Node000002_Node000005" class="edge">
<title>Node2&#45;&gt;Node5</title>
<g id="a_edge4_Node000002_Node000005"><a xlink:title=" ">
<path fill="none" stroke="#63b8ff" d="M325.33,-116.47C338.66,-113.94 352.47,-111.32 365.77,-108.8"/>
<polygon fill="#63b8ff" stroke="#63b8ff" points="324.93,-112.98 315.76,-118.28 326.23,-119.86 324.93,-112.98"/>
</a>
</g>
</g>
<!-- Node6 -->
<g id="Node000006" class="node">
<title>Node6</title>
<g id="a_Node000006"><a xlink:href="classdi_1_1container_1_1string_1_1StringImpl.html" target="_top" xlink:title=" ">
<polygon fill="white" stroke="#666666" points="513.75,-33.5 378.5,-33.5 378.5,0 513.75,0 513.75,-33.5"/>
<text text-anchor="start" x="386.5" y="-20" font-family="Helvetica,sans-Serif" font-size="10.00">di::container::string</text>
<text text-anchor="middle" x="446.12" y="-7.25" font-family="Helvetica,sans-Serif" font-size="10.00">::StringImpl&lt; Enc, Vec &gt;</text>
</a>
</g>
</g>
<!-- Node2&#45;&gt;Node6 -->
<g id="edge5_Node000002_Node000006" class="edge">
<title>Node2&#45;&gt;Node6</title>
<g id="a_edge5_Node000002_Node000006"><a xlink:title=" ">
<path fill="none" stroke="#63b8ff" d="M311.24,-95.14C312.18,-94.35 313.1,-93.55 314,-92.75 334.41,-74.49 327.51,-58.36 350,-42.75 358.44,-36.89 368.15,-32.35 378.07,-28.83"/>
<polygon fill="#63b8ff" stroke="#63b8ff" points="309.41,-92.14 303.62,-101.01 313.68,-97.68 309.41,-92.14"/>
</a>
</g>
</g>
</g>
</svg>
