<?xml version="1.0" encoding="UTF-8" standalone="no"?>
<!DOCTYPE svg PUBLIC "-//W3C//DTD SVG 1.1//EN"
 "http://www.w3.org/Graphics/SVG/1.1/DTD/svg11.dtd">
<!-- Generated by graphviz version 10.0.1 (0)
 -->
<!-- Title: iris::mm::BackingObject Pages: 1 -->
<svg width="334pt" height="155pt"
 viewBox="0.00 0.00 333.62 155.00" xmlns="http://www.w3.org/2000/svg" xmlns:xlink="http://www.w3.org/1999/xlink">
<g id="graph0" class="graph" transform="scale(1 1) rotate(0) translate(4 151)">
<title>iris::mm::BackingObject</title>
<!-- Node1 -->
<g id="Node000001" class="node">
<title>Node1</title>
<g id="a_Node000001"><a xlink:title=" ">
<polygon fill="#999999" stroke="#666666" points="243.75,-20.75 110.75,-20.75 110.75,0 243.75,0 243.75,-20.75"/>
<text text-anchor="middle" x="177.25" y="-7.25" font-family="Helvetica,sans-Serif" font-size="10.00">iris::mm::BackingObject</text>
</a>
</g>
</g>
<!-- Node2 -->
<g id="Node000002" class="node">
<title>Node2</title>
<g id="a_Node000002"><a xlink:href="structdi_1_1vocab_1_1IntrusiveRefCount.html" target="_top" xlink:title=" ">
<polygon fill="white" stroke="#666666" points="182.5,-83.88 0,-83.88 0,-63.12 182.5,-63.12 182.5,-83.88"/>
<text text-anchor="middle" x="91.25" y="-70.38" font-family="Helvetica,sans-Serif" font-size="10.00">di::vocab::IntrusiveRefCount&lt; T &gt;</text>
</a>
</g>
</g>
<!-- Node2&#45;&gt;Node1 -->
<g id="edge1_Node000001_Node000002" class="edge">
<title>Node2&#45;&gt;Node1</title>
<g id="a_edge1_Node000001_Node000002"><a xlink:title=" ">
<path fill="none" stroke="#63b8ff" d="M114.15,-56.23C129.86,-45.06 150.19,-30.61 163.47,-21.17"/>
<polygon fill="#63b8ff" stroke="#63b8ff" points="112.42,-53.16 106.3,-61.8 116.48,-58.86 112.42,-53.16"/>
</a>
</g>
</g>
<!-- Node3 -->
<g id="Node000003" class="node">
<title>Node3</title>
<g id="a_Node000003"><a xlink:href="structdi_1_1util_1_1Immovable.html" target="_top" xlink:title=" ">
<polygon fill="white" stroke="#666666" points="145.38,-147 37.12,-147 37.12,-126.25 145.38,-126.25 145.38,-147"/>
<text text-anchor="middle" x="91.25" y="-133.5" font-family="Helvetica,sans-Serif" font-size="10.00">di::util::Immovable</text>
</a>
</g>
</g>
<!-- Node3&#45;&gt;Node2 -->
<g id="edge2_Node000002_Node000003" class="edge">
<title>Node3&#45;&gt;Node2</title>
<g id="a_edge2_Node000002_Node000003"><a xlink:title=" ">
<path fill="none" stroke="#63b8ff" d="M91.25,-114.36C91.25,-104.05 91.25,-92.18 91.25,-84.09"/>
<polygon fill="#63b8ff" stroke="#63b8ff" points="87.75,-114.29 91.25,-124.29 94.75,-114.29 87.75,-114.29"/>
</a>
</g>
</g>
<!-- Node4 -->
<g id="Node000004" class="node">
<title>Node4</title>
<g id="a_Node000004"><a xlink:href="classdi_1_1sync_1_1Synchronized.html" target="_top" xlink:title=" ">
<polygon fill="white" stroke="#666666" points="325.62,-90.25 200.88,-90.25 200.88,-56.75 325.62,-56.75 325.62,-90.25"/>
<text text-anchor="start" x="208.88" y="-76.75" font-family="Helvetica,sans-Serif" font-size="10.00">di::sync::Synchronized</text>
<text text-anchor="middle" x="263.25" y="-64" font-family="Helvetica,sans-Serif" font-size="10.00">&lt; Value, Lock &gt;</text>
</a>
</g>
</g>
<!-- Node4&#45;&gt;Node1 -->
<g id="edge3_Node000001_Node000004" class="edge">
<title>Node4&#45;&gt;Node1</title>
<g id="a_edge3_Node000001_Node000004"><a xlink:title=" ">
<path fill="none" stroke="#63b8ff" d="M231.39,-49.85C217.5,-39.99 201.96,-28.94 191.1,-21.22"/>
<polygon fill="#63b8ff" stroke="#63b8ff" points="229.24,-52.62 239.42,-55.56 233.3,-46.92 229.24,-52.62"/>
</a>
</g>
</g>
</g>
</svg>
