<?xml version="1.0" encoding="UTF-8" standalone="no"?>
<!DOCTYPE svg PUBLIC "-//W3C//DTD SVG 1.1//EN"
 "http://www.w3.org/Graphics/SVG/1.1/DTD/svg11.dtd">
<!-- Generated by graphviz version 12.2.1 (0)
 -->
<!-- Title: di::container::StrideView&lt; View &gt; Pages: 1 -->
<svg width="565pt" height="118pt"
 viewBox="0.00 0.00 564.50 118.25" xmlns="http://www.w3.org/2000/svg" xmlns:xlink="http://www.w3.org/1999/xlink">
<g id="graph0" class="graph" transform="scale(1 1) rotate(0) translate(4 114.25)">
<title>di::container::StrideView&lt; View &gt;</title>
<!-- Node1 -->
<g id="Node000001" class="node">
<title>Node1</title>
<g id="a_Node000001"><a xlink:title=" ">
<polygon fill="#999999" stroke="#666666" points="556.5,-78.25 421.25,-78.25 421.25,-44.75 556.5,-44.75 556.5,-78.25"/>
<text text-anchor="start" x="429.25" y="-64.75" font-family="Helvetica,sans-Serif" font-size="10.00">di::container::StrideView</text>
<text text-anchor="middle" x="488.88" y="-52" font-family="Helvetica,sans-Serif" font-size="10.00">&lt; View &gt;</text>
</a>
</g>
</g>
<!-- Node2 -->
<g id="Node000002" class="node">
<title>Node2</title>
<g id="a_Node000002"><a xlink:href="classdi_1_1container_1_1ViewInterface.html" target="_top" xlink:title=" ">
<polygon fill="white" stroke="#666666" points="354.5,-110.25 204.25,-110.25 204.25,-76.75 354.5,-76.75 354.5,-110.25"/>
<text text-anchor="start" x="212.25" y="-96.75" font-family="Helvetica,sans-Serif" font-size="10.00">di::container::ViewInterface</text>
<text text-anchor="middle" x="279.38" y="-84" font-family="Helvetica,sans-Serif" font-size="10.00">&lt; StrideView&lt; View &gt; &gt;</text>
</a>
</g>
</g>
<!-- Node2&#45;&gt;Node1 -->
<g id="edge1_Node000001_Node000002" class="edge">
<title>Node2&#45;&gt;Node1</title>
<g id="a_edge1_Node000001_Node000002"><a xlink:title=" ">
<path fill="none" stroke="#63b8ff" d="M366.22,-80.26C384.43,-77.45 403.41,-74.53 420.81,-71.84"/>
<polygon fill="#63b8ff" stroke="#63b8ff" points="365.84,-76.78 356.49,-81.76 366.91,-83.7 365.84,-76.78"/>
</a>
</g>
</g>
<!-- Node3 -->
<g id="Node000003" class="node">
<title>Node3</title>
<g id="a_Node000003"><a xlink:href="classdi_1_1meta_1_1EnableView.html" target="_top" xlink:title=" ">
<polygon fill="white" stroke="#666666" points="137.5,-110.25 0,-110.25 0,-76.75 137.5,-76.75 137.5,-110.25"/>
<text text-anchor="start" x="8" y="-96.75" font-family="Helvetica,sans-Serif" font-size="10.00">di::meta::EnableView</text>
<text text-anchor="middle" x="68.75" y="-84" font-family="Helvetica,sans-Serif" font-size="10.00">&lt; StrideView&lt; View &gt; &gt;</text>
</a>
</g>
</g>
<!-- Node3&#45;&gt;Node2 -->
<g id="edge2_Node000002_Node000003" class="edge">
<title>Node3&#45;&gt;Node2</title>
<g id="a_edge2_Node000002_Node000003"><a xlink:title=" ">
<path fill="none" stroke="#63b8ff" d="M149.12,-93.5C167.12,-93.5 186.17,-93.5 203.96,-93.5"/>
<polygon fill="#63b8ff" stroke="#63b8ff" points="149.29,-90 139.29,-93.5 149.29,-97 149.29,-90"/>
</a>
</g>
</g>
<!-- Node4 -->
<g id="Node000004" class="node">
<title>Node4</title>
<g id="a_Node000004"><a xlink:href="classdi_1_1meta_1_1EnableBorrowedContainer.html" target="_top" xlink:title=" ">
<polygon fill="white" stroke="#666666" points="385.25,-59 173.5,-59 173.5,0 385.25,0 385.25,-59"/>
<text text-anchor="start" x="181.5" y="-45.5" font-family="Helvetica,sans-Serif" font-size="10.00">di::meta::EnableBorrowed</text>
<text text-anchor="start" x="181.5" y="-32.75" font-family="Helvetica,sans-Serif" font-size="10.00">Container&lt; StrideView</text>
<text text-anchor="start" x="181.5" y="-20" font-family="Helvetica,sans-Serif" font-size="10.00">&lt; View &gt;, concepts::BorrowedContainer</text>
<text text-anchor="middle" x="279.38" y="-7.25" font-family="Helvetica,sans-Serif" font-size="10.00">&lt; View &gt; &gt;</text>
</a>
</g>
</g>
<!-- Node4&#45;&gt;Node1 -->
<g id="edge3_Node000001_Node000004" class="edge">
<title>Node4&#45;&gt;Node1</title>
<g id="a_edge3_Node000001_Node000004"><a xlink:title=" ">
<path fill="none" stroke="#63b8ff" d="M396.9,-47.47C405.12,-48.74 413.24,-49.99 421.03,-51.19"/>
<polygon fill="#63b8ff" stroke="#63b8ff" points="397.56,-44.03 387.14,-45.97 396.49,-50.95 397.56,-44.03"/>
</a>
</g>
</g>
</g>
</svg>
