<?xml version="1.0" encoding="UTF-8" standalone="no"?>
<!DOCTYPE svg PUBLIC "-//W3C//DTD SVG 1.1//EN"
 "http://www.w3.org/Graphics/SVG/1.1/DTD/svg11.dtd">
<!-- Generated by graphviz version 10.0.1 (0)
 -->
<!-- Title: di::container::IntrusiveTreeSet&lt; T, Tag, Comp &gt; Pages: 1 -->
<svg width="172pt" height="181pt"
 viewBox="0.00 0.00 171.75 180.50" xmlns="http://www.w3.org/2000/svg" xmlns:xlink="http://www.w3.org/1999/xlink">
<g id="graph0" class="graph" transform="scale(1 1) rotate(0) translate(4 176.5)">
<title>di::container::IntrusiveTreeSet&lt; T, Tag, Comp &gt;</title>
<!-- Node1 -->
<g id="Node000001" class="node">
<title>Node1</title>
<g id="a_Node000001"><a xlink:title=" ">
<polygon fill="#999999" stroke="#666666" points="150.62,-33.5 13.12,-33.5 13.12,0 150.62,0 150.62,-33.5"/>
<text text-anchor="start" x="21.12" y="-20" font-family="Helvetica,sans-Serif" font-size="10.00">di::container::Intrusive</text>
<text text-anchor="middle" x="81.88" y="-7.25" font-family="Helvetica,sans-Serif" font-size="10.00">TreeSet&lt; T, Tag, Comp &gt;</text>
</a>
</g>
</g>
<!-- Node2 -->
<g id="Node000002" class="node">
<title>Node2</title>
<g id="a_Node000002"><a xlink:href="classdi_1_1container_1_1RBTree.html" target="_top" xlink:title="General implementation of the Red&#45;Black self&#45;balancing binary tree.">
<polygon fill="white" stroke="#666666" points="163.75,-115.75 0,-115.75 0,-69.5 163.75,-69.5 163.75,-115.75"/>
<text text-anchor="start" x="8" y="-102.25" font-family="Helvetica,sans-Serif" font-size="10.00">di::container::RBTree</text>
<text text-anchor="start" x="8" y="-89.5" font-family="Helvetica,sans-Serif" font-size="10.00">&lt; Value, Comp, Tag, Interface,</text>
<text text-anchor="middle" x="81.88" y="-76.75" font-family="Helvetica,sans-Serif" font-size="10.00"> is_multi, Self &gt;</text>
</a>
</g>
</g>
<!-- Node2&#45;&gt;Node1 -->
<g id="edge1_Node000001_Node000002" class="edge">
<title>Node2&#45;&gt;Node1</title>
<g id="a_edge1_Node000001_Node000002"><a xlink:title=" ">
<path fill="none" stroke="#63b8ff" d="M81.88,-57.64C81.88,-49.35 81.88,-40.86 81.88,-33.85"/>
<polygon fill="#63b8ff" stroke="#63b8ff" points="78.38,-57.55 81.88,-67.55 85.38,-57.55 78.38,-57.55"/>
</a>
</g>
</g>
<!-- Node3 -->
<g id="Node000003" class="node">
<title>Node3</title>
<g id="a_Node000003"><a xlink:title=" ">
<polygon fill="white" stroke="#666666" points="111.62,-172.5 52.12,-172.5 52.12,-151.75 111.62,-151.75 111.62,-172.5"/>
<text text-anchor="middle" x="81.88" y="-159" font-family="Helvetica,sans-Serif" font-size="10.00">Interface</text>
</a>
</g>
</g>
<!-- Node3&#45;&gt;Node2 -->
<g id="edge2_Node000002_Node000003" class="edge">
<title>Node3&#45;&gt;Node2</title>
<g id="a_edge2_Node000002_Node000003"><a xlink:title=" ">
<path fill="none" stroke="#63b8ff" d="M81.88,-139.96C81.88,-132.37 81.88,-123.8 81.88,-116.11"/>
<polygon fill="#63b8ff" stroke="#63b8ff" points="78.38,-139.94 81.88,-149.94 85.38,-139.94 78.38,-139.94"/>
</a>
</g>
</g>
</g>
</svg>
