<?xml version="1.0" encoding="UTF-8" standalone="no"?>
<!DOCTYPE svg PUBLIC "-//W3C//DTD SVG 1.1//EN"
 "http://www.w3.org/Graphics/SVG/1.1/DTD/svg11.dtd">
<!-- Generated by graphviz version 10.0.1 (0)
 -->
<!-- Title: di::container::EmptyView&lt; T &gt; Pages: 1 -->
<svg width="550pt" height="94pt"
 viewBox="0.00 0.00 550.25 93.50" xmlns="http://www.w3.org/2000/svg" xmlns:xlink="http://www.w3.org/1999/xlink">
<g id="graph0" class="graph" transform="scale(1 1) rotate(0) translate(4 89.5)">
<title>di::container::EmptyView&lt; T &gt;</title>
<!-- Node1 -->
<g id="Node000001" class="node">
<title>Node1</title>
<g id="a_Node000001"><a xlink:title=" ">
<polygon fill="#999999" stroke="#666666" points="542.25,-53.12 375.5,-53.12 375.5,-32.38 542.25,-32.38 542.25,-53.12"/>
<text text-anchor="middle" x="458.88" y="-39.62" font-family="Helvetica,sans-Serif" font-size="10.00">di::container::EmptyView&lt; T &gt;</text>
</a>
</g>
</g>
<!-- Node2 -->
<g id="Node000002" class="node">
<title>Node2</title>
<g id="a_Node000002"><a xlink:href="classdi_1_1container_1_1ViewInterface.html" target="_top" xlink:title=" ">
<polygon fill="white" stroke="#666666" points="329.75,-85.5 179.5,-85.5 179.5,-52 329.75,-52 329.75,-85.5"/>
<text text-anchor="start" x="187.5" y="-72" font-family="Helvetica,sans-Serif" font-size="10.00">di::container::ViewInterface</text>
<text text-anchor="middle" x="254.62" y="-59.25" font-family="Helvetica,sans-Serif" font-size="10.00">&lt; EmptyView&lt; T &gt; &gt;</text>
</a>
</g>
</g>
<!-- Node2&#45;&gt;Node1 -->
<g id="edge1_Node000001_Node000002" class="edge">
<title>Node2&#45;&gt;Node1</title>
<g id="a_edge1_Node000001_Node000002"><a xlink:title=" ">
<path fill="none" stroke="#63b8ff" d="M341.19,-57.75C352.4,-56.31 363.89,-54.83 375.06,-53.4"/>
<polygon fill="#63b8ff" stroke="#63b8ff" points="341.05,-54.24 331.57,-58.99 341.94,-61.18 341.05,-54.24"/>
</a>
</g>
</g>
<!-- Node3 -->
<g id="Node000003" class="node">
<title>Node3</title>
<g id="a_Node000003"><a xlink:href="classdi_1_1meta_1_1EnableView.html" target="_top" xlink:title=" ">
<polygon fill="white" stroke="#666666" points="133.75,-85.5 0,-85.5 0,-52 133.75,-52 133.75,-85.5"/>
<text text-anchor="start" x="8" y="-72" font-family="Helvetica,sans-Serif" font-size="10.00">di::meta::EnableView</text>
<text text-anchor="middle" x="66.88" y="-59.25" font-family="Helvetica,sans-Serif" font-size="10.00">&lt; Self, should_enable &gt;</text>
</a>
</g>
</g>
<!-- Node3&#45;&gt;Node2 -->
<g id="edge2_Node000002_Node000003" class="edge">
<title>Node3&#45;&gt;Node2</title>
<g id="a_edge2_Node000002_Node000003"><a xlink:title=" ">
<path fill="none" stroke="#63b8ff" d="M145.59,-68.75C156.71,-68.75 168.11,-68.75 179.16,-68.75"/>
<polygon fill="#63b8ff" stroke="#63b8ff" points="145.66,-65.25 135.66,-68.75 145.66,-72.25 145.66,-65.25"/>
</a>
</g>
</g>
<!-- Node4 -->
<g id="Node000004" class="node">
<title>Node4</title>
<g id="a_Node000004"><a xlink:href="classdi_1_1meta_1_1EnableBorrowedContainer.html" target="_top" xlink:title=" ">
<polygon fill="white" stroke="#666666" points="339.5,-33.5 169.75,-33.5 169.75,0 339.5,0 339.5,-33.5"/>
<text text-anchor="start" x="177.75" y="-20" font-family="Helvetica,sans-Serif" font-size="10.00">di::meta::EnableBorrowed</text>
<text text-anchor="middle" x="254.62" y="-7.25" font-family="Helvetica,sans-Serif" font-size="10.00">Container&lt; EmptyView&lt; T &gt; &gt;</text>
</a>
</g>
</g>
<!-- Node4&#45;&gt;Node1 -->
<g id="edge3_Node000001_Node000004" class="edge">
<title>Node4&#45;&gt;Node1</title>
<g id="a_edge3_Node000001_Node000004"><a xlink:title=" ">
<path fill="none" stroke="#63b8ff" d="M351.15,-29.03C359.12,-30.05 367.14,-31.09 375,-32.1"/>
<polygon fill="#63b8ff" stroke="#63b8ff" points="351.8,-25.58 341.43,-27.78 350.91,-32.53 351.8,-25.58"/>
</a>
</g>
</g>
</g>
</svg>
