<?xml version="1.0" encoding="UTF-8" standalone="no"?>
<!DOCTYPE svg PUBLIC "-//W3C//DTD SVG 1.1//EN"
 "http://www.w3.org/Graphics/SVG/1.1/DTD/svg11.dtd">
<!-- Generated by graphviz version 10.0.1 (0)
 -->
<!-- Title: di::container::SplitView&lt; View, Pattern &gt; Pages: 1 -->
<svg width="179pt" height="181pt"
 viewBox="0.00 0.00 179.25 180.50" xmlns="http://www.w3.org/2000/svg" xmlns:xlink="http://www.w3.org/1999/xlink">
<g id="graph0" class="graph" transform="scale(1 1) rotate(0) translate(4 176.5)">
<title>di::container::SplitView&lt; View, Pattern &gt;</title>
<!-- Node1 -->
<g id="Node000001" class="node">
<title>Node1</title>
<g id="a_Node000001"><a xlink:title=" ">
<polygon fill="#999999" stroke="#666666" points="149.88,-33.5 21.38,-33.5 21.38,0 149.88,0 149.88,-33.5"/>
<text text-anchor="start" x="29.38" y="-20" font-family="Helvetica,sans-Serif" font-size="10.00">di::container::SplitView</text>
<text text-anchor="middle" x="85.62" y="-7.25" font-family="Helvetica,sans-Serif" font-size="10.00">&lt; View, Pattern &gt;</text>
</a>
</g>
</g>
<!-- Node2 -->
<g id="Node000002" class="node">
<title>Node2</title>
<g id="a_Node000002"><a xlink:href="classdi_1_1container_1_1ViewInterface.html" target="_top" xlink:title=" ">
<polygon fill="white" stroke="#666666" points="171.25,-103 0,-103 0,-69.5 171.25,-69.5 171.25,-103"/>
<text text-anchor="start" x="8" y="-89.5" font-family="Helvetica,sans-Serif" font-size="10.00">di::container::ViewInterface</text>
<text text-anchor="middle" x="85.62" y="-76.75" font-family="Helvetica,sans-Serif" font-size="10.00">&lt; SplitView&lt; View, Pattern &gt; &gt;</text>
</a>
</g>
</g>
<!-- Node2&#45;&gt;Node1 -->
<g id="edge1_Node000001_Node000002" class="edge">
<title>Node2&#45;&gt;Node1</title>
<g id="a_edge1_Node000001_Node000002"><a xlink:title=" ">
<path fill="none" stroke="#63b8ff" d="M85.62,-57.81C85.62,-49.59 85.62,-40.84 85.62,-33.63"/>
<polygon fill="#63b8ff" stroke="#63b8ff" points="82.13,-57.74 85.63,-67.74 89.13,-57.74 82.13,-57.74"/>
</a>
</g>
</g>
<!-- Node3 -->
<g id="Node000003" class="node">
<title>Node3</title>
<g id="a_Node000003"><a xlink:href="classdi_1_1meta_1_1EnableView.html" target="_top" xlink:title=" ">
<polygon fill="white" stroke="#666666" points="152.5,-172.5 18.75,-172.5 18.75,-139 152.5,-139 152.5,-172.5"/>
<text text-anchor="start" x="26.75" y="-159" font-family="Helvetica,sans-Serif" font-size="10.00">di::meta::EnableView</text>
<text text-anchor="middle" x="85.62" y="-146.25" font-family="Helvetica,sans-Serif" font-size="10.00">&lt; Self, should_enable &gt;</text>
</a>
</g>
</g>
<!-- Node3&#45;&gt;Node2 -->
<g id="edge2_Node000002_Node000003" class="edge">
<title>Node3&#45;&gt;Node2</title>
<g id="a_edge2_Node000002_Node000003"><a xlink:title=" ">
<path fill="none" stroke="#63b8ff" d="M85.62,-127.31C85.62,-119.09 85.62,-110.34 85.62,-103.13"/>
<polygon fill="#63b8ff" stroke="#63b8ff" points="82.13,-127.24 85.63,-137.24 89.13,-127.24 82.13,-127.24"/>
</a>
</g>
</g>
</g>
</svg>
