<?xml version="1.0" encoding="UTF-8" standalone="no"?>
<!DOCTYPE svg PUBLIC "-//W3C//DTD SVG 1.1//EN"
 "http://www.w3.org/Graphics/SVG/1.1/DTD/svg11.dtd">
<!-- Generated by graphviz version 10.0.1 (0)
 -->
<!-- Title: di::container::OwningRBTree&lt; Value, Comp, Tag, Alloc, Interface, is_multi &gt; Pages: 1 -->
<svg width="659pt" height="442pt"
 viewBox="0.00 0.00 658.50 441.50" xmlns="http://www.w3.org/2000/svg" xmlns:xlink="http://www.w3.org/1999/xlink">
<g id="graph0" class="graph" transform="scale(1 1) rotate(0) translate(4 437.5)">
<title>di::container::OwningRBTree&lt; Value, Comp, Tag, Alloc, Interface, is_multi &gt;</title>
<!-- Node1 -->
<g id="Node000001" class="node">
<title>Node1</title>
<g id="a_Node000001"><a xlink:title=" ">
<polygon fill="#999999" stroke="#666666" points="460.5,-233.88 307.25,-233.88 307.25,-187.62 460.5,-187.62 460.5,-233.88"/>
<text text-anchor="start" x="315.25" y="-220.38" font-family="Helvetica,sans-Serif" font-size="10.00">di::container::OwningRBTree</text>
<text text-anchor="start" x="315.25" y="-207.62" font-family="Helvetica,sans-Serif" font-size="10.00">&lt; Value, Comp, Tag, Alloc,</text>
<text text-anchor="middle" x="383.88" y="-194.88" font-family="Helvetica,sans-Serif" font-size="10.00"> Interface, is_multi &gt;</text>
</a>
</g>
</g>
<!-- Node4 -->
<g id="Node000004" class="node">
<title>Node4</title>
<g id="a_Node000004"><a xlink:href="classdi_1_1container_1_1TreeMap.html" target="_top" xlink:title=" ">
<polygon fill="white" stroke="#666666" points="643,-433.5 504,-433.5 504,-400 643,-400 643,-433.5"/>
<text text-anchor="start" x="512" y="-420" font-family="Helvetica,sans-Serif" font-size="10.00">di::container::TreeMap</text>
<text text-anchor="middle" x="573.5" y="-407.25" font-family="Helvetica,sans-Serif" font-size="10.00">&lt; u32, iris::Processor * &gt;</text>
</a>
</g>
</g>
<!-- Node1&#45;&gt;Node4 -->
<g id="edge3_Node000001_Node000004" class="edge">
<title>Node1&#45;&gt;Node4</title>
<g id="a_edge3_Node000001_Node000004"><a xlink:title=" ">
<path fill="none" stroke="#63b8ff" d="M397.64,-244.85C414.42,-285.19 447.6,-351.8 496.5,-390.75 500.75,-394.14 505.48,-397.1 510.42,-399.68"/>
<polygon fill="#63b8ff" stroke="#63b8ff" points="400.91,-243.57 393.92,-235.61 394.41,-246.19 400.91,-243.57"/>
</a>
</g>
</g>
<!-- Node5 -->
<g id="Node000005" class="node">
<title>Node5</title>
<g id="a_Node000005"><a xlink:href="classdi_1_1container_1_1TreeMap.html" target="_top" xlink:title=" ">
<polygon fill="white" stroke="#666666" points="639.25,-381.88 507.75,-381.88 507.75,-335.62 639.25,-335.62 639.25,-381.88"/>
<text text-anchor="start" x="515.75" y="-368.38" font-family="Helvetica,sans-Serif" font-size="10.00">di::container::TreeMap</text>
<text text-anchor="start" x="515.75" y="-355.62" font-family="Helvetica,sans-Serif" font-size="10.00">&lt; di::TransparentString,</text>
<text text-anchor="middle" x="573.5" y="-342.88" font-family="Helvetica,sans-Serif" font-size="10.00"> di::Arc&lt; iris::Inode &gt; &gt;</text>
</a>
</g>
</g>
<!-- Node1&#45;&gt;Node5 -->
<g id="edge4_Node000001_Node000005" class="edge">
<title>Node1&#45;&gt;Node5</title>
<g id="a_edge4_Node000001_Node000005"><a xlink:title=" ">
<path fill="none" stroke="#63b8ff" d="M409.57,-242.85C430.49,-268.3 462.43,-303.37 496.5,-326.75 500.87,-329.75 505.56,-332.55 510.39,-335.14"/>
<polygon fill="#63b8ff" stroke="#63b8ff" points="412.34,-240.7 403.33,-235.12 406.89,-245.1 412.34,-240.7"/>
</a>
</g>
</g>
<!-- Node6 -->
<g id="Node000006" class="node">
<title>Node6</title>
<g id="a_Node000006"><a xlink:href="classdi_1_1container_1_1TreeMap.html" target="_top" xlink:title=" ">
<polygon fill="white" stroke="#666666" points="636.62,-317.88 510.38,-317.88 510.38,-271.62 636.62,-271.62 636.62,-317.88"/>
<text text-anchor="start" x="518.38" y="-304.38" font-family="Helvetica,sans-Serif" font-size="10.00">di::container::TreeMap</text>
<text text-anchor="start" x="518.38" y="-291.62" font-family="Helvetica,sans-Serif" font-size="10.00">&lt; di::util::StrongInt,</text>
<text text-anchor="middle" x="573.5" y="-278.88" font-family="Helvetica,sans-Serif" font-size="10.00"> di::Arc&lt; iris::Task &gt; &gt;</text>
</a>
</g>
</g>
<!-- Node1&#45;&gt;Node6 -->
<g id="edge5_Node000001_Node000006" class="edge">
<title>Node1&#45;&gt;Node6</title>
<g id="a_edge5_Node000001_Node000006"><a xlink:title=" ">
<path fill="none" stroke="#63b8ff" d="M444.62,-239.09C461.35,-246.88 479.59,-255.25 496.5,-262.75 502.78,-265.53 509.38,-268.4 515.96,-271.22"/>
<polygon fill="#63b8ff" stroke="#63b8ff" points="446.34,-236.02 435.8,-234.96 443.37,-242.36 446.34,-236.02"/>
</a>
</g>
</g>
<!-- Node7 -->
<g id="Node000007" class="node">
<title>Node7</title>
<g id="a_Node000007"><a xlink:href="classdi_1_1container_1_1TreeSet.html" target="_top" xlink:title=" ">
<polygon fill="white" stroke="#666666" points="632.88,-253.5 514.12,-253.5 514.12,-220 632.88,-220 632.88,-253.5"/>
<text text-anchor="start" x="522.12" y="-240" font-family="Helvetica,sans-Serif" font-size="10.00">di::container::TreeSet</text>
<text text-anchor="middle" x="573.5" y="-227.25" font-family="Helvetica,sans-Serif" font-size="10.00">&lt; pm::Package &gt;</text>
</a>
</g>
</g>
<!-- Node1&#45;&gt;Node7 -->
<g id="edge6_Node000001_Node000007" class="edge">
<title>Node1&#45;&gt;Node7</title>
<g id="a_edge6_Node000001_Node000007"><a xlink:title=" ">
<path fill="none" stroke="#63b8ff" d="M472.13,-222.84C486.19,-224.79 500.45,-226.77 513.64,-228.59"/>
<polygon fill="#63b8ff" stroke="#63b8ff" points="472.8,-219.4 462.42,-221.5 471.84,-226.34 472.8,-219.4"/>
</a>
</g>
</g>
<!-- Node8 -->
<g id="Node000008" class="node">
<title>Node8</title>
<g id="a_Node000008"><a xlink:href="classdi_1_1container_1_1TreeMap.html" target="_top" xlink:title=" ">
<polygon fill="white" stroke="#666666" points="650.5,-201.5 496.5,-201.5 496.5,-168 650.5,-168 650.5,-201.5"/>
<text text-anchor="start" x="504.5" y="-188" font-family="Helvetica,sans-Serif" font-size="10.00">di::container::TreeMap</text>
<text text-anchor="middle" x="573.5" y="-175.25" font-family="Helvetica,sans-Serif" font-size="10.00">&lt; Key, Value, Comp, Alloc &gt;</text>
</a>
</g>
</g>
<!-- Node1&#45;&gt;Node8 -->
<g id="edge7_Node000001_Node000008" class="edge">
<title>Node1&#45;&gt;Node8</title>
<g id="a_edge7_Node000001_Node000008"><a xlink:title=" ">
<path fill="none" stroke="#63b8ff" d="M472.14,-198.66C480.12,-197.55 488.17,-196.44 496.04,-195.34"/>
<polygon fill="#63b8ff" stroke="#63b8ff" points="471.84,-195.16 462.42,-200 472.8,-202.1 471.84,-195.16"/>
</a>
</g>
</g>
<!-- Node9 -->
<g id="Node000009" class="node">
<title>Node9</title>
<g id="a_Node000009"><a xlink:href="classdi_1_1container_1_1TreeMultiMap.html" target="_top" xlink:title=" ">
<polygon fill="white" stroke="#666666" points="641.88,-149.88 505.12,-149.88 505.12,-103.62 641.88,-103.62 641.88,-149.88"/>
<text text-anchor="start" x="513.12" y="-136.38" font-family="Helvetica,sans-Serif" font-size="10.00">di::container::TreeMulti</text>
<text text-anchor="start" x="513.12" y="-123.62" font-family="Helvetica,sans-Serif" font-size="10.00">Map&lt; Key, Value, Comp,</text>
<text text-anchor="middle" x="573.5" y="-110.88" font-family="Helvetica,sans-Serif" font-size="10.00"> Alloc &gt;</text>
</a>
</g>
</g>
<!-- Node1&#45;&gt;Node9 -->
<g id="edge8_Node000001_Node000009" class="edge">
<title>Node1&#45;&gt;Node9</title>
<g id="a_edge8_Node000001_Node000009"><a xlink:title=" ">
<path fill="none" stroke="#63b8ff" d="M444.62,-182.41C461.35,-174.62 479.59,-166.25 496.5,-158.75 502.78,-155.97 509.38,-153.1 515.96,-150.28"/>
<polygon fill="#63b8ff" stroke="#63b8ff" points="443.37,-179.14 435.8,-186.54 446.34,-185.48 443.37,-179.14"/>
</a>
</g>
</g>
<!-- Node10 -->
<g id="Node000010" class="node">
<title>Node10</title>
<g id="a_Node000010"><a xlink:href="classdi_1_1container_1_1TreeMultiSet.html" target="_top" xlink:title=" ">
<polygon fill="white" stroke="#666666" points="646.38,-85.5 500.62,-85.5 500.62,-52 646.38,-52 646.38,-85.5"/>
<text text-anchor="start" x="508.62" y="-72" font-family="Helvetica,sans-Serif" font-size="10.00">di::container::TreeMulti</text>
<text text-anchor="middle" x="573.5" y="-59.25" font-family="Helvetica,sans-Serif" font-size="10.00">Set&lt; Value, Comp, Alloc &gt;</text>
</a>
</g>
</g>
<!-- Node1&#45;&gt;Node10 -->
<g id="edge9_Node000001_Node000010" class="edge">
<title>Node1&#45;&gt;Node10</title>
<g id="a_edge9_Node000001_Node000010"><a xlink:title=" ">
<path fill="none" stroke="#63b8ff" d="M408.78,-178.48C429.44,-152.62 461.44,-117.08 496.5,-94.75 501.68,-91.45 507.32,-88.52 513.11,-85.93"/>
<polygon fill="#63b8ff" stroke="#63b8ff" points="406.04,-176.31 402.63,-186.34 411.55,-180.62 406.04,-176.31"/>
</a>
</g>
</g>
<!-- Node11 -->
<g id="Node000011" class="node">
<title>Node11</title>
<g id="a_Node000011"><a xlink:href="classdi_1_1container_1_1TreeSet.html" target="_top" xlink:title=" ">
<polygon fill="white" stroke="#666666" points="638.5,-33.5 508.5,-33.5 508.5,0 638.5,0 638.5,-33.5"/>
<text text-anchor="start" x="516.5" y="-20" font-family="Helvetica,sans-Serif" font-size="10.00">di::container::TreeSet</text>
<text text-anchor="middle" x="573.5" y="-7.25" font-family="Helvetica,sans-Serif" font-size="10.00">&lt; Value, Comp, Alloc &gt;</text>
</a>
</g>
</g>
<!-- Node1&#45;&gt;Node11 -->
<g id="edge10_Node000001_Node000011" class="edge">
<title>Node1&#45;&gt;Node11</title>
<g id="a_edge10_Node000001_Node000011"><a xlink:title=" ">
<path fill="none" stroke="#63b8ff" d="M398.95,-177.4C416.51,-139.61 449.99,-78.62 496.5,-42.75 500.81,-39.43 505.56,-36.52 510.54,-33.96"/>
<polygon fill="#63b8ff" stroke="#63b8ff" points="395.98,-175.47 395.04,-186.02 402.36,-178.36 395.98,-175.47"/>
</a>
</g>
</g>
<!-- Node2 -->
<g id="Node000002" class="node">
<title>Node2</title>
<g id="a_Node000002"><a xlink:href="classdi_1_1container_1_1RBTree.html" target="_top" xlink:title=" ">
<polygon fill="white" stroke="#666666" points="271.25,-246.62 95.5,-246.62 95.5,-174.88 271.25,-174.88 271.25,-246.62"/>
<text text-anchor="start" x="103.5" y="-233.12" font-family="Helvetica,sans-Serif" font-size="10.00">di::container::RBTree</text>
<text text-anchor="start" x="103.5" y="-220.38" font-family="Helvetica,sans-Serif" font-size="10.00">&lt; Value, Comp, Tag, Interface,</text>
<text text-anchor="start" x="103.5" y="-207.62" font-family="Helvetica,sans-Serif" font-size="10.00"> is_multi, OwningRBTree&lt; Value,</text>
<text text-anchor="start" x="103.5" y="-194.88" font-family="Helvetica,sans-Serif" font-size="10.00"> Comp, Tag, Alloc, Interface,</text>
<text text-anchor="middle" x="183.38" y="-182.12" font-family="Helvetica,sans-Serif" font-size="10.00"> is_multi &gt; &gt;</text>
</a>
</g>
</g>
<!-- Node2&#45;&gt;Node1 -->
<g id="edge1_Node000001_Node000002" class="edge">
<title>Node2&#45;&gt;Node1</title>
<g id="a_edge1_Node000001_Node000002"><a xlink:title=" ">
<path fill="none" stroke="#63b8ff" d="M283.07,-210.75C291.11,-210.75 299.16,-210.75 306.99,-210.75"/>
<polygon fill="#63b8ff" stroke="#63b8ff" points="283.24,-207.25 273.24,-210.75 283.24,-214.25 283.24,-207.25"/>
</a>
</g>
</g>
<!-- Node3 -->
<g id="Node000003" class="node">
<title>Node3</title>
<g id="a_Node000003"><a xlink:title=" ">
<polygon fill="white" stroke="#666666" points="59.5,-221.12 0,-221.12 0,-200.38 59.5,-200.38 59.5,-221.12"/>
<text text-anchor="middle" x="29.75" y="-207.62" font-family="Helvetica,sans-Serif" font-size="10.00">Interface</text>
</a>
</g>
</g>
<!-- Node3&#45;&gt;Node2 -->
<g id="edge2_Node000002_Node000003" class="edge">
<title>Node3&#45;&gt;Node2</title>
<g id="a_edge2_Node000002_Node000003"><a xlink:title=" ">
<path fill="none" stroke="#63b8ff" d="M71.24,-210.75C78.76,-210.75 86.87,-210.75 95.16,-210.75"/>
<polygon fill="#63b8ff" stroke="#63b8ff" points="71.5,-207.25 61.5,-210.75 71.5,-214.25 71.5,-207.25"/>
</a>
</g>
</g>
</g>
</svg>
