<?xml version="1.0" encoding="UTF-8" standalone="no"?>
<!DOCTYPE svg PUBLIC "-//W3C//DTD SVG 1.1//EN"
 "http://www.w3.org/Graphics/SVG/1.1/DTD/svg11.dtd">
<!-- Generated by graphviz version 10.0.1 (0)
 -->
<!-- Title: di::serialization::json::Value Pages: 1 -->
<svg width="140pt" height="193pt"
 viewBox="0.00 0.00 140.25 193.25" xmlns="http://www.w3.org/2000/svg" xmlns:xlink="http://www.w3.org/1999/xlink">
<g id="graph0" class="graph" transform="scale(1 1) rotate(0) translate(4 189.25)">
<title>di::serialization::json::Value</title>
<!-- Node1 -->
<g id="Node000001" class="node">
<title>Node1</title>
<g id="a_Node000001"><a xlink:title=" ">
<polygon fill="#999999" stroke="#666666" points="114.62,-33.5 17.62,-33.5 17.62,0 114.62,0 114.62,-33.5"/>
<text text-anchor="start" x="25.62" y="-20" font-family="Helvetica,sans-Serif" font-size="10.00">di::serialization::</text>
<text text-anchor="middle" x="66.12" y="-7.25" font-family="Helvetica,sans-Serif" font-size="10.00">json::Value</text>
</a>
</g>
</g>
<!-- Node2 -->
<g id="Node000002" class="node">
<title>Node2</title>
<g id="a_Node000002"><a xlink:href="classdi_1_1vocab_1_1Variant.html" target="_top" xlink:title=" ">
<polygon fill="white" stroke="#666666" points="130.38,-115.75 1.88,-115.75 1.88,-69.5 130.38,-69.5 130.38,-115.75"/>
<text text-anchor="start" x="9.88" y="-102.25" font-family="Helvetica,sans-Serif" font-size="10.00">di::vocab::Variant</text>
<text text-anchor="start" x="9.88" y="-89.5" font-family="Helvetica,sans-Serif" font-size="10.00">&lt; Null, Bool, Number,</text>
<text text-anchor="middle" x="66.12" y="-76.75" font-family="Helvetica,sans-Serif" font-size="10.00"> String, Array, Object &gt;</text>
</a>
</g>
</g>
<!-- Node2&#45;&gt;Node1 -->
<g id="edge1_Node000001_Node000002" class="edge">
<title>Node2&#45;&gt;Node1</title>
<g id="a_edge1_Node000001_Node000002"><a xlink:title=" ">
<path fill="none" stroke="#63b8ff" d="M66.12,-57.64C66.12,-49.35 66.12,-40.86 66.12,-33.85"/>
<polygon fill="#63b8ff" stroke="#63b8ff" points="62.63,-57.55 66.13,-67.55 69.63,-57.55 62.63,-57.55"/>
</a>
</g>
</g>
<!-- Node3 -->
<g id="Node000003" class="node">
<title>Node3</title>
<g id="a_Node000003"><a xlink:href="structdi_1_1util_1_1AddMemberGet.html" target="_top" xlink:title=" ">
<polygon fill="white" stroke="#666666" points="132.25,-185.25 0,-185.25 0,-151.75 132.25,-151.75 132.25,-185.25"/>
<text text-anchor="start" x="8" y="-171.75" font-family="Helvetica,sans-Serif" font-size="10.00">di::util::AddMemberGet</text>
<text text-anchor="middle" x="66.12" y="-159" font-family="Helvetica,sans-Serif" font-size="10.00">&lt; Variant&lt; Types... &gt; &gt;</text>
</a>
</g>
</g>
<!-- Node3&#45;&gt;Node2 -->
<g id="edge2_Node000002_Node000003" class="edge">
<title>Node3&#45;&gt;Node2</title>
<g id="a_edge2_Node000002_Node000003"><a xlink:title=" ">
<path fill="none" stroke="#63b8ff" d="M66.12,-140.14C66.12,-132.21 66.12,-123.66 66.12,-116.07"/>
<polygon fill="#63b8ff" stroke="#63b8ff" points="62.63,-139.96 66.13,-149.96 69.63,-139.96 62.63,-139.96"/>
</a>
</g>
</g>
</g>
</svg>
