<?xml version="1.0" encoding="UTF-8" standalone="no"?>
<!DOCTYPE svg PUBLIC "-//W3C//DTD SVG 1.1//EN"
 "http://www.w3.org/Graphics/SVG/1.1/DTD/svg11.dtd">
<!-- Generated by graphviz version 10.0.1 (0)
 -->
<!-- Title: di::container::IntrusiveForwardListNode&lt; Tag &gt; Pages: 1 -->
<svg width="683pt" height="326pt"
 viewBox="0.00 0.00 682.50 325.50" xmlns="http://www.w3.org/2000/svg" xmlns:xlink="http://www.w3.org/1999/xlink">
<g id="graph0" class="graph" transform="scale(1 1) rotate(0) translate(4 321.5)">
<title>di::container::IntrusiveForwardListNode&lt; Tag &gt;</title>
<!-- Node1 -->
<g id="Node000001" class="node">
<title>Node1</title>
<g id="a_Node000001"><a xlink:title=" ">
<polygon fill="#999999" stroke="#666666" points="281,-140.5 144.25,-140.5 144.25,-107 281,-107 281,-140.5"/>
<text text-anchor="start" x="152.25" y="-127" font-family="Helvetica,sans-Serif" font-size="10.00">di::container::Intrusive</text>
<text text-anchor="middle" x="212.62" y="-114.25" font-family="Helvetica,sans-Serif" font-size="10.00">ForwardListNode&lt; Tag &gt;</text>
</a>
</g>
</g>
<!-- Node3 -->
<g id="Node000003" class="node">
<title>Node3</title>
<g id="a_Node000003"><a xlink:href="structdi_1_1container_1_1HashNode.html" target="_top" xlink:title=" ">
<polygon fill="white" stroke="#666666" points="459,-282.5 326,-282.5 326,-249 459,-249 459,-282.5"/>
<text text-anchor="start" x="334" y="-269" font-family="Helvetica,sans-Serif" font-size="10.00">di::container::HashNode</text>
<text text-anchor="middle" x="392.5" y="-256.25" font-family="Helvetica,sans-Serif" font-size="10.00">&lt; Tag &gt;</text>
</a>
</g>
</g>
<!-- Node1&#45;&gt;Node3 -->
<g id="edge2_Node000001_Node000003" class="edge">
<title>Node1&#45;&gt;Node3</title>
<g id="a_edge2_Node000001_Node000003"><a xlink:title=" ">
<path fill="none" stroke="#63b8ff" d="M243.65,-147.72C279.46,-176.3 338.41,-223.36 369.97,-248.56"/>
<polygon fill="#63b8ff" stroke="#63b8ff" points="246.26,-145.33 236.26,-141.82 241.9,-150.8 246.26,-145.33"/>
</a>
</g>
</g>
<!-- Node5 -->
<g id="Node000005" class="node">
<title>Node5</title>
<g id="a_Node000005"><a xlink:href="structdius_1_1linux_1_1OperationStateBase.html" target="_top" xlink:title=" ">
<polygon fill="white" stroke="#666666" points="465.38,-166.5 319.62,-166.5 319.62,-133 465.38,-133 465.38,-166.5"/>
<text text-anchor="start" x="327.62" y="-153" font-family="Helvetica,sans-Serif" font-size="10.00">dius::linux::OperationState</text>
<text text-anchor="middle" x="392.5" y="-140.25" font-family="Helvetica,sans-Serif" font-size="10.00">Base&lt;&gt;</text>
</a>
</g>
</g>
<!-- Node1&#45;&gt;Node5 -->
<g id="edge4_Node000001_Node000005" class="edge">
<title>Node1&#45;&gt;Node5</title>
<g id="a_edge4_Node000001_Node000005"><a xlink:title=" ">
<path fill="none" stroke="#63b8ff" d="M292.52,-135.28C301.4,-136.58 310.41,-137.9 319.2,-139.18"/>
<polygon fill="#63b8ff" stroke="#63b8ff" points="293.28,-131.86 282.88,-133.87 292.27,-138.78 293.28,-131.86"/>
</a>
</g>
</g>
<!-- Node11 -->
<g id="Node000011" class="node">
<title>Node11</title>
<g id="a_Node000011"><a xlink:href="structdius_1_1runtime_1_1detail_1_1FreeListNode.html" target="_top" xlink:title=" ">
<polygon fill="white" stroke="#666666" points="449.62,-114.5 335.38,-114.5 335.38,-81 449.62,-81 449.62,-114.5"/>
<text text-anchor="start" x="343.38" y="-101" font-family="Helvetica,sans-Serif" font-size="10.00">dius::runtime::detail</text>
<text text-anchor="middle" x="392.5" y="-88.25" font-family="Helvetica,sans-Serif" font-size="10.00">::FreeListNode&lt;&gt;</text>
</a>
</g>
</g>
<!-- Node1&#45;&gt;Node11 -->
<g id="edge10_Node000001_Node000011" class="edge">
<title>Node1&#45;&gt;Node11</title>
<g id="a_edge10_Node000001_Node000011"><a xlink:title=" ">
<path fill="none" stroke="#63b8ff" d="M292.69,-112.19C306.93,-110.11 321.5,-107.98 334.93,-106.02"/>
<polygon fill="#63b8ff" stroke="#63b8ff" points="292.27,-108.72 282.88,-113.63 293.28,-115.64 292.27,-108.72"/>
</a>
</g>
</g>
<!-- Node12 -->
<g id="Node000012" class="node">
<title>Node12</title>
<g id="a_Node000012"><a xlink:href="structiris_1_1detail_1_1InternalObjectFreed.html" target="_top" xlink:title=" ">
<polygon fill="white" stroke="#666666" points="468,-62.5 317,-62.5 317,-29 468,-29 468,-62.5"/>
<text text-anchor="start" x="325" y="-49" font-family="Helvetica,sans-Serif" font-size="10.00">iris::detail::InternalObject</text>
<text text-anchor="middle" x="392.5" y="-36.25" font-family="Helvetica,sans-Serif" font-size="10.00">Freed&lt; InternalObjectTag &gt;</text>
</a>
</g>
</g>
<!-- Node1&#45;&gt;Node12 -->
<g id="edge11_Node000001_Node000012" class="edge">
<title>Node1&#45;&gt;Node12</title>
<g id="a_edge11_Node000001_Node000012"><a xlink:title=" ">
<path fill="none" stroke="#63b8ff" d="M254.76,-101.51C273.48,-91.79 296.09,-80.61 317,-71.75 324.19,-68.7 331.87,-65.72 339.47,-62.93"/>
<polygon fill="#63b8ff" stroke="#63b8ff" points="253.37,-98.29 246.13,-106.03 256.62,-104.49 253.37,-98.29"/>
</a>
</g>
</g>
<!-- Node2 -->
<g id="Node000002" class="node">
<title>Node2</title>
<g id="a_Node000002"><a xlink:href="structdi_1_1util_1_1Immovable.html" target="_top" xlink:title=" ">
<polygon fill="white" stroke="#666666" points="108.25,-134.12 0,-134.12 0,-113.38 108.25,-113.38 108.25,-134.12"/>
<text text-anchor="middle" x="54.12" y="-120.62" font-family="Helvetica,sans-Serif" font-size="10.00">di::util::Immovable</text>
</a>
</g>
</g>
<!-- Node2&#45;&gt;Node1 -->
<g id="edge1_Node000001_Node000002" class="edge">
<title>Node2&#45;&gt;Node1</title>
<g id="a_edge1_Node000001_Node000002"><a xlink:title=" ">
<path fill="none" stroke="#8b1a1a" d="M119.91,-123.75C127.79,-123.75 135.86,-123.75 143.78,-123.75"/>
<polygon fill="#8b1a1a" stroke="#8b1a1a" points="120.06,-120.25 110.06,-123.75 120.06,-127.25 120.06,-120.25"/>
</a>
</g>
</g>
<!-- Node4 -->
<g id="Node000004" class="node">
<title>Node4</title>
<g id="a_Node000004"><a xlink:href="structdi_1_1container_1_1OwningHashNode.html" target="_top" xlink:title=" ">
<polygon fill="white" stroke="#666666" points="661.38,-317.5 517.12,-317.5 517.12,-284 661.38,-284 661.38,-317.5"/>
<text text-anchor="start" x="525.12" y="-304" font-family="Helvetica,sans-Serif" font-size="10.00">di::container::OwningHash</text>
<text text-anchor="middle" x="589.25" y="-291.25" font-family="Helvetica,sans-Serif" font-size="10.00">Node&lt; T, Tag &gt;</text>
</a>
</g>
</g>
<!-- Node3&#45;&gt;Node4 -->
<g id="edge3_Node000003_Node000004" class="edge">
<title>Node3&#45;&gt;Node4</title>
<g id="a_edge3_Node000003_Node000004"><a xlink:title=" ">
<path fill="none" stroke="#63b8ff" d="M470.4,-279.57C485.67,-282.31 501.63,-285.18 516.71,-287.89"/>
<polygon fill="#63b8ff" stroke="#63b8ff" points="471.38,-276.19 460.92,-277.87 470.15,-283.08 471.38,-276.19"/>
</a>
</g>
</g>
<!-- Node6 -->
<g id="Node000006" class="node">
<title>Node6</title>
<g id="a_Node000006"><a xlink:href="structdius_1_1linux_1_1CloseSender_1_1OperationStateT_1_1Type.html" target="_top" xlink:title=" ">
<polygon fill="white" stroke="#666666" points="655.75,-265.88 522.75,-265.88 522.75,-219.62 655.75,-219.62 655.75,-265.88"/>
<text text-anchor="start" x="530.75" y="-252.38" font-family="Helvetica,sans-Serif" font-size="10.00">dius::linux::CloseSender</text>
<text text-anchor="start" x="530.75" y="-239.62" font-family="Helvetica,sans-Serif" font-size="10.00">::OperationStateT&lt; Rec</text>
<text text-anchor="middle" x="589.25" y="-226.88" font-family="Helvetica,sans-Serif" font-size="10.00"> &gt;::Type</text>
</a>
</g>
</g>
<!-- Node5&#45;&gt;Node6 -->
<g id="edge5_Node000005_Node000006" class="edge">
<title>Node5&#45;&gt;Node6</title>
<g id="a_edge5_Node000005_Node000006"><a xlink:title=" ">
<path fill="none" stroke="#63b8ff" d="M431.8,-172.64C452.76,-184.72 479.39,-199.35 504,-210.75 510.25,-213.64 516.84,-216.49 523.46,-219.21"/>
<polygon fill="#63b8ff" stroke="#63b8ff" points="433.72,-169.71 423.31,-167.71 430.2,-175.76 433.72,-169.71"/>
</a>
</g>
</g>
<!-- Node7 -->
<g id="Node000007" class="node">
<title>Node7</title>
<g id="a_Node000007"><a xlink:href="structdius_1_1linux_1_1OpenSender_1_1OperationStateT_1_1Type.html" target="_top" xlink:title=" ">
<polygon fill="white" stroke="#666666" points="655,-201.88 523.5,-201.88 523.5,-155.62 655,-155.62 655,-201.88"/>
<text text-anchor="start" x="531.5" y="-188.38" font-family="Helvetica,sans-Serif" font-size="10.00">dius::linux::OpenSender</text>
<text text-anchor="start" x="531.5" y="-175.62" font-family="Helvetica,sans-Serif" font-size="10.00">::OperationStateT&lt; Rec</text>
<text text-anchor="middle" x="589.25" y="-162.88" font-family="Helvetica,sans-Serif" font-size="10.00"> &gt;::Type</text>
</a>
</g>
</g>
<!-- Node5&#45;&gt;Node7 -->
<g id="edge6_Node000005_Node000007" class="edge">
<title>Node5&#45;&gt;Node7</title>
<g id="a_edge6_Node000005_Node000007"><a xlink:title=" ">
<path fill="none" stroke="#63b8ff" d="M476.91,-162.17C492.39,-164.48 508.36,-166.85 523.2,-169.06"/>
<polygon fill="#63b8ff" stroke="#63b8ff" points="477.64,-158.74 467.24,-160.73 476.61,-165.67 477.64,-158.74"/>
</a>
</g>
</g>
<!-- Node8 -->
<g id="Node000008" class="node">
<title>Node8</title>
<g id="a_Node000008"><a xlink:href="structdius_1_1linux_1_1ReadSomeSender_1_1OperationStateT_1_1Type.html" target="_top" xlink:title=" ">
<polygon fill="white" stroke="#666666" points="674.5,-137.5 504,-137.5 504,-104 674.5,-104 674.5,-137.5"/>
<text text-anchor="start" x="512" y="-124" font-family="Helvetica,sans-Serif" font-size="10.00">dius::linux::ReadSomeSender</text>
<text text-anchor="middle" x="589.25" y="-111.25" font-family="Helvetica,sans-Serif" font-size="10.00">::OperationStateT&lt; Rec &gt;::Type</text>
</a>
</g>
</g>
<!-- Node5&#45;&gt;Node8 -->
<g id="edge7_Node000005_Node000008" class="edge">
<title>Node5&#45;&gt;Node8</title>
<g id="a_edge7_Node000005_Node000008"><a xlink:title=" ">
<path fill="none" stroke="#63b8ff" d="M476.86,-137.34C485.73,-136.02 494.75,-134.67 503.63,-133.35"/>
<polygon fill="#63b8ff" stroke="#63b8ff" points="476.61,-133.83 467.24,-138.77 477.64,-140.76 476.61,-133.83"/>
</a>
</g>
</g>
<!-- Node9 -->
<g id="Node000009" class="node">
<title>Node9</title>
<g id="a_Node000009"><a xlink:href="structdius_1_1linux_1_1ScheduleSender_1_1OperationStateT_1_1Type.html" target="_top" xlink:title=" ">
<polygon fill="white" stroke="#666666" points="674.5,-85.5 504,-85.5 504,-52 674.5,-52 674.5,-85.5"/>
<text text-anchor="start" x="512" y="-72" font-family="Helvetica,sans-Serif" font-size="10.00">dius::linux::ScheduleSender</text>
<text text-anchor="middle" x="589.25" y="-59.25" font-family="Helvetica,sans-Serif" font-size="10.00">::OperationStateT&lt; Rec &gt;::Type</text>
</a>
</g>
</g>
<!-- Node5&#45;&gt;Node9 -->
<g id="edge8_Node000005_Node000009" class="edge">
<title>Node5&#45;&gt;Node9</title>
<g id="a_edge8_Node000005_Node000009"><a xlink:title=" ">
<path fill="none" stroke="#63b8ff" d="M459.76,-128C462.58,-126.64 465.34,-125.23 468,-123.75 485.96,-113.77 485.86,-104.4 504,-94.75 510.22,-91.44 516.92,-88.49 523.73,-85.86"/>
<polygon fill="#63b8ff" stroke="#63b8ff" points="458.44,-124.76 450.73,-132.02 461.29,-131.15 458.44,-124.76"/>
</a>
</g>
</g>
<!-- Node10 -->
<g id="Node000010" class="node">
<title>Node10</title>
<g id="a_Node000010"><a xlink:href="structdius_1_1linux_1_1WriteSomeSender_1_1OperationStateT_1_1Type.html" target="_top" xlink:title=" ">
<polygon fill="white" stroke="#666666" points="674.5,-33.5 504,-33.5 504,0 674.5,0 674.5,-33.5"/>
<text text-anchor="start" x="512" y="-20" font-family="Helvetica,sans-Serif" font-size="10.00">dius::linux::WriteSomeSender</text>
<text text-anchor="middle" x="589.25" y="-7.25" font-family="Helvetica,sans-Serif" font-size="10.00">::OperationStateT&lt; Rec &gt;::Type</text>
</a>
</g>
</g>
<!-- Node5&#45;&gt;Node10 -->
<g id="edge9_Node000005_Node000010" class="edge">
<title>Node5&#45;&gt;Node10</title>
<g id="a_edge9_Node000005_Node000010"><a xlink:title=" ">
<path fill="none" stroke="#63b8ff" d="M465.2,-126.18C466.16,-125.39 467.09,-124.59 468,-123.75 496.98,-97.06 474.54,-68.9 504,-42.75 507.78,-39.4 511.98,-36.48 516.44,-33.93"/>
<polygon fill="#63b8ff" stroke="#63b8ff" points="463.45,-123.13 457.2,-131.69 467.42,-128.89 463.45,-123.13"/>
</a>
</g>
</g>
</g>
</svg>
