<?xml version="1.0" encoding="UTF-8" standalone="no"?>
<!DOCTYPE svg PUBLIC "-//W3C//DTD SVG 1.1//EN"
 "http://www.w3.org/Graphics/SVG/1.1/DTD/svg11.dtd">
<!-- Generated by graphviz version 10.0.1 (0)
 -->
<!-- Title: di::any::AnyT&lt; UserInterface, Storage, VTablePolicy &gt;::Type Pages: 1 -->
<svg width="390pt" height="106pt"
 viewBox="0.00 0.00 389.50 105.88" xmlns="http://www.w3.org/2000/svg" xmlns:xlink="http://www.w3.org/1999/xlink">
<g id="graph0" class="graph" transform="scale(1 1) rotate(0) translate(4 101.88)">
<title>di::any::AnyT&lt; UserInterface, Storage, VTablePolicy &gt;::Type</title>
<!-- Node1 -->
<g id="Node000001" class="node">
<title>Node1</title>
<g id="a_Node000001"><a xlink:title=" ">
<polygon fill="#999999" stroke="#666666" points="381.5,-56.12 217.75,-56.12 217.75,-22.62 381.5,-22.62 381.5,-56.12"/>
<text text-anchor="start" x="225.75" y="-42.62" font-family="Helvetica,sans-Serif" font-size="10.00">di::any::AnyT&lt; UserInterface,</text>
<text text-anchor="middle" x="299.62" y="-29.88" font-family="Helvetica,sans-Serif" font-size="10.00"> Storage, VTablePolicy &gt;::Type</text>
</a>
</g>
</g>
<!-- Node2 -->
<g id="Node000002" class="node">
<title>Node2</title>
<g id="a_Node000002"><a xlink:title=" ">
<polygon fill="white" stroke="#666666" points="181.75,-97.88 0,-97.88 0,-38.88 181.75,-38.88 181.75,-97.88"/>
<text text-anchor="start" x="8" y="-84.38" font-family="Helvetica,sans-Serif" font-size="10.00">detail::MethodImpl</text>
<text text-anchor="start" x="8" y="-71.62" font-family="Helvetica,sans-Serif" font-size="10.00">&lt; Type, Storage, meta</text>
<text text-anchor="start" x="8" y="-58.88" font-family="Helvetica,sans-Serif" font-size="10.00">::MergeInterfaces&lt; UserInterface,</text>
<text text-anchor="middle" x="90.88" y="-46.12" font-family="Helvetica,sans-Serif" font-size="10.00"> Storage::Interface &gt; &gt;</text>
</a>
</g>
</g>
<!-- Node2&#45;&gt;Node1 -->
<g id="edge1_Node000001_Node000002" class="edge">
<title>Node2&#45;&gt;Node1</title>
<g id="a_edge1_Node000001_Node000002"><a xlink:title=" ">
<path fill="none" stroke="#8b1a1a" d="M193.3,-54.15C201.35,-53.02 209.41,-51.89 217.29,-50.78"/>
<polygon fill="#8b1a1a" stroke="#8b1a1a" points="192.87,-50.67 183.46,-55.53 193.85,-57.61 192.87,-50.67"/>
</a>
</g>
</g>
<!-- Node3 -->
<g id="Node000003" class="node">
<title>Node3</title>
<g id="a_Node000003"><a xlink:title=" ">
<polygon fill="white" stroke="#666666" points="117.62,-20.75 64.12,-20.75 64.12,0 117.62,0 117.62,-20.75"/>
<text text-anchor="middle" x="90.88" y="-7.25" font-family="Helvetica,sans-Serif" font-size="10.00">Storage</text>
</a>
</g>
</g>
<!-- Node3&#45;&gt;Node1 -->
<g id="edge2_Node000001_Node000003" class="edge">
<title>Node3&#45;&gt;Node1</title>
<g id="a_edge2_Node000001_Node000003"><a xlink:title=" ">
<path fill="none" stroke="#63b8ff" d="M129.38,-15.64C153.94,-19.08 187,-23.72 217.38,-27.98"/>
<polygon fill="#63b8ff" stroke="#63b8ff" points="129.95,-12.18 119.56,-14.26 128.98,-19.11 129.95,-12.18"/>
</a>
</g>
</g>
</g>
</svg>
