<?xml version="1.0" encoding="UTF-8" standalone="no"?>
<!DOCTYPE svg PUBLIC "-//W3C//DTD SVG 1.1//EN"
 "http://www.w3.org/Graphics/SVG/1.1/DTD/svg11.dtd">
<!-- Generated by graphviz version 10.0.1 (0)
 -->
<!-- Title: di::container::PathViewImpl&lt; Enc &gt; Pages: 1 -->
<svg width="341pt" height="247pt"
 viewBox="0.00 0.00 340.75 247.25" xmlns="http://www.w3.org/2000/svg" xmlns:xlink="http://www.w3.org/1999/xlink">
<g id="graph0" class="graph" transform="scale(1 1) rotate(0) translate(4 243.25)">
<title>di::container::PathViewImpl&lt; Enc &gt;</title>
<!-- Node1 -->
<g id="Node000001" class="node">
<title>Node1</title>
<g id="a_Node000001"><a xlink:title=" ">
<polygon fill="#999999" stroke="#666666" points="332.75,-149.25 183.25,-149.25 183.25,-115.75 332.75,-115.75 332.75,-149.25"/>
<text text-anchor="start" x="191.25" y="-135.75" font-family="Helvetica,sans-Serif" font-size="10.00">di::container::PathViewImpl</text>
<text text-anchor="middle" x="258" y="-123" font-family="Helvetica,sans-Serif" font-size="10.00">&lt; Enc &gt;</text>
</a>
</g>
</g>
<!-- Node2 -->
<g id="Node000002" class="node">
<title>Node2</title>
<g id="a_Node000002"><a xlink:href="classdi_1_1meta_1_1EnableView.html" target="_top" xlink:title=" ">
<polygon fill="white" stroke="#666666" points="146.12,-239.25 1.12,-239.25 1.12,-205.75 146.12,-205.75 146.12,-239.25"/>
<text text-anchor="start" x="9.12" y="-225.75" font-family="Helvetica,sans-Serif" font-size="10.00">di::meta::EnableView</text>
<text text-anchor="middle" x="73.62" y="-213" font-family="Helvetica,sans-Serif" font-size="10.00">&lt; PathViewImpl&lt; Enc &gt; &gt;</text>
</a>
</g>
</g>
<!-- Node2&#45;&gt;Node1 -->
<g id="edge1_Node000001_Node000002" class="edge">
<title>Node2&#45;&gt;Node1</title>
<g id="a_edge1_Node000001_Node000002"><a xlink:title=" ">
<path fill="none" stroke="#63b8ff" d="M136.94,-201.05C140.45,-199.58 143.91,-198.05 147.25,-196.5 176.84,-182.72 208.9,-163.48 230.68,-149.7"/>
<polygon fill="#63b8ff" stroke="#63b8ff" points="135.66,-197.79 127.69,-204.77 138.27,-204.29 135.66,-197.79"/>
</a>
</g>
</g>
<!-- Node3 -->
<g id="Node000003" class="node">
<title>Node3</title>
<g id="a_Node000003"><a xlink:href="classdi_1_1meta_1_1EnableBorrowedContainer.html" target="_top" xlink:title=" ">
<polygon fill="white" stroke="#666666" points="144.62,-187.62 2.62,-187.62 2.62,-141.38 144.62,-141.38 144.62,-187.62"/>
<text text-anchor="start" x="10.62" y="-174.12" font-family="Helvetica,sans-Serif" font-size="10.00">di::meta::EnableBorrowed</text>
<text text-anchor="start" x="10.62" y="-161.38" font-family="Helvetica,sans-Serif" font-size="10.00">Container&lt; PathViewImpl</text>
<text text-anchor="middle" x="73.62" y="-148.62" font-family="Helvetica,sans-Serif" font-size="10.00">&lt; Enc &gt; &gt;</text>
</a>
</g>
</g>
<!-- Node3&#45;&gt;Node1 -->
<g id="edge2_Node000001_Node000003" class="edge">
<title>Node3&#45;&gt;Node1</title>
<g id="a_edge2_Node000001_Node000003"><a xlink:title=" ">
<path fill="none" stroke="#63b8ff" d="M156.08,-150.21C164.99,-148.64 174.03,-147.06 182.86,-145.51"/>
<polygon fill="#63b8ff" stroke="#63b8ff" points="155.61,-146.74 146.37,-151.91 156.82,-153.63 155.61,-146.74"/>
</a>
</g>
</g>
<!-- Node4 -->
<g id="Node000004" class="node">
<title>Node4</title>
<g id="a_Node000004"><a xlink:href="classdi_1_1container_1_1ConstantPathInterface.html" target="_top" xlink:title=" ">
<polygon fill="white" stroke="#666666" points="147.25,-123.62 0,-123.62 0,-77.38 147.25,-77.38 147.25,-123.62"/>
<text text-anchor="start" x="8" y="-110.12" font-family="Helvetica,sans-Serif" font-size="10.00">di::container::ConstantPath</text>
<text text-anchor="start" x="8" y="-97.38" font-family="Helvetica,sans-Serif" font-size="10.00">Interface&lt; PathViewImpl</text>
<text text-anchor="middle" x="73.62" y="-84.62" font-family="Helvetica,sans-Serif" font-size="10.00">&lt; Enc &gt;, Enc &gt;</text>
</a>
</g>
</g>
<!-- Node4&#45;&gt;Node1 -->
<g id="edge3_Node000001_Node000004" class="edge">
<title>Node4&#45;&gt;Node1</title>
<g id="a_edge3_Node000001_Node000004"><a xlink:title=" ">
<path fill="none" stroke="#63b8ff" d="M158.75,-115.26C166.76,-116.67 174.85,-118.09 182.76,-119.47"/>
<polygon fill="#63b8ff" stroke="#63b8ff" points="159.44,-111.83 148.98,-113.55 158.23,-118.72 159.44,-111.83"/>
</a>
</g>
</g>
<!-- Node5 -->
<g id="Node000005" class="node">
<title>Node5</title>
<g id="a_Node000005"><a xlink:href="structdi_1_1util_1_1OwnedType.html" target="_top" xlink:title=" ">
<polygon fill="white" stroke="#666666" points="140.88,-59 6.38,-59 6.38,0 140.88,0 140.88,-59"/>
<text text-anchor="start" x="14.38" y="-45.5" font-family="Helvetica,sans-Serif" font-size="10.00">di::util::OwnedType</text>
<text text-anchor="start" x="14.38" y="-32.75" font-family="Helvetica,sans-Serif" font-size="10.00">&lt; PathViewImpl&lt; Enc</text>
<text text-anchor="start" x="14.38" y="-20" font-family="Helvetica,sans-Serif" font-size="10.00"> &gt;, PathImpl&lt; string</text>
<text text-anchor="middle" x="73.62" y="-7.25" font-family="Helvetica,sans-Serif" font-size="10.00">::StringImpl&lt; Enc &gt; &gt; &gt;</text>
</a>
</g>
</g>
<!-- Node5&#45;&gt;Node1 -->
<g id="edge4_Node000001_Node000005" class="edge">
<title>Node5&#45;&gt;Node1</title>
<g id="a_edge4_Node000001_Node000005"><a xlink:title=" ">
<path fill="none" stroke="#63b8ff" d="M140.6,-64.8C142.85,-66.04 145.07,-67.28 147.25,-68.5 174.96,-84.02 206.23,-102.33 228.27,-115.38"/>
<polygon fill="#63b8ff" stroke="#63b8ff" points="142.42,-61.8 131.97,-60.05 139.04,-67.94 142.42,-61.8"/>
</a>
</g>
</g>
</g>
</svg>
