<?xml version="1.0" encoding="UTF-8" standalone="no"?>
<!DOCTYPE svg PUBLIC "-//W3C//DTD SVG 1.1//EN"
 "http://www.w3.org/Graphics/SVG/1.1/DTD/svg11.dtd">
<!-- Generated by graphviz version 10.0.1 (0)
 -->
<!-- Title: di::vocab::StatusCodeDomain Pages: 1 -->
<svg width="168pt" height="86pt"
 viewBox="0.00 0.00 168.00 85.50" xmlns="http://www.w3.org/2000/svg" xmlns:xlink="http://www.w3.org/1999/xlink">
<g id="graph0" class="graph" transform="scale(1 1) rotate(0) translate(4 81.5)">
<title>di::vocab::StatusCodeDomain</title>
<!-- Node1 -->
<g id="Node000001" class="node">
<title>Node1</title>
<g id="a_Node000001"><a xlink:title=" ">
<polygon fill="#999999" stroke="#666666" points="160,-77.5 0,-77.5 0,-56.75 160,-56.75 160,-77.5"/>
<text text-anchor="middle" x="80" y="-64" font-family="Helvetica,sans-Serif" font-size="10.00">di::vocab::StatusCodeDomain</text>
</a>
</g>
</g>
<!-- Node2 -->
<g id="Node000002" class="node">
<title>Node2</title>
<g id="a_Node000002"><a xlink:href="classdi_1_1platform_1_1GenericDomain.html" target="_top" xlink:title=" ">
<polygon fill="white" stroke="#666666" points="157.38,-20.75 2.62,-20.75 2.62,0 157.38,0 157.38,-20.75"/>
<text text-anchor="middle" x="80" y="-7.25" font-family="Helvetica,sans-Serif" font-size="10.00">di::platform::GenericDomain</text>
</a>
</g>
</g>
<!-- Node1&#45;&gt;Node2 -->
<g id="edge1_Node000001_Node000002" class="edge">
<title>Node1&#45;&gt;Node2</title>
<g id="a_edge1_Node000001_Node000002"><a xlink:title=" ">
<path fill="none" stroke="#63b8ff" d="M66.84,-45.17C65.95,-36.88 66.81,-27.75 69.4,-21.08"/>
<polygon fill="#63b8ff" stroke="#63b8ff" points="63.41,-45.88 69.03,-54.86 70.24,-44.33 63.41,-45.88"/>
</a>
</g>
</g>
<!-- Node1&#45;&gt;Node2 -->
<g id="edge2_Node000001_Node000002" class="edge">
<title>Node1&#45;&gt;Node2</title>
<g id="a_edge2_Node000001_Node000002"><a xlink:title=" ">
<path fill="none" stroke="#63b8ff" d="M80,-44.88C80,-36.66 80,-27.68 80,-21.08"/>
<polygon fill="#63b8ff" stroke="#63b8ff" points="76.5,-44.82 80,-54.82 83.5,-44.82 76.5,-44.82"/>
</a>
</g>
</g>
<!-- Node1&#45;&gt;Node2 -->
<g id="edge3_Node000001_Node000002" class="edge">
<title>Node1&#45;&gt;Node2</title>
<g id="a_edge3_Node000001_Node000002"><a xlink:title=" ">
<path fill="none" stroke="#63b8ff" d="M93.16,-45.17C94.05,-36.88 93.19,-27.75 90.6,-21.08"/>
<polygon fill="#63b8ff" stroke="#63b8ff" points="89.76,-44.33 90.97,-54.86 96.59,-45.88 89.76,-44.33"/>
</a>
</g>
</g>
</g>
</svg>
