<?xml version="1.0" encoding="UTF-8" standalone="no"?>
<!DOCTYPE svg PUBLIC "-//W3C//DTD SVG 1.1//EN"
 "http://www.w3.org/Graphics/SVG/1.1/DTD/svg11.dtd">
<!-- Generated by graphviz version 10.0.1 (0)
 -->
<!-- Title: di::container::TreeMultiSet&lt; Value, Comp, Alloc &gt; Pages: 1 -->
<svg width="650pt" height="80pt"
 viewBox="0.00 0.00 650.25 79.75" xmlns="http://www.w3.org/2000/svg" xmlns:xlink="http://www.w3.org/1999/xlink">
<g id="graph0" class="graph" transform="scale(1 1) rotate(0) translate(4 75.75)">
<title>di::container::TreeMultiSet&lt; Value, Comp, Alloc &gt;</title>
<!-- Node1 -->
<g id="Node000001" class="node">
<title>Node1</title>
<g id="a_Node000001"><a xlink:title=" ">
<polygon fill="#999999" stroke="#666666" points="642.25,-52.62 496.5,-52.62 496.5,-19.12 642.25,-19.12 642.25,-52.62"/>
<text text-anchor="start" x="504.5" y="-39.12" font-family="Helvetica,sans-Serif" font-size="10.00">di::container::TreeMulti</text>
<text text-anchor="middle" x="569.38" y="-26.38" font-family="Helvetica,sans-Serif" font-size="10.00">Set&lt; Value, Comp, Alloc &gt;</text>
</a>
</g>
</g>
<!-- Node2 -->
<g id="Node000002" class="node">
<title>Node2</title>
<g id="a_Node000002"><a xlink:href="classdi_1_1container_1_1OwningRBTree.html" target="_top" xlink:title=" ">
<polygon fill="white" stroke="#666666" points="460.5,-59 307.25,-59 307.25,-12.75 460.5,-12.75 460.5,-59"/>
<text text-anchor="start" x="315.25" y="-45.5" font-family="Helvetica,sans-Serif" font-size="10.00">di::container::OwningRBTree</text>
<text text-anchor="start" x="315.25" y="-32.75" font-family="Helvetica,sans-Serif" font-size="10.00">&lt; Value, Comp, Tag, Alloc,</text>
<text text-anchor="middle" x="383.88" y="-20" font-family="Helvetica,sans-Serif" font-size="10.00"> Interface, is_multi &gt;</text>
</a>
</g>
</g>
<!-- Node2&#45;&gt;Node1 -->
<g id="edge1_Node000001_Node000002" class="edge">
<title>Node2&#45;&gt;Node1</title>
<g id="a_edge1_Node000001_Node000002"><a xlink:title=" ">
<path fill="none" stroke="#63b8ff" d="M472.1,-35.88C480.1,-35.88 488.16,-35.88 496.01,-35.88"/>
<polygon fill="#63b8ff" stroke="#63b8ff" points="472.35,-32.38 462.35,-35.88 472.35,-39.38 472.35,-32.38"/>
</a>
</g>
</g>
<!-- Node3 -->
<g id="Node000003" class="node">
<title>Node3</title>
<g id="a_Node000003"><a xlink:href="classdi_1_1container_1_1RBTree.html" target="_top" xlink:title=" ">
<polygon fill="white" stroke="#666666" points="271.25,-71.75 95.5,-71.75 95.5,0 271.25,0 271.25,-71.75"/>
<text text-anchor="start" x="103.5" y="-58.25" font-family="Helvetica,sans-Serif" font-size="10.00">di::container::RBTree</text>
<text text-anchor="start" x="103.5" y="-45.5" font-family="Helvetica,sans-Serif" font-size="10.00">&lt; Value, Comp, Tag, Interface,</text>
<text text-anchor="start" x="103.5" y="-32.75" font-family="Helvetica,sans-Serif" font-size="10.00"> is_multi, OwningRBTree&lt; Value,</text>
<text text-anchor="start" x="103.5" y="-20" font-family="Helvetica,sans-Serif" font-size="10.00"> Comp, Tag, Alloc, Interface,</text>
<text text-anchor="middle" x="183.38" y="-7.25" font-family="Helvetica,sans-Serif" font-size="10.00"> is_multi &gt; &gt;</text>
</a>
</g>
</g>
<!-- Node3&#45;&gt;Node2 -->
<g id="edge2_Node000002_Node000003" class="edge">
<title>Node3&#45;&gt;Node2</title>
<g id="a_edge2_Node000002_Node000003"><a xlink:title=" ">
<path fill="none" stroke="#63b8ff" d="M283.07,-35.88C291.11,-35.88 299.16,-35.88 306.99,-35.88"/>
<polygon fill="#63b8ff" stroke="#63b8ff" points="283.24,-32.38 273.24,-35.88 283.24,-39.38 283.24,-32.38"/>
</a>
</g>
</g>
<!-- Node4 -->
<g id="Node000004" class="node">
<title>Node4</title>
<g id="a_Node000004"><a xlink:title=" ">
<polygon fill="white" stroke="#666666" points="59.5,-46.25 0,-46.25 0,-25.5 59.5,-25.5 59.5,-46.25"/>
<text text-anchor="middle" x="29.75" y="-32.75" font-family="Helvetica,sans-Serif" font-size="10.00">Interface</text>
</a>
</g>
</g>
<!-- Node4&#45;&gt;Node3 -->
<g id="edge3_Node000003_Node000004" class="edge">
<title>Node4&#45;&gt;Node3</title>
<g id="a_edge3_Node000003_Node000004"><a xlink:title=" ">
<path fill="none" stroke="#63b8ff" d="M71.24,-35.88C78.76,-35.88 86.87,-35.88 95.16,-35.88"/>
<polygon fill="#63b8ff" stroke="#63b8ff" points="71.5,-32.38 61.5,-35.88 71.5,-39.38 71.5,-32.38"/>
</a>
</g>
</g>
</g>
</svg>
