<?xml version="1.0" encoding="UTF-8" standalone="no"?>
<!DOCTYPE svg PUBLIC "-//W3C//DTD SVG 1.1//EN"
 "http://www.w3.org/Graphics/SVG/1.1/DTD/svg11.dtd">
<!-- Generated by graphviz version 10.0.1 (0)
 -->
<!-- Title: di::container::CommonView&lt; View &gt; Pages: 1 -->
<svg width="577pt" height="118pt"
 viewBox="0.00 0.00 576.50 118.25" xmlns="http://www.w3.org/2000/svg" xmlns:xlink="http://www.w3.org/1999/xlink">
<g id="graph0" class="graph" transform="scale(1 1) rotate(0) translate(4 114.25)">
<title>di::container::CommonView&lt; View &gt;</title>
<!-- Node1 -->
<g id="Node000001" class="node">
<title>Node1</title>
<g id="a_Node000001"><a xlink:title=" ">
<polygon fill="#999999" stroke="#666666" points="568.5,-78.25 417.5,-78.25 417.5,-44.75 568.5,-44.75 568.5,-78.25"/>
<text text-anchor="start" x="425.5" y="-64.75" font-family="Helvetica,sans-Serif" font-size="10.00">di::container::CommonView</text>
<text text-anchor="middle" x="493" y="-52" font-family="Helvetica,sans-Serif" font-size="10.00">&lt; View &gt;</text>
</a>
</g>
</g>
<!-- Node2 -->
<g id="Node000002" class="node">
<title>Node2</title>
<g id="a_Node000002"><a xlink:href="classdi_1_1container_1_1ViewInterface.html" target="_top" xlink:title=" ">
<polygon fill="white" stroke="#666666" points="352.25,-110.25 199,-110.25 199,-76.75 352.25,-76.75 352.25,-110.25"/>
<text text-anchor="start" x="207" y="-96.75" font-family="Helvetica,sans-Serif" font-size="10.00">di::container::ViewInterface</text>
<text text-anchor="middle" x="275.62" y="-84" font-family="Helvetica,sans-Serif" font-size="10.00">&lt; CommonView&lt; View &gt; &gt;</text>
</a>
</g>
</g>
<!-- Node2&#45;&gt;Node1 -->
<g id="edge1_Node000001_Node000002" class="edge">
<title>Node2&#45;&gt;Node1</title>
<g id="a_edge1_Node000001_Node000002"><a xlink:title=" ">
<path fill="none" stroke="#63b8ff" d="M363.75,-80.56C381.44,-77.93 399.9,-75.18 417.12,-72.63"/>
<polygon fill="#63b8ff" stroke="#63b8ff" points="363.43,-77.06 354.06,-82 364.46,-83.99 363.43,-77.06"/>
</a>
</g>
</g>
<!-- Node3 -->
<g id="Node000003" class="node">
<title>Node3</title>
<g id="a_Node000003"><a xlink:href="classdi_1_1meta_1_1EnableView.html" target="_top" xlink:title=" ">
<polygon fill="white" stroke="#666666" points="133.75,-110.25 0,-110.25 0,-76.75 133.75,-76.75 133.75,-110.25"/>
<text text-anchor="start" x="8" y="-96.75" font-family="Helvetica,sans-Serif" font-size="10.00">di::meta::EnableView</text>
<text text-anchor="middle" x="66.88" y="-84" font-family="Helvetica,sans-Serif" font-size="10.00">&lt; Self, should_enable &gt;</text>
</a>
</g>
</g>
<!-- Node3&#45;&gt;Node2 -->
<g id="edge2_Node000002_Node000003" class="edge">
<title>Node3&#45;&gt;Node2</title>
<g id="a_edge2_Node000002_Node000003"><a xlink:title=" ">
<path fill="none" stroke="#63b8ff" d="M145.42,-93.5C162.84,-93.5 181.31,-93.5 198.66,-93.5"/>
<polygon fill="#63b8ff" stroke="#63b8ff" points="145.66,-90 135.66,-93.5 145.66,-97 145.66,-90"/>
</a>
</g>
</g>
<!-- Node4 -->
<g id="Node000004" class="node">
<title>Node4</title>
<g id="a_Node000004"><a xlink:href="classdi_1_1meta_1_1EnableBorrowedContainer.html" target="_top" xlink:title=" ">
<polygon fill="white" stroke="#666666" points="381.5,-59 169.75,-59 169.75,0 381.5,0 381.5,-59"/>
<text text-anchor="start" x="177.75" y="-45.5" font-family="Helvetica,sans-Serif" font-size="10.00">di::meta::EnableBorrowed</text>
<text text-anchor="start" x="177.75" y="-32.75" font-family="Helvetica,sans-Serif" font-size="10.00">Container&lt; CommonView</text>
<text text-anchor="start" x="177.75" y="-20" font-family="Helvetica,sans-Serif" font-size="10.00">&lt; View &gt;, concepts::BorrowedContainer</text>
<text text-anchor="middle" x="275.62" y="-7.25" font-family="Helvetica,sans-Serif" font-size="10.00">&lt; View &gt; &gt;</text>
</a>
</g>
</g>
<!-- Node4&#45;&gt;Node1 -->
<g id="edge3_Node000001_Node000004" class="edge">
<title>Node4&#45;&gt;Node1</title>
<g id="a_edge3_Node000001_Node000004"><a xlink:title=" ">
<path fill="none" stroke="#63b8ff" d="M392.99,-46.79C401.2,-48.01 409.33,-49.22 417.2,-50.39"/>
<polygon fill="#63b8ff" stroke="#63b8ff" points="393.69,-43.36 383.29,-45.35 392.66,-50.28 393.69,-43.36"/>
</a>
</g>
</g>
</g>
</svg>
