<?xml version="1.0" encoding="UTF-8" standalone="no"?>
<!DOCTYPE svg PUBLIC "-//W3C//DTD SVG 1.1//EN"
 "http://www.w3.org/Graphics/SVG/1.1/DTD/svg11.dtd">
<!-- Generated by graphviz version 10.0.1 (0)
 -->
<!-- Title: iris::mm::AddressSpace Pages: 1 -->
<svg width="334pt" height="155pt"
 viewBox="0.00 0.00 333.62 155.00" xmlns="http://www.w3.org/2000/svg" xmlns:xlink="http://www.w3.org/1999/xlink">
<g id="graph0" class="graph" transform="scale(1 1) rotate(0) translate(4 151)">
<title>iris::mm::AddressSpace</title>
<!-- Node1 -->
<g id="Node000001" class="node">
<title>Node1</title>
<g id="a_Node000001"><a xlink:title=" ">
<polygon fill="#999999" stroke="#666666" points="213.75,-20.75 83,-20.75 83,0 213.75,0 213.75,-20.75"/>
<text text-anchor="middle" x="148.38" y="-7.25" font-family="Helvetica,sans-Serif" font-size="10.00">iris::mm::AddressSpace</text>
</a>
</g>
</g>
<!-- Node2 -->
<g id="Node000002" class="node">
<title>Node2</title>
<g id="a_Node000002"><a xlink:href="classdi_1_1sync_1_1Synchronized.html" target="_top" xlink:title=" ">
<polygon fill="white" stroke="#666666" points="124.75,-90.25 0,-90.25 0,-56.75 124.75,-56.75 124.75,-90.25"/>
<text text-anchor="start" x="8" y="-76.75" font-family="Helvetica,sans-Serif" font-size="10.00">di::sync::Synchronized</text>
<text text-anchor="middle" x="62.38" y="-64" font-family="Helvetica,sans-Serif" font-size="10.00">&lt; Value, Lock &gt;</text>
</a>
</g>
</g>
<!-- Node2&#45;&gt;Node1 -->
<g id="edge1_Node000001_Node000002" class="edge">
<title>Node2&#45;&gt;Node1</title>
<g id="a_edge1_Node000001_Node000002"><a xlink:title=" ">
<path fill="none" stroke="#63b8ff" d="M94.24,-49.85C108.12,-39.99 123.67,-28.94 134.53,-21.22"/>
<polygon fill="#63b8ff" stroke="#63b8ff" points="92.33,-46.92 86.2,-55.56 96.38,-52.62 92.33,-46.92"/>
</a>
</g>
</g>
<!-- Node3 -->
<g id="Node000003" class="node">
<title>Node3</title>
<g id="a_Node000003"><a xlink:href="structdi_1_1vocab_1_1IntrusiveRefCount.html" target="_top" xlink:title=" ">
<polygon fill="white" stroke="#666666" points="325.62,-83.88 143.12,-83.88 143.12,-63.12 325.62,-63.12 325.62,-83.88"/>
<text text-anchor="middle" x="234.38" y="-70.38" font-family="Helvetica,sans-Serif" font-size="10.00">di::vocab::IntrusiveRefCount&lt; T &gt;</text>
</a>
</g>
</g>
<!-- Node3&#45;&gt;Node1 -->
<g id="edge2_Node000001_Node000003" class="edge">
<title>Node3&#45;&gt;Node1</title>
<g id="a_edge2_Node000001_Node000003"><a xlink:title=" ">
<path fill="none" stroke="#63b8ff" d="M211.48,-56.23C195.77,-45.06 175.44,-30.61 162.16,-21.17"/>
<polygon fill="#63b8ff" stroke="#63b8ff" points="209.15,-58.86 219.32,-61.8 213.2,-53.16 209.15,-58.86"/>
</a>
</g>
</g>
<!-- Node4 -->
<g id="Node000004" class="node">
<title>Node4</title>
<g id="a_Node000004"><a xlink:href="structdi_1_1util_1_1Immovable.html" target="_top" xlink:title=" ">
<polygon fill="white" stroke="#666666" points="288.5,-147 180.25,-147 180.25,-126.25 288.5,-126.25 288.5,-147"/>
<text text-anchor="middle" x="234.38" y="-133.5" font-family="Helvetica,sans-Serif" font-size="10.00">di::util::Immovable</text>
</a>
</g>
</g>
<!-- Node4&#45;&gt;Node3 -->
<g id="edge3_Node000003_Node000004" class="edge">
<title>Node4&#45;&gt;Node3</title>
<g id="a_edge3_Node000003_Node000004"><a xlink:title=" ">
<path fill="none" stroke="#63b8ff" d="M234.38,-114.36C234.38,-104.05 234.38,-92.18 234.38,-84.09"/>
<polygon fill="#63b8ff" stroke="#63b8ff" points="230.88,-114.29 234.38,-124.29 237.88,-114.29 230.88,-114.29"/>
</a>
</g>
</g>
</g>
</svg>
