<?xml version="1.0" encoding="UTF-8" standalone="no"?>
<!DOCTYPE svg PUBLIC "-//W3C//DTD SVG 1.1//EN"
 "http://www.w3.org/Graphics/SVG/1.1/DTD/svg11.dtd">
<!-- Generated by graphviz version 10.0.1 (0)
 -->
<!-- Title: dius::filesystem::RecursiveDirectoryIterator Pages: 1 -->
<svg width="359pt" height="196pt"
 viewBox="0.00 0.00 358.75 195.62" xmlns="http://www.w3.org/2000/svg" xmlns:xlink="http://www.w3.org/1999/xlink">
<g id="graph0" class="graph" transform="scale(1 1) rotate(0) translate(4 191.62)">
<title>dius::filesystem::RecursiveDirectoryIterator</title>
<!-- Node1 -->
<g id="Node000001" class="node">
<title>Node1</title>
<g id="a_Node000001"><a xlink:title=" ">
<polygon fill="#999999" stroke="#666666" points="350.75,-91.5 203.5,-91.5 203.5,-58 350.75,-58 350.75,-91.5"/>
<text text-anchor="start" x="211.5" y="-78" font-family="Helvetica,sans-Serif" font-size="10.00">dius::filesystem::Recursive</text>
<text text-anchor="middle" x="277.12" y="-65.25" font-family="Helvetica,sans-Serif" font-size="10.00">DirectoryIterator</text>
</a>
</g>
</g>
<!-- Node2 -->
<g id="Node000002" class="node">
<title>Node2</title>
<g id="a_Node000002"><a xlink:href="structdi_1_1container_1_1IteratorBase.html" target="_top" xlink:title=" ">
<polygon fill="white" stroke="#666666" points="163.38,-187.62 4.12,-187.62 4.12,-115.88 163.38,-115.88 163.38,-187.62"/>
<text text-anchor="start" x="12.12" y="-174.12" font-family="Helvetica,sans-Serif" font-size="10.00">di::container::IteratorBase</text>
<text text-anchor="start" x="12.12" y="-161.38" font-family="Helvetica,sans-Serif" font-size="10.00">&lt; RecursiveDirectoryIterator,</text>
<text text-anchor="start" x="12.12" y="-148.62" font-family="Helvetica,sans-Serif" font-size="10.00"> di::InputIteratorTag, di::</text>
<text text-anchor="start" x="12.12" y="-135.88" font-family="Helvetica,sans-Serif" font-size="10.00">Expected&lt; DirectoryEntry, di</text>
<text text-anchor="middle" x="83.75" y="-123.12" font-family="Helvetica,sans-Serif" font-size="10.00">::GenericCode &gt;, i64 &gt;</text>
</a>
</g>
</g>
<!-- Node2&#45;&gt;Node1 -->
<g id="edge1_Node000001_Node000002" class="edge">
<title>Node2&#45;&gt;Node1</title>
<g id="a_edge1_Node000001_Node000002"><a xlink:title=" ">
<path fill="none" stroke="#63b8ff" d="M174.12,-115.79C194.8,-107.47 215.88,-98.99 233.46,-91.92"/>
<polygon fill="#63b8ff" stroke="#63b8ff" points="173.07,-112.44 165.1,-119.42 175.68,-118.94 173.07,-112.44"/>
</a>
</g>
</g>
<!-- Node3 -->
<g id="Node000003" class="node">
<title>Node3</title>
<g id="a_Node000003"><a xlink:href="classdi_1_1meta_1_1EnableBorrowedContainer.html" target="_top" xlink:title=" ">
<polygon fill="white" stroke="#666666" points="167.5,-97.88 0,-97.88 0,-51.62 167.5,-51.62 167.5,-97.88"/>
<text text-anchor="start" x="8" y="-84.38" font-family="Helvetica,sans-Serif" font-size="10.00">di::meta::EnableBorrowed</text>
<text text-anchor="start" x="8" y="-71.62" font-family="Helvetica,sans-Serif" font-size="10.00">Container&lt; RecursiveDirectory</text>
<text text-anchor="middle" x="83.75" y="-58.88" font-family="Helvetica,sans-Serif" font-size="10.00">Iterator &gt;</text>
</a>
</g>
</g>
<!-- Node3&#45;&gt;Node1 -->
<g id="edge2_Node000001_Node000003" class="edge">
<title>Node3&#45;&gt;Node1</title>
<g id="a_edge2_Node000001_Node000003"><a xlink:title=" ">
<path fill="none" stroke="#63b8ff" d="M179.15,-74.75C187.17,-74.75 195.2,-74.75 203.01,-74.75"/>
<polygon fill="#63b8ff" stroke="#63b8ff" points="179.37,-71.25 169.37,-74.75 179.37,-78.25 179.37,-71.25"/>
</a>
</g>
</g>
<!-- Node4 -->
<g id="Node000004" class="node">
<title>Node4</title>
<g id="a_Node000004"><a xlink:href="classdi_1_1meta_1_1EnableView.html" target="_top" xlink:title=" ">
<polygon fill="white" stroke="#666666" points="167.5,-33.5 0,-33.5 0,0 167.5,0 167.5,-33.5"/>
<text text-anchor="start" x="8" y="-20" font-family="Helvetica,sans-Serif" font-size="10.00">di::meta::EnableView</text>
<text text-anchor="middle" x="83.75" y="-7.25" font-family="Helvetica,sans-Serif" font-size="10.00">&lt; RecursiveDirectoryIterator &gt;</text>
</a>
</g>
</g>
<!-- Node4&#45;&gt;Node1 -->
<g id="edge3_Node000001_Node000004" class="edge">
<title>Node4&#45;&gt;Node1</title>
<g id="a_edge3_Node000001_Node000004"><a xlink:title=" ">
<path fill="none" stroke="#63b8ff" d="M152.54,-37.29C174.42,-43.93 198.45,-51.21 219.44,-57.57"/>
<polygon fill="#63b8ff" stroke="#63b8ff" points="153.68,-33.98 143.1,-34.43 151.65,-40.68 153.68,-33.98"/>
</a>
</g>
</g>
</g>
</svg>
