<?xml version="1.0" encoding="UTF-8" standalone="no"?>
<!DOCTYPE svg PUBLIC "-//W3C//DTD SVG 1.1//EN"
 "http://www.w3.org/Graphics/SVG/1.1/DTD/svg11.dtd">
<!-- Generated by graphviz version 10.0.1 (0)
 -->
<!-- Title: di::container::SentinelBase&lt; Self &gt; Pages: 1 -->
<svg width="390pt" height="323pt"
 viewBox="0.00 0.00 390.25 323.25" xmlns="http://www.w3.org/2000/svg" xmlns:xlink="http://www.w3.org/1999/xlink">
<g id="graph0" class="graph" transform="scale(1 1) rotate(0) translate(4 319.25)">
<title>di::container::SentinelBase&lt; Self &gt;</title>
<!-- Node1 -->
<g id="Node000001" class="node">
<title>Node1</title>
<g id="a_Node000001"><a xlink:title=" ">
<polygon fill="#999999" stroke="#666666" points="146.5,-161.5 0,-161.5 0,-128 146.5,-128 146.5,-161.5"/>
<text text-anchor="start" x="8" y="-148" font-family="Helvetica,sans-Serif" font-size="10.00">di::container::SentinelBase</text>
<text text-anchor="middle" x="73.25" y="-135.25" font-family="Helvetica,sans-Serif" font-size="10.00">&lt; Self &gt;</text>
</a>
</g>
</g>
<!-- Node2 -->
<g id="Node000002" class="node">
<title>Node2</title>
<g id="a_Node000002"><a xlink:href="classdi_1_1container_1_1SentinelExtension.html" target="_top" xlink:title=" ">
<polygon fill="white" stroke="#666666" points="382.25,-315.25 182.5,-315.25 182.5,-256.25 382.25,-256.25 382.25,-315.25"/>
<text text-anchor="start" x="190.5" y="-301.75" font-family="Helvetica,sans-Serif" font-size="10.00">di::container::SentinelExtension</text>
<text text-anchor="start" x="190.5" y="-289" font-family="Helvetica,sans-Serif" font-size="10.00">&lt; Sentinel&lt; is_const &gt;, InnerSentinel</text>
<text text-anchor="start" x="190.5" y="-276.25" font-family="Helvetica,sans-Serif" font-size="10.00">&lt; is_const &gt;, Iterator&lt; is_const</text>
<text text-anchor="middle" x="282.38" y="-263.5" font-family="Helvetica,sans-Serif" font-size="10.00"> &gt;, InnerIterator&lt; is_const &gt; &gt;</text>
</a>
</g>
</g>
<!-- Node1&#45;&gt;Node2 -->
<g id="edge1_Node000001_Node000002" class="edge">
<title>Node1&#45;&gt;Node2</title>
<g id="a_edge1_Node000001_Node000002"><a xlink:title=" ">
<path fill="none" stroke="#63b8ff" d="M95.83,-170.39C116.21,-193.26 148.62,-226.33 182.5,-247.75 187.01,-250.6 191.76,-253.29 196.65,-255.82"/>
<polygon fill="#63b8ff" stroke="#63b8ff" points="98.6,-168.23 89.38,-163.01 93.33,-172.84 98.6,-168.23"/>
</a>
</g>
</g>
<!-- Node3 -->
<g id="Node000003" class="node">
<title>Node3</title>
<g id="a_Node000003"><a xlink:href="classdi_1_1container_1_1SentinelExtension.html" target="_top" xlink:title=" ">
<polygon fill="white" stroke="#666666" points="368,-238.25 196.75,-238.25 196.75,-179.25 368,-179.25 368,-238.25"/>
<text text-anchor="start" x="204.75" y="-224.75" font-family="Helvetica,sans-Serif" font-size="10.00">di::container::SentinelExtension</text>
<text text-anchor="start" x="204.75" y="-212" font-family="Helvetica,sans-Serif" font-size="10.00">&lt; Sentinel&lt; is_const &gt;, Sent</text>
<text text-anchor="start" x="204.75" y="-199.25" font-family="Helvetica,sans-Serif" font-size="10.00">&lt; is_const &gt;, Iterator&lt; is_const</text>
<text text-anchor="middle" x="282.38" y="-186.5" font-family="Helvetica,sans-Serif" font-size="10.00"> &gt;, Iter&lt; is_const &gt; &gt;</text>
</a>
</g>
</g>
<!-- Node1&#45;&gt;Node3 -->
<g id="edge2_Node000001_Node000003" class="edge">
<title>Node1&#45;&gt;Node3</title>
<g id="a_edge2_Node000001_Node000003"><a xlink:title=" ">
<path fill="none" stroke="#63b8ff" d="M140.79,-165.31C158.45,-170.77 177.77,-176.74 196.27,-182.45"/>
<polygon fill="#63b8ff" stroke="#63b8ff" points="142.06,-162.04 131.47,-162.43 140,-168.73 142.06,-162.04"/>
</a>
</g>
</g>
<!-- Node4 -->
<g id="Node000004" class="node">
<title>Node4</title>
<g id="a_Node000004"><a xlink:href="classdi_1_1container_1_1SentinelExtension.html" target="_top" xlink:title=" ">
<polygon fill="white" stroke="#666666" points="367.62,-161.5 197.12,-161.5 197.12,-128 367.62,-128 367.62,-161.5"/>
<text text-anchor="start" x="205.12" y="-148" font-family="Helvetica,sans-Serif" font-size="10.00">di::container::SentinelExtension</text>
<text text-anchor="middle" x="282.38" y="-135.25" font-family="Helvetica,sans-Serif" font-size="10.00">&lt; Sentinel, Sent, Iterator, Iter &gt;</text>
</a>
</g>
</g>
<!-- Node1&#45;&gt;Node4 -->
<g id="edge3_Node000001_Node000004" class="edge">
<title>Node1&#45;&gt;Node4</title>
<g id="a_edge3_Node000001_Node000004"><a xlink:title=" ">
<path fill="none" stroke="#63b8ff" d="M158.45,-144.75C171.08,-144.75 184.12,-144.75 196.76,-144.75"/>
<polygon fill="#63b8ff" stroke="#63b8ff" points="158.5,-141.25 148.5,-144.75 158.5,-148.25 158.5,-141.25"/>
</a>
</g>
</g>
<!-- Node5 -->
<g id="Node000005" class="node">
<title>Node5</title>
<g id="a_Node000005"><a xlink:href="classdi_1_1container_1_1SentinelExtension.html" target="_top" xlink:title=" ">
<polygon fill="white" stroke="#666666" points="370.25,-110.25 194.5,-110.25 194.5,-51.25 370.25,-51.25 370.25,-110.25"/>
<text text-anchor="start" x="202.5" y="-96.75" font-family="Helvetica,sans-Serif" font-size="10.00">di::container::SentinelExtension</text>
<text text-anchor="start" x="202.5" y="-84" font-family="Helvetica,sans-Serif" font-size="10.00">&lt; Sentinel&lt; is_const &gt;, Zentinel</text>
<text text-anchor="start" x="202.5" y="-71.25" font-family="Helvetica,sans-Serif" font-size="10.00">&lt; is_const &gt;, Iterator&lt; is_const</text>
<text text-anchor="middle" x="282.38" y="-58.5" font-family="Helvetica,sans-Serif" font-size="10.00"> &gt;, Ziperator&lt; is_const &gt; &gt;</text>
</a>
</g>
</g>
<!-- Node1&#45;&gt;Node5 -->
<g id="edge4_Node000001_Node000005" class="edge">
<title>Node1&#45;&gt;Node5</title>
<g id="a_edge4_Node000001_Node000005"><a xlink:title=" ">
<path fill="none" stroke="#63b8ff" d="M140.95,-124.14C157.94,-118.89 176.45,-113.17 194.29,-107.66"/>
<polygon fill="#63b8ff" stroke="#63b8ff" points="140,-120.77 131.47,-127.07 142.06,-127.46 140,-120.77"/>
</a>
</g>
</g>
<!-- Node6 -->
<g id="Node000006" class="node">
<title>Node6</title>
<g id="a_Node000006"><a xlink:href="classdi_1_1container_1_1SentinelExtension.html" target="_top" xlink:title=" ">
<polygon fill="white" stroke="#666666" points="369.12,-33.5 195.62,-33.5 195.62,0 369.12,0 369.12,-33.5"/>
<text text-anchor="start" x="203.62" y="-20" font-family="Helvetica,sans-Serif" font-size="10.00">di::container::SentinelExtension</text>
<text text-anchor="middle" x="282.38" y="-7.25" font-family="Helvetica,sans-Serif" font-size="10.00">&lt; Self, Sent, WrappedIter, Iter &gt;</text>
</a>
</g>
</g>
<!-- Node1&#45;&gt;Node6 -->
<g id="edge5_Node000001_Node000006" class="edge">
<title>Node1&#45;&gt;Node6</title>
<g id="a_edge5_Node000001_Node000006"><a xlink:title=" ">
<path fill="none" stroke="#63b8ff" d="M95.01,-118.88C115.04,-95.62 147.41,-62.21 182.5,-42.75 188.48,-39.44 194.89,-36.53 201.48,-33.99"/>
<polygon fill="#63b8ff" stroke="#63b8ff" points="92.45,-116.49 88.69,-126.39 97.81,-121 92.45,-116.49"/>
</a>
</g>
</g>
</g>
</svg>
