<?xml version="1.0" encoding="UTF-8" standalone="no"?>
<!DOCTYPE svg PUBLIC "-//W3C//DTD SVG 1.1//EN"
 "http://www.w3.org/Graphics/SVG/1.1/DTD/svg11.dtd">
<!-- Generated by graphviz version 10.0.1 (0)
 -->
<!-- Title: di::container::string::StringImpl&lt; Enc, Vec &gt; Pages: 1 -->
<svg width="149pt" height="219pt"
 viewBox="0.00 0.00 148.50 218.75" xmlns="http://www.w3.org/2000/svg" xmlns:xlink="http://www.w3.org/1999/xlink">
<g id="graph0" class="graph" transform="scale(1 1) rotate(0) translate(4 214.75)">
<title>di::container::string::StringImpl&lt; Enc, Vec &gt;</title>
<!-- Node1 -->
<g id="Node000001" class="node">
<title>Node1</title>
<g id="a_Node000001"><a xlink:title=" ">
<polygon fill="#999999" stroke="#666666" points="137.88,-33.5 2.62,-33.5 2.62,0 137.88,0 137.88,-33.5"/>
<text text-anchor="start" x="10.62" y="-20" font-family="Helvetica,sans-Serif" font-size="10.00">di::container::string</text>
<text text-anchor="middle" x="70.25" y="-7.25" font-family="Helvetica,sans-Serif" font-size="10.00">::StringImpl&lt; Enc, Vec &gt;</text>
</a>
</g>
</g>
<!-- Node2 -->
<g id="Node000002" class="node">
<title>Node2</title>
<g id="a_Node000002"><a xlink:href="classdi_1_1container_1_1string_1_1MutableStringInterface.html" target="_top" xlink:title=" ">
<polygon fill="white" stroke="#666666" points="140.5,-128.5 0,-128.5 0,-69.5 140.5,-69.5 140.5,-128.5"/>
<text text-anchor="start" x="8" y="-115" font-family="Helvetica,sans-Serif" font-size="10.00">di::container::string</text>
<text text-anchor="start" x="8" y="-102.25" font-family="Helvetica,sans-Serif" font-size="10.00">::MutableStringInterface</text>
<text text-anchor="start" x="8" y="-89.5" font-family="Helvetica,sans-Serif" font-size="10.00">&lt; StringImpl&lt; Enc, Vec &gt;</text>
<text text-anchor="middle" x="70.25" y="-76.75" font-family="Helvetica,sans-Serif" font-size="10.00">, Enc &gt;</text>
</a>
</g>
</g>
<!-- Node2&#45;&gt;Node1 -->
<g id="edge1_Node000001_Node000002" class="edge">
<title>Node2&#45;&gt;Node1</title>
<g id="a_edge1_Node000001_Node000002"><a xlink:title=" ">
<path fill="none" stroke="#63b8ff" d="M70.25,-57.64C70.25,-49.2 70.25,-40.77 70.25,-33.85"/>
<polygon fill="#63b8ff" stroke="#63b8ff" points="66.75,-57.51 70.25,-67.51 73.75,-57.51 66.75,-57.51"/>
</a>
</g>
</g>
<!-- Node3 -->
<g id="Node000003" class="node">
<title>Node3</title>
<g id="a_Node000003"><a xlink:href="classdi_1_1container_1_1string_1_1ConstantStringInterface.html" target="_top" xlink:title=" ">
<polygon fill="white" stroke="#666666" points="139,-210.75 1.5,-210.75 1.5,-164.5 139,-164.5 139,-210.75"/>
<text text-anchor="start" x="9.5" y="-197.25" font-family="Helvetica,sans-Serif" font-size="10.00">di::container::string</text>
<text text-anchor="start" x="9.5" y="-184.5" font-family="Helvetica,sans-Serif" font-size="10.00">::ConstantStringInterface</text>
<text text-anchor="middle" x="70.25" y="-171.75" font-family="Helvetica,sans-Serif" font-size="10.00">&lt; Self, Enc &gt;</text>
</a>
</g>
</g>
<!-- Node3&#45;&gt;Node2 -->
<g id="edge2_Node000002_Node000003" class="edge">
<title>Node3&#45;&gt;Node2</title>
<g id="a_edge2_Node000002_Node000003"><a xlink:title=" ">
<path fill="none" stroke="#63b8ff" d="M70.25,-153.05C70.25,-145.04 70.25,-136.55 70.25,-128.78"/>
<polygon fill="#63b8ff" stroke="#63b8ff" points="66.75,-152.8 70.25,-162.8 73.75,-152.8 66.75,-152.8"/>
</a>
</g>
</g>
</g>
</svg>
