<?xml version="1.0" encoding="UTF-8" standalone="no"?>
<!DOCTYPE svg PUBLIC "-//W3C//DTD SVG 1.1//EN"
 "http://www.w3.org/Graphics/SVG/1.1/DTD/svg11.dtd">
<!-- Generated by graphviz version 10.0.1 (0)
 -->
<!-- Title: di::container::IntrusiveTreeMultiSet&lt; T, Tag, Comp &gt; Pages: 1 -->
<svg width="172pt" height="193pt"
 viewBox="0.00 0.00 171.75 193.25" xmlns="http://www.w3.org/2000/svg" xmlns:xlink="http://www.w3.org/1999/xlink">
<g id="graph0" class="graph" transform="scale(1 1) rotate(0) translate(4 189.25)">
<title>di::container::IntrusiveTreeMultiSet&lt; T, Tag, Comp &gt;</title>
<!-- Node1 -->
<g id="Node000001" class="node">
<title>Node1</title>
<g id="a_Node000001"><a xlink:title=" ">
<polygon fill="#999999" stroke="#666666" points="144.62,-46.25 19.12,-46.25 19.12,0 144.62,0 144.62,-46.25"/>
<text text-anchor="start" x="27.12" y="-32.75" font-family="Helvetica,sans-Serif" font-size="10.00">di::container::Intrusive</text>
<text text-anchor="start" x="27.12" y="-20" font-family="Helvetica,sans-Serif" font-size="10.00">TreeMultiSet&lt; T, Tag,</text>
<text text-anchor="middle" x="81.88" y="-7.25" font-family="Helvetica,sans-Serif" font-size="10.00"> Comp &gt;</text>
</a>
</g>
</g>
<!-- Node2 -->
<g id="Node000002" class="node">
<title>Node2</title>
<g id="a_Node000002"><a xlink:href="classdi_1_1container_1_1RBTree.html" target="_top" xlink:title="General implementation of the Red&#45;Black self&#45;balancing binary tree.">
<polygon fill="white" stroke="#666666" points="163.75,-128.5 0,-128.5 0,-82.25 163.75,-82.25 163.75,-128.5"/>
<text text-anchor="start" x="8" y="-115" font-family="Helvetica,sans-Serif" font-size="10.00">di::container::RBTree</text>
<text text-anchor="start" x="8" y="-102.25" font-family="Helvetica,sans-Serif" font-size="10.00">&lt; Value, Comp, Tag, Interface,</text>
<text text-anchor="middle" x="81.88" y="-89.5" font-family="Helvetica,sans-Serif" font-size="10.00"> is_multi, Self &gt;</text>
</a>
</g>
</g>
<!-- Node2&#45;&gt;Node1 -->
<g id="edge1_Node000001_Node000002" class="edge">
<title>Node2&#45;&gt;Node1</title>
<g id="a_edge1_Node000001_Node000002"><a xlink:title=" ">
<path fill="none" stroke="#63b8ff" d="M81.88,-70.59C81.88,-62.5 81.88,-54.07 81.88,-46.64"/>
<polygon fill="#63b8ff" stroke="#63b8ff" points="78.38,-70.51 81.88,-80.51 85.38,-70.51 78.38,-70.51"/>
</a>
</g>
</g>
<!-- Node3 -->
<g id="Node000003" class="node">
<title>Node3</title>
<g id="a_Node000003"><a xlink:title=" ">
<polygon fill="white" stroke="#666666" points="111.62,-185.25 52.12,-185.25 52.12,-164.5 111.62,-164.5 111.62,-185.25"/>
<text text-anchor="middle" x="81.88" y="-171.75" font-family="Helvetica,sans-Serif" font-size="10.00">Interface</text>
</a>
</g>
</g>
<!-- Node3&#45;&gt;Node2 -->
<g id="edge2_Node000002_Node000003" class="edge">
<title>Node3&#45;&gt;Node2</title>
<g id="a_edge2_Node000002_Node000003"><a xlink:title=" ">
<path fill="none" stroke="#63b8ff" d="M81.88,-152.71C81.88,-145.12 81.88,-136.55 81.88,-128.86"/>
<polygon fill="#63b8ff" stroke="#63b8ff" points="78.38,-152.69 81.88,-162.69 85.38,-152.69 78.38,-152.69"/>
</a>
</g>
</g>
</g>
</svg>
