<?xml version="1.0" encoding="UTF-8" standalone="no"?>
<!DOCTYPE svg PUBLIC "-//W3C//DTD SVG 1.1//EN"
 "http://www.w3.org/Graphics/SVG/1.1/DTD/svg11.dtd">
<!-- Generated by graphviz version 10.0.1 (0)
 -->
<!-- Title: di::container::ChunkView&lt; View &gt; Pages: 1 -->
<svg width="555pt" height="118pt"
 viewBox="0.00 0.00 554.75 118.25" xmlns="http://www.w3.org/2000/svg" xmlns:xlink="http://www.w3.org/1999/xlink">
<g id="graph0" class="graph" transform="scale(1 1) rotate(0) translate(4 114.25)">
<title>di::container::ChunkView&lt; View &gt;</title>
<!-- Node1 -->
<g id="Node000001" class="node">
<title>Node1</title>
<g id="a_Node000001"><a xlink:title=" ">
<polygon fill="#999999" stroke="#666666" points="546.75,-110.25 409.25,-110.25 409.25,-76.75 546.75,-76.75 546.75,-110.25"/>
<text text-anchor="start" x="417.25" y="-96.75" font-family="Helvetica,sans-Serif" font-size="10.00">di::container::ChunkView</text>
<text text-anchor="middle" x="478" y="-84" font-family="Helvetica,sans-Serif" font-size="10.00">&lt; View &gt;</text>
</a>
</g>
</g>
<!-- Node2 -->
<g id="Node000002" class="node">
<title>Node2</title>
<g id="a_Node000002"><a xlink:href="classdi_1_1container_1_1ViewInterface.html" target="_top" xlink:title=" ">
<polygon fill="white" stroke="#666666" points="346.62,-110.25 196.38,-110.25 196.38,-76.75 346.62,-76.75 346.62,-110.25"/>
<text text-anchor="start" x="204.38" y="-96.75" font-family="Helvetica,sans-Serif" font-size="10.00">di::container::ViewInterface</text>
<text text-anchor="middle" x="271.5" y="-84" font-family="Helvetica,sans-Serif" font-size="10.00">&lt; ChunkView&lt; View &gt; &gt;</text>
</a>
</g>
</g>
<!-- Node2&#45;&gt;Node1 -->
<g id="edge1_Node000001_Node000002" class="edge">
<title>Node2&#45;&gt;Node1</title>
<g id="a_edge1_Node000001_Node000002"><a xlink:title=" ">
<path fill="none" stroke="#63b8ff" d="M357.94,-86.83C374.89,-86.67 392.47,-86.75 408.76,-87.09"/>
<polygon fill="#63b8ff" stroke="#63b8ff" points="358.37,-83.33 348.42,-86.96 358.47,-90.32 358.37,-83.33"/>
</a>
</g>
</g>
<!-- Node2&#45;&gt;Node1 -->
<g id="edge3_Node000001_Node000002" class="edge">
<title>Node2&#45;&gt;Node1</title>
<g id="a_edge3_Node000001_Node000002"><a xlink:title=" ">
<path fill="none" stroke="#63b8ff" d="M357.94,-100.17C374.89,-100.33 392.47,-100.25 408.76,-99.91"/>
<polygon fill="#63b8ff" stroke="#63b8ff" points="358.47,-96.68 348.42,-100.04 358.37,-103.67 358.47,-96.68"/>
</a>
</g>
</g>
<!-- Node3 -->
<g id="Node000003" class="node">
<title>Node3</title>
<g id="a_Node000003"><a xlink:href="classdi_1_1meta_1_1EnableView.html" target="_top" xlink:title=" ">
<polygon fill="white" stroke="#666666" points="133.75,-110.25 0,-110.25 0,-76.75 133.75,-76.75 133.75,-110.25"/>
<text text-anchor="start" x="8" y="-96.75" font-family="Helvetica,sans-Serif" font-size="10.00">di::meta::EnableView</text>
<text text-anchor="middle" x="66.88" y="-84" font-family="Helvetica,sans-Serif" font-size="10.00">&lt; Self, should_enable &gt;</text>
</a>
</g>
</g>
<!-- Node3&#45;&gt;Node2 -->
<g id="edge2_Node000002_Node000003" class="edge">
<title>Node3&#45;&gt;Node2</title>
<g id="a_edge2_Node000002_Node000003"><a xlink:title=" ">
<path fill="none" stroke="#63b8ff" d="M145.51,-93.5C162.06,-93.5 179.5,-93.5 195.94,-93.5"/>
<polygon fill="#63b8ff" stroke="#63b8ff" points="145.74,-90 135.74,-93.5 145.74,-97 145.74,-90"/>
</a>
</g>
</g>
<!-- Node4 -->
<g id="Node000004" class="node">
<title>Node4</title>
<g id="a_Node000004"><a xlink:href="classdi_1_1meta_1_1EnableBorrowedContainer.html" target="_top" xlink:title=" ">
<polygon fill="white" stroke="#666666" points="373.25,-59 169.75,-59 169.75,0 373.25,0 373.25,-59"/>
<text text-anchor="start" x="177.75" y="-45.5" font-family="Helvetica,sans-Serif" font-size="10.00">di::meta::EnableBorrowed</text>
<text text-anchor="start" x="177.75" y="-32.75" font-family="Helvetica,sans-Serif" font-size="10.00">Container&lt; ChunkView&lt;</text>
<text text-anchor="start" x="177.75" y="-20" font-family="Helvetica,sans-Serif" font-size="10.00"> View &gt;, concepts::BorrowedContainer</text>
<text text-anchor="middle" x="271.5" y="-7.25" font-family="Helvetica,sans-Serif" font-size="10.00">&lt; View &gt; &gt;</text>
</a>
</g>
</g>
<!-- Node4&#45;&gt;Node1 -->
<g id="edge4_Node000001_Node000004" class="edge">
<title>Node4&#45;&gt;Node1</title>
<g id="a_edge4_Node000001_Node000004"><a xlink:title=" ">
<path fill="none" stroke="#63b8ff" d="M379.02,-62.84C393.93,-67.5 408.71,-72.13 422.1,-76.32"/>
<polygon fill="#63b8ff" stroke="#63b8ff" points="380.2,-59.54 369.61,-59.89 378.11,-66.22 380.2,-59.54"/>
</a>
</g>
</g>
</g>
</svg>
