<?xml version="1.0" encoding="UTF-8" standalone="no"?>
<!DOCTYPE svg PUBLIC "-//W3C//DTD SVG 1.1//EN"
 "http://www.w3.org/Graphics/SVG/1.1/DTD/svg11.dtd">
<!-- Generated by graphviz version 12.2.1 (0)
 -->
<!-- Title: di::container::RefView&lt; Cont &gt; Pages: 1 -->
<svg width="499pt" height="94pt"
 viewBox="0.00 0.00 498.50 93.50" xmlns="http://www.w3.org/2000/svg" xmlns:xlink="http://www.w3.org/1999/xlink">
<g id="graph0" class="graph" transform="scale(1 1) rotate(0) translate(4 89.5)">
<title>di::container::RefView&lt; Cont &gt;</title>
<!-- Node1 -->
<g id="Node000001" class="node">
<title>Node1</title>
<g id="a_Node000001"><a xlink:title=" ">
<polygon fill="#999999" stroke="#666666" points="490.5,-59.5 367.25,-59.5 367.25,-26 490.5,-26 490.5,-59.5"/>
<text text-anchor="start" x="375.25" y="-46" font-family="Helvetica,sans-Serif" font-size="10.00">di::container::RefView</text>
<text text-anchor="middle" x="428.88" y="-33.25" font-family="Helvetica,sans-Serif" font-size="10.00">&lt; Cont &gt;</text>
</a>
</g>
</g>
<!-- Node2 -->
<g id="Node000002" class="node">
<title>Node2</title>
<g id="a_Node000002"><a xlink:href="classdi_1_1container_1_1ViewInterface.html" target="_top" xlink:title=" ">
<polygon fill="white" stroke="#666666" points="320.75,-85.5 170.5,-85.5 170.5,-52 320.75,-52 320.75,-85.5"/>
<text text-anchor="start" x="178.5" y="-72" font-family="Helvetica,sans-Serif" font-size="10.00">di::container::ViewInterface</text>
<text text-anchor="middle" x="245.62" y="-59.25" font-family="Helvetica,sans-Serif" font-size="10.00">&lt; RefView&lt; Cont &gt; &gt;</text>
</a>
</g>
</g>
<!-- Node2&#45;&gt;Node1 -->
<g id="edge1_Node000001_Node000002" class="edge">
<title>Node2&#45;&gt;Node1</title>
<g id="a_edge1_Node000001_Node000002"><a xlink:title=" ">
<path fill="none" stroke="#63b8ff" d="M332.28,-56.46C343.98,-54.79 355.78,-53.09 366.91,-51.49"/>
<polygon fill="#63b8ff" stroke="#63b8ff" points="332.03,-52.96 322.63,-57.85 333.02,-59.89 332.03,-52.96"/>
</a>
</g>
</g>
<!-- Node3 -->
<g id="Node000003" class="node">
<title>Node3</title>
<g id="a_Node000003"><a xlink:href="classdi_1_1meta_1_1EnableView.html" target="_top" xlink:title=" ">
<polygon fill="white" stroke="#666666" points="124,-85.5 0,-85.5 0,-52 124,-52 124,-85.5"/>
<text text-anchor="start" x="8" y="-72" font-family="Helvetica,sans-Serif" font-size="10.00">di::meta::EnableView</text>
<text text-anchor="middle" x="62" y="-59.25" font-family="Helvetica,sans-Serif" font-size="10.00">&lt; RefView&lt; Cont &gt; &gt;</text>
</a>
</g>
</g>
<!-- Node3&#45;&gt;Node2 -->
<g id="edge2_Node000002_Node000003" class="edge">
<title>Node3&#45;&gt;Node2</title>
<g id="a_edge2_Node000002_Node000003"><a xlink:title=" ">
<path fill="none" stroke="#63b8ff" d="M135.72,-68.75C147.1,-68.75 158.88,-68.75 170.3,-68.75"/>
<polygon fill="#63b8ff" stroke="#63b8ff" points="136,-65.25 126,-68.75 136,-72.25 136,-65.25"/>
</a>
</g>
</g>
<!-- Node4 -->
<g id="Node000004" class="node">
<title>Node4</title>
<g id="a_Node000004"><a xlink:href="classdi_1_1meta_1_1EnableBorrowedContainer.html" target="_top" xlink:title=" ">
<polygon fill="white" stroke="#666666" points="331.25,-33.5 160,-33.5 160,0 331.25,0 331.25,-33.5"/>
<text text-anchor="start" x="168" y="-20" font-family="Helvetica,sans-Serif" font-size="10.00">di::meta::EnableBorrowed</text>
<text text-anchor="middle" x="245.62" y="-7.25" font-family="Helvetica,sans-Serif" font-size="10.00">Container&lt; RefView&lt; Cont &gt; &gt;</text>
</a>
</g>
</g>
<!-- Node4&#45;&gt;Node1 -->
<g id="edge3_Node000001_Node000004" class="edge">
<title>Node4&#45;&gt;Node1</title>
<g id="a_edge3_Node000001_Node000004"><a xlink:title=" ">
<path fill="none" stroke="#63b8ff" d="M342.81,-30.55C350.97,-31.72 359.07,-32.88 366.84,-33.99"/>
<polygon fill="#63b8ff" stroke="#63b8ff" points="343.57,-27.12 333.18,-29.17 342.58,-34.05 343.57,-27.12"/>
</a>
</g>
</g>
</g>
</svg>
