<?xml version="1.0" encoding="UTF-8" standalone="no"?>
<!DOCTYPE svg PUBLIC "-//W3C//DTD SVG 1.1//EN"
 "http://www.w3.org/Graphics/SVG/1.1/DTD/svg11.dtd">
<!-- Generated by graphviz version 10.0.1 (0)
 -->
<!-- Title: di::container::AdjacentView&lt; View, N &gt; Pages: 1 -->
<svg width="541pt" height="118pt"
 viewBox="0.00 0.00 541.25 118.25" xmlns="http://www.w3.org/2000/svg" xmlns:xlink="http://www.w3.org/1999/xlink">
<g id="graph0" class="graph" transform="scale(1 1) rotate(0) translate(4 114.25)">
<title>di::container::AdjacentView&lt; View, N &gt;</title>
<!-- Node1 -->
<g id="Node000001" class="node">
<title>Node1</title>
<g id="a_Node000001"><a xlink:title=" ">
<polygon fill="#999999" stroke="#666666" points="533.25,-78.25 383.75,-78.25 383.75,-44.75 533.25,-44.75 533.25,-78.25"/>
<text text-anchor="start" x="391.75" y="-64.75" font-family="Helvetica,sans-Serif" font-size="10.00">di::container::AdjacentView</text>
<text text-anchor="middle" x="458.5" y="-52" font-family="Helvetica,sans-Serif" font-size="10.00">&lt; View, N &gt;</text>
</a>
</g>
</g>
<!-- Node2 -->
<g id="Node000002" class="node">
<title>Node2</title>
<g id="a_Node000002"><a xlink:href="classdi_1_1container_1_1ViewInterface.html" target="_top" xlink:title=" ">
<polygon fill="white" stroke="#666666" points="341.38,-110.25 176.12,-110.25 176.12,-76.75 341.38,-76.75 341.38,-110.25"/>
<text text-anchor="start" x="184.12" y="-96.75" font-family="Helvetica,sans-Serif" font-size="10.00">di::container::ViewInterface</text>
<text text-anchor="middle" x="258.75" y="-84" font-family="Helvetica,sans-Serif" font-size="10.00">&lt; AdjacentView&lt; View, N &gt; &gt;</text>
</a>
</g>
</g>
<!-- Node2&#45;&gt;Node1 -->
<g id="edge1_Node000001_Node000002" class="edge">
<title>Node2&#45;&gt;Node1</title>
<g id="a_edge1_Node000001_Node000002"><a xlink:title=" ">
<path fill="none" stroke="#63b8ff" d="M352.69,-78.46C362.96,-76.8 373.31,-75.12 383.3,-73.51"/>
<polygon fill="#63b8ff" stroke="#63b8ff" points="352.42,-74.96 343.1,-80.01 353.53,-81.87 352.42,-74.96"/>
</a>
</g>
</g>
<!-- Node3 -->
<g id="Node000003" class="node">
<title>Node3</title>
<g id="a_Node000003"><a xlink:href="classdi_1_1meta_1_1EnableView.html" target="_top" xlink:title=" ">
<polygon fill="white" stroke="#666666" points="133.75,-110.25 0,-110.25 0,-76.75 133.75,-76.75 133.75,-110.25"/>
<text text-anchor="start" x="8" y="-96.75" font-family="Helvetica,sans-Serif" font-size="10.00">di::meta::EnableView</text>
<text text-anchor="middle" x="66.88" y="-84" font-family="Helvetica,sans-Serif" font-size="10.00">&lt; Self, should_enable &gt;</text>
</a>
</g>
</g>
<!-- Node3&#45;&gt;Node2 -->
<g id="edge2_Node000002_Node000003" class="edge">
<title>Node3&#45;&gt;Node2</title>
<g id="a_edge2_Node000002_Node000003"><a xlink:title=" ">
<path fill="none" stroke="#63b8ff" d="M145.25,-93.5C155.32,-93.5 165.66,-93.5 175.8,-93.5"/>
<polygon fill="#63b8ff" stroke="#63b8ff" points="145.53,-90 135.53,-93.5 145.53,-97 145.53,-90"/>
</a>
</g>
</g>
<!-- Node4 -->
<g id="Node000004" class="node">
<title>Node4</title>
<g id="a_Node000004"><a xlink:href="classdi_1_1meta_1_1EnableBorrowedContainer.html" target="_top" xlink:title=" ">
<polygon fill="white" stroke="#666666" points="347.75,-59 169.75,-59 169.75,0 347.75,0 347.75,-59"/>
<text text-anchor="start" x="177.75" y="-45.5" font-family="Helvetica,sans-Serif" font-size="10.00">di::meta::EnableBorrowed</text>
<text text-anchor="start" x="177.75" y="-32.75" font-family="Helvetica,sans-Serif" font-size="10.00">Container&lt; AdjacentView</text>
<text text-anchor="start" x="177.75" y="-20" font-family="Helvetica,sans-Serif" font-size="10.00">&lt; View, N &gt;, concepts::Borrowed</text>
<text text-anchor="middle" x="258.75" y="-7.25" font-family="Helvetica,sans-Serif" font-size="10.00">Container&lt; View &gt; &gt;</text>
</a>
</g>
</g>
<!-- Node4&#45;&gt;Node1 -->
<g id="edge3_Node000001_Node000004" class="edge">
<title>Node4&#45;&gt;Node1</title>
<g id="a_edge3_Node000001_Node000004"><a xlink:title=" ">
<path fill="none" stroke="#63b8ff" d="M359.52,-45.64C367.53,-46.94 375.53,-48.23 383.31,-49.49"/>
<polygon fill="#63b8ff" stroke="#63b8ff" points="360.14,-42.2 349.71,-44.06 359.02,-49.11 360.14,-42.2"/>
</a>
</g>
</g>
</g>
</svg>
