<?xml version="1.0" encoding="UTF-8" standalone="no"?>
<!DOCTYPE svg PUBLIC "-//W3C//DTD SVG 1.1//EN"
 "http://www.w3.org/Graphics/SVG/1.1/DTD/svg11.dtd">
<!-- Generated by graphviz version 10.0.1 (0)
 -->
<!-- Title: di::container::AdjacentTransformView&lt; View, F, N &gt; Pages: 1 -->
<svg width="182pt" height="193pt"
 viewBox="0.00 0.00 182.25 193.25" xmlns="http://www.w3.org/2000/svg" xmlns:xlink="http://www.w3.org/1999/xlink">
<g id="graph0" class="graph" transform="scale(1 1) rotate(0) translate(4 189.25)">
<title>di::container::AdjacentTransformView&lt; View, F, N &gt;</title>
<!-- Node1 -->
<g id="Node000001" class="node">
<title>Node1</title>
<g id="a_Node000001"><a xlink:title=" ">
<polygon fill="#999999" stroke="#666666" points="174.25,-33.5 0,-33.5 0,0 174.25,0 174.25,-33.5"/>
<text text-anchor="start" x="8" y="-20" font-family="Helvetica,sans-Serif" font-size="10.00">di::container::AdjacentTransform</text>
<text text-anchor="middle" x="87.12" y="-7.25" font-family="Helvetica,sans-Serif" font-size="10.00">View&lt; View, F, N &gt;</text>
</a>
</g>
</g>
<!-- Node2 -->
<g id="Node000002" class="node">
<title>Node2</title>
<g id="a_Node000002"><a xlink:href="classdi_1_1container_1_1ViewInterface.html" target="_top" xlink:title=" ">
<polygon fill="white" stroke="#666666" points="162.62,-115.75 11.62,-115.75 11.62,-69.5 162.62,-69.5 162.62,-115.75"/>
<text text-anchor="start" x="19.62" y="-102.25" font-family="Helvetica,sans-Serif" font-size="10.00">di::container::ViewInterface</text>
<text text-anchor="start" x="19.62" y="-89.5" font-family="Helvetica,sans-Serif" font-size="10.00">&lt; AdjacentTransformView&lt;</text>
<text text-anchor="middle" x="87.12" y="-76.75" font-family="Helvetica,sans-Serif" font-size="10.00"> View, F, N &gt; &gt;</text>
</a>
</g>
</g>
<!-- Node2&#45;&gt;Node1 -->
<g id="edge1_Node000001_Node000002" class="edge">
<title>Node2&#45;&gt;Node1</title>
<g id="a_edge1_Node000001_Node000002"><a xlink:title=" ">
<path fill="none" stroke="#63b8ff" d="M87.12,-57.64C87.12,-49.35 87.12,-40.86 87.12,-33.85"/>
<polygon fill="#63b8ff" stroke="#63b8ff" points="83.63,-57.55 87.13,-67.55 90.63,-57.55 83.63,-57.55"/>
</a>
</g>
</g>
<!-- Node3 -->
<g id="Node000003" class="node">
<title>Node3</title>
<g id="a_Node000003"><a xlink:href="classdi_1_1meta_1_1EnableView.html" target="_top" xlink:title=" ">
<polygon fill="white" stroke="#666666" points="154,-185.25 20.25,-185.25 20.25,-151.75 154,-151.75 154,-185.25"/>
<text text-anchor="start" x="28.25" y="-171.75" font-family="Helvetica,sans-Serif" font-size="10.00">di::meta::EnableView</text>
<text text-anchor="middle" x="87.12" y="-159" font-family="Helvetica,sans-Serif" font-size="10.00">&lt; Self, should_enable &gt;</text>
</a>
</g>
</g>
<!-- Node3&#45;&gt;Node2 -->
<g id="edge2_Node000002_Node000003" class="edge">
<title>Node3&#45;&gt;Node2</title>
<g id="a_edge2_Node000002_Node000003"><a xlink:title=" ">
<path fill="none" stroke="#63b8ff" d="M87.12,-140.14C87.12,-132.21 87.12,-123.66 87.12,-116.07"/>
<polygon fill="#63b8ff" stroke="#63b8ff" points="83.63,-139.96 87.13,-149.96 90.63,-139.96 83.63,-139.96"/>
</a>
</g>
</g>
</g>
</svg>
