<?xml version="1.0" encoding="UTF-8" standalone="no"?>
<!DOCTYPE svg PUBLIC "-//W3C//DTD SVG 1.1//EN"
 "http://www.w3.org/Graphics/SVG/1.1/DTD/svg11.dtd">
<!-- Generated by graphviz version 10.0.1 (0)
 -->
<!-- Title: di::container::View&lt; Iter, Sent, is_sized &gt; Pages: 1 -->
<svg width="492pt" height="158pt"
 viewBox="0.00 0.00 491.75 157.50" xmlns="http://www.w3.org/2000/svg" xmlns:xlink="http://www.w3.org/1999/xlink">
<g id="graph0" class="graph" transform="scale(1 1) rotate(0) translate(4 153.5)">
<title>di::container::View&lt; Iter, Sent, is_sized &gt;</title>
<!-- Node1 -->
<g id="Node000001" class="node">
<title>Node1</title>
<g id="a_Node000001"><a xlink:title=" ">
<polygon fill="#999999" stroke="#666666" points="483.75,-91.5 356,-91.5 356,-58 483.75,-58 483.75,-91.5"/>
<text text-anchor="start" x="364" y="-78" font-family="Helvetica,sans-Serif" font-size="10.00">di::container::View</text>
<text text-anchor="middle" x="419.88" y="-65.25" font-family="Helvetica,sans-Serif" font-size="10.00">&lt; Iter, Sent, is_sized &gt;</text>
</a>
</g>
</g>
<!-- Node2 -->
<g id="Node000002" class="node">
<title>Node2</title>
<g id="a_Node000002"><a xlink:href="classdi_1_1container_1_1ViewInterface.html" target="_top" xlink:title=" ">
<polygon fill="white" stroke="#666666" points="320,-149.5 169.75,-149.5 169.75,-116 320,-116 320,-149.5"/>
<text text-anchor="start" x="177.75" y="-136" font-family="Helvetica,sans-Serif" font-size="10.00">di::container::ViewInterface</text>
<text text-anchor="middle" x="244.88" y="-123.25" font-family="Helvetica,sans-Serif" font-size="10.00">&lt; Self &gt;</text>
</a>
</g>
</g>
<!-- Node2&#45;&gt;Node1 -->
<g id="edge1_Node000001_Node000002" class="edge">
<title>Node2&#45;&gt;Node1</title>
<g id="a_edge1_Node000001_Node000002"><a xlink:title=" ">
<path fill="none" stroke="#63b8ff" d="M307.97,-111.93C327.53,-105.37 348.91,-98.21 367.64,-91.93"/>
<polygon fill="#63b8ff" stroke="#63b8ff" points="307.12,-108.53 298.75,-115.02 309.34,-115.16 307.12,-108.53"/>
</a>
</g>
</g>
<!-- Node3 -->
<g id="Node000003" class="node">
<title>Node3</title>
<g id="a_Node000003"><a xlink:href="classdi_1_1meta_1_1EnableView.html" target="_top" xlink:title=" ">
<polygon fill="white" stroke="#666666" points="133.75,-149.5 0,-149.5 0,-116 133.75,-116 133.75,-149.5"/>
<text text-anchor="start" x="8" y="-136" font-family="Helvetica,sans-Serif" font-size="10.00">di::meta::EnableView</text>
<text text-anchor="middle" x="66.88" y="-123.25" font-family="Helvetica,sans-Serif" font-size="10.00">&lt; Self, should_enable &gt;</text>
</a>
</g>
</g>
<!-- Node3&#45;&gt;Node2 -->
<g id="edge2_Node000002_Node000003" class="edge">
<title>Node3&#45;&gt;Node2</title>
<g id="a_edge2_Node000002_Node000003"><a xlink:title=" ">
<path fill="none" stroke="#63b8ff" d="M145.62,-132.75C153.52,-132.75 161.53,-132.75 169.39,-132.75"/>
<polygon fill="#63b8ff" stroke="#63b8ff" points="145.68,-129.25 135.68,-132.75 145.68,-136.25 145.68,-129.25"/>
</a>
</g>
</g>
<!-- Node4 -->
<g id="Node000004" class="node">
<title>Node4</title>
<g id="a_Node000004"><a xlink:href="classdi_1_1meta_1_1EnableBorrowedContainer.html" target="_top" xlink:title=" ">
<polygon fill="white" stroke="#666666" points="315.88,-97.88 173.88,-97.88 173.88,-51.62 315.88,-51.62 315.88,-97.88"/>
<text text-anchor="start" x="181.88" y="-84.38" font-family="Helvetica,sans-Serif" font-size="10.00">di::meta::EnableBorrowed</text>
<text text-anchor="start" x="181.88" y="-71.62" font-family="Helvetica,sans-Serif" font-size="10.00">Container&lt; Self, should</text>
<text text-anchor="middle" x="244.88" y="-58.88" font-family="Helvetica,sans-Serif" font-size="10.00">_enable &gt;</text>
</a>
</g>
</g>
<!-- Node4&#45;&gt;Node1 -->
<g id="edge3_Node000001_Node000004" class="edge">
<title>Node4&#45;&gt;Node1</title>
<g id="a_edge3_Node000001_Node000004"><a xlink:title=" ">
<path fill="none" stroke="#63b8ff" d="M327.61,-74.75C336.99,-74.75 346.45,-74.75 355.53,-74.75"/>
<polygon fill="#63b8ff" stroke="#63b8ff" points="327.75,-71.25 317.75,-74.75 327.75,-78.25 327.75,-71.25"/>
</a>
</g>
</g>
<!-- Node5 -->
<g id="Node000005" class="node">
<title>Node5</title>
<g id="a_Node000005"><a xlink:href="structdi_1_1util_1_1AddMemberGet.html" target="_top" xlink:title=" ">
<polygon fill="white" stroke="#666666" points="309.5,-33.5 180.25,-33.5 180.25,0 309.5,0 309.5,-33.5"/>
<text text-anchor="start" x="188.25" y="-20" font-family="Helvetica,sans-Serif" font-size="10.00">di::util::AddMemberGet</text>
<text text-anchor="middle" x="244.88" y="-7.25" font-family="Helvetica,sans-Serif" font-size="10.00">&lt; Self &gt;</text>
</a>
</g>
</g>
<!-- Node5&#45;&gt;Node1 -->
<g id="edge4_Node000001_Node000005" class="edge">
<title>Node5&#45;&gt;Node1</title>
<g id="a_edge4_Node000001_Node000005"><a xlink:title=" ">
<path fill="none" stroke="#63b8ff" d="M307.97,-37.57C327.53,-44.13 348.91,-51.29 367.64,-57.57"/>
<polygon fill="#63b8ff" stroke="#63b8ff" points="309.34,-34.34 298.75,-34.48 307.12,-40.97 309.34,-34.34"/>
</a>
</g>
</g>
</g>
</svg>
