<?xml version="1.0" encoding="UTF-8" standalone="no"?>
<!DOCTYPE svg PUBLIC "-//W3C//DTD SVG 1.1//EN"
 "http://www.w3.org/Graphics/SVG/1.1/DTD/svg11.dtd">
<!-- Generated by graphviz version 10.0.1 (0)
 -->
<!-- Title: di::sync::detail::InPlaceStopCallbackBase Pages: 1 -->
<svg width="167pt" height="237pt"
 viewBox="0.00 0.00 166.50 237.25" xmlns="http://www.w3.org/2000/svg" xmlns:xlink="http://www.w3.org/1999/xlink">
<g id="graph0" class="graph" transform="scale(1 1) rotate(0) translate(4 233.25)">
<title>di::sync::detail::InPlaceStopCallbackBase</title>
<!-- Node1 -->
<g id="Node000001" class="node">
<title>Node1</title>
<g id="a_Node000001"><a xlink:title=" ">
<polygon fill="#999999" stroke="#666666" points="143.5,-103 15,-103 15,-69.5 143.5,-69.5 143.5,-103"/>
<text text-anchor="start" x="23" y="-89.5" font-family="Helvetica,sans-Serif" font-size="10.00">di::sync::detail::InPlace</text>
<text text-anchor="middle" x="79.25" y="-76.75" font-family="Helvetica,sans-Serif" font-size="10.00">StopCallbackBase</text>
</a>
</g>
</g>
<!-- Node4 -->
<g id="Node000004" class="node">
<title>Node4</title>
<g id="a_Node000004"><a xlink:href="classdi_1_1sync_1_1InPlaceStopCallback.html" target="_top" xlink:title=" ">
<polygon fill="white" stroke="#666666" points="158.5,-33.5 0,-33.5 0,0 158.5,0 158.5,-33.5"/>
<text text-anchor="start" x="8" y="-20" font-family="Helvetica,sans-Serif" font-size="10.00">di::sync::InPlaceStopCallback</text>
<text text-anchor="middle" x="79.25" y="-7.25" font-family="Helvetica,sans-Serif" font-size="10.00">&lt; Callback &gt;</text>
</a>
</g>
</g>
<!-- Node1&#45;&gt;Node4 -->
<g id="edge3_Node000001_Node000004" class="edge">
<title>Node1&#45;&gt;Node4</title>
<g id="a_edge3_Node000001_Node000004"><a xlink:title=" ">
<path fill="none" stroke="#63b8ff" d="M79.25,-57.81C79.25,-49.59 79.25,-40.84 79.25,-33.63"/>
<polygon fill="#63b8ff" stroke="#63b8ff" points="75.75,-57.74 79.25,-67.74 82.75,-57.74 75.75,-57.74"/>
</a>
</g>
</g>
<!-- Node2 -->
<g id="Node000002" class="node">
<title>Node2</title>
<g id="a_Node000002"><a xlink:href="classdi_1_1container_1_1IntrusiveListNode.html" target="_top" xlink:title=" ">
<polygon fill="white" stroke="#666666" points="142,-172.5 16.5,-172.5 16.5,-139 142,-139 142,-172.5"/>
<text text-anchor="start" x="24.5" y="-159" font-family="Helvetica,sans-Serif" font-size="10.00">di::container::Intrusive</text>
<text text-anchor="middle" x="79.25" y="-146.25" font-family="Helvetica,sans-Serif" font-size="10.00">ListNode&lt;&gt;</text>
</a>
</g>
</g>
<!-- Node2&#45;&gt;Node1 -->
<g id="edge1_Node000001_Node000002" class="edge">
<title>Node2&#45;&gt;Node1</title>
<g id="a_edge1_Node000001_Node000002"><a xlink:title=" ">
<path fill="none" stroke="#63b8ff" d="M79.25,-127.31C79.25,-119.09 79.25,-110.34 79.25,-103.13"/>
<polygon fill="#63b8ff" stroke="#63b8ff" points="75.75,-127.24 79.25,-137.24 82.75,-127.24 75.75,-127.24"/>
</a>
</g>
</g>
<!-- Node3 -->
<g id="Node000003" class="node">
<title>Node3</title>
<g id="a_Node000003"><a xlink:href="structdi_1_1util_1_1Immovable.html" target="_top" xlink:title=" ">
<polygon fill="white" stroke="#666666" points="133.38,-229.25 25.12,-229.25 25.12,-208.5 133.38,-208.5 133.38,-229.25"/>
<text text-anchor="middle" x="79.25" y="-215.75" font-family="Helvetica,sans-Serif" font-size="10.00">di::util::Immovable</text>
</a>
</g>
</g>
<!-- Node3&#45;&gt;Node2 -->
<g id="edge2_Node000002_Node000003" class="edge">
<title>Node3&#45;&gt;Node2</title>
<g id="a_edge2_Node000002_Node000003"><a xlink:title=" ">
<path fill="none" stroke="#8b1a1a" d="M79.25,-196.59C79.25,-188.85 79.25,-180.22 79.25,-172.98"/>
<polygon fill="#8b1a1a" stroke="#8b1a1a" points="75.75,-196.54 79.25,-206.54 82.75,-196.54 75.75,-196.54"/>
</a>
</g>
</g>
</g>
</svg>
