<?xml version="1.0" encoding="UTF-8" standalone="no"?>
<!DOCTYPE svg PUBLIC "-//W3C//DTD SVG 1.1//EN"
 "http://www.w3.org/Graphics/SVG/1.1/DTD/svg11.dtd">
<!-- Generated by graphviz version 10.0.1 (0)
 -->
<!-- Title: di::parser::detail::AlternationParser&lt; Parsers &gt; Pages: 1 -->
<svg width="339pt" height="94pt"
 viewBox="0.00 0.00 339.25 93.50" xmlns="http://www.w3.org/2000/svg" xmlns:xlink="http://www.w3.org/1999/xlink">
<g id="graph0" class="graph" transform="scale(1 1) rotate(0) translate(4 89.5)">
<title>di::parser::detail::AlternationParser&lt; Parsers &gt;</title>
<!-- Node1 -->
<g id="Node000001" class="node">
<title>Node1</title>
<g id="a_Node000001"><a xlink:title=" ">
<polygon fill="#999999" stroke="#666666" points="331.25,-65.88 225.25,-65.88 225.25,-19.62 331.25,-19.62 331.25,-65.88"/>
<text text-anchor="start" x="233.25" y="-52.38" font-family="Helvetica,sans-Serif" font-size="10.00">di::parser::detail</text>
<text text-anchor="start" x="233.25" y="-39.62" font-family="Helvetica,sans-Serif" font-size="10.00">::AlternationParser</text>
<text text-anchor="middle" x="278.25" y="-26.88" font-family="Helvetica,sans-Serif" font-size="10.00">&lt; Parsers &gt;</text>
</a>
</g>
</g>
<!-- Node2 -->
<g id="Node000002" class="node">
<title>Node2</title>
<g id="a_Node000002"><a xlink:href="classdi_1_1parser_1_1ParserBase.html" target="_top" xlink:title=" ">
<polygon fill="white" stroke="#666666" points="189.25,-85.5 0,-85.5 0,-52 189.25,-52 189.25,-85.5"/>
<text text-anchor="start" x="8" y="-72" font-family="Helvetica,sans-Serif" font-size="10.00">di::parser::ParserBase</text>
<text text-anchor="middle" x="94.62" y="-59.25" font-family="Helvetica,sans-Serif" font-size="10.00">&lt; AlternationParser&lt; Parsers... &gt; &gt;</text>
</a>
</g>
</g>
<!-- Node2&#45;&gt;Node1 -->
<g id="edge1_Node000001_Node000002" class="edge">
<title>Node2&#45;&gt;Node1</title>
<g id="a_edge1_Node000001_Node000002"><a xlink:title=" ">
<path fill="none" stroke="#63b8ff" d="M200.94,-53.67C209.18,-52.49 217.26,-51.34 224.89,-50.25"/>
<polygon fill="#63b8ff" stroke="#63b8ff" points="200.53,-50.2 191.13,-55.08 201.52,-57.13 200.53,-50.2"/>
</a>
</g>
</g>
<!-- Node3 -->
<g id="Node000003" class="node">
<title>Node3</title>
<g id="a_Node000003"><a xlink:href="structdi_1_1parser_1_1detail_1_1AlternationParserMarker.html" target="_top" xlink:title=" ">
<polygon fill="white" stroke="#666666" points="164.5,-33.5 24.75,-33.5 24.75,0 164.5,0 164.5,-33.5"/>
<text text-anchor="start" x="32.75" y="-20" font-family="Helvetica,sans-Serif" font-size="10.00">di::parser::detail</text>
<text text-anchor="middle" x="94.62" y="-7.25" font-family="Helvetica,sans-Serif" font-size="10.00">::AlternationParserMarker</text>
</a>
</g>
</g>
<!-- Node3&#45;&gt;Node1 -->
<g id="edge2_Node000001_Node000003" class="edge">
<title>Node3&#45;&gt;Node1</title>
<g id="a_edge2_Node000001_Node000003"><a xlink:title=" ">
<path fill="none" stroke="#63b8ff" d="M176.16,-28.28C192.7,-30.65 209.7,-33.08 224.93,-35.26"/>
<polygon fill="#63b8ff" stroke="#63b8ff" points="176.7,-24.82 166.31,-26.87 175.71,-31.75 176.7,-24.82"/>
</a>
</g>
</g>
</g>
</svg>
