<?xml version="1.0" encoding="UTF-8" standalone="no"?>
<!DOCTYPE svg PUBLIC "-//W3C//DTD SVG 1.1//EN"
 "http://www.w3.org/Graphics/SVG/1.1/DTD/svg11.dtd">
<!-- Generated by graphviz version 10.0.1 (0)
 -->
<!-- Title: di::container::StaticRing&lt; T, SizeConstant &gt; Pages: 1 -->
<svg width="156pt" height="193pt"
 viewBox="0.00 0.00 156.00 193.25" xmlns="http://www.w3.org/2000/svg" xmlns:xlink="http://www.w3.org/1999/xlink">
<g id="graph0" class="graph" transform="scale(1 1) rotate(0) translate(4 189.25)">
<title>di::container::StaticRing&lt; T, SizeConstant &gt;</title>
<!-- Node1 -->
<g id="Node000001" class="node">
<title>Node1</title>
<g id="a_Node000001"><a xlink:title=" ">
<polygon fill="#999999" stroke="#666666" points="140.12,-33.5 7.88,-33.5 7.88,0 140.12,0 140.12,-33.5"/>
<text text-anchor="start" x="15.88" y="-20" font-family="Helvetica,sans-Serif" font-size="10.00">di::container::StaticRing</text>
<text text-anchor="middle" x="74" y="-7.25" font-family="Helvetica,sans-Serif" font-size="10.00">&lt; T, SizeConstant &gt;</text>
</a>
</g>
</g>
<!-- Node2 -->
<g id="Node000002" class="node">
<title>Node2</title>
<g id="a_Node000002"><a xlink:href="classdi_1_1container_1_1MutableRingInterface.html" target="_top" xlink:title=" ">
<polygon fill="white" stroke="#666666" points="146.12,-115.75 1.88,-115.75 1.88,-69.5 146.12,-69.5 146.12,-115.75"/>
<text text-anchor="start" x="9.88" y="-102.25" font-family="Helvetica,sans-Serif" font-size="10.00">di::container::MutableRing</text>
<text text-anchor="start" x="9.88" y="-89.5" font-family="Helvetica,sans-Serif" font-size="10.00">Interface&lt; StaticRing&lt;</text>
<text text-anchor="middle" x="74" y="-76.75" font-family="Helvetica,sans-Serif" font-size="10.00"> T, SizeConstant &gt;, T &gt;</text>
</a>
</g>
</g>
<!-- Node2&#45;&gt;Node1 -->
<g id="edge1_Node000001_Node000002" class="edge">
<title>Node2&#45;&gt;Node1</title>
<g id="a_edge1_Node000001_Node000002"><a xlink:title=" ">
<path fill="none" stroke="#63b8ff" d="M74,-57.64C74,-49.35 74,-40.86 74,-33.85"/>
<polygon fill="#63b8ff" stroke="#63b8ff" points="70.5,-57.55 74,-67.55 77.5,-57.55 70.5,-57.55"/>
</a>
</g>
</g>
<!-- Node3 -->
<g id="Node000003" class="node">
<title>Node3</title>
<g id="a_Node000003"><a xlink:href="classdi_1_1container_1_1ConstantRingInterface.html" target="_top" xlink:title=" ">
<polygon fill="white" stroke="#666666" points="148,-185.25 0,-185.25 0,-151.75 148,-151.75 148,-185.25"/>
<text text-anchor="start" x="8" y="-171.75" font-family="Helvetica,sans-Serif" font-size="10.00">di::container::ConstantRing</text>
<text text-anchor="middle" x="74" y="-159" font-family="Helvetica,sans-Serif" font-size="10.00">Interface&lt; Self, Value &gt;</text>
</a>
</g>
</g>
<!-- Node3&#45;&gt;Node2 -->
<g id="edge2_Node000002_Node000003" class="edge">
<title>Node3&#45;&gt;Node2</title>
<g id="a_edge2_Node000002_Node000003"><a xlink:title=" ">
<path fill="none" stroke="#63b8ff" d="M74,-140.14C74,-132.21 74,-123.66 74,-116.07"/>
<polygon fill="#63b8ff" stroke="#63b8ff" points="70.5,-139.96 74,-149.96 77.5,-139.96 70.5,-139.96"/>
</a>
</g>
</g>
</g>
</svg>
