<?xml version="1.0" encoding="UTF-8" standalone="no"?>
<!DOCTYPE svg PUBLIC "-//W3C//DTD SVG 1.1//EN"
 "http://www.w3.org/Graphics/SVG/1.1/DTD/svg11.dtd">
<!-- Generated by graphviz version 10.0.1 (0)
 -->
<!-- Title: di::meta::EnableBorrowedContainer&lt; Self, should_enable &gt; Pages: 1 -->
<svg width="280pt" height="124pt"
 viewBox="0.00 0.00 279.62 123.75" xmlns="http://www.w3.org/2000/svg" xmlns:xlink="http://www.w3.org/1999/xlink">
<g id="graph0" class="graph" transform="scale(1 1) rotate(0) translate(4 119.75)">
<title>di::meta::EnableBorrowedContainer&lt; Self, should_enable &gt;</title>
<!-- Node1 -->
<g id="Node000001" class="node">
<title>Node1</title>
<g id="a_Node000001"><a xlink:title=" ">
<polygon fill="#999999" stroke="#666666" points="205.75,-115.75 63.75,-115.75 63.75,-69.5 205.75,-69.5 205.75,-115.75"/>
<text text-anchor="start" x="71.75" y="-102.25" font-family="Helvetica,sans-Serif" font-size="10.00">di::meta::EnableBorrowed</text>
<text text-anchor="start" x="71.75" y="-89.5" font-family="Helvetica,sans-Serif" font-size="10.00">Container&lt; Self, should</text>
<text text-anchor="middle" x="134.75" y="-76.75" font-family="Helvetica,sans-Serif" font-size="10.00">_enable &gt;</text>
</a>
</g>
</g>
<!-- Node2 -->
<g id="Node000002" class="node">
<title>Node2</title>
<g id="a_Node000002"><a xlink:href="classdi_1_1container_1_1IotaView.html" target="_top" xlink:title=" ">
<polygon fill="white" stroke="#666666" points="125.5,-33.5 0,-33.5 0,0 125.5,0 125.5,-33.5"/>
<text text-anchor="start" x="8" y="-20" font-family="Helvetica,sans-Serif" font-size="10.00">di::container::IotaView</text>
<text text-anchor="middle" x="62.75" y="-7.25" font-family="Helvetica,sans-Serif" font-size="10.00">&lt; T, Bound &gt;</text>
</a>
</g>
</g>
<!-- Node1&#45;&gt;Node2 -->
<g id="edge1_Node000001_Node000002" class="edge">
<title>Node1&#45;&gt;Node2</title>
<g id="a_edge1_Node000001_Node000002"><a xlink:title=" ">
<path fill="none" stroke="#63b8ff" d="M104.96,-61.06C95.86,-51.72 86.22,-41.83 78.45,-33.85"/>
<polygon fill="#63b8ff" stroke="#63b8ff" points="102.21,-63.26 111.7,-67.97 107.23,-58.37 102.21,-63.26"/>
</a>
</g>
</g>
<!-- Node3 -->
<g id="Node000003" class="node">
<title>Node3</title>
<g id="a_Node000003"><a xlink:href="classdi_1_1container_1_1View.html" target="_top" xlink:title=" ">
<polygon fill="white" stroke="#666666" points="271.62,-33.5 143.88,-33.5 143.88,0 271.62,0 271.62,-33.5"/>
<text text-anchor="start" x="151.88" y="-20" font-family="Helvetica,sans-Serif" font-size="10.00">di::container::View</text>
<text text-anchor="middle" x="207.75" y="-7.25" font-family="Helvetica,sans-Serif" font-size="10.00">&lt; Iter, Sent, is_sized &gt;</text>
</a>
</g>
</g>
<!-- Node1&#45;&gt;Node3 -->
<g id="edge2_Node000001_Node000003" class="edge">
<title>Node1&#45;&gt;Node3</title>
<g id="a_edge2_Node000001_Node000003"><a xlink:title=" ">
<path fill="none" stroke="#63b8ff" d="M164.95,-61.06C174.18,-51.72 183.96,-41.83 191.84,-33.85"/>
<polygon fill="#63b8ff" stroke="#63b8ff" points="162.65,-58.41 158.11,-67.98 167.63,-63.33 162.65,-58.41"/>
</a>
</g>
</g>
</g>
</svg>
