<?xml version="1.0" encoding="UTF-8" standalone="no"?>
<!DOCTYPE svg PUBLIC "-//W3C//DTD SVG 1.1//EN"
 "http://www.w3.org/Graphics/SVG/1.1/DTD/svg11.dtd">
<!-- Generated by graphviz version 10.0.1 (0)
 -->
<!-- Title: di::container::Vector&lt; T, Alloc &gt; Pages: 1 -->
<svg width="191pt" height="181pt"
 viewBox="0.00 0.00 191.25 180.50" xmlns="http://www.w3.org/2000/svg" xmlns:xlink="http://www.w3.org/1999/xlink">
<g id="graph0" class="graph" transform="scale(1 1) rotate(0) translate(4 176.5)">
<title>di::container::Vector&lt; T, Alloc &gt;</title>
<!-- Node1 -->
<g id="Node000001" class="node">
<title>Node1</title>
<g id="a_Node000001"><a xlink:title=" ">
<polygon fill="#999999" stroke="#666666" points="148.38,-33.5 34.88,-33.5 34.88,0 148.38,0 148.38,-33.5"/>
<text text-anchor="start" x="42.88" y="-20" font-family="Helvetica,sans-Serif" font-size="10.00">di::container::Vector</text>
<text text-anchor="middle" x="91.62" y="-7.25" font-family="Helvetica,sans-Serif" font-size="10.00">&lt; T, Alloc &gt;</text>
</a>
</g>
</g>
<!-- Node2 -->
<g id="Node000002" class="node">
<title>Node2</title>
<g id="a_Node000002"><a xlink:href="classdi_1_1container_1_1MutableVectorInterface.html" target="_top" xlink:title=" ">
<polygon fill="white" stroke="#666666" points="183.25,-103 0,-103 0,-69.5 183.25,-69.5 183.25,-103"/>
<text text-anchor="start" x="8" y="-89.5" font-family="Helvetica,sans-Serif" font-size="10.00">di::container::MutableVector</text>
<text text-anchor="middle" x="91.62" y="-76.75" font-family="Helvetica,sans-Serif" font-size="10.00">Interface&lt; Vector&lt; T, Alloc &gt;, T &gt;</text>
</a>
</g>
</g>
<!-- Node2&#45;&gt;Node1 -->
<g id="edge1_Node000001_Node000002" class="edge">
<title>Node2&#45;&gt;Node1</title>
<g id="a_edge1_Node000001_Node000002"><a xlink:title=" ">
<path fill="none" stroke="#63b8ff" d="M91.62,-57.81C91.62,-49.59 91.62,-40.84 91.62,-33.63"/>
<polygon fill="#63b8ff" stroke="#63b8ff" points="88.13,-57.74 91.63,-67.74 95.13,-57.74 88.13,-57.74"/>
</a>
</g>
</g>
<!-- Node3 -->
<g id="Node000003" class="node">
<title>Node3</title>
<g id="a_Node000003"><a xlink:href="classdi_1_1container_1_1ConstantVectorInterface.html" target="_top" xlink:title=" ">
<polygon fill="white" stroke="#666666" points="170.12,-172.5 13.12,-172.5 13.12,-139 170.12,-139 170.12,-172.5"/>
<text text-anchor="start" x="21.12" y="-159" font-family="Helvetica,sans-Serif" font-size="10.00">di::container::ConstantVector</text>
<text text-anchor="middle" x="91.62" y="-146.25" font-family="Helvetica,sans-Serif" font-size="10.00">Interface&lt; Self, Value &gt;</text>
</a>
</g>
</g>
<!-- Node3&#45;&gt;Node2 -->
<g id="edge2_Node000002_Node000003" class="edge">
<title>Node3&#45;&gt;Node2</title>
<g id="a_edge2_Node000002_Node000003"><a xlink:title=" ">
<path fill="none" stroke="#63b8ff" d="M91.62,-127.31C91.62,-119.09 91.62,-110.34 91.62,-103.13"/>
<polygon fill="#63b8ff" stroke="#63b8ff" points="88.13,-127.24 91.63,-137.24 95.13,-127.24 88.13,-127.24"/>
</a>
</g>
</g>
</g>
</svg>
