<?xml version="1.0" encoding="UTF-8" standalone="no"?>
<!DOCTYPE svg PUBLIC "-//W3C//DTD SVG 1.1//EN"
 "http://www.w3.org/Graphics/SVG/1.1/DTD/svg11.dtd">
<!-- Generated by graphviz version 10.0.1 (0)
 -->
<!-- Title: di::sync::Synchronized&lt; Value, Lock &gt; Pages: 1 -->
<svg width="312pt" height="182pt"
 viewBox="0.00 0.00 312.25 182.25" xmlns="http://www.w3.org/2000/svg" xmlns:xlink="http://www.w3.org/1999/xlink">
<g id="graph0" class="graph" transform="scale(1 1) rotate(0) translate(4 178.25)">
<title>di::sync::Synchronized&lt; Value, Lock &gt;</title>
<!-- Node1 -->
<g id="Node000001" class="node">
<title>Node1</title>
<g id="a_Node000001"><a xlink:title=" ">
<polygon fill="#999999" stroke="#666666" points="124.75,-103.88 0,-103.88 0,-70.38 124.75,-70.38 124.75,-103.88"/>
<text text-anchor="start" x="8" y="-90.38" font-family="Helvetica,sans-Serif" font-size="10.00">di::sync::Synchronized</text>
<text text-anchor="middle" x="62.38" y="-77.62" font-family="Helvetica,sans-Serif" font-size="10.00">&lt; Value, Lock &gt;</text>
</a>
</g>
</g>
<!-- Node2 -->
<g id="Node000002" class="node">
<title>Node2</title>
<g id="a_Node000002"><a xlink:href="classiris_1_1TaskNamespace.html" target="_top" xlink:title=" ">
<polygon fill="white" stroke="#666666" points="304.25,-174.25 160.75,-174.25 160.75,-128 304.25,-128 304.25,-174.25"/>
<text text-anchor="start" x="168.75" y="-160.75" font-family="Helvetica,sans-Serif" font-size="10.00">iris::TaskNamespace</text>
<text text-anchor="start" x="168.75" y="-148" font-family="Helvetica,sans-Serif" font-size="10.00">&lt; LockedTaskNamespace,</text>
<text text-anchor="middle" x="232.5" y="-135.25" font-family="Helvetica,sans-Serif" font-size="10.00"> InterruptibleSpinlock &gt;</text>
</a>
</g>
</g>
<!-- Node1&#45;&gt;Node2 -->
<g id="edge1_Node000001_Node000002" class="edge">
<title>Node1&#45;&gt;Node2</title>
<g id="a_edge1_Node000001_Node000002"><a xlink:title=" ">
<path fill="none" stroke="#63b8ff" d="M118.84,-108.24C135.09,-114.42 152.95,-121.22 169.57,-127.55"/>
<polygon fill="#63b8ff" stroke="#63b8ff" points="120.43,-105.1 109.84,-104.81 117.94,-111.64 120.43,-105.1"/>
</a>
</g>
</g>
<!-- Node3 -->
<g id="Node000003" class="node">
<title>Node3</title>
<g id="a_Node000003"><a xlink:href="classiris_1_1mm_1_1AddressSpace.html" target="_top" xlink:title=" ">
<polygon fill="white" stroke="#666666" points="298.62,-110.25 166.38,-110.25 166.38,-64 298.62,-64 298.62,-110.25"/>
<text text-anchor="start" x="174.38" y="-96.75" font-family="Helvetica,sans-Serif" font-size="10.00">iris::mm::AddressSpace</text>
<text text-anchor="start" x="174.38" y="-84" font-family="Helvetica,sans-Serif" font-size="10.00">&lt; LockedAddressSpace,</text>
<text text-anchor="middle" x="232.5" y="-71.25" font-family="Helvetica,sans-Serif" font-size="10.00"> InterruptibleSpinlock &gt;</text>
</a>
</g>
</g>
<!-- Node1&#45;&gt;Node3 -->
<g id="edge2_Node000001_Node000003" class="edge">
<title>Node1&#45;&gt;Node3</title>
<g id="a_edge2_Node000001_Node000003"><a xlink:title=" ">
<path fill="none" stroke="#63b8ff" d="M136.41,-87.12C146.22,-87.12 156.23,-87.12 165.9,-87.12"/>
<polygon fill="#63b8ff" stroke="#63b8ff" points="136.54,-83.63 126.54,-87.13 136.54,-90.63 136.54,-83.63"/>
</a>
</g>
</g>
<!-- Node4 -->
<g id="Node000004" class="node">
<title>Node4</title>
<g id="a_Node000004"><a xlink:href="classiris_1_1mm_1_1BackingObject.html" target="_top" xlink:title=" ">
<polygon fill="white" stroke="#666666" points="299.75,-46.25 165.25,-46.25 165.25,0 299.75,0 299.75,-46.25"/>
<text text-anchor="start" x="173.25" y="-32.75" font-family="Helvetica,sans-Serif" font-size="10.00">iris::mm::BackingObject</text>
<text text-anchor="start" x="173.25" y="-20" font-family="Helvetica,sans-Serif" font-size="10.00">&lt; LockedBackingObject,</text>
<text text-anchor="middle" x="232.5" y="-7.25" font-family="Helvetica,sans-Serif" font-size="10.00"> InterruptibleSpinlock &gt;</text>
</a>
</g>
</g>
<!-- Node1&#45;&gt;Node4 -->
<g id="edge3_Node000001_Node000004" class="edge">
<title>Node1&#45;&gt;Node4</title>
<g id="a_edge3_Node000001_Node000004"><a xlink:title=" ">
<path fill="none" stroke="#63b8ff" d="M118.84,-66.01C135.09,-59.83 152.95,-53.03 169.57,-46.7"/>
<polygon fill="#63b8ff" stroke="#63b8ff" points="117.94,-62.61 109.84,-69.44 120.43,-69.15 117.94,-62.61"/>
</a>
</g>
</g>
</g>
</svg>
