<?xml version="1.0" encoding="UTF-8" standalone="no"?>
<!DOCTYPE svg PUBLIC "-//W3C//DTD SVG 1.1//EN"
 "http://www.w3.org/Graphics/SVG/1.1/DTD/svg11.dtd">
<!-- Generated by graphviz version 10.0.1 (0)
 -->
<!-- Title: di::vocab::StatusCode&lt; T &gt; Pages: 1 -->
<svg width="158pt" height="168pt"
 viewBox="0.00 0.00 158.25 167.75" xmlns="http://www.w3.org/2000/svg" xmlns:xlink="http://www.w3.org/1999/xlink">
<g id="graph0" class="graph" transform="scale(1 1) rotate(0) translate(4 163.75)">
<title>di::vocab::StatusCode&lt; T &gt;</title>
<!-- Node1 -->
<g id="Node000001" class="node">
<title>Node1</title>
<g id="a_Node000001"><a xlink:title=" ">
<polygon fill="#999999" stroke="#666666" points="150.25,-20.75 0,-20.75 0,0 150.25,0 150.25,-20.75"/>
<text text-anchor="middle" x="75.12" y="-7.25" font-family="Helvetica,sans-Serif" font-size="10.00">di::vocab::StatusCode&lt; T &gt;</text>
</a>
</g>
</g>
<!-- Node2 -->
<g id="Node000002" class="node">
<title>Node2</title>
<g id="a_Node000002"><a xlink:href="classdi_1_1vocab_1_1detail_1_1StatusCodeStorage.html" target="_top" xlink:title=" ">
<polygon fill="white" stroke="#666666" points="143.88,-90.25 6.38,-90.25 6.38,-56.75 143.88,-56.75 143.88,-90.25"/>
<text text-anchor="start" x="14.38" y="-76.75" font-family="Helvetica,sans-Serif" font-size="10.00">di::vocab::detail::</text>
<text text-anchor="middle" x="75.12" y="-64" font-family="Helvetica,sans-Serif" font-size="10.00">StatusCodeStorage&lt; T &gt;</text>
</a>
</g>
</g>
<!-- Node2&#45;&gt;Node1 -->
<g id="edge1_Node000001_Node000002" class="edge">
<title>Node2&#45;&gt;Node1</title>
<g id="a_edge1_Node000001_Node000002"><a xlink:title=" ">
<path fill="none" stroke="#63b8ff" d="M75.12,-44.94C75.12,-36.46 75.12,-27.67 75.12,-21.22"/>
<polygon fill="#63b8ff" stroke="#63b8ff" points="71.63,-44.93 75.13,-54.93 78.63,-44.93 71.63,-44.93"/>
</a>
</g>
</g>
<!-- Node3 -->
<g id="Node000003" class="node">
<title>Node3</title>
<g id="a_Node000003"><a xlink:href="classdi_1_1vocab_1_1StatusCode_3_01void_01_4.html" target="_top" xlink:title=" ">
<polygon fill="white" stroke="#666666" points="136,-159.75 14.25,-159.75 14.25,-126.25 136,-126.25 136,-159.75"/>
<text text-anchor="start" x="22.25" y="-146.25" font-family="Helvetica,sans-Serif" font-size="10.00">di::vocab::StatusCode</text>
<text text-anchor="middle" x="75.12" y="-133.5" font-family="Helvetica,sans-Serif" font-size="10.00">&lt; void &gt;</text>
</a>
</g>
</g>
<!-- Node3&#45;&gt;Node2 -->
<g id="edge2_Node000002_Node000003" class="edge">
<title>Node3&#45;&gt;Node2</title>
<g id="a_edge2_Node000002_Node000003"><a xlink:title=" ">
<path fill="none" stroke="#63b8ff" d="M75.12,-114.56C75.12,-106.34 75.12,-97.59 75.12,-90.38"/>
<polygon fill="#63b8ff" stroke="#63b8ff" points="71.63,-114.49 75.13,-124.49 78.63,-114.49 71.63,-114.49"/>
</a>
</g>
</g>
</g>
</svg>
