<?xml version="1.0" encoding="UTF-8" standalone="no"?>
<!DOCTYPE svg PUBLIC "-//W3C//DTD SVG 1.1//EN"
 "http://www.w3.org/Graphics/SVG/1.1/DTD/svg11.dtd">
<!-- Generated by graphviz version 10.0.1 (0)
 -->
<!-- Title: di::vocab::Tuple&lt; Types &gt; Pages: 1 -->
<svg width="334pt" height="106pt"
 viewBox="0.00 0.00 334.00 105.88" xmlns="http://www.w3.org/2000/svg" xmlns:xlink="http://www.w3.org/1999/xlink">
<g id="graph0" class="graph" transform="scale(1 1) rotate(0) translate(4 101.88)">
<title>di::vocab::Tuple&lt; Types &gt;</title>
<!-- Node1 -->
<g id="Node000001" class="node">
<title>Node1</title>
<g id="a_Node000001"><a xlink:title=" ">
<polygon fill="#999999" stroke="#666666" points="326,-56.12 184,-56.12 184,-35.38 326,-35.38 326,-56.12"/>
<text text-anchor="middle" x="255" y="-42.62" font-family="Helvetica,sans-Serif" font-size="10.00">di::vocab::Tuple&lt; Types &gt;</text>
</a>
</g>
</g>
<!-- Node2 -->
<g id="Node000002" class="node">
<title>Node2</title>
<g id="a_Node000002"><a xlink:href="classdi_1_1vocab_1_1TupleImpl.html" target="_top" xlink:title=" ">
<polygon fill="white" stroke="#666666" points="148,-97.88 0,-97.88 0,-51.62 148,-51.62 148,-97.88"/>
<text text-anchor="start" x="8" y="-84.38" font-family="Helvetica,sans-Serif" font-size="10.00">di::vocab::TupleImpl</text>
<text text-anchor="start" x="8" y="-71.62" font-family="Helvetica,sans-Serif" font-size="10.00">&lt; meta::IndexSequenceFor</text>
<text text-anchor="middle" x="74" y="-58.88" font-family="Helvetica,sans-Serif" font-size="10.00">&lt; Types... &gt;, Types... &gt;</text>
</a>
</g>
</g>
<!-- Node2&#45;&gt;Node1 -->
<g id="edge1_Node000001_Node000002" class="edge">
<title>Node2&#45;&gt;Node1</title>
<g id="a_edge1_Node000001_Node000002"><a xlink:title=" ">
<path fill="none" stroke="#63b8ff" d="M159.55,-61.05C168.8,-59.55 178.12,-58.04 187.12,-56.59"/>
<polygon fill="#63b8ff" stroke="#63b8ff" points="159.13,-57.57 149.82,-62.63 160.25,-64.48 159.13,-57.57"/>
</a>
</g>
</g>
<!-- Node3 -->
<g id="Node000003" class="node">
<title>Node3</title>
<g id="a_Node000003"><a xlink:href="structdi_1_1util_1_1AddMemberGet.html" target="_top" xlink:title=" ">
<polygon fill="white" stroke="#666666" points="138.62,-33.5 9.38,-33.5 9.38,0 138.62,0 138.62,-33.5"/>
<text text-anchor="start" x="17.38" y="-20" font-family="Helvetica,sans-Serif" font-size="10.00">di::util::AddMemberGet</text>
<text text-anchor="middle" x="74" y="-7.25" font-family="Helvetica,sans-Serif" font-size="10.00">&lt; Tuple&lt; Types... &gt; &gt;</text>
</a>
</g>
</g>
<!-- Node3&#45;&gt;Node1 -->
<g id="edge2_Node000001_Node000003" class="edge">
<title>Node3&#45;&gt;Node1</title>
<g id="a_edge2_Node000001_Node000003"><a xlink:title=" ">
<path fill="none" stroke="#63b8ff" d="M150.21,-28.93C162.42,-30.91 175,-32.95 187.01,-34.9"/>
<polygon fill="#63b8ff" stroke="#63b8ff" points="151.04,-25.52 140.61,-27.38 149.92,-32.43 151.04,-25.52"/>
</a>
</g>
</g>
</g>
</svg>
