<?xml version="1.0" encoding="UTF-8" standalone="no"?>
<!DOCTYPE svg PUBLIC "-//W3C//DTD SVG 1.1//EN"
 "http://www.w3.org/Graphics/SVG/1.1/DTD/svg11.dtd">
<!-- Generated by graphviz version 10.0.1 (0)
 -->
<!-- Title: di::vocab::Optional&lt; T &gt; Pages: 1 -->
<svg width="352pt" height="533pt"
 viewBox="0.00 0.00 352.00 532.50" xmlns="http://www.w3.org/2000/svg" xmlns:xlink="http://www.w3.org/1999/xlink">
<g id="graph0" class="graph" transform="scale(1 1) rotate(0) translate(4 528.5)">
<title>di::vocab::Optional&lt; T &gt;</title>
<!-- Node1 -->
<g id="Node000001" class="node">
<title>Node1</title>
<g id="a_Node000001"><a xlink:title=" ">
<polygon fill="#999999" stroke="#666666" points="136,-279.12 0,-279.12 0,-258.38 136,-258.38 136,-279.12"/>
<text text-anchor="middle" x="68" y="-265.62" font-family="Helvetica,sans-Serif" font-size="10.00">di::vocab::Optional&lt; T &gt;</text>
</a>
</g>
</g>
<!-- Node2 -->
<g id="Node000002" class="node">
<title>Node2</title>
<g id="a_Node000002"><a xlink:href="classdi_1_1util_1_1NonPropagatingCache.html" target="_top" xlink:title=" ">
<polygon fill="white" stroke="#666666" points="323.38,-524.5 192.62,-524.5 192.62,-491 323.38,-491 323.38,-524.5"/>
<text text-anchor="start" x="200.62" y="-511" font-family="Helvetica,sans-Serif" font-size="10.00">di::util::NonPropagating</text>
<text text-anchor="middle" x="258" y="-498.25" font-family="Helvetica,sans-Serif" font-size="10.00">Cache&lt; Cache &gt;</text>
</a>
</g>
</g>
<!-- Node1&#45;&gt;Node2 -->
<g id="edge1_Node000001_Node000002" class="edge">
<title>Node1&#45;&gt;Node2</title>
<g id="a_edge1_Node000001_Node000002"><a xlink:title=" ">
<path fill="none" stroke="#63b8ff" d="M73.43,-290.54C83.32,-333.55 111.26,-429.68 172,-481.75 177.98,-486.87 184.94,-490.98 192.27,-494.29"/>
<polygon fill="#63b8ff" stroke="#63b8ff" points="76.89,-289.95 71.34,-280.93 70.05,-291.44 76.89,-289.95"/>
</a>
</g>
</g>
<!-- Node3 -->
<g id="Node000003" class="node">
<title>Node3</title>
<g id="a_Node000003"><a xlink:href="classdi_1_1util_1_1NonPropagatingCache.html" target="_top" xlink:title=" ">
<polygon fill="white" stroke="#666666" points="323.38,-472.5 192.62,-472.5 192.62,-439 323.38,-439 323.38,-472.5"/>
<text text-anchor="start" x="200.62" y="-459" font-family="Helvetica,sans-Serif" font-size="10.00">di::util::NonPropagating</text>
<text text-anchor="middle" x="258" y="-446.25" font-family="Helvetica,sans-Serif" font-size="10.00">Cache&lt; Iterator &gt;</text>
</a>
</g>
</g>
<!-- Node1&#45;&gt;Node3 -->
<g id="edge2_Node000001_Node000003" class="edge">
<title>Node1&#45;&gt;Node3</title>
<g id="a_edge2_Node000001_Node000003"><a xlink:title=" ">
<path fill="none" stroke="#63b8ff" d="M76.87,-289.92C90.75,-324.37 122.85,-392.44 172,-429.75 178.15,-434.41 185.13,-438.25 192.4,-441.4"/>
<polygon fill="#63b8ff" stroke="#63b8ff" points="80.3,-289.08 73.41,-281.03 73.78,-291.62 80.3,-289.08"/>
</a>
</g>
</g>
<!-- Node4 -->
<g id="Node000004" class="node">
<title>Node4</title>
<g id="a_Node000004"><a xlink:href="classdi_1_1util_1_1NonPropagatingCache.html" target="_top" xlink:title=" ">
<polygon fill="white" stroke="#666666" points="323.38,-420.5 192.62,-420.5 192.62,-387 323.38,-387 323.38,-420.5"/>
<text text-anchor="start" x="200.62" y="-407" font-family="Helvetica,sans-Serif" font-size="10.00">di::util::NonPropagating</text>
<text text-anchor="middle" x="258" y="-394.25" font-family="Helvetica,sans-Serif" font-size="10.00">Cache&lt; Iter &gt;</text>
</a>
</g>
</g>
<!-- Node1&#45;&gt;Node4 -->
<g id="edge3_Node000001_Node000004" class="edge">
<title>Node1&#45;&gt;Node4</title>
<g id="a_edge3_Node000001_Node000004"><a xlink:title=" ">
<path fill="none" stroke="#63b8ff" d="M82.53,-288.77C100.26,-313.48 133.63,-355.11 172,-378.75 178.29,-382.62 185.2,-385.92 192.29,-388.73"/>
<polygon fill="#63b8ff" stroke="#63b8ff" points="85.6,-287.04 76.99,-280.85 79.86,-291.05 85.6,-287.04"/>
</a>
</g>
</g>
<!-- Node5 -->
<g id="Node000005" class="node">
<title>Node5</title>
<g id="a_Node000005"><a xlink:href="classdi_1_1util_1_1NonPropagatingCache.html" target="_top" xlink:title=" ">
<polygon fill="white" stroke="#666666" points="342.12,-369.25 173.88,-369.25 173.88,-310.25 342.12,-310.25 342.12,-369.25"/>
<text text-anchor="start" x="181.88" y="-355.75" font-family="Helvetica,sans-Serif" font-size="10.00">di::util::NonPropagating</text>
<text text-anchor="start" x="181.88" y="-343" font-family="Helvetica,sans-Serif" font-size="10.00">Cache&lt; di::container::</text>
<text text-anchor="start" x="181.88" y="-330.25" font-family="Helvetica,sans-Serif" font-size="10.00">ReverseIterator&lt; meta::</text>
<text text-anchor="middle" x="258" y="-317.5" font-family="Helvetica,sans-Serif" font-size="10.00">ContainerIterator&lt; View &gt; &gt; &gt;</text>
</a>
</g>
</g>
<!-- Node1&#45;&gt;Node5 -->
<g id="edge4_Node000001_Node000005" class="edge">
<title>Node1&#45;&gt;Node5</title>
<g id="a_edge4_Node000001_Node000005"><a xlink:title=" ">
<path fill="none" stroke="#63b8ff" d="M108.18,-283.55C128.35,-291.16 153.69,-300.73 177.71,-309.81"/>
<polygon fill="#63b8ff" stroke="#63b8ff" points="109.56,-280.33 98.97,-280.07 107.09,-286.88 109.56,-280.33"/>
</a>
</g>
</g>
<!-- Node6 -->
<g id="Node000006" class="node">
<title>Node6</title>
<g id="a_Node000006"><a xlink:href="classdi_1_1util_1_1NonPropagatingCache.html" target="_top" xlink:title=" ">
<polygon fill="white" stroke="#666666" points="344,-291.88 172,-291.88 172,-245.62 344,-245.62 344,-291.88"/>
<text text-anchor="start" x="180" y="-278.38" font-family="Helvetica,sans-Serif" font-size="10.00">di::util::NonPropagating</text>
<text text-anchor="start" x="180" y="-265.62" font-family="Helvetica,sans-Serif" font-size="10.00">Cache&lt; meta::ContainerIterator</text>
<text text-anchor="middle" x="258" y="-252.88" font-family="Helvetica,sans-Serif" font-size="10.00">&lt; View &gt; &gt;</text>
</a>
</g>
</g>
<!-- Node1&#45;&gt;Node6 -->
<g id="edge5_Node000001_Node000006" class="edge">
<title>Node1&#45;&gt;Node6</title>
<g id="a_edge5_Node000001_Node000006"><a xlink:title=" ">
<path fill="none" stroke="#63b8ff" d="M147.81,-268.75C155.72,-268.75 163.79,-268.75 171.76,-268.75"/>
<polygon fill="#63b8ff" stroke="#63b8ff" points="147.85,-265.25 137.85,-268.75 147.85,-272.25 147.85,-265.25"/>
</a>
</g>
</g>
<!-- Node7 -->
<g id="Node000007" class="node">
<title>Node7</title>
<g id="a_Node000007"><a xlink:href="classdi_1_1util_1_1NonPropagatingCache.html" target="_top" xlink:title=" ">
<polygon fill="white" stroke="#666666" points="337.62,-227.25 178.38,-227.25 178.38,-168.25 337.62,-168.25 337.62,-227.25"/>
<text text-anchor="start" x="186.38" y="-213.75" font-family="Helvetica,sans-Serif" font-size="10.00">di::util::NonPropagating</text>
<text text-anchor="start" x="186.38" y="-201" font-family="Helvetica,sans-Serif" font-size="10.00">Cache&lt; meta::RemoveCVRef</text>
<text text-anchor="start" x="186.38" y="-188.25" font-family="Helvetica,sans-Serif" font-size="10.00">&lt; meta::ContainerReference</text>
<text text-anchor="middle" x="258" y="-175.5" font-family="Helvetica,sans-Serif" font-size="10.00">&lt; View &gt; &gt; &gt;</text>
</a>
</g>
</g>
<!-- Node1&#45;&gt;Node7 -->
<g id="edge6_Node000001_Node000007" class="edge">
<title>Node1&#45;&gt;Node7</title>
<g id="a_edge6_Node000001_Node000007"><a xlink:title=" ">
<path fill="none" stroke="#63b8ff" d="M108.24,-253.93C128.51,-246.28 154,-236.65 178.12,-227.54"/>
<polygon fill="#63b8ff" stroke="#63b8ff" points="107.09,-250.62 98.97,-257.43 109.56,-257.17 107.09,-250.62"/>
</a>
</g>
</g>
<!-- Node8 -->
<g id="Node000008" class="node">
<title>Node8</title>
<g id="a_Node000008"><a xlink:href="classdi_1_1util_1_1NonPropagatingCache.html" target="_top" xlink:title=" ">
<polygon fill="white" stroke="#666666" points="337.62,-149.88 178.38,-149.88 178.38,-103.62 337.62,-103.62 337.62,-149.88"/>
<text text-anchor="start" x="186.38" y="-136.38" font-family="Helvetica,sans-Serif" font-size="10.00">di::util::NonPropagating</text>
<text text-anchor="start" x="186.38" y="-123.62" font-family="Helvetica,sans-Serif" font-size="10.00">Cache&lt; meta::RemoveCVRef</text>
<text text-anchor="middle" x="258" y="-110.88" font-family="Helvetica,sans-Serif" font-size="10.00">&lt; InnerContainer &gt; &gt;</text>
</a>
</g>
</g>
<!-- Node1&#45;&gt;Node8 -->
<g id="edge7_Node000001_Node000008" class="edge">
<title>Node1&#45;&gt;Node8</title>
<g id="a_edge7_Node000001_Node000008"><a xlink:title=" ">
<path fill="none" stroke="#63b8ff" d="M83.43,-248.74C101.66,-224.71 135.14,-184.54 172,-159.75 177.12,-156.3 182.66,-153.14 188.36,-150.26"/>
<polygon fill="#63b8ff" stroke="#63b8ff" points="80.63,-246.63 77.48,-256.74 86.25,-250.8 80.63,-246.63"/>
</a>
</g>
</g>
<!-- Node9 -->
<g id="Node000009" class="node">
<title>Node9</title>
<g id="a_Node000009"><a xlink:href="classdi_1_1util_1_1NonPropagatingCache.html" target="_top" xlink:title=" ">
<polygon fill="white" stroke="#666666" points="333.5,-85.5 182.5,-85.5 182.5,-52 333.5,-52 333.5,-85.5"/>
<text text-anchor="start" x="190.5" y="-72" font-family="Helvetica,sans-Serif" font-size="10.00">di::util::NonPropagating</text>
<text text-anchor="middle" x="258" y="-59.25" font-family="Helvetica,sans-Serif" font-size="10.00">Cache&lt; Iterator&lt; false &gt; &gt;</text>
</a>
</g>
</g>
<!-- Node1&#45;&gt;Node9 -->
<g id="edge8_Node000001_Node000009" class="edge">
<title>Node1&#45;&gt;Node9</title>
<g id="a_edge8_Node000001_Node000009"><a xlink:title=" ">
<path fill="none" stroke="#63b8ff" d="M75.84,-247.42C88.7,-210.74 119.97,-135.68 172,-94.75 176.24,-91.41 180.92,-88.5 185.82,-85.96"/>
<polygon fill="#63b8ff" stroke="#63b8ff" points="72.67,-245.87 72.79,-256.46 79.31,-248.1 72.67,-245.87"/>
</a>
</g>
</g>
<!-- Node10 -->
<g id="Node000010" class="node">
<title>Node10</title>
<g id="a_Node000010"><a xlink:href="classdi_1_1util_1_1NonPropagatingCache.html" target="_top" xlink:title=" ">
<polygon fill="white" stroke="#666666" points="323.38,-33.5 192.62,-33.5 192.62,0 323.38,0 323.38,-33.5"/>
<text text-anchor="start" x="200.62" y="-20" font-family="Helvetica,sans-Serif" font-size="10.00">di::util::NonPropagating</text>
<text text-anchor="middle" x="258" y="-7.25" font-family="Helvetica,sans-Serif" font-size="10.00">Cache&lt; T &gt;</text>
</a>
</g>
</g>
<!-- Node1&#45;&gt;Node10 -->
<g id="edge9_Node000001_Node000010" class="edge">
<title>Node1&#45;&gt;Node10</title>
<g id="a_edge9_Node000001_Node000010"><a xlink:title=" ">
<path fill="none" stroke="#63b8ff" d="M72.78,-246.87C81.7,-201.9 108.29,-98.63 172,-42.75 177.92,-37.56 184.85,-33.41 192.16,-30.08"/>
<polygon fill="#63b8ff" stroke="#63b8ff" points="69.39,-245.96 70.99,-256.43 76.27,-247.24 69.39,-245.96"/>
</a>
</g>
</g>
</g>
</svg>
