<?xml version="1.0" encoding="UTF-8" standalone="no"?>
<!DOCTYPE svg PUBLIC "-//W3C//DTD SVG 1.1//EN"
 "http://www.w3.org/Graphics/SVG/1.1/DTD/svg11.dtd">
<!-- Generated by graphviz version 10.0.1 (0)
 -->
<!-- Title: di::container::CacheLastView&lt; Con &gt; Pages: 1 -->
<svg width="162pt" height="181pt"
 viewBox="0.00 0.00 162.00 180.50" xmlns="http://www.w3.org/2000/svg" xmlns:xlink="http://www.w3.org/1999/xlink">
<g id="graph0" class="graph" transform="scale(1 1) rotate(0) translate(4 176.5)">
<title>di::container::CacheLastView&lt; Con &gt;</title>
<!-- Node1 -->
<g id="Node000001" class="node">
<title>Node1</title>
<g id="a_Node000001"><a xlink:title=" ">
<polygon fill="#999999" stroke="#666666" points="143.5,-33.5 10.5,-33.5 10.5,0 143.5,0 143.5,-33.5"/>
<text text-anchor="start" x="18.5" y="-20" font-family="Helvetica,sans-Serif" font-size="10.00">di::container::CacheLast</text>
<text text-anchor="middle" x="77" y="-7.25" font-family="Helvetica,sans-Serif" font-size="10.00">View&lt; Con &gt;</text>
</a>
</g>
</g>
<!-- Node2 -->
<g id="Node000002" class="node">
<title>Node2</title>
<g id="a_Node000002"><a xlink:href="classdi_1_1container_1_1ViewInterface.html" target="_top" xlink:title=" ">
<polygon fill="white" stroke="#666666" points="154,-103 0,-103 0,-69.5 154,-69.5 154,-103"/>
<text text-anchor="start" x="8" y="-89.5" font-family="Helvetica,sans-Serif" font-size="10.00">di::container::ViewInterface</text>
<text text-anchor="middle" x="77" y="-76.75" font-family="Helvetica,sans-Serif" font-size="10.00">&lt; CacheLastView&lt; Con &gt; &gt;</text>
</a>
</g>
</g>
<!-- Node2&#45;&gt;Node1 -->
<g id="edge1_Node000001_Node000002" class="edge">
<title>Node2&#45;&gt;Node1</title>
<g id="a_edge1_Node000001_Node000002"><a xlink:title=" ">
<path fill="none" stroke="#63b8ff" d="M77,-57.81C77,-49.59 77,-40.84 77,-33.63"/>
<polygon fill="#63b8ff" stroke="#63b8ff" points="73.5,-57.74 77,-67.74 80.5,-57.74 73.5,-57.74"/>
</a>
</g>
</g>
<!-- Node3 -->
<g id="Node000003" class="node">
<title>Node3</title>
<g id="a_Node000003"><a xlink:href="classdi_1_1meta_1_1EnableView.html" target="_top" xlink:title=" ">
<polygon fill="white" stroke="#666666" points="143.88,-172.5 10.12,-172.5 10.12,-139 143.88,-139 143.88,-172.5"/>
<text text-anchor="start" x="18.12" y="-159" font-family="Helvetica,sans-Serif" font-size="10.00">di::meta::EnableView</text>
<text text-anchor="middle" x="77" y="-146.25" font-family="Helvetica,sans-Serif" font-size="10.00">&lt; Self, should_enable &gt;</text>
</a>
</g>
</g>
<!-- Node3&#45;&gt;Node2 -->
<g id="edge2_Node000002_Node000003" class="edge">
<title>Node3&#45;&gt;Node2</title>
<g id="a_edge2_Node000002_Node000003"><a xlink:title=" ">
<path fill="none" stroke="#63b8ff" d="M77,-127.31C77,-119.09 77,-110.34 77,-103.13"/>
<polygon fill="#63b8ff" stroke="#63b8ff" points="73.5,-127.24 77,-137.24 80.5,-127.24 73.5,-127.24"/>
</a>
</g>
</g>
</g>
</svg>
