<?xml version="1.0" encoding="UTF-8" standalone="no"?>
<!DOCTYPE svg PUBLIC "-//W3C//DTD SVG 1.1//EN"
 "http://www.w3.org/Graphics/SVG/1.1/DTD/svg11.dtd">
<!-- Generated by graphviz version 10.0.1 (0)
 -->
<!-- Title: di::container::ViewInterface&lt; Self &gt; Pages: 1 -->
<svg width="505pt" height="198pt"
 viewBox="0.00 0.00 505.25 197.50" xmlns="http://www.w3.org/2000/svg" xmlns:xlink="http://www.w3.org/1999/xlink">
<g id="graph0" class="graph" transform="scale(1 1) rotate(0) translate(4 193.5)">
<title>di::container::ViewInterface&lt; Self &gt;</title>
<!-- Node1 -->
<g id="Node000001" class="node">
<title>Node1</title>
<g id="a_Node000001"><a xlink:title=" ">
<polygon fill="#999999" stroke="#666666" points="320,-111.5 169.75,-111.5 169.75,-78 320,-78 320,-111.5"/>
<text text-anchor="start" x="177.75" y="-98" font-family="Helvetica,sans-Serif" font-size="10.00">di::container::ViewInterface</text>
<text text-anchor="middle" x="244.88" y="-85.25" font-family="Helvetica,sans-Serif" font-size="10.00">&lt; Self &gt;</text>
</a>
</g>
</g>
<!-- Node3 -->
<g id="Node000003" class="node">
<title>Node3</title>
<g id="a_Node000003"><a xlink:href="classdi_1_1container_1_1IotaView.html" target="_top" xlink:title=" ">
<polygon fill="white" stroke="#666666" points="489.38,-189.5 363.88,-189.5 363.88,-156 489.38,-156 489.38,-189.5"/>
<text text-anchor="start" x="371.88" y="-176" font-family="Helvetica,sans-Serif" font-size="10.00">di::container::IotaView</text>
<text text-anchor="middle" x="426.62" y="-163.25" font-family="Helvetica,sans-Serif" font-size="10.00">&lt; T, Bound &gt;</text>
</a>
</g>
</g>
<!-- Node1&#45;&gt;Node3 -->
<g id="edge2_Node000001_Node000003" class="edge">
<title>Node1&#45;&gt;Node3</title>
<g id="a_edge2_Node000001_Node000003"><a xlink:title=" ">
<path fill="none" stroke="#63b8ff" d="M290.56,-116.89C310.42,-126.46 334.2,-137.55 356,-146.75 363.01,-149.71 370.49,-152.69 377.85,-155.51"/>
<polygon fill="#63b8ff" stroke="#63b8ff" points="292.15,-113.77 281.62,-112.56 289.09,-120.07 292.15,-113.77"/>
</a>
</g>
</g>
<!-- Node4 -->
<g id="Node000004" class="node">
<title>Node4</title>
<g id="a_Node000004"><a xlink:href="classdi_1_1container_1_1RepeatView.html" target="_top" xlink:title=" ">
<polygon fill="white" stroke="#666666" points="497.25,-137.5 356,-137.5 356,-104 497.25,-104 497.25,-137.5"/>
<text text-anchor="start" x="364" y="-124" font-family="Helvetica,sans-Serif" font-size="10.00">di::container::RepeatView</text>
<text text-anchor="middle" x="426.62" y="-111.25" font-family="Helvetica,sans-Serif" font-size="10.00">&lt; T, Bound &gt;</text>
</a>
</g>
</g>
<!-- Node1&#45;&gt;Node4 -->
<g id="edge3_Node000001_Node000004" class="edge">
<title>Node1&#45;&gt;Node4</title>
<g id="a_edge3_Node000001_Node000004"><a xlink:title=" ">
<path fill="none" stroke="#63b8ff" d="M331.6,-107.15C339.64,-108.31 347.73,-109.48 355.6,-110.62"/>
<polygon fill="#63b8ff" stroke="#63b8ff" points="332.18,-103.7 321.78,-105.73 331.18,-110.63 332.18,-103.7"/>
</a>
</g>
</g>
<!-- Node5 -->
<g id="Node000005" class="node">
<title>Node5</title>
<g id="a_Node000005"><a xlink:href="classdi_1_1container_1_1View.html" target="_top" xlink:title=" ">
<polygon fill="white" stroke="#666666" points="490.5,-85.5 362.75,-85.5 362.75,-52 490.5,-52 490.5,-85.5"/>
<text text-anchor="start" x="370.75" y="-72" font-family="Helvetica,sans-Serif" font-size="10.00">di::container::View</text>
<text text-anchor="middle" x="426.62" y="-59.25" font-family="Helvetica,sans-Serif" font-size="10.00">&lt; Iter, Sent, is_sized &gt;</text>
</a>
</g>
</g>
<!-- Node1&#45;&gt;Node5 -->
<g id="edge4_Node000001_Node000005" class="edge">
<title>Node1&#45;&gt;Node5</title>
<g id="a_edge4_Node000001_Node000005"><a xlink:title=" ">
<path fill="none" stroke="#63b8ff" d="M331.53,-82.36C341.94,-80.85 352.43,-79.34 362.43,-77.89"/>
<polygon fill="#63b8ff" stroke="#63b8ff" points="331.18,-78.87 321.78,-83.77 332.18,-85.8 331.18,-78.87"/>
</a>
</g>
</g>
<!-- Node6 -->
<g id="Node000006" class="node">
<title>Node6</title>
<g id="a_Node000006"><a xlink:href="classdi_1_1function_1_1Generator.html" target="_top" xlink:title=" ">
<polygon fill="white" stroke="#666666" points="489.38,-33.5 363.88,-33.5 363.88,0 489.38,0 489.38,-33.5"/>
<text text-anchor="start" x="371.88" y="-20" font-family="Helvetica,sans-Serif" font-size="10.00">di::function::Generator</text>
<text text-anchor="middle" x="426.62" y="-7.25" font-family="Helvetica,sans-Serif" font-size="10.00">&lt; Ref, Value &gt;</text>
</a>
</g>
</g>
<!-- Node1&#45;&gt;Node6 -->
<g id="edge5_Node000001_Node000006" class="edge">
<title>Node1&#45;&gt;Node6</title>
<g id="a_edge5_Node000001_Node000006"><a xlink:title=" ">
<path fill="none" stroke="#63b8ff" d="M290.56,-72.61C310.42,-63.04 334.2,-51.95 356,-42.75 363.01,-39.79 370.49,-36.81 377.85,-33.99"/>
<polygon fill="#63b8ff" stroke="#63b8ff" points="289.09,-69.43 281.62,-76.94 292.15,-75.73 289.09,-69.43"/>
</a>
</g>
</g>
<!-- Node2 -->
<g id="Node000002" class="node">
<title>Node2</title>
<g id="a_Node000002"><a xlink:href="classdi_1_1meta_1_1EnableView.html" target="_top" xlink:title=" ">
<polygon fill="white" stroke="#666666" points="133.75,-111.5 0,-111.5 0,-78 133.75,-78 133.75,-111.5"/>
<text text-anchor="start" x="8" y="-98" font-family="Helvetica,sans-Serif" font-size="10.00">di::meta::EnableView</text>
<text text-anchor="middle" x="66.88" y="-85.25" font-family="Helvetica,sans-Serif" font-size="10.00">&lt; Self, should_enable &gt;</text>
</a>
</g>
</g>
<!-- Node2&#45;&gt;Node1 -->
<g id="edge1_Node000001_Node000002" class="edge">
<title>Node2&#45;&gt;Node1</title>
<g id="a_edge1_Node000001_Node000002"><a xlink:title=" ">
<path fill="none" stroke="#63b8ff" d="M145.62,-94.75C153.52,-94.75 161.53,-94.75 169.39,-94.75"/>
<polygon fill="#63b8ff" stroke="#63b8ff" points="145.68,-91.25 135.68,-94.75 145.68,-98.25 145.68,-91.25"/>
</a>
</g>
</g>
</g>
</svg>
