<?xml version="1.0" encoding="UTF-8" standalone="no"?>
<!DOCTYPE svg PUBLIC "-//W3C//DTD SVG 1.1//EN"
 "http://www.w3.org/Graphics/SVG/1.1/DTD/svg11.dtd">
<!-- Generated by graphviz version 10.0.1 (0)
 -->
<!-- Title: di::parser::detail::SequenceParser&lt; Parsers &gt; Pages: 1 -->
<svg width="384pt" height="94pt"
 viewBox="0.00 0.00 383.50 93.50" xmlns="http://www.w3.org/2000/svg" xmlns:xlink="http://www.w3.org/1999/xlink">
<g id="graph0" class="graph" transform="scale(1 1) rotate(0) translate(4 89.5)">
<title>di::parser::detail::SequenceParser&lt; Parsers &gt;</title>
<!-- Node1 -->
<g id="Node000001" class="node">
<title>Node1</title>
<g id="a_Node000001"><a xlink:title=" ">
<polygon fill="#999999" stroke="#666666" points="375.5,-59.5 218.5,-59.5 218.5,-26 375.5,-26 375.5,-59.5"/>
<text text-anchor="start" x="226.5" y="-46" font-family="Helvetica,sans-Serif" font-size="10.00">di::parser::detail</text>
<text text-anchor="middle" x="297" y="-33.25" font-family="Helvetica,sans-Serif" font-size="10.00">::SequenceParser&lt; Parsers &gt;</text>
</a>
</g>
</g>
<!-- Node2 -->
<g id="Node000002" class="node">
<title>Node2</title>
<g id="a_Node000002"><a xlink:href="classdi_1_1parser_1_1ParserBase.html" target="_top" xlink:title=" ">
<polygon fill="white" stroke="#666666" points="182.5,-85.5 0,-85.5 0,-52 182.5,-52 182.5,-85.5"/>
<text text-anchor="start" x="8" y="-72" font-family="Helvetica,sans-Serif" font-size="10.00">di::parser::ParserBase</text>
<text text-anchor="middle" x="91.25" y="-59.25" font-family="Helvetica,sans-Serif" font-size="10.00">&lt; SequenceParser&lt; Parsers... &gt; &gt;</text>
</a>
</g>
</g>
<!-- Node2&#45;&gt;Node1 -->
<g id="edge1_Node000001_Node000002" class="edge">
<title>Node2&#45;&gt;Node1</title>
<g id="a_edge1_Node000001_Node000002"><a xlink:title=" ">
<path fill="none" stroke="#63b8ff" d="M194.18,-55.74C202.25,-54.71 210.31,-53.68 218.17,-52.68"/>
<polygon fill="#63b8ff" stroke="#63b8ff" points="193.78,-52.27 184.31,-57 194.67,-59.21 193.78,-52.27"/>
</a>
</g>
</g>
<!-- Node3 -->
<g id="Node000003" class="node">
<title>Node3</title>
<g id="a_Node000003"><a xlink:href="structdi_1_1parser_1_1detail_1_1SequenceParserMarker.html" target="_top" xlink:title=" ">
<polygon fill="white" stroke="#666666" points="157.75,-33.5 24.75,-33.5 24.75,0 157.75,0 157.75,-33.5"/>
<text text-anchor="start" x="32.75" y="-20" font-family="Helvetica,sans-Serif" font-size="10.00">di::parser::detail</text>
<text text-anchor="middle" x="91.25" y="-7.25" font-family="Helvetica,sans-Serif" font-size="10.00">::SequenceParserMarker</text>
</a>
</g>
</g>
<!-- Node3&#45;&gt;Node1 -->
<g id="edge2_Node000001_Node000003" class="edge">
<title>Node3&#45;&gt;Node1</title>
<g id="a_edge2_Node000001_Node000003"><a xlink:title=" ">
<path fill="none" stroke="#63b8ff" d="M169.1,-26.56C185.19,-28.61 202.16,-30.78 218.28,-32.83"/>
<polygon fill="#63b8ff" stroke="#63b8ff" points="169.98,-23.14 159.62,-25.35 169.1,-30.08 169.98,-23.14"/>
</a>
</g>
</g>
</g>
</svg>
