<?xml version="1.0" encoding="UTF-8" standalone="no"?>
<!DOCTYPE svg PUBLIC "-//W3C//DTD SVG 1.1//EN"
 "http://www.w3.org/Graphics/SVG/1.1/DTD/svg11.dtd">
<!-- Generated by graphviz version 10.0.1 (0)
 -->
<!-- Title: dius::filesystem::DirectoryIterator Pages: 1 -->
<svg width="413pt" height="170pt"
 viewBox="0.00 0.00 412.75 170.25" xmlns="http://www.w3.org/2000/svg" xmlns:xlink="http://www.w3.org/1999/xlink">
<g id="graph0" class="graph" transform="scale(1 1) rotate(0) translate(4 166.25)">
<title>dius::filesystem::DirectoryIterator</title>
<!-- Node1 -->
<g id="Node000001" class="node">
<title>Node1</title>
<g id="a_Node000001"><a xlink:title=" ">
<polygon fill="#999999" stroke="#666666" points="404.75,-85.5 260.5,-85.5 260.5,-52 404.75,-52 404.75,-85.5"/>
<text text-anchor="start" x="268.5" y="-72" font-family="Helvetica,sans-Serif" font-size="10.00">dius::filesystem::Directory</text>
<text text-anchor="middle" x="332.62" y="-59.25" font-family="Helvetica,sans-Serif" font-size="10.00">Iterator</text>
</a>
</g>
</g>
<!-- Node2 -->
<g id="Node000002" class="node">
<title>Node2</title>
<g id="a_Node000002"><a xlink:href="structdi_1_1container_1_1IteratorBase.html" target="_top" xlink:title=" ">
<polygon fill="white" stroke="#666666" points="224.5,-162.25 0,-162.25 0,-103.25 224.5,-103.25 224.5,-162.25"/>
<text text-anchor="start" x="8" y="-148.75" font-family="Helvetica,sans-Serif" font-size="10.00">di::container::IteratorBase</text>
<text text-anchor="start" x="8" y="-136" font-family="Helvetica,sans-Serif" font-size="10.00">&lt; DirectoryIterator, di</text>
<text text-anchor="start" x="8" y="-123.25" font-family="Helvetica,sans-Serif" font-size="10.00">::InputIteratorTag, di::Expected</text>
<text text-anchor="middle" x="112.25" y="-110.5" font-family="Helvetica,sans-Serif" font-size="10.00">&lt; DirectoryEntry, di::GenericCode &gt;, i64 &gt;</text>
</a>
</g>
</g>
<!-- Node2&#45;&gt;Node1 -->
<g id="edge1_Node000001_Node000002" class="edge">
<title>Node2&#45;&gt;Node1</title>
<g id="a_edge1_Node000001_Node000002"><a xlink:title=" ">
<path fill="none" stroke="#63b8ff" d="M226.07,-99.69C242.3,-94.93 258.42,-90.2 273,-85.93"/>
<polygon fill="#63b8ff" stroke="#63b8ff" points="225.47,-96.21 216.86,-102.39 227.44,-102.93 225.47,-96.21"/>
</a>
</g>
</g>
<!-- Node3 -->
<g id="Node000003" class="node">
<title>Node3</title>
<g id="a_Node000003"><a xlink:href="classdi_1_1meta_1_1EnableBorrowedContainer.html" target="_top" xlink:title=" ">
<polygon fill="white" stroke="#666666" points="195.62,-85.5 28.88,-85.5 28.88,-52 195.62,-52 195.62,-85.5"/>
<text text-anchor="start" x="36.88" y="-72" font-family="Helvetica,sans-Serif" font-size="10.00">di::meta::EnableBorrowed</text>
<text text-anchor="middle" x="112.25" y="-59.25" font-family="Helvetica,sans-Serif" font-size="10.00">Container&lt; DirectoryIterator &gt;</text>
</a>
</g>
</g>
<!-- Node3&#45;&gt;Node1 -->
<g id="edge2_Node000001_Node000003" class="edge">
<title>Node3&#45;&gt;Node1</title>
<g id="a_edge2_Node000001_Node000003"><a xlink:title=" ">
<path fill="none" stroke="#63b8ff" d="M207.62,-68.75C225.26,-68.75 243.43,-68.75 260.23,-68.75"/>
<polygon fill="#63b8ff" stroke="#63b8ff" points="207.63,-65.25 197.63,-68.75 207.63,-72.25 207.63,-65.25"/>
</a>
</g>
</g>
<!-- Node4 -->
<g id="Node000004" class="node">
<title>Node4</title>
<g id="a_Node000004"><a xlink:href="classdi_1_1meta_1_1EnableView.html" target="_top" xlink:title=" ">
<polygon fill="white" stroke="#666666" points="172,-33.5 52.5,-33.5 52.5,0 172,0 172,-33.5"/>
<text text-anchor="start" x="60.5" y="-20" font-family="Helvetica,sans-Serif" font-size="10.00">di::meta::EnableView</text>
<text text-anchor="middle" x="112.25" y="-7.25" font-family="Helvetica,sans-Serif" font-size="10.00">&lt; DirectoryIterator &gt;</text>
</a>
</g>
</g>
<!-- Node4&#45;&gt;Node1 -->
<g id="edge3_Node000001_Node000004" class="edge">
<title>Node4&#45;&gt;Node1</title>
<g id="a_edge3_Node000001_Node000004"><a xlink:title=" ">
<path fill="none" stroke="#63b8ff" d="M183.27,-33.02C196.95,-36.22 211.18,-39.58 224.5,-42.75 236.32,-45.57 248.87,-48.58 261.06,-51.53"/>
<polygon fill="#63b8ff" stroke="#63b8ff" points="184.46,-29.7 173.93,-30.83 182.86,-36.52 184.46,-29.7"/>
</a>
</g>
</g>
</g>
</svg>
