<?xml version="1.0" encoding="UTF-8" standalone="no"?>
<!DOCTYPE svg PUBLIC "-//W3C//DTD SVG 1.1//EN"
 "http://www.w3.org/Graphics/SVG/1.1/DTD/svg11.dtd">
<!-- Generated by graphviz version 10.0.1 (0)
 -->
<!-- Title: di::container::SingleView&lt; T &gt; Pages: 1 -->
<svg width="173pt" height="168pt"
 viewBox="0.00 0.00 173.25 167.75" xmlns="http://www.w3.org/2000/svg" xmlns:xlink="http://www.w3.org/1999/xlink">
<g id="graph0" class="graph" transform="scale(1 1) rotate(0) translate(4 163.75)">
<title>di::container::SingleView&lt; T &gt;</title>
<!-- Node1 -->
<g id="Node000001" class="node">
<title>Node1</title>
<g id="a_Node000001"><a xlink:title=" ">
<polygon fill="#999999" stroke="#666666" points="165.25,-20.75 0,-20.75 0,0 165.25,0 165.25,-20.75"/>
<text text-anchor="middle" x="82.62" y="-7.25" font-family="Helvetica,sans-Serif" font-size="10.00">di::container::SingleView&lt; T &gt;</text>
</a>
</g>
</g>
<!-- Node2 -->
<g id="Node000002" class="node">
<title>Node2</title>
<g id="a_Node000002"><a xlink:href="classdi_1_1container_1_1ViewInterface.html" target="_top" xlink:title=" ">
<polygon fill="white" stroke="#666666" points="157.75,-90.25 7.5,-90.25 7.5,-56.75 157.75,-56.75 157.75,-90.25"/>
<text text-anchor="start" x="15.5" y="-76.75" font-family="Helvetica,sans-Serif" font-size="10.00">di::container::ViewInterface</text>
<text text-anchor="middle" x="82.62" y="-64" font-family="Helvetica,sans-Serif" font-size="10.00">&lt; SingleView&lt; T &gt; &gt;</text>
</a>
</g>
</g>
<!-- Node2&#45;&gt;Node1 -->
<g id="edge1_Node000001_Node000002" class="edge">
<title>Node2&#45;&gt;Node1</title>
<g id="a_edge1_Node000001_Node000002"><a xlink:title=" ">
<path fill="none" stroke="#63b8ff" d="M82.62,-44.94C82.62,-36.46 82.62,-27.67 82.62,-21.22"/>
<polygon fill="#63b8ff" stroke="#63b8ff" points="79.13,-44.93 82.63,-54.93 86.13,-44.93 79.13,-44.93"/>
</a>
</g>
</g>
<!-- Node3 -->
<g id="Node000003" class="node">
<title>Node3</title>
<g id="a_Node000003"><a xlink:href="classdi_1_1meta_1_1EnableView.html" target="_top" xlink:title=" ">
<polygon fill="white" stroke="#666666" points="149.5,-159.75 15.75,-159.75 15.75,-126.25 149.5,-126.25 149.5,-159.75"/>
<text text-anchor="start" x="23.75" y="-146.25" font-family="Helvetica,sans-Serif" font-size="10.00">di::meta::EnableView</text>
<text text-anchor="middle" x="82.62" y="-133.5" font-family="Helvetica,sans-Serif" font-size="10.00">&lt; Self, should_enable &gt;</text>
</a>
</g>
</g>
<!-- Node3&#45;&gt;Node2 -->
<g id="edge2_Node000002_Node000003" class="edge">
<title>Node3&#45;&gt;Node2</title>
<g id="a_edge2_Node000002_Node000003"><a xlink:title=" ">
<path fill="none" stroke="#63b8ff" d="M82.62,-114.56C82.62,-106.34 82.62,-97.59 82.62,-90.38"/>
<polygon fill="#63b8ff" stroke="#63b8ff" points="79.13,-114.49 82.63,-124.49 86.13,-114.49 79.13,-114.49"/>
</a>
</g>
</g>
</g>
</svg>
