<?xml version="1.0" encoding="UTF-8" standalone="no"?>
<!DOCTYPE svg PUBLIC "-//W3C//DTD SVG 1.1//EN"
 "http://www.w3.org/Graphics/SVG/1.1/DTD/svg11.dtd">
<!-- Generated by graphviz version 10.0.1 (0)
 -->
<!-- Title: di::container::ZipTransformView&lt; F, Views &gt; Pages: 1 -->
<svg width="208pt" height="181pt"
 viewBox="0.00 0.00 207.75 180.50" xmlns="http://www.w3.org/2000/svg" xmlns:xlink="http://www.w3.org/1999/xlink">
<g id="graph0" class="graph" transform="scale(1 1) rotate(0) translate(4 176.5)">
<title>di::container::ZipTransformView&lt; F, Views &gt;</title>
<!-- Node1 -->
<g id="Node000001" class="node">
<title>Node1</title>
<g id="a_Node000001"><a xlink:title=" ">
<polygon fill="#999999" stroke="#666666" points="173.5,-33.5 26.25,-33.5 26.25,0 173.5,0 173.5,-33.5"/>
<text text-anchor="start" x="34.25" y="-20" font-family="Helvetica,sans-Serif" font-size="10.00">di::container::ZipTransform</text>
<text text-anchor="middle" x="99.88" y="-7.25" font-family="Helvetica,sans-Serif" font-size="10.00">View&lt; F, Views &gt;</text>
</a>
</g>
</g>
<!-- Node2 -->
<g id="Node000002" class="node">
<title>Node2</title>
<g id="a_Node000002"><a xlink:href="classdi_1_1container_1_1ViewInterface.html" target="_top" xlink:title=" ">
<polygon fill="white" stroke="#666666" points="199.75,-103 0,-103 0,-69.5 199.75,-69.5 199.75,-103"/>
<text text-anchor="start" x="8" y="-89.5" font-family="Helvetica,sans-Serif" font-size="10.00">di::container::ViewInterface</text>
<text text-anchor="middle" x="99.88" y="-76.75" font-family="Helvetica,sans-Serif" font-size="10.00">&lt; ZipTransformView&lt; F, Views... &gt; &gt;</text>
</a>
</g>
</g>
<!-- Node2&#45;&gt;Node1 -->
<g id="edge1_Node000001_Node000002" class="edge">
<title>Node2&#45;&gt;Node1</title>
<g id="a_edge1_Node000001_Node000002"><a xlink:title=" ">
<path fill="none" stroke="#63b8ff" d="M99.88,-57.81C99.88,-49.59 99.88,-40.84 99.88,-33.63"/>
<polygon fill="#63b8ff" stroke="#63b8ff" points="96.38,-57.74 99.88,-67.74 103.38,-57.74 96.38,-57.74"/>
</a>
</g>
</g>
<!-- Node3 -->
<g id="Node000003" class="node">
<title>Node3</title>
<g id="a_Node000003"><a xlink:href="classdi_1_1meta_1_1EnableView.html" target="_top" xlink:title=" ">
<polygon fill="white" stroke="#666666" points="166.75,-172.5 33,-172.5 33,-139 166.75,-139 166.75,-172.5"/>
<text text-anchor="start" x="41" y="-159" font-family="Helvetica,sans-Serif" font-size="10.00">di::meta::EnableView</text>
<text text-anchor="middle" x="99.88" y="-146.25" font-family="Helvetica,sans-Serif" font-size="10.00">&lt; Self, should_enable &gt;</text>
</a>
</g>
</g>
<!-- Node3&#45;&gt;Node2 -->
<g id="edge2_Node000002_Node000003" class="edge">
<title>Node3&#45;&gt;Node2</title>
<g id="a_edge2_Node000002_Node000003"><a xlink:title=" ">
<path fill="none" stroke="#63b8ff" d="M99.88,-127.31C99.88,-119.09 99.88,-110.34 99.88,-103.13"/>
<polygon fill="#63b8ff" stroke="#63b8ff" points="96.38,-127.24 99.88,-137.24 103.38,-127.24 96.38,-127.24"/>
</a>
</g>
</g>
</g>
</svg>
