<?xml version="1.0" encoding="UTF-8" standalone="no"?>
<!DOCTYPE svg PUBLIC "-//W3C//DTD SVG 1.1//EN"
 "http://www.w3.org/Graphics/SVG/1.1/DTD/svg11.dtd">
<!-- Generated by graphviz version 10.0.1 (0)
 -->
<!-- Title: di::container::TransformView&lt; View, F &gt; Pages: 1 -->
<svg width="178pt" height="181pt"
 viewBox="0.00 0.00 177.75 180.50" xmlns="http://www.w3.org/2000/svg" xmlns:xlink="http://www.w3.org/1999/xlink">
<g id="graph0" class="graph" transform="scale(1 1) rotate(0) translate(4 176.5)">
<title>di::container::TransformView&lt; View, F &gt;</title>
<!-- Node1 -->
<g id="Node000001" class="node">
<title>Node1</title>
<g id="a_Node000001"><a xlink:title=" ">
<polygon fill="#999999" stroke="#666666" points="150.62,-33.5 19.12,-33.5 19.12,0 150.62,0 150.62,-33.5"/>
<text text-anchor="start" x="27.12" y="-20" font-family="Helvetica,sans-Serif" font-size="10.00">di::container::Transform</text>
<text text-anchor="middle" x="84.88" y="-7.25" font-family="Helvetica,sans-Serif" font-size="10.00">View&lt; View, F &gt;</text>
</a>
</g>
</g>
<!-- Node2 -->
<g id="Node000002" class="node">
<title>Node2</title>
<g id="a_Node000002"><a xlink:href="classdi_1_1container_1_1ViewInterface.html" target="_top" xlink:title=" ">
<polygon fill="white" stroke="#666666" points="169.75,-103 0,-103 0,-69.5 169.75,-69.5 169.75,-103"/>
<text text-anchor="start" x="8" y="-89.5" font-family="Helvetica,sans-Serif" font-size="10.00">di::container::ViewInterface</text>
<text text-anchor="middle" x="84.88" y="-76.75" font-family="Helvetica,sans-Serif" font-size="10.00">&lt; TransformView&lt; View, F &gt; &gt;</text>
</a>
</g>
</g>
<!-- Node2&#45;&gt;Node1 -->
<g id="edge1_Node000001_Node000002" class="edge">
<title>Node2&#45;&gt;Node1</title>
<g id="a_edge1_Node000001_Node000002"><a xlink:title=" ">
<path fill="none" stroke="#63b8ff" d="M84.88,-57.81C84.88,-49.59 84.88,-40.84 84.88,-33.63"/>
<polygon fill="#63b8ff" stroke="#63b8ff" points="81.38,-57.74 84.88,-67.74 88.38,-57.74 81.38,-57.74"/>
</a>
</g>
</g>
<!-- Node3 -->
<g id="Node000003" class="node">
<title>Node3</title>
<g id="a_Node000003"><a xlink:href="classdi_1_1meta_1_1EnableView.html" target="_top" xlink:title=" ">
<polygon fill="white" stroke="#666666" points="151.75,-172.5 18,-172.5 18,-139 151.75,-139 151.75,-172.5"/>
<text text-anchor="start" x="26" y="-159" font-family="Helvetica,sans-Serif" font-size="10.00">di::meta::EnableView</text>
<text text-anchor="middle" x="84.88" y="-146.25" font-family="Helvetica,sans-Serif" font-size="10.00">&lt; Self, should_enable &gt;</text>
</a>
</g>
</g>
<!-- Node3&#45;&gt;Node2 -->
<g id="edge2_Node000002_Node000003" class="edge">
<title>Node3&#45;&gt;Node2</title>
<g id="a_edge2_Node000002_Node000003"><a xlink:title=" ">
<path fill="none" stroke="#63b8ff" d="M84.88,-127.31C84.88,-119.09 84.88,-110.34 84.88,-103.13"/>
<polygon fill="#63b8ff" stroke="#63b8ff" points="81.38,-127.24 84.88,-137.24 88.38,-127.24 81.38,-127.24"/>
</a>
</g>
</g>
</g>
</svg>
