<?xml version="1.0" encoding="UTF-8" standalone="no"?>
<!DOCTYPE svg PUBLIC "-//W3C//DTD SVG 1.1//EN"
 "http://www.w3.org/Graphics/SVG/1.1/DTD/svg11.dtd">
<!-- Generated by graphviz version 10.0.1 (0)
 -->
<!-- Title: di::container::MutableVectorInterface&lt; Self, Value &gt; Pages: 1 -->
<svg width="588pt" height="1100pt"
 viewBox="0.00 0.00 587.75 1100.25" xmlns="http://www.w3.org/2000/svg" xmlns:xlink="http://www.w3.org/1999/xlink">
<g id="graph0" class="graph" transform="scale(1 1) rotate(0) translate(4 1096.25)">
<title>di::container::MutableVectorInterface&lt; Self, Value &gt;</title>
<!-- Node1 -->
<g id="Node000001" class="node">
<title>Node1</title>
<g id="a_Node000001"><a xlink:title=" ">
<polygon fill="#999999" stroke="#666666" points="346.25,-569.5 193,-569.5 193,-536 346.25,-536 346.25,-569.5"/>
<text text-anchor="start" x="201" y="-556" font-family="Helvetica,sans-Serif" font-size="10.00">di::container::MutableVector</text>
<text text-anchor="middle" x="269.62" y="-543.25" font-family="Helvetica,sans-Serif" font-size="10.00">Interface&lt; Self, Value &gt;</text>
</a>
</g>
</g>
<!-- Node3 -->
<g id="Node000003" class="node">
<title>Node3</title>
<g id="a_Node000003"><a xlink:href="classdi_1_1container_1_1StaticVector.html" target="_top" xlink:title=" ">
<polygon fill="white" stroke="#666666" points="551.62,-1092.25 410.38,-1092.25 410.38,-1033.25 551.62,-1033.25 551.62,-1092.25"/>
<text text-anchor="start" x="418.38" y="-1078.75" font-family="Helvetica,sans-Serif" font-size="10.00">di::container::StaticVector</text>
<text text-anchor="start" x="418.38" y="-1066" font-family="Helvetica,sans-Serif" font-size="10.00">&lt; di::function::function</text>
<text text-anchor="start" x="418.38" y="-1053.25" font-family="Helvetica,sans-Serif" font-size="10.00">_ns::Function, di::meta::</text>
<text text-anchor="middle" x="481" y="-1040.5" font-family="Helvetica,sans-Serif" font-size="10.00">Constexpr&lt; 8zu &gt; &gt;</text>
</a>
</g>
</g>
<!-- Node1&#45;&gt;Node3 -->
<g id="edge2_Node000001_Node000003" class="edge">
<title>Node1&#45;&gt;Node3</title>
<g id="a_edge2_Node000001_Node000003"><a xlink:title=" ">
<path fill="none" stroke="#63b8ff" d="M273.89,-581.31C284.87,-672.84 323.13,-956.81 382.25,-1024.75 389.78,-1033.4 399.52,-1040.1 409.94,-1045.28"/>
<polygon fill="#63b8ff" stroke="#63b8ff" points="277.37,-580.98 272.73,-571.45 270.42,-581.8 277.37,-580.98"/>
</a>
</g>
</g>
<!-- Node4 -->
<g id="Node000004" class="node">
<title>Node4</title>
<g id="a_Node000004"><a xlink:href="classdi_1_1container_1_1Vector.html" target="_top" xlink:title=" ">
<polygon fill="white" stroke="#666666" points="537.75,-1015.5 424.25,-1015.5 424.25,-982 537.75,-982 537.75,-1015.5"/>
<text text-anchor="start" x="432.25" y="-1002" font-family="Helvetica,sans-Serif" font-size="10.00">di::container::Vector</text>
<text text-anchor="middle" x="481" y="-989.25" font-family="Helvetica,sans-Serif" font-size="10.00">&lt; Value &gt;</text>
</a>
</g>
</g>
<!-- Node1&#45;&gt;Node4 -->
<g id="edge3_Node000001_Node000004" class="edge">
<title>Node1&#45;&gt;Node4</title>
<g id="a_edge3_Node000001_Node000004"><a xlink:title=" ">
<path fill="none" stroke="#63b8ff" d="M274.44,-581.18C286.41,-666.24 325.81,-916.3 382.25,-972.75 393.36,-983.86 408.65,-990.39 423.84,-994.17"/>
<polygon fill="#63b8ff" stroke="#63b8ff" points="277.92,-580.8 273.08,-571.37 270.99,-581.76 277.92,-580.8"/>
</a>
</g>
</g>
<!-- Node5 -->
<g id="Node000005" class="node">
<title>Node5</title>
<g id="a_Node000005"><a xlink:href="classdi_1_1container_1_1Vector.html" target="_top" xlink:title=" ">
<polygon fill="white" stroke="#666666" points="537.75,-963.5 424.25,-963.5 424.25,-930 537.75,-930 537.75,-963.5"/>
<text text-anchor="start" x="432.25" y="-950" font-family="Helvetica,sans-Serif" font-size="10.00">di::container::Vector</text>
<text text-anchor="middle" x="481" y="-937.25" font-family="Helvetica,sans-Serif" font-size="10.00">&lt; byte, Alloc &gt;</text>
</a>
</g>
</g>
<!-- Node1&#45;&gt;Node5 -->
<g id="edge4_Node000001_Node000005" class="edge">
<title>Node1&#45;&gt;Node5</title>
<g id="a_edge4_Node000001_Node000005"><a xlink:title=" ">
<path fill="none" stroke="#63b8ff" d="M270.46,-581.13C271.66,-649.85 284.63,-826.45 382.25,-920.75 393.49,-931.61 408.73,-938.06 423.83,-941.86"/>
<polygon fill="#63b8ff" stroke="#63b8ff" points="273.96,-581.44 270.37,-571.47 266.96,-581.51 273.96,-581.44"/>
</a>
</g>
</g>
<!-- Node6 -->
<g id="Node000006" class="node">
<title>Node6</title>
<g id="a_Node000006"><a xlink:href="classdi_1_1container_1_1Vector.html" target="_top" xlink:title=" ">
<polygon fill="white" stroke="#666666" points="537.75,-911.5 424.25,-911.5 424.25,-878 537.75,-878 537.75,-911.5"/>
<text text-anchor="start" x="432.25" y="-898" font-family="Helvetica,sans-Serif" font-size="10.00">di::container::Vector</text>
<text text-anchor="middle" x="481" y="-885.25" font-family="Helvetica,sans-Serif" font-size="10.00">&lt; byte &gt;</text>
</a>
</g>
</g>
<!-- Node1&#45;&gt;Node6 -->
<g id="edge5_Node000001_Node000006" class="edge">
<title>Node1&#45;&gt;Node6</title>
<g id="a_edge5_Node000001_Node000006"><a xlink:title=" ">
<path fill="none" stroke="#63b8ff" d="M272.1,-580.89C276.87,-642.5 297.09,-790.11 382.25,-868.75 393.67,-879.29 408.87,-885.65 423.88,-889.46"/>
<polygon fill="#63b8ff" stroke="#63b8ff" points="275.61,-581 271.43,-571.27 268.63,-581.48 275.61,-581"/>
</a>
</g>
</g>
<!-- Node7 -->
<g id="Node000007" class="node">
<title>Node7</title>
<g id="a_Node000007"><a xlink:href="classdi_1_1container_1_1Vector.html" target="_top" xlink:title=" ">
<polygon fill="white" stroke="#666666" points="537.75,-859.5 424.25,-859.5 424.25,-826 537.75,-826 537.75,-859.5"/>
<text text-anchor="start" x="432.25" y="-846" font-family="Helvetica,sans-Serif" font-size="10.00">di::container::Vector</text>
<text text-anchor="middle" x="481" y="-833.25" font-family="Helvetica,sans-Serif" font-size="10.00">&lt; di::Byte &gt;</text>
</a>
</g>
</g>
<!-- Node1&#45;&gt;Node7 -->
<g id="edge6_Node000001_Node000007" class="edge">
<title>Node1&#45;&gt;Node7</title>
<g id="a_edge6_Node000001_Node000007"><a xlink:title=" ">
<path fill="none" stroke="#63b8ff" d="M274.36,-581.09C283.02,-635.24 309.61,-753.63 382.25,-816.75 393.85,-826.83 408.94,-833.05 423.78,-836.88"/>
<polygon fill="#63b8ff" stroke="#63b8ff" points="277.86,-580.82 272.91,-571.45 270.93,-581.86 277.86,-580.82"/>
</a>
</g>
</g>
<!-- Node8 -->
<g id="Node000008" class="node">
<title>Node8</title>
<g id="a_Node000008"><a xlink:href="classdi_1_1container_1_1Vector.html" target="_top" xlink:title=" ">
<polygon fill="white" stroke="#666666" points="558.75,-807.88 403.25,-807.88 403.25,-761.62 558.75,-761.62 558.75,-807.88"/>
<text text-anchor="start" x="411.25" y="-794.38" font-family="Helvetica,sans-Serif" font-size="10.00">di::container::Vector</text>
<text text-anchor="start" x="411.25" y="-781.62" font-family="Helvetica,sans-Serif" font-size="10.00">&lt; dius::filesystem::Directory</text>
<text text-anchor="middle" x="481" y="-768.88" font-family="Helvetica,sans-Serif" font-size="10.00">Iterator &gt;</text>
</a>
</g>
</g>
<!-- Node1&#45;&gt;Node8 -->
<g id="edge7_Node000001_Node000008" class="edge">
<title>Node1&#45;&gt;Node8</title>
<g id="a_edge7_Node000001_Node000008"><a xlink:title=" ">
<path fill="none" stroke="#63b8ff" d="M278.82,-580.51C292.94,-623.57 325.88,-706.32 382.25,-752.75 388.45,-757.86 395.49,-762.16 402.89,-765.78"/>
<polygon fill="#63b8ff" stroke="#63b8ff" points="282.22,-579.65 275.87,-571.17 275.55,-581.76 282.22,-579.65"/>
</a>
</g>
</g>
<!-- Node9 -->
<g id="Node000009" class="node">
<title>Node9</title>
<g id="a_Node000009"><a xlink:href="classdi_1_1container_1_1Vector.html" target="_top" xlink:title=" ">
<polygon fill="white" stroke="#666666" points="550.5,-743.5 411.5,-743.5 411.5,-710 550.5,-710 550.5,-743.5"/>
<text text-anchor="start" x="419.5" y="-730" font-family="Helvetica,sans-Serif" font-size="10.00">di::container::Vector</text>
<text text-anchor="middle" x="481" y="-717.25" font-family="Helvetica,sans-Serif" font-size="10.00">&lt; di::TransparentString &gt;</text>
</a>
</g>
</g>
<!-- Node1&#45;&gt;Node9 -->
<g id="edge8_Node000001_Node000009" class="edge">
<title>Node1&#45;&gt;Node9</title>
<g id="a_edge8_Node000001_Node000009"><a xlink:title=" ">
<path fill="none" stroke="#63b8ff" d="M283.85,-579.91C301.58,-613.43 336.23,-669.79 382.25,-700.75 390.99,-706.63 401.01,-711.18 411.21,-714.71"/>
<polygon fill="#63b8ff" stroke="#63b8ff" points="287.08,-578.53 279.39,-571.24 280.85,-581.73 287.08,-578.53"/>
</a>
</g>
</g>
<!-- Node10 -->
<g id="Node000010" class="node">
<title>Node10</title>
<g id="a_Node000010"><a xlink:href="classdi_1_1container_1_1Vector.html" target="_top" xlink:title=" ">
<polygon fill="white" stroke="#666666" points="547.5,-691.5 414.5,-691.5 414.5,-658 547.5,-658 547.5,-691.5"/>
<text text-anchor="start" x="422.5" y="-678" font-family="Helvetica,sans-Serif" font-size="10.00">di::container::Vector</text>
<text text-anchor="middle" x="481" y="-665.25" font-family="Helvetica,sans-Serif" font-size="10.00">&lt; dius::test::TestCase &gt;</text>
</a>
</g>
</g>
<!-- Node1&#45;&gt;Node10 -->
<g id="edge9_Node000001_Node000010" class="edge">
<title>Node1&#45;&gt;Node10</title>
<g id="a_edge9_Node000001_Node000010"><a xlink:title=" ">
<path fill="none" stroke="#63b8ff" d="M293.61,-578.13C314.66,-599.89 347.72,-630.55 382.25,-648.75 392.11,-653.95 403.1,-658.17 414.04,-661.58"/>
<polygon fill="#63b8ff" stroke="#63b8ff" points="296.34,-575.93 286.92,-571.08 291.26,-580.74 296.34,-575.93"/>
</a>
</g>
</g>
<!-- Node11 -->
<g id="Node000011" class="node">
<title>Node11</title>
<g id="a_Node000011"><a xlink:href="classdi_1_1container_1_1Vector.html" target="_top" xlink:title=" ">
<polygon fill="white" stroke="#666666" points="579.75,-639.88 382.25,-639.88 382.25,-593.62 579.75,-593.62 579.75,-639.88"/>
<text text-anchor="start" x="390.25" y="-626.38" font-family="Helvetica,sans-Serif" font-size="10.00">di::container::Vector</text>
<text text-anchor="start" x="390.25" y="-613.62" font-family="Helvetica,sans-Serif" font-size="10.00">&lt; generate_presets::CMakeConfigure</text>
<text text-anchor="middle" x="481" y="-600.88" font-family="Helvetica,sans-Serif" font-size="10.00">Preset &gt;</text>
</a>
</g>
</g>
<!-- Node1&#45;&gt;Node11 -->
<g id="edge10_Node000001_Node000011" class="edge">
<title>Node1&#45;&gt;Node11</title>
<g id="a_edge10_Node000001_Node000011"><a xlink:title=" ">
<path fill="none" stroke="#63b8ff" d="M337.96,-573.33C358.71,-579.67 381.71,-586.71 403.06,-593.23"/>
<polygon fill="#63b8ff" stroke="#63b8ff" points="339.04,-570 328.46,-570.43 337,-576.7 339.04,-570"/>
</a>
</g>
</g>
<!-- Node12 -->
<g id="Node000012" class="node">
<title>Node12</title>
<g id="a_Node000012"><a xlink:href="classdi_1_1container_1_1Vector.html" target="_top" xlink:title=" ">
<polygon fill="white" stroke="#666666" points="568.88,-575.88 393.12,-575.88 393.12,-529.62 568.88,-529.62 568.88,-575.88"/>
<text text-anchor="start" x="401.12" y="-562.38" font-family="Helvetica,sans-Serif" font-size="10.00">di::container::Vector</text>
<text text-anchor="start" x="401.12" y="-549.62" font-family="Helvetica,sans-Serif" font-size="10.00">&lt; generate_presets::CMakeBuild</text>
<text text-anchor="middle" x="481" y="-536.88" font-family="Helvetica,sans-Serif" font-size="10.00">Preset &gt;</text>
</a>
</g>
</g>
<!-- Node1&#45;&gt;Node12 -->
<g id="edge11_Node000001_Node000012" class="edge">
<title>Node1&#45;&gt;Node12</title>
<g id="a_edge11_Node000001_Node000012"><a xlink:title=" ">
<path fill="none" stroke="#63b8ff" d="M357.88,-552.75C369.37,-552.75 381.15,-552.75 392.65,-552.75"/>
<polygon fill="#63b8ff" stroke="#63b8ff" points="358.02,-549.25 348.02,-552.75 358.02,-556.25 358.02,-549.25"/>
</a>
</g>
</g>
<!-- Node13 -->
<g id="Node000013" class="node">
<title>Node13</title>
<g id="a_Node000013"><a xlink:href="classdi_1_1container_1_1Vector.html" target="_top" xlink:title=" ">
<polygon fill="white" stroke="#666666" points="566.25,-511.88 395.75,-511.88 395.75,-465.62 566.25,-465.62 566.25,-511.88"/>
<text text-anchor="start" x="403.75" y="-498.38" font-family="Helvetica,sans-Serif" font-size="10.00">di::container::Vector</text>
<text text-anchor="start" x="403.75" y="-485.62" font-family="Helvetica,sans-Serif" font-size="10.00">&lt; generate_presets::CMakeTest</text>
<text text-anchor="middle" x="481" y="-472.88" font-family="Helvetica,sans-Serif" font-size="10.00">Preset &gt;</text>
</a>
</g>
</g>
<!-- Node1&#45;&gt;Node13 -->
<g id="edge12_Node000001_Node000013" class="edge">
<title>Node1&#45;&gt;Node13</title>
<g id="a_edge12_Node000001_Node000013"><a xlink:title=" ">
<path fill="none" stroke="#63b8ff" d="M337.96,-532.17C358.71,-525.83 381.71,-518.79 403.06,-512.27"/>
<polygon fill="#63b8ff" stroke="#63b8ff" points="337,-528.8 328.46,-535.07 339.04,-535.5 337,-528.8"/>
</a>
</g>
</g>
<!-- Node14 -->
<g id="Node000014" class="node">
<title>Node14</title>
<g id="a_Node000014"><a xlink:href="classdi_1_1container_1_1Vector.html" target="_top" xlink:title=" ">
<polygon fill="white" stroke="#666666" points="546.38,-447.25 415.62,-447.25 415.62,-388.25 546.38,-388.25 546.38,-447.25"/>
<text text-anchor="start" x="423.62" y="-433.75" font-family="Helvetica,sans-Serif" font-size="10.00">di::container::Vector</text>
<text text-anchor="start" x="423.62" y="-421" font-family="Helvetica,sans-Serif" font-size="10.00">&lt; di::vocab::Tuple&lt; di</text>
<text text-anchor="start" x="423.62" y="-408.25" font-family="Helvetica,sans-Serif" font-size="10.00">::TransparentString, di</text>
<text text-anchor="middle" x="481" y="-395.5" font-family="Helvetica,sans-Serif" font-size="10.00">::Arc&lt; iris::Inode &gt; &gt; &gt;</text>
</a>
</g>
</g>
<!-- Node1&#45;&gt;Node14 -->
<g id="edge13_Node000001_Node000014" class="edge">
<title>Node1&#45;&gt;Node14</title>
<g id="a_edge13_Node000001_Node000014"><a xlink:title=" ">
<path fill="none" stroke="#63b8ff" d="M294.92,-527.63C316.36,-506.55 349.25,-476.75 382.25,-456.75 392.48,-450.55 403.88,-444.96 415.17,-440.09"/>
<polygon fill="#63b8ff" stroke="#63b8ff" points="292.69,-524.91 288.08,-534.45 297.63,-529.86 292.69,-524.91"/>
</a>
</g>
</g>
<!-- Node15 -->
<g id="Node000015" class="node">
<title>Node15</title>
<g id="a_Node000015"><a xlink:href="classdi_1_1container_1_1Vector.html" target="_top" xlink:title=" ">
<polygon fill="white" stroke="#666666" points="554.62,-369.88 407.38,-369.88 407.38,-323.62 554.62,-323.62 554.62,-369.88"/>
<text text-anchor="start" x="415.38" y="-356.38" font-family="Helvetica,sans-Serif" font-size="10.00">di::container::Vector</text>
<text text-anchor="start" x="415.38" y="-343.62" font-family="Helvetica,sans-Serif" font-size="10.00">&lt; iris::acpi::ProcessorLocal</text>
<text text-anchor="middle" x="481" y="-330.88" font-family="Helvetica,sans-Serif" font-size="10.00">ApicStructure &gt;</text>
</a>
</g>
</g>
<!-- Node1&#45;&gt;Node15 -->
<g id="edge14_Node000001_Node000015" class="edge">
<title>Node1&#45;&gt;Node15</title>
<g id="a_edge14_Node000001_Node000015"><a xlink:title=" ">
<path fill="none" stroke="#63b8ff" d="M281.22,-525.27C297.34,-486.99 331.61,-417.92 382.25,-378.75 389.67,-373.01 398.15,-368.29 406.95,-364.39"/>
<polygon fill="#63b8ff" stroke="#63b8ff" points="278.09,-523.67 277.55,-534.25 284.57,-526.32 278.09,-523.67"/>
</a>
</g>
</g>
<!-- Node16 -->
<g id="Node000016" class="node">
<title>Node16</title>
<g id="a_Node000016"><a xlink:href="classdi_1_1container_1_1Vector.html" target="_top" xlink:title=" ">
<polygon fill="white" stroke="#666666" points="561,-305.5 401,-305.5 401,-272 561,-272 561,-305.5"/>
<text text-anchor="start" x="409" y="-292" font-family="Helvetica,sans-Serif" font-size="10.00">di::container::Vector</text>
<text text-anchor="middle" x="481" y="-279.25" font-family="Helvetica,sans-Serif" font-size="10.00">&lt; iris::acpi::IoApicStructure &gt;</text>
</a>
</g>
</g>
<!-- Node1&#45;&gt;Node16 -->
<g id="edge15_Node000001_Node000016" class="edge">
<title>Node1&#45;&gt;Node16</title>
<g id="a_edge15_Node000001_Node000016"><a xlink:title=" ">
<path fill="none" stroke="#63b8ff" d="M275.82,-524.42C286.5,-474.35 315.77,-370.31 382.25,-314.75 387.77,-310.13 394.04,-306.33 400.66,-303.19"/>
<polygon fill="#63b8ff" stroke="#63b8ff" points="272.4,-523.66 273.84,-534.16 279.26,-525.05 272.4,-523.66"/>
</a>
</g>
</g>
<!-- Node17 -->
<g id="Node000017" class="node">
<title>Node17</title>
<g id="a_Node000017"><a xlink:href="classdi_1_1container_1_1Vector.html" target="_top" xlink:title=" ">
<polygon fill="white" stroke="#666666" points="555.75,-253.88 406.25,-253.88 406.25,-207.62 555.75,-207.62 555.75,-253.88"/>
<text text-anchor="start" x="414.25" y="-240.38" font-family="Helvetica,sans-Serif" font-size="10.00">di::container::Vector</text>
<text text-anchor="start" x="414.25" y="-227.62" font-family="Helvetica,sans-Serif" font-size="10.00">&lt; iris::acpi::InterruptSource</text>
<text text-anchor="middle" x="481" y="-214.88" font-family="Helvetica,sans-Serif" font-size="10.00">OverrideStructure &gt;</text>
</a>
</g>
</g>
<!-- Node1&#45;&gt;Node17 -->
<g id="edge16_Node000001_Node000017" class="edge">
<title>Node1&#45;&gt;Node17</title>
<g id="a_edge16_Node000001_Node000017"><a xlink:title=" ">
<path fill="none" stroke="#63b8ff" d="M273.51,-524.48C280.87,-466.96 305.58,-335.61 382.25,-262.75 389.11,-256.23 397.32,-251.04 406.03,-246.91"/>
<polygon fill="#63b8ff" stroke="#63b8ff" points="270.07,-523.74 272.37,-534.08 277.02,-524.56 270.07,-523.74"/>
</a>
</g>
</g>
<!-- Node18 -->
<g id="Node000018" class="node">
<title>Node18</title>
<g id="a_Node000018"><a xlink:href="classdi_1_1container_1_1Vector.html" target="_top" xlink:title=" ">
<polygon fill="white" stroke="#666666" points="544.88,-189.5 417.12,-189.5 417.12,-156 544.88,-156 544.88,-189.5"/>
<text text-anchor="start" x="425.12" y="-176" font-family="Helvetica,sans-Serif" font-size="10.00">di::container::Vector</text>
<text text-anchor="middle" x="481" y="-163.25" font-family="Helvetica,sans-Serif" font-size="10.00">&lt; iris::initrd::FSNode &gt;</text>
</a>
</g>
</g>
<!-- Node1&#45;&gt;Node18 -->
<g id="edge17_Node000001_Node000018" class="edge">
<title>Node1&#45;&gt;Node18</title>
<g id="a_edge17_Node000001_Node000018"><a xlink:title=" ">
<path fill="none" stroke="#63b8ff" d="M270.85,-524.55C272.99,-457.77 287.95,-288.86 382.25,-198.75 391.77,-189.65 404.11,-183.65 416.78,-179.72"/>
<polygon fill="#63b8ff" stroke="#63b8ff" points="267.36,-524.19 270.62,-534.27 274.36,-524.36 267.36,-524.19"/>
</a>
</g>
</g>
<!-- Node19 -->
<g id="Node000019" class="node">
<title>Node19</title>
<g id="a_Node000019"><a xlink:href="classdi_1_1container_1_1Vector.html" target="_top" xlink:title=" ">
<polygon fill="white" stroke="#666666" points="544.88,-137.5 417.12,-137.5 417.12,-104 544.88,-104 544.88,-137.5"/>
<text text-anchor="start" x="425.12" y="-124" font-family="Helvetica,sans-Serif" font-size="10.00">di::container::Vector</text>
<text text-anchor="middle" x="481" y="-111.25" font-family="Helvetica,sans-Serif" font-size="10.00">&lt; iris::test::TestCase &gt;</text>
</a>
</g>
</g>
<!-- Node1&#45;&gt;Node19 -->
<g id="edge18_Node000001_Node000019" class="edge">
<title>Node1&#45;&gt;Node19</title>
<g id="a_edge18_Node000001_Node000019"><a xlink:title=" ">
<path fill="none" stroke="#63b8ff" d="M274.7,-524.44C287.21,-441.43 327.52,-201.03 382.25,-146.75 391.66,-137.41 404.03,-131.32 416.78,-127.38"/>
<polygon fill="#63b8ff" stroke="#63b8ff" points="271.26,-523.82 273.25,-534.23 278.18,-524.85 271.26,-523.82"/>
</a>
</g>
</g>
<!-- Node20 -->
<g id="Node000020" class="node">
<title>Node20</title>
<g id="a_Node000020"><a xlink:href="classdi_1_1container_1_1Vector.html" target="_top" xlink:title=" ">
<polygon fill="white" stroke="#666666" points="537.75,-85.5 424.25,-85.5 424.25,-52 537.75,-52 537.75,-85.5"/>
<text text-anchor="start" x="432.25" y="-72" font-family="Helvetica,sans-Serif" font-size="10.00">di::container::Vector</text>
<text text-anchor="middle" x="481" y="-59.25" font-family="Helvetica,sans-Serif" font-size="10.00">&lt; pm::Step &gt;</text>
</a>
</g>
</g>
<!-- Node1&#45;&gt;Node20 -->
<g id="edge19_Node000001_Node000020" class="edge">
<title>Node1&#45;&gt;Node20</title>
<g id="a_edge19_Node000001_Node000020"><a xlink:title=" ">
<path fill="none" stroke="#63b8ff" d="M273.75,-524.46C284.25,-434.49 321.07,-157.22 382.25,-94.75 393.31,-83.46 408.67,-76.89 423.95,-73.13"/>
<polygon fill="#63b8ff" stroke="#63b8ff" points="270.3,-523.8 272.64,-534.14 277.26,-524.6 270.3,-523.8"/>
</a>
</g>
</g>
<!-- Node21 -->
<g id="Node000021" class="node">
<title>Node21</title>
<g id="a_Node000021"><a xlink:href="classdi_1_1container_1_1Vector.html" target="_top" xlink:title=" ">
<polygon fill="white" stroke="#666666" points="537.75,-33.5 424.25,-33.5 424.25,0 537.75,0 537.75,-33.5"/>
<text text-anchor="start" x="432.25" y="-20" font-family="Helvetica,sans-Serif" font-size="10.00">di::container::Vector</text>
<text text-anchor="middle" x="481" y="-7.25" font-family="Helvetica,sans-Serif" font-size="10.00">&lt; di::String &gt;</text>
</a>
</g>
</g>
<!-- Node1&#45;&gt;Node21 -->
<g id="edge20_Node000001_Node000021" class="edge">
<title>Node1&#45;&gt;Node21</title>
<g id="a_edge20_Node000001_Node000021"><a xlink:title=" ">
<path fill="none" stroke="#63b8ff" d="M273.02,-524.19C281.7,-427.32 314.65,-113.42 382.25,-42.75 393.17,-31.33 408.5,-24.72 423.78,-20.96"/>
<polygon fill="#63b8ff" stroke="#63b8ff" points="269.53,-523.86 272.15,-534.13 276.51,-524.47 269.53,-523.86"/>
</a>
</g>
</g>
<!-- Node2 -->
<g id="Node000002" class="node">
<title>Node2</title>
<g id="a_Node000002"><a xlink:href="classdi_1_1container_1_1ConstantVectorInterface.html" target="_top" xlink:title=" ">
<polygon fill="white" stroke="#666666" points="157,-569.5 0,-569.5 0,-536 157,-536 157,-569.5"/>
<text text-anchor="start" x="8" y="-556" font-family="Helvetica,sans-Serif" font-size="10.00">di::container::ConstantVector</text>
<text text-anchor="middle" x="78.5" y="-543.25" font-family="Helvetica,sans-Serif" font-size="10.00">Interface&lt; Self, Value &gt;</text>
</a>
</g>
</g>
<!-- Node2&#45;&gt;Node1 -->
<g id="edge1_Node000001_Node000002" class="edge">
<title>Node2&#45;&gt;Node1</title>
<g id="a_edge1_Node000001_Node000002"><a xlink:title=" ">
<path fill="none" stroke="#63b8ff" d="M168.59,-552.75C176.65,-552.75 184.77,-552.75 192.71,-552.75"/>
<polygon fill="#63b8ff" stroke="#63b8ff" points="168.76,-549.25 158.76,-552.75 168.76,-556.25 168.76,-549.25"/>
</a>
</g>
</g>
</g>
</svg>
