<?xml version="1.0" encoding="UTF-8" standalone="no"?>
<!DOCTYPE svg PUBLIC "-//W3C//DTD SVG 1.1//EN"
 "http://www.w3.org/Graphics/SVG/1.1/DTD/svg11.dtd">
<!-- Generated by graphviz version 10.0.1 (0)
 -->
<!-- Title: di::container::CartesianProductView&lt; First, Rest &gt; Pages: 1 -->
<svg width="178pt" height="193pt"
 viewBox="0.00 0.00 177.75 193.25" xmlns="http://www.w3.org/2000/svg" xmlns:xlink="http://www.w3.org/1999/xlink">
<g id="graph0" class="graph" transform="scale(1 1) rotate(0) translate(4 189.25)">
<title>di::container::CartesianProductView&lt; First, Rest &gt;</title>
<!-- Node1 -->
<g id="Node000001" class="node">
<title>Node1</title>
<g id="a_Node000001"><a xlink:title=" ">
<polygon fill="#999999" stroke="#666666" points="158.88,-33.5 10.88,-33.5 10.88,0 158.88,0 158.88,-33.5"/>
<text text-anchor="start" x="18.88" y="-20" font-family="Helvetica,sans-Serif" font-size="10.00">di::container::Cartesian</text>
<text text-anchor="middle" x="84.88" y="-7.25" font-family="Helvetica,sans-Serif" font-size="10.00">ProductView&lt; First, Rest &gt;</text>
</a>
</g>
</g>
<!-- Node2 -->
<g id="Node000002" class="node">
<title>Node2</title>
<g id="a_Node000002"><a xlink:href="classdi_1_1container_1_1ViewInterface.html" target="_top" xlink:title=" ">
<polygon fill="white" stroke="#666666" points="169.75,-115.75 0,-115.75 0,-69.5 169.75,-69.5 169.75,-115.75"/>
<text text-anchor="start" x="8" y="-102.25" font-family="Helvetica,sans-Serif" font-size="10.00">di::container::ViewInterface</text>
<text text-anchor="start" x="8" y="-89.5" font-family="Helvetica,sans-Serif" font-size="10.00">&lt; CartesianProductView&lt; First,</text>
<text text-anchor="middle" x="84.88" y="-76.75" font-family="Helvetica,sans-Serif" font-size="10.00"> Rest... &gt; &gt;</text>
</a>
</g>
</g>
<!-- Node2&#45;&gt;Node1 -->
<g id="edge1_Node000001_Node000002" class="edge">
<title>Node2&#45;&gt;Node1</title>
<g id="a_edge1_Node000001_Node000002"><a xlink:title=" ">
<path fill="none" stroke="#63b8ff" d="M84.88,-57.64C84.88,-49.35 84.88,-40.86 84.88,-33.85"/>
<polygon fill="#63b8ff" stroke="#63b8ff" points="81.38,-57.55 84.88,-67.55 88.38,-57.55 81.38,-57.55"/>
</a>
</g>
</g>
<!-- Node3 -->
<g id="Node000003" class="node">
<title>Node3</title>
<g id="a_Node000003"><a xlink:href="classdi_1_1meta_1_1EnableView.html" target="_top" xlink:title=" ">
<polygon fill="white" stroke="#666666" points="151.75,-185.25 18,-185.25 18,-151.75 151.75,-151.75 151.75,-185.25"/>
<text text-anchor="start" x="26" y="-171.75" font-family="Helvetica,sans-Serif" font-size="10.00">di::meta::EnableView</text>
<text text-anchor="middle" x="84.88" y="-159" font-family="Helvetica,sans-Serif" font-size="10.00">&lt; Self, should_enable &gt;</text>
</a>
</g>
</g>
<!-- Node3&#45;&gt;Node2 -->
<g id="edge2_Node000002_Node000003" class="edge">
<title>Node3&#45;&gt;Node2</title>
<g id="a_edge2_Node000002_Node000003"><a xlink:title=" ">
<path fill="none" stroke="#63b8ff" d="M84.88,-140.14C84.88,-132.21 84.88,-123.66 84.88,-116.07"/>
<polygon fill="#63b8ff" stroke="#63b8ff" points="81.38,-139.96 84.88,-149.96 88.38,-139.96 81.38,-139.96"/>
</a>
</g>
</g>
</g>
</svg>
