<?xml version="1.0" encoding="UTF-8" standalone="no"?>
<!DOCTYPE svg PUBLIC "-//W3C//DTD SVG 1.1//EN"
 "http://www.w3.org/Graphics/SVG/1.1/DTD/svg11.dtd">
<!-- Generated by graphviz version 10.0.1 (0)
 -->
<!-- Title: di::container::Ring&lt; T, Alloc &gt; Pages: 1 -->
<svg width="156pt" height="181pt"
 viewBox="0.00 0.00 156.00 180.50" xmlns="http://www.w3.org/2000/svg" xmlns:xlink="http://www.w3.org/1999/xlink">
<g id="graph0" class="graph" transform="scale(1 1) rotate(0) translate(4 176.5)">
<title>di::container::Ring&lt; T, Alloc &gt;</title>
<!-- Node1 -->
<g id="Node000001" class="node">
<title>Node1</title>
<g id="a_Node000001"><a xlink:title=" ">
<polygon fill="#999999" stroke="#666666" points="126.25,-33.5 21.75,-33.5 21.75,0 126.25,0 126.25,-33.5"/>
<text text-anchor="start" x="29.75" y="-20" font-family="Helvetica,sans-Serif" font-size="10.00">di::container::Ring</text>
<text text-anchor="middle" x="74" y="-7.25" font-family="Helvetica,sans-Serif" font-size="10.00">&lt; T, Alloc &gt;</text>
</a>
</g>
</g>
<!-- Node2 -->
<g id="Node000002" class="node">
<title>Node2</title>
<g id="a_Node000002"><a xlink:href="classdi_1_1container_1_1MutableRingInterface.html" target="_top" xlink:title=" ">
<polygon fill="white" stroke="#666666" points="146.12,-103 1.88,-103 1.88,-69.5 146.12,-69.5 146.12,-103"/>
<text text-anchor="start" x="9.88" y="-89.5" font-family="Helvetica,sans-Serif" font-size="10.00">di::container::MutableRing</text>
<text text-anchor="middle" x="74" y="-76.75" font-family="Helvetica,sans-Serif" font-size="10.00">Interface&lt; Self, Value &gt;</text>
</a>
</g>
</g>
<!-- Node2&#45;&gt;Node1 -->
<g id="edge1_Node000001_Node000002" class="edge">
<title>Node2&#45;&gt;Node1</title>
<g id="a_edge1_Node000001_Node000002"><a xlink:title=" ">
<path fill="none" stroke="#63b8ff" d="M74,-57.81C74,-49.59 74,-40.84 74,-33.63"/>
<polygon fill="#63b8ff" stroke="#63b8ff" points="70.5,-57.74 74,-67.74 77.5,-57.74 70.5,-57.74"/>
</a>
</g>
</g>
<!-- Node3 -->
<g id="Node000003" class="node">
<title>Node3</title>
<g id="a_Node000003"><a xlink:href="classdi_1_1container_1_1ConstantRingInterface.html" target="_top" xlink:title=" ">
<polygon fill="white" stroke="#666666" points="148,-172.5 0,-172.5 0,-139 148,-139 148,-172.5"/>
<text text-anchor="start" x="8" y="-159" font-family="Helvetica,sans-Serif" font-size="10.00">di::container::ConstantRing</text>
<text text-anchor="middle" x="74" y="-146.25" font-family="Helvetica,sans-Serif" font-size="10.00">Interface&lt; Self, Value &gt;</text>
</a>
</g>
</g>
<!-- Node3&#45;&gt;Node2 -->
<g id="edge2_Node000002_Node000003" class="edge">
<title>Node3&#45;&gt;Node2</title>
<g id="a_edge2_Node000002_Node000003"><a xlink:title=" ">
<path fill="none" stroke="#63b8ff" d="M74,-127.31C74,-119.09 74,-110.34 74,-103.13"/>
<polygon fill="#63b8ff" stroke="#63b8ff" points="70.5,-127.24 74,-137.24 77.5,-127.24 70.5,-127.24"/>
</a>
</g>
</g>
</g>
</svg>
