<?xml version="1.0" encoding="UTF-8" standalone="no"?>
<!DOCTYPE svg PUBLIC "-//W3C//DTD SVG 1.1//EN"
 "http://www.w3.org/Graphics/SVG/1.1/DTD/svg11.dtd">
<!-- Generated by graphviz version 10.0.1 (0)
 -->
<!-- Title: di::container::DropWhileView&lt; View, Pred &gt; Pages: 1 -->
<svg width="535pt" height="118pt"
 viewBox="0.00 0.00 535.25 118.25" xmlns="http://www.w3.org/2000/svg" xmlns:xlink="http://www.w3.org/1999/xlink">
<g id="graph0" class="graph" transform="scale(1 1) rotate(0) translate(4 114.25)">
<title>di::container::DropWhileView&lt; View, Pred &gt;</title>
<!-- Node1 -->
<g id="Node000001" class="node">
<title>Node1</title>
<g id="a_Node000001"><a xlink:title=" ">
<polygon fill="#999999" stroke="#666666" points="527.25,-78.25 393.5,-78.25 393.5,-44.75 527.25,-44.75 527.25,-78.25"/>
<text text-anchor="start" x="401.5" y="-64.75" font-family="Helvetica,sans-Serif" font-size="10.00">di::container::DropWhile</text>
<text text-anchor="middle" x="460.38" y="-52" font-family="Helvetica,sans-Serif" font-size="10.00">View&lt; View, Pred &gt;</text>
</a>
</g>
</g>
<!-- Node2 -->
<g id="Node000002" class="node">
<title>Node2</title>
<g id="a_Node000002"><a xlink:href="classdi_1_1container_1_1ViewInterface.html" target="_top" xlink:title=" ">
<polygon fill="white" stroke="#666666" points="357.5,-110.25 169.75,-110.25 169.75,-76.75 357.5,-76.75 357.5,-110.25"/>
<text text-anchor="start" x="177.75" y="-96.75" font-family="Helvetica,sans-Serif" font-size="10.00">di::container::ViewInterface</text>
<text text-anchor="middle" x="263.62" y="-84" font-family="Helvetica,sans-Serif" font-size="10.00">&lt; DropWhileView&lt; View, Pred &gt; &gt;</text>
</a>
</g>
</g>
<!-- Node2&#45;&gt;Node1 -->
<g id="edge1_Node000001_Node000002" class="edge">
<title>Node2&#45;&gt;Node1</title>
<g id="a_edge1_Node000001_Node000002"><a xlink:title=" ">
<path fill="none" stroke="#63b8ff" d="M368.91,-76.36C377.1,-75.02 385.23,-73.68 393.05,-72.4"/>
<polygon fill="#63b8ff" stroke="#63b8ff" points="368.52,-72.88 359.22,-77.96 369.65,-79.79 368.52,-72.88"/>
</a>
</g>
</g>
<!-- Node3 -->
<g id="Node000003" class="node">
<title>Node3</title>
<g id="a_Node000003"><a xlink:href="classdi_1_1meta_1_1EnableView.html" target="_top" xlink:title=" ">
<polygon fill="white" stroke="#666666" points="133.75,-110.25 0,-110.25 0,-76.75 133.75,-76.75 133.75,-110.25"/>
<text text-anchor="start" x="8" y="-96.75" font-family="Helvetica,sans-Serif" font-size="10.00">di::meta::EnableView</text>
<text text-anchor="middle" x="66.88" y="-84" font-family="Helvetica,sans-Serif" font-size="10.00">&lt; Self, should_enable &gt;</text>
</a>
</g>
</g>
<!-- Node3&#45;&gt;Node2 -->
<g id="edge2_Node000002_Node000003" class="edge">
<title>Node3&#45;&gt;Node2</title>
<g id="a_edge2_Node000002_Node000003"><a xlink:title=" ">
<path fill="none" stroke="#63b8ff" d="M145.44,-93.5C153.3,-93.5 161.34,-93.5 169.34,-93.5"/>
<polygon fill="#63b8ff" stroke="#63b8ff" points="145.59,-90 135.59,-93.5 145.59,-97 145.59,-90"/>
</a>
</g>
</g>
<!-- Node4 -->
<g id="Node000004" class="node">
<title>Node4</title>
<g id="a_Node000004"><a xlink:href="classdi_1_1meta_1_1EnableBorrowedContainer.html" target="_top" xlink:title=" ">
<polygon fill="white" stroke="#666666" points="350.38,-59 176.88,-59 176.88,0 350.38,0 350.38,-59"/>
<text text-anchor="start" x="184.88" y="-45.5" font-family="Helvetica,sans-Serif" font-size="10.00">di::meta::EnableBorrowed</text>
<text text-anchor="start" x="184.88" y="-32.75" font-family="Helvetica,sans-Serif" font-size="10.00">Container&lt; DropWhileView</text>
<text text-anchor="start" x="184.88" y="-20" font-family="Helvetica,sans-Serif" font-size="10.00">&lt; View, Pred &gt;, concepts</text>
<text text-anchor="middle" x="263.62" y="-7.25" font-family="Helvetica,sans-Serif" font-size="10.00">::BorrowedContainer&lt; View &gt; &gt;</text>
</a>
</g>
</g>
<!-- Node4&#45;&gt;Node1 -->
<g id="edge3_Node000001_Node000004" class="edge">
<title>Node4&#45;&gt;Node1</title>
<g id="a_edge3_Node000001_Node000004"><a xlink:title=" ">
<path fill="none" stroke="#63b8ff" d="M361.69,-45.45C372.34,-47.2 383,-48.95 393.15,-50.62"/>
<polygon fill="#63b8ff" stroke="#63b8ff" points="362.54,-42.04 352.11,-43.87 361.41,-48.95 362.54,-42.04"/>
</a>
</g>
</g>
</g>
</svg>
