<?xml version="1.0" encoding="UTF-8" standalone="no"?>
<!DOCTYPE svg PUBLIC "-//W3C//DTD SVG 1.1//EN"
 "http://www.w3.org/Graphics/SVG/1.1/DTD/svg11.dtd">
<!-- Generated by graphviz version 12.2.1 (0)
 -->
<!-- Title: di::container::TakeWhileView&lt; View, Pred &gt; Pages: 1 -->
<svg width="194pt" height="193pt"
 viewBox="0.00 0.00 194.25 193.25" xmlns="http://www.w3.org/2000/svg" xmlns:xlink="http://www.w3.org/1999/xlink">
<g id="graph0" class="graph" transform="scale(1 1) rotate(0) translate(4 189.25)">
<title>di::container::TakeWhileView&lt; View, Pred &gt;</title>
<!-- Node1 -->
<g id="Node000001" class="node">
<title>Node1</title>
<g id="a_Node000001"><a xlink:title=" ">
<polygon fill="#999999" stroke="#666666" points="159.25,-33.5 27,-33.5 27,0 159.25,0 159.25,-33.5"/>
<text text-anchor="start" x="35" y="-20" font-family="Helvetica,sans-Serif" font-size="10.00">di::container::TakeWhile</text>
<text text-anchor="middle" x="93.12" y="-7.25" font-family="Helvetica,sans-Serif" font-size="10.00">View&lt; View, Pred &gt;</text>
</a>
</g>
</g>
<!-- Node2 -->
<g id="Node000002" class="node">
<title>Node2</title>
<g id="a_Node000002"><a xlink:href="classdi_1_1container_1_1ViewInterface.html" target="_top" xlink:title=" ">
<polygon fill="white" stroke="#666666" points="186.25,-103 0,-103 0,-69.5 186.25,-69.5 186.25,-103"/>
<text text-anchor="start" x="8" y="-89.5" font-family="Helvetica,sans-Serif" font-size="10.00">di::container::ViewInterface</text>
<text text-anchor="middle" x="93.12" y="-76.75" font-family="Helvetica,sans-Serif" font-size="10.00">&lt; TakeWhileView&lt; View, Pred &gt; &gt;</text>
</a>
</g>
</g>
<!-- Node2&#45;&gt;Node1 -->
<g id="edge1_Node000001_Node000002" class="edge">
<title>Node2&#45;&gt;Node1</title>
<g id="a_edge1_Node000001_Node000002"><a xlink:title=" ">
<path fill="none" stroke="#63b8ff" d="M93.12,-57.81C93.12,-49.59 93.12,-40.84 93.12,-33.63"/>
<polygon fill="#63b8ff" stroke="#63b8ff" points="89.63,-57.74 93.13,-67.74 96.63,-57.74 89.63,-57.74"/>
</a>
</g>
</g>
<!-- Node3 -->
<g id="Node000003" class="node">
<title>Node3</title>
<g id="a_Node000003"><a xlink:href="classdi_1_1meta_1_1EnableView.html" target="_top" xlink:title=" ">
<polygon fill="white" stroke="#666666" points="162.62,-185.25 23.62,-185.25 23.62,-139 162.62,-139 162.62,-185.25"/>
<text text-anchor="start" x="31.62" y="-171.75" font-family="Helvetica,sans-Serif" font-size="10.00">di::meta::EnableView</text>
<text text-anchor="start" x="31.62" y="-159" font-family="Helvetica,sans-Serif" font-size="10.00">&lt; TakeWhileView&lt; View,</text>
<text text-anchor="middle" x="93.12" y="-146.25" font-family="Helvetica,sans-Serif" font-size="10.00"> Pred &gt; &gt;</text>
</a>
</g>
</g>
<!-- Node3&#45;&gt;Node2 -->
<g id="edge2_Node000002_Node000003" class="edge">
<title>Node3&#45;&gt;Node2</title>
<g id="a_edge2_Node000002_Node000003"><a xlink:title=" ">
<path fill="none" stroke="#63b8ff" d="M93.12,-127.14C93.12,-118.85 93.12,-110.36 93.12,-103.35"/>
<polygon fill="#63b8ff" stroke="#63b8ff" points="89.63,-127.05 93.13,-137.05 96.63,-127.05 89.63,-127.05"/>
</a>
</g>
</g>
</g>
</svg>
