<?xml version="1.0" encoding="UTF-8" standalone="no"?>
<!DOCTYPE svg PUBLIC "-//W3C//DTD SVG 1.1//EN"
 "http://www.w3.org/Graphics/SVG/1.1/DTD/svg11.dtd">
<!-- Generated by graphviz version 10.0.1 (0)
 -->
<!-- Title: di::container::OwningView&lt; Cont &gt; Pages: 1 -->
<svg width="568pt" height="118pt"
 viewBox="0.00 0.00 567.50 118.25" xmlns="http://www.w3.org/2000/svg" xmlns:xlink="http://www.w3.org/1999/xlink">
<g id="graph0" class="graph" transform="scale(1 1) rotate(0) translate(4 114.25)">
<title>di::container::OwningView&lt; Cont &gt;</title>
<!-- Node1 -->
<g id="Node000001" class="node">
<title>Node1</title>
<g id="a_Node000001"><a xlink:title=" ">
<polygon fill="#999999" stroke="#666666" points="559.5,-78.25 416,-78.25 416,-44.75 559.5,-44.75 559.5,-78.25"/>
<text text-anchor="start" x="424" y="-64.75" font-family="Helvetica,sans-Serif" font-size="10.00">di::container::OwningView</text>
<text text-anchor="middle" x="487.75" y="-52" font-family="Helvetica,sans-Serif" font-size="10.00">&lt; Cont &gt;</text>
</a>
</g>
</g>
<!-- Node2 -->
<g id="Node000002" class="node">
<title>Node2</title>
<g id="a_Node000002"><a xlink:href="classdi_1_1container_1_1ViewInterface.html" target="_top" xlink:title=" ">
<polygon fill="white" stroke="#666666" points="350,-110.25 199.75,-110.25 199.75,-76.75 350,-76.75 350,-110.25"/>
<text text-anchor="start" x="207.75" y="-96.75" font-family="Helvetica,sans-Serif" font-size="10.00">di::container::ViewInterface</text>
<text text-anchor="middle" x="274.88" y="-84" font-family="Helvetica,sans-Serif" font-size="10.00">&lt; OwningView&lt; Cont &gt; &gt;</text>
</a>
</g>
</g>
<!-- Node2&#45;&gt;Node1 -->
<g id="edge1_Node000001_Node000002" class="edge">
<title>Node2&#45;&gt;Node1</title>
<g id="a_edge1_Node000001_Node000002"><a xlink:title=" ">
<path fill="none" stroke="#63b8ff" d="M361.56,-80.5C379.5,-77.78 398.22,-74.93 415.55,-72.3"/>
<polygon fill="#63b8ff" stroke="#63b8ff" points="361.08,-77.03 351.72,-81.99 362.13,-83.95 361.08,-77.03"/>
</a>
</g>
</g>
<!-- Node3 -->
<g id="Node000003" class="node">
<title>Node3</title>
<g id="a_Node000003"><a xlink:href="classdi_1_1meta_1_1EnableView.html" target="_top" xlink:title=" ">
<polygon fill="white" stroke="#666666" points="133.75,-110.25 0,-110.25 0,-76.75 133.75,-76.75 133.75,-110.25"/>
<text text-anchor="start" x="8" y="-96.75" font-family="Helvetica,sans-Serif" font-size="10.00">di::meta::EnableView</text>
<text text-anchor="middle" x="66.88" y="-84" font-family="Helvetica,sans-Serif" font-size="10.00">&lt; Self, should_enable &gt;</text>
</a>
</g>
</g>
<!-- Node3&#45;&gt;Node2 -->
<g id="edge2_Node000002_Node000003" class="edge">
<title>Node3&#45;&gt;Node2</title>
<g id="a_edge2_Node000002_Node000003"><a xlink:title=" ">
<path fill="none" stroke="#63b8ff" d="M145.61,-93.5C163.26,-93.5 181.96,-93.5 199.47,-93.5"/>
<polygon fill="#63b8ff" stroke="#63b8ff" points="145.7,-90 135.7,-93.5 145.7,-97 145.7,-90"/>
</a>
</g>
</g>
<!-- Node4 -->
<g id="Node000004" class="node">
<title>Node4</title>
<g id="a_Node000004"><a xlink:href="classdi_1_1meta_1_1EnableBorrowedContainer.html" target="_top" xlink:title=" ">
<polygon fill="white" stroke="#666666" points="380,-59 169.75,-59 169.75,0 380,0 380,-59"/>
<text text-anchor="start" x="177.75" y="-45.5" font-family="Helvetica,sans-Serif" font-size="10.00">di::meta::EnableBorrowed</text>
<text text-anchor="start" x="177.75" y="-32.75" font-family="Helvetica,sans-Serif" font-size="10.00">Container&lt; OwningView</text>
<text text-anchor="start" x="177.75" y="-20" font-family="Helvetica,sans-Serif" font-size="10.00">&lt; Cont &gt;, concepts::BorrowedContainer</text>
<text text-anchor="middle" x="274.88" y="-7.25" font-family="Helvetica,sans-Serif" font-size="10.00">&lt; Cont &gt; &gt;</text>
</a>
</g>
</g>
<!-- Node4&#45;&gt;Node1 -->
<g id="edge3_Node000001_Node000004" class="edge">
<title>Node4&#45;&gt;Node1</title>
<g id="a_edge3_Node000001_Node000004"><a xlink:title=" ">
<path fill="none" stroke="#63b8ff" d="M391.54,-47.05C399.69,-48.29 407.76,-49.51 415.56,-50.7"/>
<polygon fill="#63b8ff" stroke="#63b8ff" points="392.29,-43.63 381.88,-45.59 391.24,-50.55 392.29,-43.63"/>
</a>
</g>
</g>
</g>
</svg>
