<?xml version="1.0" encoding="UTF-8" standalone="no"?>
<!DOCTYPE svg PUBLIC "-//W3C//DTD SVG 1.1//EN"
 "http://www.w3.org/Graphics/SVG/1.1/DTD/svg11.dtd">
<!-- Generated by graphviz version 10.0.1 (0)
 -->
<!-- Title: di::container::RefView&lt; Cont &gt; Pages: 1 -->
<svg width="508pt" height="94pt"
 viewBox="0.00 0.00 508.25 93.50" xmlns="http://www.w3.org/2000/svg" xmlns:xlink="http://www.w3.org/1999/xlink">
<g id="graph0" class="graph" transform="scale(1 1) rotate(0) translate(4 89.5)">
<title>di::container::RefView&lt; Cont &gt;</title>
<!-- Node1 -->
<g id="Node000001" class="node">
<title>Node1</title>
<g id="a_Node000001"><a xlink:title=" ">
<polygon fill="#999999" stroke="#666666" points="500.25,-59.5 377,-59.5 377,-26 500.25,-26 500.25,-59.5"/>
<text text-anchor="start" x="385" y="-46" font-family="Helvetica,sans-Serif" font-size="10.00">di::container::RefView</text>
<text text-anchor="middle" x="438.62" y="-33.25" font-family="Helvetica,sans-Serif" font-size="10.00">&lt; Cont &gt;</text>
</a>
</g>
</g>
<!-- Node2 -->
<g id="Node000002" class="node">
<title>Node2</title>
<g id="a_Node000002"><a xlink:href="classdi_1_1container_1_1ViewInterface.html" target="_top" xlink:title=" ">
<polygon fill="white" stroke="#666666" points="330.5,-85.5 180.25,-85.5 180.25,-52 330.5,-52 330.5,-85.5"/>
<text text-anchor="start" x="188.25" y="-72" font-family="Helvetica,sans-Serif" font-size="10.00">di::container::ViewInterface</text>
<text text-anchor="middle" x="255.38" y="-59.25" font-family="Helvetica,sans-Serif" font-size="10.00">&lt; RefView&lt; Cont &gt; &gt;</text>
</a>
</g>
</g>
<!-- Node2&#45;&gt;Node1 -->
<g id="edge1_Node000001_Node000002" class="edge">
<title>Node2&#45;&gt;Node1</title>
<g id="a_edge1_Node000001_Node000002"><a xlink:title=" ">
<path fill="none" stroke="#63b8ff" d="M342.03,-56.46C353.73,-54.79 365.53,-53.09 376.66,-51.49"/>
<polygon fill="#63b8ff" stroke="#63b8ff" points="341.78,-52.96 332.38,-57.85 342.77,-59.89 341.78,-52.96"/>
</a>
</g>
</g>
<!-- Node3 -->
<g id="Node000003" class="node">
<title>Node3</title>
<g id="a_Node000003"><a xlink:href="classdi_1_1meta_1_1EnableView.html" target="_top" xlink:title=" ">
<polygon fill="white" stroke="#666666" points="133.75,-85.5 0,-85.5 0,-52 133.75,-52 133.75,-85.5"/>
<text text-anchor="start" x="8" y="-72" font-family="Helvetica,sans-Serif" font-size="10.00">di::meta::EnableView</text>
<text text-anchor="middle" x="66.88" y="-59.25" font-family="Helvetica,sans-Serif" font-size="10.00">&lt; Self, should_enable &gt;</text>
</a>
</g>
</g>
<!-- Node3&#45;&gt;Node2 -->
<g id="edge2_Node000002_Node000003" class="edge">
<title>Node3&#45;&gt;Node2</title>
<g id="a_edge2_Node000002_Node000003"><a xlink:title=" ">
<path fill="none" stroke="#63b8ff" d="M145.46,-68.75C156.91,-68.75 168.68,-68.75 180.06,-68.75"/>
<polygon fill="#63b8ff" stroke="#63b8ff" points="145.67,-65.25 135.67,-68.75 145.67,-72.25 145.67,-65.25"/>
</a>
</g>
</g>
<!-- Node4 -->
<g id="Node000004" class="node">
<title>Node4</title>
<g id="a_Node000004"><a xlink:href="classdi_1_1meta_1_1EnableBorrowedContainer.html" target="_top" xlink:title=" ">
<polygon fill="white" stroke="#666666" points="341,-33.5 169.75,-33.5 169.75,0 341,0 341,-33.5"/>
<text text-anchor="start" x="177.75" y="-20" font-family="Helvetica,sans-Serif" font-size="10.00">di::meta::EnableBorrowed</text>
<text text-anchor="middle" x="255.38" y="-7.25" font-family="Helvetica,sans-Serif" font-size="10.00">Container&lt; RefView&lt; Cont &gt; &gt;</text>
</a>
</g>
</g>
<!-- Node4&#45;&gt;Node1 -->
<g id="edge3_Node000001_Node000004" class="edge">
<title>Node4&#45;&gt;Node1</title>
<g id="a_edge3_Node000001_Node000004"><a xlink:title=" ">
<path fill="none" stroke="#63b8ff" d="M352.56,-30.55C360.72,-31.72 368.82,-32.88 376.59,-33.99"/>
<polygon fill="#63b8ff" stroke="#63b8ff" points="353.32,-27.12 342.93,-29.17 352.33,-34.05 353.32,-27.12"/>
</a>
</g>
</g>
</g>
</svg>
