<?xml version="1.0" encoding="UTF-8" standalone="no"?>
<!DOCTYPE svg PUBLIC "-//W3C//DTD SVG 1.1//EN"
 "http://www.w3.org/Graphics/SVG/1.1/DTD/svg11.dtd">
<!-- Generated by graphviz version 10.0.1 (0)
 -->
<!-- Title: di::container::IotaView&lt; T, Bound &gt; Pages: 1 -->
<svg width="490pt" height="106pt"
 viewBox="0.00 0.00 489.50 105.88" xmlns="http://www.w3.org/2000/svg" xmlns:xlink="http://www.w3.org/1999/xlink">
<g id="graph0" class="graph" transform="scale(1 1) rotate(0) translate(4 101.88)">
<title>di::container::IotaView&lt; T, Bound &gt;</title>
<!-- Node1 -->
<g id="Node000001" class="node">
<title>Node1</title>
<g id="a_Node000001"><a xlink:title=" ">
<polygon fill="#999999" stroke="#666666" points="481.5,-68.88 356,-68.88 356,-35.38 481.5,-35.38 481.5,-68.88"/>
<text text-anchor="start" x="364" y="-55.38" font-family="Helvetica,sans-Serif" font-size="10.00">di::container::IotaView</text>
<text text-anchor="middle" x="418.75" y="-42.62" font-family="Helvetica,sans-Serif" font-size="10.00">&lt; T, Bound &gt;</text>
</a>
</g>
</g>
<!-- Node2 -->
<g id="Node000002" class="node">
<title>Node2</title>
<g id="a_Node000002"><a xlink:href="classdi_1_1container_1_1ViewInterface.html" target="_top" xlink:title=" ">
<polygon fill="white" stroke="#666666" points="320,-97.88 169.75,-97.88 169.75,-64.38 320,-64.38 320,-97.88"/>
<text text-anchor="start" x="177.75" y="-84.38" font-family="Helvetica,sans-Serif" font-size="10.00">di::container::ViewInterface</text>
<text text-anchor="middle" x="244.88" y="-71.62" font-family="Helvetica,sans-Serif" font-size="10.00">&lt; Self &gt;</text>
</a>
</g>
</g>
<!-- Node2&#45;&gt;Node1 -->
<g id="edge1_Node000001_Node000002" class="edge">
<title>Node2&#45;&gt;Node1</title>
<g id="a_edge1_Node000001_Node000002"><a xlink:title=" ">
<path fill="none" stroke="#63b8ff" d="M331.38,-66.7C339.55,-65.32 347.73,-63.94 355.62,-62.61"/>
<polygon fill="#63b8ff" stroke="#63b8ff" points="331.03,-63.21 321.75,-68.32 332.2,-70.11 331.03,-63.21"/>
</a>
</g>
</g>
<!-- Node3 -->
<g id="Node000003" class="node">
<title>Node3</title>
<g id="a_Node000003"><a xlink:href="classdi_1_1meta_1_1EnableView.html" target="_top" xlink:title=" ">
<polygon fill="white" stroke="#666666" points="133.75,-97.88 0,-97.88 0,-64.38 133.75,-64.38 133.75,-97.88"/>
<text text-anchor="start" x="8" y="-84.38" font-family="Helvetica,sans-Serif" font-size="10.00">di::meta::EnableView</text>
<text text-anchor="middle" x="66.88" y="-71.62" font-family="Helvetica,sans-Serif" font-size="10.00">&lt; Self, should_enable &gt;</text>
</a>
</g>
</g>
<!-- Node3&#45;&gt;Node2 -->
<g id="edge2_Node000002_Node000003" class="edge">
<title>Node3&#45;&gt;Node2</title>
<g id="a_edge2_Node000002_Node000003"><a xlink:title=" ">
<path fill="none" stroke="#63b8ff" d="M145.62,-81.12C153.52,-81.12 161.53,-81.12 169.39,-81.12"/>
<polygon fill="#63b8ff" stroke="#63b8ff" points="145.68,-77.63 135.68,-81.13 145.68,-84.63 145.68,-77.63"/>
</a>
</g>
</g>
<!-- Node4 -->
<g id="Node000004" class="node">
<title>Node4</title>
<g id="a_Node000004"><a xlink:href="classdi_1_1meta_1_1EnableBorrowedContainer.html" target="_top" xlink:title=" ">
<polygon fill="white" stroke="#666666" points="315.88,-46.25 173.88,-46.25 173.88,0 315.88,0 315.88,-46.25"/>
<text text-anchor="start" x="181.88" y="-32.75" font-family="Helvetica,sans-Serif" font-size="10.00">di::meta::EnableBorrowed</text>
<text text-anchor="start" x="181.88" y="-20" font-family="Helvetica,sans-Serif" font-size="10.00">Container&lt; Self, should</text>
<text text-anchor="middle" x="244.88" y="-7.25" font-family="Helvetica,sans-Serif" font-size="10.00">_enable &gt;</text>
</a>
</g>
</g>
<!-- Node4&#45;&gt;Node1 -->
<g id="edge3_Node000001_Node000004" class="edge">
<title>Node4&#45;&gt;Node1</title>
<g id="a_edge3_Node000001_Node000004"><a xlink:title=" ">
<path fill="none" stroke="#63b8ff" d="M327.4,-36.88C336.92,-38.49 346.52,-40.11 355.72,-41.66"/>
<polygon fill="#63b8ff" stroke="#63b8ff" points="328.21,-33.47 317.77,-35.26 327.05,-40.37 328.21,-33.47"/>
</a>
</g>
</g>
</g>
</svg>
