<?xml version="1.0" encoding="UTF-8" standalone="no"?>
<!DOCTYPE svg PUBLIC "-//W3C//DTD SVG 1.1//EN"
 "http://www.w3.org/Graphics/SVG/1.1/DTD/svg11.dtd">
<!-- Generated by graphviz version 10.0.1 (0)
 -->
<!-- Title: di::container::DropView&lt; View &gt; Pages: 1 -->
<svg width="520pt" height="118pt"
 viewBox="0.00 0.00 520.25 118.25" xmlns="http://www.w3.org/2000/svg" xmlns:xlink="http://www.w3.org/1999/xlink">
<g id="graph0" class="graph" transform="scale(1 1) rotate(0) translate(4 114.25)">
<title>di::container::DropView&lt; View &gt;</title>
<!-- Node1 -->
<g id="Node000001" class="node">
<title>Node1</title>
<g id="a_Node000001"><a xlink:title=" ">
<polygon fill="#999999" stroke="#666666" points="512.25,-78.25 382.25,-78.25 382.25,-44.75 512.25,-44.75 512.25,-78.25"/>
<text text-anchor="start" x="390.25" y="-64.75" font-family="Helvetica,sans-Serif" font-size="10.00">di::container::DropView</text>
<text text-anchor="middle" x="447.25" y="-52" font-family="Helvetica,sans-Serif" font-size="10.00">&lt; View &gt;</text>
</a>
</g>
</g>
<!-- Node2 -->
<g id="Node000002" class="node">
<title>Node2</title>
<g id="a_Node000002"><a xlink:href="classdi_1_1container_1_1ViewInterface.html" target="_top" xlink:title=" ">
<polygon fill="white" stroke="#666666" points="333.12,-110.25 182.88,-110.25 182.88,-76.75 333.12,-76.75 333.12,-110.25"/>
<text text-anchor="start" x="190.88" y="-96.75" font-family="Helvetica,sans-Serif" font-size="10.00">di::container::ViewInterface</text>
<text text-anchor="middle" x="258" y="-84" font-family="Helvetica,sans-Serif" font-size="10.00">&lt; DropView&lt; View &gt; &gt;</text>
</a>
</g>
</g>
<!-- Node2&#45;&gt;Node1 -->
<g id="edge1_Node000001_Node000002" class="edge">
<title>Node2&#45;&gt;Node1</title>
<g id="a_edge1_Node000001_Node000002"><a xlink:title=" ">
<path fill="none" stroke="#63b8ff" d="M344.52,-78.88C357.1,-76.73 369.88,-74.55 381.93,-72.49"/>
<polygon fill="#63b8ff" stroke="#63b8ff" points="344.3,-75.37 335.04,-80.51 345.48,-82.27 344.3,-75.37"/>
</a>
</g>
</g>
<!-- Node3 -->
<g id="Node000003" class="node">
<title>Node3</title>
<g id="a_Node000003"><a xlink:href="classdi_1_1meta_1_1EnableView.html" target="_top" xlink:title=" ">
<polygon fill="white" stroke="#666666" points="133.75,-110.25 0,-110.25 0,-76.75 133.75,-76.75 133.75,-110.25"/>
<text text-anchor="start" x="8" y="-96.75" font-family="Helvetica,sans-Serif" font-size="10.00">di::meta::EnableView</text>
<text text-anchor="middle" x="66.88" y="-84" font-family="Helvetica,sans-Serif" font-size="10.00">&lt; Self, should_enable &gt;</text>
</a>
</g>
</g>
<!-- Node3&#45;&gt;Node2 -->
<g id="edge2_Node000002_Node000003" class="edge">
<title>Node3&#45;&gt;Node2</title>
<g id="a_edge2_Node000002_Node000003"><a xlink:title=" ">
<path fill="none" stroke="#63b8ff" d="M145.2,-93.5C157.51,-93.5 170.23,-93.5 182.49,-93.5"/>
<polygon fill="#63b8ff" stroke="#63b8ff" points="145.54,-90 135.54,-93.5 145.54,-97 145.54,-90"/>
</a>
</g>
</g>
<!-- Node4 -->
<g id="Node000004" class="node">
<title>Node4</title>
<g id="a_Node000004"><a xlink:href="classdi_1_1meta_1_1EnableBorrowedContainer.html" target="_top" xlink:title=" ">
<polygon fill="white" stroke="#666666" points="346.25,-59 169.75,-59 169.75,0 346.25,0 346.25,-59"/>
<text text-anchor="start" x="177.75" y="-45.5" font-family="Helvetica,sans-Serif" font-size="10.00">di::meta::EnableBorrowed</text>
<text text-anchor="start" x="177.75" y="-32.75" font-family="Helvetica,sans-Serif" font-size="10.00">Container&lt; DropView&lt; View</text>
<text text-anchor="start" x="177.75" y="-20" font-family="Helvetica,sans-Serif" font-size="10.00"> &gt;, concepts::BorrowedContainer</text>
<text text-anchor="middle" x="258" y="-7.25" font-family="Helvetica,sans-Serif" font-size="10.00">&lt; View &gt; &gt;</text>
</a>
</g>
</g>
<!-- Node4&#45;&gt;Node1 -->
<g id="edge3_Node000001_Node000004" class="edge">
<title>Node4&#45;&gt;Node1</title>
<g id="a_edge3_Node000001_Node000004"><a xlink:title=" ">
<path fill="none" stroke="#63b8ff" d="M357.76,-46.38C365.95,-47.78 374.08,-49.17 381.91,-50.5"/>
<polygon fill="#63b8ff" stroke="#63b8ff" points="358.53,-42.96 348.09,-44.72 357.35,-49.86 358.53,-42.96"/>
</a>
</g>
</g>
</g>
</svg>
