<?xml version="1.0" encoding="UTF-8" standalone="no"?>
<!DOCTYPE svg PUBLIC "-//W3C//DTD SVG 1.1//EN"
 "http://www.w3.org/Graphics/SVG/1.1/DTD/svg11.dtd">
<!-- Generated by graphviz version 10.0.1 (0)
 -->
<!-- Title: di::container::MutableRingInterface&lt; Self, Value &gt; Pages: 1 -->
<svg width="236pt" height="181pt"
 viewBox="0.00 0.00 235.50 180.50" xmlns="http://www.w3.org/2000/svg" xmlns:xlink="http://www.w3.org/1999/xlink">
<g id="graph0" class="graph" transform="scale(1 1) rotate(0) translate(4 176.5)">
<title>di::container::MutableRingInterface&lt; Self, Value &gt;</title>
<!-- Node1 -->
<g id="Node000001" class="node">
<title>Node1</title>
<g id="a_Node000001"><a xlink:title=" ">
<polygon fill="#999999" stroke="#666666" points="185.38,-103 41.12,-103 41.12,-69.5 185.38,-69.5 185.38,-103"/>
<text text-anchor="start" x="49.12" y="-89.5" font-family="Helvetica,sans-Serif" font-size="10.00">di::container::MutableRing</text>
<text text-anchor="middle" x="113.25" y="-76.75" font-family="Helvetica,sans-Serif" font-size="10.00">Interface&lt; Self, Value &gt;</text>
</a>
</g>
</g>
<!-- Node3 -->
<g id="Node000003" class="node">
<title>Node3</title>
<g id="a_Node000003"><a xlink:href="classdi_1_1container_1_1Ring.html" target="_top" xlink:title=" ">
<polygon fill="white" stroke="#666666" points="104.5,-33.5 0,-33.5 0,0 104.5,0 104.5,-33.5"/>
<text text-anchor="start" x="8" y="-20" font-family="Helvetica,sans-Serif" font-size="10.00">di::container::Ring</text>
<text text-anchor="middle" x="52.25" y="-7.25" font-family="Helvetica,sans-Serif" font-size="10.00">&lt; Value &gt;</text>
</a>
</g>
</g>
<!-- Node1&#45;&gt;Node3 -->
<g id="edge2_Node000001_Node000003" class="edge">
<title>Node1&#45;&gt;Node3</title>
<g id="a_edge2_Node000001_Node000003"><a xlink:title=" ">
<path fill="none" stroke="#63b8ff" d="M91.28,-60.94C83.07,-51.85 73.95,-41.77 66.6,-33.63"/>
<polygon fill="#63b8ff" stroke="#63b8ff" points="88.48,-63.06 97.78,-68.13 93.67,-58.36 88.48,-63.06"/>
</a>
</g>
</g>
<!-- Node4 -->
<g id="Node000004" class="node">
<title>Node4</title>
<g id="a_Node000004"><a xlink:href="classdi_1_1container_1_1Ring.html" target="_top" xlink:title=" ">
<polygon fill="white" stroke="#666666" points="227.5,-33.5 123,-33.5 123,0 227.5,0 227.5,-33.5"/>
<text text-anchor="start" x="131" y="-20" font-family="Helvetica,sans-Serif" font-size="10.00">di::container::Ring</text>
<text text-anchor="middle" x="175.25" y="-7.25" font-family="Helvetica,sans-Serif" font-size="10.00">&lt; T, Alloc &gt;</text>
</a>
</g>
</g>
<!-- Node1&#45;&gt;Node4 -->
<g id="edge3_Node000001_Node000004" class="edge">
<title>Node1&#45;&gt;Node4</title>
<g id="a_edge3_Node000001_Node000004"><a xlink:title=" ">
<path fill="none" stroke="#63b8ff" d="M135.58,-60.94C143.93,-51.85 153.19,-41.77 160.66,-33.63"/>
<polygon fill="#63b8ff" stroke="#63b8ff" points="133.15,-58.41 128.97,-68.14 138.31,-63.14 133.15,-58.41"/>
</a>
</g>
</g>
<!-- Node2 -->
<g id="Node000002" class="node">
<title>Node2</title>
<g id="a_Node000002"><a xlink:href="classdi_1_1container_1_1ConstantRingInterface.html" target="_top" xlink:title=" ">
<polygon fill="white" stroke="#666666" points="187.25,-172.5 39.25,-172.5 39.25,-139 187.25,-139 187.25,-172.5"/>
<text text-anchor="start" x="47.25" y="-159" font-family="Helvetica,sans-Serif" font-size="10.00">di::container::ConstantRing</text>
<text text-anchor="middle" x="113.25" y="-146.25" font-family="Helvetica,sans-Serif" font-size="10.00">Interface&lt; Self, Value &gt;</text>
</a>
</g>
</g>
<!-- Node2&#45;&gt;Node1 -->
<g id="edge1_Node000001_Node000002" class="edge">
<title>Node2&#45;&gt;Node1</title>
<g id="a_edge1_Node000001_Node000002"><a xlink:title=" ">
<path fill="none" stroke="#63b8ff" d="M113.25,-127.31C113.25,-119.09 113.25,-110.34 113.25,-103.13"/>
<polygon fill="#63b8ff" stroke="#63b8ff" points="109.75,-127.24 113.25,-137.24 116.75,-127.24 109.75,-127.24"/>
</a>
</g>
</g>
</g>
</svg>
