<?xml version="1.0" encoding="UTF-8" standalone="no"?>
<!DOCTYPE svg PUBLIC "-//W3C//DTD SVG 1.1//EN"
 "http://www.w3.org/Graphics/SVG/1.1/DTD/svg11.dtd">
<!-- Generated by graphviz version 10.0.1 (0)
 -->
<!-- Title: libs/di/include/di/format Pages: 1 -->
<svg width="566pt" height="260pt"
 viewBox="0.00 0.00 566.00 259.75" xmlns="http://www.w3.org/2000/svg" xmlns:xlink="http://www.w3.org/1999/xlink">
<g id="graph0" class="graph" transform="scale(1 1) rotate(0) translate(4 255.75)">
<title>libs/di/include/di/format</title>
<g id="clust1" class="cluster">
<title>clusterdir_f95a1a0ab1b96e316090c1bcac3c2c99</title>
<g id="a_clust1"><a xlink:href="dir_f95a1a0ab1b96e316090c1bcac3c2c99.html" target="_top" xlink:title="di">
<polygon fill="#edf0f7" stroke="#7f7f7f" stroke-dasharray="5,2" points="8,-8 8,-243.75 550,-243.75 550,-8 8,-8"/>
<text text-anchor="middle" x="279" y="-230.25" font-family="Helvetica,sans-Serif" font-size="10.00">di</text>
</a>
</g>
</g>
<g id="clust2" class="cluster">
<title>clusterdir_e41b746b2bc627b26c4c637af42fb69a</title>
<g id="a_clust2"><a xlink:href="dir_e41b746b2bc627b26c4c637af42fb69a.html" target="_top">
<polygon fill="#edf0f7" stroke="#404040" stroke-width="2" points="146,-64.75 146,-215 280,-215 280,-64.75 146,-64.75"/>
</a>
</g>
</g>
<!-- dir_0669efae56692bb73da75efb5ebbccdf -->
<g id="node1" class="node">
<title>dir_0669efae56692bb73da75efb5ebbccdf</title>
<g id="a_node1"><a xlink:href="dir_0669efae56692bb73da75efb5ebbccdf.html" target="_top" xlink:title="function">
<polygon fill="#a2b4d6" stroke="red" points="457.88,-93.5 402.12,-93.5 402.12,-72.75 457.88,-72.75 457.88,-93.5"/>
<text text-anchor="middle" x="430" y="-80" font-family="Helvetica,sans-Serif" font-size="10.00">function</text>
</a>
</g>
</g>
<!-- dir_30ecaf38acae77be14fb9173f98f8612 -->
<g id="node2" class="node">
<title>dir_30ecaf38acae77be14fb9173f98f8612</title>
<g id="a_node2"><a xlink:href="dir_30ecaf38acae77be14fb9173f98f8612.html" target="_top" xlink:title="types">
<polygon fill="#a2b4d6" stroke="#404040" points="118.5,-36.75 75.5,-36.75 75.5,-16 118.5,-16 118.5,-36.75"/>
<text text-anchor="middle" x="97" y="-23.25" font-family="Helvetica,sans-Serif" font-size="10.00">types</text>
</a>
</g>
</g>
<!-- dir_4535887b2cdca47e625f259d07db0112 -->
<g id="node3" class="node">
<title>dir_4535887b2cdca47e625f259d07db0112</title>
<g id="a_node3"><a xlink:href="dir_4535887b2cdca47e625f259d07db0112.html" target="_top" xlink:title="util">
<polygon fill="#a2b4d6" stroke="#404040" points="437.88,-150.25 406.12,-150.25 406.12,-129.5 437.88,-129.5 437.88,-150.25"/>
<text text-anchor="middle" x="422" y="-136.75" font-family="Helvetica,sans-Serif" font-size="10.00">util</text>
</a>
</g>
</g>
<!-- dir_521de572ae4fe2915cc70a876c52f5b7 -->
<g id="node4" class="node">
<title>dir_521de572ae4fe2915cc70a876c52f5b7</title>
<g id="a_node4"><a xlink:href="dir_521de572ae4fe2915cc70a876c52f5b7.html" target="_top" xlink:title="container">
<polygon fill="#a2b4d6" stroke="red" points="301.88,-36.75 240.12,-36.75 240.12,-16 301.88,-16 301.88,-36.75"/>
<text text-anchor="middle" x="271" y="-23.25" font-family="Helvetica,sans-Serif" font-size="10.00">container</text>
</a>
</g>
</g>
<!-- dir_60d1624911c2c9f7b6f38e44ec895aaa -->
<g id="node5" class="node">
<title>dir_60d1624911c2c9f7b6f38e44ec895aaa</title>
<g id="a_node5"><a xlink:href="dir_60d1624911c2c9f7b6f38e44ec895aaa.html" target="_top" xlink:title="math">
<polygon fill="#a2b4d6" stroke="red" points="137.75,-93.5 96.25,-93.5 96.25,-72.75 137.75,-72.75 137.75,-93.5"/>
<text text-anchor="middle" x="117" y="-80" font-family="Helvetica,sans-Serif" font-size="10.00">math</text>
</a>
</g>
</g>
<!-- dir_942cfae36a92b6b1c4b510e99e852d40 -->
<g id="node6" class="node">
<title>dir_942cfae36a92b6b1c4b510e99e852d40</title>
<g id="a_node6"><a xlink:href="dir_942cfae36a92b6b1c4b510e99e852d40.html" target="_top" xlink:title="vocab">
<polygon fill="#a2b4d6" stroke="red" points="221.62,-36.75 176.38,-36.75 176.38,-16 221.62,-16 221.62,-36.75"/>
<text text-anchor="middle" x="199" y="-23.25" font-family="Helvetica,sans-Serif" font-size="10.00">vocab</text>
</a>
</g>
</g>
<!-- dir_a60d4453151dca6bdd8e5fcc350e379b -->
<g id="node7" class="node">
<title>dir_a60d4453151dca6bdd8e5fcc350e379b</title>
<g id="a_node7"><a xlink:href="dir_a60d4453151dca6bdd8e5fcc350e379b.html" target="_top" xlink:title="assert">
<polygon fill="#a2b4d6" stroke="#404040" points="542,-150.25 496,-150.25 496,-129.5 542,-129.5 542,-150.25"/>
<text text-anchor="middle" x="519" y="-136.75" font-family="Helvetica,sans-Serif" font-size="10.00">assert</text>
</a>
</g>
</g>
<!-- dir_aaf67126bd5deefc4d96704f76f22cc2 -->
<g id="node8" class="node">
<title>dir_aaf67126bd5deefc4d96704f76f22cc2</title>
<g id="a_node8"><a xlink:href="dir_aaf67126bd5deefc4d96704f76f22cc2.html" target="_top" xlink:title="platform">
<polygon fill="#a2b4d6" stroke="#404040" points="348,-150.25 290,-150.25 290,-129.5 348,-129.5 348,-150.25"/>
<text text-anchor="middle" x="319" y="-136.75" font-family="Helvetica,sans-Serif" font-size="10.00">platform</text>
</a>
</g>
</g>
<!-- dir_c63ec87f2f7fd7fbd5b69a04f05a2815 -->
<g id="node9" class="node">
<title>dir_c63ec87f2f7fd7fbd5b69a04f05a2815</title>
<g id="a_node9"><a xlink:href="dir_c63ec87f2f7fd7fbd5b69a04f05a2815.html" target="_top" xlink:title="parser">
<polygon fill="#a2b4d6" stroke="red" points="349.38,-93.5 302.62,-93.5 302.62,-72.75 349.38,-72.75 349.38,-93.5"/>
<text text-anchor="middle" x="326" y="-80" font-family="Helvetica,sans-Serif" font-size="10.00">parser</text>
</a>
</g>
</g>
<!-- dir_f555f996eeee1ebe901dc71e0c5de8ff -->
<g id="node10" class="node">
<title>dir_f555f996eeee1ebe901dc71e0c5de8ff</title>
<g id="a_node10"><a xlink:href="dir_f555f996eeee1ebe901dc71e0c5de8ff.html" target="_top" xlink:title="meta">
<polygon fill="#a2b4d6" stroke="#404040" points="57.75,-36.75 16.25,-36.75 16.25,-16 57.75,-16 57.75,-36.75"/>
<text text-anchor="middle" x="37" y="-23.25" font-family="Helvetica,sans-Serif" font-size="10.00">meta</text>
</a>
</g>
</g>
<!-- dir_e41b746b2bc627b26c4c637af42fb69a -->
<g id="node11" class="node">
<title>dir_e41b746b2bc627b26c4c637af42fb69a</title>
<text text-anchor="middle" x="247" y="-193.5" font-family="Helvetica,sans-Serif" font-size="10.00">format</text>
</g>
<!-- dir_e41b746b2bc627b26c4c637af42fb69a&#45;&gt;dir_0669efae56692bb73da75efb5ebbccdf -->
<g id="edge1" class="edge">
<title>dir_e41b746b2bc627b26c4c637af42fb69a&#45;&gt;dir_0669efae56692bb73da75efb5ebbccdf</title>
<g id="a_edge1"><a xlink:href="dir_000080_000083.html" target="_top">
<path fill="none" stroke="#63b8ff" d="M271.22,-193.81C319.56,-189.63 425.23,-177.52 447,-150.25 457.61,-136.96 450.99,-117.81 443.12,-103.53"/>
<polygon fill="#63b8ff" stroke="#63b8ff" points="446.12,-101.73 437.92,-95.03 440.16,-105.39 446.12,-101.73"/>
</a>
</g>
<g id="a_edge1&#45;headlabel"><a xlink:href="dir_000080_000083.html" target="_top" xlink:title="5">
<text text-anchor="middle" x="449.63" y="-98.9" font-family="Helvetica,sans-Serif" font-size="10.00" fill="#63b8ff">5</text>
</a>
</g>
</g>
<!-- dir_e41b746b2bc627b26c4c637af42fb69a&#45;&gt;dir_30ecaf38acae77be14fb9173f98f8612 -->
<g id="edge2" class="edge">
<title>dir_e41b746b2bc627b26c4c637af42fb69a&#45;&gt;dir_30ecaf38acae77be14fb9173f98f8612</title>
<g id="a_edge2"><a xlink:href="dir_000080_000184.html" target="_top">
<path fill="none" stroke="#63b8ff" d="M222.57,-189.6C183.22,-178.39 107.27,-150.15 78,-93.5 70.39,-78.76 76.62,-60.56 83.93,-46.98"/>
<polygon fill="#63b8ff" stroke="#63b8ff" points="86.85,-48.91 88.99,-38.54 80.84,-45.31 86.85,-48.91"/>
</a>
</g>
<g id="a_edge2&#45;headlabel"><a xlink:href="dir_000080_000184.html" target="_top" xlink:title="5">
<text text-anchor="middle" x="88.21" y="-49.03" font-family="Helvetica,sans-Serif" font-size="10.00" fill="#63b8ff">5</text>
</a>
</g>
</g>
<!-- dir_e41b746b2bc627b26c4c637af42fb69a&#45;&gt;dir_4535887b2cdca47e625f259d07db0112 -->
<g id="edge3" class="edge">
<title>dir_e41b746b2bc627b26c4c637af42fb69a&#45;&gt;dir_4535887b2cdca47e625f259d07db0112</title>
<g id="a_edge3"><a xlink:href="dir_000080_000189.html" target="_top">
<path fill="none" stroke="#63b8ff" d="M271.33,-188.01C303.76,-177.87 360.97,-159.97 394.8,-149.39"/>
<polygon fill="#63b8ff" stroke="#63b8ff" points="395.76,-152.75 404.26,-146.43 393.67,-146.07 395.76,-152.75"/>
</a>
</g>
<g id="a_edge3&#45;headlabel"><a xlink:href="dir_000080_000189.html" target="_top" xlink:title="6">
<text text-anchor="middle" x="394.62" y="-152.96" font-family="Helvetica,sans-Serif" font-size="10.00" fill="#63b8ff">6</text>
</a>
</g>
</g>
<!-- dir_e41b746b2bc627b26c4c637af42fb69a&#45;&gt;dir_521de572ae4fe2915cc70a876c52f5b7 -->
<g id="edge4" class="edge">
<title>dir_e41b746b2bc627b26c4c637af42fb69a&#45;&gt;dir_521de572ae4fe2915cc70a876c52f5b7</title>
<g id="a_edge4"><a xlink:href="dir_000080_000046.html" target="_top">
<path fill="none" stroke="#63b8ff" d="M271.19,-193.53C320.1,-188.81 428.32,-175.69 454,-150.25 472.38,-132.04 464.09,-119.21 467,-93.5 468.44,-80.8 475.15,-74.6 467,-64.75 447.95,-41.72 365.53,-32.76 313.82,-29.36"/>
<polygon fill="#63b8ff" stroke="#63b8ff" points="314.05,-25.87 303.85,-28.75 313.62,-32.85 314.05,-25.87"/>
</a>
</g>
<g id="a_edge4&#45;headlabel"><a xlink:href="dir_000080_000046.html" target="_top" xlink:title="32">
<text text-anchor="middle" x="316.3" y="-20.03" font-family="Helvetica,sans-Serif" font-size="10.00" fill="#63b8ff">32</text>
</a>
</g>
</g>
<!-- dir_e41b746b2bc627b26c4c637af42fb69a&#45;&gt;dir_942cfae36a92b6b1c4b510e99e852d40 -->
<g id="edge5" class="edge">
<title>dir_e41b746b2bc627b26c4c637af42fb69a&#45;&gt;dir_942cfae36a92b6b1c4b510e99e852d40</title>
<g id="a_edge5"><a xlink:href="dir_000080_000193.html" target="_top">
<path fill="none" stroke="#63b8ff" d="M271.15,-193.99C298.87,-190.67 343.2,-180.63 364,-150.25 375.29,-133.76 384.54,-94.82 358,-64.75 321.99,-23.95 290.85,-47.88 233.12,-36.82"/>
<polygon fill="#63b8ff" stroke="#63b8ff" points="234.02,-33.43 223.5,-34.65 232.49,-40.26 234.02,-33.43"/>
</a>
</g>
<g id="a_edge5&#45;headlabel"><a xlink:href="dir_000080_000193.html" target="_top" xlink:title="10">
<text text-anchor="middle" x="236.67" y="-28" font-family="Helvetica,sans-Serif" font-size="10.00" fill="#63b8ff">10</text>
</a>
</g>
</g>
<!-- dir_e41b746b2bc627b26c4c637af42fb69a&#45;&gt;dir_a60d4453151dca6bdd8e5fcc350e379b -->
<g id="edge6" class="edge">
<title>dir_e41b746b2bc627b26c4c637af42fb69a&#45;&gt;dir_a60d4453151dca6bdd8e5fcc350e379b</title>
<g id="a_edge6"><a xlink:href="dir_000080_000018.html" target="_top">
<path fill="none" stroke="#63b8ff" d="M271.45,-191.38C314.27,-183.84 405.55,-167.3 482,-150.25 482.82,-150.07 483.66,-149.88 484.5,-149.68"/>
<polygon fill="#63b8ff" stroke="#63b8ff" points="485.18,-153.12 494.09,-147.38 483.55,-146.31 485.18,-153.12"/>
</a>
</g>
<g id="a_edge6&#45;headlabel"><a xlink:href="dir_000080_000018.html" target="_top" xlink:title="2">
<text text-anchor="middle" x="483.82" y="-153.24" font-family="Helvetica,sans-Serif" font-size="10.00" fill="#63b8ff">2</text>
</a>
</g>
</g>
<!-- dir_e41b746b2bc627b26c4c637af42fb69a&#45;&gt;dir_aaf67126bd5deefc4d96704f76f22cc2 -->
<g id="edge7" class="edge">
<title>dir_e41b746b2bc627b26c4c637af42fb69a&#45;&gt;dir_aaf67126bd5deefc4d96704f76f22cc2</title>
<g id="a_edge7"><a xlink:href="dir_000080_000139.html" target="_top">
<path fill="none" stroke="#63b8ff" d="M259.21,-186.34C269.7,-178.36 285.06,-166.68 297.59,-157.16"/>
<polygon fill="#63b8ff" stroke="#63b8ff" points="299.44,-160.15 305.28,-151.31 295.2,-154.58 299.44,-160.15"/>
</a>
</g>
<g id="a_edge7&#45;headlabel"><a xlink:href="dir_000080_000139.html" target="_top" xlink:title="1">
<text text-anchor="middle" x="299.5" y="-160.54" font-family="Helvetica,sans-Serif" font-size="10.00" fill="#63b8ff">1</text>
</a>
</g>
</g>
<!-- dir_e41b746b2bc627b26c4c637af42fb69a&#45;&gt;dir_c63ec87f2f7fd7fbd5b69a04f05a2815 -->
<g id="edge8" class="edge">
<title>dir_e41b746b2bc627b26c4c637af42fb69a&#45;&gt;dir_c63ec87f2f7fd7fbd5b69a04f05a2815</title>
<g id="a_edge8"><a xlink:href="dir_000080_000137.html" target="_top">
<path fill="none" stroke="#63b8ff" d="M271.16,-193.31C297.34,-189.37 337.93,-178.75 357,-150.25 367.3,-134.86 355.76,-115.52 343.95,-101.73"/>
<polygon fill="#63b8ff" stroke="#63b8ff" points="346.78,-99.63 337.41,-94.69 341.65,-104.4 346.78,-99.63"/>
</a>
</g>
<g id="a_edge8&#45;headlabel"><a xlink:href="dir_000080_000137.html" target="_top" xlink:title="3">
<text text-anchor="middle" x="350.27" y="-96.1" font-family="Helvetica,sans-Serif" font-size="10.00" fill="#63b8ff">3</text>
</a>
</g>
</g>
<!-- dir_e41b746b2bc627b26c4c637af42fb69a&#45;&gt;dir_f555f996eeee1ebe901dc71e0c5de8ff -->
<g id="edge11" class="edge">
<title>dir_e41b746b2bc627b26c4c637af42fb69a&#45;&gt;dir_f555f996eeee1ebe901dc71e0c5de8ff</title>
<g id="a_edge11"><a xlink:href="dir_000080_000126.html" target="_top">
<path fill="none" stroke="#63b8ff" d="M222.57,-191.66C192.96,-186.03 142.39,-173.68 105,-150.25 75.5,-131.76 67.22,-124.31 51,-93.5 43.55,-79.35 40.06,-61.53 38.43,-47.95"/>
<polygon fill="#63b8ff" stroke="#63b8ff" points="41.96,-48.04 37.54,-38.41 34.99,-48.69 41.96,-48.04"/>
</a>
</g>
<g id="a_edge11&#45;headlabel"><a xlink:href="dir_000080_000126.html" target="_top" xlink:title="10">
<text text-anchor="middle" x="44.98" y="-46.72" font-family="Helvetica,sans-Serif" font-size="10.00" fill="#63b8ff">10</text>
</a>
</g>
</g>
<!-- dir_e975c0b35c1e73197e1608db31437f28 -->
<g id="node12" class="node">
<title>dir_e975c0b35c1e73197e1608db31437f28</title>
<g id="a_node12"><a xlink:href="dir_e975c0b35c1e73197e1608db31437f28.html" target="_top" xlink:title="builtin_formatter">
<polygon fill="#a2b4d6" stroke="#404040" points="272.25,-150.25 173.75,-150.25 173.75,-129.5 272.25,-129.5 272.25,-150.25"/>
<text text-anchor="middle" x="223" y="-136.75" font-family="Helvetica,sans-Serif" font-size="10.00">builtin_formatter</text>
</a>
</g>
</g>
<!-- dir_e41b746b2bc627b26c4c637af42fb69a&#45;&gt;dir_e975c0b35c1e73197e1608db31437f28 -->
<g id="edge10" class="edge">
<title>dir_e41b746b2bc627b26c4c637af42fb69a&#45;&gt;dir_e975c0b35c1e73197e1608db31437f28</title>
<g id="a_edge10"><a xlink:href="dir_000080_000029.html" target="_top">
<path fill="none" stroke="#63b8ff" d="M243.04,-186.58C239.97,-179.58 235.6,-169.61 231.72,-160.77"/>
<polygon fill="#63b8ff" stroke="#63b8ff" points="235.04,-159.62 227.82,-151.87 228.63,-162.43 235.04,-159.62"/>
</a>
</g>
<g id="a_edge10&#45;headlabel"><a xlink:href="dir_000080_000029.html" target="_top" xlink:title="1">
<text text-anchor="middle" x="238.48" y="-157.26" font-family="Helvetica,sans-Serif" font-size="10.00" fill="#63b8ff">1</text>
</a>
</g>
</g>
<!-- dir_e6fc299be1ce7cfcb6bece793d7977d6 -->
<g id="node13" class="node">
<title>dir_e6fc299be1ce7cfcb6bece793d7977d6</title>
<g id="a_node13"><a xlink:href="dir_e6fc299be1ce7cfcb6bece793d7977d6.html" target="_top" xlink:title="concepts">
<polygon fill="#a2b4d6" stroke="#404040" points="215.75,-93.5 156.25,-93.5 156.25,-72.75 215.75,-72.75 215.75,-93.5"/>
<text text-anchor="middle" x="186" y="-80" font-family="Helvetica,sans-Serif" font-size="10.00">concepts</text>
</a>
</g>
</g>
<!-- dir_e41b746b2bc627b26c4c637af42fb69a&#45;&gt;dir_e6fc299be1ce7cfcb6bece793d7977d6 -->
<g id="edge9" class="edge">
<title>dir_e41b746b2bc627b26c4c637af42fb69a&#45;&gt;dir_e6fc299be1ce7cfcb6bece793d7977d6</title>
<g id="a_edge9"><a xlink:href="dir_000080_000039.html" target="_top">
<path fill="none" stroke="#63b8ff" d="M222.84,-189.54C203.42,-183.24 177.39,-171.27 165,-150.25 156.32,-135.53 163.71,-116.82 172.02,-103.06"/>
<polygon fill="#63b8ff" stroke="#63b8ff" points="174.82,-105.17 177.47,-94.91 169,-101.29 174.82,-105.17"/>
</a>
</g>
<g id="a_edge9&#45;headlabel"><a xlink:href="dir_000080_000039.html" target="_top" xlink:title="14">
<text text-anchor="middle" x="176.03" y="-105.36" font-family="Helvetica,sans-Serif" font-size="10.00" fill="#63b8ff">14</text>
</a>
</g>
</g>
<!-- dir_e975c0b35c1e73197e1608db31437f28&#45;&gt;dir_0669efae56692bb73da75efb5ebbccdf -->
<g id="edge12" class="edge">
<title>dir_e975c0b35c1e73197e1608db31437f28&#45;&gt;dir_0669efae56692bb73da75efb5ebbccdf</title>
<g id="a_edge12"><a xlink:href="dir_000029_000083.html" target="_top">
<path fill="none" stroke="#63b8ff" d="M260.01,-129.09C296.89,-119.33 353.32,-104.41 390.92,-94.46"/>
<polygon fill="#63b8ff" stroke="#63b8ff" points="391.7,-97.87 400.48,-91.93 389.91,-91.11 391.7,-97.87"/>
</a>
</g>
<g id="a_edge12&#45;headlabel"><a xlink:href="dir_000029_000083.html" target="_top" xlink:title="1">
<text text-anchor="middle" x="390.42" y="-98.03" font-family="Helvetica,sans-Serif" font-size="10.00" fill="#63b8ff">1</text>
</a>
</g>
</g>
<!-- dir_e975c0b35c1e73197e1608db31437f28&#45;&gt;dir_30ecaf38acae77be14fb9173f98f8612 -->
<g id="edge13" class="edge">
<title>dir_e975c0b35c1e73197e1608db31437f28&#45;&gt;dir_30ecaf38acae77be14fb9173f98f8612</title>
<g id="a_edge13"><a xlink:href="dir_000029_000184.html" target="_top">
<path fill="none" stroke="#63b8ff" d="M174.78,-129.02C140.07,-120.84 97.59,-108.19 87,-93.5 77.36,-80.12 81.49,-61.23 87.09,-47.07"/>
<polygon fill="#63b8ff" stroke="#63b8ff" points="90.12,-48.85 91.03,-38.3 83.74,-45.98 90.12,-48.85"/>
</a>
</g>
<g id="a_edge13&#45;headlabel"><a xlink:href="dir_000029_000184.html" target="_top" xlink:title="3">
<text text-anchor="middle" x="91.86" y="-48.79" font-family="Helvetica,sans-Serif" font-size="10.00" fill="#63b8ff">3</text>
</a>
</g>
</g>
<!-- dir_e975c0b35c1e73197e1608db31437f28&#45;&gt;dir_521de572ae4fe2915cc70a876c52f5b7 -->
<g id="edge14" class="edge">
<title>dir_e975c0b35c1e73197e1608db31437f28&#45;&gt;dir_521de572ae4fe2915cc70a876c52f5b7</title>
<g id="a_edge14"><a xlink:href="dir_000029_000046.html" target="_top">
<path fill="none" stroke="#63b8ff" d="M227.09,-129.37C234.85,-111.36 251.84,-71.89 262.26,-47.68"/>
<polygon fill="#63b8ff" stroke="#63b8ff" points="265.44,-49.13 266.18,-38.57 259.01,-46.37 265.44,-49.13"/>
</a>
</g>
<g id="a_edge14&#45;headlabel"><a xlink:href="dir_000029_000046.html" target="_top" xlink:title="14">
<text text-anchor="middle" x="267.23" y="-49.04" font-family="Helvetica,sans-Serif" font-size="10.00" fill="#63b8ff">14</text>
</a>
</g>
</g>
<!-- dir_e975c0b35c1e73197e1608db31437f28&#45;&gt;dir_60d1624911c2c9f7b6f38e44ec895aaa -->
<g id="edge15" class="edge">
<title>dir_e975c0b35c1e73197e1608db31437f28&#45;&gt;dir_60d1624911c2c9f7b6f38e44ec895aaa</title>
<g id="a_edge15"><a xlink:href="dir_000029_000121.html" target="_top">
<path fill="none" stroke="#63b8ff" d="M204.05,-129.09C187.92,-120.76 164.5,-108.66 146.01,-99.11"/>
<polygon fill="#63b8ff" stroke="#63b8ff" points="147.62,-96 137.13,-94.52 144.41,-102.22 147.62,-96"/>
</a>
</g>
<g id="a_edge15&#45;headlabel"><a xlink:href="dir_000029_000121.html" target="_top" xlink:title="3">
<text text-anchor="middle" x="150.77" y="-91.31" font-family="Helvetica,sans-Serif" font-size="10.00" fill="#63b8ff">3</text>
</a>
</g>
</g>
<!-- dir_e975c0b35c1e73197e1608db31437f28&#45;&gt;dir_942cfae36a92b6b1c4b510e99e852d40 -->
<g id="edge16" class="edge">
<title>dir_e975c0b35c1e73197e1608db31437f28&#45;&gt;dir_942cfae36a92b6b1c4b510e99e852d40</title>
<g id="a_edge16"><a xlink:href="dir_000029_000193.html" target="_top">
<path fill="none" stroke="#63b8ff" d="M225.26,-129C228.13,-114.52 231.93,-86.86 225,-64.75 222.96,-58.24 219.34,-51.88 215.44,-46.3"/>
<polygon fill="#63b8ff" stroke="#63b8ff" points="218.23,-44.18 209.33,-38.44 212.7,-48.48 218.23,-44.18"/>
</a>
</g>
<g id="a_edge16&#45;headlabel"><a xlink:href="dir_000029_000193.html" target="_top" xlink:title="1">
<text text-anchor="middle" x="221.75" y="-40.96" font-family="Helvetica,sans-Serif" font-size="10.00" fill="#63b8ff">1</text>
</a>
</g>
</g>
<!-- dir_e975c0b35c1e73197e1608db31437f28&#45;&gt;dir_c63ec87f2f7fd7fbd5b69a04f05a2815 -->
<g id="edge17" class="edge">
<title>dir_e975c0b35c1e73197e1608db31437f28&#45;&gt;dir_c63ec87f2f7fd7fbd5b69a04f05a2815</title>
<g id="a_edge17"><a xlink:href="dir_000029_000137.html" target="_top">
<path fill="none" stroke="#63b8ff" d="M241.41,-129.09C257.09,-120.76 279.85,-108.66 297.81,-99.11"/>
<polygon fill="#63b8ff" stroke="#63b8ff" points="299.22,-102.32 306.41,-94.54 295.94,-96.14 299.22,-102.32"/>
</a>
</g>
<g id="a_edge17&#45;headlabel"><a xlink:href="dir_000029_000137.html" target="_top" xlink:title="1">
<text text-anchor="middle" x="298.72" y="-102.68" font-family="Helvetica,sans-Serif" font-size="10.00" fill="#63b8ff">1</text>
</a>
</g>
</g>
<!-- dir_e975c0b35c1e73197e1608db31437f28&#45;&gt;dir_f555f996eeee1ebe901dc71e0c5de8ff -->
<g id="edge19" class="edge">
<title>dir_e975c0b35c1e73197e1608db31437f28&#45;&gt;dir_f555f996eeee1ebe901dc71e0c5de8ff</title>
<g id="a_edge19"><a xlink:href="dir_000029_000126.html" target="_top">
<path fill="none" stroke="#63b8ff" d="M180.29,-129.02C143.58,-119.93 94.1,-105.99 78,-93.5 62.67,-81.61 51.64,-62.25 44.9,-47.55"/>
<polygon fill="#63b8ff" stroke="#63b8ff" points="48.14,-46.22 41.02,-38.37 41.7,-48.95 48.14,-46.22"/>
</a>
</g>
<g id="a_edge19&#45;headlabel"><a xlink:href="dir_000029_000126.html" target="_top" xlink:title="4">
<text text-anchor="middle" x="51.57" y="-43.9" font-family="Helvetica,sans-Serif" font-size="10.00" fill="#63b8ff">4</text>
</a>
</g>
</g>
<!-- dir_e975c0b35c1e73197e1608db31437f28&#45;&gt;dir_e6fc299be1ce7cfcb6bece793d7977d6 -->
<g id="edge18" class="edge">
<title>dir_e975c0b35c1e73197e1608db31437f28&#45;&gt;dir_e6fc299be1ce7cfcb6bece793d7977d6</title>
<g id="a_edge18"><a xlink:href="dir_000029_000039.html" target="_top">
<path fill="none" stroke="#63b8ff" d="M216.39,-129.09C211.54,-121.92 204.82,-111.98 198.93,-103.26"/>
<polygon fill="#63b8ff" stroke="#63b8ff" points="201.9,-101.41 193.41,-95.08 196.1,-105.33 201.9,-101.41"/>
</a>
</g>
<g id="a_edge18&#45;headlabel"><a xlink:href="dir_000029_000039.html" target="_top" xlink:title="2">
<text text-anchor="middle" x="205.42" y="-98.42" font-family="Helvetica,sans-Serif" font-size="10.00" fill="#63b8ff">2</text>
</a>
</g>
</g>
<!-- dir_e6fc299be1ce7cfcb6bece793d7977d6&#45;&gt;dir_30ecaf38acae77be14fb9173f98f8612 -->
<g id="edge20" class="edge">
<title>dir_e6fc299be1ce7cfcb6bece793d7977d6&#45;&gt;dir_30ecaf38acae77be14fb9173f98f8612</title>
<g id="a_edge20"><a xlink:href="dir_000039_000184.html" target="_top">
<path fill="none" stroke="#63b8ff" d="M170.09,-72.34C156.8,-64.16 137.61,-52.36 122.23,-42.9"/>
<polygon fill="#63b8ff" stroke="#63b8ff" points="124.41,-40.13 114.06,-37.87 120.75,-46.09 124.41,-40.13"/>
</a>
</g>
<g id="a_edge20&#45;headlabel"><a xlink:href="dir_000039_000184.html" target="_top" xlink:title="1">
<text text-anchor="middle" x="127.67" y="-35.68" font-family="Helvetica,sans-Serif" font-size="10.00" fill="#63b8ff">1</text>
</a>
</g>
</g>
<!-- dir_e6fc299be1ce7cfcb6bece793d7977d6&#45;&gt;dir_521de572ae4fe2915cc70a876c52f5b7 -->
<g id="edge21" class="edge">
<title>dir_e6fc299be1ce7cfcb6bece793d7977d6&#45;&gt;dir_521de572ae4fe2915cc70a876c52f5b7</title>
<g id="a_edge21"><a xlink:href="dir_000039_000046.html" target="_top">
<path fill="none" stroke="#63b8ff" d="M201.2,-72.34C213.77,-64.24 231.86,-52.58 246.48,-43.17"/>
<polygon fill="#63b8ff" stroke="#63b8ff" points="248.15,-46.26 254.66,-37.9 244.36,-40.37 248.15,-46.26"/>
</a>
</g>
<g id="a_edge21&#45;headlabel"><a xlink:href="dir_000039_000046.html" target="_top" xlink:title="2">
<text text-anchor="middle" x="247.94" y="-46.64" font-family="Helvetica,sans-Serif" font-size="10.00" fill="#63b8ff">2</text>
</a>
</g>
</g>
<!-- dir_e6fc299be1ce7cfcb6bece793d7977d6&#45;&gt;dir_942cfae36a92b6b1c4b510e99e852d40 -->
<g id="edge22" class="edge">
<title>dir_e6fc299be1ce7cfcb6bece793d7977d6&#45;&gt;dir_942cfae36a92b6b1c4b510e99e852d40</title>
<g id="a_edge22"><a xlink:href="dir_000039_000193.html" target="_top">
<path fill="none" stroke="#63b8ff" d="M188.32,-72.34C189.91,-65.64 192.08,-56.51 194.05,-48.23"/>
<polygon fill="#63b8ff" stroke="#63b8ff" points="197.44,-49.09 196.35,-38.55 190.63,-47.47 197.44,-49.09"/>
</a>
</g>
<g id="a_edge22&#45;headlabel"><a xlink:href="dir_000039_000193.html" target="_top" xlink:title="1">
<text text-anchor="middle" x="199.72" y="-48.64" font-family="Helvetica,sans-Serif" font-size="10.00" fill="#63b8ff">1</text>
</a>
</g>
</g>
<!-- dir_e6fc299be1ce7cfcb6bece793d7977d6&#45;&gt;dir_f555f996eeee1ebe901dc71e0c5de8ff -->
<g id="edge23" class="edge">
<title>dir_e6fc299be1ce7cfcb6bece793d7977d6&#45;&gt;dir_f555f996eeee1ebe901dc71e0c5de8ff</title>
<g id="a_edge23"><a xlink:href="dir_000039_000126.html" target="_top">
<path fill="none" stroke="#63b8ff" d="M168.25,-72.39C163.09,-69.74 157.39,-66.99 152,-64.75 150.99,-64.33 102.56,-48.62 68.87,-37.7"/>
<polygon fill="#63b8ff" stroke="#63b8ff" points="70.14,-34.43 59.55,-34.68 67.98,-41.09 70.14,-34.43"/>
</a>
</g>
<g id="a_edge23&#45;headlabel"><a xlink:href="dir_000039_000126.html" target="_top" xlink:title="2">
<text text-anchor="middle" x="72.99" y="-29.25" font-family="Helvetica,sans-Serif" font-size="10.00" fill="#63b8ff">2</text>
</a>
</g>
</g>
</g>
</svg>
