<?xml version="1.0" encoding="UTF-8" standalone="no"?>
<!DOCTYPE svg PUBLIC "-//W3C//DTD SVG 1.1//EN"
 "http://www.w3.org/Graphics/SVG/1.1/DTD/svg11.dtd">
<!-- Generated by graphviz version 10.0.1 (0)
 -->
<!-- Title: libs/di/include/di/random Pages: 1 -->
<svg width="381pt" height="260pt"
 viewBox="0.00 0.00 381.00 259.75" xmlns="http://www.w3.org/2000/svg" xmlns:xlink="http://www.w3.org/1999/xlink">
<g id="graph0" class="graph" transform="scale(1 1) rotate(0) translate(4 255.75)">
<title>libs/di/include/di/random</title>
<g id="clust1" class="cluster">
<title>clusterdir_f95a1a0ab1b96e316090c1bcac3c2c99</title>
<g id="a_clust1"><a xlink:href="dir_f95a1a0ab1b96e316090c1bcac3c2c99.html" target="_top" xlink:title="di">
<polygon fill="#edf0f7" stroke="#7f7f7f" stroke-dasharray="5,2" points="8,-8 8,-243.75 365,-243.75 365,-8 8,-8"/>
<text text-anchor="middle" x="186.5" y="-230.25" font-family="Helvetica,sans-Serif" font-size="10.00">di</text>
</a>
</g>
</g>
<g id="clust2" class="cluster">
<title>clusterdir_b53b5446bfdc9bc3aeb10a5b96312bdd</title>
<g id="a_clust2"><a xlink:href="dir_b53b5446bfdc9bc3aeb10a5b96312bdd.html" target="_top">
<polygon fill="#edf0f7" stroke="#404040" stroke-width="2" points="16,-64.75 16,-215 205,-215 205,-64.75 16,-64.75"/>
</a>
</g>
</g>
<!-- dir_0669efae56692bb73da75efb5ebbccdf -->
<g id="node1" class="node">
<title>dir_0669efae56692bb73da75efb5ebbccdf</title>
<g id="a_node1"><a xlink:href="dir_0669efae56692bb73da75efb5ebbccdf.html" target="_top" xlink:title="function">
<polygon fill="#a2b4d6" stroke="red" points="107.88,-36.75 52.12,-36.75 52.12,-16 107.88,-16 107.88,-36.75"/>
<text text-anchor="middle" x="80" y="-23.25" font-family="Helvetica,sans-Serif" font-size="10.00">function</text>
</a>
</g>
</g>
<!-- dir_30ecaf38acae77be14fb9173f98f8612 -->
<g id="node2" class="node">
<title>dir_30ecaf38acae77be14fb9173f98f8612</title>
<g id="a_node2"><a xlink:href="dir_30ecaf38acae77be14fb9173f98f8612.html" target="_top" xlink:title="types">
<polygon fill="#a2b4d6" stroke="#404040" points="336.5,-93.5 293.5,-93.5 293.5,-72.75 336.5,-72.75 336.5,-93.5"/>
<text text-anchor="middle" x="315" y="-80" font-family="Helvetica,sans-Serif" font-size="10.00">types</text>
</a>
</g>
</g>
<!-- dir_60d1624911c2c9f7b6f38e44ec895aaa -->
<g id="node3" class="node">
<title>dir_60d1624911c2c9f7b6f38e44ec895aaa</title>
<g id="a_node3"><a xlink:href="dir_60d1624911c2c9f7b6f38e44ec895aaa.html" target="_top" xlink:title="math">
<polygon fill="#a2b4d6" stroke="red" points="254.75,-93.5 213.25,-93.5 213.25,-72.75 254.75,-72.75 254.75,-93.5"/>
<text text-anchor="middle" x="234" y="-80" font-family="Helvetica,sans-Serif" font-size="10.00">math</text>
</a>
</g>
</g>
<!-- dir_f555f996eeee1ebe901dc71e0c5de8ff -->
<g id="node4" class="node">
<title>dir_f555f996eeee1ebe901dc71e0c5de8ff</title>
<g id="a_node4"><a xlink:href="dir_f555f996eeee1ebe901dc71e0c5de8ff.html" target="_top" xlink:title="meta">
<polygon fill="#a2b4d6" stroke="#404040" points="294.75,-36.75 253.25,-36.75 253.25,-16 294.75,-16 294.75,-36.75"/>
<text text-anchor="middle" x="274" y="-23.25" font-family="Helvetica,sans-Serif" font-size="10.00">meta</text>
</a>
</g>
</g>
<!-- dir_b53b5446bfdc9bc3aeb10a5b96312bdd -->
<g id="node5" class="node">
<title>dir_b53b5446bfdc9bc3aeb10a5b96312bdd</title>
<text text-anchor="middle" x="80" y="-193.5" font-family="Helvetica,sans-Serif" font-size="10.00">random</text>
</g>
<!-- dir_764bc2cf7efe5d7246bd38acdd69b920 -->
<g id="node6" class="node">
<title>dir_764bc2cf7efe5d7246bd38acdd69b920</title>
<g id="a_node6"><a xlink:href="dir_764bc2cf7efe5d7246bd38acdd69b920.html" target="_top" xlink:title="concepts">
<polygon fill="#a2b4d6" stroke="#404040" points="109.75,-93.5 50.25,-93.5 50.25,-72.75 109.75,-72.75 109.75,-93.5"/>
<text text-anchor="middle" x="80" y="-80" font-family="Helvetica,sans-Serif" font-size="10.00">concepts</text>
</a>
</g>
</g>
<!-- dir_b53b5446bfdc9bc3aeb10a5b96312bdd&#45;&gt;dir_764bc2cf7efe5d7246bd38acdd69b920 -->
<g id="edge2" class="edge">
<title>dir_b53b5446bfdc9bc3aeb10a5b96312bdd&#45;&gt;dir_764bc2cf7efe5d7246bd38acdd69b920</title>
<g id="a_edge2"><a xlink:href="dir_000146_000041.html" target="_top">
<path fill="none" stroke="#63b8ff" d="M66.07,-186.32C55.32,-178.23 41.25,-165.43 35,-150.25 27.51,-132.07 42.08,-113.77 56.59,-101.04"/>
<polygon fill="#63b8ff" stroke="#63b8ff" points="58.68,-103.86 64.24,-94.84 54.27,-98.42 58.68,-103.86"/>
</a>
</g>
<g id="a_edge2&#45;headlabel"><a xlink:href="dir_000146_000041.html" target="_top" xlink:title="2">
<text text-anchor="middle" x="58.85" y="-104.25" font-family="Helvetica,sans-Serif" font-size="10.00" fill="#63b8ff">2</text>
</a>
</g>
</g>
<!-- dir_6efc779ef093693d5f2860686cf6c9b1 -->
<g id="node7" class="node">
<title>dir_6efc779ef093693d5f2860686cf6c9b1</title>
<g id="a_node7"><a xlink:href="dir_6efc779ef093693d5f2860686cf6c9b1.html" target="_top" xlink:title="distribution">
<polygon fill="#a2b4d6" stroke="#404040" points="115.75,-150.25 44.25,-150.25 44.25,-129.5 115.75,-129.5 115.75,-150.25"/>
<text text-anchor="middle" x="80" y="-136.75" font-family="Helvetica,sans-Serif" font-size="10.00">distribution</text>
</a>
</g>
</g>
<!-- dir_b53b5446bfdc9bc3aeb10a5b96312bdd&#45;&gt;dir_6efc779ef093693d5f2860686cf6c9b1 -->
<g id="edge1" class="edge">
<title>dir_b53b5446bfdc9bc3aeb10a5b96312bdd&#45;&gt;dir_6efc779ef093693d5f2860686cf6c9b1</title>
<g id="a_edge1"><a xlink:href="dir_000146_000061.html" target="_top">
<path fill="none" stroke="#63b8ff" d="M80,-186.58C80,-179.89 80,-170.49 80,-161.96"/>
<polygon fill="#63b8ff" stroke="#63b8ff" points="83.5,-162 80,-152 76.5,-162 83.5,-162"/>
</a>
</g>
<g id="a_edge1&#45;headlabel"><a xlink:href="dir_000146_000061.html" target="_top" xlink:title="1">
<text text-anchor="middle" x="86.34" y="-160.95" font-family="Helvetica,sans-Serif" font-size="10.00" fill="#63b8ff">1</text>
</a>
</g>
</g>
<!-- dir_93fb39ec01a9a91046d96c3c4d58a6fe -->
<g id="node8" class="node">
<title>dir_93fb39ec01a9a91046d96c3c4d58a6fe</title>
<g id="a_node8"><a xlink:href="dir_93fb39ec01a9a91046d96c3c4d58a6fe.html" target="_top" xlink:title="generator">
<polygon fill="#a2b4d6" stroke="#404040" points="196.62,-150.25 133.38,-150.25 133.38,-129.5 196.62,-129.5 196.62,-150.25"/>
<text text-anchor="middle" x="165" y="-136.75" font-family="Helvetica,sans-Serif" font-size="10.00">generator</text>
</a>
</g>
</g>
<!-- dir_b53b5446bfdc9bc3aeb10a5b96312bdd&#45;&gt;dir_93fb39ec01a9a91046d96c3c4d58a6fe -->
<g id="edge3" class="edge">
<title>dir_b53b5446bfdc9bc3aeb10a5b96312bdd&#45;&gt;dir_93fb39ec01a9a91046d96c3c4d58a6fe</title>
<g id="a_edge3"><a xlink:href="dir_000146_000084.html" target="_top">
<path fill="none" stroke="#63b8ff" d="M94.42,-186.34C106.96,-178.26 125.42,-166.37 140.31,-156.78"/>
<polygon fill="#63b8ff" stroke="#63b8ff" points="142.15,-159.75 148.66,-151.4 138.36,-153.87 142.15,-159.75"/>
</a>
</g>
<g id="a_edge3&#45;headlabel"><a xlink:href="dir_000146_000084.html" target="_top" xlink:title="1">
<text text-anchor="middle" x="141.94" y="-160.14" font-family="Helvetica,sans-Serif" font-size="10.00" fill="#63b8ff">1</text>
</a>
</g>
</g>
<!-- dir_764bc2cf7efe5d7246bd38acdd69b920&#45;&gt;dir_0669efae56692bb73da75efb5ebbccdf -->
<g id="edge4" class="edge">
<title>dir_764bc2cf7efe5d7246bd38acdd69b920&#45;&gt;dir_0669efae56692bb73da75efb5ebbccdf</title>
<g id="a_edge4"><a xlink:href="dir_000041_000083.html" target="_top">
<path fill="none" stroke="#63b8ff" d="M80,-72.34C80,-65.72 80,-56.72 80,-48.52"/>
<polygon fill="#63b8ff" stroke="#63b8ff" points="83.5,-48.59 80,-38.59 76.5,-48.59 83.5,-48.59"/>
</a>
</g>
<g id="a_edge4&#45;headlabel"><a xlink:href="dir_000041_000083.html" target="_top" xlink:title="1">
<text text-anchor="middle" x="86.34" y="-47.55" font-family="Helvetica,sans-Serif" font-size="10.00" fill="#63b8ff">1</text>
</a>
</g>
</g>
<!-- dir_764bc2cf7efe5d7246bd38acdd69b920&#45;&gt;dir_f555f996eeee1ebe901dc71e0c5de8ff -->
<g id="edge5" class="edge">
<title>dir_764bc2cf7efe5d7246bd38acdd69b920&#45;&gt;dir_f555f996eeee1ebe901dc71e0c5de8ff</title>
<g id="a_edge5"><a xlink:href="dir_000041_000126.html" target="_top">
<path fill="none" stroke="#63b8ff" d="M97.28,-72.27C102.53,-69.56 108.4,-66.8 114,-64.75 156.94,-49.03 208.85,-38.34 241.65,-32.55"/>
<polygon fill="#63b8ff" stroke="#63b8ff" points="242.06,-36.03 251.32,-30.89 240.88,-29.13 242.06,-36.03"/>
</a>
</g>
<g id="a_edge5&#45;headlabel"><a xlink:href="dir_000041_000126.html" target="_top" xlink:title="3">
<text text-anchor="middle" x="240.49" y="-36.05" font-family="Helvetica,sans-Serif" font-size="10.00" fill="#63b8ff">3</text>
</a>
</g>
</g>
<!-- dir_6efc779ef093693d5f2860686cf6c9b1&#45;&gt;dir_60d1624911c2c9f7b6f38e44ec895aaa -->
<g id="edge6" class="edge">
<title>dir_6efc779ef093693d5f2860686cf6c9b1&#45;&gt;dir_60d1624911c2c9f7b6f38e44ec895aaa</title>
<g id="a_edge6"><a xlink:href="dir_000061_000121.html" target="_top">
<path fill="none" stroke="#63b8ff" d="M108.5,-129.04C132.32,-120.78 167.48,-108.49 202.61,-95.8"/>
<polygon fill="#63b8ff" stroke="#63b8ff" points="203.37,-99.25 211.58,-92.55 200.99,-92.67 203.37,-99.25"/>
</a>
</g>
<g id="a_edge6&#45;headlabel"><a xlink:href="dir_000061_000121.html" target="_top" xlink:title="1">
<text text-anchor="middle" x="202.38" y="-99.5" font-family="Helvetica,sans-Serif" font-size="10.00" fill="#63b8ff">1</text>
</a>
</g>
</g>
<!-- dir_6efc779ef093693d5f2860686cf6c9b1&#45;&gt;dir_f555f996eeee1ebe901dc71e0c5de8ff -->
<g id="edge8" class="edge">
<title>dir_6efc779ef093693d5f2860686cf6c9b1&#45;&gt;dir_f555f996eeee1ebe901dc71e0c5de8ff</title>
<g id="a_edge8"><a xlink:href="dir_000061_000126.html" target="_top">
<path fill="none" stroke="#63b8ff" d="M115.97,-131.08C168.08,-119.63 258.96,-99.03 264,-93.5 275.01,-81.43 276.94,-62.64 276.44,-48.17"/>
<polygon fill="#63b8ff" stroke="#63b8ff" points="279.94,-48.05 275.67,-38.35 272.96,-48.6 279.94,-48.05"/>
</a>
</g>
<g id="a_edge8&#45;headlabel"><a xlink:href="dir_000061_000126.html" target="_top" xlink:title="2">
<text text-anchor="middle" x="282.94" y="-46.77" font-family="Helvetica,sans-Serif" font-size="10.00" fill="#63b8ff">2</text>
</a>
</g>
</g>
<!-- dir_6efc779ef093693d5f2860686cf6c9b1&#45;&gt;dir_764bc2cf7efe5d7246bd38acdd69b920 -->
<g id="edge7" class="edge">
<title>dir_6efc779ef093693d5f2860686cf6c9b1&#45;&gt;dir_764bc2cf7efe5d7246bd38acdd69b920</title>
<g id="a_edge7"><a xlink:href="dir_000061_000041.html" target="_top">
<path fill="none" stroke="#63b8ff" d="M80,-129.09C80,-122.47 80,-113.47 80,-105.27"/>
<polygon fill="#63b8ff" stroke="#63b8ff" points="83.5,-105.34 80,-95.34 76.5,-105.34 83.5,-105.34"/>
</a>
</g>
<g id="a_edge7&#45;headlabel"><a xlink:href="dir_000061_000041.html" target="_top" xlink:title="1">
<text text-anchor="middle" x="86.34" y="-104.3" font-family="Helvetica,sans-Serif" font-size="10.00" fill="#63b8ff">1</text>
</a>
</g>
</g>
<!-- dir_93fb39ec01a9a91046d96c3c4d58a6fe&#45;&gt;dir_30ecaf38acae77be14fb9173f98f8612 -->
<g id="edge9" class="edge">
<title>dir_93fb39ec01a9a91046d96c3c4d58a6fe&#45;&gt;dir_30ecaf38acae77be14fb9173f98f8612</title>
<g id="a_edge9"><a xlink:href="dir_000084_000184.html" target="_top">
<path fill="none" stroke="#63b8ff" d="M191.82,-129.09C217.29,-119.79 255.64,-105.79 282.77,-95.89"/>
<polygon fill="#63b8ff" stroke="#63b8ff" points="283.66,-99.29 291.86,-92.57 281.26,-92.71 283.66,-99.29"/>
</a>
</g>
<g id="a_edge9&#45;headlabel"><a xlink:href="dir_000084_000184.html" target="_top" xlink:title="1">
<text text-anchor="middle" x="282.68" y="-99.54" font-family="Helvetica,sans-Serif" font-size="10.00" fill="#63b8ff">1</text>
</a>
</g>
</g>
<!-- dir_93fb39ec01a9a91046d96c3c4d58a6fe&#45;&gt;dir_f555f996eeee1ebe901dc71e0c5de8ff -->
<g id="edge10" class="edge">
<title>dir_93fb39ec01a9a91046d96c3c4d58a6fe&#45;&gt;dir_f555f996eeee1ebe901dc71e0c5de8ff</title>
<g id="a_edge10"><a xlink:href="dir_000084_000126.html" target="_top">
<path fill="none" stroke="#63b8ff" d="M197.08,-135.52C244.03,-129.87 327.86,-116.74 346,-93.5 353.86,-83.43 352.64,-75.67 346,-64.75 337.17,-50.22 320.66,-41.08 305.68,-35.49"/>
<polygon fill="#63b8ff" stroke="#63b8ff" points="307.2,-32.3 296.6,-32.48 305,-38.95 307.2,-32.3"/>
</a>
</g>
<g id="a_edge10&#45;headlabel"><a xlink:href="dir_000084_000126.html" target="_top" xlink:title="1">
<text text-anchor="middle" x="310.07" y="-27.13" font-family="Helvetica,sans-Serif" font-size="10.00" fill="#63b8ff">1</text>
</a>
</g>
</g>
</g>
</svg>
