<?xml version="1.0" encoding="UTF-8" standalone="no"?>
<!DOCTYPE svg PUBLIC "-//W3C//DTD SVG 1.1//EN"
 "http://www.w3.org/Graphics/SVG/1.1/DTD/svg11.dtd">
<!-- Generated by graphviz version 10.0.1 (0)
 -->
<!-- Title: userland Pages: 1 -->
<svg width="460pt" height="102pt"
 viewBox="0.00 0.00 460.00 101.50" xmlns="http://www.w3.org/2000/svg" xmlns:xlink="http://www.w3.org/1999/xlink">
<g id="graph0" class="graph" transform="scale(1 1) rotate(0) translate(4 97.5)">
<title>userland</title>
<g id="clust1" class="cluster">
<title>clusterdir_902ccc1d1f35ec7608c008c090ce6a24</title>
<g id="a_clust1"><a xlink:href="dir_902ccc1d1f35ec7608c008c090ce6a24.html" target="_top">
<polygon fill="#edf0f7" stroke="#404040" stroke-width="2" points="8,-48.75 8,-85.5 444,-85.5 444,-48.75 8,-48.75"/>
</a>
</g>
</g>
<!-- dir_902ccc1d1f35ec7608c008c090ce6a24 -->
<g id="node1" class="node">
<title>dir_902ccc1d1f35ec7608c008c090ce6a24</title>
<text text-anchor="middle" x="45" y="-64" font-family="Helvetica,sans-Serif" font-size="10.00">userland</text>
</g>
<!-- dir_f26eb22439381742a9730da2154ddbb5 -->
<g id="node2" class="node">
<title>dir_f26eb22439381742a9730da2154ddbb5</title>
<g id="a_node2"><a xlink:href="dir_f26eb22439381742a9730da2154ddbb5.html" target="_top" xlink:title="core">
<polygon fill="#a2b4d6" stroke="#404040" points="186.5,-77.5 149.5,-77.5 149.5,-56.75 186.5,-56.75 186.5,-77.5"/>
<text text-anchor="middle" x="168" y="-64" font-family="Helvetica,sans-Serif" font-size="10.00">core</text>
</a>
</g>
</g>
<!-- dir_6719ab1f1f7655efc2fa43f7eb574fd1 -->
<g id="node8" class="node">
<title>dir_6719ab1f1f7655efc2fa43f7eb574fd1</title>
<g id="a_node8"><a xlink:href="dir_6719ab1f1f7655efc2fa43f7eb574fd1.html" target="_top" xlink:title="libs">
<polygon fill="#edf0f7" stroke="red" points="273.62,-20.75 240.38,-20.75 240.38,0 273.62,0 273.62,-20.75"/>
<text text-anchor="middle" x="257" y="-7.25" font-family="Helvetica,sans-Serif" font-size="10.00">libs</text>
</a>
</g>
</g>
<!-- dir_f26eb22439381742a9730da2154ddbb5&#45;&gt;dir_6719ab1f1f7655efc2fa43f7eb574fd1 -->
<g id="edge1" class="edge">
<title>dir_f26eb22439381742a9730da2154ddbb5&#45;&gt;dir_6719ab1f1f7655efc2fa43f7eb574fd1</title>
<g id="a_edge1"><a xlink:href="dir_000053_000112.html" target="_top">
<path fill="none" stroke="#63b8ff" d="M183.09,-56.31C186.96,-53.82 191.12,-51.17 195,-48.75 206.56,-41.55 219.44,-33.75 230.46,-27.14"/>
<polygon fill="#63b8ff" stroke="#63b8ff" points="232.25,-30.15 239.04,-22.01 228.66,-24.14 232.25,-30.15"/>
</a>
</g>
<g id="a_edge1&#45;headlabel"><a xlink:href="dir_000053_000112.html" target="_top" xlink:title="7">
<text text-anchor="middle" x="231.92" y="-30.53" font-family="Helvetica,sans-Serif" font-size="10.00" fill="#63b8ff">7</text>
</a>
</g>
</g>
<!-- dir_5f36aa97f943016274f6ebfd87a12d9a -->
<g id="node3" class="node">
<title>dir_5f36aa97f943016274f6ebfd87a12d9a</title>
<g id="a_node3"><a xlink:href="dir_5f36aa97f943016274f6ebfd87a12d9a.html" target="_top" xlink:title="gfxtest">
<polygon fill="#a2b4d6" stroke="#404040" points="378.25,-77.5 327.75,-77.5 327.75,-56.75 378.25,-56.75 378.25,-77.5"/>
<text text-anchor="middle" x="353" y="-64" font-family="Helvetica,sans-Serif" font-size="10.00">gfxtest</text>
</a>
</g>
</g>
<!-- dir_2605f0c6ea8f9a17a384edc9a2df15f4 -->
<g id="node7" class="node">
<title>dir_2605f0c6ea8f9a17a384edc9a2df15f4</title>
<g id="a_node7"><a xlink:href="dir_2605f0c6ea8f9a17a384edc9a2df15f4.html" target="_top" xlink:title="iris">
<polygon fill="#edf0f7" stroke="red" points="399.5,-20.75 368.5,-20.75 368.5,0 399.5,0 399.5,-20.75"/>
<text text-anchor="middle" x="384" y="-7.25" font-family="Helvetica,sans-Serif" font-size="10.00">iris</text>
</a>
</g>
</g>
<!-- dir_5f36aa97f943016274f6ebfd87a12d9a&#45;&gt;dir_2605f0c6ea8f9a17a384edc9a2df15f4 -->
<g id="edge2" class="edge">
<title>dir_5f36aa97f943016274f6ebfd87a12d9a&#45;&gt;dir_2605f0c6ea8f9a17a384edc9a2df15f4</title>
<g id="a_edge2"><a xlink:href="dir_000086_000104.html" target="_top">
<path fill="none" stroke="#63b8ff" d="M358.54,-56.34C362.51,-49.33 367.99,-39.66 372.84,-31.08"/>
<polygon fill="#63b8ff" stroke="#63b8ff" points="375.88,-32.82 377.76,-22.4 369.79,-29.37 375.88,-32.82"/>
</a>
</g>
<g id="a_edge2&#45;headlabel"><a xlink:href="dir_000086_000104.html" target="_top" xlink:title="1">
<text text-anchor="middle" x="377.32" y="-32.91" font-family="Helvetica,sans-Serif" font-size="10.00" fill="#63b8ff">1</text>
</a>
</g>
</g>
<!-- dir_5f36aa97f943016274f6ebfd87a12d9a&#45;&gt;dir_6719ab1f1f7655efc2fa43f7eb574fd1 -->
<g id="edge3" class="edge">
<title>dir_5f36aa97f943016274f6ebfd87a12d9a&#45;&gt;dir_6719ab1f1f7655efc2fa43f7eb574fd1</title>
<g id="a_edge3"><a xlink:href="dir_000086_000112.html" target="_top">
<path fill="none" stroke="#63b8ff" d="M335.84,-56.34C321.37,-48.08 300.41,-36.13 283.74,-26.63"/>
<polygon fill="#63b8ff" stroke="#63b8ff" points="285.75,-23.74 275.33,-21.83 282.28,-29.82 285.75,-23.74"/>
</a>
</g>
<g id="a_edge3&#45;headlabel"><a xlink:href="dir_000086_000112.html" target="_top" xlink:title="7">
<text text-anchor="middle" x="288.96" y="-19.18" font-family="Helvetica,sans-Serif" font-size="10.00" fill="#63b8ff">7</text>
</a>
</g>
</g>
<!-- dir_b6cf1a0ed9c479d543b4d81871daf012 -->
<g id="node4" class="node">
<title>dir_b6cf1a0ed9c479d543b4d81871daf012</title>
<g id="a_node4"><a xlink:href="dir_b6cf1a0ed9c479d543b4d81871daf012.html" target="_top" xlink:title="package_manager">
<polygon fill="#a2b4d6" stroke="#404040" points="309.62,-77.5 204.38,-77.5 204.38,-56.75 309.62,-56.75 309.62,-77.5"/>
<text text-anchor="middle" x="257" y="-64" font-family="Helvetica,sans-Serif" font-size="10.00">package_manager</text>
</a>
</g>
</g>
<!-- dir_b6cf1a0ed9c479d543b4d81871daf012&#45;&gt;dir_6719ab1f1f7655efc2fa43f7eb574fd1 -->
<g id="edge4" class="edge">
<title>dir_b6cf1a0ed9c479d543b4d81871daf012&#45;&gt;dir_6719ab1f1f7655efc2fa43f7eb574fd1</title>
<g id="a_edge4"><a xlink:href="dir_000136_000112.html" target="_top">
<path fill="none" stroke="#63b8ff" d="M257,-56.34C257,-49.72 257,-40.72 257,-32.52"/>
<polygon fill="#63b8ff" stroke="#63b8ff" points="260.5,-32.59 257,-22.59 253.5,-32.59 260.5,-32.59"/>
</a>
</g>
<g id="a_edge4&#45;headlabel"><a xlink:href="dir_000136_000112.html" target="_top" xlink:title="30">
<text text-anchor="middle" x="263.34" y="-31.55" font-family="Helvetica,sans-Serif" font-size="10.00" fill="#63b8ff">30</text>
</a>
</g>
</g>
<!-- dir_b17b2d9d1c69636aa80abc811d5e1128 -->
<g id="node5" class="node">
<title>dir_b17b2d9d1c69636aa80abc811d5e1128</title>
<g id="a_node5"><a xlink:href="dir_b17b2d9d1c69636aa80abc811d5e1128.html" target="_top" xlink:title="shell">
<polygon fill="#a2b4d6" stroke="#404040" points="131.62,-77.5 92.38,-77.5 92.38,-56.75 131.62,-56.75 131.62,-77.5"/>
<text text-anchor="middle" x="112" y="-64" font-family="Helvetica,sans-Serif" font-size="10.00">shell</text>
</a>
</g>
</g>
<!-- dir_b17b2d9d1c69636aa80abc811d5e1128&#45;&gt;dir_6719ab1f1f7655efc2fa43f7eb574fd1 -->
<g id="edge5" class="edge">
<title>dir_b17b2d9d1c69636aa80abc811d5e1128&#45;&gt;dir_6719ab1f1f7655efc2fa43f7eb574fd1</title>
<g id="a_edge5"><a xlink:href="dir_000157_000112.html" target="_top">
<path fill="none" stroke="#63b8ff" d="M127,-56.25C131.4,-53.6 136.3,-50.88 141,-48.75 170.01,-35.59 205.02,-24.98 228.94,-18.48"/>
<polygon fill="#63b8ff" stroke="#63b8ff" points="229.8,-21.87 238.57,-15.93 228.01,-15.1 229.8,-21.87"/>
</a>
</g>
<g id="a_edge5&#45;headlabel"><a xlink:href="dir_000157_000112.html" target="_top" xlink:title="3">
<text text-anchor="middle" x="228.51" y="-22.02" font-family="Helvetica,sans-Serif" font-size="10.00" fill="#63b8ff">3</text>
</a>
</g>
</g>
<!-- dir_db7f99a50b1d5589d04ef6bdf0f260c5 -->
<g id="node6" class="node">
<title>dir_db7f99a50b1d5589d04ef6bdf0f260c5</title>
<g id="a_node6"><a xlink:href="dir_db7f99a50b1d5589d04ef6bdf0f260c5.html" target="_top" xlink:title="tools">
<polygon fill="#a2b4d6" stroke="#404040" points="436,-77.5 396,-77.5 396,-56.75 436,-56.75 436,-77.5"/>
<text text-anchor="middle" x="416" y="-64" font-family="Helvetica,sans-Serif" font-size="10.00">tools</text>
</a>
</g>
</g>
<!-- dir_db7f99a50b1d5589d04ef6bdf0f260c5&#45;&gt;dir_2605f0c6ea8f9a17a384edc9a2df15f4 -->
<g id="edge6" class="edge">
<title>dir_db7f99a50b1d5589d04ef6bdf0f260c5&#45;&gt;dir_2605f0c6ea8f9a17a384edc9a2df15f4</title>
<g id="a_edge6"><a xlink:href="dir_000178_000104.html" target="_top">
<path fill="none" stroke="#63b8ff" d="M410.28,-56.34C406.14,-49.25 400.4,-39.44 395.35,-30.79"/>
<polygon fill="#63b8ff" stroke="#63b8ff" points="398.5,-29.25 390.44,-22.39 392.46,-32.78 398.5,-29.25"/>
</a>
</g>
<g id="a_edge6&#45;headlabel"><a xlink:href="dir_000178_000104.html" target="_top" xlink:title="1">
<text text-anchor="middle" x="402" y="-26.49" font-family="Helvetica,sans-Serif" font-size="10.00" fill="#63b8ff">1</text>
</a>
</g>
</g>
<!-- dir_db7f99a50b1d5589d04ef6bdf0f260c5&#45;&gt;dir_6719ab1f1f7655efc2fa43f7eb574fd1 -->
<g id="edge7" class="edge">
<title>dir_db7f99a50b1d5589d04ef6bdf0f260c5&#45;&gt;dir_6719ab1f1f7655efc2fa43f7eb574fd1</title>
<g id="a_edge7"><a xlink:href="dir_000178_000112.html" target="_top">
<path fill="none" stroke="#63b8ff" d="M401.34,-56.34C396.87,-53.63 391.84,-50.85 387,-48.75 353.19,-34.06 311.97,-23.33 285.14,-17.23"/>
<polygon fill="#63b8ff" stroke="#63b8ff" points="285.89,-13.82 275.38,-15.08 284.39,-20.65 285.89,-13.82"/>
</a>
</g>
<g id="a_edge7&#45;headlabel"><a xlink:href="dir_000178_000112.html" target="_top" xlink:title="15">
<text text-anchor="middle" x="288.54" y="-8.37" font-family="Helvetica,sans-Serif" font-size="10.00" fill="#63b8ff">15</text>
</a>
</g>
</g>
</g>
</svg>
