<?xml version="1.0" encoding="UTF-8" standalone="no"?>
<!DOCTYPE svg PUBLIC "-//W3C//DTD SVG 1.1//EN"
 "http://www.w3.org/Graphics/SVG/1.1/DTD/svg11.dtd">
<!-- Generated by graphviz version 10.0.1 (0)
 -->
<!-- Title: libs/ccpp Pages: 1 -->
<svg width="751pt" height="203pt"
 viewBox="0.00 0.00 751.00 203.00" xmlns="http://www.w3.org/2000/svg" xmlns:xlink="http://www.w3.org/1999/xlink">
<g id="graph0" class="graph" transform="scale(1 1) rotate(0) translate(4 199)">
<title>libs/ccpp</title>
<g id="clust1" class="cluster">
<title>clusterdir_6719ab1f1f7655efc2fa43f7eb574fd1</title>
<g id="a_clust1"><a xlink:href="dir_6719ab1f1f7655efc2fa43f7eb574fd1.html" target="_top" xlink:title="libs">
<polygon fill="#edf0f7" stroke="#404040" stroke-dasharray="5,2" points="8,-8 8,-187 735,-187 735,-8 8,-8"/>
<text text-anchor="middle" x="371.5" y="-173.5" font-family="Helvetica,sans-Serif" font-size="10.00">libs</text>
</a>
</g>
</g>
<g id="clust2" class="cluster">
<title>clusterdir_048287677304621c659962c2a2c2732d</title>
<g id="a_clust2"><a xlink:href="dir_048287677304621c659962c2a2c2732d.html" target="_top">
<polygon fill="#edf0f7" stroke="#404040" stroke-width="2" points="16,-64.75 16,-158.25 727,-158.25 727,-64.75 16,-64.75"/>
</a>
</g>
</g>
<!-- dir_2bc9e3f402dd86ba93785edd287294d9 -->
<g id="node1" class="node">
<title>dir_2bc9e3f402dd86ba93785edd287294d9</title>
<g id="a_node1"><a xlink:href="dir_2bc9e3f402dd86ba93785edd287294d9.html" target="_top" xlink:title="dius">
<polygon fill="#a2b4d6" stroke="red" points="520.12,-36.75 483.88,-36.75 483.88,-16 520.12,-16 520.12,-36.75"/>
<text text-anchor="middle" x="502" y="-23.25" font-family="Helvetica,sans-Serif" font-size="10.00">dius</text>
</a>
</g>
</g>
<!-- dir_984cd133b143ec7cf21a4bdcb401bfa5 -->
<g id="node2" class="node">
<title>dir_984cd133b143ec7cf21a4bdcb401bfa5</title>
<g id="a_node2"><a xlink:href="dir_984cd133b143ec7cf21a4bdcb401bfa5.html" target="_top" xlink:title="di">
<polygon fill="#a2b4d6" stroke="red" points="312.4,-36.75 283.6,-36.75 283.6,-16 312.4,-16 312.4,-36.75"/>
<text text-anchor="middle" x="298" y="-23.25" font-family="Helvetica,sans-Serif" font-size="10.00">di</text>
</a>
</g>
</g>
<!-- dir_048287677304621c659962c2a2c2732d -->
<g id="node3" class="node">
<title>dir_048287677304621c659962c2a2c2732d</title>
<text text-anchor="middle" x="43" y="-136.75" font-family="Helvetica,sans-Serif" font-size="10.00">ccpp</text>
</g>
<!-- dir_33de5a0e5dea50e75518e2870bda7ea6 -->
<g id="node4" class="node">
<title>dir_33de5a0e5dea50e75518e2870bda7ea6</title>
<g id="a_node4"><a xlink:href="dir_33de5a0e5dea50e75518e2870bda7ea6.html" target="_top" xlink:title="arch">
<polygon fill="#a2b4d6" stroke="#404040" points="418.5,-150.25 381.5,-150.25 381.5,-129.5 418.5,-129.5 418.5,-150.25"/>
<text text-anchor="middle" x="400" y="-136.75" font-family="Helvetica,sans-Serif" font-size="10.00">arch</text>
</a>
</g>
</g>
<!-- dir_4a059f36db6300b3f1d6a7b4bd94b473 -->
<g id="node8" class="node">
<title>dir_4a059f36db6300b3f1d6a7b4bd94b473</title>
<g id="a_node8"><a xlink:href="dir_4a059f36db6300b3f1d6a7b4bd94b473.html" target="_top" xlink:title="include">
<polygon fill="#a2b4d6" stroke="#404040" points="425.62,-93.5 374.38,-93.5 374.38,-72.75 425.62,-72.75 425.62,-93.5"/>
<text text-anchor="middle" x="400" y="-80" font-family="Helvetica,sans-Serif" font-size="10.00">include</text>
</a>
</g>
</g>
<!-- dir_33de5a0e5dea50e75518e2870bda7ea6&#45;&gt;dir_4a059f36db6300b3f1d6a7b4bd94b473 -->
<g id="edge1" class="edge">
<title>dir_33de5a0e5dea50e75518e2870bda7ea6&#45;&gt;dir_4a059f36db6300b3f1d6a7b4bd94b473</title>
<g id="a_edge1"><a xlink:href="dir_000012_000093.html" target="_top">
<path fill="none" stroke="#63b8ff" d="M400,-129.09C400,-122.47 400,-113.47 400,-105.27"/>
<polygon fill="#63b8ff" stroke="#63b8ff" points="403.5,-105.34 400,-95.34 396.5,-105.34 403.5,-105.34"/>
</a>
</g>
<g id="a_edge1&#45;headlabel"><a xlink:href="dir_000012_000093.html" target="_top" xlink:title="2">
<text text-anchor="middle" x="406.34" y="-104.3" font-family="Helvetica,sans-Serif" font-size="10.00" fill="#63b8ff">2</text>
</a>
</g>
</g>
<!-- dir_61d9688be39ee4c5f5b74d4763172c53 -->
<g id="node5" class="node">
<title>dir_61d9688be39ee4c5f5b74d4763172c53</title>
<g id="a_node5"><a xlink:href="dir_61d9688be39ee4c5f5b74d4763172c53.html" target="_top" xlink:title="ctype">
<polygon fill="#a2b4d6" stroke="#404040" points="479.5,-150.25 436.5,-150.25 436.5,-129.5 479.5,-129.5 479.5,-150.25"/>
<text text-anchor="middle" x="458" y="-136.75" font-family="Helvetica,sans-Serif" font-size="10.00">ctype</text>
</a>
</g>
</g>
<!-- dir_61d9688be39ee4c5f5b74d4763172c53&#45;&gt;dir_4a059f36db6300b3f1d6a7b4bd94b473 -->
<g id="edge2" class="edge">
<title>dir_61d9688be39ee4c5f5b74d4763172c53&#45;&gt;dir_4a059f36db6300b3f1d6a7b4bd94b473</title>
<g id="a_edge2"><a xlink:href="dir_000055_000093.html" target="_top">
<path fill="none" stroke="#63b8ff" d="M447.63,-129.09C439.55,-121.46 428.12,-110.67 418.48,-101.57"/>
<polygon fill="#63b8ff" stroke="#63b8ff" points="421.05,-99.19 411.38,-94.87 416.25,-104.28 421.05,-99.19"/>
</a>
</g>
<g id="a_edge2&#45;headlabel"><a xlink:href="dir_000055_000093.html" target="_top" xlink:title="30">
<text text-anchor="middle" x="424.52" y="-95.43" font-family="Helvetica,sans-Serif" font-size="10.00" fill="#63b8ff">30</text>
</a>
</g>
</g>
<!-- dir_5005efce74e3ac2560dd16b2cc29b63d -->
<g id="node6" class="node">
<title>dir_5005efce74e3ac2560dd16b2cc29b63d</title>
<g id="a_node6"><a xlink:href="dir_5005efce74e3ac2560dd16b2cc29b63d.html" target="_top" xlink:title="errno">
<polygon fill="#a2b4d6" stroke="#404040" points="243.75,-150.25 202.25,-150.25 202.25,-129.5 243.75,-129.5 243.75,-150.25"/>
<text text-anchor="middle" x="223" y="-136.75" font-family="Helvetica,sans-Serif" font-size="10.00">errno</text>
</a>
</g>
</g>
<!-- dir_5134f736a7dc8e5d5daa7facadb46105 -->
<g id="node7" class="node">
<title>dir_5134f736a7dc8e5d5daa7facadb46105</title>
<g id="a_node7"><a xlink:href="dir_5134f736a7dc8e5d5daa7facadb46105.html" target="_top" xlink:title="getopt">
<polygon fill="#a2b4d6" stroke="#404040" points="127.75,-150.25 80.25,-150.25 80.25,-129.5 127.75,-129.5 127.75,-150.25"/>
<text text-anchor="middle" x="104" y="-136.75" font-family="Helvetica,sans-Serif" font-size="10.00">getopt</text>
</a>
</g>
</g>
<!-- dir_5134f736a7dc8e5d5daa7facadb46105&#45;&gt;dir_984cd133b143ec7cf21a4bdcb401bfa5 -->
<g id="edge4" class="edge">
<title>dir_5134f736a7dc8e5d5daa7facadb46105&#45;&gt;dir_984cd133b143ec7cf21a4bdcb401bfa5</title>
<g id="a_edge4"><a xlink:href="dir_000085_000058.html" target="_top">
<path fill="none" stroke="#63b8ff" d="M116.88,-129.24C137.12,-114.35 177.91,-85.3 215,-64.75 233.76,-54.36 255.95,-44.48 272.66,-37.5"/>
<polygon fill="#63b8ff" stroke="#63b8ff" points="273.93,-40.76 281.85,-33.72 271.27,-34.28 273.93,-40.76"/>
</a>
</g>
<g id="a_edge4&#45;headlabel"><a xlink:href="dir_000085_000058.html" target="_top" xlink:title="3">
<text text-anchor="middle" x="273.08" y="-41.05" font-family="Helvetica,sans-Serif" font-size="10.00" fill="#63b8ff">3</text>
</a>
</g>
</g>
<!-- dir_5134f736a7dc8e5d5daa7facadb46105&#45;&gt;dir_4a059f36db6300b3f1d6a7b4bd94b473 -->
<g id="edge3" class="edge">
<title>dir_5134f736a7dc8e5d5daa7facadb46105&#45;&gt;dir_4a059f36db6300b3f1d6a7b4bd94b473</title>
<g id="a_edge3"><a xlink:href="dir_000085_000093.html" target="_top">
<path fill="none" stroke="#63b8ff" d="M128.06,-131.67C131.06,-130.88 134.09,-130.14 137,-129.5 235.67,-107.95 265.77,-116.51 362.7,-95.08"/>
<polygon fill="#63b8ff" stroke="#63b8ff" points="363.43,-98.5 372.41,-92.87 361.88,-91.67 363.43,-98.5"/>
</a>
</g>
<g id="a_edge3&#45;headlabel"><a xlink:href="dir_000085_000093.html" target="_top" xlink:title="7">
<text text-anchor="middle" x="362.03" y="-98.6" font-family="Helvetica,sans-Serif" font-size="10.00" fill="#63b8ff">7</text>
</a>
</g>
</g>
<!-- dir_4a059f36db6300b3f1d6a7b4bd94b473&#45;&gt;dir_2bc9e3f402dd86ba93785edd287294d9 -->
<g id="edge5" class="edge">
<title>dir_4a059f36db6300b3f1d6a7b4bd94b473&#45;&gt;dir_2bc9e3f402dd86ba93785edd287294d9</title>
<g id="a_edge5"><a xlink:href="dir_000093_000063.html" target="_top">
<path fill="none" stroke="#63b8ff" d="M416.43,-72.43C420.81,-69.89 425.57,-67.18 430,-64.75 444.22,-56.94 460.23,-48.6 473.53,-41.77"/>
<polygon fill="#63b8ff" stroke="#63b8ff" points="474.86,-45.02 482.18,-37.36 471.68,-38.78 474.86,-45.02"/>
</a>
</g>
<g id="a_edge5&#45;headlabel"><a xlink:href="dir_000093_000063.html" target="_top" xlink:title="4">
<text text-anchor="middle" x="474.3" y="-45.37" font-family="Helvetica,sans-Serif" font-size="10.00" fill="#63b8ff">4</text>
</a>
</g>
</g>
<!-- dir_4a059f36db6300b3f1d6a7b4bd94b473&#45;&gt;dir_984cd133b143ec7cf21a4bdcb401bfa5 -->
<g id="edge6" class="edge">
<title>dir_4a059f36db6300b3f1d6a7b4bd94b473&#45;&gt;dir_984cd133b143ec7cf21a4bdcb401bfa5</title>
<g id="a_edge6"><a xlink:href="dir_000093_000058.html" target="_top">
<path fill="none" stroke="#63b8ff" d="M383.57,-72.43C379.19,-69.89 374.43,-67.18 370,-64.75 354.36,-56.17 336.56,-46.92 322.58,-39.78"/>
<polygon fill="#63b8ff" stroke="#63b8ff" points="324.57,-36.87 314.07,-35.45 321.4,-43.11 324.57,-36.87"/>
</a>
</g>
<g id="a_edge6&#45;headlabel"><a xlink:href="dir_000093_000058.html" target="_top" xlink:title="13">
<text text-anchor="middle" x="327.71" y="-32.15" font-family="Helvetica,sans-Serif" font-size="10.00" fill="#63b8ff">13</text>
</a>
</g>
</g>
<!-- dir_c22012bc9cc2a34f85392e4c1bc49cc9 -->
<g id="node9" class="node">
<title>dir_c22012bc9cc2a34f85392e4c1bc49cc9</title>
<g id="a_node9"><a xlink:href="dir_c22012bc9cc2a34f85392e4c1bc49cc9.html" target="_top" xlink:title="locale">
<polygon fill="#a2b4d6" stroke="#404040" points="604.62,-150.25 559.38,-150.25 559.38,-129.5 604.62,-129.5 604.62,-150.25"/>
<text text-anchor="middle" x="582" y="-136.75" font-family="Helvetica,sans-Serif" font-size="10.00">locale</text>
</a>
</g>
</g>
<!-- dir_c22012bc9cc2a34f85392e4c1bc49cc9&#45;&gt;dir_4a059f36db6300b3f1d6a7b4bd94b473 -->
<g id="edge7" class="edge">
<title>dir_c22012bc9cc2a34f85392e4c1bc49cc9&#45;&gt;dir_4a059f36db6300b3f1d6a7b4bd94b473</title>
<g id="a_edge7"><a xlink:href="dir_000119_000093.html" target="_top">
<path fill="none" stroke="#63b8ff" d="M559.05,-132.12C531.42,-123.97 483.32,-109.72 436.7,-95.54"/>
<polygon fill="#63b8ff" stroke="#63b8ff" points="437.88,-92.24 427.3,-92.67 435.84,-98.93 437.88,-92.24"/>
</a>
</g>
<g id="a_edge7&#45;headlabel"><a xlink:href="dir_000119_000093.html" target="_top" xlink:title="1">
<text text-anchor="middle" x="440.7" y="-87" font-family="Helvetica,sans-Serif" font-size="10.00" fill="#63b8ff">1</text>
</a>
</g>
</g>
<!-- dir_655d2fdf70ec12db9c8dc6404b7f8c45 -->
<g id="node10" class="node">
<title>dir_655d2fdf70ec12db9c8dc6404b7f8c45</title>
<g id="a_node10"><a xlink:href="dir_655d2fdf70ec12db9c8dc6404b7f8c45.html" target="_top" xlink:title="stdio">
<polygon fill="#a2b4d6" stroke="#404040" points="302,-150.25 262,-150.25 262,-129.5 302,-129.5 302,-150.25"/>
<text text-anchor="middle" x="282" y="-136.75" font-family="Helvetica,sans-Serif" font-size="10.00">stdio</text>
</a>
</g>
</g>
<!-- dir_655d2fdf70ec12db9c8dc6404b7f8c45&#45;&gt;dir_2bc9e3f402dd86ba93785edd287294d9 -->
<g id="edge8" class="edge">
<title>dir_655d2fdf70ec12db9c8dc6404b7f8c45&#45;&gt;dir_2bc9e3f402dd86ba93785edd287294d9</title>
<g id="a_edge8"><a xlink:href="dir_000160_000063.html" target="_top">
<path fill="none" stroke="#63b8ff" d="M302.32,-132.47C305.55,-131.47 308.87,-130.45 312,-129.5 366.52,-113 385.91,-122.38 435,-93.5 440.78,-90.1 466.69,-63.88 484.54,-45.49"/>
<polygon fill="#63b8ff" stroke="#63b8ff" points="487.04,-47.94 491.48,-38.32 482.01,-43.07 487.04,-47.94"/>
</a>
</g>
<g id="a_edge8&#45;headlabel"><a xlink:href="dir_000160_000063.html" target="_top" xlink:title="1">
<text text-anchor="middle" x="487.64" y="-48.29" font-family="Helvetica,sans-Serif" font-size="10.00" fill="#63b8ff">1</text>
</a>
</g>
</g>
<!-- dir_655d2fdf70ec12db9c8dc6404b7f8c45&#45;&gt;dir_984cd133b143ec7cf21a4bdcb401bfa5 -->
<g id="edge10" class="edge">
<title>dir_655d2fdf70ec12db9c8dc6404b7f8c45&#45;&gt;dir_984cd133b143ec7cf21a4bdcb401bfa5</title>
<g id="a_edge10"><a xlink:href="dir_000160_000058.html" target="_top">
<path fill="none" stroke="#63b8ff" d="M283.36,-129.37C285.93,-111.52 291.51,-72.61 294.99,-48.34"/>
<polygon fill="#63b8ff" stroke="#63b8ff" points="298.42,-49.07 296.38,-38.67 291.49,-48.07 298.42,-49.07"/>
</a>
</g>
<g id="a_edge10&#45;headlabel"><a xlink:href="dir_000160_000058.html" target="_top" xlink:title="11">
<text text-anchor="middle" x="300.94" y="-48.41" font-family="Helvetica,sans-Serif" font-size="10.00" fill="#63b8ff">11</text>
</a>
</g>
</g>
<!-- dir_655d2fdf70ec12db9c8dc6404b7f8c45&#45;&gt;dir_4a059f36db6300b3f1d6a7b4bd94b473 -->
<g id="edge9" class="edge">
<title>dir_655d2fdf70ec12db9c8dc6404b7f8c45&#45;&gt;dir_4a059f36db6300b3f1d6a7b4bd94b473</title>
<g id="a_edge9"><a xlink:href="dir_000160_000093.html" target="_top">
<path fill="none" stroke="#63b8ff" d="M302.28,-129.46C320.47,-121.03 347.43,-108.52 368.43,-98.77"/>
<polygon fill="#63b8ff" stroke="#63b8ff" points="369.82,-101.99 377.41,-94.6 366.87,-95.64 369.82,-101.99"/>
</a>
</g>
<g id="a_edge9&#45;headlabel"><a xlink:href="dir_000160_000093.html" target="_top" xlink:title="90">
<text text-anchor="middle" x="369.12" y="-102.31" font-family="Helvetica,sans-Serif" font-size="10.00" fill="#63b8ff">90</text>
</a>
</g>
</g>
<!-- dir_a8ca05a97de7391234f976557b664375 -->
<g id="node11" class="node">
<title>dir_a8ca05a97de7391234f976557b664375</title>
<g id="a_node11"><a xlink:href="dir_a8ca05a97de7391234f976557b664375.html" target="_top" xlink:title="stdlib">
<polygon fill="#a2b4d6" stroke="#404040" points="363.5,-150.25 320.5,-150.25 320.5,-129.5 363.5,-129.5 363.5,-150.25"/>
<text text-anchor="middle" x="342" y="-136.75" font-family="Helvetica,sans-Serif" font-size="10.00">stdlib</text>
</a>
</g>
</g>
<!-- dir_a8ca05a97de7391234f976557b664375&#45;&gt;dir_2bc9e3f402dd86ba93785edd287294d9 -->
<g id="edge11" class="edge">
<title>dir_a8ca05a97de7391234f976557b664375&#45;&gt;dir_2bc9e3f402dd86ba93785edd287294d9</title>
<g id="a_edge11"><a xlink:href="dir_000161_000063.html" target="_top">
<path fill="none" stroke="#63b8ff" d="M363.93,-131.87C397.59,-120.97 458.97,-100.49 467,-93.5 481.07,-81.26 490.37,-61.94 495.82,-47.34"/>
<polygon fill="#63b8ff" stroke="#63b8ff" points="498.99,-48.89 498.9,-38.3 492.36,-46.64 498.99,-48.89"/>
</a>
</g>
<g id="a_edge11&#45;headlabel"><a xlink:href="dir_000161_000063.html" target="_top" xlink:title="1">
<text text-anchor="middle" x="501.01" y="-48.65" font-family="Helvetica,sans-Serif" font-size="10.00" fill="#63b8ff">1</text>
</a>
</g>
</g>
<!-- dir_a8ca05a97de7391234f976557b664375&#45;&gt;dir_984cd133b143ec7cf21a4bdcb401bfa5 -->
<g id="edge13" class="edge">
<title>dir_a8ca05a97de7391234f976557b664375&#45;&gt;dir_984cd133b143ec7cf21a4bdcb401bfa5</title>
<g id="a_edge13"><a xlink:href="dir_000161_000058.html" target="_top">
<path fill="none" stroke="#63b8ff" d="M338.25,-129.37C331.14,-111.36 315.57,-71.89 306.01,-47.68"/>
<polygon fill="#63b8ff" stroke="#63b8ff" points="309.35,-46.6 302.42,-38.58 302.84,-49.17 309.35,-46.6"/>
</a>
</g>
<g id="a_edge13&#45;headlabel"><a xlink:href="dir_000161_000058.html" target="_top" xlink:title="11">
<text text-anchor="middle" x="312.75" y="-44.37" font-family="Helvetica,sans-Serif" font-size="10.00" fill="#63b8ff">11</text>
</a>
</g>
</g>
<!-- dir_a8ca05a97de7391234f976557b664375&#45;&gt;dir_4a059f36db6300b3f1d6a7b4bd94b473 -->
<g id="edge12" class="edge">
<title>dir_a8ca05a97de7391234f976557b664375&#45;&gt;dir_4a059f36db6300b3f1d6a7b4bd94b473</title>
<g id="a_edge12"><a xlink:href="dir_000161_000093.html" target="_top">
<path fill="none" stroke="#63b8ff" d="M352.37,-129.09C360.45,-121.46 371.88,-110.67 381.52,-101.57"/>
<polygon fill="#63b8ff" stroke="#63b8ff" points="383.75,-104.28 388.62,-94.87 378.95,-99.19 383.75,-104.28"/>
</a>
</g>
<g id="a_edge12&#45;headlabel"><a xlink:href="dir_000161_000093.html" target="_top" xlink:title="23">
<text text-anchor="middle" x="384.19" y="-104.65" font-family="Helvetica,sans-Serif" font-size="10.00" fill="#63b8ff">23</text>
</a>
</g>
</g>
<!-- dir_577fe4ac70d3995ac31134cd119c210d -->
<g id="node12" class="node">
<title>dir_577fe4ac70d3995ac31134cd119c210d</title>
<g id="a_node12"><a xlink:href="dir_577fe4ac70d3995ac31134cd119c210d.html" target="_top" xlink:title="string">
<polygon fill="#a2b4d6" stroke="#404040" points="540.88,-150.25 497.12,-150.25 497.12,-129.5 540.88,-129.5 540.88,-150.25"/>
<text text-anchor="middle" x="519" y="-136.75" font-family="Helvetica,sans-Serif" font-size="10.00">string</text>
</a>
</g>
</g>
<!-- dir_577fe4ac70d3995ac31134cd119c210d&#45;&gt;dir_2bc9e3f402dd86ba93785edd287294d9 -->
<g id="edge14" class="edge">
<title>dir_577fe4ac70d3995ac31134cd119c210d&#45;&gt;dir_2bc9e3f402dd86ba93785edd287294d9</title>
<g id="a_edge14"><a xlink:href="dir_000164_000063.html" target="_top">
<path fill="none" stroke="#63b8ff" d="M517.55,-129.37C514.83,-111.52 508.9,-72.61 505.2,-48.34"/>
<polygon fill="#63b8ff" stroke="#63b8ff" points="508.69,-48.03 503.72,-38.67 501.77,-49.08 508.69,-48.03"/>
</a>
</g>
<g id="a_edge14&#45;headlabel"><a xlink:href="dir_000164_000063.html" target="_top" xlink:title="1">
<text text-anchor="middle" x="511.81" y="-46.53" font-family="Helvetica,sans-Serif" font-size="10.00" fill="#63b8ff">1</text>
</a>
</g>
</g>
<!-- dir_577fe4ac70d3995ac31134cd119c210d&#45;&gt;dir_984cd133b143ec7cf21a4bdcb401bfa5 -->
<g id="edge15" class="edge">
<title>dir_577fe4ac70d3995ac31134cd119c210d&#45;&gt;dir_984cd133b143ec7cf21a4bdcb401bfa5</title>
<g id="a_edge15"><a xlink:href="dir_000164_000058.html" target="_top">
<path fill="none" stroke="#63b8ff" d="M496.74,-131.86C494.13,-131.06 491.51,-130.26 489,-129.5 434.05,-112.94 414.49,-122.55 365,-93.5 343.96,-81.15 324.67,-60.72 312.25,-45.83"/>
<polygon fill="#63b8ff" stroke="#63b8ff" points="315.08,-43.76 306.08,-38.16 309.62,-48.15 315.08,-43.76"/>
</a>
</g>
<g id="a_edge15&#45;headlabel"><a xlink:href="dir_000164_000058.html" target="_top" xlink:title="32">
<text text-anchor="middle" x="318.59" y="-40.47" font-family="Helvetica,sans-Serif" font-size="10.00" fill="#63b8ff">32</text>
</a>
</g>
</g>
<!-- dir_56484080abf04ca67379ec2837b7b193 -->
<g id="node13" class="node">
<title>dir_56484080abf04ca67379ec2837b7b193</title>
<g id="a_node13"><a xlink:href="dir_56484080abf04ca67379ec2837b7b193.html" target="_top" xlink:title="sys">
<polygon fill="#a2b4d6" stroke="#404040" points="655.25,-150.25 622.75,-150.25 622.75,-129.5 655.25,-129.5 655.25,-150.25"/>
<text text-anchor="middle" x="639" y="-136.75" font-family="Helvetica,sans-Serif" font-size="10.00">sys</text>
</a>
</g>
</g>
<!-- dir_56484080abf04ca67379ec2837b7b193&#45;&gt;dir_2bc9e3f402dd86ba93785edd287294d9 -->
<g id="edge16" class="edge">
<title>dir_56484080abf04ca67379ec2837b7b193&#45;&gt;dir_2bc9e3f402dd86ba93785edd287294d9</title>
<g id="a_edge16"><a xlink:href="dir_000168_000063.html" target="_top">
<path fill="none" stroke="#63b8ff" d="M627.32,-129.37C604.08,-110.46 551.78,-67.89 522.63,-44.16"/>
<polygon fill="#63b8ff" stroke="#63b8ff" points="525.18,-41.73 515.22,-38.13 520.76,-47.16 525.18,-41.73"/>
</a>
</g>
<g id="a_edge16&#45;headlabel"><a xlink:href="dir_000168_000063.html" target="_top" xlink:title="1">
<text text-anchor="middle" x="528.59" y="-37.71" font-family="Helvetica,sans-Serif" font-size="10.00" fill="#63b8ff">1</text>
</a>
</g>
</g>
<!-- dir_56484080abf04ca67379ec2837b7b193&#45;&gt;dir_4a059f36db6300b3f1d6a7b4bd94b473 -->
<g id="edge17" class="edge">
<title>dir_56484080abf04ca67379ec2837b7b193&#45;&gt;dir_4a059f36db6300b3f1d6a7b4bd94b473</title>
<g id="a_edge17"><a xlink:href="dir_000168_000093.html" target="_top">
<path fill="none" stroke="#63b8ff" d="M622.45,-132.23C619.66,-131.24 616.77,-130.28 614,-129.5 537.43,-107.81 512.96,-113.37 436.89,-95.12"/>
<polygon fill="#63b8ff" stroke="#63b8ff" points="437.82,-91.75 427.27,-92.75 436.14,-98.54 437.82,-91.75"/>
</a>
</g>
<g id="a_edge17&#45;headlabel"><a xlink:href="dir_000168_000093.html" target="_top" xlink:title="1">
<text text-anchor="middle" x="440.52" y="-86.37" font-family="Helvetica,sans-Serif" font-size="10.00" fill="#63b8ff">1</text>
</a>
</g>
</g>
<!-- dir_9dddc263950344b7f80fe87fc983271b -->
<g id="node14" class="node">
<title>dir_9dddc263950344b7f80fe87fc983271b</title>
<g id="a_node14"><a xlink:href="dir_9dddc263950344b7f80fe87fc983271b.html" target="_top" xlink:title="time">
<polygon fill="#a2b4d6" stroke="#404040" points="184.25,-150.25 145.75,-150.25 145.75,-129.5 184.25,-129.5 184.25,-150.25"/>
<text text-anchor="middle" x="165" y="-136.75" font-family="Helvetica,sans-Serif" font-size="10.00">time</text>
</a>
</g>
</g>
<!-- dir_9dddc263950344b7f80fe87fc983271b&#45;&gt;dir_984cd133b143ec7cf21a4bdcb401bfa5 -->
<g id="edge19" class="edge">
<title>dir_9dddc263950344b7f80fe87fc983271b&#45;&gt;dir_984cd133b143ec7cf21a4bdcb401bfa5</title>
<g id="a_edge19"><a xlink:href="dir_000176_000058.html" target="_top">
<path fill="none" stroke="#63b8ff" d="M176.34,-129.37C198.8,-110.54 249.23,-68.26 277.6,-44.47"/>
<polygon fill="#63b8ff" stroke="#63b8ff" points="279.74,-47.25 285.15,-38.15 275.24,-41.89 279.74,-47.25"/>
</a>
</g>
<g id="a_edge19&#45;headlabel"><a xlink:href="dir_000176_000058.html" target="_top" xlink:title="2">
<text text-anchor="middle" x="279.96" y="-47.64" font-family="Helvetica,sans-Serif" font-size="10.00" fill="#63b8ff">2</text>
</a>
</g>
</g>
<!-- dir_9dddc263950344b7f80fe87fc983271b&#45;&gt;dir_4a059f36db6300b3f1d6a7b4bd94b473 -->
<g id="edge18" class="edge">
<title>dir_9dddc263950344b7f80fe87fc983271b&#45;&gt;dir_4a059f36db6300b3f1d6a7b4bd94b473</title>
<g id="a_edge18"><a xlink:href="dir_000176_000093.html" target="_top">
<path fill="none" stroke="#63b8ff" d="M184.49,-132.01C187.33,-131.11 190.23,-130.24 193,-129.5 266.91,-109.69 290.1,-113.11 363.06,-95.18"/>
<polygon fill="#63b8ff" stroke="#63b8ff" points="363.88,-98.58 372.73,-92.74 362.17,-91.79 363.88,-98.58"/>
</a>
</g>
<g id="a_edge18&#45;headlabel"><a xlink:href="dir_000176_000093.html" target="_top" xlink:title="1">
<text text-anchor="middle" x="362.56" y="-98.72" font-family="Helvetica,sans-Serif" font-size="10.00" fill="#63b8ff">1</text>
</a>
</g>
</g>
<!-- dir_33abc478ca17a8011d6c517179420f87 -->
<g id="node15" class="node">
<title>dir_33abc478ca17a8011d6c517179420f87</title>
<g id="a_node15"><a xlink:href="dir_33abc478ca17a8011d6c517179420f87.html" target="_top" xlink:title="unistd">
<polygon fill="#a2b4d6" stroke="#404040" points="719,-150.25 673,-150.25 673,-129.5 719,-129.5 719,-150.25"/>
<text text-anchor="middle" x="696" y="-136.75" font-family="Helvetica,sans-Serif" font-size="10.00">unistd</text>
</a>
</g>
</g>
<!-- dir_33abc478ca17a8011d6c517179420f87&#45;&gt;dir_2bc9e3f402dd86ba93785edd287294d9 -->
<g id="edge20" class="edge">
<title>dir_33abc478ca17a8011d6c517179420f87&#45;&gt;dir_2bc9e3f402dd86ba93785edd287294d9</title>
<g id="a_edge20"><a xlink:href="dir_000187_000063.html" target="_top">
<path fill="none" stroke="#63b8ff" d="M679.94,-129.08C656.25,-114.7 610.5,-87.15 571,-64.75 557.76,-57.24 542.94,-49.17 530.43,-42.45"/>
<polygon fill="#63b8ff" stroke="#63b8ff" points="532.36,-39.52 521.89,-37.89 529.06,-45.69 532.36,-39.52"/>
</a>
</g>
<g id="a_edge20&#45;headlabel"><a xlink:href="dir_000187_000063.html" target="_top" xlink:title="3">
<text text-anchor="middle" x="535.54" y="-34.87" font-family="Helvetica,sans-Serif" font-size="10.00" fill="#63b8ff">3</text>
</a>
</g>
</g>
<!-- dir_33abc478ca17a8011d6c517179420f87&#45;&gt;dir_4a059f36db6300b3f1d6a7b4bd94b473 -->
<g id="edge21" class="edge">
<title>dir_33abc478ca17a8011d6c517179420f87&#45;&gt;dir_4a059f36db6300b3f1d6a7b4bd94b473</title>
<g id="a_edge21"><a xlink:href="dir_000187_000093.html" target="_top">
<path fill="none" stroke="#63b8ff" d="M672.67,-131.65C669.77,-130.87 666.83,-130.13 664,-129.5 564.9,-107.46 534.62,-116.56 437.05,-95.02"/>
<polygon fill="#63b8ff" stroke="#63b8ff" points="438.12,-91.67 427.59,-92.87 436.57,-98.5 438.12,-91.67"/>
</a>
</g>
<g id="a_edge21&#45;headlabel"><a xlink:href="dir_000187_000093.html" target="_top" xlink:title="3">
<text text-anchor="middle" x="440.77" y="-86.24" font-family="Helvetica,sans-Serif" font-size="10.00" fill="#63b8ff">3</text>
</a>
</g>
</g>
</g>
</svg>
