<?xml version="1.0" encoding="UTF-8" standalone="no"?>
<!DOCTYPE svg PUBLIC "-//W3C//DTD SVG 1.1//EN"
 "http://www.w3.org/Graphics/SVG/1.1/DTD/svg11.dtd">
<!-- Generated by graphviz version 10.0.1 (0)
 -->
<!-- Title: libs/dius Pages: 1 -->
<svg width="419pt" height="203pt"
 viewBox="0.00 0.00 418.50 203.00" xmlns="http://www.w3.org/2000/svg" xmlns:xlink="http://www.w3.org/1999/xlink">
<g id="graph0" class="graph" transform="scale(1 1) rotate(0) translate(4 199)">
<title>libs/dius</title>
<g id="clust1" class="cluster">
<title>clusterdir_6719ab1f1f7655efc2fa43f7eb574fd1</title>
<g id="a_clust1"><a xlink:href="dir_6719ab1f1f7655efc2fa43f7eb574fd1.html" target="_top" xlink:title="libs">
<polygon fill="#edf0f7" stroke="#404040" stroke-dasharray="5,2" points="8,-8 8,-187 371,-187 371,-8 8,-8"/>
<text text-anchor="middle" x="189.5" y="-173.5" font-family="Helvetica,sans-Serif" font-size="10.00">libs</text>
</a>
</g>
</g>
<g id="clust2" class="cluster">
<title>clusterdir_2bc9e3f402dd86ba93785edd287294d9</title>
<g id="a_clust2"><a xlink:href="dir_2bc9e3f402dd86ba93785edd287294d9.html" target="_top">
<polygon fill="#edf0f7" stroke="#404040" stroke-width="2" points="16,-64.75 16,-158.25 363,-158.25 363,-64.75 16,-64.75"/>
</a>
</g>
</g>
<!-- dir_048287677304621c659962c2a2c2732d -->
<g id="node1" class="node">
<title>dir_048287677304621c659962c2a2c2732d</title>
<g id="a_node1"><a xlink:href="dir_048287677304621c659962c2a2c2732d.html" target="_top" xlink:title="ccpp">
<polygon fill="#a2b4d6" stroke="red" points="273.25,-36.75 234.75,-36.75 234.75,-16 273.25,-16 273.25,-36.75"/>
<text text-anchor="middle" x="254" y="-23.25" font-family="Helvetica,sans-Serif" font-size="10.00">ccpp</text>
</a>
</g>
</g>
<!-- dir_984cd133b143ec7cf21a4bdcb401bfa5 -->
<g id="node2" class="node">
<title>dir_984cd133b143ec7cf21a4bdcb401bfa5</title>
<g id="a_node2"><a xlink:href="dir_984cd133b143ec7cf21a4bdcb401bfa5.html" target="_top" xlink:title="di">
<polygon fill="#a2b4d6" stroke="red" points="128.4,-36.75 99.6,-36.75 99.6,-16 128.4,-16 128.4,-36.75"/>
<text text-anchor="middle" x="114" y="-23.25" font-family="Helvetica,sans-Serif" font-size="10.00">di</text>
</a>
</g>
</g>
<!-- dir_2bc9e3f402dd86ba93785edd287294d9 -->
<g id="node3" class="node">
<title>dir_2bc9e3f402dd86ba93785edd287294d9</title>
<text text-anchor="middle" x="42" y="-136.75" font-family="Helvetica,sans-Serif" font-size="10.00">dius</text>
</g>
<!-- dir_2bc9e3f402dd86ba93785edd287294d9&#45;&gt;dir_048287677304621c659962c2a2c2732d -->
<g id="edge1" class="edge">
<title>dir_2bc9e3f402dd86ba93785edd287294d9&#45;&gt;dir_048287677304621c659962c2a2c2732d</title>
<g id="a_edge1"><a xlink:href="dir_000063_000030.html" target="_top">
<path fill="none" stroke="#63b8ff" d="M59.94,-132.39C62.95,-131.38 66.05,-130.38 69,-129.5 132.65,-110.59 161.81,-134.56 214,-93.5 225.33,-84.59 221.65,-77.15 229,-64.75 232.58,-58.71 236.74,-52.29 240.62,-46.52"/>
<polygon fill="#63b8ff" stroke="#63b8ff" points="243.5,-48.5 246.27,-38.27 237.73,-44.54 243.5,-48.5"/>
</a>
</g>
<g id="a_edge1&#45;headlabel"><a xlink:href="dir_000063_000030.html" target="_top" xlink:title="15">
<text text-anchor="middle" x="244.67" y="-48.7" font-family="Helvetica,sans-Serif" font-size="10.00" fill="#63b8ff">15</text>
</a>
</g>
</g>
<!-- dir_2bc9e3f402dd86ba93785edd287294d9&#45;&gt;dir_984cd133b143ec7cf21a4bdcb401bfa5 -->
<g id="edge3" class="edge">
<title>dir_2bc9e3f402dd86ba93785edd287294d9&#45;&gt;dir_984cd133b143ec7cf21a4bdcb401bfa5</title>
<g id="a_edge3"><a xlink:href="dir_000063_000058.html" target="_top">
<path fill="none" stroke="#63b8ff" d="M47.89,-129.75C59.59,-111.63 85.99,-70.76 101.65,-46.49"/>
<polygon fill="#63b8ff" stroke="#63b8ff" points="104.52,-48.51 107,-38.21 98.64,-44.72 104.52,-48.51"/>
</a>
</g>
<g id="a_edge3&#45;headlabel"><a xlink:href="dir_000063_000058.html" target="_top" xlink:title="162">
<text text-anchor="middle" x="105.77" y="-48.68" font-family="Helvetica,sans-Serif" font-size="10.00" fill="#63b8ff">162</text>
</a>
</g>
</g>
<!-- dir_6ac4aa95e4478b160428441746083760 -->
<g id="node4" class="node">
<title>dir_6ac4aa95e4478b160428441746083760</title>
<g id="a_node4"><a xlink:href="dir_6ac4aa95e4478b160428441746083760.html" target="_top" xlink:title="include">
<polygon fill="#a2b4d6" stroke="#404040" points="204.62,-93.5 153.38,-93.5 153.38,-72.75 204.62,-72.75 204.62,-93.5"/>
<text text-anchor="middle" x="179" y="-80" font-family="Helvetica,sans-Serif" font-size="10.00">include</text>
</a>
</g>
</g>
<!-- dir_2bc9e3f402dd86ba93785edd287294d9&#45;&gt;dir_6ac4aa95e4478b160428441746083760 -->
<g id="edge2" class="edge">
<title>dir_2bc9e3f402dd86ba93785edd287294d9&#45;&gt;dir_6ac4aa95e4478b160428441746083760</title>
<g id="a_edge2"><a xlink:href="dir_000063_000095.html" target="_top">
<path fill="none" stroke="#63b8ff" d="M59.91,-131.72C81.2,-123.21 117.23,-108.81 144.09,-98.08"/>
<polygon fill="#63b8ff" stroke="#63b8ff" points="145.22,-101.39 153.21,-94.43 142.62,-94.89 145.22,-101.39"/>
</a>
</g>
<g id="a_edge2&#45;headlabel"><a xlink:href="dir_000063_000095.html" target="_top" xlink:title="63">
<text text-anchor="middle" x="144.34" y="-101.68" font-family="Helvetica,sans-Serif" font-size="10.00" fill="#63b8ff">63</text>
</a>
</g>
</g>
<!-- dir_6ac4aa95e4478b160428441746083760&#45;&gt;dir_048287677304621c659962c2a2c2732d -->
<g id="edge6" class="edge">
<title>dir_6ac4aa95e4478b160428441746083760&#45;&gt;dir_048287677304621c659962c2a2c2732d</title>
<g id="a_edge6"><a xlink:href="dir_000095_000030.html" target="_top">
<path fill="none" stroke="#63b8ff" d="M192.41,-72.34C203.29,-64.4 218.86,-53.03 231.62,-43.71"/>
<polygon fill="#63b8ff" stroke="#63b8ff" points="233.47,-46.69 239.49,-37.97 229.34,-41.04 233.47,-46.69"/>
</a>
</g>
<g id="a_edge6&#45;headlabel"><a xlink:href="dir_000095_000030.html" target="_top" xlink:title="2">
<text text-anchor="middle" x="233.47" y="-47.09" font-family="Helvetica,sans-Serif" font-size="10.00" fill="#63b8ff">2</text>
</a>
</g>
</g>
<!-- dir_6ac4aa95e4478b160428441746083760&#45;&gt;dir_984cd133b143ec7cf21a4bdcb401bfa5 -->
<g id="edge4" class="edge">
<title>dir_6ac4aa95e4478b160428441746083760&#45;&gt;dir_984cd133b143ec7cf21a4bdcb401bfa5</title>
<g id="a_edge4"><a xlink:href="dir_000095_000058.html" target="_top">
<path fill="none" stroke="#63b8ff" d="M167.38,-72.34C158.14,-64.55 144.99,-53.47 134.05,-44.26"/>
<polygon fill="#63b8ff" stroke="#63b8ff" points="136.58,-41.82 126.68,-38.05 132.07,-47.17 136.58,-41.82"/>
</a>
</g>
<g id="a_edge4&#45;headlabel"><a xlink:href="dir_000095_000058.html" target="_top" xlink:title="108">
<text text-anchor="middle" x="140" y="-37.86" font-family="Helvetica,sans-Serif" font-size="10.00" fill="#63b8ff">108</text>
</a>
</g>
</g>
<!-- dir_2605f0c6ea8f9a17a384edc9a2df15f4 -->
<g id="node10" class="node">
<title>dir_2605f0c6ea8f9a17a384edc9a2df15f4</title>
<g id="a_node10"><a xlink:href="dir_2605f0c6ea8f9a17a384edc9a2df15f4.html" target="_top" xlink:title="iris">
<polygon fill="#edf0f7" stroke="red" points="410.5,-36.75 379.5,-36.75 379.5,-16 410.5,-16 410.5,-36.75"/>
<text text-anchor="middle" x="395" y="-23.25" font-family="Helvetica,sans-Serif" font-size="10.00">iris</text>
</a>
</g>
</g>
<!-- dir_6ac4aa95e4478b160428441746083760&#45;&gt;dir_2605f0c6ea8f9a17a384edc9a2df15f4 -->
<g id="edge5" class="edge">
<title>dir_6ac4aa95e4478b160428441746083760&#45;&gt;dir_2605f0c6ea8f9a17a384edc9a2df15f4</title>
<g id="a_edge5"><a xlink:href="dir_000095_000104.html" target="_top">
<path fill="none" stroke="#63b8ff" d="M204.86,-77.93C240.74,-71.74 307.73,-58.81 368.86,-38.64"/>
<polygon fill="#63b8ff" stroke="#63b8ff" points="369.63,-42.08 377.97,-35.55 367.38,-35.45 369.63,-42.08"/>
</a>
</g>
<g id="a_edge5&#45;headlabel"><a xlink:href="dir_000095_000104.html" target="_top" xlink:title="2">
<text text-anchor="middle" x="368.57" y="-42.31" font-family="Helvetica,sans-Serif" font-size="10.00" fill="#63b8ff">2</text>
</a>
</g>
</g>
<!-- dir_17076abbcecdd53a1af3ac0a38ec6e06 -->
<g id="node5" class="node">
<title>dir_17076abbcecdd53a1af3ac0a38ec6e06</title>
<g id="a_node5"><a xlink:href="dir_17076abbcecdd53a1af3ac0a38ec6e06.html" target="_top" xlink:title="iros">
<polygon fill="#a2b4d6" stroke="#404040" points="242,-150.25 208,-150.25 208,-129.5 242,-129.5 242,-150.25"/>
<text text-anchor="middle" x="225" y="-136.75" font-family="Helvetica,sans-Serif" font-size="10.00">iros</text>
</a>
</g>
</g>
<!-- dir_17076abbcecdd53a1af3ac0a38ec6e06&#45;&gt;dir_984cd133b143ec7cf21a4bdcb401bfa5 -->
<g id="edge9" class="edge">
<title>dir_17076abbcecdd53a1af3ac0a38ec6e06&#45;&gt;dir_984cd133b143ec7cf21a4bdcb401bfa5</title>
<g id="a_edge9"><a xlink:href="dir_000109_000058.html" target="_top">
<path fill="none" stroke="#63b8ff" d="M207.73,-132.92C189.75,-125.95 161.77,-112.85 144,-93.5 140.64,-89.85 130.07,-65.68 122.43,-47.61"/>
<polygon fill="#63b8ff" stroke="#63b8ff" points="125.71,-46.4 118.62,-38.54 119.26,-49.11 125.71,-46.4"/>
</a>
</g>
<g id="a_edge9&#45;headlabel"><a xlink:href="dir_000109_000058.html" target="_top" xlink:title="6">
<text text-anchor="middle" x="129.14" y="-44.1" font-family="Helvetica,sans-Serif" font-size="10.00" fill="#63b8ff">6</text>
</a>
</g>
</g>
<!-- dir_17076abbcecdd53a1af3ac0a38ec6e06&#45;&gt;dir_6ac4aa95e4478b160428441746083760 -->
<g id="edge8" class="edge">
<title>dir_17076abbcecdd53a1af3ac0a38ec6e06&#45;&gt;dir_6ac4aa95e4478b160428441746083760</title>
<g id="a_edge8"><a xlink:href="dir_000109_000095.html" target="_top">
<path fill="none" stroke="#63b8ff" d="M216.78,-129.09C210.56,-121.69 201.85,-111.32 194.36,-102.41"/>
<polygon fill="#63b8ff" stroke="#63b8ff" points="197.24,-100.39 188.13,-94.99 191.88,-104.9 197.24,-100.39"/>
</a>
</g>
<g id="a_edge8&#45;headlabel"><a xlink:href="dir_000109_000095.html" target="_top" xlink:title="10">
<text text-anchor="middle" x="200.75" y="-97.03" font-family="Helvetica,sans-Serif" font-size="10.00" fill="#63b8ff">10</text>
</a>
</g>
</g>
<!-- dir_17076abbcecdd53a1af3ac0a38ec6e06&#45;&gt;dir_2605f0c6ea8f9a17a384edc9a2df15f4 -->
<g id="edge7" class="edge">
<title>dir_17076abbcecdd53a1af3ac0a38ec6e06&#45;&gt;dir_2605f0c6ea8f9a17a384edc9a2df15f4</title>
<g id="a_edge7"><a xlink:href="dir_000109_000104.html" target="_top">
<path fill="none" stroke="#63b8ff" d="M242.32,-132.56C245.21,-131.52 248.19,-130.47 251,-129.5 299.22,-112.85 321.03,-126.42 360,-93.5 374.25,-81.46 383.53,-62.12 388.92,-47.46"/>
<polygon fill="#63b8ff" stroke="#63b8ff" points="392.11,-48.96 391.96,-38.37 385.47,-46.74 392.11,-48.96"/>
</a>
</g>
<g id="a_edge7&#45;headlabel"><a xlink:href="dir_000109_000104.html" target="_top" xlink:title="3">
<text text-anchor="middle" x="394.15" y="-48.71" font-family="Helvetica,sans-Serif" font-size="10.00" fill="#63b8ff">3</text>
</a>
</g>
</g>
<!-- dir_7ccd26c404836bc22a606bd372fc0063 -->
<g id="node6" class="node">
<title>dir_7ccd26c404836bc22a606bd372fc0063</title>
<g id="a_node6"><a xlink:href="dir_7ccd26c404836bc22a606bd372fc0063.html" target="_top" xlink:title="linux">
<polygon fill="#a2b4d6" stroke="#404040" points="118,-150.25 78,-150.25 78,-129.5 118,-129.5 118,-150.25"/>
<text text-anchor="middle" x="98" y="-136.75" font-family="Helvetica,sans-Serif" font-size="10.00">linux</text>
</a>
</g>
</g>
<!-- dir_7ccd26c404836bc22a606bd372fc0063&#45;&gt;dir_048287677304621c659962c2a2c2732d -->
<g id="edge10" class="edge">
<title>dir_7ccd26c404836bc22a606bd372fc0063&#45;&gt;dir_048287677304621c659962c2a2c2732d</title>
<g id="a_edge10"><a xlink:href="dir_000117_000030.html" target="_top">
<path fill="none" stroke="#63b8ff" d="M118.36,-132.07C154.66,-119.9 226.93,-95.51 229,-93.5 241.51,-81.33 247.84,-62.28 250.99,-47.75"/>
<polygon fill="#63b8ff" stroke="#63b8ff" points="254.35,-48.81 252.69,-38.34 247.47,-47.56 254.35,-48.81"/>
</a>
</g>
<g id="a_edge10&#45;headlabel"><a xlink:href="dir_000117_000030.html" target="_top" xlink:title="6">
<text text-anchor="middle" x="256.78" y="-48.23" font-family="Helvetica,sans-Serif" font-size="10.00" fill="#63b8ff">6</text>
</a>
</g>
</g>
<!-- dir_7ccd26c404836bc22a606bd372fc0063&#45;&gt;dir_984cd133b143ec7cf21a4bdcb401bfa5 -->
<g id="edge12" class="edge">
<title>dir_7ccd26c404836bc22a606bd372fc0063&#45;&gt;dir_984cd133b143ec7cf21a4bdcb401bfa5</title>
<g id="a_edge12"><a xlink:href="dir_000117_000058.html" target="_top">
<path fill="none" stroke="#63b8ff" d="M99.36,-129.37C101.93,-111.52 107.51,-72.61 110.99,-48.34"/>
<polygon fill="#63b8ff" stroke="#63b8ff" points="114.42,-49.07 112.38,-38.67 107.49,-48.07 114.42,-49.07"/>
</a>
</g>
<g id="a_edge12&#45;headlabel"><a xlink:href="dir_000117_000058.html" target="_top" xlink:title="12">
<text text-anchor="middle" x="116.94" y="-48.41" font-family="Helvetica,sans-Serif" font-size="10.00" fill="#63b8ff">12</text>
</a>
</g>
</g>
<!-- dir_7ccd26c404836bc22a606bd372fc0063&#45;&gt;dir_6ac4aa95e4478b160428441746083760 -->
<g id="edge11" class="edge">
<title>dir_7ccd26c404836bc22a606bd372fc0063&#45;&gt;dir_6ac4aa95e4478b160428441746083760</title>
<g id="a_edge11"><a xlink:href="dir_000117_000095.html" target="_top">
<path fill="none" stroke="#63b8ff" d="M112.48,-129.09C124.35,-121.07 141.37,-109.56 155.23,-100.19"/>
<polygon fill="#63b8ff" stroke="#63b8ff" points="157.07,-103.18 163.39,-94.68 153.15,-97.38 157.07,-103.18"/>
</a>
</g>
<g id="a_edge11&#45;headlabel"><a xlink:href="dir_000117_000095.html" target="_top" xlink:title="13">
<text text-anchor="middle" x="156.93" y="-103.57" font-family="Helvetica,sans-Serif" font-size="10.00" fill="#63b8ff">13</text>
</a>
</g>
</g>
<!-- dir_53c77cad3f2909eef1204c9f26a60953 -->
<g id="node7" class="node">
<title>dir_53c77cad3f2909eef1204c9f26a60953</title>
<g id="a_node7"><a xlink:href="dir_53c77cad3f2909eef1204c9f26a60953.html" target="_top" xlink:title="posix">
<polygon fill="#a2b4d6" stroke="#404040" points="302.12,-150.25 259.88,-150.25 259.88,-129.5 302.12,-129.5 302.12,-150.25"/>
<text text-anchor="middle" x="281" y="-136.75" font-family="Helvetica,sans-Serif" font-size="10.00">posix</text>
</a>
</g>
</g>
<!-- dir_53c77cad3f2909eef1204c9f26a60953&#45;&gt;dir_048287677304621c659962c2a2c2732d -->
<g id="edge14" class="edge">
<title>dir_53c77cad3f2909eef1204c9f26a60953&#45;&gt;dir_048287677304621c659962c2a2c2732d</title>
<g id="a_edge14"><a xlink:href="dir_000142_000030.html" target="_top">
<path fill="none" stroke="#63b8ff" d="M280.12,-129.13C278.66,-114.82 275.28,-87.36 269,-64.75 267.4,-58.99 265.19,-52.91 262.97,-47.36"/>
<polygon fill="#63b8ff" stroke="#63b8ff" points="266.29,-46.23 259.15,-38.4 259.85,-48.97 266.29,-46.23"/>
</a>
</g>
<g id="a_edge14&#45;headlabel"><a xlink:href="dir_000142_000030.html" target="_top" xlink:title="2">
<text text-anchor="middle" x="269.72" y="-43.9" font-family="Helvetica,sans-Serif" font-size="10.00" fill="#63b8ff">2</text>
</a>
</g>
</g>
<!-- dir_53c77cad3f2909eef1204c9f26a60953&#45;&gt;dir_6ac4aa95e4478b160428441746083760 -->
<g id="edge13" class="edge">
<title>dir_53c77cad3f2909eef1204c9f26a60953&#45;&gt;dir_6ac4aa95e4478b160428441746083760</title>
<g id="a_edge13"><a xlink:href="dir_000142_000095.html" target="_top">
<path fill="none" stroke="#63b8ff" d="M262.76,-129.09C247.32,-120.8 224.91,-108.77 207.16,-99.24"/>
<polygon fill="#63b8ff" stroke="#63b8ff" points="208.88,-96.19 198.41,-94.54 205.57,-102.36 208.88,-96.19"/>
</a>
</g>
<g id="a_edge13&#45;headlabel"><a xlink:href="dir_000142_000095.html" target="_top" xlink:title="2">
<text text-anchor="middle" x="212.05" y="-91.55" font-family="Helvetica,sans-Serif" font-size="10.00" fill="#63b8ff">2</text>
</a>
</g>
</g>
<!-- dir_31e18d227c2c24cfedcd1fb5687b87ef -->
<g id="node8" class="node">
<title>dir_31e18d227c2c24cfedcd1fb5687b87ef</title>
<g id="a_node8"><a xlink:href="dir_31e18d227c2c24cfedcd1fb5687b87ef.html" target="_top" xlink:title="runtime">
<polygon fill="#a2b4d6" stroke="#404040" points="190.12,-150.25 135.88,-150.25 135.88,-129.5 190.12,-129.5 190.12,-150.25"/>
<text text-anchor="middle" x="163" y="-136.75" font-family="Helvetica,sans-Serif" font-size="10.00">runtime</text>
</a>
</g>
</g>
<!-- dir_31e18d227c2c24cfedcd1fb5687b87ef&#45;&gt;dir_048287677304621c659962c2a2c2732d -->
<g id="edge17" class="edge">
<title>dir_31e18d227c2c24cfedcd1fb5687b87ef&#45;&gt;dir_048287677304621c659962c2a2c2732d</title>
<g id="a_edge17"><a xlink:href="dir_000152_000030.html" target="_top">
<path fill="none" stroke="#63b8ff" d="M190.33,-132.09C210.13,-125.64 235.67,-113.83 249,-93.5 257.7,-80.23 258.48,-62.09 257.35,-48.16"/>
<polygon fill="#63b8ff" stroke="#63b8ff" points="260.83,-47.81 256.13,-38.32 253.89,-48.67 260.83,-47.81"/>
</a>
</g>
<g id="a_edge17&#45;headlabel"><a xlink:href="dir_000152_000030.html" target="_top" xlink:title="1">
<text text-anchor="middle" x="263.91" y="-46.4" font-family="Helvetica,sans-Serif" font-size="10.00" fill="#63b8ff">1</text>
</a>
</g>
</g>
<!-- dir_31e18d227c2c24cfedcd1fb5687b87ef&#45;&gt;dir_984cd133b143ec7cf21a4bdcb401bfa5 -->
<g id="edge16" class="edge">
<title>dir_31e18d227c2c24cfedcd1fb5687b87ef&#45;&gt;dir_984cd133b143ec7cf21a4bdcb401bfa5</title>
<g id="a_edge16"><a xlink:href="dir_000152_000058.html" target="_top">
<path fill="none" stroke="#63b8ff" d="M153.83,-129.22C146.09,-120.53 135.28,-107.08 129,-93.5 122.41,-79.25 118.62,-61.9 116.49,-48.55"/>
<polygon fill="#63b8ff" stroke="#63b8ff" points="119.97,-48.13 115.14,-38.7 113.03,-49.09 119.97,-48.13"/>
</a>
</g>
<g id="a_edge16&#45;headlabel"><a xlink:href="dir_000152_000058.html" target="_top" xlink:title="33">
<text text-anchor="middle" x="123.06" y="-46.68" font-family="Helvetica,sans-Serif" font-size="10.00" fill="#63b8ff">33</text>
</a>
</g>
</g>
<!-- dir_31e18d227c2c24cfedcd1fb5687b87ef&#45;&gt;dir_6ac4aa95e4478b160428441746083760 -->
<g id="edge15" class="edge">
<title>dir_31e18d227c2c24cfedcd1fb5687b87ef&#45;&gt;dir_6ac4aa95e4478b160428441746083760</title>
<g id="a_edge15"><a xlink:href="dir_000152_000095.html" target="_top">
<path fill="none" stroke="#63b8ff" d="M165.86,-129.09C167.84,-122.31 170.55,-113.05 172.99,-104.69"/>
<polygon fill="#63b8ff" stroke="#63b8ff" points="176.29,-105.86 175.74,-95.28 169.58,-103.9 176.29,-105.86"/>
</a>
</g>
<g id="a_edge15&#45;headlabel"><a xlink:href="dir_000152_000095.html" target="_top" xlink:title="23">
<text text-anchor="middle" x="178.44" y="-105.53" font-family="Helvetica,sans-Serif" font-size="10.00" fill="#63b8ff">23</text>
</a>
</g>
</g>
<!-- dir_fa70516c1f0e70fcd30080d69bfe6fb3 -->
<g id="node9" class="node">
<title>dir_fa70516c1f0e70fcd30080d69bfe6fb3</title>
<g id="a_node9"><a xlink:href="dir_fa70516c1f0e70fcd30080d69bfe6fb3.html" target="_top" xlink:title="test">
<polygon fill="#a2b4d6" stroke="#404040" points="355.38,-150.25 320.62,-150.25 320.62,-129.5 355.38,-129.5 355.38,-150.25"/>
<text text-anchor="middle" x="338" y="-136.75" font-family="Helvetica,sans-Serif" font-size="10.00">test</text>
</a>
</g>
</g>
<!-- dir_fa70516c1f0e70fcd30080d69bfe6fb3&#45;&gt;dir_048287677304621c659962c2a2c2732d -->
<g id="edge18" class="edge">
<title>dir_fa70516c1f0e70fcd30080d69bfe6fb3&#45;&gt;dir_048287677304621c659962c2a2c2732d</title>
<g id="a_edge18"><a xlink:href="dir_000174_000030.html" target="_top">
<path fill="none" stroke="#63b8ff" d="M330.84,-129.37C316.96,-110.95 286.18,-70.09 268.07,-46.05"/>
<polygon fill="#63b8ff" stroke="#63b8ff" points="271.11,-44.27 262.29,-38.38 265.52,-48.48 271.11,-44.27"/>
</a>
</g>
<g id="a_edge18&#45;headlabel"><a xlink:href="dir_000174_000030.html" target="_top" xlink:title="1">
<text text-anchor="middle" x="274.63" y="-41.09" font-family="Helvetica,sans-Serif" font-size="10.00" fill="#63b8ff">1</text>
</a>
</g>
</g>
<!-- dir_fa70516c1f0e70fcd30080d69bfe6fb3&#45;&gt;dir_6ac4aa95e4478b160428441746083760 -->
<g id="edge19" class="edge">
<title>dir_fa70516c1f0e70fcd30080d69bfe6fb3&#45;&gt;dir_6ac4aa95e4478b160428441746083760</title>
<g id="a_edge19"><a xlink:href="dir_000174_000095.html" target="_top">
<path fill="none" stroke="#63b8ff" d="M320.28,-132.71C317.19,-131.64 314,-130.54 311,-129.5 278.73,-118.35 242.01,-105.73 215.5,-96.64"/>
<polygon fill="#63b8ff" stroke="#63b8ff" points="216.83,-93.4 206.24,-93.46 214.56,-100.02 216.83,-93.4"/>
</a>
</g>
<g id="a_edge19&#45;headlabel"><a xlink:href="dir_000174_000095.html" target="_top" xlink:title="5">
<text text-anchor="middle" x="219.72" y="-88.26" font-family="Helvetica,sans-Serif" font-size="10.00" fill="#63b8ff">5</text>
</a>
</g>
</g>
</g>
</svg>
