<?xml version="1.0" encoding="UTF-8" standalone="no"?>
<!DOCTYPE svg PUBLIC "-//W3C//DTD SVG 1.1//EN"
 "http://www.w3.org/Graphics/SVG/1.1/DTD/svg11.dtd">
<!-- Generated by graphviz version 10.0.1 (0)
 -->
<!-- Title: iris/include/iris Pages: 1 -->
<svg width="286pt" height="301pt"
 viewBox="0.00 0.00 286.00 300.50" xmlns="http://www.w3.org/2000/svg" xmlns:xlink="http://www.w3.org/1999/xlink">
<g id="graph0" class="graph" transform="scale(1 1) rotate(0) translate(4 296.5)">
<title>iris/include/iris</title>
<g id="clust1" class="cluster">
<title>clusterdir_29a765eed241630f2929477fec556e75</title>
<g id="a_clust1"><a xlink:href="dir_29a765eed241630f2929477fec556e75.html" target="_top" xlink:title="include">
<polygon fill="#edf0f7" stroke="#7f7f7f" stroke-dasharray="5,2" points="8,-40.75 8,-284.5 270,-284.5 270,-40.75 8,-40.75"/>
<text text-anchor="middle" x="139" y="-271" font-family="Helvetica,sans-Serif" font-size="10.00">include</text>
</a>
</g>
</g>
<g id="clust2" class="cluster">
<title>clusterdir_ffe5edf85fa540270b5bdba28be40ae5</title>
<g id="a_clust2"><a xlink:href="dir_ffe5edf85fa540270b5bdba28be40ae5.html" target="_top">
<polygon fill="#edf0f7" stroke="#404040" stroke-width="2" points="16,-48.75 16,-255.75 262,-255.75 262,-48.75 16,-48.75"/>
</a>
</g>
</g>
<!-- dir_ffe5edf85fa540270b5bdba28be40ae5 -->
<g id="node1" class="node">
<title>dir_ffe5edf85fa540270b5bdba28be40ae5</title>
<text text-anchor="middle" x="40" y="-234.25" font-family="Helvetica,sans-Serif" font-size="10.00">iris</text>
</g>
<!-- dir_5fe499bcb7f32920606defa2f08a6cab -->
<g id="node2" class="node">
<title>dir_5fe499bcb7f32920606defa2f08a6cab</title>
<g id="a_node2"><a xlink:href="dir_5fe499bcb7f32920606defa2f08a6cab.html" target="_top" xlink:title="arch">
<polygon fill="#a2b4d6" stroke="#404040" points="110.5,-247.75 73.5,-247.75 73.5,-227 110.5,-227 110.5,-247.75"/>
<text text-anchor="middle" x="92" y="-234.25" font-family="Helvetica,sans-Serif" font-size="10.00">arch</text>
</a>
</g>
</g>
<!-- dir_be381e3b7aa79a91c125f50d5abcc4e9 -->
<g id="node4" class="node">
<title>dir_be381e3b7aa79a91c125f50d5abcc4e9</title>
<g id="a_node4"><a xlink:href="dir_be381e3b7aa79a91c125f50d5abcc4e9.html" target="_top" xlink:title="core">
<polygon fill="#a2b4d6" stroke="#404040" points="151.5,-191 114.5,-191 114.5,-170.25 151.5,-170.25 151.5,-191"/>
<text text-anchor="middle" x="133" y="-177.5" font-family="Helvetica,sans-Serif" font-size="10.00">core</text>
</a>
</g>
</g>
<!-- dir_5fe499bcb7f32920606defa2f08a6cab&#45;&gt;dir_be381e3b7aa79a91c125f50d5abcc4e9 -->
<g id="edge4" class="edge">
<title>dir_5fe499bcb7f32920606defa2f08a6cab&#45;&gt;dir_be381e3b7aa79a91c125f50d5abcc4e9</title>
<g id="a_edge4"><a xlink:href="dir_000011_000052.html" target="_top">
<path fill="none" stroke="#63b8ff" d="M99.33,-226.59C104.75,-219.35 112.31,-209.26 118.89,-200.47"/>
<polygon fill="#63b8ff" stroke="#63b8ff" points="121.63,-202.64 124.83,-192.54 116.03,-198.45 121.63,-202.64"/>
</a>
</g>
<g id="a_edge4&#45;headlabel"><a xlink:href="dir_000011_000052.html" target="_top" xlink:title="1">
<text text-anchor="middle" x="122.66" y="-202.88" font-family="Helvetica,sans-Serif" font-size="10.00" fill="#63b8ff">1</text>
</a>
</g>
</g>
<!-- dir_7cd5da72e38cd0f075d57a788b4f2242 -->
<g id="node6" class="node">
<title>dir_7cd5da72e38cd0f075d57a788b4f2242</title>
<g id="a_node6"><a xlink:href="dir_7cd5da72e38cd0f075d57a788b4f2242.html" target="_top" xlink:title="hw">
<polygon fill="#a2b4d6" stroke="#404040" points="186.12,-134.25 155.88,-134.25 155.88,-113.5 186.12,-113.5 186.12,-134.25"/>
<text text-anchor="middle" x="171" y="-120.75" font-family="Helvetica,sans-Serif" font-size="10.00">hw</text>
</a>
</g>
</g>
<!-- dir_5fe499bcb7f32920606defa2f08a6cab&#45;&gt;dir_7cd5da72e38cd0f075d57a788b4f2242 -->
<g id="edge3" class="edge">
<title>dir_5fe499bcb7f32920606defa2f08a6cab&#45;&gt;dir_7cd5da72e38cd0f075d57a788b4f2242</title>
<g id="a_edge3"><a xlink:href="dir_000011_000091.html" target="_top">
<path fill="none" stroke="#63b8ff" d="M110.78,-229.22C126.83,-222.07 149.17,-209.47 161,-191 169.53,-177.68 171.82,-159.8 172.08,-145.99"/>
<polygon fill="#63b8ff" stroke="#63b8ff" points="175.59,-146.15 171.91,-136.22 168.59,-146.28 175.59,-146.15"/>
</a>
</g>
<g id="a_edge3&#45;headlabel"><a xlink:href="dir_000011_000091.html" target="_top" xlink:title="4">
<text text-anchor="middle" x="178.46" y="-145.06" font-family="Helvetica,sans-Serif" font-size="10.00" fill="#63b8ff">4</text>
</a>
</g>
</g>
<!-- dir_945708b8d3397c2507c5e618c4393ffa -->
<g id="node7" class="node">
<title>dir_945708b8d3397c2507c5e618c4393ffa</title>
<g id="a_node7"><a xlink:href="dir_945708b8d3397c2507c5e618c4393ffa.html" target="_top" xlink:title="mm">
<polygon fill="#a2b4d6" stroke="#404040" points="114.75,-77.5 79.25,-77.5 79.25,-56.75 114.75,-56.75 114.75,-77.5"/>
<text text-anchor="middle" x="97" y="-64" font-family="Helvetica,sans-Serif" font-size="10.00">mm</text>
</a>
</g>
</g>
<!-- dir_5fe499bcb7f32920606defa2f08a6cab&#45;&gt;dir_945708b8d3397c2507c5e618c4393ffa -->
<g id="edge2" class="edge">
<title>dir_5fe499bcb7f32920606defa2f08a6cab&#45;&gt;dir_945708b8d3397c2507c5e618c4393ffa</title>
<g id="a_edge2"><a xlink:href="dir_000011_000130.html" target="_top">
<path fill="none" stroke="#63b8ff" d="M89.46,-226.75C84.34,-205.94 73.85,-155.3 81,-113.5 82.44,-105.08 85.28,-96.15 88.18,-88.45"/>
<polygon fill="#63b8ff" stroke="#63b8ff" points="91.35,-89.94 91.87,-79.36 84.87,-87.31 91.35,-89.94"/>
</a>
</g>
<g id="a_edge2&#45;headlabel"><a xlink:href="dir_000011_000130.html" target="_top" xlink:title="4">
<text text-anchor="middle" x="93.2" y="-89.81" font-family="Helvetica,sans-Serif" font-size="10.00" fill="#63b8ff">4</text>
</a>
</g>
</g>
<!-- dir_0d9b91d0f0b9ec0856341172f56c0a57 -->
<g id="node9" class="node">
<title>dir_0d9b91d0f0b9ec0856341172f56c0a57</title>
<g id="a_node9"><a xlink:href="dir_0d9b91d0f0b9ec0856341172f56c0a57.html" target="_top" xlink:title="uapi">
<polygon fill="#a2b4d6" stroke="#404040" points="61.5,-77.5 24.5,-77.5 24.5,-56.75 61.5,-56.75 61.5,-77.5"/>
<text text-anchor="middle" x="43" y="-64" font-family="Helvetica,sans-Serif" font-size="10.00">uapi</text>
</a>
</g>
</g>
<!-- dir_5fe499bcb7f32920606defa2f08a6cab&#45;&gt;dir_0d9b91d0f0b9ec0856341172f56c0a57 -->
<g id="edge5" class="edge">
<title>dir_5fe499bcb7f32920606defa2f08a6cab&#45;&gt;dir_0d9b91d0f0b9ec0856341172f56c0a57</title>
<g id="a_edge5"><a xlink:href="dir_000011_000185.html" target="_top">
<path fill="none" stroke="#63b8ff" d="M88.06,-226.74C84.41,-217.62 78.96,-203.51 75,-191 63.78,-155.57 53.46,-113.5 47.72,-88.92"/>
<polygon fill="#63b8ff" stroke="#63b8ff" points="51.15,-88.22 45.49,-79.26 44.33,-89.79 51.15,-88.22"/>
</a>
</g>
<g id="a_edge5&#45;headlabel"><a xlink:href="dir_000011_000185.html" target="_top" xlink:title="1">
<text text-anchor="middle" x="54.38" y="-86.48" font-family="Helvetica,sans-Serif" font-size="10.00" fill="#63b8ff">1</text>
</a>
</g>
</g>
<!-- dir_6719ab1f1f7655efc2fa43f7eb574fd1 -->
<g id="node10" class="node">
<title>dir_6719ab1f1f7655efc2fa43f7eb574fd1</title>
<g id="a_node10"><a xlink:href="dir_6719ab1f1f7655efc2fa43f7eb574fd1.html" target="_top" xlink:title="libs">
<polygon fill="#edf0f7" stroke="red" points="178.62,-20.75 145.38,-20.75 145.38,0 178.62,0 178.62,-20.75"/>
<text text-anchor="middle" x="162" y="-7.25" font-family="Helvetica,sans-Serif" font-size="10.00">libs</text>
</a>
</g>
</g>
<!-- dir_5fe499bcb7f32920606defa2f08a6cab&#45;&gt;dir_6719ab1f1f7655efc2fa43f7eb574fd1 -->
<g id="edge1" class="edge">
<title>dir_5fe499bcb7f32920606defa2f08a6cab&#45;&gt;dir_6719ab1f1f7655efc2fa43f7eb574fd1</title>
<g id="a_edge1"><a xlink:href="dir_000011_000112.html" target="_top">
<path fill="none" stroke="#63b8ff" d="M110.76,-228.22C127.52,-220.33 152.12,-207.2 170,-191 193.06,-170.11 201.42,-163.86 211,-134.25 218.45,-111.23 217.59,-65.69 203,-40.75 199.49,-34.75 194.21,-29.64 188.59,-25.45"/>
<polygon fill="#63b8ff" stroke="#63b8ff" points="190.65,-22.61 180.36,-20.1 186.84,-28.48 190.65,-22.61"/>
</a>
</g>
<g id="a_edge1&#45;headlabel"><a xlink:href="dir_000011_000112.html" target="_top" xlink:title="23">
<text text-anchor="middle" x="193.94" y="-18.24" font-family="Helvetica,sans-Serif" font-size="10.00" fill="#63b8ff">23</text>
</a>
</g>
</g>
<!-- dir_9fdded5c4b67c8302fcdd3b50b7b5c11 -->
<g id="node3" class="node">
<title>dir_9fdded5c4b67c8302fcdd3b50b7b5c11</title>
<g id="a_node3"><a xlink:href="dir_9fdded5c4b67c8302fcdd3b50b7b5c11.html" target="_top" xlink:title="boot">
<polygon fill="#a2b4d6" stroke="#404040" points="165.88,-247.75 128.12,-247.75 128.12,-227 165.88,-227 165.88,-247.75"/>
<text text-anchor="middle" x="147" y="-234.25" font-family="Helvetica,sans-Serif" font-size="10.00">boot</text>
</a>
</g>
</g>
<!-- dir_a21c0d42bc7a96803f2e083bf7f05619 -->
<g id="node5" class="node">
<title>dir_a21c0d42bc7a96803f2e083bf7f05619</title>
<g id="a_node5"><a xlink:href="dir_a21c0d42bc7a96803f2e083bf7f05619.html" target="_top" xlink:title="fs">
<polygon fill="#a2b4d6" stroke="#404040" points="118.4,-134.25 89.6,-134.25 89.6,-113.5 118.4,-113.5 118.4,-134.25"/>
<text text-anchor="middle" x="104" y="-120.75" font-family="Helvetica,sans-Serif" font-size="10.00">fs</text>
</a>
</g>
</g>
<!-- dir_be381e3b7aa79a91c125f50d5abcc4e9&#45;&gt;dir_a21c0d42bc7a96803f2e083bf7f05619 -->
<g id="edge10" class="edge">
<title>dir_be381e3b7aa79a91c125f50d5abcc4e9&#45;&gt;dir_a21c0d42bc7a96803f2e083bf7f05619</title>
<g id="a_edge10"><a xlink:href="dir_000052_000082.html" target="_top">
<path fill="none" stroke="#63b8ff" d="M122.5,-169.84C117.55,-162.99 112.16,-153.59 108.2,-145.15"/>
<polygon fill="#63b8ff" stroke="#63b8ff" points="111.46,-143.89 104.42,-135.98 104.99,-146.56 111.46,-143.89"/>
</a>
</g>
<g id="a_edge10&#45;headlabel"><a xlink:href="dir_000052_000082.html" target="_top" xlink:title="6">
<text text-anchor="middle" x="114.88" y="-141.61" font-family="Helvetica,sans-Serif" font-size="10.00" fill="#63b8ff">6</text>
</a>
</g>
</g>
<!-- dir_be381e3b7aa79a91c125f50d5abcc4e9&#45;&gt;dir_7cd5da72e38cd0f075d57a788b4f2242 -->
<g id="edge8" class="edge">
<title>dir_be381e3b7aa79a91c125f50d5abcc4e9&#45;&gt;dir_7cd5da72e38cd0f075d57a788b4f2242</title>
<g id="a_edge8"><a xlink:href="dir_000052_000091.html" target="_top">
<path fill="none" stroke="#63b8ff" d="M134.48,-169.84C138.15,-162.52 144.88,-152.29 151.69,-143.44"/>
<polygon fill="#63b8ff" stroke="#63b8ff" points="154.36,-145.7 158,-135.75 148.95,-141.25 154.36,-145.7"/>
</a>
</g>
<g id="a_edge8&#45;headlabel"><a xlink:href="dir_000052_000091.html" target="_top" xlink:title="3">
<text text-anchor="middle" x="155.23" y="-145.98" font-family="Helvetica,sans-Serif" font-size="10.00" fill="#63b8ff">3</text>
</a>
</g>
</g>
<!-- dir_be381e3b7aa79a91c125f50d5abcc4e9&#45;&gt;dir_945708b8d3397c2507c5e618c4393ffa -->
<g id="edge9" class="edge">
<title>dir_be381e3b7aa79a91c125f50d5abcc4e9&#45;&gt;dir_945708b8d3397c2507c5e618c4393ffa</title>
<g id="a_edge9"><a xlink:href="dir_000052_000130.html" target="_top">
<path fill="none" stroke="#63b8ff" d="M127.5,-169.9C125.03,-156.72 124.71,-132.64 118,-113.5 114.77,-104.29 109.26,-95.13 104.43,-87.47"/>
<polygon fill="#63b8ff" stroke="#63b8ff" points="107.45,-85.69 99.17,-79.08 101.52,-89.41 107.45,-85.69"/>
</a>
</g>
<g id="a_edge9&#45;headlabel"><a xlink:href="dir_000052_000130.html" target="_top" xlink:title="6">
<text text-anchor="middle" x="110.96" y="-82.82" font-family="Helvetica,sans-Serif" font-size="10.00" fill="#63b8ff">6</text>
</a>
</g>
</g>
<!-- dir_be381e3b7aa79a91c125f50d5abcc4e9&#45;&gt;dir_0d9b91d0f0b9ec0856341172f56c0a57 -->
<g id="edge6" class="edge">
<title>dir_be381e3b7aa79a91c125f50d5abcc4e9&#45;&gt;dir_0d9b91d0f0b9ec0856341172f56c0a57</title>
<g id="a_edge6"><a xlink:href="dir_000052_000185.html" target="_top">
<path fill="none" stroke="#63b8ff" d="M119.5,-169.87C108.3,-161.33 92.4,-148.14 81,-134.25 69.32,-120.02 59.11,-101.74 52.23,-88"/>
<polygon fill="#63b8ff" stroke="#63b8ff" points="55.43,-86.57 47.93,-79.09 49.12,-89.62 55.43,-86.57"/>
</a>
</g>
<g id="a_edge6&#45;headlabel"><a xlink:href="dir_000052_000185.html" target="_top" xlink:title="1">
<text text-anchor="middle" x="58.89" y="-84.09" font-family="Helvetica,sans-Serif" font-size="10.00" fill="#63b8ff">1</text>
</a>
</g>
</g>
<!-- dir_be381e3b7aa79a91c125f50d5abcc4e9&#45;&gt;dir_6719ab1f1f7655efc2fa43f7eb574fd1 -->
<g id="edge7" class="edge">
<title>dir_be381e3b7aa79a91c125f50d5abcc4e9&#45;&gt;dir_6719ab1f1f7655efc2fa43f7eb574fd1</title>
<g id="a_edge7"><a xlink:href="dir_000052_000112.html" target="_top">
<path fill="none" stroke="#63b8ff" d="M151.73,-171.76C166.48,-164.44 186.01,-151.97 195,-134.25 212.4,-99.95 190.86,-55.46 175.31,-30.52"/>
<polygon fill="#63b8ff" stroke="#63b8ff" points="178.38,-28.82 169.97,-22.37 172.52,-32.65 178.38,-28.82"/>
</a>
</g>
<g id="a_edge7&#45;headlabel"><a xlink:href="dir_000052_000112.html" target="_top" xlink:title="54">
<text text-anchor="middle" x="181.89" y="-25.87" font-family="Helvetica,sans-Serif" font-size="10.00" fill="#63b8ff">54</text>
</a>
</g>
</g>
<!-- dir_a21c0d42bc7a96803f2e083bf7f05619&#45;&gt;dir_be381e3b7aa79a91c125f50d5abcc4e9 -->
<g id="edge14" class="edge">
<title>dir_a21c0d42bc7a96803f2e083bf7f05619&#45;&gt;dir_be381e3b7aa79a91c125f50d5abcc4e9</title>
<g id="a_edge14"><a xlink:href="dir_000082_000052.html" target="_top">
<path fill="none" stroke="#63b8ff" d="M114.44,-134.58C119.38,-141.41 124.78,-150.8 128.76,-159.24"/>
<polygon fill="#63b8ff" stroke="#63b8ff" points="125.5,-160.53 132.55,-168.44 131.97,-157.86 125.5,-160.53"/>
</a>
</g>
<g id="a_edge14&#45;headlabel"><a xlink:href="dir_000082_000052.html" target="_top" xlink:title="8">
<text text-anchor="middle" x="122.08" y="-156.57" font-family="Helvetica,sans-Serif" font-size="10.00" fill="#63b8ff">8</text>
</a>
</g>
</g>
<!-- dir_a21c0d42bc7a96803f2e083bf7f05619&#45;&gt;dir_945708b8d3397c2507c5e618c4393ffa -->
<g id="edge13" class="edge">
<title>dir_a21c0d42bc7a96803f2e083bf7f05619&#45;&gt;dir_945708b8d3397c2507c5e618c4393ffa</title>
<g id="a_edge13"><a xlink:href="dir_000082_000130.html" target="_top">
<path fill="none" stroke="#63b8ff" d="M102.75,-113.09C101.89,-106.39 100.73,-97.26 99.67,-88.98"/>
<polygon fill="#63b8ff" stroke="#63b8ff" points="103.17,-88.81 98.43,-79.33 96.23,-89.69 103.17,-88.81"/>
</a>
</g>
<g id="a_edge13&#45;headlabel"><a xlink:href="dir_000082_000130.html" target="_top" xlink:title="2">
<text text-anchor="middle" x="106.25" y="-87.38" font-family="Helvetica,sans-Serif" font-size="10.00" fill="#63b8ff">2</text>
</a>
</g>
</g>
<!-- dir_a21c0d42bc7a96803f2e083bf7f05619&#45;&gt;dir_0d9b91d0f0b9ec0856341172f56c0a57 -->
<g id="edge11" class="edge">
<title>dir_a21c0d42bc7a96803f2e083bf7f05619&#45;&gt;dir_0d9b91d0f0b9ec0856341172f56c0a57</title>
<g id="a_edge11"><a xlink:href="dir_000082_000185.html" target="_top">
<path fill="none" stroke="#63b8ff" d="M93.09,-113.09C84.51,-105.38 72.33,-94.45 62.12,-85.29"/>
<polygon fill="#63b8ff" stroke="#63b8ff" points="64.72,-82.91 54.94,-78.84 60.04,-88.12 64.72,-82.91"/>
</a>
</g>
<g id="a_edge11&#45;headlabel"><a xlink:href="dir_000082_000185.html" target="_top" xlink:title="5">
<text text-anchor="middle" x="68.16" y="-79.07" font-family="Helvetica,sans-Serif" font-size="10.00" fill="#63b8ff">5</text>
</a>
</g>
</g>
<!-- dir_a21c0d42bc7a96803f2e083bf7f05619&#45;&gt;dir_6719ab1f1f7655efc2fa43f7eb574fd1 -->
<g id="edge12" class="edge">
<title>dir_a21c0d42bc7a96803f2e083bf7f05619&#45;&gt;dir_6719ab1f1f7655efc2fa43f7eb574fd1</title>
<g id="a_edge12"><a xlink:href="dir_000082_000112.html" target="_top">
<path fill="none" stroke="#63b8ff" d="M108.95,-113.37C118.36,-95.27 139.03,-55.53 151.61,-31.35"/>
<polygon fill="#63b8ff" stroke="#63b8ff" points="154.69,-33 156.2,-22.52 148.48,-29.77 154.69,-33"/>
</a>
</g>
<g id="a_edge12&#45;headlabel"><a xlink:href="dir_000082_000112.html" target="_top" xlink:title="21">
<text text-anchor="middle" x="156.25" y="-33.04" font-family="Helvetica,sans-Serif" font-size="10.00" fill="#63b8ff">21</text>
</a>
</g>
</g>
<!-- dir_7cd5da72e38cd0f075d57a788b4f2242&#45;&gt;dir_be381e3b7aa79a91c125f50d5abcc4e9 -->
<g id="edge16" class="edge">
<title>dir_7cd5da72e38cd0f075d57a788b4f2242&#45;&gt;dir_be381e3b7aa79a91c125f50d5abcc4e9</title>
<g id="a_edge16"><a xlink:href="dir_000091_000052.html" target="_top">
<path fill="none" stroke="#63b8ff" d="M169.56,-134.58C165.92,-141.87 159.2,-152.09 152.39,-160.96"/>
<polygon fill="#63b8ff" stroke="#63b8ff" points="149.71,-158.72 146.07,-168.67 155.12,-163.15 149.71,-158.72"/>
</a>
</g>
<g id="a_edge16&#45;headlabel"><a xlink:href="dir_000091_000052.html" target="_top" xlink:title="2">
<text text-anchor="middle" x="148.83" y="-152.18" font-family="Helvetica,sans-Serif" font-size="10.00" fill="#63b8ff">2</text>
</a>
</g>
</g>
<!-- dir_7cd5da72e38cd0f075d57a788b4f2242&#45;&gt;dir_6719ab1f1f7655efc2fa43f7eb574fd1 -->
<g id="edge15" class="edge">
<title>dir_7cd5da72e38cd0f075d57a788b4f2242&#45;&gt;dir_6719ab1f1f7655efc2fa43f7eb574fd1</title>
<g id="a_edge15"><a xlink:href="dir_000091_000112.html" target="_top">
<path fill="none" stroke="#63b8ff" d="M170.23,-113.37C168.79,-95.52 165.65,-56.61 163.69,-32.34"/>
<polygon fill="#63b8ff" stroke="#63b8ff" points="167.21,-32.37 162.91,-22.68 160.23,-32.93 167.21,-32.37"/>
</a>
</g>
<g id="a_edge15&#45;headlabel"><a xlink:href="dir_000091_000112.html" target="_top" xlink:title="9">
<text text-anchor="middle" x="170.2" y="-31.09" font-family="Helvetica,sans-Serif" font-size="10.00" fill="#63b8ff">9</text>
</a>
</g>
</g>
<!-- dir_945708b8d3397c2507c5e618c4393ffa&#45;&gt;dir_be381e3b7aa79a91c125f50d5abcc4e9 -->
<g id="edge18" class="edge">
<title>dir_945708b8d3397c2507c5e618c4393ffa&#45;&gt;dir_be381e3b7aa79a91c125f50d5abcc4e9</title>
<g id="a_edge18"><a xlink:href="dir_000130_000052.html" target="_top">
<path fill="none" stroke="#63b8ff" d="M112.59,-77.8C121.56,-86.5 131.25,-99.95 136,-113.5 141.09,-128.01 142.5,-145.35 141.42,-158.63"/>
<polygon fill="#63b8ff" stroke="#63b8ff" points="137.98,-157.98 139.89,-168.4 144.89,-159.07 137.98,-157.98"/>
</a>
</g>
<g id="a_edge18&#45;headlabel"><a xlink:href="dir_000130_000052.html" target="_top" xlink:title="6">
<text text-anchor="middle" x="135.5" y="-152.36" font-family="Helvetica,sans-Serif" font-size="10.00" fill="#63b8ff">6</text>
</a>
</g>
</g>
<!-- dir_945708b8d3397c2507c5e618c4393ffa&#45;&gt;dir_6719ab1f1f7655efc2fa43f7eb574fd1 -->
<g id="edge17" class="edge">
<title>dir_945708b8d3397c2507c5e618c4393ffa&#45;&gt;dir_6719ab1f1f7655efc2fa43f7eb574fd1</title>
<g id="a_edge17"><a xlink:href="dir_000130_000112.html" target="_top">
<path fill="none" stroke="#63b8ff" d="M108.62,-56.34C117.86,-48.55 131.01,-37.47 141.95,-28.26"/>
<polygon fill="#63b8ff" stroke="#63b8ff" points="143.93,-31.17 149.32,-22.05 139.42,-25.82 143.93,-31.17"/>
</a>
</g>
<g id="a_edge17&#45;headlabel"><a xlink:href="dir_000130_000112.html" target="_top" xlink:title="20">
<text text-anchor="middle" x="144.17" y="-31.56" font-family="Helvetica,sans-Serif" font-size="10.00" fill="#63b8ff">20</text>
</a>
</g>
</g>
<!-- dir_cf1530f6af73bf6ea3944fb0da239c6a -->
<g id="node8" class="node">
<title>dir_cf1530f6af73bf6ea3944fb0da239c6a</title>
<g id="a_node8"><a xlink:href="dir_cf1530f6af73bf6ea3944fb0da239c6a.html" target="_top" xlink:title="third_party">
<polygon fill="#a2b4d6" stroke="#404040" points="253.62,-247.75 184.38,-247.75 184.38,-227 253.62,-227 253.62,-247.75"/>
<text text-anchor="middle" x="219" y="-234.25" font-family="Helvetica,sans-Serif" font-size="10.00">third_party</text>
</a>
</g>
</g>
<!-- dir_0d9b91d0f0b9ec0856341172f56c0a57&#45;&gt;dir_6719ab1f1f7655efc2fa43f7eb574fd1 -->
<g id="edge19" class="edge">
<title>dir_0d9b91d0f0b9ec0856341172f56c0a57&#45;&gt;dir_6719ab1f1f7655efc2fa43f7eb574fd1</title>
<g id="a_edge19"><a xlink:href="dir_000185_000112.html" target="_top">
<path fill="none" stroke="#63b8ff" d="M51.41,-56.32C56.36,-51.07 63.01,-44.86 70,-40.75 89.89,-29.05 114.99,-21.44 133.94,-16.9"/>
<polygon fill="#63b8ff" stroke="#63b8ff" points="134.65,-20.33 143.65,-14.74 133.12,-13.5 134.65,-20.33"/>
</a>
</g>
<g id="a_edge19&#45;headlabel"><a xlink:href="dir_000185_000112.html" target="_top" xlink:title="6">
<text text-anchor="middle" x="133.23" y="-20.43" font-family="Helvetica,sans-Serif" font-size="10.00" fill="#63b8ff">6</text>
</a>
</g>
</g>
</g>
</svg>
