<?xml version="1.0" encoding="UTF-8" standalone="no"?>
<!DOCTYPE svg PUBLIC "-//W3C//DTD SVG 1.1//EN"
 "http://www.w3.org/Graphics/SVG/1.1/DTD/svg11.dtd">
<!-- Generated by graphviz version 10.0.1 (0)
 -->
<!-- Title: libs Pages: 1 -->
<svg width="162pt" height="174pt"
 viewBox="0.00 0.00 161.50 174.25" xmlns="http://www.w3.org/2000/svg" xmlns:xlink="http://www.w3.org/1999/xlink">
<g id="graph0" class="graph" transform="scale(1 1) rotate(0) translate(4 170.25)">
<title>libs</title>
<g id="clust1" class="cluster">
<title>clusterdir_6719ab1f1f7655efc2fa43f7eb574fd1</title>
<g id="a_clust1"><a xlink:href="dir_6719ab1f1f7655efc2fa43f7eb574fd1.html" target="_top">
<polygon fill="#edf0f7" stroke="#404040" stroke-width="2" points="8,-8 8,-158.25 114,-158.25 114,-8 8,-8"/>
</a>
</g>
</g>
<!-- dir_6719ab1f1f7655efc2fa43f7eb574fd1 -->
<g id="node1" class="node">
<title>dir_6719ab1f1f7655efc2fa43f7eb574fd1</title>
<text text-anchor="middle" x="33" y="-136.75" font-family="Helvetica,sans-Serif" font-size="10.00">libs</text>
</g>
<!-- dir_048287677304621c659962c2a2c2732d -->
<g id="node2" class="node">
<title>dir_048287677304621c659962c2a2c2732d</title>
<g id="a_node2"><a xlink:href="dir_048287677304621c659962c2a2c2732d.html" target="_top" xlink:title="ccpp">
<polygon fill="#a2b4d6" stroke="#404040" points="106.25,-150.25 67.75,-150.25 67.75,-129.5 106.25,-129.5 106.25,-150.25"/>
<text text-anchor="middle" x="87" y="-136.75" font-family="Helvetica,sans-Serif" font-size="10.00">ccpp</text>
</a>
</g>
</g>
<!-- dir_984cd133b143ec7cf21a4bdcb401bfa5 -->
<g id="node3" class="node">
<title>dir_984cd133b143ec7cf21a4bdcb401bfa5</title>
<g id="a_node3"><a xlink:href="dir_984cd133b143ec7cf21a4bdcb401bfa5.html" target="_top" xlink:title="di">
<polygon fill="#a2b4d6" stroke="#404040" points="65.4,-36.75 36.6,-36.75 36.6,-16 65.4,-16 65.4,-36.75"/>
<text text-anchor="middle" x="51" y="-23.25" font-family="Helvetica,sans-Serif" font-size="10.00">di</text>
</a>
</g>
</g>
<!-- dir_048287677304621c659962c2a2c2732d&#45;&gt;dir_984cd133b143ec7cf21a4bdcb401bfa5 -->
<g id="edge2" class="edge">
<title>dir_048287677304621c659962c2a2c2732d&#45;&gt;dir_984cd133b143ec7cf21a4bdcb401bfa5</title>
<g id="a_edge2"><a xlink:href="dir_000030_000058.html" target="_top">
<path fill="none" stroke="#63b8ff" d="M73.06,-129.29C65.07,-120.44 56.6,-106.7 52,-93.5 46.91,-78.88 44.41,-61.54 44.45,-48.29"/>
<polygon fill="#63b8ff" stroke="#63b8ff" points="47.92,-48.8 45.16,-38.57 40.94,-48.29 47.92,-48.8"/>
</a>
</g>
<g id="a_edge2&#45;headlabel"><a xlink:href="dir_000030_000058.html" target="_top" xlink:title="72">
<text text-anchor="middle" x="50.6" y="-47.95" font-family="Helvetica,sans-Serif" font-size="10.00" fill="#63b8ff">72</text>
</a>
</g>
</g>
<!-- dir_2bc9e3f402dd86ba93785edd287294d9 -->
<g id="node4" class="node">
<title>dir_2bc9e3f402dd86ba93785edd287294d9</title>
<g id="a_node4"><a xlink:href="dir_2bc9e3f402dd86ba93785edd287294d9.html" target="_top" xlink:title="dius">
<polygon fill="#a2b4d6" stroke="#404040" points="106.12,-93.5 69.88,-93.5 69.88,-72.75 106.12,-72.75 106.12,-93.5"/>
<text text-anchor="middle" x="88" y="-80" font-family="Helvetica,sans-Serif" font-size="10.00">dius</text>
</a>
</g>
</g>
<!-- dir_048287677304621c659962c2a2c2732d&#45;&gt;dir_2bc9e3f402dd86ba93785edd287294d9 -->
<g id="edge1" class="edge">
<title>dir_048287677304621c659962c2a2c2732d&#45;&gt;dir_2bc9e3f402dd86ba93785edd287294d9</title>
<g id="a_edge1"><a xlink:href="dir_000030_000063.html" target="_top">
<path fill="none" stroke="#63b8ff" d="M81.86,-129.09C80.7,-122.39 80.44,-113.26 81.04,-104.98"/>
<polygon fill="#63b8ff" stroke="#63b8ff" points="84.48,-105.7 82.32,-95.33 77.54,-104.78 84.48,-105.7"/>
</a>
</g>
<g id="a_edge1&#45;headlabel"><a xlink:href="dir_000030_000063.html" target="_top" xlink:title="11">
<text text-anchor="middle" x="87.02" y="-105.01" font-family="Helvetica,sans-Serif" font-size="10.00" fill="#63b8ff">11</text>
</a>
</g>
</g>
<!-- dir_984cd133b143ec7cf21a4bdcb401bfa5&#45;&gt;dir_048287677304621c659962c2a2c2732d -->
<g id="edge3" class="edge">
<title>dir_984cd133b143ec7cf21a4bdcb401bfa5&#45;&gt;dir_048287677304621c659962c2a2c2732d</title>
<g id="a_edge3"><a xlink:href="dir_000058_000030.html" target="_top">
<path fill="none" stroke="#63b8ff" d="M57.43,-37.06C61.07,-50.18 63.28,-74.2 70,-93.5 73.09,-102.37 77.93,-111.48 82.01,-119.19"/>
<polygon fill="#63b8ff" stroke="#63b8ff" points="78.8,-120.61 86.45,-127.94 85.04,-117.44 78.8,-120.61"/>
</a>
</g>
<g id="a_edge3&#45;headlabel"><a xlink:href="dir_000058_000030.html" target="_top" xlink:title="2">
<text text-anchor="middle" x="75.33" y="-116.92" font-family="Helvetica,sans-Serif" font-size="10.00" fill="#63b8ff">2</text>
</a>
</g>
</g>
<!-- dir_2bc9e3f402dd86ba93785edd287294d9&#45;&gt;dir_048287677304621c659962c2a2c2732d -->
<g id="edge4" class="edge">
<title>dir_2bc9e3f402dd86ba93785edd287294d9&#45;&gt;dir_048287677304621c659962c2a2c2732d</title>
<g id="a_edge4"><a xlink:href="dir_000063_000030.html" target="_top">
<path fill="none" stroke="#63b8ff" d="M93.12,-93.83C94.3,-100.5 94.56,-109.63 93.97,-117.92"/>
<polygon fill="#63b8ff" stroke="#63b8ff" points="90.53,-117.21 92.69,-127.59 97.47,-118.13 90.53,-117.21"/>
</a>
</g>
<g id="a_edge4&#45;headlabel"><a xlink:href="dir_000063_000030.html" target="_top" xlink:title="15">
<text text-anchor="middle" x="87.98" y="-111.66" font-family="Helvetica,sans-Serif" font-size="10.00" fill="#63b8ff">15</text>
</a>
</g>
</g>
<!-- dir_2bc9e3f402dd86ba93785edd287294d9&#45;&gt;dir_984cd133b143ec7cf21a4bdcb401bfa5 -->
<g id="edge5" class="edge">
<title>dir_2bc9e3f402dd86ba93785edd287294d9&#45;&gt;dir_984cd133b143ec7cf21a4bdcb401bfa5</title>
<g id="a_edge5"><a xlink:href="dir_000063_000058.html" target="_top">
<path fill="none" stroke="#63b8ff" d="M81.39,-72.34C76.54,-65.17 69.82,-55.23 63.93,-46.51"/>
<polygon fill="#63b8ff" stroke="#63b8ff" points="66.9,-44.66 58.41,-38.33 61.1,-48.58 66.9,-44.66"/>
</a>
</g>
<g id="a_edge5&#45;headlabel"><a xlink:href="dir_000063_000058.html" target="_top" xlink:title="162">
<text text-anchor="middle" x="70.42" y="-41.67" font-family="Helvetica,sans-Serif" font-size="10.00" fill="#63b8ff">162</text>
</a>
</g>
</g>
<!-- dir_2605f0c6ea8f9a17a384edc9a2df15f4 -->
<g id="node5" class="node">
<title>dir_2605f0c6ea8f9a17a384edc9a2df15f4</title>
<g id="a_node5"><a xlink:href="dir_2605f0c6ea8f9a17a384edc9a2df15f4.html" target="_top" xlink:title="iris">
<polygon fill="#edf0f7" stroke="red" points="153.5,-36.75 122.5,-36.75 122.5,-16 153.5,-16 153.5,-36.75"/>
<text text-anchor="middle" x="138" y="-23.25" font-family="Helvetica,sans-Serif" font-size="10.00">iris</text>
</a>
</g>
</g>
<!-- dir_2bc9e3f402dd86ba93785edd287294d9&#45;&gt;dir_2605f0c6ea8f9a17a384edc9a2df15f4 -->
<g id="edge6" class="edge">
<title>dir_2bc9e3f402dd86ba93785edd287294d9&#45;&gt;dir_2605f0c6ea8f9a17a384edc9a2df15f4</title>
<g id="a_edge6"><a xlink:href="dir_000063_000104.html" target="_top">
<path fill="none" stroke="#63b8ff" d="M96.94,-72.34C103.76,-64.86 113.36,-54.36 121.56,-45.38"/>
<polygon fill="#63b8ff" stroke="#63b8ff" points="123.96,-47.94 128.12,-38.2 118.79,-43.22 123.96,-47.94"/>
</a>
</g>
<g id="a_edge6&#45;headlabel"><a xlink:href="dir_000063_000104.html" target="_top" xlink:title="5">
<text text-anchor="middle" x="124.65" y="-48.27" font-family="Helvetica,sans-Serif" font-size="10.00" fill="#63b8ff">5</text>
</a>
</g>
</g>
</g>
</svg>
