<?xml version="1.0" encoding="UTF-8" standalone="no"?>
<!DOCTYPE svg PUBLIC "-//W3C//DTD SVG 1.1//EN"
 "http://www.w3.org/Graphics/SVG/1.1/DTD/svg11.dtd">
<!-- Generated by graphviz version 10.0.1 (0)
 -->
<!-- Title: iris/include/iris/arch/x86/amd64 Pages: 1 -->
<svg width="309pt" height="187pt"
 viewBox="0.00 0.00 308.61 187.00" xmlns="http://www.w3.org/2000/svg" xmlns:xlink="http://www.w3.org/1999/xlink">
<g id="graph0" class="graph" transform="scale(1 1) rotate(0) translate(4 183)">
<title>iris/include/iris/arch/x86/amd64</title>
<g id="clust1" class="cluster">
<title>clusterdir_407e6dd7785b117805c64851fb4bc1a2</title>
<g id="a_clust1"><a xlink:href="dir_407e6dd7785b117805c64851fb4bc1a2.html" target="_top" xlink:title="x86">
<polygon fill="#edf0f7" stroke="#7f7f7f" stroke-dasharray="5,2" points="30.11,-40.75 30.11,-171 167.11,-171 167.11,-40.75 30.11,-40.75"/>
<text text-anchor="middle" x="98.61" y="-157.5" font-family="Helvetica,sans-Serif" font-size="10.00">x86</text>
</a>
</g>
</g>
<g id="clust2" class="cluster">
<title>clusterdir_69ecb03340787322ec15c613fc74d859</title>
<g id="a_clust2"><a xlink:href="dir_69ecb03340787322ec15c613fc74d859.html" target="_top">
<polygon fill="#edf0f7" stroke="#404040" stroke-width="2" points="38.11,-48.75 38.11,-142.25 159.11,-142.25 159.11,-48.75 38.11,-48.75"/>
</a>
</g>
</g>
<!-- dir_69ecb03340787322ec15c613fc74d859 -->
<g id="node1" class="node">
<title>dir_69ecb03340787322ec15c613fc74d859</title>
<text text-anchor="middle" x="71.11" y="-120.75" font-family="Helvetica,sans-Serif" font-size="10.00">amd64</text>
</g>
<!-- dir_6719ab1f1f7655efc2fa43f7eb574fd1 -->
<g id="node4" class="node">
<title>dir_6719ab1f1f7655efc2fa43f7eb574fd1</title>
<g id="a_node4"><a xlink:href="dir_6719ab1f1f7655efc2fa43f7eb574fd1.html" target="_top" xlink:title="libs">
<polygon fill="#edf0f7" stroke="red" points="34.74,-20.75 1.49,-20.75 1.49,0 34.74,0 34.74,-20.75"/>
<text text-anchor="middle" x="18.11" y="-7.25" font-family="Helvetica,sans-Serif" font-size="10.00">libs</text>
</a>
</g>
</g>
<!-- dir_69ecb03340787322ec15c613fc74d859&#45;&gt;dir_6719ab1f1f7655efc2fa43f7eb574fd1 -->
<g id="edge1" class="edge">
<title>dir_69ecb03340787322ec15c613fc74d859&#45;&gt;dir_6719ab1f1f7655efc2fa43f7eb574fd1</title>
<g id="a_edge1"><a xlink:href="dir_000007_000112.html" target="_top">
<path fill="none" stroke="#63b8ff" d="M46.99,-113.6C31.69,-106.3 13.13,-94.5 4.11,-77.5 -3.54,-63.08 1.26,-44.82 7.23,-31.14"/>
<polygon fill="#63b8ff" stroke="#63b8ff" points="10.32,-32.78 11.61,-22.27 4.04,-29.69 10.32,-32.78"/>
</a>
</g>
<g id="a_edge1&#45;headlabel"><a xlink:href="dir_000007_000112.html" target="_top" xlink:title="23">
<text text-anchor="middle" x="11.95" y="-32.78" font-family="Helvetica,sans-Serif" font-size="10.00" fill="#63b8ff">23</text>
</a>
</g>
</g>
<!-- dir_945708b8d3397c2507c5e618c4393ffa -->
<g id="node5" class="node">
<title>dir_945708b8d3397c2507c5e618c4393ffa</title>
<g id="a_node5"><a xlink:href="dir_945708b8d3397c2507c5e618c4393ffa.html" target="_top" xlink:title="mm">
<polygon fill="#edf0f7" stroke="#7f7f7f" points="121.86,-20.75 86.36,-20.75 86.36,0 121.86,0 121.86,-20.75"/>
<text text-anchor="middle" x="104.11" y="-7.25" font-family="Helvetica,sans-Serif" font-size="10.00">mm</text>
</a>
</g>
</g>
<!-- dir_69ecb03340787322ec15c613fc74d859&#45;&gt;dir_945708b8d3397c2507c5e618c4393ffa -->
<g id="edge2" class="edge">
<title>dir_69ecb03340787322ec15c613fc74d859&#45;&gt;dir_945708b8d3397c2507c5e618c4393ffa</title>
<g id="a_edge2"><a xlink:href="dir_000007_000130.html" target="_top">
<path fill="none" stroke="#63b8ff" d="M74.06,-113.51C76.93,-104.34 81.39,-89.98 85.11,-77.5 89.66,-62.23 94.63,-44.92 98.34,-31.85"/>
<polygon fill="#63b8ff" stroke="#63b8ff" points="101.7,-32.84 101.05,-22.27 94.96,-30.93 101.7,-32.84"/>
</a>
</g>
<g id="a_edge2&#45;headlabel"><a xlink:href="dir_000007_000130.html" target="_top" xlink:title="4">
<text text-anchor="middle" x="103.86" y="-32.49" font-family="Helvetica,sans-Serif" font-size="10.00" fill="#63b8ff">4</text>
</a>
</g>
</g>
<!-- dir_20d17feb9c2a141ce639d72d812af749 -->
<g id="node2" class="node">
<title>dir_20d17feb9c2a141ce639d72d812af749</title>
<g id="a_node2"><a xlink:href="dir_20d17feb9c2a141ce639d72d812af749.html" target="_top" xlink:title="core">
<polygon fill="#a2b4d6" stroke="#404040" points="150.61,-134.25 113.61,-134.25 113.61,-113.5 150.61,-113.5 150.61,-134.25"/>
<text text-anchor="middle" x="132.11" y="-120.75" font-family="Helvetica,sans-Serif" font-size="10.00">core</text>
</a>
</g>
</g>
<!-- dir_786015ac58edb6a34d6ae4d90a813fcf -->
<g id="node3" class="node">
<title>dir_786015ac58edb6a34d6ae4d90a813fcf</title>
<g id="a_node3"><a xlink:href="dir_786015ac58edb6a34d6ae4d90a813fcf.html" target="_top" xlink:title="hw">
<polygon fill="#a2b4d6" stroke="#404040" points="76.24,-77.5 45.99,-77.5 45.99,-56.75 76.24,-56.75 76.24,-77.5"/>
<text text-anchor="middle" x="61.11" y="-64" font-family="Helvetica,sans-Serif" font-size="10.00">hw</text>
</a>
</g>
</g>
<!-- dir_20d17feb9c2a141ce639d72d812af749&#45;&gt;dir_786015ac58edb6a34d6ae4d90a813fcf -->
<g id="edge5" class="edge">
<title>dir_20d17feb9c2a141ce639d72d812af749&#45;&gt;dir_786015ac58edb6a34d6ae4d90a813fcf</title>
<g id="a_edge5"><a xlink:href="dir_000051_000090.html" target="_top">
<path fill="none" stroke="#63b8ff" d="M119.42,-113.09C109.22,-105.22 94.67,-94 82.66,-84.74"/>
<polygon fill="#63b8ff" stroke="#63b8ff" points="84.95,-82.09 74.89,-78.75 80.68,-87.63 84.95,-82.09"/>
</a>
</g>
<g id="a_edge5&#45;headlabel"><a xlink:href="dir_000051_000090.html" target="_top" xlink:title="1">
<text text-anchor="middle" x="88.33" y="-77.99" font-family="Helvetica,sans-Serif" font-size="10.00" fill="#63b8ff">1</text>
</a>
</g>
</g>
<!-- dir_20d17feb9c2a141ce639d72d812af749&#45;&gt;dir_6719ab1f1f7655efc2fa43f7eb574fd1 -->
<g id="edge4" class="edge">
<title>dir_20d17feb9c2a141ce639d72d812af749&#45;&gt;dir_6719ab1f1f7655efc2fa43f7eb574fd1</title>
<g id="a_edge4"><a xlink:href="dir_000051_000112.html" target="_top">
<path fill="none" stroke="#63b8ff" d="M113.12,-115.95C88.51,-106.62 47.5,-89.78 37.11,-77.5 26.37,-64.81 21.69,-46.36 19.66,-32.18"/>
<polygon fill="#63b8ff" stroke="#63b8ff" points="23.17,-32.14 18.63,-22.56 16.21,-32.88 23.17,-32.14"/>
</a>
</g>
<g id="a_edge4&#45;headlabel"><a xlink:href="dir_000051_000112.html" target="_top" xlink:title="3">
<text text-anchor="middle" x="26.22" y="-30.78" font-family="Helvetica,sans-Serif" font-size="10.00" fill="#63b8ff">3</text>
</a>
</g>
</g>
<!-- dir_20d17feb9c2a141ce639d72d812af749&#45;&gt;dir_945708b8d3397c2507c5e618c4393ffa -->
<g id="edge7" class="edge">
<title>dir_20d17feb9c2a141ce639d72d812af749&#45;&gt;dir_945708b8d3397c2507c5e618c4393ffa</title>
<g id="a_edge7"><a xlink:href="dir_000051_000130.html" target="_top">
<path fill="none" stroke="#63b8ff" d="M131.32,-113.06C129.87,-97.45 126.15,-66.12 118.11,-40.75 117.14,-37.68 115.9,-34.51 114.57,-31.45"/>
<polygon fill="#63b8ff" stroke="#63b8ff" points="117.76,-30.01 110.27,-22.52 111.45,-33.05 117.76,-30.01"/>
</a>
</g>
<g id="a_edge7&#45;headlabel"><a xlink:href="dir_000051_000130.html" target="_top" xlink:title="1">
<text text-anchor="middle" x="121.22" y="-27.53" font-family="Helvetica,sans-Serif" font-size="10.00" fill="#63b8ff">1</text>
</a>
</g>
</g>
<!-- dir_7cd5da72e38cd0f075d57a788b4f2242 -->
<g id="node6" class="node">
<title>dir_7cd5da72e38cd0f075d57a788b4f2242</title>
<g id="a_node6"><a xlink:href="dir_7cd5da72e38cd0f075d57a788b4f2242.html" target="_top" xlink:title="hw">
<polygon fill="#edf0f7" stroke="red" stroke-dasharray="5,2" points="182.24,-20.75 151.99,-20.75 151.99,0 182.24,0 182.24,-20.75"/>
<text text-anchor="middle" x="167.11" y="-7.25" font-family="Helvetica,sans-Serif" font-size="10.00">hw</text>
</a>
</g>
</g>
<!-- dir_20d17feb9c2a141ce639d72d812af749&#45;&gt;dir_7cd5da72e38cd0f075d57a788b4f2242 -->
<g id="edge6" class="edge">
<title>dir_20d17feb9c2a141ce639d72d812af749&#45;&gt;dir_7cd5da72e38cd0f075d57a788b4f2242</title>
<g id="a_edge6"><a xlink:href="dir_000051_000091.html" target="_top">
<path fill="none" stroke="#63b8ff" d="M135.1,-113.37C140.72,-95.44 153.03,-56.25 160.64,-32.01"/>
<polygon fill="#63b8ff" stroke="#63b8ff" points="163.93,-33.21 163.58,-22.62 157.25,-31.11 163.93,-33.21"/>
</a>
</g>
<g id="a_edge6&#45;headlabel"><a xlink:href="dir_000051_000091.html" target="_top" xlink:title="2">
<text text-anchor="middle" x="166.01" y="-32.92" font-family="Helvetica,sans-Serif" font-size="10.00" fill="#63b8ff">2</text>
</a>
</g>
</g>
<!-- dir_be381e3b7aa79a91c125f50d5abcc4e9 -->
<g id="node7" class="node">
<title>dir_be381e3b7aa79a91c125f50d5abcc4e9</title>
<g id="a_node7"><a xlink:href="dir_be381e3b7aa79a91c125f50d5abcc4e9.html" target="_top" xlink:title="core">
<polygon fill="#edf0f7" stroke="#7f7f7f" points="245.61,-77.5 208.61,-77.5 208.61,-56.75 245.61,-56.75 245.61,-77.5"/>
<text text-anchor="middle" x="227.11" y="-64" font-family="Helvetica,sans-Serif" font-size="10.00">core</text>
</a>
</g>
</g>
<!-- dir_20d17feb9c2a141ce639d72d812af749&#45;&gt;dir_be381e3b7aa79a91c125f50d5abcc4e9 -->
<g id="edge8" class="edge">
<title>dir_20d17feb9c2a141ce639d72d812af749&#45;&gt;dir_be381e3b7aa79a91c125f50d5abcc4e9</title>
<g id="a_edge8"><a xlink:href="dir_000051_000052.html" target="_top">
<path fill="none" stroke="#63b8ff" d="M149.1,-113.09C163.42,-104.83 184.15,-92.88 200.65,-83.38"/>
<polygon fill="#63b8ff" stroke="#63b8ff" points="202.05,-86.61 208.96,-78.58 198.55,-80.55 202.05,-86.61"/>
</a>
</g>
<g id="a_edge8&#45;headlabel"><a xlink:href="dir_000051_000052.html" target="_top" xlink:title="1">
<text text-anchor="middle" x="201.66" y="-86.98" font-family="Helvetica,sans-Serif" font-size="10.00" fill="#63b8ff">1</text>
</a>
</g>
</g>
<!-- dir_0d9b91d0f0b9ec0856341172f56c0a57 -->
<g id="node8" class="node">
<title>dir_0d9b91d0f0b9ec0856341172f56c0a57</title>
<g id="a_node8"><a xlink:href="dir_0d9b91d0f0b9ec0856341172f56c0a57.html" target="_top" xlink:title="uapi">
<polygon fill="#edf0f7" stroke="#7f7f7f" points="300.61,-77.5 263.61,-77.5 263.61,-56.75 300.61,-56.75 300.61,-77.5"/>
<text text-anchor="middle" x="282.11" y="-64" font-family="Helvetica,sans-Serif" font-size="10.00">uapi</text>
</a>
</g>
</g>
<!-- dir_20d17feb9c2a141ce639d72d812af749&#45;&gt;dir_0d9b91d0f0b9ec0856341172f56c0a57 -->
<g id="edge3" class="edge">
<title>dir_20d17feb9c2a141ce639d72d812af749&#45;&gt;dir_0d9b91d0f0b9ec0856341172f56c0a57</title>
<g id="a_edge3"><a xlink:href="dir_000051_000185.html" target="_top">
<path fill="none" stroke="#63b8ff" d="M151.11,-115.94C176.69,-106.6 222.48,-89.89 252.58,-78.91"/>
<polygon fill="#63b8ff" stroke="#63b8ff" points="253.65,-82.24 261.85,-75.52 251.25,-75.66 253.65,-82.24"/>
</a>
</g>
<g id="a_edge3&#45;headlabel"><a xlink:href="dir_000051_000185.html" target="_top" xlink:title="1">
<text text-anchor="middle" x="252.67" y="-82.49" font-family="Helvetica,sans-Serif" font-size="10.00" fill="#63b8ff">1</text>
</a>
</g>
</g>
<!-- dir_786015ac58edb6a34d6ae4d90a813fcf&#45;&gt;dir_6719ab1f1f7655efc2fa43f7eb574fd1 -->
<g id="edge9" class="edge">
<title>dir_786015ac58edb6a34d6ae4d90a813fcf&#45;&gt;dir_6719ab1f1f7655efc2fa43f7eb574fd1</title>
<g id="a_edge9"><a xlink:href="dir_000090_000112.html" target="_top">
<path fill="none" stroke="#63b8ff" d="M53.42,-56.34C47.68,-49.02 39.64,-38.79 32.69,-29.94"/>
<polygon fill="#63b8ff" stroke="#63b8ff" points="35.6,-27.97 26.67,-22.27 30.09,-32.3 35.6,-27.97"/>
</a>
</g>
<g id="a_edge9&#45;headlabel"><a xlink:href="dir_000090_000112.html" target="_top" xlink:title="10">
<text text-anchor="middle" x="39.12" y="-24.73" font-family="Helvetica,sans-Serif" font-size="10.00" fill="#63b8ff">10</text>
</a>
</g>
</g>
<!-- dir_786015ac58edb6a34d6ae4d90a813fcf&#45;&gt;dir_945708b8d3397c2507c5e618c4393ffa -->
<g id="edge11" class="edge">
<title>dir_786015ac58edb6a34d6ae4d90a813fcf&#45;&gt;dir_945708b8d3397c2507c5e618c4393ffa</title>
<g id="a_edge11"><a xlink:href="dir_000090_000130.html" target="_top">
<path fill="none" stroke="#63b8ff" d="M68.8,-56.34C74.55,-49.02 82.58,-38.79 89.53,-29.94"/>
<polygon fill="#63b8ff" stroke="#63b8ff" points="92.13,-32.3 95.56,-22.27 86.63,-27.97 92.13,-32.3"/>
</a>
</g>
<g id="a_edge11&#45;headlabel"><a xlink:href="dir_000090_000130.html" target="_top" xlink:title="2">
<text text-anchor="middle" x="93.08" y="-32.56" font-family="Helvetica,sans-Serif" font-size="10.00" fill="#63b8ff">2</text>
</a>
</g>
</g>
<!-- dir_786015ac58edb6a34d6ae4d90a813fcf&#45;&gt;dir_7cd5da72e38cd0f075d57a788b4f2242 -->
<g id="edge10" class="edge">
<title>dir_786015ac58edb6a34d6ae4d90a813fcf&#45;&gt;dir_7cd5da72e38cd0f075d57a788b4f2242</title>
<g id="a_edge10"><a xlink:href="dir_000090_000091.html" target="_top">
<path fill="none" stroke="#63b8ff" d="M76.3,-58.28C93.28,-49.51 121.08,-35.15 141.45,-24.63"/>
<polygon fill="#63b8ff" stroke="#63b8ff" points="142.98,-27.78 150.26,-20.08 139.77,-21.56 142.98,-27.78"/>
</a>
</g>
<g id="a_edge10&#45;headlabel"><a xlink:href="dir_000090_000091.html" target="_top" xlink:title="2">
<text text-anchor="middle" x="142.44" y="-28.13" font-family="Helvetica,sans-Serif" font-size="10.00" fill="#63b8ff">2</text>
</a>
</g>
</g>
</g>
</svg>
