<?xml version="1.0" encoding="UTF-8" standalone="no"?>
<!DOCTYPE svg PUBLIC "-//W3C//DTD SVG 1.1//EN"
 "http://www.w3.org/Graphics/SVG/1.1/DTD/svg11.dtd">
<!-- Generated by graphviz version 10.0.1 (0)
 -->
<!-- Title: libs/di/include/di/function Pages: 1 -->
<svg width="502pt" height="260pt"
 viewBox="0.00 0.00 502.00 259.75" xmlns="http://www.w3.org/2000/svg" xmlns:xlink="http://www.w3.org/1999/xlink">
<g id="graph0" class="graph" transform="scale(1 1) rotate(0) translate(4 255.75)">
<title>libs/di/include/di/function</title>
<g id="clust1" class="cluster">
<title>clusterdir_f95a1a0ab1b96e316090c1bcac3c2c99</title>
<g id="a_clust1"><a xlink:href="dir_f95a1a0ab1b96e316090c1bcac3c2c99.html" target="_top" xlink:title="di">
<polygon fill="#edf0f7" stroke="#7f7f7f" stroke-dasharray="5,2" points="8,-8 8,-243.75 486,-243.75 486,-8 8,-8"/>
<text text-anchor="middle" x="247" y="-230.25" font-family="Helvetica,sans-Serif" font-size="10.00">di</text>
</a>
</g>
</g>
<g id="clust2" class="cluster">
<title>clusterdir_0669efae56692bb73da75efb5ebbccdf</title>
<g id="a_clust2"><a xlink:href="dir_0669efae56692bb73da75efb5ebbccdf.html" target="_top">
<polygon fill="#edf0f7" stroke="#404040" stroke-width="2" points="162,-64.75 162,-215 260,-215 260,-64.75 162,-64.75"/>
</a>
</g>
</g>
<!-- dir_30ecaf38acae77be14fb9173f98f8612 -->
<g id="node1" class="node">
<title>dir_30ecaf38acae77be14fb9173f98f8612</title>
<g id="a_node1"><a xlink:href="dir_30ecaf38acae77be14fb9173f98f8612.html" target="_top" xlink:title="types">
<polygon fill="#a2b4d6" stroke="#404040" points="128.5,-36.75 85.5,-36.75 85.5,-16 128.5,-16 128.5,-36.75"/>
<text text-anchor="middle" x="107" y="-23.25" font-family="Helvetica,sans-Serif" font-size="10.00">types</text>
</a>
</g>
</g>
<!-- dir_4535887b2cdca47e625f259d07db0112 -->
<g id="node2" class="node">
<title>dir_4535887b2cdca47e625f259d07db0112</title>
<g id="a_node2"><a xlink:href="dir_4535887b2cdca47e625f259d07db0112.html" target="_top" xlink:title="util">
<polygon fill="#a2b4d6" stroke="#404040" points="256.88,-36.75 225.12,-36.75 225.12,-16 256.88,-16 256.88,-36.75"/>
<text text-anchor="middle" x="241" y="-23.25" font-family="Helvetica,sans-Serif" font-size="10.00">util</text>
</a>
</g>
</g>
<!-- dir_521de572ae4fe2915cc70a876c52f5b7 -->
<g id="node3" class="node">
<title>dir_521de572ae4fe2915cc70a876c52f5b7</title>
<g id="a_node3"><a xlink:href="dir_521de572ae4fe2915cc70a876c52f5b7.html" target="_top" xlink:title="container">
<polygon fill="#a2b4d6" stroke="red" points="329.88,-93.5 268.12,-93.5 268.12,-72.75 329.88,-72.75 329.88,-93.5"/>
<text text-anchor="middle" x="299" y="-80" font-family="Helvetica,sans-Serif" font-size="10.00">container</text>
</a>
</g>
</g>
<!-- dir_60d1624911c2c9f7b6f38e44ec895aaa -->
<g id="node4" class="node">
<title>dir_60d1624911c2c9f7b6f38e44ec895aaa</title>
<g id="a_node4"><a xlink:href="dir_60d1624911c2c9f7b6f38e44ec895aaa.html" target="_top" xlink:title="math">
<polygon fill="#a2b4d6" stroke="red" points="331.75,-150.25 290.25,-150.25 290.25,-129.5 331.75,-129.5 331.75,-150.25"/>
<text text-anchor="middle" x="311" y="-136.75" font-family="Helvetica,sans-Serif" font-size="10.00">math</text>
</a>
</g>
</g>
<!-- dir_942cfae36a92b6b1c4b510e99e852d40 -->
<g id="node5" class="node">
<title>dir_942cfae36a92b6b1c4b510e99e852d40</title>
<g id="a_node5"><a xlink:href="dir_942cfae36a92b6b1c4b510e99e852d40.html" target="_top" xlink:title="vocab">
<polygon fill="#a2b4d6" stroke="red" points="393.62,-93.5 348.38,-93.5 348.38,-72.75 393.62,-72.75 393.62,-93.5"/>
<text text-anchor="middle" x="371" y="-80" font-family="Helvetica,sans-Serif" font-size="10.00">vocab</text>
</a>
</g>
</g>
<!-- dir_a60d4453151dca6bdd8e5fcc350e379b -->
<g id="node6" class="node">
<title>dir_a60d4453151dca6bdd8e5fcc350e379b</title>
<g id="a_node6"><a xlink:href="dir_a60d4453151dca6bdd8e5fcc350e379b.html" target="_top" xlink:title="assert">
<polygon fill="#a2b4d6" stroke="#404040" points="458,-93.5 412,-93.5 412,-72.75 458,-72.75 458,-93.5"/>
<text text-anchor="middle" x="435" y="-80" font-family="Helvetica,sans-Serif" font-size="10.00">assert</text>
</a>
</g>
</g>
<!-- dir_aaf67126bd5deefc4d96704f76f22cc2 -->
<g id="node7" class="node">
<title>dir_aaf67126bd5deefc4d96704f76f22cc2</title>
<g id="a_node7"><a xlink:href="dir_aaf67126bd5deefc4d96704f76f22cc2.html" target="_top" xlink:title="platform">
<polygon fill="#a2b4d6" stroke="#404040" points="154,-93.5 96,-93.5 96,-72.75 154,-72.75 154,-93.5"/>
<text text-anchor="middle" x="125" y="-80" font-family="Helvetica,sans-Serif" font-size="10.00">platform</text>
</a>
</g>
</g>
<!-- dir_f555f996eeee1ebe901dc71e0c5de8ff -->
<g id="node8" class="node">
<title>dir_f555f996eeee1ebe901dc71e0c5de8ff</title>
<g id="a_node8"><a xlink:href="dir_f555f996eeee1ebe901dc71e0c5de8ff.html" target="_top" xlink:title="meta">
<polygon fill="#a2b4d6" stroke="#404040" points="67.75,-36.75 26.25,-36.75 26.25,-16 67.75,-16 67.75,-36.75"/>
<text text-anchor="middle" x="47" y="-23.25" font-family="Helvetica,sans-Serif" font-size="10.00">meta</text>
</a>
</g>
</g>
<!-- dir_0669efae56692bb73da75efb5ebbccdf -->
<g id="node9" class="node">
<title>dir_0669efae56692bb73da75efb5ebbccdf</title>
<text text-anchor="middle" x="224" y="-193.5" font-family="Helvetica,sans-Serif" font-size="10.00">function</text>
</g>
<!-- dir_0669efae56692bb73da75efb5ebbccdf&#45;&gt;dir_30ecaf38acae77be14fb9173f98f8612 -->
<g id="edge2" class="edge">
<title>dir_0669efae56692bb73da75efb5ebbccdf&#45;&gt;dir_30ecaf38acae77be14fb9173f98f8612</title>
<g id="a_edge2"><a xlink:href="dir_000083_000184.html" target="_top">
<path fill="none" stroke="#63b8ff" d="M198.1,-186.32C163.4,-172.29 103.29,-142.06 78,-93.5 72.1,-82.17 73.86,-76.84 78,-64.75 80.35,-57.88 84.54,-51.3 89.01,-45.62"/>
<polygon fill="#63b8ff" stroke="#63b8ff" points="91.58,-48.01 95.54,-38.18 86.31,-43.39 91.58,-48.01"/>
</a>
</g>
<g id="a_edge2&#45;headlabel"><a xlink:href="dir_000083_000184.html" target="_top" xlink:title="20">
<text text-anchor="middle" x="92.34" y="-48.32" font-family="Helvetica,sans-Serif" font-size="10.00" fill="#63b8ff">20</text>
</a>
</g>
</g>
<!-- dir_0669efae56692bb73da75efb5ebbccdf&#45;&gt;dir_4535887b2cdca47e625f259d07db0112 -->
<g id="edge3" class="edge">
<title>dir_0669efae56692bb73da75efb5ebbccdf&#45;&gt;dir_4535887b2cdca47e625f259d07db0112</title>
<g id="a_edge3"><a xlink:href="dir_000083_000189.html" target="_top">
<path fill="none" stroke="#63b8ff" d="M251.84,-191.78C328.34,-180.12 531.86,-141.21 467,-64.75 441.83,-35.07 323.07,-28.93 268.52,-27.68"/>
<polygon fill="#63b8ff" stroke="#63b8ff" points="268.89,-24.19 258.83,-27.5 268.76,-31.18 268.89,-24.19"/>
</a>
</g>
<g id="a_edge3&#45;headlabel"><a xlink:href="dir_000083_000189.html" target="_top" xlink:title="58">
<text text-anchor="middle" x="271.02" y="-18.26" font-family="Helvetica,sans-Serif" font-size="10.00" fill="#63b8ff">58</text>
</a>
</g>
</g>
<!-- dir_0669efae56692bb73da75efb5ebbccdf&#45;&gt;dir_521de572ae4fe2915cc70a876c52f5b7 -->
<g id="edge4" class="edge">
<title>dir_0669efae56692bb73da75efb5ebbccdf&#45;&gt;dir_521de572ae4fe2915cc70a876c52f5b7</title>
<g id="a_edge4"><a xlink:href="dir_000083_000046.html" target="_top">
<path fill="none" stroke="#63b8ff" d="M232.11,-186.58C239.93,-177.66 251.89,-163.48 261,-150.25 271.32,-135.25 281.52,-117.29 288.75,-103.87"/>
<polygon fill="#63b8ff" stroke="#63b8ff" points="291.77,-105.65 293.35,-95.18 285.58,-102.38 291.77,-105.65"/>
</a>
</g>
<g id="a_edge4&#45;headlabel"><a xlink:href="dir_000083_000046.html" target="_top" xlink:title="9">
<text text-anchor="middle" x="293.3" y="-105.69" font-family="Helvetica,sans-Serif" font-size="10.00" fill="#63b8ff">9</text>
</a>
</g>
</g>
<!-- dir_0669efae56692bb73da75efb5ebbccdf&#45;&gt;dir_60d1624911c2c9f7b6f38e44ec895aaa -->
<g id="edge5" class="edge">
<title>dir_0669efae56692bb73da75efb5ebbccdf&#45;&gt;dir_60d1624911c2c9f7b6f38e44ec895aaa</title>
<g id="a_edge5"><a xlink:href="dir_000083_000121.html" target="_top">
<path fill="none" stroke="#63b8ff" d="M238.76,-186.34C251.72,-178.18 270.85,-166.14 286.17,-156.5"/>
<polygon fill="#63b8ff" stroke="#63b8ff" points="287.7,-159.67 294.3,-151.38 283.97,-153.75 287.7,-159.67"/>
</a>
</g>
<g id="a_edge5&#45;headlabel"><a xlink:href="dir_000083_000121.html" target="_top" xlink:title="10">
<text text-anchor="middle" x="287.45" y="-160.06" font-family="Helvetica,sans-Serif" font-size="10.00" fill="#63b8ff">10</text>
</a>
</g>
</g>
<!-- dir_0669efae56692bb73da75efb5ebbccdf&#45;&gt;dir_942cfae36a92b6b1c4b510e99e852d40 -->
<g id="edge6" class="edge">
<title>dir_0669efae56692bb73da75efb5ebbccdf&#45;&gt;dir_942cfae36a92b6b1c4b510e99e852d40</title>
<g id="a_edge6"><a xlink:href="dir_000083_000193.html" target="_top">
<path fill="none" stroke="#63b8ff" d="M251.81,-191.06C277.77,-185.49 316.15,-173.75 341,-150.25 354.02,-137.93 361.84,-118.9 366.21,-104.41"/>
<polygon fill="#63b8ff" stroke="#63b8ff" points="369.52,-105.58 368.72,-95.02 362.75,-103.77 369.52,-105.58"/>
</a>
</g>
<g id="a_edge6&#45;headlabel"><a xlink:href="dir_000083_000193.html" target="_top" xlink:title="13">
<text text-anchor="middle" x="371.72" y="-105.2" font-family="Helvetica,sans-Serif" font-size="10.00" fill="#63b8ff">13</text>
</a>
</g>
</g>
<!-- dir_0669efae56692bb73da75efb5ebbccdf&#45;&gt;dir_a60d4453151dca6bdd8e5fcc350e379b -->
<g id="edge7" class="edge">
<title>dir_0669efae56692bb73da75efb5ebbccdf&#45;&gt;dir_a60d4453151dca6bdd8e5fcc350e379b</title>
<g id="a_edge7"><a xlink:href="dir_000083_000018.html" target="_top">
<path fill="none" stroke="#63b8ff" d="M251.83,-188.8C278.77,-181.51 320.23,-168.51 353,-150.25 377.04,-136.85 401.15,-116.36 416.94,-101.74"/>
<polygon fill="#63b8ff" stroke="#63b8ff" points="419.26,-104.37 424.11,-94.95 414.44,-99.28 419.26,-104.37"/>
</a>
</g>
<g id="a_edge7&#45;headlabel"><a xlink:href="dir_000083_000018.html" target="_top" xlink:title="3">
<text text-anchor="middle" x="419.7" y="-104.74" font-family="Helvetica,sans-Serif" font-size="10.00" fill="#63b8ff">3</text>
</a>
</g>
</g>
<!-- dir_0669efae56692bb73da75efb5ebbccdf&#45;&gt;dir_f555f996eeee1ebe901dc71e0c5de8ff -->
<g id="edge9" class="edge">
<title>dir_0669efae56692bb73da75efb5ebbccdf&#45;&gt;dir_f555f996eeee1ebe901dc71e0c5de8ff</title>
<g id="a_edge9"><a xlink:href="dir_000083_000126.html" target="_top">
<path fill="none" stroke="#63b8ff" d="M196.29,-190.82C169.82,-185.05 130.08,-173.13 103,-150.25 71.47,-123.62 56.82,-75.51 50.75,-48.06"/>
<polygon fill="#63b8ff" stroke="#63b8ff" points="54.24,-47.64 48.83,-38.53 47.37,-49.02 54.24,-47.64"/>
</a>
</g>
<g id="a_edge9&#45;headlabel"><a xlink:href="dir_000083_000126.html" target="_top" xlink:title="62">
<text text-anchor="middle" x="57.43" y="-46" font-family="Helvetica,sans-Serif" font-size="10.00" fill="#63b8ff">62</text>
</a>
</g>
</g>
<!-- dir_245820651058c18a4fe2211d255e5f91 -->
<g id="node10" class="node">
<title>dir_245820651058c18a4fe2211d255e5f91</title>
<g id="a_node10"><a xlink:href="dir_245820651058c18a4fe2211d255e5f91.html" target="_top" xlink:title="container">
<polygon fill="#a2b4d6" stroke="#404040" points="251.88,-150.25 190.12,-150.25 190.12,-129.5 251.88,-129.5 251.88,-150.25"/>
<text text-anchor="middle" x="221" y="-136.75" font-family="Helvetica,sans-Serif" font-size="10.00">container</text>
</a>
</g>
</g>
<!-- dir_0669efae56692bb73da75efb5ebbccdf&#45;&gt;dir_245820651058c18a4fe2211d255e5f91 -->
<g id="edge1" class="edge">
<title>dir_0669efae56692bb73da75efb5ebbccdf&#45;&gt;dir_245820651058c18a4fe2211d255e5f91</title>
<g id="a_edge1"><a xlink:href="dir_000083_000047.html" target="_top">
<path fill="none" stroke="#63b8ff" d="M223.5,-186.58C223.14,-179.89 222.62,-170.49 222.16,-161.96"/>
<polygon fill="#63b8ff" stroke="#63b8ff" points="225.65,-161.79 221.61,-151.99 218.66,-162.17 225.65,-161.79"/>
</a>
</g>
<g id="a_edge1&#45;headlabel"><a xlink:href="dir_000083_000047.html" target="_top" xlink:title="1">
<text text-anchor="middle" x="228.6" y="-160.58" font-family="Helvetica,sans-Serif" font-size="10.00" fill="#63b8ff">1</text>
</a>
</g>
</g>
<!-- dir_f09ada16cafd282b577fa641a584e35b -->
<g id="node11" class="node">
<title>dir_f09ada16cafd282b577fa641a584e35b</title>
<g id="a_node11"><a xlink:href="dir_f09ada16cafd282b577fa641a584e35b.html" target="_top" xlink:title="monad">
<polygon fill="#a2b4d6" stroke="#404040" points="221.88,-93.5 172.12,-93.5 172.12,-72.75 221.88,-72.75 221.88,-93.5"/>
<text text-anchor="middle" x="197" y="-80" font-family="Helvetica,sans-Serif" font-size="10.00">monad</text>
</a>
</g>
</g>
<!-- dir_0669efae56692bb73da75efb5ebbccdf&#45;&gt;dir_f09ada16cafd282b577fa641a584e35b -->
<g id="edge8" class="edge">
<title>dir_0669efae56692bb73da75efb5ebbccdf&#45;&gt;dir_f09ada16cafd282b577fa641a584e35b</title>
<g id="a_edge8"><a xlink:href="dir_000083_000132.html" target="_top">
<path fill="none" stroke="#63b8ff" d="M211.09,-186.51C200.75,-178.35 187.03,-165.37 181,-150.25 174.99,-135.16 180.05,-117.21 186.02,-103.82"/>
<polygon fill="#63b8ff" stroke="#63b8ff" points="189.01,-105.67 190.36,-95.16 182.75,-102.53 189.01,-105.67"/>
</a>
</g>
<g id="a_edge8&#45;headlabel"><a xlink:href="dir_000083_000132.html" target="_top" xlink:title="2">
<text text-anchor="middle" x="190.62" y="-105.67" font-family="Helvetica,sans-Serif" font-size="10.00" fill="#63b8ff">2</text>
</a>
</g>
</g>
<!-- dir_245820651058c18a4fe2211d255e5f91&#45;&gt;dir_30ecaf38acae77be14fb9173f98f8612 -->
<g id="edge10" class="edge">
<title>dir_245820651058c18a4fe2211d255e5f91&#45;&gt;dir_30ecaf38acae77be14fb9173f98f8612</title>
<g id="a_edge10"><a xlink:href="dir_000047_000184.html" target="_top">
<path fill="none" stroke="#63b8ff" d="M189.83,-130.38C152.21,-119.82 93.19,-102.13 87,-93.5 76.99,-79.54 84.44,-60.5 92.95,-46.44"/>
<polygon fill="#63b8ff" stroke="#63b8ff" points="95.62,-48.74 98.26,-38.48 89.8,-44.86 95.62,-48.74"/>
</a>
</g>
<g id="a_edge10&#45;headlabel"><a xlink:href="dir_000047_000184.html" target="_top" xlink:title="2">
<text text-anchor="middle" x="96.83" y="-48.92" font-family="Helvetica,sans-Serif" font-size="10.00" fill="#63b8ff">2</text>
</a>
</g>
</g>
<!-- dir_245820651058c18a4fe2211d255e5f91&#45;&gt;dir_4535887b2cdca47e625f259d07db0112 -->
<g id="edge11" class="edge">
<title>dir_245820651058c18a4fe2211d255e5f91&#45;&gt;dir_4535887b2cdca47e625f259d07db0112</title>
<g id="a_edge11"><a xlink:href="dir_000047_000189.html" target="_top">
<path fill="none" stroke="#63b8ff" d="M223.33,-129.18C225.49,-120.02 228.7,-105.87 231,-93.5 233.83,-78.27 236.42,-60.96 238.26,-47.88"/>
<polygon fill="#63b8ff" stroke="#63b8ff" points="241.68,-48.71 239.57,-38.32 234.74,-47.76 241.68,-48.71"/>
</a>
</g>
<g id="a_edge11&#45;headlabel"><a xlink:href="dir_000047_000189.html" target="_top" xlink:title="7">
<text text-anchor="middle" x="244.21" y="-48.03" font-family="Helvetica,sans-Serif" font-size="10.00" fill="#63b8ff">7</text>
</a>
</g>
</g>
<!-- dir_245820651058c18a4fe2211d255e5f91&#45;&gt;dir_521de572ae4fe2915cc70a876c52f5b7 -->
<g id="edge12" class="edge">
<title>dir_245820651058c18a4fe2211d255e5f91&#45;&gt;dir_521de572ae4fe2915cc70a876c52f5b7</title>
<g id="a_edge12"><a xlink:href="dir_000047_000046.html" target="_top">
<path fill="none" stroke="#63b8ff" d="M234.94,-129.09C246.37,-121.07 262.77,-109.56 276.11,-100.19"/>
<polygon fill="#63b8ff" stroke="#63b8ff" points="277.76,-103.31 283.94,-94.7 273.74,-97.58 277.76,-103.31"/>
</a>
</g>
<g id="a_edge12&#45;headlabel"><a xlink:href="dir_000047_000046.html" target="_top" xlink:title="3">
<text text-anchor="middle" x="277.69" y="-103.7" font-family="Helvetica,sans-Serif" font-size="10.00" fill="#63b8ff">3</text>
</a>
</g>
</g>
<!-- dir_245820651058c18a4fe2211d255e5f91&#45;&gt;dir_942cfae36a92b6b1c4b510e99e852d40 -->
<g id="edge13" class="edge">
<title>dir_245820651058c18a4fe2211d255e5f91&#45;&gt;dir_942cfae36a92b6b1c4b510e99e852d40</title>
<g id="a_edge13"><a xlink:href="dir_000047_000193.html" target="_top">
<path fill="none" stroke="#63b8ff" d="M247.82,-129.09C273,-119.9 310.75,-106.12 337.82,-96.24"/>
<polygon fill="#63b8ff" stroke="#63b8ff" points="338.72,-99.63 346.91,-92.92 336.32,-93.06 338.72,-99.63"/>
</a>
</g>
<g id="a_edge13&#45;headlabel"><a xlink:href="dir_000047_000193.html" target="_top" xlink:title="4">
<text text-anchor="middle" x="337.74" y="-99.89" font-family="Helvetica,sans-Serif" font-size="10.00" fill="#63b8ff">4</text>
</a>
</g>
</g>
<!-- dir_245820651058c18a4fe2211d255e5f91&#45;&gt;dir_a60d4453151dca6bdd8e5fcc350e379b -->
<g id="edge14" class="edge">
<title>dir_245820651058c18a4fe2211d255e5f91&#45;&gt;dir_a60d4453151dca6bdd8e5fcc350e379b</title>
<g id="a_edge14"><a xlink:href="dir_000047_000018.html" target="_top">
<path fill="none" stroke="#63b8ff" d="M252.29,-130.46C253.54,-130.13 254.78,-129.81 256,-129.5 317.85,-113.65 336.2,-111.18 400.83,-94"/>
<polygon fill="#63b8ff" stroke="#63b8ff" points="401.4,-97.47 410.15,-91.5 399.59,-90.71 401.4,-97.47"/>
</a>
</g>
<g id="a_edge14&#45;headlabel"><a xlink:href="dir_000047_000018.html" target="_top" xlink:title="2">
<text text-anchor="middle" x="400.12" y="-97.62" font-family="Helvetica,sans-Serif" font-size="10.00" fill="#63b8ff">2</text>
</a>
</g>
</g>
<!-- dir_245820651058c18a4fe2211d255e5f91&#45;&gt;dir_aaf67126bd5deefc4d96704f76f22cc2 -->
<g id="edge15" class="edge">
<title>dir_245820651058c18a4fe2211d255e5f91&#45;&gt;dir_aaf67126bd5deefc4d96704f76f22cc2</title>
<g id="a_edge15"><a xlink:href="dir_000047_000139.html" target="_top">
<path fill="none" stroke="#63b8ff" d="M203.84,-129.09C189.37,-120.83 168.41,-108.88 151.74,-99.38"/>
<polygon fill="#63b8ff" stroke="#63b8ff" points="153.75,-96.49 143.33,-94.58 150.28,-102.57 153.75,-96.49"/>
</a>
</g>
<g id="a_edge15&#45;headlabel"><a xlink:href="dir_000047_000139.html" target="_top" xlink:title="1">
<text text-anchor="middle" x="156.96" y="-91.93" font-family="Helvetica,sans-Serif" font-size="10.00" fill="#63b8ff">1</text>
</a>
</g>
</g>
<!-- dir_245820651058c18a4fe2211d255e5f91&#45;&gt;dir_f555f996eeee1ebe901dc71e0c5de8ff -->
<g id="edge17" class="edge">
<title>dir_245820651058c18a4fe2211d255e5f91&#45;&gt;dir_f555f996eeee1ebe901dc71e0c5de8ff</title>
<g id="a_edge17"><a xlink:href="dir_000047_000126.html" target="_top">
<path fill="none" stroke="#63b8ff" d="M189.68,-130.38C150.25,-119.46 86.57,-101.01 78,-93.5 64.44,-81.61 56.38,-62.53 51.9,-47.92"/>
<polygon fill="#63b8ff" stroke="#63b8ff" points="55.31,-47.14 49.32,-38.4 48.56,-48.97 55.31,-47.14"/>
</a>
</g>
<g id="a_edge17&#45;headlabel"><a xlink:href="dir_000047_000126.html" target="_top" xlink:title="8">
<text text-anchor="middle" x="58.6" y="-45.28" font-family="Helvetica,sans-Serif" font-size="10.00" fill="#63b8ff">8</text>
</a>
</g>
</g>
<!-- dir_245820651058c18a4fe2211d255e5f91&#45;&gt;dir_f09ada16cafd282b577fa641a584e35b -->
<g id="edge16" class="edge">
<title>dir_245820651058c18a4fe2211d255e5f91&#45;&gt;dir_f09ada16cafd282b577fa641a584e35b</title>
<g id="a_edge16"><a xlink:href="dir_000047_000132.html" target="_top">
<path fill="none" stroke="#63b8ff" d="M216.71,-129.09C213.67,-122.16 209.49,-112.62 205.76,-104.11"/>
<polygon fill="#63b8ff" stroke="#63b8ff" points="209.08,-102.97 201.86,-95.21 202.67,-105.78 209.08,-102.97"/>
</a>
</g>
<g id="a_edge16&#45;headlabel"><a xlink:href="dir_000047_000132.html" target="_top" xlink:title="1">
<text text-anchor="middle" x="212.52" y="-100.61" font-family="Helvetica,sans-Serif" font-size="10.00" fill="#63b8ff">1</text>
</a>
</g>
</g>
<!-- dir_f09ada16cafd282b577fa641a584e35b&#45;&gt;dir_30ecaf38acae77be14fb9173f98f8612 -->
<g id="edge18" class="edge">
<title>dir_f09ada16cafd282b577fa641a584e35b&#45;&gt;dir_30ecaf38acae77be14fb9173f98f8612</title>
<g id="a_edge18"><a xlink:href="dir_000132_000184.html" target="_top">
<path fill="none" stroke="#63b8ff" d="M180.91,-72.34C167.47,-64.16 148.07,-52.36 132.51,-42.9"/>
<polygon fill="#63b8ff" stroke="#63b8ff" points="134.61,-40.07 124.24,-37.87 130.97,-46.05 134.61,-40.07"/>
</a>
</g>
<g id="a_edge18&#45;headlabel"><a xlink:href="dir_000132_000184.html" target="_top" xlink:title="2">
<text text-anchor="middle" x="137.86" y="-35.6" font-family="Helvetica,sans-Serif" font-size="10.00" fill="#63b8ff">2</text>
</a>
</g>
</g>
<!-- dir_f09ada16cafd282b577fa641a584e35b&#45;&gt;dir_4535887b2cdca47e625f259d07db0112 -->
<g id="edge19" class="edge">
<title>dir_f09ada16cafd282b577fa641a584e35b&#45;&gt;dir_4535887b2cdca47e625f259d07db0112</title>
<g id="a_edge19"><a xlink:href="dir_000132_000189.html" target="_top">
<path fill="none" stroke="#63b8ff" d="M204.87,-72.34C210.75,-65.02 218.97,-54.79 226.08,-45.94"/>
<polygon fill="#63b8ff" stroke="#63b8ff" points="228.72,-48.25 232.25,-38.26 223.26,-43.86 228.72,-48.25"/>
</a>
</g>
<g id="a_edge19&#45;headlabel"><a xlink:href="dir_000132_000189.html" target="_top" xlink:title="11">
<text text-anchor="middle" x="229.63" y="-48.52" font-family="Helvetica,sans-Serif" font-size="10.00" fill="#63b8ff">11</text>
</a>
</g>
</g>
<!-- dir_f09ada16cafd282b577fa641a584e35b&#45;&gt;dir_f555f996eeee1ebe901dc71e0c5de8ff -->
<g id="edge20" class="edge">
<title>dir_f09ada16cafd282b577fa641a584e35b&#45;&gt;dir_f555f996eeee1ebe901dc71e0c5de8ff</title>
<g id="a_edge20"><a xlink:href="dir_000132_000126.html" target="_top">
<path fill="none" stroke="#63b8ff" d="M182.32,-72.39C177.84,-69.69 172.83,-66.9 168,-64.75 132.37,-48.87 119.44,-49.12 78.91,-37.24"/>
<polygon fill="#63b8ff" stroke="#63b8ff" points="80.01,-33.92 69.43,-34.38 77.99,-40.62 80.01,-33.92"/>
</a>
</g>
<g id="a_edge20&#45;headlabel"><a xlink:href="dir_000132_000126.html" target="_top" xlink:title="2">
<text text-anchor="middle" x="82.82" y="-28.68" font-family="Helvetica,sans-Serif" font-size="10.00" fill="#63b8ff">2</text>
</a>
</g>
</g>
</g>
</svg>
