<?xml version="1.0" encoding="UTF-8" standalone="no"?>
<!DOCTYPE svg PUBLIC "-//W3C//DTD SVG 1.1//EN"
 "http://www.w3.org/Graphics/SVG/1.1/DTD/svg11.dtd">
<!-- Generated by graphviz version 10.0.1 (0)
 -->
<!-- Title: libs/di/include/di/parser Pages: 1 -->
<svg width="514pt" height="373pt"
 viewBox="0.00 0.00 514.25 373.25" xmlns="http://www.w3.org/2000/svg" xmlns:xlink="http://www.w3.org/1999/xlink">
<g id="graph0" class="graph" transform="scale(1 1) rotate(0) translate(4 369.25)">
<title>libs/di/include/di/parser</title>
<g id="clust1" class="cluster">
<title>clusterdir_f95a1a0ab1b96e316090c1bcac3c2c99</title>
<g id="a_clust1"><a xlink:href="dir_f95a1a0ab1b96e316090c1bcac3c2c99.html" target="_top" xlink:title="di">
<polygon fill="#edf0f7" stroke="#7f7f7f" stroke-dasharray="5,2" points="8,-8 8,-357.25 458,-357.25 458,-8 8,-8"/>
<text text-anchor="middle" x="233" y="-343.75" font-family="Helvetica,sans-Serif" font-size="10.00">di</text>
</a>
</g>
</g>
<g id="clust2" class="cluster">
<title>clusterdir_c63ec87f2f7fd7fbd5b69a04f05a2815</title>
<g id="a_clust2"><a xlink:href="dir_c63ec87f2f7fd7fbd5b69a04f05a2815.html" target="_top">
<polygon fill="#edf0f7" stroke="#404040" stroke-width="2" points="222,-64.75 222,-328.5 396,-328.5 396,-64.75 222,-64.75"/>
</a>
</g>
</g>
<!-- dir_0669efae56692bb73da75efb5ebbccdf -->
<g id="node1" class="node">
<title>dir_0669efae56692bb73da75efb5ebbccdf</title>
<g id="a_node1"><a xlink:href="dir_0669efae56692bb73da75efb5ebbccdf.html" target="_top" xlink:title="function">
<polygon fill="#a2b4d6" stroke="red" points="191.88,-150.25 136.12,-150.25 136.12,-129.5 191.88,-129.5 191.88,-150.25"/>
<text text-anchor="middle" x="164" y="-136.75" font-family="Helvetica,sans-Serif" font-size="10.00">function</text>
</a>
</g>
</g>
<!-- dir_30ecaf38acae77be14fb9173f98f8612 -->
<g id="node2" class="node">
<title>dir_30ecaf38acae77be14fb9173f98f8612</title>
<g id="a_node2"><a xlink:href="dir_30ecaf38acae77be14fb9173f98f8612.html" target="_top" xlink:title="types">
<polygon fill="#a2b4d6" stroke="#404040" points="106.5,-93.5 63.5,-93.5 63.5,-72.75 106.5,-72.75 106.5,-93.5"/>
<text text-anchor="middle" x="85" y="-80" font-family="Helvetica,sans-Serif" font-size="10.00">types</text>
</a>
</g>
</g>
<!-- dir_4535887b2cdca47e625f259d07db0112 -->
<g id="node3" class="node">
<title>dir_4535887b2cdca47e625f259d07db0112</title>
<g id="a_node3"><a xlink:href="dir_4535887b2cdca47e625f259d07db0112.html" target="_top" xlink:title="util">
<polygon fill="#a2b4d6" stroke="#404040" points="226.88,-36.75 195.12,-36.75 195.12,-16 226.88,-16 226.88,-36.75"/>
<text text-anchor="middle" x="211" y="-23.25" font-family="Helvetica,sans-Serif" font-size="10.00">util</text>
</a>
</g>
</g>
<!-- dir_521de572ae4fe2915cc70a876c52f5b7 -->
<g id="node4" class="node">
<title>dir_521de572ae4fe2915cc70a876c52f5b7</title>
<g id="a_node4"><a xlink:href="dir_521de572ae4fe2915cc70a876c52f5b7.html" target="_top" xlink:title="container">
<polygon fill="#a2b4d6" stroke="red" points="185.88,-93.5 124.12,-93.5 124.12,-72.75 185.88,-72.75 185.88,-93.5"/>
<text text-anchor="middle" x="155" y="-80" font-family="Helvetica,sans-Serif" font-size="10.00">container</text>
</a>
</g>
</g>
<!-- dir_60d1624911c2c9f7b6f38e44ec895aaa -->
<g id="node5" class="node">
<title>dir_60d1624911c2c9f7b6f38e44ec895aaa</title>
<g id="a_node5"><a xlink:href="dir_60d1624911c2c9f7b6f38e44ec895aaa.html" target="_top" xlink:title="math">
<polygon fill="#a2b4d6" stroke="red" points="157.75,-207 116.25,-207 116.25,-186.25 157.75,-186.25 157.75,-207"/>
<text text-anchor="middle" x="137" y="-193.5" font-family="Helvetica,sans-Serif" font-size="10.00">math</text>
</a>
</g>
</g>
<!-- dir_942cfae36a92b6b1c4b510e99e852d40 -->
<g id="node6" class="node">
<title>dir_942cfae36a92b6b1c4b510e99e852d40</title>
<g id="a_node6"><a xlink:href="dir_942cfae36a92b6b1c4b510e99e852d40.html" target="_top" xlink:title="vocab">
<polygon fill="#a2b4d6" stroke="red" points="440.62,-36.75 395.38,-36.75 395.38,-16 440.62,-16 440.62,-36.75"/>
<text text-anchor="middle" x="418" y="-23.25" font-family="Helvetica,sans-Serif" font-size="10.00">vocab</text>
</a>
</g>
</g>
<!-- dir_f555f996eeee1ebe901dc71e0c5de8ff -->
<g id="node7" class="node">
<title>dir_f555f996eeee1ebe901dc71e0c5de8ff</title>
<g id="a_node7"><a xlink:href="dir_f555f996eeee1ebe901dc71e0c5de8ff.html" target="_top" xlink:title="meta">
<polygon fill="#a2b4d6" stroke="#404040" points="329.75,-36.75 288.25,-36.75 288.25,-16 329.75,-16 329.75,-36.75"/>
<text text-anchor="middle" x="309" y="-23.25" font-family="Helvetica,sans-Serif" font-size="10.00">meta</text>
</a>
</g>
</g>
<!-- dir_c63ec87f2f7fd7fbd5b69a04f05a2815 -->
<g id="node8" class="node">
<title>dir_c63ec87f2f7fd7fbd5b69a04f05a2815</title>
<text text-anchor="middle" x="253" y="-307" font-family="Helvetica,sans-Serif" font-size="10.00">parser</text>
</g>
<!-- dir_c63ec87f2f7fd7fbd5b69a04f05a2815&#45;&gt;dir_0669efae56692bb73da75efb5ebbccdf -->
<g id="edge1" class="edge">
<title>dir_c63ec87f2f7fd7fbd5b69a04f05a2815&#45;&gt;dir_0669efae56692bb73da75efb5ebbccdf</title>
<g id="a_edge1"><a xlink:href="dir_000137_000083.html" target="_top">
<path fill="none" stroke="#63b8ff" d="M229.66,-301.13C195.1,-287.85 131.74,-257.57 107,-207 97.41,-187.41 116.62,-168.95 135.27,-156.54"/>
<polygon fill="#63b8ff" stroke="#63b8ff" points="136.88,-159.66 143.54,-151.42 133.19,-153.71 136.88,-159.66"/>
</a>
</g>
<g id="a_edge1&#45;headlabel"><a xlink:href="dir_000137_000083.html" target="_top" xlink:title="9">
<text text-anchor="middle" x="136.6" y="-160.04" font-family="Helvetica,sans-Serif" font-size="10.00" fill="#63b8ff">9</text>
</a>
</g>
</g>
<!-- dir_c63ec87f2f7fd7fbd5b69a04f05a2815&#45;&gt;dir_30ecaf38acae77be14fb9173f98f8612 -->
<g id="edge2" class="edge">
<title>dir_c63ec87f2f7fd7fbd5b69a04f05a2815&#45;&gt;dir_30ecaf38acae77be14fb9173f98f8612</title>
<g id="a_edge2"><a xlink:href="dir_000137_000184.html" target="_top">
<path fill="none" stroke="#63b8ff" d="M229.86,-308.51C197.87,-306.37 140.45,-297.69 108,-263.75 66.62,-220.47 74.08,-142.16 80.61,-104.9"/>
<polygon fill="#63b8ff" stroke="#63b8ff" points="83.98,-105.92 82.44,-95.44 77.11,-104.59 83.98,-105.92"/>
</a>
</g>
<g id="a_edge2&#45;headlabel"><a xlink:href="dir_000137_000184.html" target="_top" xlink:title="3">
<text text-anchor="middle" x="86.38" y="-105.37" font-family="Helvetica,sans-Serif" font-size="10.00" fill="#63b8ff">3</text>
</a>
</g>
</g>
<!-- dir_c63ec87f2f7fd7fbd5b69a04f05a2815&#45;&gt;dir_4535887b2cdca47e625f259d07db0112 -->
<g id="edge4" class="edge">
<title>dir_c63ec87f2f7fd7fbd5b69a04f05a2815&#45;&gt;dir_4535887b2cdca47e625f259d07db0112</title>
<g id="a_edge4"><a xlink:href="dir_000137_000189.html" target="_top">
<path fill="none" stroke="#63b8ff" d="M229.92,-307.5C179.13,-303.44 59.98,-291.16 32,-263.75 10.47,-242.66 17,-227.76 17,-197.62 17,-197.62 17,-197.62 17,-138.88 17,-105.26 8.31,-88.59 32,-64.75 52.91,-43.71 138.67,-33.47 183.46,-29.48"/>
<polygon fill="#63b8ff" stroke="#63b8ff" points="183.49,-32.99 193.16,-28.66 182.9,-26.01 183.49,-32.99"/>
</a>
</g>
<g id="a_edge4&#45;headlabel"><a xlink:href="dir_000137_000189.html" target="_top" xlink:title="3">
<text text-anchor="middle" x="181.66" y="-32.87" font-family="Helvetica,sans-Serif" font-size="10.00" fill="#63b8ff">3</text>
</a>
</g>
</g>
<!-- dir_c63ec87f2f7fd7fbd5b69a04f05a2815&#45;&gt;dir_521de572ae4fe2915cc70a876c52f5b7 -->
<g id="edge5" class="edge">
<title>dir_c63ec87f2f7fd7fbd5b69a04f05a2815&#45;&gt;dir_521de572ae4fe2915cc70a876c52f5b7</title>
<g id="a_edge5"><a xlink:href="dir_000137_000046.html" target="_top">
<path fill="none" stroke="#63b8ff" d="M229.84,-305.53C203.28,-300.37 159.71,-288.6 131,-263.75 109.27,-244.94 107.11,-234.85 100,-207 90.04,-167.99 118.39,-125.84 138,-102.44"/>
<polygon fill="#63b8ff" stroke="#63b8ff" points="140.53,-104.86 144.49,-95.03 135.27,-100.25 140.53,-104.86"/>
</a>
</g>
<g id="a_edge5&#45;headlabel"><a xlink:href="dir_000137_000046.html" target="_top" xlink:title="16">
<text text-anchor="middle" x="141.3" y="-105.17" font-family="Helvetica,sans-Serif" font-size="10.00" fill="#63b8ff">16</text>
</a>
</g>
</g>
<!-- dir_c63ec87f2f7fd7fbd5b69a04f05a2815&#45;&gt;dir_60d1624911c2c9f7b6f38e44ec895aaa -->
<g id="edge6" class="edge">
<title>dir_c63ec87f2f7fd7fbd5b69a04f05a2815&#45;&gt;dir_60d1624911c2c9f7b6f38e44ec895aaa</title>
<g id="a_edge6"><a xlink:href="dir_000137_000121.html" target="_top">
<path fill="none" stroke="#63b8ff" d="M243.51,-300C224.23,-281.47 180.22,-239.16 155.22,-215.14"/>
<polygon fill="#63b8ff" stroke="#63b8ff" points="157.68,-212.65 148.04,-208.24 152.83,-217.69 157.68,-212.65"/>
</a>
</g>
<g id="a_edge6&#45;headlabel"><a xlink:href="dir_000137_000121.html" target="_top" xlink:title="4">
<text text-anchor="middle" x="161.15" y="-208.92" font-family="Helvetica,sans-Serif" font-size="10.00" fill="#63b8ff">4</text>
</a>
</g>
</g>
<!-- dir_c63ec87f2f7fd7fbd5b69a04f05a2815&#45;&gt;dir_942cfae36a92b6b1c4b510e99e852d40 -->
<g id="edge7" class="edge">
<title>dir_c63ec87f2f7fd7fbd5b69a04f05a2815&#45;&gt;dir_942cfae36a92b6b1c4b510e99e852d40</title>
<g id="a_edge7"><a xlink:href="dir_000137_000193.html" target="_top">
<path fill="none" stroke="#63b8ff" d="M276.25,-306.79C328.17,-300.17 449,-276.31 449,-197.62 449,-197.62 449,-197.62 449,-138.88 449,-105.83 436.21,-69.23 427.06,-47.28"/>
<polygon fill="#63b8ff" stroke="#63b8ff" points="430.38,-46.13 423.18,-38.36 423.96,-48.92 430.38,-46.13"/>
</a>
</g>
<g id="a_edge7&#45;headlabel"><a xlink:href="dir_000137_000193.html" target="_top" xlink:title="15">
<text text-anchor="middle" x="433.81" y="-43.78" font-family="Helvetica,sans-Serif" font-size="10.00" fill="#63b8ff">15</text>
</a>
</g>
</g>
<!-- dir_c63ec87f2f7fd7fbd5b69a04f05a2815&#45;&gt;dir_f555f996eeee1ebe901dc71e0c5de8ff -->
<g id="edge11" class="edge">
<title>dir_c63ec87f2f7fd7fbd5b69a04f05a2815&#45;&gt;dir_f555f996eeee1ebe901dc71e0c5de8ff</title>
<g id="a_edge11"><a xlink:href="dir_000137_000126.html" target="_top">
<path fill="none" stroke="#63b8ff" d="M229.88,-307.85C174.16,-303.4 37,-283.72 37,-197.62 37,-197.62 37,-197.62 37,-138.88 37,-105.08 29.16,-87.68 54,-64.75 58.08,-60.98 209.26,-40.57 276.88,-31.6"/>
<polygon fill="#63b8ff" stroke="#63b8ff" points="277.15,-35.1 286.61,-30.32 276.23,-28.16 277.15,-35.1"/>
</a>
</g>
<g id="a_edge11&#45;headlabel"><a xlink:href="dir_000137_000126.html" target="_top" xlink:title="18">
<text text-anchor="middle" x="275.46" y="-35.06" font-family="Helvetica,sans-Serif" font-size="10.00" fill="#63b8ff">18</text>
</a>
</g>
</g>
<!-- dir_352cf3ee91da28188575262295232890 -->
<g id="node9" class="node">
<title>dir_352cf3ee91da28188575262295232890</title>
<g id="a_node9"><a xlink:href="dir_352cf3ee91da28188575262295232890.html" target="_top" xlink:title="basic">
<polygon fill="#a2b4d6" stroke="#404040" points="297.75,-263.75 256.25,-263.75 256.25,-243 297.75,-243 297.75,-263.75"/>
<text text-anchor="middle" x="277" y="-250.25" font-family="Helvetica,sans-Serif" font-size="10.00">basic</text>
</a>
</g>
</g>
<!-- dir_c63ec87f2f7fd7fbd5b69a04f05a2815&#45;&gt;dir_352cf3ee91da28188575262295232890 -->
<g id="edge3" class="edge">
<title>dir_c63ec87f2f7fd7fbd5b69a04f05a2815&#45;&gt;dir_352cf3ee91da28188575262295232890</title>
<g id="a_edge3"><a xlink:href="dir_000137_000020.html" target="_top">
<path fill="none" stroke="#63b8ff" d="M256.96,-300.08C260.03,-293.08 264.4,-283.11 268.28,-274.27"/>
<polygon fill="#63b8ff" stroke="#63b8ff" points="271.37,-275.93 272.18,-265.37 264.96,-273.12 271.37,-275.93"/>
</a>
</g>
<g id="a_edge3&#45;headlabel"><a xlink:href="dir_000137_000020.html" target="_top" xlink:title="13">
<text text-anchor="middle" x="273.14" y="-275.85" font-family="Helvetica,sans-Serif" font-size="10.00" fill="#63b8ff">13</text>
</a>
</g>
</g>
<!-- dir_b90494a72034161169528f50be8b61b3 -->
<g id="node10" class="node">
<title>dir_b90494a72034161169528f50be8b61b3</title>
<g id="a_node10"><a xlink:href="dir_b90494a72034161169528f50be8b61b3.html" target="_top" xlink:title="combinator">
<polygon fill="#a2b4d6" stroke="#404040" points="367.75,-207 296.25,-207 296.25,-186.25 367.75,-186.25 367.75,-207"/>
<text text-anchor="middle" x="332" y="-193.5" font-family="Helvetica,sans-Serif" font-size="10.00">combinator</text>
</a>
</g>
</g>
<!-- dir_c63ec87f2f7fd7fbd5b69a04f05a2815&#45;&gt;dir_b90494a72034161169528f50be8b61b3 -->
<g id="edge10" class="edge">
<title>dir_c63ec87f2f7fd7fbd5b69a04f05a2815&#45;&gt;dir_b90494a72034161169528f50be8b61b3</title>
<g id="a_edge10"><a xlink:href="dir_000137_000034.html" target="_top">
<path fill="none" stroke="#63b8ff" d="M267.64,-299.94C279.66,-291.74 296.38,-278.73 307,-263.75 316.77,-249.97 323.26,-231.88 327.18,-218.11"/>
<polygon fill="#63b8ff" stroke="#63b8ff" points="330.47,-219.36 329.59,-208.8 323.69,-217.6 330.47,-219.36"/>
</a>
</g>
<g id="a_edge10&#45;headlabel"><a xlink:href="dir_000137_000034.html" target="_top" xlink:title="16">
<text text-anchor="middle" x="332.7" y="-218.96" font-family="Helvetica,sans-Serif" font-size="10.00" fill="#63b8ff">16</text>
</a>
</g>
</g>
<!-- dir_967eafbc0b7c635d33b7b0b328f0cb12 -->
<g id="node11" class="node">
<title>dir_967eafbc0b7c635d33b7b0b328f0cb12</title>
<g id="a_node11"><a xlink:href="dir_967eafbc0b7c635d33b7b0b328f0cb12.html" target="_top" xlink:title="concepts">
<polygon fill="#a2b4d6" stroke="#404040" points="289.75,-150.25 230.25,-150.25 230.25,-129.5 289.75,-129.5 289.75,-150.25"/>
<text text-anchor="middle" x="260" y="-136.75" font-family="Helvetica,sans-Serif" font-size="10.00">concepts</text>
</a>
</g>
</g>
<!-- dir_c63ec87f2f7fd7fbd5b69a04f05a2815&#45;&gt;dir_967eafbc0b7c635d33b7b0b328f0cb12 -->
<g id="edge8" class="edge">
<title>dir_c63ec87f2f7fd7fbd5b69a04f05a2815&#45;&gt;dir_967eafbc0b7c635d33b7b0b328f0cb12</title>
<g id="a_edge8"><a xlink:href="dir_000137_000040.html" target="_top">
<path fill="none" stroke="#63b8ff" d="M251.4,-299.78C249.92,-290.63 247.82,-276.28 247,-263.75 244.64,-227.84 250.95,-186.23 255.59,-161.81"/>
<polygon fill="#63b8ff" stroke="#63b8ff" points="258.98,-162.7 257.51,-152.21 252.11,-161.33 258.98,-162.7"/>
</a>
</g>
<g id="a_edge8&#45;headlabel"><a xlink:href="dir_000137_000040.html" target="_top" xlink:title="28">
<text text-anchor="middle" x="261.35" y="-162.18" font-family="Helvetica,sans-Serif" font-size="10.00" fill="#63b8ff">28</text>
</a>
</g>
</g>
<!-- dir_979062da5ab806b052b4261920d5e719 -->
<g id="node12" class="node">
<title>dir_979062da5ab806b052b4261920d5e719</title>
<g id="a_node12"><a xlink:href="dir_979062da5ab806b052b4261920d5e719.html" target="_top" xlink:title="meta">
<polygon fill="#a2b4d6" stroke="#404040" points="329.75,-93.5 288.25,-93.5 288.25,-72.75 329.75,-72.75 329.75,-93.5"/>
<text text-anchor="middle" x="309" y="-80" font-family="Helvetica,sans-Serif" font-size="10.00">meta</text>
</a>
</g>
</g>
<!-- dir_c63ec87f2f7fd7fbd5b69a04f05a2815&#45;&gt;dir_979062da5ab806b052b4261920d5e719 -->
<g id="edge9" class="edge">
<title>dir_c63ec87f2f7fd7fbd5b69a04f05a2815&#45;&gt;dir_979062da5ab806b052b4261920d5e719</title>
<g id="a_edge9"><a xlink:href="dir_000137_000127.html" target="_top">
<path fill="none" stroke="#63b8ff" d="M273.55,-299.9C303.32,-285.22 357.04,-253.36 377,-207 380.65,-198.53 379.67,-195.08 377,-186.25 376.29,-183.91 341.67,-132.47 322.11,-103.51"/>
<polygon fill="#63b8ff" stroke="#63b8ff" points="325.02,-101.57 316.53,-95.24 319.23,-105.49 325.02,-101.57"/>
</a>
</g>
<g id="a_edge9&#45;headlabel"><a xlink:href="dir_000137_000127.html" target="_top" xlink:title="18">
<text text-anchor="middle" x="328.54" y="-98.58" font-family="Helvetica,sans-Serif" font-size="10.00" fill="#63b8ff">18</text>
</a>
</g>
</g>
<!-- dir_352cf3ee91da28188575262295232890&#45;&gt;dir_30ecaf38acae77be14fb9173f98f8612 -->
<g id="edge13" class="edge">
<title>dir_352cf3ee91da28188575262295232890&#45;&gt;dir_30ecaf38acae77be14fb9173f98f8612</title>
<g id="a_edge13"><a xlink:href="dir_000020_000184.html" target="_top">
<path fill="none" stroke="#63b8ff" d="M256.08,-243.82C231.91,-233.7 193.93,-216.95 182,-207 173.26,-199.71 174.98,-194.37 167,-186.25 148.31,-167.23 136.2,-170.63 119,-150.25 107.42,-136.53 98.39,-118.21 92.55,-104.33"/>
<polygon fill="#63b8ff" stroke="#63b8ff" points="95.92,-103.32 88.98,-95.32 89.41,-105.9 95.92,-103.32"/>
</a>
</g>
<g id="a_edge13&#45;headlabel"><a xlink:href="dir_000020_000184.html" target="_top" xlink:title="1">
<text text-anchor="middle" x="99.33" y="-101.08" font-family="Helvetica,sans-Serif" font-size="10.00" fill="#63b8ff">1</text>
</a>
</g>
</g>
<!-- dir_352cf3ee91da28188575262295232890&#45;&gt;dir_4535887b2cdca47e625f259d07db0112 -->
<g id="edge14" class="edge">
<title>dir_352cf3ee91da28188575262295232890&#45;&gt;dir_4535887b2cdca47e625f259d07db0112</title>
<g id="a_edge14"><a xlink:href="dir_000020_000189.html" target="_top">
<path fill="none" stroke="#63b8ff" d="M269.76,-242.57C257.27,-225.08 231.98,-186.86 221,-150.25 210.63,-115.68 209.58,-73.35 210.08,-48.47"/>
<polygon fill="#63b8ff" stroke="#63b8ff" points="213.57,-48.81 210.38,-38.7 206.57,-48.59 213.57,-48.81"/>
</a>
</g>
<g id="a_edge14&#45;headlabel"><a xlink:href="dir_000020_000189.html" target="_top" xlink:title="1">
<text text-anchor="middle" x="216.34" y="-47.85" font-family="Helvetica,sans-Serif" font-size="10.00" fill="#63b8ff">1</text>
</a>
</g>
</g>
<!-- dir_352cf3ee91da28188575262295232890&#45;&gt;dir_521de572ae4fe2915cc70a876c52f5b7 -->
<g id="edge15" class="edge">
<title>dir_352cf3ee91da28188575262295232890&#45;&gt;dir_521de572ae4fe2915cc70a876c52f5b7</title>
<g id="a_edge15"><a xlink:href="dir_000020_000046.html" target="_top">
<path fill="none" stroke="#63b8ff" d="M262.89,-242.52C238.41,-225.43 189.91,-191.59 182,-186.25 157.79,-169.9 140.89,-175.95 127,-150.25 118.6,-134.72 128.07,-116.13 138.2,-102.63"/>
<polygon fill="#63b8ff" stroke="#63b8ff" points="140.84,-104.92 144.49,-94.98 135.43,-100.48 140.84,-104.92"/>
</a>
</g>
<g id="a_edge15&#45;headlabel"><a xlink:href="dir_000020_000046.html" target="_top" xlink:title="10">
<text text-anchor="middle" x="141.71" y="-105.21" font-family="Helvetica,sans-Serif" font-size="10.00" fill="#63b8ff">10</text>
</a>
</g>
</g>
<!-- dir_352cf3ee91da28188575262295232890&#45;&gt;dir_60d1624911c2c9f7b6f38e44ec895aaa -->
<g id="edge16" class="edge">
<title>dir_352cf3ee91da28188575262295232890&#45;&gt;dir_60d1624911c2c9f7b6f38e44ec895aaa</title>
<g id="a_edge16"><a xlink:href="dir_000020_000121.html" target="_top">
<path fill="none" stroke="#63b8ff" d="M256.04,-244.18C232.95,-235.15 195.54,-220.52 168.83,-210.07"/>
<polygon fill="#63b8ff" stroke="#63b8ff" points="170.1,-206.81 159.51,-206.43 167.55,-213.33 170.1,-206.81"/>
</a>
</g>
<g id="a_edge16&#45;headlabel"><a xlink:href="dir_000020_000121.html" target="_top" xlink:title="3">
<text text-anchor="middle" x="173.07" y="-201.8" font-family="Helvetica,sans-Serif" font-size="10.00" fill="#63b8ff">3</text>
</a>
</g>
</g>
<!-- dir_352cf3ee91da28188575262295232890&#45;&gt;dir_942cfae36a92b6b1c4b510e99e852d40 -->
<g id="edge17" class="edge">
<title>dir_352cf3ee91da28188575262295232890&#45;&gt;dir_942cfae36a92b6b1c4b510e99e852d40</title>
<g id="a_edge17"><a xlink:href="dir_000020_000193.html" target="_top">
<path fill="none" stroke="#63b8ff" d="M298.09,-244.29C330.62,-231.77 389.47,-208.93 391,-207 427.99,-160.37 425.11,-84.86 421.05,-48.4"/>
<polygon fill="#63b8ff" stroke="#63b8ff" points="424.55,-48.22 419.82,-38.74 417.61,-49.11 424.55,-48.22"/>
</a>
</g>
<g id="a_edge17&#45;headlabel"><a xlink:href="dir_000020_000193.html" target="_top" xlink:title="8">
<text text-anchor="middle" x="427.63" y="-46.8" font-family="Helvetica,sans-Serif" font-size="10.00" fill="#63b8ff">8</text>
</a>
</g>
</g>
<!-- dir_352cf3ee91da28188575262295232890&#45;&gt;dir_f555f996eeee1ebe901dc71e0c5de8ff -->
<g id="edge21" class="edge">
<title>dir_352cf3ee91da28188575262295232890&#45;&gt;dir_f555f996eeee1ebe901dc71e0c5de8ff</title>
<g id="a_edge21"><a xlink:href="dir_000020_000126.html" target="_top">
<path fill="none" stroke="#63b8ff" d="M297.91,-244.29C325.85,-233.28 372.4,-214.13 377,-207 397.33,-175.45 427.4,-205.86 347,-64.75 342.72,-57.23 336.49,-50.22 330.32,-44.35"/>
<polygon fill="#63b8ff" stroke="#63b8ff" points="333.06,-42.1 323.25,-38.11 328.43,-47.35 333.06,-42.1"/>
</a>
</g>
<g id="a_edge21&#45;headlabel"><a xlink:href="dir_000020_000126.html" target="_top" xlink:title="5">
<text text-anchor="middle" x="336.5" y="-38.23" font-family="Helvetica,sans-Serif" font-size="10.00" fill="#63b8ff">5</text>
</a>
</g>
</g>
<!-- dir_352cf3ee91da28188575262295232890&#45;&gt;dir_b90494a72034161169528f50be8b61b3 -->
<g id="edge20" class="edge">
<title>dir_352cf3ee91da28188575262295232890&#45;&gt;dir_b90494a72034161169528f50be8b61b3</title>
<g id="a_edge20"><a xlink:href="dir_000020_000034.html" target="_top">
<path fill="none" stroke="#63b8ff" d="M286.83,-242.59C294.42,-235.03 305.12,-224.39 314.2,-215.35"/>
<polygon fill="#63b8ff" stroke="#63b8ff" points="316.56,-217.93 321.18,-208.4 311.62,-212.97 316.56,-217.93"/>
</a>
</g>
<g id="a_edge20&#45;headlabel"><a xlink:href="dir_000020_000034.html" target="_top" xlink:title="6">
<text text-anchor="middle" x="317.09" y="-218.29" font-family="Helvetica,sans-Serif" font-size="10.00" fill="#63b8ff">6</text>
</a>
</g>
</g>
<!-- dir_352cf3ee91da28188575262295232890&#45;&gt;dir_967eafbc0b7c635d33b7b0b328f0cb12 -->
<g id="edge18" class="edge">
<title>dir_352cf3ee91da28188575262295232890&#45;&gt;dir_967eafbc0b7c635d33b7b0b328f0cb12</title>
<g id="a_edge18"><a xlink:href="dir_000020_000040.html" target="_top">
<path fill="none" stroke="#63b8ff" d="M275.55,-242.87C272.83,-225.02 266.9,-186.11 263.2,-161.84"/>
<polygon fill="#63b8ff" stroke="#63b8ff" points="266.69,-161.53 261.72,-152.17 259.77,-162.58 266.69,-161.53"/>
</a>
</g>
<g id="a_edge18&#45;headlabel"><a xlink:href="dir_000020_000040.html" target="_top" xlink:title="7">
<text text-anchor="middle" x="269.81" y="-160.03" font-family="Helvetica,sans-Serif" font-size="10.00" fill="#63b8ff">7</text>
</a>
</g>
</g>
<!-- dir_352cf3ee91da28188575262295232890&#45;&gt;dir_979062da5ab806b052b4261920d5e719 -->
<g id="edge19" class="edge">
<title>dir_352cf3ee91da28188575262295232890&#45;&gt;dir_979062da5ab806b052b4261920d5e719</title>
<g id="a_edge19"><a xlink:href="dir_000020_000127.html" target="_top">
<path fill="none" stroke="#63b8ff" d="M277.92,-242.86C279.29,-229.92 282.22,-206.12 287,-186.25 290.94,-169.85 295.06,-166.65 299,-150.25 302.62,-135.19 305.18,-117.88 306.81,-104.74"/>
<polygon fill="#63b8ff" stroke="#63b8ff" points="310.24,-105.48 307.91,-95.14 303.29,-104.68 310.24,-105.48"/>
</a>
</g>
<g id="a_edge19&#45;headlabel"><a xlink:href="dir_000020_000127.html" target="_top" xlink:title="6">
<text text-anchor="middle" x="312.83" y="-104.74" font-family="Helvetica,sans-Serif" font-size="10.00" fill="#63b8ff">6</text>
</a>
</g>
</g>
<!-- dir_048287677304621c659962c2a2c2732d -->
<g id="node13" class="node">
<title>dir_048287677304621c659962c2a2c2732d</title>
<g id="a_node13"><a xlink:href="dir_048287677304621c659962c2a2c2732d.html" target="_top" xlink:title="ccpp">
<polygon fill="#edf0f7" stroke="red" stroke-dasharray="5,2" points="506.25,-207 467.75,-207 467.75,-186.25 506.25,-186.25 506.25,-207"/>
<text text-anchor="middle" x="487" y="-193.5" font-family="Helvetica,sans-Serif" font-size="10.00">ccpp</text>
</a>
</g>
</g>
<!-- dir_352cf3ee91da28188575262295232890&#45;&gt;dir_048287677304621c659962c2a2c2732d -->
<g id="edge12" class="edge">
<title>dir_352cf3ee91da28188575262295232890&#45;&gt;dir_048287677304621c659962c2a2c2732d</title>
<g id="a_edge12"><a xlink:href="dir_000020_000030.html" target="_top">
<path fill="none" stroke="#63b8ff" d="M298.03,-248.07C330.62,-241.21 395.48,-226.86 456.49,-208.55"/>
<polygon fill="#63b8ff" stroke="#63b8ff" points="457.43,-211.92 465.98,-205.66 455.39,-205.23 457.43,-211.92"/>
</a>
</g>
<g id="a_edge12&#45;headlabel"><a xlink:href="dir_000020_000030.html" target="_top" xlink:title="2">
<text text-anchor="middle" x="456.27" y="-212.12" font-family="Helvetica,sans-Serif" font-size="10.00" fill="#63b8ff">2</text>
</a>
</g>
</g>
<!-- dir_b90494a72034161169528f50be8b61b3&#45;&gt;dir_0669efae56692bb73da75efb5ebbccdf -->
<g id="edge22" class="edge">
<title>dir_b90494a72034161169528f50be8b61b3&#45;&gt;dir_0669efae56692bb73da75efb5ebbccdf</title>
<g id="a_edge22"><a xlink:href="dir_000034_000083.html" target="_top">
<path fill="none" stroke="#63b8ff" d="M301.96,-185.84C274.23,-176.8 232.87,-163.32 202.67,-153.48"/>
<polygon fill="#63b8ff" stroke="#63b8ff" points="204.13,-150.27 193.54,-150.5 201.96,-156.93 204.13,-150.27"/>
</a>
</g>
<g id="a_edge22&#45;headlabel"><a xlink:href="dir_000034_000083.html" target="_top" xlink:title="5">
<text text-anchor="middle" x="206.99" y="-145.09" font-family="Helvetica,sans-Serif" font-size="10.00" fill="#63b8ff">5</text>
</a>
</g>
</g>
<!-- dir_b90494a72034161169528f50be8b61b3&#45;&gt;dir_942cfae36a92b6b1c4b510e99e852d40 -->
<g id="edge23" class="edge">
<title>dir_b90494a72034161169528f50be8b61b3&#45;&gt;dir_942cfae36a92b6b1c4b510e99e852d40</title>
<g id="a_edge23"><a xlink:href="dir_000034_000193.html" target="_top">
<path fill="none" stroke="#63b8ff" d="M336.87,-186.1C350.52,-159.39 389.38,-83.37 407.92,-47.1"/>
<polygon fill="#63b8ff" stroke="#63b8ff" points="410.85,-49.06 412.28,-38.57 404.61,-45.88 410.85,-49.06"/>
</a>
</g>
<g id="a_edge23&#45;headlabel"><a xlink:href="dir_000034_000193.html" target="_top" xlink:title="3">
<text text-anchor="middle" x="412.43" y="-49.08" font-family="Helvetica,sans-Serif" font-size="10.00" fill="#63b8ff">3</text>
</a>
</g>
</g>
<!-- dir_b90494a72034161169528f50be8b61b3&#45;&gt;dir_f555f996eeee1ebe901dc71e0c5de8ff -->
<g id="edge26" class="edge">
<title>dir_b90494a72034161169528f50be8b61b3&#45;&gt;dir_f555f996eeee1ebe901dc71e0c5de8ff</title>
<g id="a_edge26"><a xlink:href="dir_000034_000126.html" target="_top">
<path fill="none" stroke="#63b8ff" d="M334.93,-186.07C341.2,-163.97 354.17,-107.89 339,-64.75 336.5,-57.64 332.01,-50.89 327.26,-45.12"/>
<polygon fill="#63b8ff" stroke="#63b8ff" points="330.17,-43.11 320.84,-38.09 325,-47.83 330.17,-43.11"/>
</a>
</g>
<g id="a_edge26&#45;headlabel"><a xlink:href="dir_000034_000126.html" target="_top" xlink:title="4">
<text text-anchor="middle" x="333.67" y="-39.61" font-family="Helvetica,sans-Serif" font-size="10.00" fill="#63b8ff">4</text>
</a>
</g>
</g>
<!-- dir_b90494a72034161169528f50be8b61b3&#45;&gt;dir_967eafbc0b7c635d33b7b0b328f0cb12 -->
<g id="edge24" class="edge">
<title>dir_b90494a72034161169528f50be8b61b3&#45;&gt;dir_967eafbc0b7c635d33b7b0b328f0cb12</title>
<g id="a_edge24"><a xlink:href="dir_000034_000040.html" target="_top">
<path fill="none" stroke="#63b8ff" d="M319.13,-185.84C308.79,-177.97 294.03,-166.75 281.85,-157.49"/>
<polygon fill="#63b8ff" stroke="#63b8ff" points="284.04,-154.76 273.97,-151.49 279.81,-160.33 284.04,-154.76"/>
</a>
</g>
<g id="a_edge24&#45;headlabel"><a xlink:href="dir_000034_000040.html" target="_top" xlink:title="10">
<text text-anchor="middle" x="287.42" y="-150.64" font-family="Helvetica,sans-Serif" font-size="10.00" fill="#63b8ff">10</text>
</a>
</g>
</g>
<!-- dir_b90494a72034161169528f50be8b61b3&#45;&gt;dir_979062da5ab806b052b4261920d5e719 -->
<g id="edge25" class="edge">
<title>dir_b90494a72034161169528f50be8b61b3&#45;&gt;dir_979062da5ab806b052b4261920d5e719</title>
<g id="a_edge25"><a xlink:href="dir_000034_000127.html" target="_top">
<path fill="none" stroke="#63b8ff" d="M330.04,-186.12C326.36,-168.27 318.33,-129.36 313.32,-105.09"/>
<polygon fill="#63b8ff" stroke="#63b8ff" points="316.78,-104.49 311.33,-95.41 309.92,-105.91 316.78,-104.49"/>
</a>
</g>
<g id="a_edge25&#45;headlabel"><a xlink:href="dir_000034_000127.html" target="_top" xlink:title="9">
<text text-anchor="middle" x="319.98" y="-102.83" font-family="Helvetica,sans-Serif" font-size="10.00" fill="#63b8ff">9</text>
</a>
</g>
</g>
<!-- dir_967eafbc0b7c635d33b7b0b328f0cb12&#45;&gt;dir_30ecaf38acae77be14fb9173f98f8612 -->
<g id="edge27" class="edge">
<title>dir_967eafbc0b7c635d33b7b0b328f0cb12&#45;&gt;dir_30ecaf38acae77be14fb9173f98f8612</title>
<g id="a_edge27"><a xlink:href="dir_000040_000184.html" target="_top">
<path fill="none" stroke="#63b8ff" d="M229.92,-129.46C198.62,-119.67 149.78,-104.39 117.59,-94.32"/>
<polygon fill="#63b8ff" stroke="#63b8ff" points="118.98,-91.09 108.39,-91.44 116.89,-97.77 118.98,-91.09"/>
</a>
</g>
<g id="a_edge27&#45;headlabel"><a xlink:href="dir_000040_000184.html" target="_top" xlink:title="1">
<text text-anchor="middle" x="121.82" y="-85.88" font-family="Helvetica,sans-Serif" font-size="10.00" fill="#63b8ff">1</text>
</a>
</g>
</g>
<!-- dir_967eafbc0b7c635d33b7b0b328f0cb12&#45;&gt;dir_521de572ae4fe2915cc70a876c52f5b7 -->
<g id="edge28" class="edge">
<title>dir_967eafbc0b7c635d33b7b0b328f0cb12&#45;&gt;dir_521de572ae4fe2915cc70a876c52f5b7</title>
<g id="a_edge28"><a xlink:href="dir_000040_000046.html" target="_top">
<path fill="none" stroke="#63b8ff" d="M241.23,-129.09C225.25,-120.76 202.05,-108.66 183.74,-99.11"/>
<polygon fill="#63b8ff" stroke="#63b8ff" points="185.44,-96.05 174.95,-94.53 182.2,-102.26 185.44,-96.05"/>
</a>
</g>
<g id="a_edge28&#45;headlabel"><a xlink:href="dir_000040_000046.html" target="_top" xlink:title="3">
<text text-anchor="middle" x="188.59" y="-91.37" font-family="Helvetica,sans-Serif" font-size="10.00" fill="#63b8ff">3</text>
</a>
</g>
</g>
<!-- dir_967eafbc0b7c635d33b7b0b328f0cb12&#45;&gt;dir_f555f996eeee1ebe901dc71e0c5de8ff -->
<g id="edge30" class="edge">
<title>dir_967eafbc0b7c635d33b7b0b328f0cb12&#45;&gt;dir_f555f996eeee1ebe901dc71e0c5de8ff</title>
<g id="a_edge30"><a xlink:href="dir_000040_000126.html" target="_top">
<path fill="none" stroke="#63b8ff" d="M261.13,-129.3C263.15,-114.72 268.19,-86.38 279,-64.75 282.42,-57.91 287.25,-51.17 292.03,-45.33"/>
<polygon fill="#63b8ff" stroke="#63b8ff" points="294.36,-47.99 298.31,-38.16 289.09,-43.38 294.36,-47.99"/>
</a>
</g>
<g id="a_edge30&#45;headlabel"><a xlink:href="dir_000040_000126.html" target="_top" xlink:title="4">
<text text-anchor="middle" x="295.12" y="-48.3" font-family="Helvetica,sans-Serif" font-size="10.00" fill="#63b8ff">4</text>
</a>
</g>
</g>
<!-- dir_967eafbc0b7c635d33b7b0b328f0cb12&#45;&gt;dir_979062da5ab806b052b4261920d5e719 -->
<g id="edge29" class="edge">
<title>dir_967eafbc0b7c635d33b7b0b328f0cb12&#45;&gt;dir_979062da5ab806b052b4261920d5e719</title>
<g id="a_edge29"><a xlink:href="dir_000040_000127.html" target="_top">
<path fill="none" stroke="#63b8ff" d="M263.44,-129.09C268.75,-121.53 277.93,-110.89 286.78,-101.85"/>
<polygon fill="#63b8ff" stroke="#63b8ff" points="289.21,-104.37 293.93,-94.88 284.32,-99.35 289.21,-104.37"/>
</a>
</g>
<g id="a_edge29&#45;headlabel"><a xlink:href="dir_000040_000127.html" target="_top" xlink:title="1">
<text text-anchor="middle" x="289.7" y="-104.73" font-family="Helvetica,sans-Serif" font-size="10.00" fill="#63b8ff">1</text>
</a>
</g>
</g>
<!-- dir_979062da5ab806b052b4261920d5e719&#45;&gt;dir_4535887b2cdca47e625f259d07db0112 -->
<g id="edge31" class="edge">
<title>dir_979062da5ab806b052b4261920d5e719&#45;&gt;dir_4535887b2cdca47e625f259d07db0112</title>
<g id="a_edge31"><a xlink:href="dir_000127_000189.html" target="_top">
<path fill="none" stroke="#63b8ff" d="M295.73,-72.41C292,-69.82 287.9,-67.09 284,-64.75 268.92,-55.7 251.4,-46.69 237.3,-39.78"/>
<polygon fill="#63b8ff" stroke="#63b8ff" points="239.17,-36.79 228.65,-35.6 236.13,-43.1 239.17,-36.79"/>
</a>
</g>
<g id="a_edge31&#45;headlabel"><a xlink:href="dir_000127_000189.html" target="_top" xlink:title="1">
<text text-anchor="middle" x="242.28" y="-32.02" font-family="Helvetica,sans-Serif" font-size="10.00" fill="#63b8ff">1</text>
</a>
</g>
</g>
<!-- dir_979062da5ab806b052b4261920d5e719&#45;&gt;dir_942cfae36a92b6b1c4b510e99e852d40 -->
<g id="edge32" class="edge">
<title>dir_979062da5ab806b052b4261920d5e719&#45;&gt;dir_942cfae36a92b6b1c4b510e99e852d40</title>
<g id="a_edge32"><a xlink:href="dir_000127_000193.html" target="_top">
<path fill="none" stroke="#63b8ff" d="M322.19,-72.27C325.92,-69.67 330.04,-66.98 334,-64.75 350.16,-55.65 368.95,-47.11 384.66,-40.5"/>
<polygon fill="#63b8ff" stroke="#63b8ff" points="385.66,-43.87 393.57,-36.82 383,-37.4 385.66,-43.87"/>
</a>
</g>
<g id="a_edge32&#45;headlabel"><a xlink:href="dir_000127_000193.html" target="_top" xlink:title="1">
<text text-anchor="middle" x="384.82" y="-44.16" font-family="Helvetica,sans-Serif" font-size="10.00" fill="#63b8ff">1</text>
</a>
</g>
</g>
<!-- dir_979062da5ab806b052b4261920d5e719&#45;&gt;dir_f555f996eeee1ebe901dc71e0c5de8ff -->
<g id="edge34" class="edge">
<title>dir_979062da5ab806b052b4261920d5e719&#45;&gt;dir_f555f996eeee1ebe901dc71e0c5de8ff</title>
<g id="a_edge34"><a xlink:href="dir_000127_000126.html" target="_top">
<path fill="none" stroke="#63b8ff" d="M309,-72.34C309,-65.72 309,-56.72 309,-48.52"/>
<polygon fill="#63b8ff" stroke="#63b8ff" points="312.5,-48.59 309,-38.59 305.5,-48.59 312.5,-48.59"/>
</a>
</g>
<g id="a_edge34&#45;headlabel"><a xlink:href="dir_000127_000126.html" target="_top" xlink:title="1">
<text text-anchor="middle" x="315.34" y="-47.55" font-family="Helvetica,sans-Serif" font-size="10.00" fill="#63b8ff">1</text>
</a>
</g>
</g>
<!-- dir_979062da5ab806b052b4261920d5e719&#45;&gt;dir_967eafbc0b7c635d33b7b0b328f0cb12 -->
<g id="edge33" class="edge">
<title>dir_979062da5ab806b052b4261920d5e719&#45;&gt;dir_967eafbc0b7c635d33b7b0b328f0cb12</title>
<g id="a_edge33"><a xlink:href="dir_000127_000040.html" target="_top">
<path fill="none" stroke="#63b8ff" d="M305.62,-93.83C300.28,-101.43 290.98,-112.22 282.05,-121.33"/>
<polygon fill="#63b8ff" stroke="#63b8ff" points="279.89,-118.55 275.16,-128.03 284.77,-123.57 279.89,-118.55"/>
</a>
</g>
<g id="a_edge33&#45;headlabel"><a xlink:href="dir_000127_000040.html" target="_top" xlink:title="3">
<text text-anchor="middle" x="279.4" y="-111.94" font-family="Helvetica,sans-Serif" font-size="10.00" fill="#63b8ff">3</text>
</a>
</g>
</g>
</g>
</svg>
