<?xml version="1.0" encoding="UTF-8" standalone="no"?>
<!DOCTYPE svg PUBLIC "-//W3C//DTD SVG 1.1//EN"
 "http://www.w3.org/Graphics/SVG/1.1/DTD/svg11.dtd">
<!-- Generated by graphviz version 10.0.1 (0)
 -->
<!-- Title: libs/di/include/di/sync Pages: 1 -->
<svg width="421pt" height="203pt"
 viewBox="0.00 0.00 421.00 203.00" xmlns="http://www.w3.org/2000/svg" xmlns:xlink="http://www.w3.org/1999/xlink">
<g id="graph0" class="graph" transform="scale(1 1) rotate(0) translate(4 199)">
<title>libs/di/include/di/sync</title>
<g id="clust1" class="cluster">
<title>clusterdir_f95a1a0ab1b96e316090c1bcac3c2c99</title>
<g id="a_clust1"><a xlink:href="dir_f95a1a0ab1b96e316090c1bcac3c2c99.html" target="_top" xlink:title="di">
<polygon fill="#edf0f7" stroke="#7f7f7f" stroke-dasharray="5,2" points="8,-8 8,-187 405,-187 405,-8 8,-8"/>
<text text-anchor="middle" x="206.5" y="-173.5" font-family="Helvetica,sans-Serif" font-size="10.00">di</text>
</a>
</g>
</g>
<g id="clust2" class="cluster">
<title>clusterdir_9bfc08b7c5b17d043ebb5b9fbb866539</title>
<g id="a_clust2"><a xlink:href="dir_9bfc08b7c5b17d043ebb5b9fbb866539.html" target="_top">
<polygon fill="#edf0f7" stroke="#404040" stroke-width="2" points="28,-64.75 28,-158.25 191,-158.25 191,-64.75 28,-64.75"/>
</a>
</g>
</g>
<!-- dir_0669efae56692bb73da75efb5ebbccdf -->
<g id="node1" class="node">
<title>dir_0669efae56692bb73da75efb5ebbccdf</title>
<g id="a_node1"><a xlink:href="dir_0669efae56692bb73da75efb5ebbccdf.html" target="_top" xlink:title="function">
<polygon fill="#a2b4d6" stroke="red" points="71.88,-36.75 16.12,-36.75 16.12,-16 71.88,-16 71.88,-36.75"/>
<text text-anchor="middle" x="44" y="-23.25" font-family="Helvetica,sans-Serif" font-size="10.00">function</text>
</a>
</g>
</g>
<!-- dir_30ecaf38acae77be14fb9173f98f8612 -->
<g id="node2" class="node">
<title>dir_30ecaf38acae77be14fb9173f98f8612</title>
<g id="a_node2"><a xlink:href="dir_30ecaf38acae77be14fb9173f98f8612.html" target="_top" xlink:title="types">
<polygon fill="#a2b4d6" stroke="#404040" points="347.5,-93.5 304.5,-93.5 304.5,-72.75 347.5,-72.75 347.5,-93.5"/>
<text text-anchor="middle" x="326" y="-80" font-family="Helvetica,sans-Serif" font-size="10.00">types</text>
</a>
</g>
</g>
<!-- dir_4535887b2cdca47e625f259d07db0112 -->
<g id="node3" class="node">
<title>dir_4535887b2cdca47e625f259d07db0112</title>
<g id="a_node3"><a xlink:href="dir_4535887b2cdca47e625f259d07db0112.html" target="_top" xlink:title="util">
<polygon fill="#a2b4d6" stroke="#404040" points="396.88,-93.5 365.12,-93.5 365.12,-72.75 396.88,-72.75 396.88,-93.5"/>
<text text-anchor="middle" x="381" y="-80" font-family="Helvetica,sans-Serif" font-size="10.00">util</text>
</a>
</g>
</g>
<!-- dir_521de572ae4fe2915cc70a876c52f5b7 -->
<g id="node4" class="node">
<title>dir_521de572ae4fe2915cc70a876c52f5b7</title>
<g id="a_node4"><a xlink:href="dir_521de572ae4fe2915cc70a876c52f5b7.html" target="_top" xlink:title="container">
<polygon fill="#a2b4d6" stroke="red" points="211.88,-36.75 150.12,-36.75 150.12,-16 211.88,-16 211.88,-36.75"/>
<text text-anchor="middle" x="181" y="-23.25" font-family="Helvetica,sans-Serif" font-size="10.00">container</text>
</a>
</g>
</g>
<!-- dir_942cfae36a92b6b1c4b510e99e852d40 -->
<g id="node5" class="node">
<title>dir_942cfae36a92b6b1c4b510e99e852d40</title>
<g id="a_node5"><a xlink:href="dir_942cfae36a92b6b1c4b510e99e852d40.html" target="_top" xlink:title="vocab">
<polygon fill="#a2b4d6" stroke="red" points="245.62,-93.5 200.38,-93.5 200.38,-72.75 245.62,-72.75 245.62,-93.5"/>
<text text-anchor="middle" x="223" y="-80" font-family="Helvetica,sans-Serif" font-size="10.00">vocab</text>
</a>
</g>
</g>
<!-- dir_aaf67126bd5deefc4d96704f76f22cc2 -->
<g id="node6" class="node">
<title>dir_aaf67126bd5deefc4d96704f76f22cc2</title>
<g id="a_node6"><a xlink:href="dir_aaf67126bd5deefc4d96704f76f22cc2.html" target="_top" xlink:title="platform">
<polygon fill="#a2b4d6" stroke="#404040" points="301,-36.75 243,-36.75 243,-16 301,-16 301,-36.75"/>
<text text-anchor="middle" x="272" y="-23.25" font-family="Helvetica,sans-Serif" font-size="10.00">platform</text>
</a>
</g>
</g>
<!-- dir_f555f996eeee1ebe901dc71e0c5de8ff -->
<g id="node7" class="node">
<title>dir_f555f996eeee1ebe901dc71e0c5de8ff</title>
<g id="a_node7"><a xlink:href="dir_f555f996eeee1ebe901dc71e0c5de8ff.html" target="_top" xlink:title="meta">
<polygon fill="#a2b4d6" stroke="#404040" points="131.75,-36.75 90.25,-36.75 90.25,-16 131.75,-16 131.75,-36.75"/>
<text text-anchor="middle" x="111" y="-23.25" font-family="Helvetica,sans-Serif" font-size="10.00">meta</text>
</a>
</g>
</g>
<!-- dir_9bfc08b7c5b17d043ebb5b9fbb866539 -->
<g id="node8" class="node">
<title>dir_9bfc08b7c5b17d043ebb5b9fbb866539</title>
<text text-anchor="middle" x="164" y="-136.75" font-family="Helvetica,sans-Serif" font-size="10.00">sync</text>
</g>
<!-- dir_9bfc08b7c5b17d043ebb5b9fbb866539&#45;&gt;dir_0669efae56692bb73da75efb5ebbccdf -->
<g id="edge1" class="edge">
<title>dir_9bfc08b7c5b17d043ebb5b9fbb866539&#45;&gt;dir_0669efae56692bb73da75efb5ebbccdf</title>
<g id="a_edge1"><a xlink:href="dir_000166_000083.html" target="_top">
<path fill="none" stroke="#63b8ff" d="M144.99,-139.03C114.24,-138.11 54.29,-131.28 27,-93.5 17.05,-79.72 23.58,-60.62 31.26,-46.49"/>
<polygon fill="#63b8ff" stroke="#63b8ff" points="34.14,-48.49 36.31,-38.12 28.14,-44.87 34.14,-48.49"/>
</a>
</g>
<g id="a_edge1&#45;headlabel"><a xlink:href="dir_000166_000083.html" target="_top" xlink:title="2">
<text text-anchor="middle" x="35.49" y="-48.61" font-family="Helvetica,sans-Serif" font-size="10.00" fill="#63b8ff">2</text>
</a>
</g>
</g>
<!-- dir_9bfc08b7c5b17d043ebb5b9fbb866539&#45;&gt;dir_30ecaf38acae77be14fb9173f98f8612 -->
<g id="edge2" class="edge">
<title>dir_9bfc08b7c5b17d043ebb5b9fbb866539&#45;&gt;dir_30ecaf38acae77be14fb9173f98f8612</title>
<g id="a_edge2"><a xlink:href="dir_000166_000184.html" target="_top">
<path fill="none" stroke="#63b8ff" d="M183.22,-132.38C210.48,-123.17 260.72,-106.19 293.75,-95.03"/>
<polygon fill="#63b8ff" stroke="#63b8ff" points="294.44,-98.49 302.79,-91.97 292.2,-91.85 294.44,-98.49"/>
</a>
</g>
<g id="a_edge2&#45;headlabel"><a xlink:href="dir_000166_000184.html" target="_top" xlink:title="2">
<text text-anchor="middle" x="293.38" y="-98.72" font-family="Helvetica,sans-Serif" font-size="10.00" fill="#63b8ff">2</text>
</a>
</g>
</g>
<!-- dir_9bfc08b7c5b17d043ebb5b9fbb866539&#45;&gt;dir_4535887b2cdca47e625f259d07db0112 -->
<g id="edge4" class="edge">
<title>dir_9bfc08b7c5b17d043ebb5b9fbb866539&#45;&gt;dir_4535887b2cdca47e625f259d07db0112</title>
<g id="a_edge4"><a xlink:href="dir_000166_000189.html" target="_top">
<path fill="none" stroke="#63b8ff" d="M183.14,-135.31C216.31,-128.94 286.75,-114.54 354.07,-94.12"/>
<polygon fill="#63b8ff" stroke="#63b8ff" points="354.88,-97.54 363.4,-91.24 352.81,-90.85 354.88,-97.54"/>
</a>
</g>
<g id="a_edge4&#45;headlabel"><a xlink:href="dir_000166_000189.html" target="_top" xlink:title="5">
<text text-anchor="middle" x="353.73" y="-97.74" font-family="Helvetica,sans-Serif" font-size="10.00" fill="#63b8ff">5</text>
</a>
</g>
</g>
<!-- dir_9bfc08b7c5b17d043ebb5b9fbb866539&#45;&gt;dir_942cfae36a92b6b1c4b510e99e852d40 -->
<g id="edge5" class="edge">
<title>dir_9bfc08b7c5b17d043ebb5b9fbb866539&#45;&gt;dir_942cfae36a92b6b1c4b510e99e852d40</title>
<g id="a_edge5"><a xlink:href="dir_000166_000193.html" target="_top">
<path fill="none" stroke="#63b8ff" d="M174.01,-129.59C182.35,-121.85 194.45,-110.62 204.54,-101.25"/>
<polygon fill="#63b8ff" stroke="#63b8ff" points="206.69,-104.04 211.63,-94.67 201.92,-98.91 206.69,-104.04"/>
</a>
</g>
<g id="a_edge5&#45;headlabel"><a xlink:href="dir_000166_000193.html" target="_top" xlink:title="1">
<text text-anchor="middle" x="207.09" y="-104.41" font-family="Helvetica,sans-Serif" font-size="10.00" fill="#63b8ff">1</text>
</a>
</g>
</g>
<!-- dir_9bfc08b7c5b17d043ebb5b9fbb866539&#45;&gt;dir_aaf67126bd5deefc4d96704f76f22cc2 -->
<g id="edge7" class="edge">
<title>dir_9bfc08b7c5b17d043ebb5b9fbb866539&#45;&gt;dir_aaf67126bd5deefc4d96704f76f22cc2</title>
<g id="a_edge7"><a xlink:href="dir_000166_000139.html" target="_top">
<path fill="none" stroke="#63b8ff" d="M182.87,-135.67C205.5,-130.78 242.76,-119.15 262,-93.5 271.6,-80.7 273.76,-62.52 273.71,-48.46"/>
<polygon fill="#63b8ff" stroke="#63b8ff" points="277.21,-48.32 273.26,-38.49 270.22,-48.64 277.21,-48.32"/>
</a>
</g>
<g id="a_edge7&#45;headlabel"><a xlink:href="dir_000166_000139.html" target="_top" xlink:title="2">
<text text-anchor="middle" x="280.14" y="-47.15" font-family="Helvetica,sans-Serif" font-size="10.00" fill="#63b8ff">2</text>
</a>
</g>
</g>
<!-- dir_9bfc08b7c5b17d043ebb5b9fbb866539&#45;&gt;dir_f555f996eeee1ebe901dc71e0c5de8ff -->
<g id="edge8" class="edge">
<title>dir_9bfc08b7c5b17d043ebb5b9fbb866539&#45;&gt;dir_f555f996eeee1ebe901dc71e0c5de8ff</title>
<g id="a_edge8"><a xlink:href="dir_000166_000126.html" target="_top">
<path fill="none" stroke="#63b8ff" d="M182.95,-135.51C204.67,-130.52 239.3,-118.87 255,-93.5 261.72,-82.63 262.88,-74.81 255,-64.75 224.88,-26.34 195.33,-47.55 143.06,-36.8"/>
<polygon fill="#63b8ff" stroke="#63b8ff" points="143.95,-33.42 133.4,-34.46 142.29,-40.22 143.95,-33.42"/>
</a>
</g>
<g id="a_edge8&#45;headlabel"><a xlink:href="dir_000166_000126.html" target="_top" xlink:title="12">
<text text-anchor="middle" x="146.64" y="-28.02" font-family="Helvetica,sans-Serif" font-size="10.00" fill="#63b8ff">12</text>
</a>
</g>
</g>
<!-- dir_aa189b53646e1612615e17ae790051e7 -->
<g id="node9" class="node">
<title>dir_aa189b53646e1612615e17ae790051e7</title>
<g id="a_node9"><a xlink:href="dir_aa189b53646e1612615e17ae790051e7.html" target="_top" xlink:title="concepts">
<polygon fill="#a2b4d6" stroke="#404040" points="95.75,-93.5 36.25,-93.5 36.25,-72.75 95.75,-72.75 95.75,-93.5"/>
<text text-anchor="middle" x="66" y="-80" font-family="Helvetica,sans-Serif" font-size="10.00">concepts</text>
</a>
</g>
</g>
<!-- dir_9bfc08b7c5b17d043ebb5b9fbb866539&#45;&gt;dir_aa189b53646e1612615e17ae790051e7 -->
<g id="edge6" class="edge">
<title>dir_9bfc08b7c5b17d043ebb5b9fbb866539&#45;&gt;dir_aa189b53646e1612615e17ae790051e7</title>
<g id="a_edge6"><a xlink:href="dir_000166_000042.html" target="_top">
<path fill="none" stroke="#63b8ff" d="M147.38,-129.59C132.49,-121.27 110.4,-108.93 92.99,-99.2"/>
<polygon fill="#63b8ff" stroke="#63b8ff" points="95.13,-96.39 84.69,-94.57 91.71,-102.5 95.13,-96.39"/>
</a>
</g>
<g id="a_edge6&#45;headlabel"><a xlink:href="dir_000166_000042.html" target="_top" xlink:title="6">
<text text-anchor="middle" x="98.33" y="-91.8" font-family="Helvetica,sans-Serif" font-size="10.00" fill="#63b8ff">6</text>
</a>
</g>
</g>
<!-- dir_3b5a57c4d126affc15d801943d3b2259 -->
<g id="node10" class="node">
<title>dir_3b5a57c4d126affc15d801943d3b2259</title>
<g id="a_node10"><a xlink:href="dir_3b5a57c4d126affc15d801943d3b2259.html" target="_top" xlink:title="stop_token">
<polygon fill="#a2b4d6" stroke="#404040" points="182.62,-93.5 113.38,-93.5 113.38,-72.75 182.62,-72.75 182.62,-93.5"/>
<text text-anchor="middle" x="148" y="-80" font-family="Helvetica,sans-Serif" font-size="10.00">stop_token</text>
</a>
</g>
</g>
<!-- dir_9bfc08b7c5b17d043ebb5b9fbb866539&#45;&gt;dir_3b5a57c4d126affc15d801943d3b2259 -->
<g id="edge3" class="edge">
<title>dir_9bfc08b7c5b17d043ebb5b9fbb866539&#45;&gt;dir_3b5a57c4d126affc15d801943d3b2259</title>
<g id="a_edge3"><a xlink:href="dir_000166_000162.html" target="_top">
<path fill="none" stroke="#63b8ff" d="M161.36,-129.83C159.36,-122.99 156.53,-113.3 153.99,-104.61"/>
<polygon fill="#63b8ff" stroke="#63b8ff" points="157.4,-103.8 151.23,-95.18 150.68,-105.77 157.4,-103.8"/>
</a>
</g>
<g id="a_edge3&#45;headlabel"><a xlink:href="dir_000166_000162.html" target="_top" xlink:title="1">
<text text-anchor="middle" x="160.71" y="-101.88" font-family="Helvetica,sans-Serif" font-size="10.00" fill="#63b8ff">1</text>
</a>
</g>
</g>
<!-- dir_aa189b53646e1612615e17ae790051e7&#45;&gt;dir_0669efae56692bb73da75efb5ebbccdf -->
<g id="edge9" class="edge">
<title>dir_aa189b53646e1612615e17ae790051e7&#45;&gt;dir_0669efae56692bb73da75efb5ebbccdf</title>
<g id="a_edge9"><a xlink:href="dir_000042_000083.html" target="_top">
<path fill="none" stroke="#63b8ff" d="M62.07,-72.34C59.31,-65.49 55.54,-56.09 52.15,-47.65"/>
<polygon fill="#63b8ff" stroke="#63b8ff" points="55.44,-46.46 48.46,-38.48 48.94,-49.07 55.44,-46.46"/>
</a>
</g>
<g id="a_edge9&#45;headlabel"><a xlink:href="dir_000042_000083.html" target="_top" xlink:title="1">
<text text-anchor="middle" x="58.85" y="-44.2" font-family="Helvetica,sans-Serif" font-size="10.00" fill="#63b8ff">1</text>
</a>
</g>
</g>
<!-- dir_aa189b53646e1612615e17ae790051e7&#45;&gt;dir_f555f996eeee1ebe901dc71e0c5de8ff -->
<g id="edge10" class="edge">
<title>dir_aa189b53646e1612615e17ae790051e7&#45;&gt;dir_f555f996eeee1ebe901dc71e0c5de8ff</title>
<g id="a_edge10"><a xlink:href="dir_000042_000126.html" target="_top">
<path fill="none" stroke="#63b8ff" d="M74.05,-72.34C80.06,-65.02 88.47,-54.79 95.74,-45.94"/>
<polygon fill="#63b8ff" stroke="#63b8ff" points="98.42,-48.2 102.06,-38.25 93.01,-43.75 98.42,-48.2"/>
</a>
</g>
<g id="a_edge10&#45;headlabel"><a xlink:href="dir_000042_000126.html" target="_top" xlink:title="5">
<text text-anchor="middle" x="99.29" y="-48.48" font-family="Helvetica,sans-Serif" font-size="10.00" fill="#63b8ff">5</text>
</a>
</g>
</g>
<!-- dir_3b5a57c4d126affc15d801943d3b2259&#45;&gt;dir_521de572ae4fe2915cc70a876c52f5b7 -->
<g id="edge11" class="edge">
<title>dir_3b5a57c4d126affc15d801943d3b2259&#45;&gt;dir_521de572ae4fe2915cc70a876c52f5b7</title>
<g id="a_edge11"><a xlink:href="dir_000162_000046.html" target="_top">
<path fill="none" stroke="#63b8ff" d="M153.9,-72.34C158.17,-65.25 164.08,-55.44 169.3,-46.79"/>
<polygon fill="#63b8ff" stroke="#63b8ff" points="172.21,-48.75 174.37,-38.37 166.21,-45.13 172.21,-48.75"/>
</a>
</g>
<g id="a_edge11&#45;headlabel"><a xlink:href="dir_000162_000046.html" target="_top" xlink:title="2">
<text text-anchor="middle" x="173.56" y="-48.87" font-family="Helvetica,sans-Serif" font-size="10.00" fill="#63b8ff">2</text>
</a>
</g>
</g>
<!-- dir_3b5a57c4d126affc15d801943d3b2259&#45;&gt;dir_aaf67126bd5deefc4d96704f76f22cc2 -->
<g id="edge12" class="edge">
<title>dir_3b5a57c4d126affc15d801943d3b2259&#45;&gt;dir_aaf67126bd5deefc4d96704f76f22cc2</title>
<g id="a_edge12"><a xlink:href="dir_000162_000139.html" target="_top">
<path fill="none" stroke="#63b8ff" d="M169.86,-72.37C175.44,-69.88 181.44,-67.21 187,-64.75 204.25,-57.12 223.48,-48.65 239.29,-41.71"/>
<polygon fill="#63b8ff" stroke="#63b8ff" points="240.48,-45.01 248.23,-37.79 237.67,-38.6 240.48,-45.01"/>
</a>
</g>
<g id="a_edge12&#45;headlabel"><a xlink:href="dir_000162_000139.html" target="_top" xlink:title="1">
<text text-anchor="middle" x="239.72" y="-45.32" font-family="Helvetica,sans-Serif" font-size="10.00" fill="#63b8ff">1</text>
</a>
</g>
</g>
</g>
</svg>
