<?xml version="1.0" encoding="UTF-8" standalone="no"?>
<!DOCTYPE svg PUBLIC "-//W3C//DTD SVG 1.1//EN"
 "http://www.w3.org/Graphics/SVG/1.1/DTD/svg11.dtd">
<!-- Generated by graphviz version 10.0.1 (0)
 -->
<!-- Title: libs/di/include/di/chrono Pages: 1 -->
<svg width="202pt" height="260pt"
 viewBox="0.00 0.00 202.00 259.75" xmlns="http://www.w3.org/2000/svg" xmlns:xlink="http://www.w3.org/1999/xlink">
<g id="graph0" class="graph" transform="scale(1 1) rotate(0) translate(4 255.75)">
<title>libs/di/include/di/chrono</title>
<g id="clust1" class="cluster">
<title>clusterdir_f95a1a0ab1b96e316090c1bcac3c2c99</title>
<g id="a_clust1"><a xlink:href="dir_f95a1a0ab1b96e316090c1bcac3c2c99.html" target="_top" xlink:title="di">
<polygon fill="#edf0f7" stroke="#7f7f7f" stroke-dasharray="5,2" points="8,-8 8,-243.75 186,-243.75 186,-8 8,-8"/>
<text text-anchor="middle" x="97" y="-230.25" font-family="Helvetica,sans-Serif" font-size="10.00">di</text>
</a>
</g>
</g>
<g id="clust2" class="cluster">
<title>clusterdir_293164c02f90255ed3402dbdfbf4d86b</title>
<g id="a_clust2"><a xlink:href="dir_293164c02f90255ed3402dbdfbf4d86b.html" target="_top">
<polygon fill="#edf0f7" stroke="#404040" stroke-width="2" points="16,-64.75 16,-215 166,-215 166,-64.75 16,-64.75"/>
</a>
</g>
</g>
<!-- dir_f555f996eeee1ebe901dc71e0c5de8ff -->
<g id="node1" class="node">
<title>dir_f555f996eeee1ebe901dc71e0c5de8ff</title>
<g id="a_node1"><a xlink:href="dir_f555f996eeee1ebe901dc71e0c5de8ff.html" target="_top" xlink:title="meta">
<polygon fill="#a2b4d6" stroke="#404040" points="148.75,-36.75 107.25,-36.75 107.25,-16 148.75,-16 148.75,-36.75"/>
<text text-anchor="middle" x="128" y="-23.25" font-family="Helvetica,sans-Serif" font-size="10.00">meta</text>
</a>
</g>
</g>
<!-- dir_60d1624911c2c9f7b6f38e44ec895aaa -->
<g id="node2" class="node">
<title>dir_60d1624911c2c9f7b6f38e44ec895aaa</title>
<g id="a_node2"><a xlink:href="dir_60d1624911c2c9f7b6f38e44ec895aaa.html" target="_top" xlink:title="math">
<polygon fill="#a2b4d6" stroke="red" points="72.75,-36.75 31.25,-36.75 31.25,-16 72.75,-16 72.75,-36.75"/>
<text text-anchor="middle" x="52" y="-23.25" font-family="Helvetica,sans-Serif" font-size="10.00">math</text>
</a>
</g>
</g>
<!-- dir_293164c02f90255ed3402dbdfbf4d86b -->
<g id="node3" class="node">
<title>dir_293164c02f90255ed3402dbdfbf4d86b</title>
<text text-anchor="middle" x="104" y="-193.5" font-family="Helvetica,sans-Serif" font-size="10.00">chrono</text>
</g>
<!-- dir_158d203f2f94d8cb335df217f47788e2 -->
<g id="node4" class="node">
<title>dir_158d203f2f94d8cb335df217f47788e2</title>
<g id="a_node4"><a xlink:href="dir_158d203f2f94d8cb335df217f47788e2.html" target="_top" xlink:title="concepts">
<polygon fill="#a2b4d6" stroke="#404040" points="157.75,-93.5 98.25,-93.5 98.25,-72.75 157.75,-72.75 157.75,-93.5"/>
<text text-anchor="middle" x="128" y="-80" font-family="Helvetica,sans-Serif" font-size="10.00">concepts</text>
</a>
</g>
</g>
<!-- dir_293164c02f90255ed3402dbdfbf4d86b&#45;&gt;dir_158d203f2f94d8cb335df217f47788e2 -->
<g id="edge1" class="edge">
<title>dir_293164c02f90255ed3402dbdfbf4d86b&#45;&gt;dir_158d203f2f94d8cb335df217f47788e2</title>
<g id="a_edge1"><a xlink:href="dir_000032_000036.html" target="_top">
<path fill="none" stroke="#63b8ff" d="M116.91,-186.51C127.25,-178.35 140.97,-165.37 147,-150.25 153.08,-134.99 147.15,-117.05 140.35,-103.71"/>
<polygon fill="#63b8ff" stroke="#63b8ff" points="143.42,-102.02 135.44,-95.06 137.33,-105.48 143.42,-102.02"/>
</a>
</g>
<g id="a_edge1&#45;headlabel"><a xlink:href="dir_000032_000036.html" target="_top" xlink:title="2">
<text text-anchor="middle" x="146.92" y="-99.3" font-family="Helvetica,sans-Serif" font-size="10.00" fill="#63b8ff">2</text>
</a>
</g>
</g>
<!-- dir_ceecd26fe9d2077898b1cb4924fffa7a -->
<g id="node5" class="node">
<title>dir_ceecd26fe9d2077898b1cb4924fffa7a</title>
<g id="a_node5"><a xlink:href="dir_ceecd26fe9d2077898b1cb4924fffa7a.html" target="_top" xlink:title="duration">
<polygon fill="#a2b4d6" stroke="#404040" points="80.25,-93.5 23.75,-93.5 23.75,-72.75 80.25,-72.75 80.25,-93.5"/>
<text text-anchor="middle" x="52" y="-80" font-family="Helvetica,sans-Serif" font-size="10.00">duration</text>
</a>
</g>
</g>
<!-- dir_293164c02f90255ed3402dbdfbf4d86b&#45;&gt;dir_ceecd26fe9d2077898b1cb4924fffa7a -->
<g id="edge3" class="edge">
<title>dir_293164c02f90255ed3402dbdfbf4d86b&#45;&gt;dir_ceecd26fe9d2077898b1cb4924fffa7a</title>
<g id="a_edge3"><a xlink:href="dir_000032_000067.html" target="_top">
<path fill="none" stroke="#63b8ff" d="M91.61,-186.28C81.59,-177.99 68.04,-164.93 61,-150.25 54.25,-136.16 52.11,-118.56 51.6,-105.06"/>
<polygon fill="#63b8ff" stroke="#63b8ff" points="55.1,-105.11 51.53,-95.13 48.1,-105.16 55.1,-105.11"/>
</a>
</g>
<g id="a_edge3&#45;headlabel"><a xlink:href="dir_000032_000067.html" target="_top" xlink:title="5">
<text text-anchor="middle" x="57.96" y="-104.04" font-family="Helvetica,sans-Serif" font-size="10.00" fill="#63b8ff">5</text>
</a>
</g>
</g>
<!-- dir_79fe9888c3ab8e00bb42c9b576a5de9f -->
<g id="node6" class="node">
<title>dir_79fe9888c3ab8e00bb42c9b576a5de9f</title>
<g id="a_node6"><a xlink:href="dir_79fe9888c3ab8e00bb42c9b576a5de9f.html" target="_top" xlink:title="time_point">
<polygon fill="#a2b4d6" stroke="#404040" points="138.25,-150.25 69.75,-150.25 69.75,-129.5 138.25,-129.5 138.25,-150.25"/>
<text text-anchor="middle" x="104" y="-136.75" font-family="Helvetica,sans-Serif" font-size="10.00">time_point</text>
</a>
</g>
</g>
<!-- dir_293164c02f90255ed3402dbdfbf4d86b&#45;&gt;dir_79fe9888c3ab8e00bb42c9b576a5de9f -->
<g id="edge2" class="edge">
<title>dir_293164c02f90255ed3402dbdfbf4d86b&#45;&gt;dir_79fe9888c3ab8e00bb42c9b576a5de9f</title>
<g id="a_edge2"><a xlink:href="dir_000032_000177.html" target="_top">
<path fill="none" stroke="#63b8ff" d="M104,-186.58C104,-179.89 104,-170.49 104,-161.96"/>
<polygon fill="#63b8ff" stroke="#63b8ff" points="107.5,-162 104,-152 100.5,-162 107.5,-162"/>
</a>
</g>
<g id="a_edge2&#45;headlabel"><a xlink:href="dir_000032_000177.html" target="_top" xlink:title="1">
<text text-anchor="middle" x="110.34" y="-160.95" font-family="Helvetica,sans-Serif" font-size="10.00" fill="#63b8ff">1</text>
</a>
</g>
</g>
<!-- dir_158d203f2f94d8cb335df217f47788e2&#45;&gt;dir_f555f996eeee1ebe901dc71e0c5de8ff -->
<g id="edge4" class="edge">
<title>dir_158d203f2f94d8cb335df217f47788e2&#45;&gt;dir_f555f996eeee1ebe901dc71e0c5de8ff</title>
<g id="a_edge4"><a xlink:href="dir_000036_000126.html" target="_top">
<path fill="none" stroke="#63b8ff" d="M128,-72.34C128,-65.72 128,-56.72 128,-48.52"/>
<polygon fill="#63b8ff" stroke="#63b8ff" points="131.5,-48.59 128,-38.59 124.5,-48.59 131.5,-48.59"/>
</a>
</g>
<g id="a_edge4&#45;headlabel"><a xlink:href="dir_000036_000126.html" target="_top" xlink:title="2">
<text text-anchor="middle" x="134.34" y="-47.55" font-family="Helvetica,sans-Serif" font-size="10.00" fill="#63b8ff">2</text>
</a>
</g>
</g>
<!-- dir_ceecd26fe9d2077898b1cb4924fffa7a&#45;&gt;dir_f555f996eeee1ebe901dc71e0c5de8ff -->
<g id="edge6" class="edge">
<title>dir_ceecd26fe9d2077898b1cb4924fffa7a&#45;&gt;dir_f555f996eeee1ebe901dc71e0c5de8ff</title>
<g id="a_edge6"><a xlink:href="dir_000067_000126.html" target="_top">
<path fill="none" stroke="#63b8ff" d="M65.59,-72.34C76.61,-64.4 92.39,-53.03 105.32,-43.71"/>
<polygon fill="#63b8ff" stroke="#63b8ff" points="107.23,-46.65 113.3,-37.96 103.14,-40.97 107.23,-46.65"/>
</a>
</g>
<g id="a_edge6&#45;headlabel"><a xlink:href="dir_000067_000126.html" target="_top" xlink:title="4">
<text text-anchor="middle" x="107.21" y="-47.04" font-family="Helvetica,sans-Serif" font-size="10.00" fill="#63b8ff">4</text>
</a>
</g>
</g>
<!-- dir_ceecd26fe9d2077898b1cb4924fffa7a&#45;&gt;dir_60d1624911c2c9f7b6f38e44ec895aaa -->
<g id="edge5" class="edge">
<title>dir_ceecd26fe9d2077898b1cb4924fffa7a&#45;&gt;dir_60d1624911c2c9f7b6f38e44ec895aaa</title>
<g id="a_edge5"><a xlink:href="dir_000067_000121.html" target="_top">
<path fill="none" stroke="#63b8ff" d="M52,-72.34C52,-65.72 52,-56.72 52,-48.52"/>
<polygon fill="#63b8ff" stroke="#63b8ff" points="55.5,-48.59 52,-38.59 48.5,-48.59 55.5,-48.59"/>
</a>
</g>
<g id="a_edge5&#45;headlabel"><a xlink:href="dir_000067_000121.html" target="_top" xlink:title="3">
<text text-anchor="middle" x="58.34" y="-47.55" font-family="Helvetica,sans-Serif" font-size="10.00" fill="#63b8ff">3</text>
</a>
</g>
</g>
<!-- dir_79fe9888c3ab8e00bb42c9b576a5de9f&#45;&gt;dir_f555f996eeee1ebe901dc71e0c5de8ff -->
<g id="edge9" class="edge">
<title>dir_79fe9888c3ab8e00bb42c9b576a5de9f&#45;&gt;dir_f555f996eeee1ebe901dc71e0c5de8ff</title>
<g id="a_edge9"><a xlink:href="dir_000177_000126.html" target="_top">
<path fill="none" stroke="#63b8ff" d="M127.04,-129.07C141.39,-121.6 158.64,-109.82 167,-93.5 172.82,-82.13 172.02,-76.5 167,-64.75 163.66,-56.92 157.79,-49.95 151.6,-44.2"/>
<polygon fill="#63b8ff" stroke="#63b8ff" points="154.25,-41.86 144.33,-38.14 149.77,-47.24 154.25,-41.86"/>
</a>
</g>
<g id="a_edge9&#45;headlabel"><a xlink:href="dir_000177_000126.html" target="_top" xlink:title="3">
<text text-anchor="middle" x="157.67" y="-37.89" font-family="Helvetica,sans-Serif" font-size="10.00" fill="#63b8ff">3</text>
</a>
</g>
</g>
<!-- dir_79fe9888c3ab8e00bb42c9b576a5de9f&#45;&gt;dir_158d203f2f94d8cb335df217f47788e2 -->
<g id="edge7" class="edge">
<title>dir_79fe9888c3ab8e00bb42c9b576a5de9f&#45;&gt;dir_158d203f2f94d8cb335df217f47788e2</title>
<g id="a_edge7"><a xlink:href="dir_000177_000036.html" target="_top">
<path fill="none" stroke="#63b8ff" d="M108.29,-129.09C111.33,-122.16 115.51,-112.62 119.24,-104.11"/>
<polygon fill="#63b8ff" stroke="#63b8ff" points="122.33,-105.78 123.14,-95.21 115.92,-102.97 122.33,-105.78"/>
</a>
</g>
<g id="a_edge7&#45;headlabel"><a xlink:href="dir_000177_000036.html" target="_top" xlink:title="1">
<text text-anchor="middle" x="124.09" y="-105.7" font-family="Helvetica,sans-Serif" font-size="10.00" fill="#63b8ff">1</text>
</a>
</g>
</g>
<!-- dir_79fe9888c3ab8e00bb42c9b576a5de9f&#45;&gt;dir_ceecd26fe9d2077898b1cb4924fffa7a -->
<g id="edge8" class="edge">
<title>dir_79fe9888c3ab8e00bb42c9b576a5de9f&#45;&gt;dir_ceecd26fe9d2077898b1cb4924fffa7a</title>
<g id="a_edge8"><a xlink:href="dir_000177_000067.html" target="_top">
<path fill="none" stroke="#63b8ff" d="M94.7,-129.09C87.6,-121.61 77.63,-111.11 69.1,-102.13"/>
<polygon fill="#63b8ff" stroke="#63b8ff" points="71.68,-99.77 62.26,-94.93 66.61,-104.59 71.68,-99.77"/>
</a>
</g>
<g id="a_edge8&#45;headlabel"><a xlink:href="dir_000177_000067.html" target="_top" xlink:title="4">
<text text-anchor="middle" x="75.17" y="-96.2" font-family="Helvetica,sans-Serif" font-size="10.00" fill="#63b8ff">4</text>
</a>
</g>
</g>
</g>
</svg>
