<?xml version="1.0" encoding="UTF-8" standalone="no"?>
<!DOCTYPE svg PUBLIC "-//W3C//DTD SVG 1.1//EN"
 "http://www.w3.org/Graphics/SVG/1.1/DTD/svg11.dtd">
<!-- Generated by graphviz version 10.0.1 (0)
 -->
<!-- Title: libs/di/include/di/any Pages: 1 -->
<svg width="532pt" height="373pt"
 viewBox="0.00 0.00 532.00 373.25" xmlns="http://www.w3.org/2000/svg" xmlns:xlink="http://www.w3.org/1999/xlink">
<g id="graph0" class="graph" transform="scale(1 1) rotate(0) translate(4 369.25)">
<title>libs/di/include/di/any</title>
<g id="clust1" class="cluster">
<title>clusterdir_f95a1a0ab1b96e316090c1bcac3c2c99</title>
<g id="a_clust1"><a xlink:href="dir_f95a1a0ab1b96e316090c1bcac3c2c99.html" target="_top" xlink:title="di">
<polygon fill="#edf0f7" stroke="#7f7f7f" stroke-dasharray="5,2" points="8,-8 8,-357.25 516,-357.25 516,-8 8,-8"/>
<text text-anchor="middle" x="262" y="-343.75" font-family="Helvetica,sans-Serif" font-size="10.00">di</text>
</a>
</g>
</g>
<g id="clust2" class="cluster">
<title>clusterdir_e44b40e2f7a090819cf1915a0b103ff1</title>
<g id="a_clust2"><a xlink:href="dir_e44b40e2f7a090819cf1915a0b103ff1.html" target="_top">
<polygon fill="#edf0f7" stroke="#404040" stroke-width="2" points="46,-64.75 46,-328.5 344,-328.5 344,-64.75 46,-64.75"/>
</a>
</g>
</g>
<!-- dir_30ecaf38acae77be14fb9173f98f8612 -->
<g id="node1" class="node">
<title>dir_30ecaf38acae77be14fb9173f98f8612</title>
<g id="a_node1"><a xlink:href="dir_30ecaf38acae77be14fb9173f98f8612.html" target="_top" xlink:title="types">
<polygon fill="#a2b4d6" stroke="#404040" points="108.5,-36.75 65.5,-36.75 65.5,-16 108.5,-16 108.5,-36.75"/>
<text text-anchor="middle" x="87" y="-23.25" font-family="Helvetica,sans-Serif" font-size="10.00">types</text>
</a>
</g>
</g>
<!-- dir_4535887b2cdca47e625f259d07db0112 -->
<g id="node2" class="node">
<title>dir_4535887b2cdca47e625f259d07db0112</title>
<g id="a_node2"><a xlink:href="dir_4535887b2cdca47e625f259d07db0112.html" target="_top" xlink:title="util">
<polygon fill="#a2b4d6" stroke="#404040" points="47.88,-36.75 16.12,-36.75 16.12,-16 47.88,-16 47.88,-36.75"/>
<text text-anchor="middle" x="32" y="-23.25" font-family="Helvetica,sans-Serif" font-size="10.00">util</text>
</a>
</g>
</g>
<!-- dir_f555f996eeee1ebe901dc71e0c5de8ff -->
<g id="node3" class="node">
<title>dir_f555f996eeee1ebe901dc71e0c5de8ff</title>
<g id="a_node3"><a xlink:href="dir_f555f996eeee1ebe901dc71e0c5de8ff.html" target="_top" xlink:title="meta">
<polygon fill="#a2b4d6" stroke="#404040" points="351.75,-36.75 310.25,-36.75 310.25,-16 351.75,-16 351.75,-36.75"/>
<text text-anchor="middle" x="331" y="-23.25" font-family="Helvetica,sans-Serif" font-size="10.00">meta</text>
</a>
</g>
</g>
<!-- dir_0669efae56692bb73da75efb5ebbccdf -->
<g id="node4" class="node">
<title>dir_0669efae56692bb73da75efb5ebbccdf</title>
<g id="a_node4"><a xlink:href="dir_0669efae56692bb73da75efb5ebbccdf.html" target="_top" xlink:title="function">
<polygon fill="#a2b4d6" stroke="red" points="407.88,-93.5 352.12,-93.5 352.12,-72.75 407.88,-72.75 407.88,-93.5"/>
<text text-anchor="middle" x="380" y="-80" font-family="Helvetica,sans-Serif" font-size="10.00">function</text>
</a>
</g>
</g>
<!-- dir_521de572ae4fe2915cc70a876c52f5b7 -->
<g id="node5" class="node">
<title>dir_521de572ae4fe2915cc70a876c52f5b7</title>
<g id="a_node5"><a xlink:href="dir_521de572ae4fe2915cc70a876c52f5b7.html" target="_top" xlink:title="container">
<polygon fill="#a2b4d6" stroke="red" points="431.88,-36.75 370.12,-36.75 370.12,-16 431.88,-16 431.88,-36.75"/>
<text text-anchor="middle" x="401" y="-23.25" font-family="Helvetica,sans-Serif" font-size="10.00">container</text>
</a>
</g>
</g>
<!-- dir_aaf67126bd5deefc4d96704f76f22cc2 -->
<g id="node6" class="node">
<title>dir_aaf67126bd5deefc4d96704f76f22cc2</title>
<g id="a_node6"><a xlink:href="dir_aaf67126bd5deefc4d96704f76f22cc2.html" target="_top" xlink:title="platform">
<polygon fill="#a2b4d6" stroke="#404040" points="508,-36.75 450,-36.75 450,-16 508,-16 508,-36.75"/>
<text text-anchor="middle" x="479" y="-23.25" font-family="Helvetica,sans-Serif" font-size="10.00">platform</text>
</a>
</g>
</g>
<!-- dir_a60d4453151dca6bdd8e5fcc350e379b -->
<g id="node7" class="node">
<title>dir_a60d4453151dca6bdd8e5fcc350e379b</title>
<g id="a_node7"><a xlink:href="dir_a60d4453151dca6bdd8e5fcc350e379b.html" target="_top" xlink:title="assert">
<polygon fill="#a2b4d6" stroke="#404040" points="173,-36.75 127,-36.75 127,-16 173,-16 173,-36.75"/>
<text text-anchor="middle" x="150" y="-23.25" font-family="Helvetica,sans-Serif" font-size="10.00">assert</text>
</a>
</g>
</g>
<!-- dir_942cfae36a92b6b1c4b510e99e852d40 -->
<g id="node8" class="node">
<title>dir_942cfae36a92b6b1c4b510e99e852d40</title>
<g id="a_node8"><a xlink:href="dir_942cfae36a92b6b1c4b510e99e852d40.html" target="_top" xlink:title="vocab">
<polygon fill="#a2b4d6" stroke="red" points="292.62,-36.75 247.38,-36.75 247.38,-16 292.62,-16 292.62,-36.75"/>
<text text-anchor="middle" x="270" y="-23.25" font-family="Helvetica,sans-Serif" font-size="10.00">vocab</text>
</a>
</g>
</g>
<!-- dir_9bfc08b7c5b17d043ebb5b9fbb866539 -->
<g id="node9" class="node">
<title>dir_9bfc08b7c5b17d043ebb5b9fbb866539</title>
<g id="a_node9"><a xlink:href="dir_9bfc08b7c5b17d043ebb5b9fbb866539.html" target="_top" xlink:title="sync">
<polygon fill="#a2b4d6" stroke="red" points="229.25,-36.75 190.75,-36.75 190.75,-16 229.25,-16 229.25,-36.75"/>
<text text-anchor="middle" x="210" y="-23.25" font-family="Helvetica,sans-Serif" font-size="10.00">sync</text>
</a>
</g>
</g>
<!-- dir_e44b40e2f7a090819cf1915a0b103ff1 -->
<g id="node10" class="node">
<title>dir_e44b40e2f7a090819cf1915a0b103ff1</title>
<text text-anchor="middle" x="155" y="-307" font-family="Helvetica,sans-Serif" font-size="10.00">any</text>
</g>
<!-- dir_93a143d10651dfa76952b16fed4fc196 -->
<g id="node11" class="node">
<title>dir_93a143d10651dfa76952b16fed4fc196</title>
<g id="a_node11"><a xlink:href="dir_93a143d10651dfa76952b16fed4fc196.html" target="_top" xlink:title="concepts">
<polygon fill="#a2b4d6" stroke="#404040" points="195.75,-150.25 136.25,-150.25 136.25,-129.5 195.75,-129.5 195.75,-150.25"/>
<text text-anchor="middle" x="166" y="-136.75" font-family="Helvetica,sans-Serif" font-size="10.00">concepts</text>
</a>
</g>
</g>
<!-- dir_e44b40e2f7a090819cf1915a0b103ff1&#45;&gt;dir_93a143d10651dfa76952b16fed4fc196 -->
<g id="edge4" class="edge">
<title>dir_e44b40e2f7a090819cf1915a0b103ff1&#45;&gt;dir_93a143d10651dfa76952b16fed4fc196</title>
<g id="a_edge4"><a xlink:href="dir_000008_000035.html" target="_top">
<path fill="none" stroke="#63b8ff" d="M153.66,-299.76C152.43,-290.61 150.69,-276.25 150,-263.75 148.02,-227.72 155.51,-186.14 160.9,-161.76"/>
<polygon fill="#63b8ff" stroke="#63b8ff" points="164.28,-162.71 163.13,-152.18 157.46,-161.13 164.28,-162.71"/>
</a>
</g>
<g id="a_edge4&#45;headlabel"><a xlink:href="dir_000008_000035.html" target="_top" xlink:title="18">
<text text-anchor="middle" x="166.57" y="-162.26" font-family="Helvetica,sans-Serif" font-size="10.00" fill="#63b8ff">18</text>
</a>
</g>
</g>
<!-- dir_cda844dca1e2e0dccf7b3a760fb23d6e -->
<g id="node12" class="node">
<title>dir_cda844dca1e2e0dccf7b3a760fb23d6e</title>
<g id="a_node12"><a xlink:href="dir_cda844dca1e2e0dccf7b3a760fb23d6e.html" target="_top" xlink:title="container">
<polygon fill="#a2b4d6" stroke="#404040" points="235.88,-263.75 174.12,-263.75 174.12,-243 235.88,-243 235.88,-263.75"/>
<text text-anchor="middle" x="205" y="-250.25" font-family="Helvetica,sans-Serif" font-size="10.00">container</text>
</a>
</g>
</g>
<!-- dir_e44b40e2f7a090819cf1915a0b103ff1&#45;&gt;dir_cda844dca1e2e0dccf7b3a760fb23d6e -->
<g id="edge5" class="edge">
<title>dir_e44b40e2f7a090819cf1915a0b103ff1&#45;&gt;dir_cda844dca1e2e0dccf7b3a760fb23d6e</title>
<g id="a_edge5"><a xlink:href="dir_000008_000045.html" target="_top">
<path fill="none" stroke="#63b8ff" d="M163.26,-300.08C170.15,-292.53 180.19,-281.54 188.69,-272.23"/>
<polygon fill="#63b8ff" stroke="#63b8ff" points="191.05,-274.84 195.21,-265.1 185.88,-270.12 191.05,-274.84"/>
</a>
</g>
<g id="a_edge5&#45;headlabel"><a xlink:href="dir_000008_000045.html" target="_top" xlink:title="1">
<text text-anchor="middle" x="191.74" y="-275.17" font-family="Helvetica,sans-Serif" font-size="10.00" fill="#63b8ff">1</text>
</a>
</g>
</g>
<!-- dir_fe80feb456c9e3616a5524568c0a73c7 -->
<g id="node13" class="node">
<title>dir_fe80feb456c9e3616a5524568c0a73c7</title>
<g id="a_node13"><a xlink:href="dir_fe80feb456c9e3616a5524568c0a73c7.html" target="_top" xlink:title="dispatch">
<polygon fill="#a2b4d6" stroke="#404040" points="335.62,-207 278.38,-207 278.38,-186.25 335.62,-186.25 335.62,-207"/>
<text text-anchor="middle" x="307" y="-193.5" font-family="Helvetica,sans-Serif" font-size="10.00">dispatch</text>
</a>
</g>
</g>
<!-- dir_e44b40e2f7a090819cf1915a0b103ff1&#45;&gt;dir_fe80feb456c9e3616a5524568c0a73c7 -->
<g id="edge7" class="edge">
<title>dir_e44b40e2f7a090819cf1915a0b103ff1&#45;&gt;dir_fe80feb456c9e3616a5524568c0a73c7</title>
<g id="a_edge7"><a xlink:href="dir_000008_000060.html" target="_top">
<path fill="none" stroke="#63b8ff" d="M171.66,-303.86C192.01,-296.89 226.83,-283.17 252,-263.75 269.12,-250.54 284.48,-231.11 294.58,-216.73"/>
<polygon fill="#63b8ff" stroke="#63b8ff" points="297.4,-218.8 300.11,-208.56 291.61,-214.88 297.4,-218.8"/>
</a>
</g>
<g id="a_edge7&#45;headlabel"><a xlink:href="dir_000008_000060.html" target="_top" xlink:title="1">
<text text-anchor="middle" x="298.59" y="-218.99" font-family="Helvetica,sans-Serif" font-size="10.00" fill="#63b8ff">1</text>
</a>
</g>
</g>
<!-- dir_67d9f0ef52e6a8291cee5653a1bfd29e -->
<g id="node14" class="node">
<title>dir_67d9f0ef52e6a8291cee5653a1bfd29e</title>
<g id="a_node14"><a xlink:href="dir_67d9f0ef52e6a8291cee5653a1bfd29e.html" target="_top" xlink:title="meta">
<polygon fill="#a2b4d6" stroke="#404040" points="232.75,-93.5 191.25,-93.5 191.25,-72.75 232.75,-72.75 232.75,-93.5"/>
<text text-anchor="middle" x="212" y="-80" font-family="Helvetica,sans-Serif" font-size="10.00">meta</text>
</a>
</g>
</g>
<!-- dir_e44b40e2f7a090819cf1915a0b103ff1&#45;&gt;dir_67d9f0ef52e6a8291cee5653a1bfd29e -->
<g id="edge3" class="edge">
<title>dir_e44b40e2f7a090819cf1915a0b103ff1&#45;&gt;dir_67d9f0ef52e6a8291cee5653a1bfd29e</title>
<g id="a_edge3"><a xlink:href="dir_000008_000123.html" target="_top">
<path fill="none" stroke="#63b8ff" d="M149.75,-300.12C134.37,-272.41 92.59,-186.88 127,-129.5 133.15,-119.25 158.9,-106.31 180.47,-96.87"/>
<polygon fill="#63b8ff" stroke="#63b8ff" points="181.71,-100.15 189.54,-93.01 178.96,-93.71 181.71,-100.15"/>
</a>
</g>
<g id="a_edge3&#45;headlabel"><a xlink:href="dir_000008_000123.html" target="_top" xlink:title="8">
<text text-anchor="middle" x="180.9" y="-100.45" font-family="Helvetica,sans-Serif" font-size="10.00" fill="#63b8ff">8</text>
</a>
</g>
</g>
<!-- dir_24863a0596479db7df20b0f483688857 -->
<g id="node15" class="node">
<title>dir_24863a0596479db7df20b0f483688857</title>
<g id="a_node15"><a xlink:href="dir_24863a0596479db7df20b0f483688857.html" target="_top" xlink:title="storage">
<polygon fill="#a2b4d6" stroke="#404040" points="173.38,-93.5 120.62,-93.5 120.62,-72.75 173.38,-72.75 173.38,-93.5"/>
<text text-anchor="middle" x="147" y="-80" font-family="Helvetica,sans-Serif" font-size="10.00">storage</text>
</a>
</g>
</g>
<!-- dir_e44b40e2f7a090819cf1915a0b103ff1&#45;&gt;dir_24863a0596479db7df20b0f483688857 -->
<g id="edge2" class="edge">
<title>dir_e44b40e2f7a090819cf1915a0b103ff1&#45;&gt;dir_24863a0596479db7df20b0f483688857</title>
<g id="a_edge2"><a xlink:href="dir_000008_000163.html" target="_top">
<path fill="none" stroke="#63b8ff" d="M138.33,-305.64C118.08,-300.43 84.8,-288.42 70,-263.75 38.9,-211.9 56.6,-178.52 92,-129.5 100.1,-118.28 111.61,-108.21 122.01,-100.42"/>
<polygon fill="#63b8ff" stroke="#63b8ff" points="123.77,-103.47 129.89,-94.82 119.71,-97.76 123.77,-103.47"/>
</a>
</g>
<g id="a_edge2&#45;headlabel"><a xlink:href="dir_000008_000163.html" target="_top" xlink:title="4">
<text text-anchor="middle" x="123.72" y="-103.86" font-family="Helvetica,sans-Serif" font-size="10.00" fill="#63b8ff">4</text>
</a>
</g>
</g>
<!-- dir_d6a825e771e88c34a7e5a1c5f3d40fba -->
<g id="node16" class="node">
<title>dir_d6a825e771e88c34a7e5a1c5f3d40fba</title>
<g id="a_node16"><a xlink:href="dir_d6a825e771e88c34a7e5a1c5f3d40fba.html" target="_top" xlink:title="types">
<polygon fill="#a2b4d6" stroke="#404040" points="293.5,-93.5 250.5,-93.5 250.5,-72.75 293.5,-72.75 293.5,-93.5"/>
<text text-anchor="middle" x="272" y="-80" font-family="Helvetica,sans-Serif" font-size="10.00">types</text>
</a>
</g>
</g>
<!-- dir_e44b40e2f7a090819cf1915a0b103ff1&#45;&gt;dir_d6a825e771e88c34a7e5a1c5f3d40fba -->
<g id="edge6" class="edge">
<title>dir_e44b40e2f7a090819cf1915a0b103ff1&#45;&gt;dir_d6a825e771e88c34a7e5a1c5f3d40fba</title>
<g id="a_edge6"><a xlink:href="dir_000008_000181.html" target="_top">
<path fill="none" stroke="#63b8ff" d="M155.38,-299.9C156.14,-286.9 158.4,-262.58 165,-243 184.27,-185.81 229.99,-129.86 254.98,-102.13"/>
<polygon fill="#63b8ff" stroke="#63b8ff" points="257.38,-104.7 261.57,-94.97 252.22,-99.96 257.38,-104.7"/>
</a>
</g>
<g id="a_edge6&#45;headlabel"><a xlink:href="dir_000008_000181.html" target="_top" xlink:title="7">
<text text-anchor="middle" x="258.06" y="-105.03" font-family="Helvetica,sans-Serif" font-size="10.00" fill="#63b8ff">7</text>
</a>
</g>
</g>
<!-- dir_1955f3f9c14887c1467e6cfea7b00bb3 -->
<g id="node17" class="node">
<title>dir_1955f3f9c14887c1467e6cfea7b00bb3</title>
<g id="a_node17"><a xlink:href="dir_1955f3f9c14887c1467e6cfea7b00bb3.html" target="_top" xlink:title="vtable">
<polygon fill="#a2b4d6" stroke="#404040" points="260.38,-207 213.62,-207 213.62,-186.25 260.38,-186.25 260.38,-207"/>
<text text-anchor="middle" x="237" y="-193.5" font-family="Helvetica,sans-Serif" font-size="10.00">vtable</text>
</a>
</g>
</g>
<!-- dir_e44b40e2f7a090819cf1915a0b103ff1&#45;&gt;dir_1955f3f9c14887c1467e6cfea7b00bb3 -->
<g id="edge1" class="edge">
<title>dir_e44b40e2f7a090819cf1915a0b103ff1&#45;&gt;dir_1955f3f9c14887c1467e6cfea7b00bb3</title>
<g id="a_edge1"><a xlink:href="dir_000008_000194.html" target="_top">
<path fill="none" stroke="#63b8ff" d="M171.87,-306.12C193.2,-301.32 229.04,-289.68 245,-263.75 253.43,-250.06 250.34,-231.73 245.76,-217.84"/>
<polygon fill="#63b8ff" stroke="#63b8ff" points="249.16,-216.93 242.32,-208.83 242.62,-219.42 249.16,-216.93"/>
</a>
</g>
<g id="a_edge1&#45;headlabel"><a xlink:href="dir_000008_000194.html" target="_top" xlink:title="2">
<text text-anchor="middle" x="252.55" y="-214.73" font-family="Helvetica,sans-Serif" font-size="10.00" fill="#63b8ff">2</text>
</a>
</g>
</g>
<!-- dir_93a143d10651dfa76952b16fed4fc196&#45;&gt;dir_30ecaf38acae77be14fb9173f98f8612 -->
<g id="edge10" class="edge">
<title>dir_93a143d10651dfa76952b16fed4fc196&#45;&gt;dir_30ecaf38acae77be14fb9173f98f8612</title>
<g id="a_edge10"><a xlink:href="dir_000035_000184.html" target="_top">
<path fill="none" stroke="#63b8ff" d="M150.39,-129.02C138.45,-120.79 122.34,-108.08 112,-93.5 102.23,-79.72 95.74,-61.63 91.82,-47.86"/>
<polygon fill="#63b8ff" stroke="#63b8ff" points="95.31,-47.35 89.41,-38.55 88.53,-49.11 95.31,-47.35"/>
</a>
</g>
<g id="a_edge10&#45;headlabel"><a xlink:href="dir_000035_000184.html" target="_top" xlink:title="3">
<text text-anchor="middle" x="98.58" y="-45.53" font-family="Helvetica,sans-Serif" font-size="10.00" fill="#63b8ff">3</text>
</a>
</g>
</g>
<!-- dir_93a143d10651dfa76952b16fed4fc196&#45;&gt;dir_4535887b2cdca47e625f259d07db0112 -->
<g id="edge11" class="edge">
<title>dir_93a143d10651dfa76952b16fed4fc196&#45;&gt;dir_4535887b2cdca47e625f259d07db0112</title>
<g id="a_edge11"><a xlink:href="dir_000035_000189.html" target="_top">
<path fill="none" stroke="#63b8ff" d="M147.38,-129.15C132.05,-120.72 110.14,-107.67 93,-93.5 75.59,-79.11 58.38,-59.87 46.71,-45.86"/>
<polygon fill="#63b8ff" stroke="#63b8ff" points="49.56,-43.82 40.53,-38.29 44.14,-48.25 49.56,-43.82"/>
</a>
</g>
<g id="a_edge11&#45;headlabel"><a xlink:href="dir_000035_000189.html" target="_top" xlink:title="6">
<text text-anchor="middle" x="53.08" y="-40.51" font-family="Helvetica,sans-Serif" font-size="10.00" fill="#63b8ff">6</text>
</a>
</g>
</g>
<!-- dir_93a143d10651dfa76952b16fed4fc196&#45;&gt;dir_f555f996eeee1ebe901dc71e0c5de8ff -->
<g id="edge14" class="edge">
<title>dir_93a143d10651dfa76952b16fed4fc196&#45;&gt;dir_f555f996eeee1ebe901dc71e0c5de8ff</title>
<g id="a_edge14"><a xlink:href="dir_000035_000126.html" target="_top">
<path fill="none" stroke="#63b8ff" d="M196.05,-130.35C233.88,-119.41 294.94,-100.93 303,-93.5 316.03,-81.48 323.22,-62.41 327.04,-47.84"/>
<polygon fill="#63b8ff" stroke="#63b8ff" points="330.39,-48.9 329.18,-38.38 323.56,-47.36 330.39,-48.9"/>
</a>
</g>
<g id="a_edge14&#45;headlabel"><a xlink:href="dir_000035_000126.html" target="_top" xlink:title="8">
<text text-anchor="middle" x="332.7" y="-48.43" font-family="Helvetica,sans-Serif" font-size="10.00" fill="#63b8ff">8</text>
</a>
</g>
</g>
<!-- dir_93a143d10651dfa76952b16fed4fc196&#45;&gt;dir_0669efae56692bb73da75efb5ebbccdf -->
<g id="edge8" class="edge">
<title>dir_93a143d10651dfa76952b16fed4fc196&#45;&gt;dir_0669efae56692bb73da75efb5ebbccdf</title>
<g id="a_edge8"><a xlink:href="dir_000035_000083.html" target="_top">
<path fill="none" stroke="#63b8ff" d="M196.02,-130.54C197.37,-130.19 198.7,-129.84 200,-129.5 261.94,-113.43 280.6,-111.23 340.86,-95.37"/>
<polygon fill="#63b8ff" stroke="#63b8ff" points="341.52,-98.82 350.29,-92.87 339.73,-92.05 341.52,-98.82"/>
</a>
</g>
<g id="a_edge8&#45;headlabel"><a xlink:href="dir_000035_000083.html" target="_top" xlink:title="2">
<text text-anchor="middle" x="340.24" y="-98.97" font-family="Helvetica,sans-Serif" font-size="10.00" fill="#63b8ff">2</text>
</a>
</g>
</g>
<!-- dir_93a143d10651dfa76952b16fed4fc196&#45;&gt;dir_67d9f0ef52e6a8291cee5653a1bfd29e -->
<g id="edge12" class="edge">
<title>dir_93a143d10651dfa76952b16fed4fc196&#45;&gt;dir_67d9f0ef52e6a8291cee5653a1bfd29e</title>
<g id="a_edge12"><a xlink:href="dir_000035_000123.html" target="_top">
<path fill="none" stroke="#63b8ff" d="M168.91,-129.09C173.8,-121.53 182.4,-110.89 190.75,-101.85"/>
<polygon fill="#63b8ff" stroke="#63b8ff" points="193.03,-104.52 197.49,-94.91 188.01,-99.64 193.03,-104.52"/>
</a>
</g>
<g id="a_edge12&#45;headlabel"><a xlink:href="dir_000035_000123.html" target="_top" xlink:title="3">
<text text-anchor="middle" x="193.61" y="-104.87" font-family="Helvetica,sans-Serif" font-size="10.00" fill="#63b8ff">3</text>
</a>
</g>
</g>
<!-- dir_93a143d10651dfa76952b16fed4fc196&#45;&gt;dir_24863a0596479db7df20b0f483688857 -->
<g id="edge9" class="edge">
<title>dir_93a143d10651dfa76952b16fed4fc196&#45;&gt;dir_24863a0596479db7df20b0f483688857</title>
<g id="a_edge9"><a xlink:href="dir_000035_000163.html" target="_top">
<path fill="none" stroke="#63b8ff" d="M157.29,-129.09C153.68,-122.39 150.09,-113.26 147.66,-104.98"/>
<polygon fill="#63b8ff" stroke="#63b8ff" points="151.08,-104.25 145.41,-95.3 144.27,-105.84 151.08,-104.25"/>
</a>
</g>
<g id="a_edge9&#45;headlabel"><a xlink:href="dir_000035_000163.html" target="_top" xlink:title="1">
<text text-anchor="middle" x="154.32" y="-102.51" font-family="Helvetica,sans-Serif" font-size="10.00" fill="#63b8ff">1</text>
</a>
</g>
</g>
<!-- dir_93a143d10651dfa76952b16fed4fc196&#45;&gt;dir_d6a825e771e88c34a7e5a1c5f3d40fba -->
<g id="edge13" class="edge">
<title>dir_93a143d10651dfa76952b16fed4fc196&#45;&gt;dir_d6a825e771e88c34a7e5a1c5f3d40fba</title>
<g id="a_edge13"><a xlink:href="dir_000035_000181.html" target="_top">
<path fill="none" stroke="#63b8ff" d="M184.95,-129.09C201.08,-120.76 224.5,-108.66 242.99,-99.11"/>
<polygon fill="#63b8ff" stroke="#63b8ff" points="244.59,-102.22 251.87,-94.52 241.38,-96 244.59,-102.22"/>
</a>
</g>
<g id="a_edge13&#45;headlabel"><a xlink:href="dir_000035_000181.html" target="_top" xlink:title="4">
<text text-anchor="middle" x="244.04" y="-102.57" font-family="Helvetica,sans-Serif" font-size="10.00" fill="#63b8ff">4</text>
</a>
</g>
</g>
<!-- dir_cda844dca1e2e0dccf7b3a760fb23d6e&#45;&gt;dir_4535887b2cdca47e625f259d07db0112 -->
<g id="edge18" class="edge">
<title>dir_cda844dca1e2e0dccf7b3a760fb23d6e&#45;&gt;dir_4535887b2cdca47e625f259d07db0112</title>
<g id="a_edge18"><a xlink:href="dir_000045_000189.html" target="_top">
<path fill="none" stroke="#63b8ff" d="M173.91,-242.69C134.76,-228.81 68.46,-199.36 34,-150.25 12.73,-119.95 19.38,-74.27 25.87,-47.98"/>
<polygon fill="#63b8ff" stroke="#63b8ff" points="29.18,-49.12 28.43,-38.55 22.43,-47.29 29.18,-49.12"/>
</a>
</g>
<g id="a_edge18&#45;headlabel"><a xlink:href="dir_000045_000189.html" target="_top" xlink:title="5">
<text text-anchor="middle" x="31.38" y="-48.75" font-family="Helvetica,sans-Serif" font-size="10.00" fill="#63b8ff">5</text>
</a>
</g>
</g>
<!-- dir_cda844dca1e2e0dccf7b3a760fb23d6e&#45;&gt;dir_f555f996eeee1ebe901dc71e0c5de8ff -->
<g id="edge24" class="edge">
<title>dir_cda844dca1e2e0dccf7b3a760fb23d6e&#45;&gt;dir_f555f996eeee1ebe901dc71e0c5de8ff</title>
<g id="a_edge24"><a xlink:href="dir_000045_000126.html" target="_top">
<path fill="none" stroke="#63b8ff" d="M236.3,-249.75C269.37,-245.56 321.53,-234.74 357,-207 403.14,-170.91 408.57,-150.01 424,-93.5 427.37,-81.17 431.16,-75.34 424,-64.75 420.31,-59.29 388.39,-47.19 362.96,-38.23"/>
<polygon fill="#63b8ff" stroke="#63b8ff" points="364.23,-34.97 353.64,-34.99 361.93,-41.58 364.23,-34.97"/>
</a>
</g>
<g id="a_edge24&#45;headlabel"><a xlink:href="dir_000045_000126.html" target="_top" xlink:title="3">
<text text-anchor="middle" x="367.13" y="-29.85" font-family="Helvetica,sans-Serif" font-size="10.00" fill="#63b8ff">3</text>
</a>
</g>
</g>
<!-- dir_cda844dca1e2e0dccf7b3a760fb23d6e&#45;&gt;dir_0669efae56692bb73da75efb5ebbccdf -->
<g id="edge15" class="edge">
<title>dir_cda844dca1e2e0dccf7b3a760fb23d6e&#45;&gt;dir_0669efae56692bb73da75efb5ebbccdf</title>
<g id="a_edge15"><a xlink:href="dir_000045_000083.html" target="_top">
<path fill="none" stroke="#63b8ff" d="M236.29,-249.71C267.42,-245.51 314.77,-234.71 345,-207 373.65,-180.73 379.48,-132.85 380.3,-105.25"/>
<polygon fill="#63b8ff" stroke="#63b8ff" points="383.8,-105.37 380.38,-95.34 376.8,-105.32 383.8,-105.37"/>
</a>
</g>
<g id="a_edge15&#45;headlabel"><a xlink:href="dir_000045_000083.html" target="_top" xlink:title="1">
<text text-anchor="middle" x="386.62" y="-104.35" font-family="Helvetica,sans-Serif" font-size="10.00" fill="#63b8ff">1</text>
</a>
</g>
</g>
<!-- dir_cda844dca1e2e0dccf7b3a760fb23d6e&#45;&gt;dir_521de572ae4fe2915cc70a876c52f5b7 -->
<g id="edge19" class="edge">
<title>dir_cda844dca1e2e0dccf7b3a760fb23d6e&#45;&gt;dir_521de572ae4fe2915cc70a876c52f5b7</title>
<g id="a_edge19"><a xlink:href="dir_000045_000046.html" target="_top">
<path fill="none" stroke="#63b8ff" d="M236.1,-250.2C271.94,-246.37 331.24,-235.85 373,-207 419.61,-174.8 422.79,-149.55 431,-93.5 432.85,-80.86 435.24,-76.8 431,-64.75 428.5,-57.64 424.01,-50.89 419.26,-45.12"/>
<polygon fill="#63b8ff" stroke="#63b8ff" points="422.17,-43.11 412.84,-38.09 417,-47.83 422.17,-43.11"/>
</a>
</g>
<g id="a_edge19&#45;headlabel"><a xlink:href="dir_000045_000046.html" target="_top" xlink:title="3">
<text text-anchor="middle" x="425.67" y="-39.61" font-family="Helvetica,sans-Serif" font-size="10.00" fill="#63b8ff">3</text>
</a>
</g>
</g>
<!-- dir_cda844dca1e2e0dccf7b3a760fb23d6e&#45;&gt;dir_aaf67126bd5deefc4d96704f76f22cc2 -->
<g id="edge22" class="edge">
<title>dir_cda844dca1e2e0dccf7b3a760fb23d6e&#45;&gt;dir_aaf67126bd5deefc4d96704f76f22cc2</title>
<g id="a_edge22"><a xlink:href="dir_000045_000139.html" target="_top">
<path fill="none" stroke="#63b8ff" d="M236.35,-251.57C275.65,-249.13 343.47,-240 390,-207 444.45,-168.39 467.27,-86.82 475.29,-48.32"/>
<polygon fill="#63b8ff" stroke="#63b8ff" points="478.68,-49.22 477.14,-38.73 471.81,-47.89 478.68,-49.22"/>
</a>
</g>
<g id="a_edge22&#45;headlabel"><a xlink:href="dir_000045_000139.html" target="_top" xlink:title="3">
<text text-anchor="middle" x="481.07" y="-48.67" font-family="Helvetica,sans-Serif" font-size="10.00" fill="#63b8ff">3</text>
</a>
</g>
</g>
<!-- dir_cda844dca1e2e0dccf7b3a760fb23d6e&#45;&gt;dir_93a143d10651dfa76952b16fed4fc196 -->
<g id="edge21" class="edge">
<title>dir_cda844dca1e2e0dccf7b3a760fb23d6e&#45;&gt;dir_93a143d10651dfa76952b16fed4fc196</title>
<g id="a_edge21"><a xlink:href="dir_000045_000035.html" target="_top">
<path fill="none" stroke="#63b8ff" d="M194.66,-242.67C186.36,-234.15 175.24,-220.97 170,-207 164.61,-192.64 163.76,-175.29 164.17,-161.97"/>
<polygon fill="#63b8ff" stroke="#63b8ff" points="167.65,-162.36 164.76,-152.17 160.66,-161.94 167.65,-162.36"/>
</a>
</g>
<g id="a_edge21&#45;headlabel"><a xlink:href="dir_000045_000035.html" target="_top" xlink:title="1">
<text text-anchor="middle" x="170.36" y="-161.48" font-family="Helvetica,sans-Serif" font-size="10.00" fill="#63b8ff">1</text>
</a>
</g>
</g>
<!-- dir_cda844dca1e2e0dccf7b3a760fb23d6e&#45;&gt;dir_67d9f0ef52e6a8291cee5653a1bfd29e -->
<g id="edge20" class="edge">
<title>dir_cda844dca1e2e0dccf7b3a760fb23d6e&#45;&gt;dir_67d9f0ef52e6a8291cee5653a1bfd29e</title>
<g id="a_edge20"><a xlink:href="dir_000045_000123.html" target="_top">
<path fill="none" stroke="#63b8ff" d="M200.72,-242.51C197.05,-233.47 192.03,-219.61 190,-207 188.53,-197.9 188.19,-195.29 190,-186.25 193.4,-169.25 200.71,-167.04 205,-150.25 208.81,-135.33 210.55,-118.01 211.34,-104.84"/>
<polygon fill="#63b8ff" stroke="#63b8ff" points="214.82,-105.35 211.78,-95.21 207.83,-105.04 214.82,-105.35"/>
</a>
</g>
<g id="a_edge20&#45;headlabel"><a xlink:href="dir_000045_000123.html" target="_top" xlink:title="1">
<text text-anchor="middle" x="217.57" y="-104.44" font-family="Helvetica,sans-Serif" font-size="10.00" fill="#63b8ff">1</text>
</a>
</g>
</g>
<!-- dir_cda844dca1e2e0dccf7b3a760fb23d6e&#45;&gt;dir_24863a0596479db7df20b0f483688857 -->
<g id="edge17" class="edge">
<title>dir_cda844dca1e2e0dccf7b3a760fb23d6e&#45;&gt;dir_24863a0596479db7df20b0f483688857</title>
<g id="a_edge17"><a xlink:href="dir_000045_000163.html" target="_top">
<path fill="none" stroke="#63b8ff" d="M193.18,-242.61C174.23,-226.03 138.06,-190.24 127,-150.25 122.65,-134.54 128.56,-116.87 135.06,-103.75"/>
<polygon fill="#63b8ff" stroke="#63b8ff" points="137.97,-105.72 139.72,-95.27 131.84,-102.35 137.97,-105.72"/>
</a>
</g>
<g id="a_edge17&#45;headlabel"><a xlink:href="dir_000045_000163.html" target="_top" xlink:title="2">
<text text-anchor="middle" x="139.46" y="-105.78" font-family="Helvetica,sans-Serif" font-size="10.00" fill="#63b8ff">2</text>
</a>
</g>
</g>
<!-- dir_cda844dca1e2e0dccf7b3a760fb23d6e&#45;&gt;dir_d6a825e771e88c34a7e5a1c5f3d40fba -->
<g id="edge23" class="edge">
<title>dir_cda844dca1e2e0dccf7b3a760fb23d6e&#45;&gt;dir_d6a825e771e88c34a7e5a1c5f3d40fba</title>
<g id="a_edge23"><a xlink:href="dir_000045_000181.html" target="_top">
<path fill="none" stroke="#63b8ff" d="M202.77,-242.52C200.25,-229.2 197.4,-204.97 205,-186.25 213.39,-165.57 227.2,-168.53 240,-150.25 250.07,-135.87 258.57,-117.83 264.27,-104.23"/>
<polygon fill="#63b8ff" stroke="#63b8ff" points="267.48,-105.61 267.96,-95.03 260.99,-103 267.48,-105.61"/>
</a>
</g>
<g id="a_edge23&#45;headlabel"><a xlink:href="dir_000045_000181.html" target="_top" xlink:title="1">
<text text-anchor="middle" x="269.34" y="-105.47" font-family="Helvetica,sans-Serif" font-size="10.00" fill="#63b8ff">1</text>
</a>
</g>
</g>
<!-- dir_cda844dca1e2e0dccf7b3a760fb23d6e&#45;&gt;dir_1955f3f9c14887c1467e6cfea7b00bb3 -->
<g id="edge16" class="edge">
<title>dir_cda844dca1e2e0dccf7b3a760fb23d6e&#45;&gt;dir_1955f3f9c14887c1467e6cfea7b00bb3</title>
<g id="a_edge16"><a xlink:href="dir_000045_000194.html" target="_top">
<path fill="none" stroke="#63b8ff" d="M210.72,-242.59C214.86,-235.5 220.6,-225.69 225.65,-217.04"/>
<polygon fill="#63b8ff" stroke="#63b8ff" points="228.54,-219.03 230.56,-208.64 222.5,-215.5 228.54,-219.03"/>
</a>
</g>
<g id="a_edge16&#45;headlabel"><a xlink:href="dir_000045_000194.html" target="_top" xlink:title="1">
<text text-anchor="middle" x="229.94" y="-219.14" font-family="Helvetica,sans-Serif" font-size="10.00" fill="#63b8ff">1</text>
</a>
</g>
</g>
<!-- dir_fe80feb456c9e3616a5524568c0a73c7&#45;&gt;dir_4535887b2cdca47e625f259d07db0112 -->
<g id="edge26" class="edge">
<title>dir_fe80feb456c9e3616a5524568c0a73c7&#45;&gt;dir_4535887b2cdca47e625f259d07db0112</title>
<g id="a_edge26"><a xlink:href="dir_000060_000189.html" target="_top">
<path fill="none" stroke="#63b8ff" d="M278.01,-188.41C227.54,-175.83 128.7,-151.14 127,-150.25 93.03,-132.46 84.89,-124.27 62,-93.5 51.64,-79.57 43.75,-61.5 38.66,-47.77"/>
<polygon fill="#63b8ff" stroke="#63b8ff" points="42.02,-46.76 35.43,-38.47 35.41,-49.06 42.02,-46.76"/>
</a>
</g>
<g id="a_edge26&#45;headlabel"><a xlink:href="dir_000060_000189.html" target="_top" xlink:title="1">
<text text-anchor="middle" x="45.38" y="-44.67" font-family="Helvetica,sans-Serif" font-size="10.00" fill="#63b8ff">1</text>
</a>
</g>
</g>
<!-- dir_fe80feb456c9e3616a5524568c0a73c7&#45;&gt;dir_f555f996eeee1ebe901dc71e0c5de8ff -->
<g id="edge28" class="edge">
<title>dir_fe80feb456c9e3616a5524568c0a73c7&#45;&gt;dir_f555f996eeee1ebe901dc71e0c5de8ff</title>
<g id="a_edge28"><a xlink:href="dir_000060_000126.html" target="_top">
<path fill="none" stroke="#63b8ff" d="M325.62,-185.87C352.51,-170.5 400.78,-137.79 417,-93.5 421.39,-81.5 424.01,-75.44 417,-64.75 413.71,-59.73 385.61,-48.07 362.42,-39.1"/>
<polygon fill="#63b8ff" stroke="#63b8ff" points="363.89,-35.91 353.3,-35.62 361.39,-42.45 363.89,-35.91"/>
</a>
</g>
<g id="a_edge28&#45;headlabel"><a xlink:href="dir_000060_000126.html" target="_top" xlink:title="3">
<text text-anchor="middle" x="366.85" y="-30.88" font-family="Helvetica,sans-Serif" font-size="10.00" fill="#63b8ff">3</text>
</a>
</g>
</g>
<!-- dir_fe80feb456c9e3616a5524568c0a73c7&#45;&gt;dir_0669efae56692bb73da75efb5ebbccdf -->
<g id="edge25" class="edge">
<title>dir_fe80feb456c9e3616a5524568c0a73c7&#45;&gt;dir_0669efae56692bb73da75efb5ebbccdf</title>
<g id="a_edge25"><a xlink:href="dir_000060_000083.html" target="_top">
<path fill="none" stroke="#63b8ff" d="M322.59,-185.89C334.46,-177.74 350.33,-165.06 360,-150.25 368.93,-136.56 374.02,-118.71 376.83,-105"/>
<polygon fill="#63b8ff" stroke="#63b8ff" points="380.25,-105.77 378.55,-95.31 373.36,-104.55 380.25,-105.77"/>
</a>
</g>
<g id="a_edge25&#45;headlabel"><a xlink:href="dir_000060_000083.html" target="_top" xlink:title="2">
<text text-anchor="middle" x="382.68" y="-105.19" font-family="Helvetica,sans-Serif" font-size="10.00" fill="#63b8ff">2</text>
</a>
</g>
</g>
<!-- dir_fe80feb456c9e3616a5524568c0a73c7&#45;&gt;dir_d6a825e771e88c34a7e5a1c5f3d40fba -->
<g id="edge27" class="edge">
<title>dir_fe80feb456c9e3616a5524568c0a73c7&#45;&gt;dir_d6a825e771e88c34a7e5a1c5f3d40fba</title>
<g id="a_edge27"><a xlink:href="dir_000060_000181.html" target="_top">
<path fill="none" stroke="#63b8ff" d="M304.02,-186.12C298.39,-168.19 286.09,-129 278.48,-104.76"/>
<polygon fill="#63b8ff" stroke="#63b8ff" points="281.86,-103.86 275.53,-95.37 275.19,-105.96 281.86,-103.86"/>
</a>
</g>
<g id="a_edge27&#45;headlabel"><a xlink:href="dir_000060_000181.html" target="_top" xlink:title="1">
<text text-anchor="middle" x="285.2" y="-101.87" font-family="Helvetica,sans-Serif" font-size="10.00" fill="#63b8ff">1</text>
</a>
</g>
</g>
<!-- dir_67d9f0ef52e6a8291cee5653a1bfd29e&#45;&gt;dir_f555f996eeee1ebe901dc71e0c5de8ff -->
<g id="edge30" class="edge">
<title>dir_67d9f0ef52e6a8291cee5653a1bfd29e&#45;&gt;dir_f555f996eeee1ebe901dc71e0c5de8ff</title>
<g id="a_edge30"><a xlink:href="dir_000123_000126.html" target="_top">
<path fill="none" stroke="#63b8ff" d="M227.99,-72.36C232.46,-69.77 237.36,-67.05 242,-64.75 260.59,-55.51 282.03,-46.46 299.2,-39.58"/>
<polygon fill="#63b8ff" stroke="#63b8ff" points="300.38,-42.88 308.39,-35.95 297.81,-36.37 300.38,-42.88"/>
</a>
</g>
<g id="a_edge30&#45;headlabel"><a xlink:href="dir_000123_000126.html" target="_top" xlink:title="4">
<text text-anchor="middle" x="299.49" y="-43.16" font-family="Helvetica,sans-Serif" font-size="10.00" fill="#63b8ff">4</text>
</a>
</g>
</g>
<!-- dir_67d9f0ef52e6a8291cee5653a1bfd29e&#45;&gt;dir_93a143d10651dfa76952b16fed4fc196 -->
<g id="edge29" class="edge">
<title>dir_67d9f0ef52e6a8291cee5653a1bfd29e&#45;&gt;dir_93a143d10651dfa76952b16fed4fc196</title>
<g id="a_edge29"><a xlink:href="dir_000123_000035.html" target="_top">
<path fill="none" stroke="#63b8ff" d="M209.15,-93.83C204.28,-101.36 195.7,-112 187.35,-121.05"/>
<polygon fill="#63b8ff" stroke="#63b8ff" points="185.05,-118.39 180.59,-128 190.07,-123.27 185.05,-118.39"/>
</a>
</g>
<g id="a_edge29&#45;headlabel"><a xlink:href="dir_000123_000035.html" target="_top" xlink:title="4">
<text text-anchor="middle" x="184.47" y="-111.79" font-family="Helvetica,sans-Serif" font-size="10.00" fill="#63b8ff">4</text>
</a>
</g>
</g>
<!-- dir_24863a0596479db7df20b0f483688857&#45;&gt;dir_30ecaf38acae77be14fb9173f98f8612 -->
<g id="edge31" class="edge">
<title>dir_24863a0596479db7df20b0f483688857&#45;&gt;dir_30ecaf38acae77be14fb9173f98f8612</title>
<g id="a_edge31"><a xlink:href="dir_000163_000184.html" target="_top">
<path fill="none" stroke="#63b8ff" d="M136.27,-72.34C127.91,-64.71 116.09,-53.92 106.12,-44.82"/>
<polygon fill="#63b8ff" stroke="#63b8ff" points="108.5,-42.25 98.75,-38.1 103.78,-47.42 108.5,-42.25"/>
</a>
</g>
<g id="a_edge31&#45;headlabel"><a xlink:href="dir_000163_000184.html" target="_top" xlink:title="5">
<text text-anchor="middle" x="111.95" y="-38.43" font-family="Helvetica,sans-Serif" font-size="10.00" fill="#63b8ff">5</text>
</a>
</g>
</g>
<!-- dir_24863a0596479db7df20b0f483688857&#45;&gt;dir_4535887b2cdca47e625f259d07db0112 -->
<g id="edge32" class="edge">
<title>dir_24863a0596479db7df20b0f483688857&#45;&gt;dir_4535887b2cdca47e625f259d07db0112</title>
<g id="a_edge32"><a xlink:href="dir_000163_000189.html" target="_top">
<path fill="none" stroke="#63b8ff" d="M130.99,-72.41C126.52,-69.82 121.62,-67.09 117,-64.75 97.78,-55 75.45,-45.23 58.5,-38.14"/>
<polygon fill="#63b8ff" stroke="#63b8ff" points="60.2,-35.05 49.62,-34.46 57.52,-41.52 60.2,-35.05"/>
</a>
</g>
<g id="a_edge32&#45;headlabel"><a xlink:href="dir_000163_000189.html" target="_top" xlink:title="24">
<text text-anchor="middle" x="63.21" y="-30.1" font-family="Helvetica,sans-Serif" font-size="10.00" fill="#63b8ff">24</text>
</a>
</g>
</g>
<!-- dir_24863a0596479db7df20b0f483688857&#45;&gt;dir_f555f996eeee1ebe901dc71e0c5de8ff -->
<g id="edge39" class="edge">
<title>dir_24863a0596479db7df20b0f483688857&#45;&gt;dir_f555f996eeee1ebe901dc71e0c5de8ff</title>
<g id="a_edge39"><a xlink:href="dir_000163_000126.html" target="_top">
<path fill="none" stroke="#63b8ff" d="M164.82,-72.29C170.22,-69.58 176.25,-66.81 182,-64.75 230.32,-47.39 247.13,-50.85 298.98,-37.37"/>
<polygon fill="#63b8ff" stroke="#63b8ff" points="299.64,-40.82 308.38,-34.84 297.81,-34.07 299.64,-40.82"/>
</a>
</g>
<g id="a_edge39&#45;headlabel"><a xlink:href="dir_000163_000126.html" target="_top" xlink:title="18">
<text text-anchor="middle" x="298.37" y="-40.98" font-family="Helvetica,sans-Serif" font-size="10.00" fill="#63b8ff">18</text>
</a>
</g>
</g>
<!-- dir_24863a0596479db7df20b0f483688857&#45;&gt;dir_521de572ae4fe2915cc70a876c52f5b7 -->
<g id="edge33" class="edge">
<title>dir_24863a0596479db7df20b0f483688857&#45;&gt;dir_521de572ae4fe2915cc70a876c52f5b7</title>
<g id="a_edge33"><a xlink:href="dir_000163_000046.html" target="_top">
<path fill="none" stroke="#63b8ff" d="M164.01,-72.38C169.59,-69.54 175.92,-66.68 182,-64.75 255.44,-41.39 279.87,-51.22 359.04,-36.95"/>
<polygon fill="#63b8ff" stroke="#63b8ff" points="359.37,-40.44 368.55,-35.15 358.08,-33.57 359.37,-40.44"/>
</a>
</g>
<g id="a_edge33&#45;headlabel"><a xlink:href="dir_000163_000046.html" target="_top" xlink:title="14">
<text text-anchor="middle" x="357.86" y="-40.5" font-family="Helvetica,sans-Serif" font-size="10.00" fill="#63b8ff">14</text>
</a>
</g>
</g>
<!-- dir_24863a0596479db7df20b0f483688857&#45;&gt;dir_aaf67126bd5deefc4d96704f76f22cc2 -->
<g id="edge38" class="edge">
<title>dir_24863a0596479db7df20b0f483688857&#45;&gt;dir_aaf67126bd5deefc4d96704f76f22cc2</title>
<g id="a_edge38"><a xlink:href="dir_000163_000139.html" target="_top">
<path fill="none" stroke="#63b8ff" d="M163.6,-72.39C169.26,-69.48 175.75,-66.58 182,-64.75 289.66,-33.3 324.79,-55.4 438.38,-36.95"/>
<polygon fill="#63b8ff" stroke="#63b8ff" points="438.86,-40.42 448.13,-35.29 437.69,-33.52 438.86,-40.42"/>
</a>
</g>
<g id="a_edge38&#45;headlabel"><a xlink:href="dir_000163_000139.html" target="_top" xlink:title="3">
<text text-anchor="middle" x="437.29" y="-40.44" font-family="Helvetica,sans-Serif" font-size="10.00" fill="#63b8ff">3</text>
</a>
</g>
</g>
<!-- dir_24863a0596479db7df20b0f483688857&#45;&gt;dir_a60d4453151dca6bdd8e5fcc350e379b -->
<g id="edge37" class="edge">
<title>dir_24863a0596479db7df20b0f483688857&#45;&gt;dir_a60d4453151dca6bdd8e5fcc350e379b</title>
<g id="a_edge37"><a xlink:href="dir_000163_000018.html" target="_top">
<path fill="none" stroke="#63b8ff" d="M147.54,-72.34C147.9,-65.72 148.39,-56.72 148.84,-48.52"/>
<polygon fill="#63b8ff" stroke="#63b8ff" points="152.33,-48.77 149.39,-38.59 145.34,-48.38 152.33,-48.77"/>
</a>
</g>
<g id="a_edge37&#45;headlabel"><a xlink:href="dir_000163_000018.html" target="_top" xlink:title="1">
<text text-anchor="middle" x="155.05" y="-47.87" font-family="Helvetica,sans-Serif" font-size="10.00" fill="#63b8ff">1</text>
</a>
</g>
</g>
<!-- dir_24863a0596479db7df20b0f483688857&#45;&gt;dir_942cfae36a92b6b1c4b510e99e852d40 -->
<g id="edge35" class="edge">
<title>dir_24863a0596479db7df20b0f483688857&#45;&gt;dir_942cfae36a92b6b1c4b510e99e852d40</title>
<g id="a_edge35"><a xlink:href="dir_000163_000193.html" target="_top">
<path fill="none" stroke="#63b8ff" d="M166.16,-72.36C171.28,-69.82 176.82,-67.13 182,-64.75 199.94,-56.5 220.2,-47.85 236.76,-40.95"/>
<polygon fill="#63b8ff" stroke="#63b8ff" points="237.75,-44.33 245.65,-37.27 235.07,-37.86 237.75,-44.33"/>
</a>
</g>
<g id="a_edge35&#45;headlabel"><a xlink:href="dir_000163_000193.html" target="_top" xlink:title="6">
<text text-anchor="middle" x="236.91" y="-44.62" font-family="Helvetica,sans-Serif" font-size="10.00" fill="#63b8ff">6</text>
</a>
</g>
</g>
<!-- dir_24863a0596479db7df20b0f483688857&#45;&gt;dir_9bfc08b7c5b17d043ebb5b9fbb866539 -->
<g id="edge36" class="edge">
<title>dir_24863a0596479db7df20b0f483688857&#45;&gt;dir_9bfc08b7c5b17d043ebb5b9fbb866539</title>
<g id="a_edge36"><a xlink:href="dir_000163_000166.html" target="_top">
<path fill="none" stroke="#63b8ff" d="M158.26,-72.34C167.13,-64.63 179.71,-53.7 190.25,-44.54"/>
<polygon fill="#63b8ff" stroke="#63b8ff" points="192.44,-47.27 197.69,-38.07 187.85,-41.99 192.44,-47.27"/>
</a>
</g>
<g id="a_edge36&#45;headlabel"><a xlink:href="dir_000163_000166.html" target="_top" xlink:title="1">
<text text-anchor="middle" x="192.73" y="-47.66" font-family="Helvetica,sans-Serif" font-size="10.00" fill="#63b8ff">1</text>
</a>
</g>
</g>
<!-- dir_24863a0596479db7df20b0f483688857&#45;&gt;dir_93a143d10651dfa76952b16fed4fc196 -->
<g id="edge34" class="edge">
<title>dir_24863a0596479db7df20b0f483688857&#45;&gt;dir_93a143d10651dfa76952b16fed4fc196</title>
<g id="a_edge34"><a xlink:href="dir_000163_000035.html" target="_top">
<path fill="none" stroke="#63b8ff" d="M155.67,-93.83C159.28,-100.5 162.87,-109.63 165.31,-117.92"/>
<polygon fill="#63b8ff" stroke="#63b8ff" points="161.89,-118.67 167.57,-127.61 168.71,-117.08 161.89,-118.67"/>
</a>
</g>
<g id="a_edge34&#45;headlabel"><a xlink:href="dir_000163_000035.html" target="_top" xlink:title="5">
<text text-anchor="middle" x="158.65" y="-114.17" font-family="Helvetica,sans-Serif" font-size="10.00" fill="#63b8ff">5</text>
</a>
</g>
</g>
<!-- dir_d6a825e771e88c34a7e5a1c5f3d40fba&#45;&gt;dir_f555f996eeee1ebe901dc71e0c5de8ff -->
<g id="edge40" class="edge">
<title>dir_d6a825e771e88c34a7e5a1c5f3d40fba&#45;&gt;dir_f555f996eeee1ebe901dc71e0c5de8ff</title>
<g id="a_edge40"><a xlink:href="dir_000181_000126.html" target="_top">
<path fill="none" stroke="#63b8ff" d="M282.55,-72.34C290.77,-64.71 302.4,-53.92 312.2,-44.82"/>
<polygon fill="#63b8ff" stroke="#63b8ff" points="314.48,-47.48 319.43,-38.11 309.72,-42.34 314.48,-47.48"/>
</a>
</g>
<g id="a_edge40&#45;headlabel"><a xlink:href="dir_000181_000126.html" target="_top" xlink:title="1">
<text text-anchor="middle" x="314.89" y="-47.85" font-family="Helvetica,sans-Serif" font-size="10.00" fill="#63b8ff">1</text>
</a>
</g>
</g>
<!-- dir_1955f3f9c14887c1467e6cfea7b00bb3&#45;&gt;dir_4535887b2cdca47e625f259d07db0112 -->
<g id="edge42" class="edge">
<title>dir_1955f3f9c14887c1467e6cfea7b00bb3&#45;&gt;dir_4535887b2cdca47e625f259d07db0112</title>
<g id="a_edge42"><a xlink:href="dir_000194_000189.html" target="_top">
<path fill="none" stroke="#63b8ff" d="M213.19,-187.2C212.12,-186.87 211.05,-186.55 210,-186.25 140.77,-166.41 101.31,-202.75 52,-150.25 26.2,-122.78 26.27,-75.72 28.93,-48.5"/>
<polygon fill="#63b8ff" stroke="#63b8ff" points="32.39,-49.07 30.12,-38.72 25.44,-48.23 32.39,-49.07"/>
</a>
</g>
<g id="a_edge42&#45;headlabel"><a xlink:href="dir_000194_000189.html" target="_top" xlink:title="3">
<text text-anchor="middle" x="34.96" y="-48.36" font-family="Helvetica,sans-Serif" font-size="10.00" fill="#63b8ff">3</text>
</a>
</g>
</g>
<!-- dir_1955f3f9c14887c1467e6cfea7b00bb3&#45;&gt;dir_f555f996eeee1ebe901dc71e0c5de8ff -->
<g id="edge46" class="edge">
<title>dir_1955f3f9c14887c1467e6cfea7b00bb3&#45;&gt;dir_f555f996eeee1ebe901dc71e0c5de8ff</title>
<g id="a_edge46"><a xlink:href="dir_000194_000126.html" target="_top">
<path fill="none" stroke="#63b8ff" d="M260.77,-188.72C284.6,-181.22 321.85,-167.9 351,-150.25 384.09,-130.21 400.86,-128.66 417,-93.5 422.33,-81.89 424.01,-75.44 417,-64.75 413.71,-59.73 385.61,-48.07 362.42,-39.1"/>
<polygon fill="#63b8ff" stroke="#63b8ff" points="363.89,-35.91 353.3,-35.62 361.39,-42.45 363.89,-35.91"/>
</a>
</g>
<g id="a_edge46&#45;headlabel"><a xlink:href="dir_000194_000126.html" target="_top" xlink:title="4">
<text text-anchor="middle" x="366.85" y="-30.88" font-family="Helvetica,sans-Serif" font-size="10.00" fill="#63b8ff">4</text>
</a>
</g>
</g>
<!-- dir_1955f3f9c14887c1467e6cfea7b00bb3&#45;&gt;dir_0669efae56692bb73da75efb5ebbccdf -->
<g id="edge41" class="edge">
<title>dir_1955f3f9c14887c1467e6cfea7b00bb3&#45;&gt;dir_0669efae56692bb73da75efb5ebbccdf</title>
<g id="a_edge41"><a xlink:href="dir_000194_000083.html" target="_top">
<path fill="none" stroke="#63b8ff" d="M260.73,-186.8C286.58,-176.86 325.86,-160.76 338,-150.25 352.6,-137.61 363.93,-118.64 371.12,-104.26"/>
<polygon fill="#63b8ff" stroke="#63b8ff" points="374.25,-105.82 375.34,-95.28 367.92,-102.84 374.25,-105.82"/>
</a>
</g>
<g id="a_edge41&#45;headlabel"><a xlink:href="dir_000194_000083.html" target="_top" xlink:title="1">
<text text-anchor="middle" x="375.94" y="-105.79" font-family="Helvetica,sans-Serif" font-size="10.00" fill="#63b8ff">1</text>
</a>
</g>
</g>
<!-- dir_1955f3f9c14887c1467e6cfea7b00bb3&#45;&gt;dir_942cfae36a92b6b1c4b510e99e852d40 -->
<g id="edge45" class="edge">
<title>dir_1955f3f9c14887c1467e6cfea7b00bb3&#45;&gt;dir_942cfae36a92b6b1c4b510e99e852d40</title>
<g id="a_edge45"><a xlink:href="dir_000194_000193.html" target="_top">
<path fill="none" stroke="#63b8ff" d="M246.12,-185.89C261.44,-168.8 291.77,-131.57 303,-93.5 306.62,-81.24 307.52,-76.7 303,-64.75 300.27,-57.52 295.43,-50.79 290.28,-45.09"/>
<polygon fill="#63b8ff" stroke="#63b8ff" points="292.84,-42.7 283.28,-38.12 287.9,-47.66 292.84,-42.7"/>
</a>
</g>
<g id="a_edge45&#45;headlabel"><a xlink:href="dir_000194_000193.html" target="_top" xlink:title="2">
<text text-anchor="middle" x="296.32" y="-39.03" font-family="Helvetica,sans-Serif" font-size="10.00" fill="#63b8ff">2</text>
</a>
</g>
</g>
<!-- dir_1955f3f9c14887c1467e6cfea7b00bb3&#45;&gt;dir_93a143d10651dfa76952b16fed4fc196 -->
<g id="edge44" class="edge">
<title>dir_1955f3f9c14887c1467e6cfea7b00bb3&#45;&gt;dir_93a143d10651dfa76952b16fed4fc196</title>
<g id="a_edge44"><a xlink:href="dir_000194_000035.html" target="_top">
<path fill="none" stroke="#63b8ff" d="M224.31,-185.84C214.11,-177.97 199.56,-166.75 187.54,-157.49"/>
<polygon fill="#63b8ff" stroke="#63b8ff" points="189.84,-154.84 179.78,-151.5 185.56,-160.38 189.84,-154.84"/>
</a>
</g>
<g id="a_edge44&#45;headlabel"><a xlink:href="dir_000194_000035.html" target="_top" xlink:title="7">
<text text-anchor="middle" x="193.22" y="-150.74" font-family="Helvetica,sans-Serif" font-size="10.00" fill="#63b8ff">7</text>
</a>
</g>
</g>
<!-- dir_1955f3f9c14887c1467e6cfea7b00bb3&#45;&gt;dir_67d9f0ef52e6a8291cee5653a1bfd29e -->
<g id="edge43" class="edge">
<title>dir_1955f3f9c14887c1467e6cfea7b00bb3&#45;&gt;dir_67d9f0ef52e6a8291cee5653a1bfd29e</title>
<g id="a_edge43"><a xlink:href="dir_000194_000123.html" target="_top">
<path fill="none" stroke="#63b8ff" d="M234.87,-186.12C230.87,-168.27 222.14,-129.36 216.7,-105.09"/>
<polygon fill="#63b8ff" stroke="#63b8ff" points="220.13,-104.39 214.53,-95.4 213.3,-105.93 220.13,-104.39"/>
</a>
</g>
<g id="a_edge43&#45;headlabel"><a xlink:href="dir_000194_000123.html" target="_top" xlink:title="3">
<text text-anchor="middle" x="223.36" y="-102.68" font-family="Helvetica,sans-Serif" font-size="10.00" fill="#63b8ff">3</text>
</a>
</g>
</g>
</g>
</svg>
