<?xml version="1.0" encoding="UTF-8" standalone="no"?>
<!DOCTYPE svg PUBLIC "-//W3C//DTD SVG 1.1//EN"
 "http://www.w3.org/Graphics/SVG/1.1/DTD/svg11.dtd">
<!-- Generated by graphviz version 10.0.1 (0)
 -->
<!-- Title: libs/dius/runtime Pages: 1 -->
<svg width="361pt" height="146pt"
 viewBox="0.00 0.00 361.25 146.25" xmlns="http://www.w3.org/2000/svg" xmlns:xlink="http://www.w3.org/1999/xlink">
<g id="graph0" class="graph" transform="scale(1 1) rotate(0) translate(4 142.25)">
<title>libs/dius/runtime</title>
<g id="clust1" class="cluster">
<title>clusterdir_2bc9e3f402dd86ba93785edd287294d9</title>
<g id="a_clust1"><a xlink:href="dir_2bc9e3f402dd86ba93785edd287294d9.html" target="_top" xlink:title="dius">
<polygon fill="#edf0f7" stroke="#7f7f7f" stroke-dasharray="5,2" points="8,-8 8,-130.25 260,-130.25 260,-8 8,-8"/>
<text text-anchor="middle" x="134" y="-116.75" font-family="Helvetica,sans-Serif" font-size="10.00">dius</text>
</a>
</g>
</g>
<g id="clust2" class="cluster">
<title>clusterdir_31e18d227c2c24cfedcd1fb5687b87ef</title>
<g id="a_clust2"><a xlink:href="dir_31e18d227c2c24cfedcd1fb5687b87ef.html" target="_top">
<polygon fill="#edf0f7" stroke="#404040" stroke-width="2" points="16,-64.75 16,-101.5 252,-101.5 252,-64.75 16,-64.75"/>
</a>
</g>
</g>
<!-- dir_6ac4aa95e4478b160428441746083760 -->
<g id="node1" class="node">
<title>dir_6ac4aa95e4478b160428441746083760</title>
<g id="a_node1"><a xlink:href="dir_6ac4aa95e4478b160428441746083760.html" target="_top" xlink:title="include">
<polygon fill="#a2b4d6" stroke="red" points="160.62,-36.75 109.38,-36.75 109.38,-16 160.62,-16 160.62,-36.75"/>
<text text-anchor="middle" x="135" y="-23.25" font-family="Helvetica,sans-Serif" font-size="10.00">include</text>
</a>
</g>
</g>
<!-- dir_31e18d227c2c24cfedcd1fb5687b87ef -->
<g id="node2" class="node">
<title>dir_31e18d227c2c24cfedcd1fb5687b87ef</title>
<text text-anchor="middle" x="103" y="-80" font-family="Helvetica,sans-Serif" font-size="10.00">runtime</text>
</g>
<!-- dir_31e18d227c2c24cfedcd1fb5687b87ef&#45;&gt;dir_6ac4aa95e4478b160428441746083760 -->
<g id="edge1" class="edge">
<title>dir_31e18d227c2c24cfedcd1fb5687b87ef&#45;&gt;dir_6ac4aa95e4478b160428441746083760</title>
<g id="a_edge1"><a xlink:href="dir_000152_000095.html" target="_top">
<path fill="none" stroke="#63b8ff" d="M108.28,-73.08C112.47,-65.92 118.46,-55.67 123.72,-46.68"/>
<polygon fill="#63b8ff" stroke="#63b8ff" points="126.6,-48.69 128.62,-38.29 120.55,-45.16 126.6,-48.69"/>
</a>
</g>
<g id="a_edge1&#45;headlabel"><a xlink:href="dir_000152_000095.html" target="_top" xlink:title="23">
<text text-anchor="middle" x="128" y="-48.79" font-family="Helvetica,sans-Serif" font-size="10.00" fill="#63b8ff">23</text>
</a>
</g>
</g>
<!-- dir_984cd133b143ec7cf21a4bdcb401bfa5 -->
<g id="node6" class="node">
<title>dir_984cd133b143ec7cf21a4bdcb401bfa5</title>
<g id="a_node6"><a xlink:href="dir_984cd133b143ec7cf21a4bdcb401bfa5.html" target="_top" xlink:title="di">
<polygon fill="#edf0f7" stroke="red" stroke-dasharray="5,2" points="296.4,-36.75 267.6,-36.75 267.6,-16 296.4,-16 296.4,-36.75"/>
<text text-anchor="middle" x="282" y="-23.25" font-family="Helvetica,sans-Serif" font-size="10.00">di</text>
</a>
</g>
</g>
<!-- dir_31e18d227c2c24cfedcd1fb5687b87ef&#45;&gt;dir_984cd133b143ec7cf21a4bdcb401bfa5 -->
<g id="edge2" class="edge">
<title>dir_31e18d227c2c24cfedcd1fb5687b87ef&#45;&gt;dir_984cd133b143ec7cf21a4bdcb401bfa5</title>
<g id="a_edge2"><a xlink:href="dir_000152_000058.html" target="_top">
<path fill="none" stroke="#63b8ff" d="M120.74,-72.84C126.74,-69.96 133.56,-66.96 140,-64.75 189.89,-47.63 208.46,-55.01 256.49,-39.2"/>
<polygon fill="#63b8ff" stroke="#63b8ff" points="257.49,-42.56 265.78,-35.96 255.18,-35.95 257.49,-42.56"/>
</a>
</g>
<g id="a_edge2&#45;headlabel"><a xlink:href="dir_000152_000058.html" target="_top" xlink:title="33">
<text text-anchor="middle" x="256.46" y="-42.8" font-family="Helvetica,sans-Serif" font-size="10.00" fill="#63b8ff">33</text>
</a>
</g>
</g>
<!-- dir_158dc9445fadc8c1c7068e08c46a8de0 -->
<g id="node3" class="node">
<title>dir_158dc9445fadc8c1c7068e08c46a8de0</title>
<g id="a_node3"><a xlink:href="dir_158dc9445fadc8c1c7068e08c46a8de0.html" target="_top" xlink:title="arch">
<polygon fill="#a2b4d6" stroke="#404040" points="185.5,-93.5 148.5,-93.5 148.5,-72.75 185.5,-72.75 185.5,-93.5"/>
<text text-anchor="middle" x="167" y="-80" font-family="Helvetica,sans-Serif" font-size="10.00">arch</text>
</a>
</g>
</g>
<!-- dir_158dc9445fadc8c1c7068e08c46a8de0&#45;&gt;dir_6ac4aa95e4478b160428441746083760 -->
<g id="edge4" class="edge">
<title>dir_158dc9445fadc8c1c7068e08c46a8de0&#45;&gt;dir_6ac4aa95e4478b160428441746083760</title>
<g id="a_edge4"><a xlink:href="dir_000015_000095.html" target="_top">
<path fill="none" stroke="#63b8ff" d="M161.28,-72.34C157.14,-65.25 151.4,-55.44 146.35,-46.79"/>
<polygon fill="#63b8ff" stroke="#63b8ff" points="149.5,-45.25 141.44,-38.39 143.46,-48.78 149.5,-45.25"/>
</a>
</g>
<g id="a_edge4&#45;headlabel"><a xlink:href="dir_000015_000095.html" target="_top" xlink:title="1">
<text text-anchor="middle" x="153" y="-42.49" font-family="Helvetica,sans-Serif" font-size="10.00" fill="#63b8ff">1</text>
</a>
</g>
</g>
<!-- dir_158dc9445fadc8c1c7068e08c46a8de0&#45;&gt;dir_984cd133b143ec7cf21a4bdcb401bfa5 -->
<g id="edge3" class="edge">
<title>dir_158dc9445fadc8c1c7068e08c46a8de0&#45;&gt;dir_984cd133b143ec7cf21a4bdcb401bfa5</title>
<g id="a_edge3"><a xlink:href="dir_000015_000058.html" target="_top">
<path fill="none" stroke="#63b8ff" d="M181.84,-72.27C186.02,-69.67 190.61,-66.98 195,-64.75 221.16,-51.45 231.56,-50.64 256.7,-39.91"/>
<polygon fill="#63b8ff" stroke="#63b8ff" points="258.03,-43.14 265.74,-35.88 255.18,-36.75 258.03,-43.14"/>
</a>
</g>
<g id="a_edge3&#45;headlabel"><a xlink:href="dir_000015_000058.html" target="_top" xlink:title="1">
<text text-anchor="middle" x="257.29" y="-43.46" font-family="Helvetica,sans-Serif" font-size="10.00" fill="#63b8ff">1</text>
</a>
</g>
</g>
<!-- dir_38cae2162d459bff2fe26042bf7c2179 -->
<g id="node4" class="node">
<title>dir_38cae2162d459bff2fe26042bf7c2179</title>
<g id="a_node4"><a xlink:href="dir_38cae2162d459bff2fe26042bf7c2179.html" target="_top" xlink:title="iros">
<polygon fill="#a2b4d6" stroke="#404040" points="58,-93.5 24,-93.5 24,-72.75 58,-72.75 58,-93.5"/>
<text text-anchor="middle" x="41" y="-80" font-family="Helvetica,sans-Serif" font-size="10.00">iros</text>
</a>
</g>
</g>
<!-- dir_38cae2162d459bff2fe26042bf7c2179&#45;&gt;dir_6ac4aa95e4478b160428441746083760 -->
<g id="edge5" class="edge">
<title>dir_38cae2162d459bff2fe26042bf7c2179&#45;&gt;dir_6ac4aa95e4478b160428441746083760</title>
<g id="a_edge5"><a xlink:href="dir_000110_000095.html" target="_top">
<path fill="none" stroke="#63b8ff" d="M55.16,-72.34C58.96,-69.8 63.1,-67.12 67,-64.75 79.65,-57.07 93.96,-49.1 106.18,-42.5"/>
<polygon fill="#63b8ff" stroke="#63b8ff" points="107.78,-45.62 114.95,-37.81 104.48,-39.44 107.78,-45.62"/>
</a>
</g>
<g id="a_edge5&#45;headlabel"><a xlink:href="dir_000110_000095.html" target="_top" xlink:title="5">
<text text-anchor="middle" x="107.28" y="-45.98" font-family="Helvetica,sans-Serif" font-size="10.00" fill="#63b8ff">5</text>
</a>
</g>
</g>
<!-- dir_38cae2162d459bff2fe26042bf7c2179&#45;&gt;dir_984cd133b143ec7cf21a4bdcb401bfa5 -->
<g id="edge6" class="edge">
<title>dir_38cae2162d459bff2fe26042bf7c2179&#45;&gt;dir_984cd133b143ec7cf21a4bdcb401bfa5</title>
<g id="a_edge6"><a xlink:href="dir_000110_000058.html" target="_top">
<path fill="none" stroke="#63b8ff" d="M53.07,-72.43C57.26,-69.52 62.13,-66.61 67,-64.75 146.06,-34.53 177.11,-61.27 256.28,-38.88"/>
<polygon fill="#63b8ff" stroke="#63b8ff" points="257.24,-42.24 265.79,-35.99 255.21,-35.55 257.24,-42.24"/>
</a>
</g>
<g id="a_edge6&#45;headlabel"><a xlink:href="dir_000110_000058.html" target="_top" xlink:title="2">
<text text-anchor="middle" x="256.07" y="-42.44" font-family="Helvetica,sans-Serif" font-size="10.00" fill="#63b8ff">2</text>
</a>
</g>
</g>
<!-- dir_6ca6a30a8e1b556d28edb3c9bf5d585c -->
<g id="node5" class="node">
<title>dir_6ca6a30a8e1b556d28edb3c9bf5d585c</title>
<g id="a_node5"><a xlink:href="dir_6ca6a30a8e1b556d28edb3c9bf5d585c.html" target="_top" xlink:title="linux">
<polygon fill="#a2b4d6" stroke="#404040" points="244,-93.5 204,-93.5 204,-72.75 244,-72.75 244,-93.5"/>
<text text-anchor="middle" x="224" y="-80" font-family="Helvetica,sans-Serif" font-size="10.00">linux</text>
</a>
</g>
</g>
<!-- dir_6ca6a30a8e1b556d28edb3c9bf5d585c&#45;&gt;dir_6ac4aa95e4478b160428441746083760 -->
<g id="edge7" class="edge">
<title>dir_6ca6a30a8e1b556d28edb3c9bf5d585c&#45;&gt;dir_6ac4aa95e4478b160428441746083760</title>
<g id="a_edge7"><a xlink:href="dir_000118_000095.html" target="_top">
<path fill="none" stroke="#63b8ff" d="M208.09,-72.34C194.8,-64.16 175.61,-52.36 160.23,-42.9"/>
<polygon fill="#63b8ff" stroke="#63b8ff" points="162.41,-40.13 152.06,-37.87 158.75,-46.09 162.41,-40.13"/>
</a>
</g>
<g id="a_edge7&#45;headlabel"><a xlink:href="dir_000118_000095.html" target="_top" xlink:title="9">
<text text-anchor="middle" x="165.67" y="-35.68" font-family="Helvetica,sans-Serif" font-size="10.00" fill="#63b8ff">9</text>
</a>
</g>
</g>
<!-- dir_6ca6a30a8e1b556d28edb3c9bf5d585c&#45;&gt;dir_984cd133b143ec7cf21a4bdcb401bfa5 -->
<g id="edge8" class="edge">
<title>dir_6ca6a30a8e1b556d28edb3c9bf5d585c&#45;&gt;dir_984cd133b143ec7cf21a4bdcb401bfa5</title>
<g id="a_edge8"><a xlink:href="dir_000118_000058.html" target="_top">
<path fill="none" stroke="#63b8ff" d="M234.37,-72.34C242.45,-64.71 253.88,-53.92 263.52,-44.82"/>
<polygon fill="#63b8ff" stroke="#63b8ff" points="265.75,-47.53 270.62,-38.12 260.95,-42.44 265.75,-47.53"/>
</a>
</g>
<g id="a_edge8&#45;headlabel"><a xlink:href="dir_000118_000058.html" target="_top" xlink:title="3">
<text text-anchor="middle" x="266.19" y="-47.9" font-family="Helvetica,sans-Serif" font-size="10.00" fill="#63b8ff">3</text>
</a>
</g>
</g>
<!-- dir_048287677304621c659962c2a2c2732d -->
<g id="node7" class="node">
<title>dir_048287677304621c659962c2a2c2732d</title>
<g id="a_node7"><a xlink:href="dir_048287677304621c659962c2a2c2732d.html" target="_top" xlink:title="ccpp">
<polygon fill="#edf0f7" stroke="red" stroke-dasharray="5,2" points="353.25,-36.75 314.75,-36.75 314.75,-16 353.25,-16 353.25,-36.75"/>
<text text-anchor="middle" x="334" y="-23.25" font-family="Helvetica,sans-Serif" font-size="10.00">ccpp</text>
</a>
</g>
</g>
<!-- dir_6ca6a30a8e1b556d28edb3c9bf5d585c&#45;&gt;dir_048287677304621c659962c2a2c2732d -->
<g id="edge9" class="edge">
<title>dir_6ca6a30a8e1b556d28edb3c9bf5d585c&#45;&gt;dir_048287677304621c659962c2a2c2732d</title>
<g id="a_edge9"><a xlink:href="dir_000118_000030.html" target="_top">
<path fill="none" stroke="#63b8ff" d="M243.67,-72.34C260.56,-63.93 285.17,-51.68 304.43,-42.09"/>
<polygon fill="#63b8ff" stroke="#63b8ff" points="305.76,-45.34 313.15,-37.75 302.64,-39.08 305.76,-45.34"/>
</a>
</g>
<g id="a_edge9&#45;headlabel"><a xlink:href="dir_000118_000030.html" target="_top" xlink:title="1">
<text text-anchor="middle" x="305.16" y="-45.69" font-family="Helvetica,sans-Serif" font-size="10.00" fill="#63b8ff">1</text>
</a>
</g>
</g>
</g>
</svg>
