<?xml version="1.0" encoding="UTF-8" standalone="no"?>
<!DOCTYPE svg PUBLIC "-//W3C//DTD SVG 1.1//EN"
 "http://www.w3.org/Graphics/SVG/1.1/DTD/svg11.dtd">
<!-- Generated by graphviz version 10.0.1 (0)
 -->
<!-- Title: libs/dius/include/dius/linux Pages: 1 -->
<svg width="267pt" height="146pt"
 viewBox="0.00 0.00 267.40 146.25" xmlns="http://www.w3.org/2000/svg" xmlns:xlink="http://www.w3.org/1999/xlink">
<g id="graph0" class="graph" transform="scale(1 1) rotate(0) translate(4 142.25)">
<title>libs/dius/include/dius/linux</title>
<g id="clust1" class="cluster">
<title>clusterdir_2992e835a4b361d9b2ca5047c35dfcd3</title>
<g id="a_clust1"><a xlink:href="dir_2992e835a4b361d9b2ca5047c35dfcd3.html" target="_top" xlink:title="dius">
<polygon fill="#edf0f7" stroke="#7f7f7f" stroke-dasharray="5,2" points="8,-8 8,-130.25 166,-130.25 166,-8 8,-8"/>
<text text-anchor="middle" x="87" y="-116.75" font-family="Helvetica,sans-Serif" font-size="10.00">dius</text>
</a>
</g>
</g>
<g id="clust2" class="cluster">
<title>clusterdir_e043b7fd757103055e525488867886a8</title>
<g id="a_clust2"><a xlink:href="dir_e043b7fd757103055e525488867886a8.html" target="_top">
<polygon fill="#edf0f7" stroke="#404040" stroke-width="2" points="16,-64.75 16,-101.5 158,-101.5 158,-64.75 16,-64.75"/>
</a>
</g>
</g>
<!-- dir_8663e1f92e7e252284972f31150b7e2c -->
<g id="node1" class="node">
<title>dir_8663e1f92e7e252284972f31150b7e2c</title>
<g id="a_node1"><a xlink:href="dir_8663e1f92e7e252284972f31150b7e2c.html" target="_top" xlink:title="posix">
<polygon fill="#a2b4d6" stroke="#404040" points="61.12,-36.75 18.88,-36.75 18.88,-16 61.12,-16 61.12,-36.75"/>
<text text-anchor="middle" x="40" y="-23.25" font-family="Helvetica,sans-Serif" font-size="10.00">posix</text>
</a>
</g>
</g>
<!-- dir_9b74ca6f6a343c08895628384376fe76 -->
<g id="node2" class="node">
<title>dir_9b74ca6f6a343c08895628384376fe76</title>
<g id="a_node2"><a xlink:href="dir_9b74ca6f6a343c08895628384376fe76.html" target="_top" xlink:title="runtime">
<polygon fill="#a2b4d6" stroke="#404040" points="133.12,-36.75 78.88,-36.75 78.88,-16 133.12,-16 133.12,-36.75"/>
<text text-anchor="middle" x="106" y="-23.25" font-family="Helvetica,sans-Serif" font-size="10.00">runtime</text>
</a>
</g>
</g>
<!-- dir_e043b7fd757103055e525488867886a8 -->
<g id="node3" class="node">
<title>dir_e043b7fd757103055e525488867886a8</title>
<text text-anchor="middle" x="44" y="-80" font-family="Helvetica,sans-Serif" font-size="10.00">linux</text>
</g>
<!-- dir_e043b7fd757103055e525488867886a8&#45;&gt;dir_8663e1f92e7e252284972f31150b7e2c -->
<g id="edge2" class="edge">
<title>dir_e043b7fd757103055e525488867886a8&#45;&gt;dir_8663e1f92e7e252284972f31150b7e2c</title>
<g id="a_edge2"><a xlink:href="dir_000116_000141.html" target="_top">
<path fill="none" stroke="#63b8ff" d="M43.34,-73.08C42.85,-66.39 42.16,-56.99 41.54,-48.46"/>
<polygon fill="#63b8ff" stroke="#63b8ff" points="45.03,-48.21 40.81,-38.49 38.05,-48.72 45.03,-48.21"/>
</a>
</g>
<g id="a_edge2&#45;headlabel"><a xlink:href="dir_000116_000141.html" target="_top" xlink:title="1">
<text text-anchor="middle" x="48.01" y="-46.95" font-family="Helvetica,sans-Serif" font-size="10.00" fill="#63b8ff">1</text>
</a>
</g>
</g>
<!-- dir_e043b7fd757103055e525488867886a8&#45;&gt;dir_9b74ca6f6a343c08895628384376fe76 -->
<g id="edge4" class="edge">
<title>dir_e043b7fd757103055e525488867886a8&#45;&gt;dir_9b74ca6f6a343c08895628384376fe76</title>
<g id="a_edge4"><a xlink:href="dir_000116_000151.html" target="_top">
<path fill="none" stroke="#63b8ff" d="M54.52,-72.84C63.28,-65.1 76,-53.87 86.6,-44.5"/>
<polygon fill="#63b8ff" stroke="#63b8ff" points="88.91,-47.14 94.09,-37.89 84.28,-41.89 88.91,-47.14"/>
</a>
</g>
<g id="a_edge4&#45;headlabel"><a xlink:href="dir_000116_000151.html" target="_top" xlink:title="1">
<text text-anchor="middle" x="89.23" y="-47.52" font-family="Helvetica,sans-Serif" font-size="10.00" fill="#63b8ff">1</text>
</a>
</g>
</g>
<!-- dir_048287677304621c659962c2a2c2732d -->
<g id="node5" class="node">
<title>dir_048287677304621c659962c2a2c2732d</title>
<g id="a_node5"><a xlink:href="dir_048287677304621c659962c2a2c2732d.html" target="_top" xlink:title="ccpp">
<polygon fill="#edf0f7" stroke="red" stroke-dasharray="5,2" points="212.25,-36.75 173.75,-36.75 173.75,-16 212.25,-16 212.25,-36.75"/>
<text text-anchor="middle" x="193" y="-23.25" font-family="Helvetica,sans-Serif" font-size="10.00">ccpp</text>
</a>
</g>
</g>
<!-- dir_e043b7fd757103055e525488867886a8&#45;&gt;dir_048287677304621c659962c2a2c2732d -->
<g id="edge1" class="edge">
<title>dir_e043b7fd757103055e525488867886a8&#45;&gt;dir_048287677304621c659962c2a2c2732d</title>
<g id="a_edge1"><a xlink:href="dir_000116_000030.html" target="_top">
<path fill="none" stroke="#63b8ff" d="M58.28,-72.91C63.14,-70.04 68.69,-67.02 74,-64.75 111.51,-48.7 125.68,-50.85 162.91,-39.02"/>
<polygon fill="#63b8ff" stroke="#63b8ff" points="163.67,-42.46 172.04,-35.97 161.45,-35.82 163.67,-42.46"/>
</a>
</g>
<g id="a_edge1&#45;headlabel"><a xlink:href="dir_000116_000030.html" target="_top" xlink:title="2">
<text text-anchor="middle" x="162.59" y="-42.69" font-family="Helvetica,sans-Serif" font-size="10.00" fill="#63b8ff">2</text>
</a>
</g>
</g>
<!-- dir_984cd133b143ec7cf21a4bdcb401bfa5 -->
<g id="node6" class="node">
<title>dir_984cd133b143ec7cf21a4bdcb401bfa5</title>
<g id="a_node6"><a xlink:href="dir_984cd133b143ec7cf21a4bdcb401bfa5.html" target="_top" xlink:title="di">
<polygon fill="#edf0f7" stroke="red" stroke-dasharray="5,2" points="259.4,-36.75 230.6,-36.75 230.6,-16 259.4,-16 259.4,-36.75"/>
<text text-anchor="middle" x="245" y="-23.25" font-family="Helvetica,sans-Serif" font-size="10.00">di</text>
</a>
</g>
</g>
<!-- dir_e043b7fd757103055e525488867886a8&#45;&gt;dir_984cd133b143ec7cf21a4bdcb401bfa5 -->
<g id="edge3" class="edge">
<title>dir_e043b7fd757103055e525488867886a8&#45;&gt;dir_984cd133b143ec7cf21a4bdcb401bfa5</title>
<g id="a_edge3"><a xlink:href="dir_000116_000058.html" target="_top">
<path fill="none" stroke="#63b8ff" d="M57.86,-72.79C62.78,-69.84 68.47,-66.81 74,-64.75 133.16,-42.71 154.87,-53.86 219.43,-36.67"/>
<polygon fill="#63b8ff" stroke="#63b8ff" points="220.03,-40.14 228.71,-34.07 218.14,-33.4 220.03,-40.14"/>
</a>
</g>
<g id="a_edge3&#45;headlabel"><a xlink:href="dir_000116_000058.html" target="_top" xlink:title="22">
<text text-anchor="middle" x="218.79" y="-40.31" font-family="Helvetica,sans-Serif" font-size="10.00" fill="#63b8ff">22</text>
</a>
</g>
</g>
<!-- dir_7857628ec6effa767790b1155ef996c2 -->
<g id="node4" class="node">
<title>dir_7857628ec6effa767790b1155ef996c2</title>
<g id="a_node4"><a xlink:href="dir_7857628ec6effa767790b1155ef996c2.html" target="_top" xlink:title="filesystem">
<polygon fill="#a2b4d6" stroke="#404040" points="149.5,-93.5 82.5,-93.5 82.5,-72.75 149.5,-72.75 149.5,-93.5"/>
<text text-anchor="middle" x="116" y="-80" font-family="Helvetica,sans-Serif" font-size="10.00">filesystem</text>
</a>
</g>
</g>
</g>
</svg>
