<?xml version="1.0" encoding="UTF-8" standalone="no"?>
<!DOCTYPE svg PUBLIC "-//W3C//DTD SVG 1.1//EN"
 "http://www.w3.org/Graphics/SVG/1.1/DTD/svg11.dtd">
<!-- Generated by graphviz version 10.0.1 (0)
 -->
<!-- Title: iris/arch/x86/amd64 Pages: 1 -->
<svg width="319pt" height="130pt"
 viewBox="0.00 0.00 319.00 130.25" xmlns="http://www.w3.org/2000/svg" xmlns:xlink="http://www.w3.org/1999/xlink">
<g id="graph0" class="graph" transform="scale(1 1) rotate(0) translate(4 126.25)">
<title>iris/arch/x86/amd64</title>
<g id="clust1" class="cluster">
<title>clusterdir_32e65aed4d889286673f01f7d9b757f0</title>
<g id="a_clust1"><a xlink:href="dir_32e65aed4d889286673f01f7d9b757f0.html" target="_top" xlink:title="x86">
<polygon fill="#edf0f7" stroke="#7f7f7f" stroke-dasharray="5,2" points="8,-40.75 8,-114.25 303,-114.25 303,-40.75 8,-40.75"/>
<text text-anchor="middle" x="155.5" y="-100.75" font-family="Helvetica,sans-Serif" font-size="10.00">x86</text>
</a>
</g>
</g>
<g id="clust2" class="cluster">
<title>clusterdir_aa669ff061cea02545a3dc83f842e418</title>
<g id="a_clust2"><a xlink:href="dir_aa669ff061cea02545a3dc83f842e418.html" target="_top">
<polygon fill="#edf0f7" stroke="#404040" stroke-width="2" points="16,-48.75 16,-85.5 295,-85.5 295,-48.75 16,-48.75"/>
</a>
</g>
</g>
<!-- dir_aa669ff061cea02545a3dc83f842e418 -->
<g id="node1" class="node">
<title>dir_aa669ff061cea02545a3dc83f842e418</title>
<text text-anchor="middle" x="49" y="-64" font-family="Helvetica,sans-Serif" font-size="10.00">amd64</text>
</g>
<!-- dir_517da09f1a54010d92a7be15f29411f8 -->
<g id="node2" class="node">
<title>dir_517da09f1a54010d92a7be15f29411f8</title>
<g id="a_node2"><a xlink:href="dir_517da09f1a54010d92a7be15f29411f8.html" target="_top" xlink:title="boot">
<polygon fill="#a2b4d6" stroke="#404040" points="129.88,-77.5 92.12,-77.5 92.12,-56.75 129.88,-56.75 129.88,-77.5"/>
<text text-anchor="middle" x="111" y="-64" font-family="Helvetica,sans-Serif" font-size="10.00">boot</text>
</a>
</g>
</g>
<!-- dir_6719ab1f1f7655efc2fa43f7eb574fd1 -->
<g id="node6" class="node">
<title>dir_6719ab1f1f7655efc2fa43f7eb574fd1</title>
<g id="a_node6"><a xlink:href="dir_6719ab1f1f7655efc2fa43f7eb574fd1.html" target="_top" xlink:title="libs">
<polygon fill="#edf0f7" stroke="red" points="178.62,-20.75 145.38,-20.75 145.38,0 178.62,0 178.62,-20.75"/>
<text text-anchor="middle" x="162" y="-7.25" font-family="Helvetica,sans-Serif" font-size="10.00">libs</text>
</a>
</g>
</g>
<!-- dir_517da09f1a54010d92a7be15f29411f8&#45;&gt;dir_6719ab1f1f7655efc2fa43f7eb574fd1 -->
<g id="edge2" class="edge">
<title>dir_517da09f1a54010d92a7be15f29411f8&#45;&gt;dir_6719ab1f1f7655efc2fa43f7eb574fd1</title>
<g id="a_edge2"><a xlink:href="dir_000026_000112.html" target="_top">
<path fill="none" stroke="#63b8ff" d="M120.12,-56.34C127.08,-48.86 136.87,-38.36 145.23,-29.38"/>
<polygon fill="#63b8ff" stroke="#63b8ff" points="147.67,-31.89 151.93,-22.19 142.55,-27.12 147.67,-31.89"/>
</a>
</g>
<g id="a_edge2&#45;headlabel"><a xlink:href="dir_000026_000112.html" target="_top" xlink:title="1">
<text text-anchor="middle" x="148.33" y="-32.22" font-family="Helvetica,sans-Serif" font-size="10.00" fill="#63b8ff">1</text>
</a>
</g>
</g>
<!-- dir_29a765eed241630f2929477fec556e75 -->
<g id="node7" class="node">
<title>dir_29a765eed241630f2929477fec556e75</title>
<g id="a_node7"><a xlink:href="dir_29a765eed241630f2929477fec556e75.html" target="_top" xlink:title="include">
<polygon fill="#edf0f7" stroke="red" stroke-dasharray="5,2" points="247.62,-20.75 196.38,-20.75 196.38,0 247.62,0 247.62,-20.75"/>
<text text-anchor="middle" x="222" y="-7.25" font-family="Helvetica,sans-Serif" font-size="10.00">include</text>
</a>
</g>
</g>
<!-- dir_517da09f1a54010d92a7be15f29411f8&#45;&gt;dir_29a765eed241630f2929477fec556e75 -->
<g id="edge1" class="edge">
<title>dir_517da09f1a54010d92a7be15f29411f8&#45;&gt;dir_29a765eed241630f2929477fec556e75</title>
<g id="a_edge1"><a xlink:href="dir_000026_000092.html" target="_top">
<path fill="none" stroke="#63b8ff" d="M119.84,-56.42C125.01,-51.2 131.9,-44.99 139,-40.75 147.19,-35.86 167.12,-28.76 185.4,-22.76"/>
<polygon fill="#63b8ff" stroke="#63b8ff" points="186.27,-26.16 194.72,-19.76 184.12,-19.49 186.27,-26.16"/>
</a>
</g>
<g id="a_edge1&#45;headlabel"><a xlink:href="dir_000026_000092.html" target="_top" xlink:title="33">
<text text-anchor="middle" x="185.16" y="-26.37" font-family="Helvetica,sans-Serif" font-size="10.00" fill="#63b8ff">33</text>
</a>
</g>
</g>
<!-- dir_25b502705390c9016dbab9f33d5f5d84 -->
<g id="node3" class="node">
<title>dir_25b502705390c9016dbab9f33d5f5d84</title>
<g id="a_node3"><a xlink:href="dir_25b502705390c9016dbab9f33d5f5d84.html" target="_top" xlink:title="core">
<polygon fill="#a2b4d6" stroke="#404040" points="184.5,-77.5 147.5,-77.5 147.5,-56.75 184.5,-56.75 184.5,-77.5"/>
<text text-anchor="middle" x="166" y="-64" font-family="Helvetica,sans-Serif" font-size="10.00">core</text>
</a>
</g>
</g>
<!-- dir_25b502705390c9016dbab9f33d5f5d84&#45;&gt;dir_6719ab1f1f7655efc2fa43f7eb574fd1 -->
<g id="edge4" class="edge">
<title>dir_25b502705390c9016dbab9f33d5f5d84&#45;&gt;dir_6719ab1f1f7655efc2fa43f7eb574fd1</title>
<g id="a_edge4"><a xlink:href="dir_000049_000112.html" target="_top">
<path fill="none" stroke="#63b8ff" d="M165.28,-56.34C164.8,-49.72 164.14,-40.72 163.54,-32.52"/>
<polygon fill="#63b8ff" stroke="#63b8ff" points="167.04,-32.31 162.82,-22.59 160.06,-32.82 167.04,-32.31"/>
</a>
</g>
<g id="a_edge4&#45;headlabel"><a xlink:href="dir_000049_000112.html" target="_top" xlink:title="1">
<text text-anchor="middle" x="170.02" y="-31.05" font-family="Helvetica,sans-Serif" font-size="10.00" fill="#63b8ff">1</text>
</a>
</g>
</g>
<!-- dir_25b502705390c9016dbab9f33d5f5d84&#45;&gt;dir_29a765eed241630f2929477fec556e75 -->
<g id="edge3" class="edge">
<title>dir_25b502705390c9016dbab9f33d5f5d84&#45;&gt;dir_29a765eed241630f2929477fec556e75</title>
<g id="a_edge3"><a xlink:href="dir_000049_000092.html" target="_top">
<path fill="none" stroke="#63b8ff" d="M176.01,-56.34C183.74,-48.78 194.63,-38.14 203.87,-29.1"/>
<polygon fill="#63b8ff" stroke="#63b8ff" points="206.29,-31.63 210.99,-22.14 201.4,-26.62 206.29,-31.63"/>
</a>
</g>
<g id="a_edge3&#45;headlabel"><a xlink:href="dir_000049_000092.html" target="_top" xlink:title="14">
<text text-anchor="middle" x="206.79" y="-31.99" font-family="Helvetica,sans-Serif" font-size="10.00" fill="#63b8ff">14</text>
</a>
</g>
</g>
<!-- dir_cf5227a2d3549f92c358e592da5438bc -->
<g id="node4" class="node">
<title>dir_cf5227a2d3549f92c358e592da5438bc</title>
<g id="a_node4"><a xlink:href="dir_cf5227a2d3549f92c358e592da5438bc.html" target="_top" xlink:title="hw">
<polygon fill="#a2b4d6" stroke="#404040" points="233.12,-77.5 202.88,-77.5 202.88,-56.75 233.12,-56.75 233.12,-77.5"/>
<text text-anchor="middle" x="218" y="-64" font-family="Helvetica,sans-Serif" font-size="10.00">hw</text>
</a>
</g>
</g>
<!-- dir_cf5227a2d3549f92c358e592da5438bc&#45;&gt;dir_6719ab1f1f7655efc2fa43f7eb574fd1 -->
<g id="edge6" class="edge">
<title>dir_cf5227a2d3549f92c358e592da5438bc&#45;&gt;dir_6719ab1f1f7655efc2fa43f7eb574fd1</title>
<g id="a_edge6"><a xlink:href="dir_000088_000112.html" target="_top">
<path fill="none" stroke="#63b8ff" d="M209.27,-56.57C204.78,-51.75 199.18,-45.86 194,-40.75 189.98,-36.79 185.58,-32.64 181.36,-28.74"/>
<polygon fill="#63b8ff" stroke="#63b8ff" points="184.01,-26.42 174.26,-22.27 179.29,-31.59 184.01,-26.42"/>
</a>
</g>
<g id="a_edge6&#45;headlabel"><a xlink:href="dir_000088_000112.html" target="_top" xlink:title="1">
<text text-anchor="middle" x="187.46" y="-22.59" font-family="Helvetica,sans-Serif" font-size="10.00" fill="#63b8ff">1</text>
</a>
</g>
</g>
<!-- dir_cf5227a2d3549f92c358e592da5438bc&#45;&gt;dir_29a765eed241630f2929477fec556e75 -->
<g id="edge5" class="edge">
<title>dir_cf5227a2d3549f92c358e592da5438bc&#45;&gt;dir_29a765eed241630f2929477fec556e75</title>
<g id="a_edge5"><a xlink:href="dir_000088_000092.html" target="_top">
<path fill="none" stroke="#63b8ff" d="M218.72,-56.34C219.2,-49.72 219.86,-40.72 220.46,-32.52"/>
<polygon fill="#63b8ff" stroke="#63b8ff" points="223.94,-32.82 221.18,-22.59 216.96,-32.31 223.94,-32.82"/>
</a>
</g>
<g id="a_edge5&#45;headlabel"><a xlink:href="dir_000088_000092.html" target="_top" xlink:title="60">
<text text-anchor="middle" x="226.62" y="-31.97" font-family="Helvetica,sans-Serif" font-size="10.00" fill="#63b8ff">60</text>
</a>
</g>
</g>
<!-- dir_6d5016d47eb00a3770460beef2b79077 -->
<g id="node5" class="node">
<title>dir_6d5016d47eb00a3770460beef2b79077</title>
<g id="a_node5"><a xlink:href="dir_6d5016d47eb00a3770460beef2b79077.html" target="_top" xlink:title="mm">
<polygon fill="#a2b4d6" stroke="#404040" points="286.75,-77.5 251.25,-77.5 251.25,-56.75 286.75,-56.75 286.75,-77.5"/>
<text text-anchor="middle" x="269" y="-64" font-family="Helvetica,sans-Serif" font-size="10.00">mm</text>
</a>
</g>
</g>
<!-- dir_6d5016d47eb00a3770460beef2b79077&#45;&gt;dir_6719ab1f1f7655efc2fa43f7eb574fd1 -->
<g id="edge8" class="edge">
<title>dir_6d5016d47eb00a3770460beef2b79077&#45;&gt;dir_6719ab1f1f7655efc2fa43f7eb574fd1</title>
<g id="a_edge8"><a xlink:href="dir_000129_000112.html" target="_top">
<path fill="none" stroke="#63b8ff" d="M260.52,-56.43C255.55,-51.21 248.9,-45 242,-40.75 222.53,-28.77 213.65,-29.36 189.74,-21.53"/>
<polygon fill="#63b8ff" stroke="#63b8ff" points="190.96,-18.24 180.36,-18.25 188.65,-24.85 190.96,-18.24"/>
</a>
</g>
<g id="a_edge8&#45;headlabel"><a xlink:href="dir_000129_000112.html" target="_top" xlink:title="4">
<text text-anchor="middle" x="193.86" y="-13.12" font-family="Helvetica,sans-Serif" font-size="10.00" fill="#63b8ff">4</text>
</a>
</g>
</g>
<!-- dir_6d5016d47eb00a3770460beef2b79077&#45;&gt;dir_29a765eed241630f2929477fec556e75 -->
<g id="edge7" class="edge">
<title>dir_6d5016d47eb00a3770460beef2b79077&#45;&gt;dir_29a765eed241630f2929477fec556e75</title>
<g id="a_edge7"><a xlink:href="dir_000129_000092.html" target="_top">
<path fill="none" stroke="#63b8ff" d="M260.6,-56.34C254.25,-48.94 245.35,-38.57 237.7,-29.66"/>
<polygon fill="#63b8ff" stroke="#63b8ff" points="240.49,-27.53 231.32,-22.23 235.17,-32.09 240.49,-27.53"/>
</a>
</g>
<g id="a_edge7&#45;headlabel"><a xlink:href="dir_000129_000092.html" target="_top" xlink:title="16">
<text text-anchor="middle" x="243.99" y="-24.14" font-family="Helvetica,sans-Serif" font-size="10.00" fill="#63b8ff">16</text>
</a>
</g>
</g>
</g>
</svg>
