<?xml version="1.0" encoding="UTF-8" standalone="no"?>
<!DOCTYPE svg PUBLIC "-//W3C//DTD SVG 1.1//EN"
 "http://www.w3.org/Graphics/SVG/1.1/DTD/svg11.dtd">
<!-- Generated by graphviz version 10.0.1 (0)
 -->
<!-- Title: libs/di/include/di/container/hash Pages: 1 -->
<svg width="1168pt" height="146pt"
 viewBox="0.00 0.00 1167.75 146.25" xmlns="http://www.w3.org/2000/svg" xmlns:xlink="http://www.w3.org/1999/xlink">
<g id="graph0" class="graph" transform="scale(1 1) rotate(0) translate(4 142.25)">
<title>libs/di/include/di/container/hash</title>
<g id="clust1" class="cluster">
<title>clusterdir_521de572ae4fe2915cc70a876c52f5b7</title>
<g id="a_clust1"><a xlink:href="dir_521de572ae4fe2915cc70a876c52f5b7.html" target="_top" xlink:title="container">
<polygon fill="#edf0f7" stroke="#7f7f7f" stroke-dasharray="5,2" points="8,-8 8,-130.25 721,-130.25 721,-8 8,-8"/>
<text text-anchor="middle" x="364.5" y="-116.75" font-family="Helvetica,sans-Serif" font-size="10.00">container</text>
</a>
</g>
</g>
<g id="clust2" class="cluster">
<title>clusterdir_289c3fc9695217b968c29372e2a5940c</title>
<g id="a_clust2"><a xlink:href="dir_289c3fc9695217b968c29372e2a5940c.html" target="_top">
<polygon fill="#edf0f7" stroke="#404040" stroke-width="2" points="599,-64.75 599,-101.5 713,-101.5 713,-64.75 599,-64.75"/>
</a>
</g>
</g>
<!-- dir_838362f34bc8d8c3545343b0166aa672 -->
<g id="node1" class="node">
<title>dir_838362f34bc8d8c3545343b0166aa672</title>
<g id="a_node1"><a xlink:href="dir_838362f34bc8d8c3545343b0166aa672.html" target="_top" xlink:title="concepts">
<polygon fill="#a2b4d6" stroke="#404040" points="712.75,-36.75 653.25,-36.75 653.25,-16 712.75,-16 712.75,-36.75"/>
<text text-anchor="middle" x="683" y="-23.25" font-family="Helvetica,sans-Serif" font-size="10.00">concepts</text>
</a>
</g>
</g>
<!-- dir_9f8d33513cfc97e5f9ea6bf2671e5446 -->
<g id="node2" class="node">
<title>dir_9f8d33513cfc97e5f9ea6bf2671e5446</title>
<g id="a_node2"><a xlink:href="dir_9f8d33513cfc97e5f9ea6bf2671e5446.html" target="_top" xlink:title="meta">
<polygon fill="#a2b4d6" stroke="#404040" points="634.75,-36.75 593.25,-36.75 593.25,-16 634.75,-16 634.75,-36.75"/>
<text text-anchor="middle" x="614" y="-23.25" font-family="Helvetica,sans-Serif" font-size="10.00">meta</text>
</a>
</g>
</g>
<!-- dir_c0fde34eb1aad6470b7c40f9528ecd51 -->
<g id="node3" class="node">
<title>dir_c0fde34eb1aad6470b7c40f9528ecd51</title>
<g id="a_node3"><a xlink:href="dir_c0fde34eb1aad6470b7c40f9528ecd51.html" target="_top" xlink:title="intrusive">
<polygon fill="#a2b4d6" stroke="#404040" points="575.38,-36.75 516.62,-36.75 516.62,-16 575.38,-16 575.38,-36.75"/>
<text text-anchor="middle" x="546" y="-23.25" font-family="Helvetica,sans-Serif" font-size="10.00">intrusive</text>
</a>
</g>
</g>
<!-- dir_093cb0cf41c3d9bb25543a4e1702223c -->
<g id="node4" class="node">
<title>dir_093cb0cf41c3d9bb25543a4e1702223c</title>
<g id="a_node4"><a xlink:href="dir_093cb0cf41c3d9bb25543a4e1702223c.html" target="_top" xlink:title="iterator">
<polygon fill="#a2b4d6" stroke="#404040" points="68,-36.75 16,-36.75 16,-16 68,-16 68,-36.75"/>
<text text-anchor="middle" x="42" y="-23.25" font-family="Helvetica,sans-Serif" font-size="10.00">iterator</text>
</a>
</g>
</g>
<!-- dir_a7b99681c56fba2abd28393cbbc3f22c -->
<g id="node5" class="node">
<title>dir_a7b99681c56fba2abd28393cbbc3f22c</title>
<g id="a_node5"><a xlink:href="dir_a7b99681c56fba2abd28393cbbc3f22c.html" target="_top" xlink:title="types">
<polygon fill="#a2b4d6" stroke="#404040" points="129.5,-36.75 86.5,-36.75 86.5,-16 129.5,-16 129.5,-36.75"/>
<text text-anchor="middle" x="108" y="-23.25" font-family="Helvetica,sans-Serif" font-size="10.00">types</text>
</a>
</g>
</g>
<!-- dir_75ced0d5626770d74ec0ab0f9ebe51e3 -->
<g id="node6" class="node">
<title>dir_75ced0d5626770d74ec0ab0f9ebe51e3</title>
<g id="a_node6"><a xlink:href="dir_75ced0d5626770d74ec0ab0f9ebe51e3.html" target="_top" xlink:title="allocator">
<polygon fill="#a2b4d6" stroke="#404040" points="206.38,-36.75 147.62,-36.75 147.62,-16 206.38,-16 206.38,-36.75"/>
<text text-anchor="middle" x="177" y="-23.25" font-family="Helvetica,sans-Serif" font-size="10.00">allocator</text>
</a>
</g>
</g>
<!-- dir_8ac75f3e92965d7b87f5a77c8eb4a6b1 -->
<g id="node7" class="node">
<title>dir_8ac75f3e92965d7b87f5a77c8eb4a6b1</title>
<g id="a_node7"><a xlink:href="dir_8ac75f3e92965d7b87f5a77c8eb4a6b1.html" target="_top" xlink:title="associative">
<polygon fill="#a2b4d6" stroke="#404040" points="295.75,-36.75 224.25,-36.75 224.25,-16 295.75,-16 295.75,-36.75"/>
<text text-anchor="middle" x="260" y="-23.25" font-family="Helvetica,sans-Serif" font-size="10.00">associative</text>
</a>
</g>
</g>
<!-- dir_f1a41f0d4848adc979771c8b39d6dd9b -->
<g id="node8" class="node">
<title>dir_f1a41f0d4848adc979771c8b39d6dd9b</title>
<g id="a_node8"><a xlink:href="dir_f1a41f0d4848adc979771c8b39d6dd9b.html" target="_top" xlink:title="vector">
<polygon fill="#a2b4d6" stroke="#404040" points="360.38,-36.75 313.62,-36.75 313.62,-16 360.38,-16 360.38,-36.75"/>
<text text-anchor="middle" x="337" y="-23.25" font-family="Helvetica,sans-Serif" font-size="10.00">vector</text>
</a>
</g>
</g>
<!-- dir_28cb5a05dfb61a4b9ad44e468e6394a4 -->
<g id="node9" class="node">
<title>dir_28cb5a05dfb61a4b9ad44e468e6394a4</title>
<g id="a_node9"><a xlink:href="dir_28cb5a05dfb61a4b9ad44e468e6394a4.html" target="_top" xlink:title="view">
<polygon fill="#a2b4d6" stroke="#404040" points="417.62,-36.75 378.38,-36.75 378.38,-16 417.62,-16 417.62,-36.75"/>
<text text-anchor="middle" x="398" y="-23.25" font-family="Helvetica,sans-Serif" font-size="10.00">view</text>
</a>
</g>
</g>
<!-- dir_60528a66b99dd07a1313b3c263e646ab -->
<g id="node10" class="node">
<title>dir_60528a66b99dd07a1313b3c263e646ab</title>
<g id="a_node10"><a xlink:href="dir_60528a66b99dd07a1313b3c263e646ab.html" target="_top" xlink:title="algorithm">
<polygon fill="#a2b4d6" stroke="#404040" points="498.62,-36.75 435.38,-36.75 435.38,-16 498.62,-16 498.62,-36.75"/>
<text text-anchor="middle" x="467" y="-23.25" font-family="Helvetica,sans-Serif" font-size="10.00">algorithm</text>
</a>
</g>
</g>
<!-- dir_289c3fc9695217b968c29372e2a5940c -->
<g id="node11" class="node">
<title>dir_289c3fc9695217b968c29372e2a5940c</title>
<text text-anchor="middle" x="685" y="-80" font-family="Helvetica,sans-Serif" font-size="10.00">hash</text>
</g>
<!-- dir_289c3fc9695217b968c29372e2a5940c&#45;&gt;dir_838362f34bc8d8c3545343b0166aa672 -->
<g id="edge4" class="edge">
<title>dir_289c3fc9695217b968c29372e2a5940c&#45;&gt;dir_838362f34bc8d8c3545343b0166aa672</title>
<g id="a_edge4"><a xlink:href="dir_000087_000037.html" target="_top">
<path fill="none" stroke="#63b8ff" d="M684.67,-73.08C684.43,-66.39 684.08,-56.99 683.77,-48.46"/>
<polygon fill="#63b8ff" stroke="#63b8ff" points="687.27,-48.36 683.41,-38.49 680.27,-48.62 687.27,-48.36"/>
</a>
</g>
<g id="a_edge4&#45;headlabel"><a xlink:href="dir_000087_000037.html" target="_top" xlink:title="5">
<text text-anchor="middle" x="690.18" y="-47.21" font-family="Helvetica,sans-Serif" font-size="10.00" fill="#63b8ff">5</text>
</a>
</g>
</g>
<!-- dir_289c3fc9695217b968c29372e2a5940c&#45;&gt;dir_9f8d33513cfc97e5f9ea6bf2671e5446 -->
<g id="edge6" class="edge">
<title>dir_289c3fc9695217b968c29372e2a5940c&#45;&gt;dir_9f8d33513cfc97e5f9ea6bf2671e5446</title>
<g id="a_edge6"><a xlink:href="dir_000087_000124.html" target="_top">
<path fill="none" stroke="#63b8ff" d="M672.96,-72.84C662.61,-64.86 647.47,-53.18 635.12,-43.66"/>
<polygon fill="#63b8ff" stroke="#63b8ff" points="637.6,-41.15 627.54,-37.82 633.32,-46.69 637.6,-41.15"/>
</a>
</g>
<g id="a_edge6&#45;headlabel"><a xlink:href="dir_000087_000124.html" target="_top" xlink:title="2">
<text text-anchor="middle" x="640.98" y="-37.05" font-family="Helvetica,sans-Serif" font-size="10.00" fill="#63b8ff">2</text>
</a>
</g>
</g>
<!-- dir_0669efae56692bb73da75efb5ebbccdf -->
<g id="node13" class="node">
<title>dir_0669efae56692bb73da75efb5ebbccdf</title>
<g id="a_node13"><a xlink:href="dir_0669efae56692bb73da75efb5ebbccdf.html" target="_top" xlink:title="function">
<polygon fill="#edf0f7" stroke="red" stroke-dasharray="5,2" points="926.88,-36.75 871.12,-36.75 871.12,-16 926.88,-16 926.88,-36.75"/>
<text text-anchor="middle" x="899" y="-23.25" font-family="Helvetica,sans-Serif" font-size="10.00">function</text>
</a>
</g>
</g>
<!-- dir_289c3fc9695217b968c29372e2a5940c&#45;&gt;dir_0669efae56692bb73da75efb5ebbccdf -->
<g id="edge1" class="edge">
<title>dir_289c3fc9695217b968c29372e2a5940c&#45;&gt;dir_0669efae56692bb73da75efb5ebbccdf</title>
<g id="a_edge1"><a xlink:href="dir_000087_000083.html" target="_top">
<path fill="none" stroke="#63b8ff" d="M704.37,-77.17C739.37,-68.22 813.78,-49.18 859.78,-37.41"/>
<polygon fill="#63b8ff" stroke="#63b8ff" points="860.53,-40.83 869.35,-34.96 858.8,-34.05 860.53,-40.83"/>
</a>
</g>
<g id="a_edge1&#45;headlabel"><a xlink:href="dir_000087_000083.html" target="_top" xlink:title="14">
<text text-anchor="middle" x="859.22" y="-40.97" font-family="Helvetica,sans-Serif" font-size="10.00" fill="#63b8ff">14</text>
</a>
</g>
</g>
<!-- dir_30ecaf38acae77be14fb9173f98f8612 -->
<g id="node14" class="node">
<title>dir_30ecaf38acae77be14fb9173f98f8612</title>
<g id="a_node14"><a xlink:href="dir_30ecaf38acae77be14fb9173f98f8612.html" target="_top" xlink:title="types">
<polygon fill="#edf0f7" stroke="#7f7f7f" points="987.5,-36.75 944.5,-36.75 944.5,-16 987.5,-16 987.5,-36.75"/>
<text text-anchor="middle" x="966" y="-23.25" font-family="Helvetica,sans-Serif" font-size="10.00">types</text>
</a>
</g>
</g>
<!-- dir_289c3fc9695217b968c29372e2a5940c&#45;&gt;dir_30ecaf38acae77be14fb9173f98f8612 -->
<g id="edge2" class="edge">
<title>dir_289c3fc9695217b968c29372e2a5940c&#45;&gt;dir_30ecaf38acae77be14fb9173f98f8612</title>
<g id="a_edge2"><a xlink:href="dir_000087_000184.html" target="_top">
<path fill="none" stroke="#63b8ff" d="M704.38,-79.46C745.09,-73.68 842.61,-58.93 933.13,-37.23"/>
<polygon fill="#63b8ff" stroke="#63b8ff" points="933.78,-40.68 942.66,-34.91 932.12,-33.88 933.78,-40.68"/>
</a>
</g>
<g id="a_edge2&#45;headlabel"><a xlink:href="dir_000087_000184.html" target="_top" xlink:title="4">
<text text-anchor="middle" x="932.43" y="-40.81" font-family="Helvetica,sans-Serif" font-size="10.00" fill="#63b8ff">4</text>
</a>
</g>
</g>
<!-- dir_4535887b2cdca47e625f259d07db0112 -->
<g id="node15" class="node">
<title>dir_4535887b2cdca47e625f259d07db0112</title>
<g id="a_node15"><a xlink:href="dir_4535887b2cdca47e625f259d07db0112.html" target="_top" xlink:title="util">
<polygon fill="#edf0f7" stroke="#7f7f7f" points="1036.88,-36.75 1005.12,-36.75 1005.12,-16 1036.88,-16 1036.88,-36.75"/>
<text text-anchor="middle" x="1021" y="-23.25" font-family="Helvetica,sans-Serif" font-size="10.00">util</text>
</a>
</g>
</g>
<!-- dir_289c3fc9695217b968c29372e2a5940c&#45;&gt;dir_4535887b2cdca47e625f259d07db0112 -->
<g id="edge3" class="edge">
<title>dir_289c3fc9695217b968c29372e2a5940c&#45;&gt;dir_4535887b2cdca47e625f259d07db0112</title>
<g id="a_edge3"><a xlink:href="dir_000087_000189.html" target="_top">
<path fill="none" stroke="#63b8ff" d="M704.3,-80.85C752.16,-77.38 880.17,-66.16 993.7,-37.19"/>
<polygon fill="#63b8ff" stroke="#63b8ff" points="994.38,-40.63 1003.17,-34.72 992.61,-33.86 994.38,-40.63"/>
</a>
</g>
<g id="a_edge3&#45;headlabel"><a xlink:href="dir_000087_000189.html" target="_top" xlink:title="10">
<text text-anchor="middle" x="993.09" y="-40.78" font-family="Helvetica,sans-Serif" font-size="10.00" fill="#63b8ff">10</text>
</a>
</g>
</g>
<!-- dir_942cfae36a92b6b1c4b510e99e852d40 -->
<g id="node16" class="node">
<title>dir_942cfae36a92b6b1c4b510e99e852d40</title>
<g id="a_node16"><a xlink:href="dir_942cfae36a92b6b1c4b510e99e852d40.html" target="_top" xlink:title="vocab">
<polygon fill="#edf0f7" stroke="red" stroke-dasharray="5,2" points="1100.62,-36.75 1055.38,-36.75 1055.38,-16 1100.62,-16 1100.62,-36.75"/>
<text text-anchor="middle" x="1078" y="-23.25" font-family="Helvetica,sans-Serif" font-size="10.00">vocab</text>
</a>
</g>
</g>
<!-- dir_289c3fc9695217b968c29372e2a5940c&#45;&gt;dir_942cfae36a92b6b1c4b510e99e852d40 -->
<g id="edge5" class="edge">
<title>dir_289c3fc9695217b968c29372e2a5940c&#45;&gt;dir_942cfae36a92b6b1c4b510e99e852d40</title>
<g id="a_edge5"><a xlink:href="dir_000087_000193.html" target="_top">
<path fill="none" stroke="#63b8ff" d="M704.36,-80.79C757.25,-76.9 908.78,-64.25 1044.08,-36.84"/>
<polygon fill="#63b8ff" stroke="#63b8ff" points="1044.47,-40.33 1053.56,-34.89 1043.06,-33.48 1044.47,-40.33"/>
</a>
</g>
<g id="a_edge5&#45;headlabel"><a xlink:href="dir_000087_000193.html" target="_top" xlink:title="16">
<text text-anchor="middle" x="1043.01" y="-40.41" font-family="Helvetica,sans-Serif" font-size="10.00" fill="#63b8ff">16</text>
</a>
</g>
</g>
<!-- dir_f555f996eeee1ebe901dc71e0c5de8ff -->
<g id="node17" class="node">
<title>dir_f555f996eeee1ebe901dc71e0c5de8ff</title>
<g id="a_node17"><a xlink:href="dir_f555f996eeee1ebe901dc71e0c5de8ff.html" target="_top" xlink:title="meta">
<polygon fill="#edf0f7" stroke="#7f7f7f" points="1159.75,-36.75 1118.25,-36.75 1118.25,-16 1159.75,-16 1159.75,-36.75"/>
<text text-anchor="middle" x="1139" y="-23.25" font-family="Helvetica,sans-Serif" font-size="10.00">meta</text>
</a>
</g>
</g>
<!-- dir_289c3fc9695217b968c29372e2a5940c&#45;&gt;dir_f555f996eeee1ebe901dc71e0c5de8ff -->
<g id="edge7" class="edge">
<title>dir_289c3fc9695217b968c29372e2a5940c&#45;&gt;dir_f555f996eeee1ebe901dc71e0c5de8ff</title>
<g id="a_edge7"><a xlink:href="dir_000087_000126.html" target="_top">
<path fill="none" stroke="#63b8ff" d="M704.28,-81.48C763.39,-79.21 947.25,-69.97 1106.95,-37.05"/>
<polygon fill="#63b8ff" stroke="#63b8ff" points="1107.37,-40.54 1116.43,-35.06 1105.93,-33.69 1107.37,-40.54"/>
</a>
</g>
<g id="a_edge7&#45;headlabel"><a xlink:href="dir_000087_000126.html" target="_top" xlink:title="13">
<text text-anchor="middle" x="1105.91" y="-40.62" font-family="Helvetica,sans-Serif" font-size="10.00" fill="#63b8ff">13</text>
</a>
</g>
</g>
<!-- dir_08634ce485991c3177b7abdfcbda00d8 -->
<g id="node12" class="node">
<title>dir_08634ce485991c3177b7abdfcbda00d8</title>
<g id="a_node12"><a xlink:href="dir_08634ce485991c3177b7abdfcbda00d8.html" target="_top" xlink:title="node">
<polygon fill="#a2b4d6" stroke="#404040" points="647,-93.5 607,-93.5 607,-72.75 647,-72.75 647,-93.5"/>
<text text-anchor="middle" x="627" y="-80" font-family="Helvetica,sans-Serif" font-size="10.00">node</text>
</a>
</g>
</g>
<!-- dir_08634ce485991c3177b7abdfcbda00d8&#45;&gt;dir_838362f34bc8d8c3545343b0166aa672 -->
<g id="edge15" class="edge">
<title>dir_08634ce485991c3177b7abdfcbda00d8&#45;&gt;dir_838362f34bc8d8c3545343b0166aa672</title>
<g id="a_edge15"><a xlink:href="dir_000133_000037.html" target="_top">
<path fill="none" stroke="#63b8ff" d="M637.01,-72.34C644.74,-64.78 655.63,-54.14 664.87,-45.1"/>
<polygon fill="#63b8ff" stroke="#63b8ff" points="667.29,-47.63 671.99,-38.14 662.4,-42.62 667.29,-47.63"/>
</a>
</g>
<g id="a_edge15&#45;headlabel"><a xlink:href="dir_000133_000037.html" target="_top" xlink:title="4">
<text text-anchor="middle" x="667.79" y="-47.99" font-family="Helvetica,sans-Serif" font-size="10.00" fill="#63b8ff">4</text>
</a>
</g>
</g>
<!-- dir_08634ce485991c3177b7abdfcbda00d8&#45;&gt;dir_9f8d33513cfc97e5f9ea6bf2671e5446 -->
<g id="edge18" class="edge">
<title>dir_08634ce485991c3177b7abdfcbda00d8&#45;&gt;dir_9f8d33513cfc97e5f9ea6bf2671e5446</title>
<g id="a_edge18"><a xlink:href="dir_000133_000124.html" target="_top">
<path fill="none" stroke="#63b8ff" d="M624.68,-72.34C623.09,-65.64 620.92,-56.51 618.95,-48.23"/>
<polygon fill="#63b8ff" stroke="#63b8ff" points="622.37,-47.47 616.65,-38.55 615.56,-49.09 622.37,-47.47"/>
</a>
</g>
<g id="a_edge18&#45;headlabel"><a xlink:href="dir_000133_000124.html" target="_top" xlink:title="1">
<text text-anchor="middle" x="625.61" y="-45.72" font-family="Helvetica,sans-Serif" font-size="10.00" fill="#63b8ff">1</text>
</a>
</g>
</g>
<!-- dir_08634ce485991c3177b7abdfcbda00d8&#45;&gt;dir_c0fde34eb1aad6470b7c40f9528ecd51 -->
<g id="edge22" class="edge">
<title>dir_08634ce485991c3177b7abdfcbda00d8&#45;&gt;dir_c0fde34eb1aad6470b7c40f9528ecd51</title>
<g id="a_edge22"><a xlink:href="dir_000133_000100.html" target="_top">
<path fill="none" stroke="#63b8ff" d="M612.52,-72.34C600.65,-64.32 583.63,-52.81 569.77,-43.44"/>
<polygon fill="#63b8ff" stroke="#63b8ff" points="571.85,-40.63 561.61,-37.93 567.93,-46.43 571.85,-40.63"/>
</a>
</g>
<g id="a_edge22&#45;headlabel"><a xlink:href="dir_000133_000100.html" target="_top" xlink:title="8">
<text text-anchor="middle" x="575.17" y="-36.31" font-family="Helvetica,sans-Serif" font-size="10.00" fill="#63b8ff">8</text>
</a>
</g>
</g>
<!-- dir_08634ce485991c3177b7abdfcbda00d8&#45;&gt;dir_093cb0cf41c3d9bb25543a4e1702223c -->
<g id="edge9" class="edge">
<title>dir_08634ce485991c3177b7abdfcbda00d8&#45;&gt;dir_093cb0cf41c3d9bb25543a4e1702223c</title>
<g id="a_edge9"><a xlink:href="dir_000133_000111.html" target="_top">
<path fill="none" stroke="#63b8ff" d="M606.61,-81.76C535.29,-80.21 290.42,-72.57 79.55,-36.89"/>
<polygon fill="#63b8ff" stroke="#63b8ff" points="80.2,-33.45 69.75,-35.21 79.01,-40.35 80.2,-33.45"/>
</a>
</g>
<g id="a_edge9&#45;headlabel"><a xlink:href="dir_000133_000111.html" target="_top" xlink:title="2">
<text text-anchor="middle" x="82.73" y="-27.88" font-family="Helvetica,sans-Serif" font-size="10.00" fill="#63b8ff">2</text>
</a>
</g>
</g>
<!-- dir_08634ce485991c3177b7abdfcbda00d8&#45;&gt;dir_a7b99681c56fba2abd28393cbbc3f22c -->
<g id="edge20" class="edge">
<title>dir_08634ce485991c3177b7abdfcbda00d8&#45;&gt;dir_a7b99681c56fba2abd28393cbbc3f22c</title>
<g id="a_edge20"><a xlink:href="dir_000133_000182.html" target="_top">
<path fill="none" stroke="#63b8ff" d="M606.81,-81.7C540.99,-80 326.71,-72.11 140.94,-36.73"/>
<polygon fill="#63b8ff" stroke="#63b8ff" points="141.85,-33.34 131.36,-34.87 140.51,-40.21 141.85,-33.34"/>
</a>
</g>
<g id="a_edge20&#45;headlabel"><a xlink:href="dir_000133_000182.html" target="_top" xlink:title="1">
<text text-anchor="middle" x="144.43" y="-27.83" font-family="Helvetica,sans-Serif" font-size="10.00" fill="#63b8ff">1</text>
</a>
</g>
</g>
<!-- dir_08634ce485991c3177b7abdfcbda00d8&#45;&gt;dir_75ced0d5626770d74ec0ab0f9ebe51e3 -->
<g id="edge14" class="edge">
<title>dir_08634ce485991c3177b7abdfcbda00d8&#45;&gt;dir_75ced0d5626770d74ec0ab0f9ebe51e3</title>
<g id="a_edge14"><a xlink:href="dir_000133_000005.html" target="_top">
<path fill="none" stroke="#63b8ff" d="M606.72,-80.84C547.99,-76.94 372.63,-63.87 217.89,-37.07"/>
<polygon fill="#63b8ff" stroke="#63b8ff" points="218.74,-33.67 208.28,-35.38 217.52,-40.56 218.74,-33.67"/>
</a>
</g>
<g id="a_edge14&#45;headlabel"><a xlink:href="dir_000133_000005.html" target="_top" xlink:title="16">
<text text-anchor="middle" x="221.28" y="-28.11" font-family="Helvetica,sans-Serif" font-size="10.00" fill="#63b8ff">16</text>
</a>
</g>
</g>
<!-- dir_08634ce485991c3177b7abdfcbda00d8&#45;&gt;dir_8ac75f3e92965d7b87f5a77c8eb4a6b1 -->
<g id="edge16" class="edge">
<title>dir_08634ce485991c3177b7abdfcbda00d8&#45;&gt;dir_8ac75f3e92965d7b87f5a77c8eb4a6b1</title>
<g id="a_edge16"><a xlink:href="dir_000133_000019.html" target="_top">
<path fill="none" stroke="#63b8ff" d="M606.58,-79.72C557.11,-73.79 426.68,-57.56 307,-37"/>
<polygon fill="#63b8ff" stroke="#63b8ff" points="307.76,-33.58 297.31,-35.32 306.57,-40.47 307.76,-33.58"/>
</a>
</g>
<g id="a_edge16&#45;headlabel"><a xlink:href="dir_000133_000019.html" target="_top" xlink:title="4">
<text text-anchor="middle" x="310.3" y="-28.01" font-family="Helvetica,sans-Serif" font-size="10.00" fill="#63b8ff">4</text>
</a>
</g>
</g>
<!-- dir_08634ce485991c3177b7abdfcbda00d8&#45;&gt;dir_f1a41f0d4848adc979771c8b39d6dd9b -->
<g id="edge23" class="edge">
<title>dir_08634ce485991c3177b7abdfcbda00d8&#45;&gt;dir_f1a41f0d4848adc979771c8b39d6dd9b</title>
<g id="a_edge23"><a xlink:href="dir_000133_000191.html" target="_top">
<path fill="none" stroke="#63b8ff" d="M606.77,-79.35C564.73,-73.41 464.7,-58.44 371.7,-37.19"/>
<polygon fill="#63b8ff" stroke="#63b8ff" points="372.69,-33.82 362.16,-34.97 371.11,-40.64 372.69,-33.82"/>
</a>
</g>
<g id="a_edge23&#45;headlabel"><a xlink:href="dir_000133_000191.html" target="_top" xlink:title="8">
<text text-anchor="middle" x="375.36" y="-28.4" font-family="Helvetica,sans-Serif" font-size="10.00" fill="#63b8ff">8</text>
</a>
</g>
</g>
<!-- dir_08634ce485991c3177b7abdfcbda00d8&#45;&gt;dir_28cb5a05dfb61a4b9ad44e468e6394a4 -->
<g id="edge10" class="edge">
<title>dir_08634ce485991c3177b7abdfcbda00d8&#45;&gt;dir_28cb5a05dfb61a4b9ad44e468e6394a4</title>
<g id="a_edge10"><a xlink:href="dir_000133_000192.html" target="_top">
<path fill="none" stroke="#63b8ff" d="M606.57,-78.22C571.84,-71.44 498.88,-56.55 428.87,-37.37"/>
<polygon fill="#63b8ff" stroke="#63b8ff" points="430.14,-34.09 419.57,-34.78 428.27,-40.83 430.14,-34.09"/>
</a>
</g>
<g id="a_edge10&#45;headlabel"><a xlink:href="dir_000133_000192.html" target="_top" xlink:title="4">
<text text-anchor="middle" x="432.91" y="-28.79" font-family="Helvetica,sans-Serif" font-size="10.00" fill="#63b8ff">4</text>
</a>
</g>
</g>
<!-- dir_08634ce485991c3177b7abdfcbda00d8&#45;&gt;dir_60528a66b99dd07a1313b3c263e646ab -->
<g id="edge13" class="edge">
<title>dir_08634ce485991c3177b7abdfcbda00d8&#45;&gt;dir_60528a66b99dd07a1313b3c263e646ab</title>
<g id="a_edge13"><a xlink:href="dir_000133_000003.html" target="_top">
<path fill="none" stroke="#63b8ff" d="M606.74,-75.19C581.61,-66.59 538.23,-51.75 506.45,-40.87"/>
<polygon fill="#63b8ff" stroke="#63b8ff" points="507.77,-37.63 497.17,-37.7 505.5,-44.25 507.77,-37.63"/>
</a>
</g>
<g id="a_edge13&#45;headlabel"><a xlink:href="dir_000133_000003.html" target="_top" xlink:title="2">
<text text-anchor="middle" x="510.66" y="-32.49" font-family="Helvetica,sans-Serif" font-size="10.00" fill="#63b8ff">2</text>
</a>
</g>
</g>
<!-- dir_08634ce485991c3177b7abdfcbda00d8&#45;&gt;dir_0669efae56692bb73da75efb5ebbccdf -->
<g id="edge8" class="edge">
<title>dir_08634ce485991c3177b7abdfcbda00d8&#45;&gt;dir_0669efae56692bb73da75efb5ebbccdf</title>
<g id="a_edge8"><a xlink:href="dir_000133_000083.html" target="_top">
<path fill="none" stroke="#63b8ff" d="M640.89,-72.25C645.5,-69.4 650.79,-66.58 656,-64.75 739.87,-35.32 769.07,-52.88 859.73,-36.93"/>
<polygon fill="#63b8ff" stroke="#63b8ff" points="860.11,-40.42 869.3,-35.15 858.83,-33.54 860.11,-40.42"/>
</a>
</g>
<g id="a_edge8&#45;headlabel"><a xlink:href="dir_000133_000083.html" target="_top" xlink:title="10">
<text text-anchor="middle" x="858.59" y="-40.46" font-family="Helvetica,sans-Serif" font-size="10.00" fill="#63b8ff">10</text>
</a>
</g>
</g>
<!-- dir_08634ce485991c3177b7abdfcbda00d8&#45;&gt;dir_30ecaf38acae77be14fb9173f98f8612 -->
<g id="edge11" class="edge">
<title>dir_08634ce485991c3177b7abdfcbda00d8&#45;&gt;dir_30ecaf38acae77be14fb9173f98f8612</title>
<g id="a_edge11"><a xlink:href="dir_000133_000184.html" target="_top">
<path fill="none" stroke="#63b8ff" d="M640.56,-72.32C645.24,-69.41 650.65,-66.52 656,-64.75 771.25,-26.59 811.12,-59.69 932.92,-36.97"/>
<polygon fill="#63b8ff" stroke="#63b8ff" points="933.56,-40.41 942.69,-35.05 932.21,-33.54 933.56,-40.41"/>
</a>
</g>
<g id="a_edge11&#45;headlabel"><a xlink:href="dir_000133_000184.html" target="_top" xlink:title="1">
<text text-anchor="middle" x="932.06" y="-40.48" font-family="Helvetica,sans-Serif" font-size="10.00" fill="#63b8ff">1</text>
</a>
</g>
</g>
<!-- dir_08634ce485991c3177b7abdfcbda00d8&#45;&gt;dir_4535887b2cdca47e625f259d07db0112 -->
<g id="edge12" class="edge">
<title>dir_08634ce485991c3177b7abdfcbda00d8&#45;&gt;dir_4535887b2cdca47e625f259d07db0112</title>
<g id="a_edge12"><a xlink:href="dir_000133_000189.html" target="_top">
<path fill="none" stroke="#63b8ff" d="M640.54,-72.27C645.22,-69.35 650.64,-66.47 656,-64.75 797.24,-19.37 846.44,-68.48 993.45,-36.99"/>
<polygon fill="#63b8ff" stroke="#63b8ff" points="994.21,-40.41 1003.2,-34.81 992.67,-33.58 994.21,-40.41"/>
</a>
</g>
<g id="a_edge12&#45;headlabel"><a xlink:href="dir_000133_000189.html" target="_top" xlink:title="6">
<text text-anchor="middle" x="992.8" y="-40.51" font-family="Helvetica,sans-Serif" font-size="10.00" fill="#63b8ff">6</text>
</a>
</g>
</g>
<!-- dir_08634ce485991c3177b7abdfcbda00d8&#45;&gt;dir_942cfae36a92b6b1c4b510e99e852d40 -->
<g id="edge17" class="edge">
<title>dir_08634ce485991c3177b7abdfcbda00d8&#45;&gt;dir_942cfae36a92b6b1c4b510e99e852d40</title>
<g id="a_edge17"><a xlink:href="dir_000133_000193.html" target="_top">
<path fill="none" stroke="#63b8ff" d="M640.24,-72.42C644.98,-69.43 650.51,-66.48 656,-64.75 818.24,-13.54 872.69,-65.31 1043.89,-36.68"/>
<polygon fill="#63b8ff" stroke="#63b8ff" points="1044.33,-40.16 1053.58,-34.99 1043.12,-33.26 1044.33,-40.16"/>
</a>
</g>
<g id="a_edge17&#45;headlabel"><a xlink:href="dir_000133_000193.html" target="_top" xlink:title="8">
<text text-anchor="middle" x="1042.77" y="-40.19" font-family="Helvetica,sans-Serif" font-size="10.00" fill="#63b8ff">8</text>
</a>
</g>
</g>
<!-- dir_08634ce485991c3177b7abdfcbda00d8&#45;&gt;dir_f555f996eeee1ebe901dc71e0c5de8ff -->
<g id="edge24" class="edge">
<title>dir_08634ce485991c3177b7abdfcbda00d8&#45;&gt;dir_f555f996eeee1ebe901dc71e0c5de8ff</title>
<g id="a_edge24"><a xlink:href="dir_000133_000126.html" target="_top">
<path fill="none" stroke="#63b8ff" d="M640.23,-72.39C644.97,-69.4 650.51,-66.45 656,-64.75 845.6,-5.96 909.08,-71.89 1106.88,-36.9"/>
<polygon fill="#63b8ff" stroke="#63b8ff" points="1107.25,-40.39 1116.45,-35.13 1105.98,-33.5 1107.25,-40.39"/>
</a>
</g>
<g id="a_edge24&#45;headlabel"><a xlink:href="dir_000133_000126.html" target="_top" xlink:title="6">
<text text-anchor="middle" x="1105.71" y="-40.43" font-family="Helvetica,sans-Serif" font-size="10.00" fill="#63b8ff">6</text>
</a>
</g>
</g>
<!-- dir_aaf67126bd5deefc4d96704f76f22cc2 -->
<g id="node18" class="node">
<title>dir_aaf67126bd5deefc4d96704f76f22cc2</title>
<g id="a_node18"><a xlink:href="dir_aaf67126bd5deefc4d96704f76f22cc2.html" target="_top" xlink:title="platform">
<polygon fill="#edf0f7" stroke="#7f7f7f" points="789,-36.75 731,-36.75 731,-16 789,-16 789,-36.75"/>
<text text-anchor="middle" x="760" y="-23.25" font-family="Helvetica,sans-Serif" font-size="10.00">platform</text>
</a>
</g>
</g>
<!-- dir_08634ce485991c3177b7abdfcbda00d8&#45;&gt;dir_aaf67126bd5deefc4d96704f76f22cc2 -->
<g id="edge21" class="edge">
<title>dir_08634ce485991c3177b7abdfcbda00d8&#45;&gt;dir_aaf67126bd5deefc4d96704f76f22cc2</title>
<g id="a_edge21"><a xlink:href="dir_000133_000139.html" target="_top">
<path fill="none" stroke="#63b8ff" d="M642.05,-72.35C646.45,-69.71 651.33,-66.96 656,-64.75 676.53,-55.02 700.32,-46.3 719.96,-39.73"/>
<polygon fill="#63b8ff" stroke="#63b8ff" points="720.84,-43.12 729.26,-36.69 718.66,-36.47 720.84,-43.12"/>
</a>
</g>
<g id="a_edge21&#45;headlabel"><a xlink:href="dir_000133_000139.html" target="_top" xlink:title="4">
<text text-anchor="middle" x="719.75" y="-43.34" font-family="Helvetica,sans-Serif" font-size="10.00" fill="#63b8ff">4</text>
</a>
</g>
</g>
<!-- dir_a60d4453151dca6bdd8e5fcc350e379b -->
<g id="node19" class="node">
<title>dir_a60d4453151dca6bdd8e5fcc350e379b</title>
<g id="a_node19"><a xlink:href="dir_a60d4453151dca6bdd8e5fcc350e379b.html" target="_top" xlink:title="assert">
<polygon fill="#edf0f7" stroke="#7f7f7f" points="853,-36.75 807,-36.75 807,-16 853,-16 853,-36.75"/>
<text text-anchor="middle" x="830" y="-23.25" font-family="Helvetica,sans-Serif" font-size="10.00">assert</text>
</a>
</g>
</g>
<!-- dir_08634ce485991c3177b7abdfcbda00d8&#45;&gt;dir_a60d4453151dca6bdd8e5fcc350e379b -->
<g id="edge19" class="edge">
<title>dir_08634ce485991c3177b7abdfcbda00d8&#45;&gt;dir_a60d4453151dca6bdd8e5fcc350e379b</title>
<g id="a_edge19"><a xlink:href="dir_000133_000018.html" target="_top">
<path fill="none" stroke="#63b8ff" d="M641.25,-72.26C645.8,-69.48 650.96,-66.69 656,-64.75 712.87,-42.87 733.35,-51.03 795.81,-37.03"/>
<polygon fill="#63b8ff" stroke="#63b8ff" points="796.24,-40.53 805.17,-34.83 794.64,-33.71 796.24,-40.53"/>
</a>
</g>
<g id="a_edge19&#45;headlabel"><a xlink:href="dir_000133_000018.html" target="_top" xlink:title="1">
<text text-anchor="middle" x="794.87" y="-40.64" font-family="Helvetica,sans-Serif" font-size="10.00" fill="#63b8ff">1</text>
</a>
</g>
</g>
</g>
</svg>
