<?xml version="1.0" encoding="UTF-8" standalone="no"?>
<!DOCTYPE svg PUBLIC "-//W3C//DTD SVG 1.1//EN"
 "http://www.w3.org/Graphics/SVG/1.1/DTD/svg11.dtd">
<!-- Generated by graphviz version 10.0.1 (0)
 -->
<!-- Title: libs/di/include/di/math Pages: 1 -->
<svg width="462pt" height="203pt"
 viewBox="0.00 0.00 462.00 203.00" xmlns="http://www.w3.org/2000/svg" xmlns:xlink="http://www.w3.org/1999/xlink">
<g id="graph0" class="graph" transform="scale(1 1) rotate(0) translate(4 199)">
<title>libs/di/include/di/math</title>
<g id="clust1" class="cluster">
<title>clusterdir_f95a1a0ab1b96e316090c1bcac3c2c99</title>
<g id="a_clust1"><a xlink:href="dir_f95a1a0ab1b96e316090c1bcac3c2c99.html" target="_top" xlink:title="di">
<polygon fill="#edf0f7" stroke="#7f7f7f" stroke-dasharray="5,2" points="8,-8 8,-187 446,-187 446,-8 8,-8"/>
<text text-anchor="middle" x="227" y="-173.5" font-family="Helvetica,sans-Serif" font-size="10.00">di</text>
</a>
</g>
</g>
<g id="clust2" class="cluster">
<title>clusterdir_60d1624911c2c9f7b6f38e44ec895aaa</title>
<g id="a_clust2"><a xlink:href="dir_60d1624911c2c9f7b6f38e44ec895aaa.html" target="_top">
<polygon fill="#edf0f7" stroke="#404040" stroke-width="2" points="188,-64.75 188,-158.25 326,-158.25 326,-64.75 188,-64.75"/>
</a>
</g>
</g>
<!-- dir_0669efae56692bb73da75efb5ebbccdf -->
<g id="node1" class="node">
<title>dir_0669efae56692bb73da75efb5ebbccdf</title>
<g id="a_node1"><a xlink:href="dir_0669efae56692bb73da75efb5ebbccdf.html" target="_top" xlink:title="function">
<polygon fill="#a2b4d6" stroke="red" points="111.88,-93.5 56.12,-93.5 56.12,-72.75 111.88,-72.75 111.88,-93.5"/>
<text text-anchor="middle" x="84" y="-80" font-family="Helvetica,sans-Serif" font-size="10.00">function</text>
</a>
</g>
</g>
<!-- dir_143f1d6bc6d46924c644ec67dc1fb4fc -->
<g id="node2" class="node">
<title>dir_143f1d6bc6d46924c644ec67dc1fb4fc</title>
<g id="a_node2"><a xlink:href="dir_143f1d6bc6d46924c644ec67dc1fb4fc.html" target="_top" xlink:title="bit">
<polygon fill="#a2b4d6" stroke="red" points="178.4,-93.5 149.6,-93.5 149.6,-72.75 178.4,-72.75 178.4,-93.5"/>
<text text-anchor="middle" x="164" y="-80" font-family="Helvetica,sans-Serif" font-size="10.00">bit</text>
</a>
</g>
</g>
<!-- dir_30ecaf38acae77be14fb9173f98f8612 -->
<g id="node3" class="node">
<title>dir_30ecaf38acae77be14fb9173f98f8612</title>
<g id="a_node3"><a xlink:href="dir_30ecaf38acae77be14fb9173f98f8612.html" target="_top" xlink:title="types">
<polygon fill="#a2b4d6" stroke="#404040" points="168.5,-36.75 125.5,-36.75 125.5,-16 168.5,-16 168.5,-36.75"/>
<text text-anchor="middle" x="147" y="-23.25" font-family="Helvetica,sans-Serif" font-size="10.00">types</text>
</a>
</g>
</g>
<!-- dir_521de572ae4fe2915cc70a876c52f5b7 -->
<g id="node4" class="node">
<title>dir_521de572ae4fe2915cc70a876c52f5b7</title>
<g id="a_node4"><a xlink:href="dir_521de572ae4fe2915cc70a876c52f5b7.html" target="_top" xlink:title="container">
<polygon fill="#a2b4d6" stroke="red" points="397.88,-93.5 336.12,-93.5 336.12,-72.75 397.88,-72.75 397.88,-93.5"/>
<text text-anchor="middle" x="367" y="-80" font-family="Helvetica,sans-Serif" font-size="10.00">container</text>
</a>
</g>
</g>
<!-- dir_942cfae36a92b6b1c4b510e99e852d40 -->
<g id="node5" class="node">
<title>dir_942cfae36a92b6b1c4b510e99e852d40</title>
<g id="a_node5"><a xlink:href="dir_942cfae36a92b6b1c4b510e99e852d40.html" target="_top" xlink:title="vocab">
<polygon fill="#a2b4d6" stroke="red" points="420.62,-36.75 375.38,-36.75 375.38,-16 420.62,-16 420.62,-36.75"/>
<text text-anchor="middle" x="398" y="-23.25" font-family="Helvetica,sans-Serif" font-size="10.00">vocab</text>
</a>
</g>
</g>
<!-- dir_a60d4453151dca6bdd8e5fcc350e379b -->
<g id="node6" class="node">
<title>dir_a60d4453151dca6bdd8e5fcc350e379b</title>
<g id="a_node6"><a xlink:href="dir_a60d4453151dca6bdd8e5fcc350e379b.html" target="_top" xlink:title="assert">
<polygon fill="#a2b4d6" stroke="#404040" points="341,-36.75 295,-36.75 295,-16 341,-16 341,-36.75"/>
<text text-anchor="middle" x="318" y="-23.25" font-family="Helvetica,sans-Serif" font-size="10.00">assert</text>
</a>
</g>
</g>
<!-- dir_f555f996eeee1ebe901dc71e0c5de8ff -->
<g id="node7" class="node">
<title>dir_f555f996eeee1ebe901dc71e0c5de8ff</title>
<g id="a_node7"><a xlink:href="dir_f555f996eeee1ebe901dc71e0c5de8ff.html" target="_top" xlink:title="meta">
<polygon fill="#a2b4d6" stroke="#404040" points="243.75,-36.75 202.25,-36.75 202.25,-16 243.75,-16 243.75,-36.75"/>
<text text-anchor="middle" x="223" y="-23.25" font-family="Helvetica,sans-Serif" font-size="10.00">meta</text>
</a>
</g>
</g>
<!-- dir_60d1624911c2c9f7b6f38e44ec895aaa -->
<g id="node8" class="node">
<title>dir_60d1624911c2c9f7b6f38e44ec895aaa</title>
<text text-anchor="middle" x="217" y="-136.75" font-family="Helvetica,sans-Serif" font-size="10.00">math</text>
</g>
<!-- dir_60d1624911c2c9f7b6f38e44ec895aaa&#45;&gt;dir_0669efae56692bb73da75efb5ebbccdf -->
<g id="edge1" class="edge">
<title>dir_60d1624911c2c9f7b6f38e44ec895aaa&#45;&gt;dir_0669efae56692bb73da75efb5ebbccdf</title>
<g id="a_edge1"><a xlink:href="dir_000121_000083.html" target="_top">
<path fill="none" stroke="#63b8ff" d="M196.51,-130.44C175.69,-121.87 143.07,-108.44 118.3,-98.25"/>
<polygon fill="#63b8ff" stroke="#63b8ff" points="119.87,-95.1 109.29,-94.53 117.2,-101.58 119.87,-95.1"/>
</a>
</g>
<g id="a_edge1&#45;headlabel"><a xlink:href="dir_000121_000083.html" target="_top" xlink:title="11">
<text text-anchor="middle" x="122.87" y="-90.15" font-family="Helvetica,sans-Serif" font-size="10.00" fill="#63b8ff">11</text>
</a>
</g>
</g>
<!-- dir_60d1624911c2c9f7b6f38e44ec895aaa&#45;&gt;dir_30ecaf38acae77be14fb9173f98f8612 -->
<g id="edge2" class="edge">
<title>dir_60d1624911c2c9f7b6f38e44ec895aaa&#45;&gt;dir_30ecaf38acae77be14fb9173f98f8612</title>
<g id="a_edge2"><a xlink:href="dir_000121_000184.html" target="_top">
<path fill="none" stroke="#63b8ff" d="M196.26,-136.86C152.87,-132.15 54.85,-118.9 35,-93.5 27.13,-83.43 27.53,-75.12 35,-64.75 52.87,-39.94 87.94,-31.36 114.1,-28.51"/>
<polygon fill="#63b8ff" stroke="#63b8ff" points="114.21,-32.01 123.89,-27.69 113.63,-25.04 114.21,-32.01"/>
</a>
</g>
<g id="a_edge2&#45;headlabel"><a xlink:href="dir_000121_000184.html" target="_top" xlink:title="8">
<text text-anchor="middle" x="112.37" y="-31.89" font-family="Helvetica,sans-Serif" font-size="10.00" fill="#63b8ff">8</text>
</a>
</g>
</g>
<!-- dir_60d1624911c2c9f7b6f38e44ec895aaa&#45;&gt;dir_f555f996eeee1ebe901dc71e0c5de8ff -->
<g id="edge5" class="edge">
<title>dir_60d1624911c2c9f7b6f38e44ec895aaa&#45;&gt;dir_f555f996eeee1ebe901dc71e0c5de8ff</title>
<g id="a_edge5"><a xlink:href="dir_000121_000126.html" target="_top">
<path fill="none" stroke="#63b8ff" d="M196.48,-137.49C142.75,-133.12 4.95,-116.67 47,-64.75 47.57,-64.04 140.23,-44.63 190.86,-34.07"/>
<polygon fill="#63b8ff" stroke="#63b8ff" points="191.3,-37.55 200.38,-32.09 189.87,-30.7 191.3,-37.55"/>
</a>
</g>
<g id="a_edge5&#45;headlabel"><a xlink:href="dir_000121_000126.html" target="_top" xlink:title="22">
<text text-anchor="middle" x="189.84" y="-37.63" font-family="Helvetica,sans-Serif" font-size="10.00" fill="#63b8ff">22</text>
</a>
</g>
</g>
<!-- dir_96f7d32698a29650115b9c86e570fc5e -->
<g id="node10" class="node">
<title>dir_96f7d32698a29650115b9c86e570fc5e</title>
<g id="a_node10"><a xlink:href="dir_96f7d32698a29650115b9c86e570fc5e.html" target="_top" xlink:title="intcmp">
<polygon fill="#a2b4d6" stroke="#404040" points="317.88,-93.5 268.12,-93.5 268.12,-72.75 317.88,-72.75 317.88,-93.5"/>
<text text-anchor="middle" x="293" y="-80" font-family="Helvetica,sans-Serif" font-size="10.00">intcmp</text>
</a>
</g>
</g>
<!-- dir_60d1624911c2c9f7b6f38e44ec895aaa&#45;&gt;dir_96f7d32698a29650115b9c86e570fc5e -->
<g id="edge3" class="edge">
<title>dir_60d1624911c2c9f7b6f38e44ec895aaa&#45;&gt;dir_96f7d32698a29650115b9c86e570fc5e</title>
<g id="a_edge3"><a xlink:href="dir_000121_000096.html" target="_top">
<path fill="none" stroke="#63b8ff" d="M229.89,-129.59C241,-121.58 257.29,-109.85 270.54,-100.3"/>
<polygon fill="#63b8ff" stroke="#63b8ff" points="272.24,-103.4 278.3,-94.71 268.14,-97.72 272.24,-103.4"/>
</a>
</g>
<g id="a_edge3&#45;headlabel"><a xlink:href="dir_000121_000096.html" target="_top" xlink:title="1">
<text text-anchor="middle" x="272.21" y="-103.79" font-family="Helvetica,sans-Serif" font-size="10.00" fill="#63b8ff">1</text>
</a>
</g>
</g>
<!-- dir_c8f8998a7451d590aa603b46847dceda -->
<g id="node11" class="node">
<title>dir_c8f8998a7451d590aa603b46847dceda</title>
<g id="a_node11"><a xlink:href="dir_c8f8998a7451d590aa603b46847dceda.html" target="_top" xlink:title="rational">
<polygon fill="#a2b4d6" stroke="#404040" points="249.75,-93.5 196.25,-93.5 196.25,-72.75 249.75,-72.75 249.75,-93.5"/>
<text text-anchor="middle" x="223" y="-80" font-family="Helvetica,sans-Serif" font-size="10.00">rational</text>
</a>
</g>
</g>
<!-- dir_60d1624911c2c9f7b6f38e44ec895aaa&#45;&gt;dir_c8f8998a7451d590aa603b46847dceda -->
<g id="edge4" class="edge">
<title>dir_60d1624911c2c9f7b6f38e44ec895aaa&#45;&gt;dir_c8f8998a7451d590aa603b46847dceda</title>
<g id="a_edge4"><a xlink:href="dir_000121_000147.html" target="_top">
<path fill="none" stroke="#63b8ff" d="M217.99,-129.83C218.73,-123.06 219.78,-113.52 220.72,-104.91"/>
<polygon fill="#63b8ff" stroke="#63b8ff" points="224.17,-105.56 221.78,-95.24 217.21,-104.8 224.17,-105.56"/>
</a>
</g>
<g id="a_edge4&#45;headlabel"><a xlink:href="dir_000121_000147.html" target="_top" xlink:title="1">
<text text-anchor="middle" x="226.77" y="-104.81" font-family="Helvetica,sans-Serif" font-size="10.00" fill="#63b8ff">1</text>
</a>
</g>
</g>
<!-- dir_a6d9e40a1db007d90a1d86f0cd034598 -->
<g id="node9" class="node">
<title>dir_a6d9e40a1db007d90a1d86f0cd034598</title>
<g id="a_node9"><a xlink:href="dir_a6d9e40a1db007d90a1d86f0cd034598.html" target="_top" xlink:title="bigint">
<polygon fill="#a2b4d6" stroke="#404040" points="308.88,-150.25 265.12,-150.25 265.12,-129.5 308.88,-129.5 308.88,-150.25"/>
<text text-anchor="middle" x="287" y="-136.75" font-family="Helvetica,sans-Serif" font-size="10.00">bigint</text>
</a>
</g>
</g>
<!-- dir_a6d9e40a1db007d90a1d86f0cd034598&#45;&gt;dir_0669efae56692bb73da75efb5ebbccdf -->
<g id="edge6" class="edge">
<title>dir_a6d9e40a1db007d90a1d86f0cd034598&#45;&gt;dir_0669efae56692bb73da75efb5ebbccdf</title>
<g id="a_edge6"><a xlink:href="dir_000021_000083.html" target="_top">
<path fill="none" stroke="#63b8ff" d="M264.89,-132.91C230.91,-123.75 165.37,-106.07 123.2,-94.7"/>
<polygon fill="#63b8ff" stroke="#63b8ff" points="124.27,-91.36 113.7,-92.14 122.45,-98.12 124.27,-91.36"/>
</a>
</g>
<g id="a_edge6&#45;headlabel"><a xlink:href="dir_000021_000083.html" target="_top" xlink:title="1">
<text text-anchor="middle" x="127.02" y="-86.04" font-family="Helvetica,sans-Serif" font-size="10.00" fill="#63b8ff">1</text>
</a>
</g>
</g>
<!-- dir_a6d9e40a1db007d90a1d86f0cd034598&#45;&gt;dir_143f1d6bc6d46924c644ec67dc1fb4fc -->
<g id="edge7" class="edge">
<title>dir_a6d9e40a1db007d90a1d86f0cd034598&#45;&gt;dir_143f1d6bc6d46924c644ec67dc1fb4fc</title>
<g id="a_edge7"><a xlink:href="dir_000021_000022.html" target="_top">
<path fill="none" stroke="#63b8ff" d="M264.83,-129.29C246.13,-121.16 218.41,-109.03 189.21,-95.83"/>
<polygon fill="#63b8ff" stroke="#63b8ff" points="190.77,-92.7 180.21,-91.75 187.87,-99.07 190.77,-92.7"/>
</a>
</g>
<g id="a_edge7&#45;headlabel"><a xlink:href="dir_000021_000022.html" target="_top" xlink:title="2">
<text text-anchor="middle" x="193.83" y="-87.84" font-family="Helvetica,sans-Serif" font-size="10.00" fill="#63b8ff">2</text>
</a>
</g>
</g>
<!-- dir_a6d9e40a1db007d90a1d86f0cd034598&#45;&gt;dir_30ecaf38acae77be14fb9173f98f8612 -->
<g id="edge8" class="edge">
<title>dir_a6d9e40a1db007d90a1d86f0cd034598&#45;&gt;dir_30ecaf38acae77be14fb9173f98f8612</title>
<g id="a_edge8"><a xlink:href="dir_000021_000184.html" target="_top">
<path fill="none" stroke="#63b8ff" d="M264.69,-133.48C225.68,-123.83 148.5,-103.68 141,-93.5 131.39,-80.45 134.15,-61.78 138.59,-47.61"/>
<polygon fill="#63b8ff" stroke="#63b8ff" points="141.8,-49 141.95,-38.4 135.23,-46.59 141.8,-49"/>
</a>
</g>
<g id="a_edge8&#45;headlabel"><a xlink:href="dir_000021_000184.html" target="_top" xlink:title="3">
<text text-anchor="middle" x="143.76" y="-48.8" font-family="Helvetica,sans-Serif" font-size="10.00" fill="#63b8ff">3</text>
</a>
</g>
</g>
<!-- dir_a6d9e40a1db007d90a1d86f0cd034598&#45;&gt;dir_521de572ae4fe2915cc70a876c52f5b7 -->
<g id="edge9" class="edge">
<title>dir_a6d9e40a1db007d90a1d86f0cd034598&#45;&gt;dir_521de572ae4fe2915cc70a876c52f5b7</title>
<g id="a_edge9"><a xlink:href="dir_000021_000046.html" target="_top">
<path fill="none" stroke="#63b8ff" d="M301.3,-129.09C313.02,-121.07 329.84,-109.56 343.53,-100.19"/>
<polygon fill="#63b8ff" stroke="#63b8ff" points="345.3,-103.22 351.57,-94.68 341.34,-97.44 345.3,-103.22"/>
</a>
</g>
<g id="a_edge9&#45;headlabel"><a xlink:href="dir_000021_000046.html" target="_top" xlink:title="6">
<text text-anchor="middle" x="345.18" y="-103.61" font-family="Helvetica,sans-Serif" font-size="10.00" fill="#63b8ff">6</text>
</a>
</g>
</g>
<!-- dir_a6d9e40a1db007d90a1d86f0cd034598&#45;&gt;dir_942cfae36a92b6b1c4b510e99e852d40 -->
<g id="edge10" class="edge">
<title>dir_a6d9e40a1db007d90a1d86f0cd034598&#45;&gt;dir_942cfae36a92b6b1c4b510e99e852d40</title>
<g id="a_edge10"><a xlink:href="dir_000021_000193.html" target="_top">
<path fill="none" stroke="#63b8ff" d="M309,-138.26C338.56,-136.1 390.13,-127.38 414,-93.5 423.76,-79.65 417.56,-60.56 410.22,-46.45"/>
<polygon fill="#63b8ff" stroke="#63b8ff" points="413.43,-45.01 405.39,-38.11 407.37,-48.52 413.43,-45.01"/>
</a>
</g>
<g id="a_edge10&#45;headlabel"><a xlink:href="dir_000021_000193.html" target="_top" xlink:title="5">
<text text-anchor="middle" x="416.93" y="-42.27" font-family="Helvetica,sans-Serif" font-size="10.00" fill="#63b8ff">5</text>
</a>
</g>
</g>
<!-- dir_a6d9e40a1db007d90a1d86f0cd034598&#45;&gt;dir_a60d4453151dca6bdd8e5fcc350e379b -->
<g id="edge11" class="edge">
<title>dir_a6d9e40a1db007d90a1d86f0cd034598&#45;&gt;dir_a60d4453151dca6bdd8e5fcc350e379b</title>
<g id="a_edge11"><a xlink:href="dir_000021_000018.html" target="_top">
<path fill="none" stroke="#63b8ff" d="M309.27,-137.7C337.45,-134.89 384.97,-125.38 407,-93.5 414.26,-82.99 414.07,-75.39 407,-64.75 400.49,-54.96 374.39,-44.67 352.12,-37.38"/>
<polygon fill="#63b8ff" stroke="#63b8ff" points="353.31,-34.08 342.72,-34.41 351.2,-40.76 353.31,-34.08"/>
</a>
</g>
<g id="a_edge11&#45;headlabel"><a xlink:href="dir_000021_000018.html" target="_top" xlink:title="1">
<text text-anchor="middle" x="356.15" y="-28.88" font-family="Helvetica,sans-Serif" font-size="10.00" fill="#63b8ff">1</text>
</a>
</g>
</g>
<!-- dir_96f7d32698a29650115b9c86e570fc5e&#45;&gt;dir_30ecaf38acae77be14fb9173f98f8612 -->
<g id="edge12" class="edge">
<title>dir_96f7d32698a29650115b9c86e570fc5e&#45;&gt;dir_30ecaf38acae77be14fb9173f98f8612</title>
<g id="a_edge12"><a xlink:href="dir_000096_000184.html" target="_top">
<path fill="none" stroke="#63b8ff" d="M275.24,-72.41C270.08,-69.77 264.38,-67.01 259,-64.75 232.92,-53.81 202.43,-43.81 179.85,-36.91"/>
<polygon fill="#63b8ff" stroke="#63b8ff" points="180.86,-33.56 170.28,-34.03 178.84,-40.26 180.86,-33.56"/>
</a>
</g>
<g id="a_edge12&#45;headlabel"><a xlink:href="dir_000096_000184.html" target="_top" xlink:title="1">
<text text-anchor="middle" x="183.67" y="-28.31" font-family="Helvetica,sans-Serif" font-size="10.00" fill="#63b8ff">1</text>
</a>
</g>
</g>
<!-- dir_96f7d32698a29650115b9c86e570fc5e&#45;&gt;dir_942cfae36a92b6b1c4b510e99e852d40 -->
<g id="edge13" class="edge">
<title>dir_96f7d32698a29650115b9c86e570fc5e&#45;&gt;dir_942cfae36a92b6b1c4b510e99e852d40</title>
<g id="a_edge13"><a xlink:href="dir_000096_000193.html" target="_top">
<path fill="none" stroke="#63b8ff" d="M308.82,-72.33C313.06,-69.79 317.67,-67.11 322,-64.75 336.51,-56.85 352.92,-48.69 366.78,-42.01"/>
<polygon fill="#63b8ff" stroke="#63b8ff" points="367.91,-45.35 375.43,-37.88 364.9,-39.03 367.91,-45.35"/>
</a>
</g>
<g id="a_edge13&#45;headlabel"><a xlink:href="dir_000096_000193.html" target="_top" xlink:title="2">
<text text-anchor="middle" x="367.26" y="-45.68" font-family="Helvetica,sans-Serif" font-size="10.00" fill="#63b8ff">2</text>
</a>
</g>
</g>
<!-- dir_96f7d32698a29650115b9c86e570fc5e&#45;&gt;dir_f555f996eeee1ebe901dc71e0c5de8ff -->
<g id="edge14" class="edge">
<title>dir_96f7d32698a29650115b9c86e570fc5e&#45;&gt;dir_f555f996eeee1ebe901dc71e0c5de8ff</title>
<g id="a_edge14"><a xlink:href="dir_000096_000126.html" target="_top">
<path fill="none" stroke="#63b8ff" d="M280.49,-72.34C270.43,-64.47 256.09,-53.25 244.24,-43.99"/>
<polygon fill="#63b8ff" stroke="#63b8ff" points="246.63,-41.41 236.6,-38.01 242.32,-46.93 246.63,-41.41"/>
</a>
</g>
<g id="a_edge14&#45;headlabel"><a xlink:href="dir_000096_000126.html" target="_top" xlink:title="4">
<text text-anchor="middle" x="250.02" y="-37.34" font-family="Helvetica,sans-Serif" font-size="10.00" fill="#63b8ff">4</text>
</a>
</g>
</g>
<!-- dir_c8f8998a7451d590aa603b46847dceda&#45;&gt;dir_30ecaf38acae77be14fb9173f98f8612 -->
<g id="edge15" class="edge">
<title>dir_c8f8998a7451d590aa603b46847dceda&#45;&gt;dir_30ecaf38acae77be14fb9173f98f8612</title>
<g id="a_edge15"><a xlink:href="dir_000147_000184.html" target="_top">
<path fill="none" stroke="#63b8ff" d="M209.41,-72.34C198.39,-64.4 182.61,-53.03 169.68,-43.71"/>
<polygon fill="#63b8ff" stroke="#63b8ff" points="171.86,-40.97 161.7,-37.96 167.77,-46.65 171.86,-40.97"/>
</a>
</g>
<g id="a_edge15&#45;headlabel"><a xlink:href="dir_000147_000184.html" target="_top" xlink:title="1">
<text text-anchor="middle" x="175.21" y="-36.76" font-family="Helvetica,sans-Serif" font-size="10.00" fill="#63b8ff">1</text>
</a>
</g>
</g>
<!-- dir_c8f8998a7451d590aa603b46847dceda&#45;&gt;dir_a60d4453151dca6bdd8e5fcc350e379b -->
<g id="edge16" class="edge">
<title>dir_c8f8998a7451d590aa603b46847dceda&#45;&gt;dir_a60d4453151dca6bdd8e5fcc350e379b</title>
<g id="a_edge16"><a xlink:href="dir_000147_000018.html" target="_top">
<path fill="none" stroke="#63b8ff" d="M239.98,-72.34C254.3,-64.08 275.04,-52.13 291.54,-42.63"/>
<polygon fill="#63b8ff" stroke="#63b8ff" points="292.94,-45.86 299.85,-37.83 289.44,-39.8 292.94,-45.86"/>
</a>
</g>
<g id="a_edge16&#45;headlabel"><a xlink:href="dir_000147_000018.html" target="_top" xlink:title="1">
<text text-anchor="middle" x="292.55" y="-46.23" font-family="Helvetica,sans-Serif" font-size="10.00" fill="#63b8ff">1</text>
</a>
</g>
</g>
<!-- dir_c8f8998a7451d590aa603b46847dceda&#45;&gt;dir_f555f996eeee1ebe901dc71e0c5de8ff -->
<g id="edge17" class="edge">
<title>dir_c8f8998a7451d590aa603b46847dceda&#45;&gt;dir_f555f996eeee1ebe901dc71e0c5de8ff</title>
<g id="a_edge17"><a xlink:href="dir_000147_000126.html" target="_top">
<path fill="none" stroke="#63b8ff" d="M223,-72.34C223,-65.72 223,-56.72 223,-48.52"/>
<polygon fill="#63b8ff" stroke="#63b8ff" points="226.5,-48.59 223,-38.59 219.5,-48.59 226.5,-48.59"/>
</a>
</g>
<g id="a_edge17&#45;headlabel"><a xlink:href="dir_000147_000126.html" target="_top" xlink:title="2">
<text text-anchor="middle" x="229.34" y="-47.55" font-family="Helvetica,sans-Serif" font-size="10.00" fill="#63b8ff">2</text>
</a>
</g>
</g>
</g>
</svg>
