<?xml version="1.0" encoding="UTF-8" standalone="no"?>
<!DOCTYPE svg PUBLIC "-//W3C//DTD SVG 1.1//EN"
 "http://www.w3.org/Graphics/SVG/1.1/DTD/svg11.dtd">
<!-- Generated by graphviz version 10.0.1 (0)
 -->
<!-- Title: libs/di/include/di/io Pages: 1 -->
<svg width="527pt" height="203pt"
 viewBox="0.00 0.00 527.00 203.00" xmlns="http://www.w3.org/2000/svg" xmlns:xlink="http://www.w3.org/1999/xlink">
<g id="graph0" class="graph" transform="scale(1 1) rotate(0) translate(4 199)">
<title>libs/di/include/di/io</title>
<g id="clust1" class="cluster">
<title>clusterdir_f95a1a0ab1b96e316090c1bcac3c2c99</title>
<g id="a_clust1"><a xlink:href="dir_f95a1a0ab1b96e316090c1bcac3c2c99.html" target="_top" xlink:title="di">
<polygon fill="#edf0f7" stroke="#7f7f7f" stroke-dasharray="5,2" points="8,-8 8,-187 511,-187 511,-8 8,-8"/>
<text text-anchor="middle" x="259.5" y="-173.5" font-family="Helvetica,sans-Serif" font-size="10.00">di</text>
</a>
</g>
</g>
<g id="clust2" class="cluster">
<title>clusterdir_cd43612992eaeb46558dd8835da126ed</title>
<g id="a_clust2"><a xlink:href="dir_cd43612992eaeb46558dd8835da126ed.html" target="_top">
<polygon fill="#edf0f7" stroke="#404040" stroke-width="2" points="263,-64.75 263,-158.25 339,-158.25 339,-64.75 263,-64.75"/>
</a>
</g>
</g>
<!-- dir_0669efae56692bb73da75efb5ebbccdf -->
<g id="node1" class="node">
<title>dir_0669efae56692bb73da75efb5ebbccdf</title>
<g id="a_node1"><a xlink:href="dir_0669efae56692bb73da75efb5ebbccdf.html" target="_top" xlink:title="function">
<polygon fill="#a2b4d6" stroke="red" points="91.88,-93.5 36.12,-93.5 36.12,-72.75 91.88,-72.75 91.88,-93.5"/>
<text text-anchor="middle" x="64" y="-80" font-family="Helvetica,sans-Serif" font-size="10.00">function</text>
</a>
</g>
</g>
<!-- dir_30ecaf38acae77be14fb9173f98f8612 -->
<g id="node2" class="node">
<title>dir_30ecaf38acae77be14fb9173f98f8612</title>
<g id="a_node2"><a xlink:href="dir_30ecaf38acae77be14fb9173f98f8612.html" target="_top" xlink:title="types">
<polygon fill="#a2b4d6" stroke="#404040" points="152.5,-93.5 109.5,-93.5 109.5,-72.75 152.5,-72.75 152.5,-93.5"/>
<text text-anchor="middle" x="131" y="-80" font-family="Helvetica,sans-Serif" font-size="10.00">types</text>
</a>
</g>
</g>
<!-- dir_4535887b2cdca47e625f259d07db0112 -->
<g id="node3" class="node">
<title>dir_4535887b2cdca47e625f259d07db0112</title>
<g id="a_node3"><a xlink:href="dir_4535887b2cdca47e625f259d07db0112.html" target="_top" xlink:title="util">
<polygon fill="#a2b4d6" stroke="#404040" points="140.88,-36.75 109.12,-36.75 109.12,-16 140.88,-16 140.88,-36.75"/>
<text text-anchor="middle" x="125" y="-23.25" font-family="Helvetica,sans-Serif" font-size="10.00">util</text>
</a>
</g>
</g>
<!-- dir_521de572ae4fe2915cc70a876c52f5b7 -->
<g id="node4" class="node">
<title>dir_521de572ae4fe2915cc70a876c52f5b7</title>
<g id="a_node4"><a xlink:href="dir_521de572ae4fe2915cc70a876c52f5b7.html" target="_top" xlink:title="container">
<polygon fill="#a2b4d6" stroke="red" points="252.88,-93.5 191.12,-93.5 191.12,-72.75 252.88,-72.75 252.88,-93.5"/>
<text text-anchor="middle" x="222" y="-80" font-family="Helvetica,sans-Serif" font-size="10.00">container</text>
</a>
</g>
</g>
<!-- dir_942cfae36a92b6b1c4b510e99e852d40 -->
<g id="node5" class="node">
<title>dir_942cfae36a92b6b1c4b510e99e852d40</title>
<g id="a_node5"><a xlink:href="dir_942cfae36a92b6b1c4b510e99e852d40.html" target="_top" xlink:title="vocab">
<polygon fill="#a2b4d6" stroke="red" points="245.62,-36.75 200.38,-36.75 200.38,-16 245.62,-16 245.62,-36.75"/>
<text text-anchor="middle" x="223" y="-23.25" font-family="Helvetica,sans-Serif" font-size="10.00">vocab</text>
</a>
</g>
</g>
<!-- dir_a60d4453151dca6bdd8e5fcc350e379b -->
<g id="node6" class="node">
<title>dir_a60d4453151dca6bdd8e5fcc350e379b</title>
<g id="a_node6"><a xlink:href="dir_a60d4453151dca6bdd8e5fcc350e379b.html" target="_top" xlink:title="assert">
<polygon fill="#a2b4d6" stroke="#404040" points="395,-93.5 349,-93.5 349,-72.75 395,-72.75 395,-93.5"/>
<text text-anchor="middle" x="372" y="-80" font-family="Helvetica,sans-Serif" font-size="10.00">assert</text>
</a>
</g>
</g>
<!-- dir_e41b746b2bc627b26c4c637af42fb69a -->
<g id="node7" class="node">
<title>dir_e41b746b2bc627b26c4c637af42fb69a</title>
<g id="a_node7"><a xlink:href="dir_e41b746b2bc627b26c4c637af42fb69a.html" target="_top" xlink:title="format">
<polygon fill="#a2b4d6" stroke="red" points="462.5,-93.5 413.5,-93.5 413.5,-72.75 462.5,-72.75 462.5,-93.5"/>
<text text-anchor="middle" x="438" y="-80" font-family="Helvetica,sans-Serif" font-size="10.00">format</text>
</a>
</g>
</g>
<!-- dir_e44b40e2f7a090819cf1915a0b103ff1 -->
<g id="node8" class="node">
<title>dir_e44b40e2f7a090819cf1915a0b103ff1</title>
<g id="a_node8"><a xlink:href="dir_e44b40e2f7a090819cf1915a0b103ff1.html" target="_top" xlink:title="any">
<polygon fill="#a2b4d6" stroke="red" points="349,-36.75 315,-36.75 315,-16 349,-16 349,-36.75"/>
<text text-anchor="middle" x="332" y="-23.25" font-family="Helvetica,sans-Serif" font-size="10.00">any</text>
</a>
</g>
</g>
<!-- dir_f555f996eeee1ebe901dc71e0c5de8ff -->
<g id="node9" class="node">
<title>dir_f555f996eeee1ebe901dc71e0c5de8ff</title>
<g id="a_node9"><a xlink:href="dir_f555f996eeee1ebe901dc71e0c5de8ff.html" target="_top" xlink:title="meta">
<polygon fill="#a2b4d6" stroke="#404040" points="470.75,-36.75 429.25,-36.75 429.25,-16 470.75,-16 470.75,-36.75"/>
<text text-anchor="middle" x="450" y="-23.25" font-family="Helvetica,sans-Serif" font-size="10.00">meta</text>
</a>
</g>
</g>
<!-- dir_cd43612992eaeb46558dd8835da126ed -->
<g id="node10" class="node">
<title>dir_cd43612992eaeb46558dd8835da126ed</title>
<text text-anchor="middle" x="293" y="-136.75" font-family="Helvetica,sans-Serif" font-size="10.00">io</text>
</g>
<!-- dir_cd43612992eaeb46558dd8835da126ed&#45;&gt;dir_0669efae56692bb73da75efb5ebbccdf -->
<g id="edge1" class="edge">
<title>dir_cd43612992eaeb46558dd8835da126ed&#45;&gt;dir_0669efae56692bb73da75efb5ebbccdf</title>
<g id="a_edge1"><a xlink:href="dir_000102_000083.html" target="_top">
<path fill="none" stroke="#63b8ff" d="M279.01,-135.65C248.85,-128.68 175.21,-111.57 103.32,-94.04"/>
<polygon fill="#63b8ff" stroke="#63b8ff" points="104.29,-90.67 93.74,-91.7 102.62,-97.47 104.29,-90.67"/>
</a>
</g>
<g id="a_edge1&#45;headlabel"><a xlink:href="dir_000102_000083.html" target="_top" xlink:title="1">
<text text-anchor="middle" x="106.98" y="-85.28" font-family="Helvetica,sans-Serif" font-size="10.00" fill="#63b8ff">1</text>
</a>
</g>
</g>
<!-- dir_cd43612992eaeb46558dd8835da126ed&#45;&gt;dir_30ecaf38acae77be14fb9173f98f8612 -->
<g id="edge2" class="edge">
<title>dir_cd43612992eaeb46558dd8835da126ed&#45;&gt;dir_30ecaf38acae77be14fb9173f98f8612</title>
<g id="a_edge2"><a xlink:href="dir_000102_000184.html" target="_top">
<path fill="none" stroke="#63b8ff" d="M278.62,-134.02C252.98,-125.35 198.75,-107.02 163.64,-95.16"/>
<polygon fill="#63b8ff" stroke="#63b8ff" points="165,-91.92 154.41,-92.04 162.76,-98.55 165,-91.92"/>
</a>
</g>
<g id="a_edge2&#45;headlabel"><a xlink:href="dir_000102_000184.html" target="_top" xlink:title="5">
<text text-anchor="middle" x="167.88" y="-86.77" font-family="Helvetica,sans-Serif" font-size="10.00" fill="#63b8ff">5</text>
</a>
</g>
</g>
<!-- dir_cd43612992eaeb46558dd8835da126ed&#45;&gt;dir_4535887b2cdca47e625f259d07db0112 -->
<g id="edge3" class="edge">
<title>dir_cd43612992eaeb46558dd8835da126ed&#45;&gt;dir_4535887b2cdca47e625f259d07db0112</title>
<g id="a_edge3"><a xlink:href="dir_000102_000189.html" target="_top">
<path fill="none" stroke="#63b8ff" d="M278.64,-138.74C228.11,-137.94 59.78,-132.35 27,-93.5 18.76,-83.73 19.75,-75.27 27,-64.75 42.75,-41.89 74.49,-33 97.59,-29.55"/>
<polygon fill="#63b8ff" stroke="#63b8ff" points="97.75,-33.06 107.25,-28.38 96.9,-26.11 97.75,-33.06"/>
</a>
</g>
<g id="a_edge3&#45;headlabel"><a xlink:href="dir_000102_000189.html" target="_top" xlink:title="7">
<text text-anchor="middle" x="96.02" y="-33" font-family="Helvetica,sans-Serif" font-size="10.00" fill="#63b8ff">7</text>
</a>
</g>
</g>
<!-- dir_cd43612992eaeb46558dd8835da126ed&#45;&gt;dir_521de572ae4fe2915cc70a876c52f5b7 -->
<g id="edge5" class="edge">
<title>dir_cd43612992eaeb46558dd8835da126ed&#45;&gt;dir_521de572ae4fe2915cc70a876c52f5b7</title>
<g id="a_edge5"><a xlink:href="dir_000102_000046.html" target="_top">
<path fill="none" stroke="#63b8ff" d="M280.96,-129.59C270.61,-121.61 255.47,-109.93 243.12,-100.41"/>
<polygon fill="#63b8ff" stroke="#63b8ff" points="245.6,-97.9 235.54,-94.57 241.32,-103.44 245.6,-97.9"/>
</a>
</g>
<g id="a_edge5&#45;headlabel"><a xlink:href="dir_000102_000046.html" target="_top" xlink:title="31">
<text text-anchor="middle" x="248.98" y="-93.8" font-family="Helvetica,sans-Serif" font-size="10.00" fill="#63b8ff">31</text>
</a>
</g>
</g>
<!-- dir_cd43612992eaeb46558dd8835da126ed&#45;&gt;dir_942cfae36a92b6b1c4b510e99e852d40 -->
<g id="edge6" class="edge">
<title>dir_cd43612992eaeb46558dd8835da126ed&#45;&gt;dir_942cfae36a92b6b1c4b510e99e852d40</title>
<g id="a_edge6"><a xlink:href="dir_000102_000193.html" target="_top">
<path fill="none" stroke="#63b8ff" d="M278.68,-137.89C253.98,-135.33 203.94,-126.17 182,-93.5 174.88,-82.89 176.84,-76.44 182,-64.75 185.53,-56.75 191.71,-49.73 198.22,-43.99"/>
<polygon fill="#63b8ff" stroke="#63b8ff" points="200.21,-46.88 205.89,-37.94 195.87,-41.39 200.21,-46.88"/>
</a>
</g>
<g id="a_edge6&#45;headlabel"><a xlink:href="dir_000102_000193.html" target="_top" xlink:title="18">
<text text-anchor="middle" x="200.33" y="-47.28" font-family="Helvetica,sans-Serif" font-size="10.00" fill="#63b8ff">18</text>
</a>
</g>
</g>
<!-- dir_cd43612992eaeb46558dd8835da126ed&#45;&gt;dir_a60d4453151dca6bdd8e5fcc350e379b -->
<g id="edge7" class="edge">
<title>dir_cd43612992eaeb46558dd8835da126ed&#45;&gt;dir_a60d4453151dca6bdd8e5fcc350e379b</title>
<g id="a_edge7"><a xlink:href="dir_000102_000018.html" target="_top">
<path fill="none" stroke="#63b8ff" d="M306.4,-129.59C317.95,-121.58 334.88,-109.85 348.65,-100.3"/>
<polygon fill="#63b8ff" stroke="#63b8ff" points="350.53,-103.26 356.76,-94.69 346.54,-97.51 350.53,-103.26"/>
</a>
</g>
<g id="a_edge7&#45;headlabel"><a xlink:href="dir_000102_000018.html" target="_top" xlink:title="2">
<text text-anchor="middle" x="350.44" y="-103.66" font-family="Helvetica,sans-Serif" font-size="10.00" fill="#63b8ff">2</text>
</a>
</g>
</g>
<!-- dir_cd43612992eaeb46558dd8835da126ed&#45;&gt;dir_e41b746b2bc627b26c4c637af42fb69a -->
<g id="edge8" class="edge">
<title>dir_cd43612992eaeb46558dd8835da126ed&#45;&gt;dir_e41b746b2bc627b26c4c637af42fb69a</title>
<g id="a_edge8"><a xlink:href="dir_000102_000080.html" target="_top">
<path fill="none" stroke="#63b8ff" d="M307.17,-133.53C329.06,-125.26 371.8,-109.12 402.47,-97.54"/>
<polygon fill="#63b8ff" stroke="#63b8ff" points="403.63,-100.84 411.75,-94.04 401.16,-94.29 403.63,-100.84"/>
</a>
</g>
<g id="a_edge8&#45;headlabel"><a xlink:href="dir_000102_000080.html" target="_top" xlink:title="3">
<text text-anchor="middle" x="402.69" y="-101.11" font-family="Helvetica,sans-Serif" font-size="10.00" fill="#63b8ff">3</text>
</a>
</g>
</g>
<!-- dir_cd43612992eaeb46558dd8835da126ed&#45;&gt;dir_e44b40e2f7a090819cf1915a0b103ff1 -->
<g id="edge9" class="edge">
<title>dir_cd43612992eaeb46558dd8835da126ed&#45;&gt;dir_e44b40e2f7a090819cf1915a0b103ff1</title>
<g id="a_edge9"><a xlink:href="dir_000102_000008.html" target="_top">
<path fill="none" stroke="#63b8ff" d="M307.36,-137.46C346.15,-133.32 451.52,-119.81 472,-93.5 503.57,-52.93 409.85,-36.07 360.41,-30.14"/>
<polygon fill="#63b8ff" stroke="#63b8ff" points="361.01,-26.69 350.68,-29.06 360.23,-33.64 361.01,-26.69"/>
</a>
</g>
<g id="a_edge9&#45;headlabel"><a xlink:href="dir_000102_000008.html" target="_top" xlink:title="4">
<text text-anchor="middle" x="363.39" y="-20.97" font-family="Helvetica,sans-Serif" font-size="10.00" fill="#63b8ff">4</text>
</a>
</g>
</g>
<!-- dir_cd43612992eaeb46558dd8835da126ed&#45;&gt;dir_f555f996eeee1ebe901dc71e0c5de8ff -->
<g id="edge10" class="edge">
<title>dir_cd43612992eaeb46558dd8835da126ed&#45;&gt;dir_f555f996eeee1ebe901dc71e0c5de8ff</title>
<g id="a_edge10"><a xlink:href="dir_000102_000126.html" target="_top">
<path fill="none" stroke="#63b8ff" d="M307.13,-137.65C346.91,-133.88 458.37,-121.01 480,-93.5 491.38,-79.03 480.02,-59.56 468.15,-45.49"/>
<polygon fill="#63b8ff" stroke="#63b8ff" points="470.87,-43.28 461.54,-38.26 465.7,-48 470.87,-43.28"/>
</a>
</g>
<g id="a_edge10&#45;headlabel"><a xlink:href="dir_000102_000126.html" target="_top" xlink:title="9">
<text text-anchor="middle" x="474.37" y="-39.77" font-family="Helvetica,sans-Serif" font-size="10.00" fill="#63b8ff">9</text>
</a>
</g>
</g>
<!-- dir_4dea625e9392d7a16632e00d5dbbd6c7 -->
<g id="node11" class="node">
<title>dir_4dea625e9392d7a16632e00d5dbbd6c7</title>
<g id="a_node11"><a xlink:href="dir_4dea625e9392d7a16632e00d5dbbd6c7.html" target="_top" xlink:title="interface">
<polygon fill="#a2b4d6" stroke="#404040" points="330.75,-93.5 271.25,-93.5 271.25,-72.75 330.75,-72.75 330.75,-93.5"/>
<text text-anchor="middle" x="301" y="-80" font-family="Helvetica,sans-Serif" font-size="10.00">interface</text>
</a>
</g>
</g>
<!-- dir_cd43612992eaeb46558dd8835da126ed&#45;&gt;dir_4dea625e9392d7a16632e00d5dbbd6c7 -->
<g id="edge4" class="edge">
<title>dir_cd43612992eaeb46558dd8835da126ed&#45;&gt;dir_4dea625e9392d7a16632e00d5dbbd6c7</title>
<g id="a_edge4"><a xlink:href="dir_000102_000099.html" target="_top">
<path fill="none" stroke="#63b8ff" d="M294.32,-129.83C295.31,-123.06 296.7,-113.52 297.96,-104.91"/>
<polygon fill="#63b8ff" stroke="#63b8ff" points="301.39,-105.63 299.38,-95.23 294.47,-104.62 301.39,-105.63"/>
</a>
</g>
<g id="a_edge4&#45;headlabel"><a xlink:href="dir_000102_000099.html" target="_top" xlink:title="5">
<text text-anchor="middle" x="303.9" y="-104.98" font-family="Helvetica,sans-Serif" font-size="10.00" fill="#63b8ff">5</text>
</a>
</g>
</g>
<!-- dir_4dea625e9392d7a16632e00d5dbbd6c7&#45;&gt;dir_4535887b2cdca47e625f259d07db0112 -->
<g id="edge11" class="edge">
<title>dir_4dea625e9392d7a16632e00d5dbbd6c7&#45;&gt;dir_4535887b2cdca47e625f259d07db0112</title>
<g id="a_edge11"><a xlink:href="dir_000099_000189.html" target="_top">
<path fill="none" stroke="#63b8ff" d="M283.68,-72.37C278.43,-69.66 272.57,-66.88 267,-64.75 228.24,-49.94 181.37,-38.86 152.37,-32.75"/>
<polygon fill="#63b8ff" stroke="#63b8ff" points="153.09,-29.32 142.59,-30.74 151.68,-36.18 153.09,-29.32"/>
</a>
</g>
<g id="a_edge11&#45;headlabel"><a xlink:href="dir_000099_000189.html" target="_top" xlink:title="1">
<text text-anchor="middle" x="155.7" y="-23.83" font-family="Helvetica,sans-Serif" font-size="10.00" fill="#63b8ff">1</text>
</a>
</g>
</g>
<!-- dir_4dea625e9392d7a16632e00d5dbbd6c7&#45;&gt;dir_942cfae36a92b6b1c4b510e99e852d40 -->
<g id="edge12" class="edge">
<title>dir_4dea625e9392d7a16632e00d5dbbd6c7&#45;&gt;dir_942cfae36a92b6b1c4b510e99e852d40</title>
<g id="a_edge12"><a xlink:href="dir_000099_000193.html" target="_top">
<path fill="none" stroke="#63b8ff" d="M287.06,-72.34C275.63,-64.32 259.23,-52.81 245.89,-43.44"/>
<polygon fill="#63b8ff" stroke="#63b8ff" points="248.26,-40.83 238.06,-37.95 244.24,-46.56 248.26,-40.83"/>
</a>
</g>
<g id="a_edge12&#45;headlabel"><a xlink:href="dir_000099_000193.html" target="_top" xlink:title="4">
<text text-anchor="middle" x="251.59" y="-36.58" font-family="Helvetica,sans-Serif" font-size="10.00" fill="#63b8ff">4</text>
</a>
</g>
</g>
<!-- dir_4dea625e9392d7a16632e00d5dbbd6c7&#45;&gt;dir_e44b40e2f7a090819cf1915a0b103ff1 -->
<g id="edge13" class="edge">
<title>dir_4dea625e9392d7a16632e00d5dbbd6c7&#45;&gt;dir_e44b40e2f7a090819cf1915a0b103ff1</title>
<g id="a_edge13"><a xlink:href="dir_000099_000008.html" target="_top">
<path fill="none" stroke="#63b8ff" d="M306.54,-72.34C310.51,-65.33 315.99,-55.66 320.84,-47.08"/>
<polygon fill="#63b8ff" stroke="#63b8ff" points="323.88,-48.82 325.76,-38.4 317.79,-45.37 323.88,-48.82"/>
</a>
</g>
<g id="a_edge13&#45;headlabel"><a xlink:href="dir_000099_000008.html" target="_top" xlink:title="2">
<text text-anchor="middle" x="325.32" y="-48.91" font-family="Helvetica,sans-Serif" font-size="10.00" fill="#63b8ff">2</text>
</a>
</g>
</g>
<!-- dir_4dea625e9392d7a16632e00d5dbbd6c7&#45;&gt;dir_f555f996eeee1ebe901dc71e0c5de8ff -->
<g id="edge14" class="edge">
<title>dir_4dea625e9392d7a16632e00d5dbbd6c7&#45;&gt;dir_f555f996eeee1ebe901dc71e0c5de8ff</title>
<g id="a_edge14"><a xlink:href="dir_000099_000126.html" target="_top">
<path fill="none" stroke="#63b8ff" d="M318.75,-72.39C323.91,-69.74 329.61,-66.99 335,-64.75 362.37,-53.39 394.52,-43.2 417.86,-36.34"/>
<polygon fill="#63b8ff" stroke="#63b8ff" points="418.78,-39.71 427.41,-33.57 416.83,-32.99 418.78,-39.71"/>
</a>
</g>
<g id="a_edge14&#45;headlabel"><a xlink:href="dir_000099_000126.html" target="_top" xlink:title="1">
<text text-anchor="middle" x="417.57" y="-39.89" font-family="Helvetica,sans-Serif" font-size="10.00" fill="#63b8ff">1</text>
</a>
</g>
</g>
</g>
</svg>
