<?xml version="1.0" encoding="UTF-8" standalone="no"?>
<!DOCTYPE svg PUBLIC "-//W3C//DTD SVG 1.1//EN"
 "http://www.w3.org/Graphics/SVG/1.1/DTD/svg11.dtd">
<!-- Generated by graphviz version 10.0.1 (0)
 -->
<!-- Title: libs/dius/include/dius Pages: 1 -->
<svg width="643pt" height="189pt"
 viewBox="0.00 0.00 643.18 188.91" xmlns="http://www.w3.org/2000/svg" xmlns:xlink="http://www.w3.org/1999/xlink">
<g id="graph0" class="graph" transform="scale(1 1) rotate(0) translate(4 184.91)">
<title>libs/dius/include/dius</title>
<g id="clust1" class="cluster">
<title>clusterdir_6ac4aa95e4478b160428441746083760</title>
<g id="a_clust1"><a xlink:href="dir_6ac4aa95e4478b160428441746083760.html" target="_top" xlink:title="include">
<polygon fill="#edf0f7" stroke="#7f7f7f" stroke-dasharray="5,2" points="8,-42.66 8,-172.91 449,-172.91 449,-42.66 8,-42.66"/>
<text text-anchor="middle" x="228.5" y="-159.41" font-family="Helvetica,sans-Serif" font-size="10.00">include</text>
</a>
</g>
</g>
<g id="clust2" class="cluster">
<title>clusterdir_2992e835a4b361d9b2ca5047c35dfcd3</title>
<g id="a_clust2"><a xlink:href="dir_2992e835a4b361d9b2ca5047c35dfcd3.html" target="_top">
<polygon fill="#edf0f7" stroke="#404040" stroke-width="2" points="16,-50.66 16,-144.16 441,-144.16 441,-50.66 16,-50.66"/>
</a>
</g>
</g>
<!-- dir_2992e835a4b361d9b2ca5047c35dfcd3 -->
<g id="node1" class="node">
<title>dir_2992e835a4b361d9b2ca5047c35dfcd3</title>
<text text-anchor="middle" x="42" y="-122.66" font-family="Helvetica,sans-Serif" font-size="10.00">dius</text>
</g>
<!-- dir_984cd133b143ec7cf21a4bdcb401bfa5 -->
<g id="node10" class="node">
<title>dir_984cd133b143ec7cf21a4bdcb401bfa5</title>
<g id="a_node10"><a xlink:href="dir_984cd133b143ec7cf21a4bdcb401bfa5.html" target="_top" xlink:title="di">
<polygon fill="#edf0f7" stroke="red" stroke-dasharray="5,2" points="422.4,-22.66 393.6,-22.66 393.6,-1.91 422.4,-1.91 422.4,-22.66"/>
<text text-anchor="middle" x="408" y="-9.16" font-family="Helvetica,sans-Serif" font-size="10.00">di</text>
</a>
</g>
</g>
<!-- dir_2992e835a4b361d9b2ca5047c35dfcd3&#45;&gt;dir_984cd133b143ec7cf21a4bdcb401bfa5 -->
<g id="edge1" class="edge">
<title>dir_2992e835a4b361d9b2ca5047c35dfcd3&#45;&gt;dir_984cd133b143ec7cf21a4bdcb401bfa5</title>
<g id="a_edge1"><a xlink:href="dir_000064_000058.html" target="_top">
<path fill="none" stroke="#63b8ff" d="M59.93,-118.23C63.25,-117.17 66.71,-116.18 70,-115.41 184.45,-88.63 228.17,-134.5 332,-79.41 351.39,-69.12 348.49,-57.12 365,-42.66 370.8,-37.58 377.51,-32.62 383.88,-28.27"/>
<polygon fill="#63b8ff" stroke="#63b8ff" points="385.73,-31.24 392.16,-22.83 381.88,-25.39 385.73,-31.24"/>
</a>
</g>
<g id="a_edge1&#45;headlabel"><a xlink:href="dir_000064_000058.html" target="_top" xlink:title="108">
<text text-anchor="middle" x="385.55" y="-31.63" font-family="Helvetica,sans-Serif" font-size="10.00" fill="#63b8ff">108</text>
</a>
</g>
</g>
<!-- dir_a2be59232e4535b0da75437f5985543f -->
<g id="node2" class="node">
<title>dir_a2be59232e4535b0da75437f5985543f</title>
<g id="a_node2"><a xlink:href="dir_a2be59232e4535b0da75437f5985543f.html" target="_top" xlink:title="arch">
<polygon fill="#a2b4d6" stroke="#404040" points="115.5,-136.16 78.5,-136.16 78.5,-115.41 115.5,-115.41 115.5,-136.16"/>
<text text-anchor="middle" x="97" y="-122.66" font-family="Helvetica,sans-Serif" font-size="10.00">arch</text>
</a>
</g>
</g>
<!-- dir_f31f7b577afa3fa4833a664a74923a48 -->
<g id="node3" class="node">
<title>dir_f31f7b577afa3fa4833a664a74923a48</title>
<g id="a_node3"><a xlink:href="dir_f31f7b577afa3fa4833a664a74923a48.html" target="_top" xlink:title="filesystem">
<polygon fill="#a2b4d6" stroke="#404040" points="200.5,-136.16 133.5,-136.16 133.5,-115.41 200.5,-115.41 200.5,-136.16"/>
<text text-anchor="middle" x="167" y="-122.66" font-family="Helvetica,sans-Serif" font-size="10.00">filesystem</text>
</a>
</g>
</g>
<!-- dir_f31f7b577afa3fa4833a664a74923a48&#45;&gt;dir_984cd133b143ec7cf21a4bdcb401bfa5 -->
<g id="edge2" class="edge">
<title>dir_f31f7b577afa3fa4833a664a74923a48&#45;&gt;dir_984cd133b143ec7cf21a4bdcb401bfa5</title>
<g id="a_edge2"><a xlink:href="dir_000075_000058.html" target="_top">
<path fill="none" stroke="#63b8ff" d="M200.77,-117.38C256.41,-105.14 361.6,-81.78 365,-79.41 381.28,-68.03 392.92,-48.32 399.94,-33.37"/>
<polygon fill="#63b8ff" stroke="#63b8ff" points="403.04,-35.04 403.82,-24.47 396.62,-32.25 403.04,-35.04"/>
</a>
</g>
<g id="a_edge2&#45;headlabel"><a xlink:href="dir_000075_000058.html" target="_top" xlink:title="23">
<text text-anchor="middle" x="404.81" y="-34.96" font-family="Helvetica,sans-Serif" font-size="10.00" fill="#63b8ff">23</text>
</a>
</g>
</g>
<!-- dir_d58431dfd3180a78b714558c6ee761e7 -->
<g id="node4" class="node">
<title>dir_d58431dfd3180a78b714558c6ee761e7</title>
<g id="a_node4"><a xlink:href="dir_d58431dfd3180a78b714558c6ee761e7.html" target="_top" xlink:title="iros">
<polygon fill="#a2b4d6" stroke="#404040" points="253,-136.16 219,-136.16 219,-115.41 253,-115.41 253,-136.16"/>
<text text-anchor="middle" x="236" y="-122.66" font-family="Helvetica,sans-Serif" font-size="10.00">iros</text>
</a>
</g>
</g>
<!-- dir_9b74ca6f6a343c08895628384376fe76 -->
<g id="node7" class="node">
<title>dir_9b74ca6f6a343c08895628384376fe76</title>
<g id="a_node7"><a xlink:href="dir_9b74ca6f6a343c08895628384376fe76.html" target="_top" xlink:title="runtime">
<polygon fill="#a2b4d6" stroke="#404040" points="263.12,-79.41 208.88,-79.41 208.88,-58.66 263.12,-58.66 263.12,-79.41"/>
<text text-anchor="middle" x="236" y="-65.91" font-family="Helvetica,sans-Serif" font-size="10.00">runtime</text>
</a>
</g>
</g>
<!-- dir_d58431dfd3180a78b714558c6ee761e7&#45;&gt;dir_9b74ca6f6a343c08895628384376fe76 -->
<g id="edge5" class="edge">
<title>dir_d58431dfd3180a78b714558c6ee761e7&#45;&gt;dir_9b74ca6f6a343c08895628384376fe76</title>
<g id="a_edge5"><a xlink:href="dir_000108_000151.html" target="_top">
<path fill="none" stroke="#63b8ff" d="M236,-114.99C236,-108.38 236,-99.38 236,-91.17"/>
<polygon fill="#63b8ff" stroke="#63b8ff" points="239.5,-91.25 236,-81.25 232.5,-91.25 239.5,-91.25"/>
</a>
</g>
<g id="a_edge5&#45;headlabel"><a xlink:href="dir_000108_000151.html" target="_top" xlink:title="1">
<text text-anchor="middle" x="242.34" y="-90.21" font-family="Helvetica,sans-Serif" font-size="10.00" fill="#63b8ff">1</text>
</a>
</g>
</g>
<!-- dir_d58431dfd3180a78b714558c6ee761e7&#45;&gt;dir_984cd133b143ec7cf21a4bdcb401bfa5 -->
<g id="edge4" class="edge">
<title>dir_d58431dfd3180a78b714558c6ee761e7&#45;&gt;dir_984cd133b143ec7cf21a4bdcb401bfa5</title>
<g id="a_edge4"><a xlink:href="dir_000108_000058.html" target="_top">
<path fill="none" stroke="#63b8ff" d="M253.26,-118.3C256.16,-117.28 259.16,-116.28 262,-115.41 323.83,-96.42 361.43,-128.95 403,-79.41 413.3,-67.13 413.88,-48.65 412.26,-34.34"/>
<polygon fill="#63b8ff" stroke="#63b8ff" points="415.74,-33.92 410.7,-24.6 408.83,-35.03 415.74,-33.92"/>
</a>
</g>
<g id="a_edge4&#45;headlabel"><a xlink:href="dir_000108_000058.html" target="_top" xlink:title="5">
<text text-anchor="middle" x="418.87" y="-32.41" font-family="Helvetica,sans-Serif" font-size="10.00" fill="#63b8ff">5</text>
</a>
</g>
</g>
<!-- dir_2605f0c6ea8f9a17a384edc9a2df15f4 -->
<g id="node11" class="node">
<title>dir_2605f0c6ea8f9a17a384edc9a2df15f4</title>
<g id="a_node11"><a xlink:href="dir_2605f0c6ea8f9a17a384edc9a2df15f4.html" target="_top" xlink:title="iris">
<polygon fill="#edf0f7" stroke="red" points="488.5,-79.41 457.5,-79.41 457.5,-58.66 488.5,-58.66 488.5,-79.41"/>
<text text-anchor="middle" x="473" y="-65.91" font-family="Helvetica,sans-Serif" font-size="10.00">iris</text>
</a>
</g>
</g>
<!-- dir_d58431dfd3180a78b714558c6ee761e7&#45;&gt;dir_2605f0c6ea8f9a17a384edc9a2df15f4 -->
<g id="edge3" class="edge">
<title>dir_d58431dfd3180a78b714558c6ee761e7&#45;&gt;dir_2605f0c6ea8f9a17a384edc9a2df15f4</title>
<g id="a_edge3"><a xlink:href="dir_000108_000104.html" target="_top">
<path fill="none" stroke="#63b8ff" d="M253.22,-118.16C256.13,-117.16 259.13,-116.2 262,-115.41 341.89,-93.29 364.87,-100.61 445,-79.41 445.37,-79.31 445.75,-79.21 446.12,-79.11"/>
<polygon fill="#63b8ff" stroke="#63b8ff" points="447.13,-82.46 455.67,-76.19 445.08,-75.76 447.13,-82.46"/>
</a>
</g>
<g id="a_edge3&#45;headlabel"><a xlink:href="dir_000108_000104.html" target="_top" xlink:title="2">
<text text-anchor="middle" x="445.97" y="-82.66" font-family="Helvetica,sans-Serif" font-size="10.00" fill="#63b8ff">2</text>
</a>
</g>
</g>
<!-- dir_e043b7fd757103055e525488867886a8 -->
<g id="node5" class="node">
<title>dir_e043b7fd757103055e525488867886a8</title>
<g id="a_node5"><a xlink:href="dir_e043b7fd757103055e525488867886a8.html" target="_top" xlink:title="linux">
<polygon fill="#a2b4d6" stroke="#404040" points="311,-136.16 271,-136.16 271,-115.41 311,-115.41 311,-136.16"/>
<text text-anchor="middle" x="291" y="-122.66" font-family="Helvetica,sans-Serif" font-size="10.00">linux</text>
</a>
</g>
</g>
<!-- dir_8663e1f92e7e252284972f31150b7e2c -->
<g id="node6" class="node">
<title>dir_8663e1f92e7e252284972f31150b7e2c</title>
<g id="a_node6"><a xlink:href="dir_8663e1f92e7e252284972f31150b7e2c.html" target="_top" xlink:title="posix">
<polygon fill="#a2b4d6" stroke="#404040" points="323.12,-79.41 280.88,-79.41 280.88,-58.66 323.12,-58.66 323.12,-79.41"/>
<text text-anchor="middle" x="302" y="-65.91" font-family="Helvetica,sans-Serif" font-size="10.00">posix</text>
</a>
</g>
</g>
<!-- dir_e043b7fd757103055e525488867886a8&#45;&gt;dir_8663e1f92e7e252284972f31150b7e2c -->
<g id="edge7" class="edge">
<title>dir_e043b7fd757103055e525488867886a8&#45;&gt;dir_8663e1f92e7e252284972f31150b7e2c</title>
<g id="a_edge7"><a xlink:href="dir_000116_000141.html" target="_top">
<path fill="none" stroke="#63b8ff" d="M292.97,-114.99C294.31,-108.3 296.15,-99.17 297.81,-90.89"/>
<polygon fill="#63b8ff" stroke="#63b8ff" points="301.21,-91.71 299.75,-81.22 294.35,-90.33 301.21,-91.71"/>
</a>
</g>
<g id="a_edge7&#45;headlabel"><a xlink:href="dir_000116_000141.html" target="_top" xlink:title="1">
<text text-anchor="middle" x="303.59" y="-91.19" font-family="Helvetica,sans-Serif" font-size="10.00" fill="#63b8ff">1</text>
</a>
</g>
</g>
<!-- dir_e043b7fd757103055e525488867886a8&#45;&gt;dir_9b74ca6f6a343c08895628384376fe76 -->
<g id="edge9" class="edge">
<title>dir_e043b7fd757103055e525488867886a8&#45;&gt;dir_9b74ca6f6a343c08895628384376fe76</title>
<g id="a_edge9"><a xlink:href="dir_000116_000151.html" target="_top">
<path fill="none" stroke="#63b8ff" d="M281.17,-114.99C273.58,-107.44 262.88,-96.79 253.8,-87.76"/>
<polygon fill="#63b8ff" stroke="#63b8ff" points="256.38,-85.38 246.82,-80.8 251.44,-90.34 256.38,-85.38"/>
</a>
</g>
<g id="a_edge9&#45;headlabel"><a xlink:href="dir_000116_000151.html" target="_top" xlink:title="1">
<text text-anchor="middle" x="259.85" y="-81.71" font-family="Helvetica,sans-Serif" font-size="10.00" fill="#63b8ff">1</text>
</a>
</g>
</g>
<!-- dir_e043b7fd757103055e525488867886a8&#45;&gt;dir_984cd133b143ec7cf21a4bdcb401bfa5 -->
<g id="edge8" class="edge">
<title>dir_e043b7fd757103055e525488867886a8&#45;&gt;dir_984cd133b143ec7cf21a4bdcb401bfa5</title>
<g id="a_edge8"><a xlink:href="dir_000116_000058.html" target="_top">
<path fill="none" stroke="#63b8ff" d="M311.2,-117.93C314.13,-117.03 317.13,-116.16 320,-115.41 398.08,-94.96 446.9,-141.88 498,-79.41 508.34,-66.77 507.59,-55.88 498,-42.66 483.56,-22.75 455.25,-16.08 434.22,-13.97"/>
<polygon fill="#63b8ff" stroke="#63b8ff" points="434.57,-10.49 424.35,-13.3 434.09,-17.47 434.57,-10.49"/>
</a>
</g>
<g id="a_edge8&#45;headlabel"><a xlink:href="dir_000116_000058.html" target="_top" xlink:title="22">
<text text-anchor="middle" x="436.84" y="-4.67" font-family="Helvetica,sans-Serif" font-size="10.00" fill="#63b8ff">22</text>
</a>
</g>
</g>
<!-- dir_048287677304621c659962c2a2c2732d -->
<g id="node12" class="node">
<title>dir_048287677304621c659962c2a2c2732d</title>
<g id="a_node12"><a xlink:href="dir_048287677304621c659962c2a2c2732d.html" target="_top" xlink:title="ccpp">
<polygon fill="#edf0f7" stroke="red" stroke-dasharray="5,2" points="583.25,-79.41 544.75,-79.41 544.75,-58.66 583.25,-58.66 583.25,-79.41"/>
<text text-anchor="middle" x="564" y="-65.91" font-family="Helvetica,sans-Serif" font-size="10.00">ccpp</text>
</a>
</g>
</g>
<!-- dir_e043b7fd757103055e525488867886a8&#45;&gt;dir_048287677304621c659962c2a2c2732d -->
<g id="edge6" class="edge">
<title>dir_e043b7fd757103055e525488867886a8&#45;&gt;dir_048287677304621c659962c2a2c2732d</title>
<g id="a_edge6"><a xlink:href="dir_000116_000030.html" target="_top">
<path fill="none" stroke="#63b8ff" d="M311.49,-117.76C314.33,-116.9 317.23,-116.09 320,-115.41 412.39,-92.72 438.22,-100.44 531,-79.41 531.83,-79.22 532.67,-79.02 533.51,-78.82"/>
<polygon fill="#63b8ff" stroke="#63b8ff" points="534.29,-82.24 543.08,-76.32 532.52,-75.46 534.29,-82.24"/>
</a>
</g>
<g id="a_edge6&#45;headlabel"><a xlink:href="dir_000116_000030.html" target="_top" xlink:title="2">
<text text-anchor="middle" x="533" y="-82.38" font-family="Helvetica,sans-Serif" font-size="10.00" fill="#63b8ff">2</text>
</a>
</g>
</g>
<!-- dir_8663e1f92e7e252284972f31150b7e2c&#45;&gt;dir_984cd133b143ec7cf21a4bdcb401bfa5 -->
<g id="edge10" class="edge">
<title>dir_8663e1f92e7e252284972f31150b7e2c&#45;&gt;dir_984cd133b143ec7cf21a4bdcb401bfa5</title>
<g id="a_edge10"><a xlink:href="dir_000141_000058.html" target="_top">
<path fill="none" stroke="#63b8ff" d="M313.84,-58.37C320.41,-53.29 328.88,-47.2 337,-42.66 351.46,-34.57 368.61,-27.42 382.43,-22.19"/>
<polygon fill="#63b8ff" stroke="#63b8ff" points="383.51,-25.52 391.7,-18.8 381.1,-18.95 383.51,-25.52"/>
</a>
</g>
<g id="a_edge10&#45;headlabel"><a xlink:href="dir_000141_000058.html" target="_top" xlink:title="3">
<text text-anchor="middle" x="382.53" y="-25.78" font-family="Helvetica,sans-Serif" font-size="10.00" fill="#63b8ff">3</text>
</a>
</g>
</g>
<!-- dir_9b74ca6f6a343c08895628384376fe76&#45;&gt;dir_984cd133b143ec7cf21a4bdcb401bfa5 -->
<g id="edge11" class="edge">
<title>dir_9b74ca6f6a343c08895628384376fe76&#45;&gt;dir_984cd133b143ec7cf21a4bdcb401bfa5</title>
<g id="a_edge11"><a xlink:href="dir_000151_000058.html" target="_top">
<path fill="none" stroke="#63b8ff" d="M247.28,-58.29C254.04,-52.93 263.04,-46.59 272,-42.66 308.23,-26.77 353.76,-19.19 381.87,-15.79"/>
<polygon fill="#63b8ff" stroke="#63b8ff" points="382.06,-19.29 391.61,-14.71 381.28,-12.33 382.06,-19.29"/>
</a>
</g>
<g id="a_edge11&#45;headlabel"><a xlink:href="dir_000151_000058.html" target="_top" xlink:title="12">
<text text-anchor="middle" x="380.3" y="-19.21" font-family="Helvetica,sans-Serif" font-size="10.00" fill="#63b8ff">12</text>
</a>
</g>
</g>
<!-- dir_364bb6b77e8224ee250c62b823290aee -->
<g id="node8" class="node">
<title>dir_364bb6b77e8224ee250c62b823290aee</title>
<g id="a_node8"><a xlink:href="dir_364bb6b77e8224ee250c62b823290aee.html" target="_top" xlink:title="system">
<polygon fill="#a2b4d6" stroke="#404040" points="381,-136.16 329,-136.16 329,-115.41 381,-115.41 381,-136.16"/>
<text text-anchor="middle" x="355" y="-122.66" font-family="Helvetica,sans-Serif" font-size="10.00">system</text>
</a>
</g>
</g>
<!-- dir_364bb6b77e8224ee250c62b823290aee&#45;&gt;dir_984cd133b143ec7cf21a4bdcb401bfa5 -->
<g id="edge12" class="edge">
<title>dir_364bb6b77e8224ee250c62b823290aee&#45;&gt;dir_984cd133b143ec7cf21a4bdcb401bfa5</title>
<g id="a_edge12"><a xlink:href="dir_000169_000058.html" target="_top">
<path fill="none" stroke="#63b8ff" d="M381.31,-117.48C384.24,-116.74 387.18,-116.04 390,-115.41 434.51,-105.5 562.72,-114.36 592,-79.41 602.49,-66.89 602.6,-55.08 592,-42.66 572,-19.21 479.85,-14.39 434.02,-13.46"/>
<polygon fill="#63b8ff" stroke="#63b8ff" points="434.24,-9.97 424.19,-13.32 434.14,-16.97 434.24,-9.97"/>
</a>
</g>
<g id="a_edge12&#45;headlabel"><a xlink:href="dir_000169_000058.html" target="_top" xlink:title="4">
<text text-anchor="middle" x="436.37" y="-4.03" font-family="Helvetica,sans-Serif" font-size="10.00" fill="#63b8ff">4</text>
</a>
</g>
</g>
<!-- dir_e83ec42c01766ad33edd35d129ab452c -->
<g id="node9" class="node">
<title>dir_e83ec42c01766ad33edd35d129ab452c</title>
<g id="a_node9"><a xlink:href="dir_e83ec42c01766ad33edd35d129ab452c.html" target="_top" xlink:title="test">
<polygon fill="#a2b4d6" stroke="#404040" points="433.38,-136.16 398.62,-136.16 398.62,-115.41 433.38,-115.41 433.38,-136.16"/>
<text text-anchor="middle" x="416" y="-122.66" font-family="Helvetica,sans-Serif" font-size="10.00">test</text>
</a>
</g>
</g>
<!-- dir_e83ec42c01766ad33edd35d129ab452c&#45;&gt;dir_984cd133b143ec7cf21a4bdcb401bfa5 -->
<g id="edge13" class="edge">
<title>dir_e83ec42c01766ad33edd35d129ab452c&#45;&gt;dir_984cd133b143ec7cf21a4bdcb401bfa5</title>
<g id="a_edge13"><a xlink:href="dir_000173_000058.html" target="_top">
<path fill="none" stroke="#63b8ff" d="M433.77,-124.04C493.52,-120.94 680.41,-106.07 625,-42.66 600.45,-14.56 486,-12.28 433.92,-12.75"/>
<polygon fill="#63b8ff" stroke="#63b8ff" points="434.14,-9.24 424.19,-12.88 434.24,-16.24 434.14,-9.24"/>
</a>
</g>
<g id="a_edge13&#45;headlabel"><a xlink:href="dir_000173_000058.html" target="_top" xlink:title="5">
<text text-anchor="middle" x="436.19" y="-3.25" font-family="Helvetica,sans-Serif" font-size="10.00" fill="#63b8ff">5</text>
</a>
</g>
</g>
</g>
</svg>
