<?xml version="1.0" encoding="UTF-8" standalone="no"?>
<!DOCTYPE svg PUBLIC "-//W3C//DTD SVG 1.1//EN"
 "http://www.w3.org/Graphics/SVG/1.1/DTD/svg11.dtd">
<!-- Generated by graphviz version 10.0.1 (0)
 -->
<!-- Title: libs/di/include/di/bit Pages: 1 -->
<svg width="381pt" height="260pt"
 viewBox="0.00 0.00 381.00 259.75" xmlns="http://www.w3.org/2000/svg" xmlns:xlink="http://www.w3.org/1999/xlink">
<g id="graph0" class="graph" transform="scale(1 1) rotate(0) translate(4 255.75)">
<title>libs/di/include/di/bit</title>
<g id="clust1" class="cluster">
<title>clusterdir_f95a1a0ab1b96e316090c1bcac3c2c99</title>
<g id="a_clust1"><a xlink:href="dir_f95a1a0ab1b96e316090c1bcac3c2c99.html" target="_top" xlink:title="di">
<polygon fill="#edf0f7" stroke="#7f7f7f" stroke-dasharray="5,2" points="8,-8 8,-243.75 365,-243.75 365,-8 8,-8"/>
<text text-anchor="middle" x="186.5" y="-230.25" font-family="Helvetica,sans-Serif" font-size="10.00">di</text>
</a>
</g>
</g>
<g id="clust2" class="cluster">
<title>clusterdir_143f1d6bc6d46924c644ec67dc1fb4fc</title>
<g id="a_clust2"><a xlink:href="dir_143f1d6bc6d46924c644ec67dc1fb4fc.html" target="_top">
<polygon fill="#edf0f7" stroke="#404040" stroke-width="2" points="96,-64.75 96,-215 276,-215 276,-64.75 96,-64.75"/>
</a>
</g>
</g>
<!-- dir_30ecaf38acae77be14fb9173f98f8612 -->
<g id="node1" class="node">
<title>dir_30ecaf38acae77be14fb9173f98f8612</title>
<g id="a_node1"><a xlink:href="dir_30ecaf38acae77be14fb9173f98f8612.html" target="_top" xlink:title="types">
<polygon fill="#a2b4d6" stroke="#404040" points="59.5,-36.75 16.5,-36.75 16.5,-16 59.5,-16 59.5,-36.75"/>
<text text-anchor="middle" x="38" y="-23.25" font-family="Helvetica,sans-Serif" font-size="10.00">types</text>
</a>
</g>
</g>
<!-- dir_a60d4453151dca6bdd8e5fcc350e379b -->
<g id="node2" class="node">
<title>dir_a60d4453151dca6bdd8e5fcc350e379b</title>
<g id="a_node2"><a xlink:href="dir_a60d4453151dca6bdd8e5fcc350e379b.html" target="_top" xlink:title="assert">
<polygon fill="#a2b4d6" stroke="#404040" points="183,-36.75 137,-36.75 137,-16 183,-16 183,-36.75"/>
<text text-anchor="middle" x="160" y="-23.25" font-family="Helvetica,sans-Serif" font-size="10.00">assert</text>
</a>
</g>
</g>
<!-- dir_60d1624911c2c9f7b6f38e44ec895aaa -->
<g id="node3" class="node">
<title>dir_60d1624911c2c9f7b6f38e44ec895aaa</title>
<g id="a_node3"><a xlink:href="dir_60d1624911c2c9f7b6f38e44ec895aaa.html" target="_top" xlink:title="math">
<polygon fill="#a2b4d6" stroke="red" points="118.75,-36.75 77.25,-36.75 77.25,-16 118.75,-16 118.75,-36.75"/>
<text text-anchor="middle" x="98" y="-23.25" font-family="Helvetica,sans-Serif" font-size="10.00">math</text>
</a>
</g>
</g>
<!-- dir_942cfae36a92b6b1c4b510e99e852d40 -->
<g id="node4" class="node">
<title>dir_942cfae36a92b6b1c4b510e99e852d40</title>
<g id="a_node4"><a xlink:href="dir_942cfae36a92b6b1c4b510e99e852d40.html" target="_top" xlink:title="vocab">
<polygon fill="#a2b4d6" stroke="red" points="246.62,-36.75 201.38,-36.75 201.38,-16 246.62,-16 246.62,-36.75"/>
<text text-anchor="middle" x="224" y="-23.25" font-family="Helvetica,sans-Serif" font-size="10.00">vocab</text>
</a>
</g>
</g>
<!-- dir_4535887b2cdca47e625f259d07db0112 -->
<g id="node5" class="node">
<title>dir_4535887b2cdca47e625f259d07db0112</title>
<g id="a_node5"><a xlink:href="dir_4535887b2cdca47e625f259d07db0112.html" target="_top" xlink:title="util">
<polygon fill="#a2b4d6" stroke="#404040" points="296.88,-36.75 265.12,-36.75 265.12,-16 296.88,-16 296.88,-36.75"/>
<text text-anchor="middle" x="281" y="-23.25" font-family="Helvetica,sans-Serif" font-size="10.00">util</text>
</a>
</g>
</g>
<!-- dir_f555f996eeee1ebe901dc71e0c5de8ff -->
<g id="node6" class="node">
<title>dir_f555f996eeee1ebe901dc71e0c5de8ff</title>
<g id="a_node6"><a xlink:href="dir_f555f996eeee1ebe901dc71e0c5de8ff.html" target="_top" xlink:title="meta">
<polygon fill="#a2b4d6" stroke="#404040" points="356.75,-36.75 315.25,-36.75 315.25,-16 356.75,-16 356.75,-36.75"/>
<text text-anchor="middle" x="336" y="-23.25" font-family="Helvetica,sans-Serif" font-size="10.00">meta</text>
</a>
</g>
</g>
<!-- dir_e41b746b2bc627b26c4c637af42fb69a -->
<g id="node7" class="node">
<title>dir_e41b746b2bc627b26c4c637af42fb69a</title>
<g id="a_node7"><a xlink:href="dir_e41b746b2bc627b26c4c637af42fb69a.html" target="_top" xlink:title="format">
<polygon fill="#a2b4d6" stroke="red" points="356.5,-93.5 307.5,-93.5 307.5,-72.75 356.5,-72.75 356.5,-93.5"/>
<text text-anchor="middle" x="332" y="-80" font-family="Helvetica,sans-Serif" font-size="10.00">format</text>
</a>
</g>
</g>
<!-- dir_143f1d6bc6d46924c644ec67dc1fb4fc -->
<g id="node8" class="node">
<title>dir_143f1d6bc6d46924c644ec67dc1fb4fc</title>
<text text-anchor="middle" x="175" y="-193.5" font-family="Helvetica,sans-Serif" font-size="10.00">bit</text>
</g>
<!-- dir_0811e5724a3392528f19c26dd8765a64 -->
<g id="node9" class="node">
<title>dir_0811e5724a3392528f19c26dd8765a64</title>
<g id="a_node9"><a xlink:href="dir_0811e5724a3392528f19c26dd8765a64.html" target="_top" xlink:title="bitset">
<polygon fill="#a2b4d6" stroke="#404040" points="148.88,-93.5 105.12,-93.5 105.12,-72.75 148.88,-72.75 148.88,-93.5"/>
<text text-anchor="middle" x="127" y="-80" font-family="Helvetica,sans-Serif" font-size="10.00">bitset</text>
</a>
</g>
</g>
<!-- dir_143f1d6bc6d46924c644ec67dc1fb4fc&#45;&gt;dir_0811e5724a3392528f19c26dd8765a64 -->
<g id="edge1" class="edge">
<title>dir_143f1d6bc6d46924c644ec67dc1fb4fc&#45;&gt;dir_0811e5724a3392528f19c26dd8765a64</title>
<g id="a_edge1"><a xlink:href="dir_000022_000024.html" target="_top">
<path fill="none" stroke="#63b8ff" d="M160.75,-189.56C146.21,-182.49 124.48,-169.31 115,-150.25 107.77,-135.72 111.94,-117.47 117.25,-103.82"/>
<polygon fill="#63b8ff" stroke="#63b8ff" points="120.31,-105.57 121.15,-95.01 113.9,-102.74 120.31,-105.57"/>
</a>
</g>
<g id="a_edge1&#45;headlabel"><a xlink:href="dir_000022_000024.html" target="_top" xlink:title="3">
<text text-anchor="middle" x="122.06" y="-105.49" font-family="Helvetica,sans-Serif" font-size="10.00" fill="#63b8ff">3</text>
</a>
</g>
</g>
<!-- dir_1c9126a5db4dc8a791bfa47b354adbe8 -->
<g id="node10" class="node">
<title>dir_1c9126a5db4dc8a791bfa47b354adbe8</title>
<g id="a_node10"><a xlink:href="dir_1c9126a5db4dc8a791bfa47b354adbe8.html" target="_top" xlink:title="bitstruct">
<polygon fill="#a2b4d6" stroke="#404040" points="180.25,-150.25 123.75,-150.25 123.75,-129.5 180.25,-129.5 180.25,-150.25"/>
<text text-anchor="middle" x="152" y="-136.75" font-family="Helvetica,sans-Serif" font-size="10.00">bitstruct</text>
</a>
</g>
</g>
<!-- dir_143f1d6bc6d46924c644ec67dc1fb4fc&#45;&gt;dir_1c9126a5db4dc8a791bfa47b354adbe8 -->
<g id="edge2" class="edge">
<title>dir_143f1d6bc6d46924c644ec67dc1fb4fc&#45;&gt;dir_1c9126a5db4dc8a791bfa47b354adbe8</title>
<g id="a_edge2"><a xlink:href="dir_000022_000025.html" target="_top">
<path fill="none" stroke="#63b8ff" d="M171.2,-186.58C168.29,-179.66 164.16,-169.83 160.48,-161.07"/>
<polygon fill="#63b8ff" stroke="#63b8ff" points="163.72,-159.74 156.62,-151.88 157.27,-162.45 163.72,-159.74"/>
</a>
</g>
<g id="a_edge2&#45;headlabel"><a xlink:href="dir_000022_000025.html" target="_top" xlink:title="1">
<text text-anchor="middle" x="167.15" y="-157.44" font-family="Helvetica,sans-Serif" font-size="10.00" fill="#63b8ff">1</text>
</a>
</g>
</g>
<!-- dir_2063da2a3bcafacf9fe62caed04d1449 -->
<g id="node11" class="node">
<title>dir_2063da2a3bcafacf9fe62caed04d1449</title>
<g id="a_node11"><a xlink:href="dir_2063da2a3bcafacf9fe62caed04d1449.html" target="_top" xlink:title="endian">
<polygon fill="#a2b4d6" stroke="#404040" points="267.5,-150.25 218.5,-150.25 218.5,-129.5 267.5,-129.5 267.5,-150.25"/>
<text text-anchor="middle" x="243" y="-136.75" font-family="Helvetica,sans-Serif" font-size="10.00">endian</text>
</a>
</g>
</g>
<!-- dir_143f1d6bc6d46924c644ec67dc1fb4fc&#45;&gt;dir_2063da2a3bcafacf9fe62caed04d1449 -->
<g id="edge3" class="edge">
<title>dir_143f1d6bc6d46924c644ec67dc1fb4fc&#45;&gt;dir_2063da2a3bcafacf9fe62caed04d1449</title>
<g id="a_edge3"><a xlink:href="dir_000022_000069.html" target="_top">
<path fill="none" stroke="#63b8ff" d="M186.54,-186.34C196.34,-178.44 210.66,-166.91 222.43,-157.44"/>
<polygon fill="#63b8ff" stroke="#63b8ff" points="224.41,-160.34 230,-151.34 220.02,-154.89 224.41,-160.34"/>
</a>
</g>
<g id="a_edge3&#45;headlabel"><a xlink:href="dir_000022_000069.html" target="_top" xlink:title="1">
<text text-anchor="middle" x="224.57" y="-160.73" font-family="Helvetica,sans-Serif" font-size="10.00" fill="#63b8ff">1</text>
</a>
</g>
</g>
<!-- dir_ed2711737aff2fecea23f82ff0788684 -->
<g id="node12" class="node">
<title>dir_ed2711737aff2fecea23f82ff0788684</title>
<g id="a_node12"><a xlink:href="dir_ed2711737aff2fecea23f82ff0788684.html" target="_top" xlink:title="operation">
<polygon fill="#a2b4d6" stroke="#404040" points="229.25,-93.5 166.75,-93.5 166.75,-72.75 229.25,-72.75 229.25,-93.5"/>
<text text-anchor="middle" x="198" y="-80" font-family="Helvetica,sans-Serif" font-size="10.00">operation</text>
</a>
</g>
</g>
<!-- dir_143f1d6bc6d46924c644ec67dc1fb4fc&#45;&gt;dir_ed2711737aff2fecea23f82ff0788684 -->
<g id="edge4" class="edge">
<title>dir_143f1d6bc6d46924c644ec67dc1fb4fc&#45;&gt;dir_ed2711737aff2fecea23f82ff0788684</title>
<g id="a_edge4"><a xlink:href="dir_000022_000134.html" target="_top">
<path fill="none" stroke="#63b8ff" d="M178.35,-186.36C181.52,-177.27 186.19,-162.97 189,-150.25 192.33,-135.16 194.63,-117.85 196.08,-104.72"/>
<polygon fill="#63b8ff" stroke="#63b8ff" points="199.52,-105.44 197.05,-95.13 192.56,-104.73 199.52,-105.44"/>
</a>
</g>
<g id="a_edge4&#45;headlabel"><a xlink:href="dir_000022_000134.html" target="_top" xlink:title="3">
<text text-anchor="middle" x="202.14" y="-104.67" font-family="Helvetica,sans-Serif" font-size="10.00" fill="#63b8ff">3</text>
</a>
</g>
</g>
<!-- dir_0811e5724a3392528f19c26dd8765a64&#45;&gt;dir_30ecaf38acae77be14fb9173f98f8612 -->
<g id="edge5" class="edge">
<title>dir_0811e5724a3392528f19c26dd8765a64&#45;&gt;dir_30ecaf38acae77be14fb9173f98f8612</title>
<g id="a_edge5"><a xlink:href="dir_000024_000184.html" target="_top">
<path fill="none" stroke="#63b8ff" d="M112.79,-72.43C108.98,-69.89 104.86,-67.18 101,-64.75 89.22,-57.33 75.99,-49.42 64.71,-42.79"/>
<polygon fill="#63b8ff" stroke="#63b8ff" points="66.7,-39.9 56.3,-37.89 63.18,-45.95 66.7,-39.9"/>
</a>
</g>
<g id="a_edge5&#45;headlabel"><a xlink:href="dir_000024_000184.html" target="_top" xlink:title="3">
<text text-anchor="middle" x="69.93" y="-35.38" font-family="Helvetica,sans-Serif" font-size="10.00" fill="#63b8ff">3</text>
</a>
</g>
</g>
<!-- dir_0811e5724a3392528f19c26dd8765a64&#45;&gt;dir_a60d4453151dca6bdd8e5fcc350e379b -->
<g id="edge8" class="edge">
<title>dir_0811e5724a3392528f19c26dd8765a64&#45;&gt;dir_a60d4453151dca6bdd8e5fcc350e379b</title>
<g id="a_edge8"><a xlink:href="dir_000024_000018.html" target="_top">
<path fill="none" stroke="#63b8ff" d="M132.9,-72.34C137.17,-65.25 143.08,-55.44 148.3,-46.79"/>
<polygon fill="#63b8ff" stroke="#63b8ff" points="151.21,-48.75 153.37,-38.37 145.21,-45.13 151.21,-48.75"/>
</a>
</g>
<g id="a_edge8&#45;headlabel"><a xlink:href="dir_000024_000018.html" target="_top" xlink:title="1">
<text text-anchor="middle" x="152.56" y="-48.87" font-family="Helvetica,sans-Serif" font-size="10.00" fill="#63b8ff">1</text>
</a>
</g>
</g>
<!-- dir_0811e5724a3392528f19c26dd8765a64&#45;&gt;dir_60d1624911c2c9f7b6f38e44ec895aaa -->
<g id="edge6" class="edge">
<title>dir_0811e5724a3392528f19c26dd8765a64&#45;&gt;dir_60d1624911c2c9f7b6f38e44ec895aaa</title>
<g id="a_edge6"><a xlink:href="dir_000024_000121.html" target="_top">
<path fill="none" stroke="#63b8ff" d="M121.82,-72.34C118.1,-65.33 112.98,-55.66 108.44,-47.08"/>
<polygon fill="#63b8ff" stroke="#63b8ff" points="111.62,-45.61 103.85,-38.42 105.44,-48.89 111.62,-45.61"/>
</a>
</g>
<g id="a_edge6&#45;headlabel"><a xlink:href="dir_000024_000121.html" target="_top" xlink:title="1">
<text text-anchor="middle" x="115.1" y="-43" font-family="Helvetica,sans-Serif" font-size="10.00" fill="#63b8ff">1</text>
</a>
</g>
</g>
<!-- dir_0811e5724a3392528f19c26dd8765a64&#45;&gt;dir_942cfae36a92b6b1c4b510e99e852d40 -->
<g id="edge7" class="edge">
<title>dir_0811e5724a3392528f19c26dd8765a64&#45;&gt;dir_942cfae36a92b6b1c4b510e99e852d40</title>
<g id="a_edge7"><a xlink:href="dir_000024_000193.html" target="_top">
<path fill="none" stroke="#63b8ff" d="M144.34,-72.34C158.96,-64.08 180.14,-52.13 196.98,-42.63"/>
<polygon fill="#63b8ff" stroke="#63b8ff" points="198.5,-45.79 205.49,-37.82 195.06,-39.69 198.5,-45.79"/>
</a>
</g>
<g id="a_edge7&#45;headlabel"><a xlink:href="dir_000024_000193.html" target="_top" xlink:title="1">
<text text-anchor="middle" x="198.09" y="-46.16" font-family="Helvetica,sans-Serif" font-size="10.00" fill="#63b8ff">1</text>
</a>
</g>
</g>
<!-- dir_1c9126a5db4dc8a791bfa47b354adbe8&#45;&gt;dir_30ecaf38acae77be14fb9173f98f8612 -->
<g id="edge10" class="edge">
<title>dir_1c9126a5db4dc8a791bfa47b354adbe8&#45;&gt;dir_30ecaf38acae77be14fb9173f98f8612</title>
<g id="a_edge10"><a xlink:href="dir_000025_000184.html" target="_top">
<path fill="none" stroke="#63b8ff" d="M134.54,-129.13C120.49,-120.79 100.74,-107.86 86,-93.5 71.59,-79.46 58.41,-60.67 49.53,-46.72"/>
<polygon fill="#63b8ff" stroke="#63b8ff" points="52.64,-45.1 44.41,-38.43 46.69,-48.78 52.64,-45.1"/>
</a>
</g>
<g id="a_edge10&#45;headlabel"><a xlink:href="dir_000025_000184.html" target="_top" xlink:title="1">
<text text-anchor="middle" x="56.15" y="-42.26" font-family="Helvetica,sans-Serif" font-size="10.00" fill="#63b8ff">1</text>
</a>
</g>
</g>
<!-- dir_1c9126a5db4dc8a791bfa47b354adbe8&#45;&gt;dir_60d1624911c2c9f7b6f38e44ec895aaa -->
<g id="edge12" class="edge">
<title>dir_1c9126a5db4dc8a791bfa47b354adbe8&#45;&gt;dir_60d1624911c2c9f7b6f38e44ec895aaa</title>
<g id="a_edge12"><a xlink:href="dir_000025_000121.html" target="_top">
<path fill="none" stroke="#63b8ff" d="M132.57,-129.11C119.58,-121.4 103.54,-109.31 96,-93.5 89.26,-79.37 90.27,-61.55 92.68,-47.96"/>
<polygon fill="#63b8ff" stroke="#63b8ff" points="96.05,-48.91 94.78,-38.39 89.22,-47.41 96.05,-48.91"/>
</a>
</g>
<g id="a_edge12&#45;headlabel"><a xlink:href="dir_000025_000121.html" target="_top" xlink:title="1">
<text text-anchor="middle" x="98.38" y="-48.42" font-family="Helvetica,sans-Serif" font-size="10.00" fill="#63b8ff">1</text>
</a>
</g>
</g>
<!-- dir_1c9126a5db4dc8a791bfa47b354adbe8&#45;&gt;dir_942cfae36a92b6b1c4b510e99e852d40 -->
<g id="edge13" class="edge">
<title>dir_1c9126a5db4dc8a791bfa47b354adbe8&#45;&gt;dir_942cfae36a92b6b1c4b510e99e852d40</title>
<g id="a_edge13"><a xlink:href="dir_000025_000193.html" target="_top">
<path fill="none" stroke="#63b8ff" d="M180.61,-132.11C200.51,-125.74 225.62,-114.03 238,-93.5 246.51,-79.39 241.47,-60.85 235.18,-47"/>
<polygon fill="#63b8ff" stroke="#63b8ff" points="238.46,-45.73 230.8,-38.42 232.23,-48.91 238.46,-45.73"/>
</a>
</g>
<g id="a_edge13&#45;headlabel"><a xlink:href="dir_000025_000193.html" target="_top" xlink:title="2">
<text text-anchor="middle" x="241.94" y="-43.17" font-family="Helvetica,sans-Serif" font-size="10.00" fill="#63b8ff">2</text>
</a>
</g>
</g>
<!-- dir_1c9126a5db4dc8a791bfa47b354adbe8&#45;&gt;dir_4535887b2cdca47e625f259d07db0112 -->
<g id="edge11" class="edge">
<title>dir_1c9126a5db4dc8a791bfa47b354adbe8&#45;&gt;dir_4535887b2cdca47e625f259d07db0112</title>
<g id="a_edge11"><a xlink:href="dir_000025_000189.html" target="_top">
<path fill="none" stroke="#63b8ff" d="M180.36,-130.23C200.34,-122.99 226.69,-111.01 245,-93.5 258.28,-80.8 267.84,-62.1 273.75,-47.82"/>
<polygon fill="#63b8ff" stroke="#63b8ff" points="277.01,-49.1 277.32,-38.51 270.47,-46.6 277.01,-49.1"/>
</a>
</g>
<g id="a_edge11&#45;headlabel"><a xlink:href="dir_000025_000189.html" target="_top" xlink:title="2">
<text text-anchor="middle" x="278.91" y="-48.94" font-family="Helvetica,sans-Serif" font-size="10.00" fill="#63b8ff">2</text>
</a>
</g>
</g>
<!-- dir_1c9126a5db4dc8a791bfa47b354adbe8&#45;&gt;dir_f555f996eeee1ebe901dc71e0c5de8ff -->
<g id="edge14" class="edge">
<title>dir_1c9126a5db4dc8a791bfa47b354adbe8&#45;&gt;dir_f555f996eeee1ebe901dc71e0c5de8ff</title>
<g id="a_edge14"><a xlink:href="dir_000025_000126.html" target="_top">
<path fill="none" stroke="#63b8ff" d="M180.72,-129.63C203.21,-121.75 234.79,-109.19 260,-93.5 282.13,-79.72 304.26,-59.57 318.88,-45.14"/>
<polygon fill="#63b8ff" stroke="#63b8ff" points="321.33,-47.64 325.88,-38.07 316.36,-42.71 321.33,-47.64"/>
</a>
</g>
<g id="a_edge14&#45;headlabel"><a xlink:href="dir_000025_000126.html" target="_top" xlink:title="3">
<text text-anchor="middle" x="321.88" y="-47.99" font-family="Helvetica,sans-Serif" font-size="10.00" fill="#63b8ff">3</text>
</a>
</g>
</g>
<!-- dir_1c9126a5db4dc8a791bfa47b354adbe8&#45;&gt;dir_0811e5724a3392528f19c26dd8765a64 -->
<g id="edge9" class="edge">
<title>dir_1c9126a5db4dc8a791bfa47b354adbe8&#45;&gt;dir_0811e5724a3392528f19c26dd8765a64</title>
<g id="a_edge9"><a xlink:href="dir_000025_000024.html" target="_top">
<path fill="none" stroke="#63b8ff" d="M147.53,-129.09C144.37,-122.16 140.01,-112.62 136.13,-104.11"/>
<polygon fill="#63b8ff" stroke="#63b8ff" points="139.4,-102.85 132.06,-95.21 133.03,-105.76 139.4,-102.85"/>
</a>
</g>
<g id="a_edge9&#45;headlabel"><a xlink:href="dir_000025_000024.html" target="_top" xlink:title="2">
<text text-anchor="middle" x="142.84" y="-100.44" font-family="Helvetica,sans-Serif" font-size="10.00" fill="#63b8ff">2</text>
</a>
</g>
</g>
<!-- dir_2063da2a3bcafacf9fe62caed04d1449&#45;&gt;dir_e41b746b2bc627b26c4c637af42fb69a -->
<g id="edge15" class="edge">
<title>dir_2063da2a3bcafacf9fe62caed04d1449&#45;&gt;dir_e41b746b2bc627b26c4c637af42fb69a</title>
<g id="a_edge15"><a xlink:href="dir_000069_000080.html" target="_top">
<path fill="none" stroke="#63b8ff" d="M258.91,-129.09C272.2,-120.91 291.39,-109.11 306.77,-99.65"/>
<polygon fill="#63b8ff" stroke="#63b8ff" points="308.25,-102.84 314.94,-94.62 304.59,-96.88 308.25,-102.84"/>
</a>
</g>
<g id="a_edge15&#45;headlabel"><a xlink:href="dir_000069_000080.html" target="_top" xlink:title="2">
<text text-anchor="middle" x="307.97" y="-103.23" font-family="Helvetica,sans-Serif" font-size="10.00" fill="#63b8ff">2</text>
</a>
</g>
</g>
<!-- dir_2063da2a3bcafacf9fe62caed04d1449&#45;&gt;dir_ed2711737aff2fecea23f82ff0788684 -->
<g id="edge16" class="edge">
<title>dir_2063da2a3bcafacf9fe62caed04d1449&#45;&gt;dir_ed2711737aff2fecea23f82ff0788684</title>
<g id="a_edge16"><a xlink:href="dir_000069_000134.html" target="_top">
<path fill="none" stroke="#63b8ff" d="M234.95,-129.09C228.94,-121.77 220.53,-111.54 213.26,-102.69"/>
<polygon fill="#63b8ff" stroke="#63b8ff" points="215.99,-100.5 206.94,-95 210.58,-104.95 215.99,-100.5"/>
</a>
</g>
<g id="a_edge16&#45;headlabel"><a xlink:href="dir_000069_000134.html" target="_top" xlink:title="2">
<text text-anchor="middle" x="219.5" y="-97.18" font-family="Helvetica,sans-Serif" font-size="10.00" fill="#63b8ff">2</text>
</a>
</g>
</g>
<!-- dir_ed2711737aff2fecea23f82ff0788684&#45;&gt;dir_60d1624911c2c9f7b6f38e44ec895aaa -->
<g id="edge18" class="edge">
<title>dir_ed2711737aff2fecea23f82ff0788684&#45;&gt;dir_60d1624911c2c9f7b6f38e44ec895aaa</title>
<g id="a_edge18"><a xlink:href="dir_000134_000121.html" target="_top">
<path fill="none" stroke="#63b8ff" d="M180.12,-72.34C164.91,-64.01 142.81,-51.91 125.37,-42.36"/>
<polygon fill="#63b8ff" stroke="#63b8ff" points="127.5,-39.54 117.05,-37.81 124.14,-45.68 127.5,-39.54"/>
</a>
</g>
<g id="a_edge18&#45;headlabel"><a xlink:href="dir_000134_000121.html" target="_top" xlink:title="5">
<text text-anchor="middle" x="130.69" y="-34.92" font-family="Helvetica,sans-Serif" font-size="10.00" fill="#63b8ff">5</text>
</a>
</g>
</g>
<!-- dir_ed2711737aff2fecea23f82ff0788684&#45;&gt;dir_4535887b2cdca47e625f259d07db0112 -->
<g id="edge17" class="edge">
<title>dir_ed2711737aff2fecea23f82ff0788684&#45;&gt;dir_4535887b2cdca47e625f259d07db0112</title>
<g id="a_edge17"><a xlink:href="dir_000134_000189.html" target="_top">
<path fill="none" stroke="#63b8ff" d="M212.84,-72.34C225.11,-64.24 242.79,-52.58 257.06,-43.17"/>
<polygon fill="#63b8ff" stroke="#63b8ff" points="258.61,-46.34 265.03,-37.91 254.75,-40.5 258.61,-46.34"/>
</a>
</g>
<g id="a_edge17&#45;headlabel"><a xlink:href="dir_000134_000189.html" target="_top" xlink:title="1">
<text text-anchor="middle" x="258.43" y="-46.73" font-family="Helvetica,sans-Serif" font-size="10.00" fill="#63b8ff">1</text>
</a>
</g>
</g>
<!-- dir_ed2711737aff2fecea23f82ff0788684&#45;&gt;dir_f555f996eeee1ebe901dc71e0c5de8ff -->
<g id="edge19" class="edge">
<title>dir_ed2711737aff2fecea23f82ff0788684&#45;&gt;dir_f555f996eeee1ebe901dc71e0c5de8ff</title>
<g id="a_edge19"><a xlink:href="dir_000134_000126.html" target="_top">
<path fill="none" stroke="#63b8ff" d="M216.71,-72.35C221.93,-69.76 227.64,-67.05 233,-64.75 256.46,-54.71 283.62,-44.93 304.16,-37.89"/>
<polygon fill="#63b8ff" stroke="#63b8ff" points="305.04,-41.29 313.39,-34.77 302.79,-34.66 305.04,-41.29"/>
</a>
</g>
<g id="a_edge19&#45;headlabel"><a xlink:href="dir_000134_000126.html" target="_top" xlink:title="8">
<text text-anchor="middle" x="303.98" y="-41.52" font-family="Helvetica,sans-Serif" font-size="10.00" fill="#63b8ff">8</text>
</a>
</g>
</g>
</g>
</svg>
