<?xml version="1.0" encoding="UTF-8" standalone="no"?>
<!DOCTYPE svg PUBLIC "-//W3C//DTD SVG 1.1//EN"
 "http://www.w3.org/Graphics/SVG/1.1/DTD/svg11.dtd">
<!-- Generated by graphviz version 10.0.1 (0)
 -->
<!-- Title: libs/dius/iros Pages: 1 -->
<svg width="254pt" height="146pt"
 viewBox="0.00 0.00 254.40 146.25" xmlns="http://www.w3.org/2000/svg" xmlns:xlink="http://www.w3.org/1999/xlink">
<g id="graph0" class="graph" transform="scale(1 1) rotate(0) translate(4 142.25)">
<title>libs/dius/iros</title>
<g id="clust1" class="cluster">
<title>clusterdir_2bc9e3f402dd86ba93785edd287294d9</title>
<g id="a_clust1"><a xlink:href="dir_2bc9e3f402dd86ba93785edd287294d9.html" target="_top" xlink:title="dius">
<polygon fill="#edf0f7" stroke="#7f7f7f" stroke-dasharray="5,2" points="8,-8 8,-130.25 160,-130.25 160,-8 8,-8"/>
<text text-anchor="middle" x="84" y="-116.75" font-family="Helvetica,sans-Serif" font-size="10.00">dius</text>
</a>
</g>
</g>
<g id="clust2" class="cluster">
<title>clusterdir_17076abbcecdd53a1af3ac0a38ec6e06</title>
<g id="a_clust2"><a xlink:href="dir_17076abbcecdd53a1af3ac0a38ec6e06.html" target="_top">
<polygon fill="#edf0f7" stroke="#404040" stroke-width="2" points="16,-64.75 16,-101.5 152,-101.5 152,-64.75 16,-64.75"/>
</a>
</g>
</g>
<!-- dir_6ac4aa95e4478b160428441746083760 -->
<g id="node1" class="node">
<title>dir_6ac4aa95e4478b160428441746083760</title>
<g id="a_node1"><a xlink:href="dir_6ac4aa95e4478b160428441746083760.html" target="_top" xlink:title="include">
<polygon fill="#a2b4d6" stroke="red" points="101.62,-36.75 50.38,-36.75 50.38,-16 101.62,-16 101.62,-36.75"/>
<text text-anchor="middle" x="76" y="-23.25" font-family="Helvetica,sans-Serif" font-size="10.00">include</text>
</a>
</g>
</g>
<!-- dir_17076abbcecdd53a1af3ac0a38ec6e06 -->
<g id="node2" class="node">
<title>dir_17076abbcecdd53a1af3ac0a38ec6e06</title>
<text text-anchor="middle" x="41" y="-80" font-family="Helvetica,sans-Serif" font-size="10.00">iros</text>
</g>
<!-- dir_17076abbcecdd53a1af3ac0a38ec6e06&#45;&gt;dir_6ac4aa95e4478b160428441746083760 -->
<g id="edge2" class="edge">
<title>dir_17076abbcecdd53a1af3ac0a38ec6e06&#45;&gt;dir_6ac4aa95e4478b160428441746083760</title>
<g id="a_edge2"><a xlink:href="dir_000109_000095.html" target="_top">
<path fill="none" stroke="#63b8ff" d="M46.78,-73.08C51.36,-65.92 57.91,-55.67 63.66,-46.68"/>
<polygon fill="#63b8ff" stroke="#63b8ff" points="66.61,-48.57 69.04,-38.26 60.71,-44.8 66.61,-48.57"/>
</a>
</g>
<g id="a_edge2&#45;headlabel"><a xlink:href="dir_000109_000095.html" target="_top" xlink:title="10">
<text text-anchor="middle" x="67.88" y="-48.73" font-family="Helvetica,sans-Serif" font-size="10.00" fill="#63b8ff">10</text>
</a>
</g>
</g>
<!-- dir_2605f0c6ea8f9a17a384edc9a2df15f4 -->
<g id="node4" class="node">
<title>dir_2605f0c6ea8f9a17a384edc9a2df15f4</title>
<g id="a_node4"><a xlink:href="dir_2605f0c6ea8f9a17a384edc9a2df15f4.html" target="_top" xlink:title="iris">
<polygon fill="#edf0f7" stroke="red" points="199.5,-36.75 168.5,-36.75 168.5,-16 199.5,-16 199.5,-36.75"/>
<text text-anchor="middle" x="184" y="-23.25" font-family="Helvetica,sans-Serif" font-size="10.00">iris</text>
</a>
</g>
</g>
<!-- dir_17076abbcecdd53a1af3ac0a38ec6e06&#45;&gt;dir_2605f0c6ea8f9a17a384edc9a2df15f4 -->
<g id="edge1" class="edge">
<title>dir_17076abbcecdd53a1af3ac0a38ec6e06&#45;&gt;dir_2605f0c6ea8f9a17a384edc9a2df15f4</title>
<g id="a_edge1"><a xlink:href="dir_000109_000104.html" target="_top">
<path fill="none" stroke="#63b8ff" d="M53.75,-72.85C58.12,-69.97 63.13,-66.97 68,-64.75 105.12,-47.82 119.95,-51.61 157.68,-38.83"/>
<polygon fill="#63b8ff" stroke="#63b8ff" points="158.73,-42.17 166.95,-35.49 156.36,-35.58 158.73,-42.17"/>
</a>
</g>
<g id="a_edge1&#45;headlabel"><a xlink:href="dir_000109_000104.html" target="_top" xlink:title="3">
<text text-anchor="middle" x="157.73" y="-42.42" font-family="Helvetica,sans-Serif" font-size="10.00" fill="#63b8ff">3</text>
</a>
</g>
</g>
<!-- dir_984cd133b143ec7cf21a4bdcb401bfa5 -->
<g id="node5" class="node">
<title>dir_984cd133b143ec7cf21a4bdcb401bfa5</title>
<g id="a_node5"><a xlink:href="dir_984cd133b143ec7cf21a4bdcb401bfa5.html" target="_top" xlink:title="di">
<polygon fill="#edf0f7" stroke="red" stroke-dasharray="5,2" points="246.4,-36.75 217.6,-36.75 217.6,-16 246.4,-16 246.4,-36.75"/>
<text text-anchor="middle" x="232" y="-23.25" font-family="Helvetica,sans-Serif" font-size="10.00">di</text>
</a>
</g>
</g>
<!-- dir_17076abbcecdd53a1af3ac0a38ec6e06&#45;&gt;dir_984cd133b143ec7cf21a4bdcb401bfa5 -->
<g id="edge3" class="edge">
<title>dir_17076abbcecdd53a1af3ac0a38ec6e06&#45;&gt;dir_984cd133b143ec7cf21a4bdcb401bfa5</title>
<g id="a_edge3"><a xlink:href="dir_000109_000058.html" target="_top">
<path fill="none" stroke="#63b8ff" d="M53.37,-72.78C57.79,-69.82 62.93,-66.8 68,-64.75 124,-42.13 145.44,-53.66 206.53,-36.95"/>
<polygon fill="#63b8ff" stroke="#63b8ff" points="207.47,-40.32 216.1,-34.18 205.52,-33.6 207.47,-40.32"/>
</a>
</g>
<g id="a_edge3&#45;headlabel"><a xlink:href="dir_000109_000058.html" target="_top" xlink:title="6">
<text text-anchor="middle" x="206.26" y="-40.51" font-family="Helvetica,sans-Serif" font-size="10.00" fill="#63b8ff">6</text>
</a>
</g>
</g>
<!-- dir_38f28bc96654b4658cdde4581b3380f4 -->
<g id="node3" class="node">
<title>dir_38f28bc96654b4658cdde4581b3380f4</title>
<g id="a_node3"><a xlink:href="dir_38f28bc96654b4658cdde4581b3380f4.html" target="_top" xlink:title="filesystem">
<polygon fill="#a2b4d6" stroke="#404040" points="143.5,-93.5 76.5,-93.5 76.5,-72.75 143.5,-72.75 143.5,-93.5"/>
<text text-anchor="middle" x="110" y="-80" font-family="Helvetica,sans-Serif" font-size="10.00">filesystem</text>
</a>
</g>
</g>
<!-- dir_38f28bc96654b4658cdde4581b3380f4&#45;&gt;dir_6ac4aa95e4478b160428441746083760 -->
<g id="edge5" class="edge">
<title>dir_38f28bc96654b4658cdde4581b3380f4&#45;&gt;dir_6ac4aa95e4478b160428441746083760</title>
<g id="a_edge5"><a xlink:href="dir_000078_000095.html" target="_top">
<path fill="none" stroke="#63b8ff" d="M103.92,-72.34C99.52,-65.25 93.43,-55.44 88.06,-46.79"/>
<polygon fill="#63b8ff" stroke="#63b8ff" points="91.07,-45.01 82.82,-38.36 85.13,-48.71 91.07,-45.01"/>
</a>
</g>
<g id="a_edge5&#45;headlabel"><a xlink:href="dir_000078_000095.html" target="_top" xlink:title="8">
<text text-anchor="middle" x="94.58" y="-42.16" font-family="Helvetica,sans-Serif" font-size="10.00" fill="#63b8ff">8</text>
</a>
</g>
</g>
<!-- dir_38f28bc96654b4658cdde4581b3380f4&#45;&gt;dir_2605f0c6ea8f9a17a384edc9a2df15f4 -->
<g id="edge4" class="edge">
<title>dir_38f28bc96654b4658cdde4581b3380f4&#45;&gt;dir_2605f0c6ea8f9a17a384edc9a2df15f4</title>
<g id="a_edge4"><a xlink:href="dir_000078_000104.html" target="_top">
<path fill="none" stroke="#63b8ff" d="M123.23,-72.34C133.96,-64.4 149.32,-53.03 161.92,-43.71"/>
<polygon fill="#63b8ff" stroke="#63b8ff" points="163.71,-46.74 169.67,-37.98 159.55,-41.11 163.71,-46.74"/>
</a>
</g>
<g id="a_edge4&#45;headlabel"><a xlink:href="dir_000078_000104.html" target="_top" xlink:title="2">
<text text-anchor="middle" x="163.73" y="-47.14" font-family="Helvetica,sans-Serif" font-size="10.00" fill="#63b8ff">2</text>
</a>
</g>
</g>
<!-- dir_38f28bc96654b4658cdde4581b3380f4&#45;&gt;dir_984cd133b143ec7cf21a4bdcb401bfa5 -->
<g id="edge6" class="edge">
<title>dir_38f28bc96654b4658cdde4581b3380f4&#45;&gt;dir_984cd133b143ec7cf21a4bdcb401bfa5</title>
<g id="a_edge6"><a xlink:href="dir_000078_000058.html" target="_top">
<path fill="none" stroke="#63b8ff" d="M131.81,-72.34C152.92,-62.86 184.88,-48.52 207.01,-38.59"/>
<polygon fill="#63b8ff" stroke="#63b8ff" points="208.21,-41.89 215.9,-34.6 205.34,-35.5 208.21,-41.89"/>
</a>
</g>
<g id="a_edge6&#45;headlabel"><a xlink:href="dir_000078_000058.html" target="_top" xlink:title="4">
<text text-anchor="middle" x="207.47" y="-42.21" font-family="Helvetica,sans-Serif" font-size="10.00" fill="#63b8ff">4</text>
</a>
</g>
</g>
</g>
</svg>
