<?xml version="1.0" encoding="UTF-8" standalone="no"?>
<!DOCTYPE svg PUBLIC "-//W3C//DTD SVG 1.1//EN"
 "http://www.w3.org/Graphics/SVG/1.1/DTD/svg11.dtd">
<!-- Generated by graphviz version 10.0.1 (0)
 -->
<!-- Title: libs/dius/include/dius/iros Pages: 1 -->
<svg width="254pt" height="146pt"
 viewBox="0.00 0.00 254.40 146.25" xmlns="http://www.w3.org/2000/svg" xmlns:xlink="http://www.w3.org/1999/xlink">
<g id="graph0" class="graph" transform="scale(1 1) rotate(0) translate(4 142.25)">
<title>libs/dius/include/dius/iros</title>
<g id="clust1" class="cluster">
<title>clusterdir_2992e835a4b361d9b2ca5047c35dfcd3</title>
<g id="a_clust1"><a xlink:href="dir_2992e835a4b361d9b2ca5047c35dfcd3.html" target="_top" xlink:title="dius">
<polygon fill="#edf0f7" stroke="#7f7f7f" stroke-dasharray="5,2" points="8,-8 8,-130.25 160,-130.25 160,-8 8,-8"/>
<text text-anchor="middle" x="84" y="-116.75" font-family="Helvetica,sans-Serif" font-size="10.00">dius</text>
</a>
</g>
</g>
<g id="clust2" class="cluster">
<title>clusterdir_d58431dfd3180a78b714558c6ee761e7</title>
<g id="a_clust2"><a xlink:href="dir_d58431dfd3180a78b714558c6ee761e7.html" target="_top">
<polygon fill="#edf0f7" stroke="#404040" stroke-width="2" points="16,-64.75 16,-101.5 152,-101.5 152,-64.75 16,-64.75"/>
</a>
</g>
</g>
<!-- dir_9b74ca6f6a343c08895628384376fe76 -->
<g id="node1" class="node">
<title>dir_9b74ca6f6a343c08895628384376fe76</title>
<g id="a_node1"><a xlink:href="dir_9b74ca6f6a343c08895628384376fe76.html" target="_top" xlink:title="runtime">
<polygon fill="#a2b4d6" stroke="#404040" points="70.12,-36.75 15.88,-36.75 15.88,-16 70.12,-16 70.12,-36.75"/>
<text text-anchor="middle" x="43" y="-23.25" font-family="Helvetica,sans-Serif" font-size="10.00">runtime</text>
</a>
</g>
</g>
<!-- dir_d58431dfd3180a78b714558c6ee761e7 -->
<g id="node2" class="node">
<title>dir_d58431dfd3180a78b714558c6ee761e7</title>
<text text-anchor="middle" x="41" y="-80" font-family="Helvetica,sans-Serif" font-size="10.00">iros</text>
</g>
<!-- dir_d58431dfd3180a78b714558c6ee761e7&#45;&gt;dir_9b74ca6f6a343c08895628384376fe76 -->
<g id="edge3" class="edge">
<title>dir_d58431dfd3180a78b714558c6ee761e7&#45;&gt;dir_9b74ca6f6a343c08895628384376fe76</title>
<g id="a_edge3"><a xlink:href="dir_000108_000151.html" target="_top">
<path fill="none" stroke="#63b8ff" d="M41.33,-73.08C41.57,-66.39 41.92,-56.99 42.23,-48.46"/>
<polygon fill="#63b8ff" stroke="#63b8ff" points="45.73,-48.62 42.59,-38.49 38.73,-48.36 45.73,-48.62"/>
</a>
</g>
<g id="a_edge3&#45;headlabel"><a xlink:href="dir_000108_000151.html" target="_top" xlink:title="1">
<text text-anchor="middle" x="48.49" y="-47.67" font-family="Helvetica,sans-Serif" font-size="10.00" fill="#63b8ff">1</text>
</a>
</g>
</g>
<!-- dir_2605f0c6ea8f9a17a384edc9a2df15f4 -->
<g id="node4" class="node">
<title>dir_2605f0c6ea8f9a17a384edc9a2df15f4</title>
<g id="a_node4"><a xlink:href="dir_2605f0c6ea8f9a17a384edc9a2df15f4.html" target="_top" xlink:title="iris">
<polygon fill="#edf0f7" stroke="red" points="199.5,-36.75 168.5,-36.75 168.5,-16 199.5,-16 199.5,-36.75"/>
<text text-anchor="middle" x="184" y="-23.25" font-family="Helvetica,sans-Serif" font-size="10.00">iris</text>
</a>
</g>
</g>
<!-- dir_d58431dfd3180a78b714558c6ee761e7&#45;&gt;dir_2605f0c6ea8f9a17a384edc9a2df15f4 -->
<g id="edge1" class="edge">
<title>dir_d58431dfd3180a78b714558c6ee761e7&#45;&gt;dir_2605f0c6ea8f9a17a384edc9a2df15f4</title>
<g id="a_edge1"><a xlink:href="dir_000108_000104.html" target="_top">
<path fill="none" stroke="#63b8ff" d="M53.75,-72.85C58.12,-69.97 63.13,-66.97 68,-64.75 105.12,-47.82 119.95,-51.61 157.68,-38.83"/>
<polygon fill="#63b8ff" stroke="#63b8ff" points="158.73,-42.17 166.95,-35.49 156.36,-35.58 158.73,-42.17"/>
</a>
</g>
<g id="a_edge1&#45;headlabel"><a xlink:href="dir_000108_000104.html" target="_top" xlink:title="2">
<text text-anchor="middle" x="157.73" y="-42.42" font-family="Helvetica,sans-Serif" font-size="10.00" fill="#63b8ff">2</text>
</a>
</g>
</g>
<!-- dir_984cd133b143ec7cf21a4bdcb401bfa5 -->
<g id="node5" class="node">
<title>dir_984cd133b143ec7cf21a4bdcb401bfa5</title>
<g id="a_node5"><a xlink:href="dir_984cd133b143ec7cf21a4bdcb401bfa5.html" target="_top" xlink:title="di">
<polygon fill="#edf0f7" stroke="red" stroke-dasharray="5,2" points="246.4,-36.75 217.6,-36.75 217.6,-16 246.4,-16 246.4,-36.75"/>
<text text-anchor="middle" x="232" y="-23.25" font-family="Helvetica,sans-Serif" font-size="10.00">di</text>
</a>
</g>
</g>
<!-- dir_d58431dfd3180a78b714558c6ee761e7&#45;&gt;dir_984cd133b143ec7cf21a4bdcb401bfa5 -->
<g id="edge2" class="edge">
<title>dir_d58431dfd3180a78b714558c6ee761e7&#45;&gt;dir_984cd133b143ec7cf21a4bdcb401bfa5</title>
<g id="a_edge2"><a xlink:href="dir_000108_000058.html" target="_top">
<path fill="none" stroke="#63b8ff" d="M53.37,-72.78C57.79,-69.82 62.93,-66.8 68,-64.75 124,-42.13 145.44,-53.66 206.53,-36.95"/>
<polygon fill="#63b8ff" stroke="#63b8ff" points="207.47,-40.32 216.1,-34.18 205.52,-33.6 207.47,-40.32"/>
</a>
</g>
<g id="a_edge2&#45;headlabel"><a xlink:href="dir_000108_000058.html" target="_top" xlink:title="5">
<text text-anchor="middle" x="206.26" y="-40.51" font-family="Helvetica,sans-Serif" font-size="10.00" fill="#63b8ff">5</text>
</a>
</g>
</g>
<!-- dir_18e472f25d45cf5b14fed1da5e3602e9 -->
<g id="node3" class="node">
<title>dir_18e472f25d45cf5b14fed1da5e3602e9</title>
<g id="a_node3"><a xlink:href="dir_18e472f25d45cf5b14fed1da5e3602e9.html" target="_top" xlink:title="filesystem">
<polygon fill="#a2b4d6" stroke="#404040" points="143.5,-93.5 76.5,-93.5 76.5,-72.75 143.5,-72.75 143.5,-93.5"/>
<text text-anchor="middle" x="110" y="-80" font-family="Helvetica,sans-Serif" font-size="10.00">filesystem</text>
</a>
</g>
</g>
</g>
</svg>
