<?xml version="1.0" encoding="UTF-8" standalone="no"?>
<!DOCTYPE svg PUBLIC "-//W3C//DTD SVG 1.1//EN"
 "http://www.w3.org/Graphics/SVG/1.1/DTD/svg11.dtd">
<!-- Generated by graphviz version 10.0.1 (0)
 -->
<!-- Title: iris Pages: 1 -->
<svg width="441pt" height="158pt"
 viewBox="0.00 0.00 441.00 158.25" xmlns="http://www.w3.org/2000/svg" xmlns:xlink="http://www.w3.org/1999/xlink">
<g id="graph0" class="graph" transform="scale(1 1) rotate(0) translate(4 154.25)">
<title>iris</title>
<g id="clust1" class="cluster">
<title>clusterdir_2605f0c6ea8f9a17a384edc9a2df15f4</title>
<g id="a_clust1"><a xlink:href="dir_2605f0c6ea8f9a17a384edc9a2df15f4.html" target="_top">
<polygon fill="#edf0f7" stroke="#404040" stroke-width="2" points="8,-48.75 8,-142.25 425,-142.25 425,-48.75 8,-48.75"/>
</a>
</g>
</g>
<!-- dir_2605f0c6ea8f9a17a384edc9a2df15f4 -->
<g id="node1" class="node">
<title>dir_2605f0c6ea8f9a17a384edc9a2df15f4</title>
<text text-anchor="middle" x="401" y="-120.75" font-family="Helvetica,sans-Serif" font-size="10.00">iris</text>
</g>
<!-- dir_6719ab1f1f7655efc2fa43f7eb574fd1 -->
<g id="node10" class="node">
<title>dir_6719ab1f1f7655efc2fa43f7eb574fd1</title>
<g id="a_node10"><a xlink:href="dir_6719ab1f1f7655efc2fa43f7eb574fd1.html" target="_top" xlink:title="libs">
<polygon fill="#edf0f7" stroke="red" points="251.62,-20.75 218.38,-20.75 218.38,0 251.62,0 251.62,-20.75"/>
<text text-anchor="middle" x="235" y="-7.25" font-family="Helvetica,sans-Serif" font-size="10.00">libs</text>
</a>
</g>
</g>
<!-- dir_2605f0c6ea8f9a17a384edc9a2df15f4&#45;&gt;dir_6719ab1f1f7655efc2fa43f7eb574fd1 -->
<g id="edge1" class="edge">
<title>dir_2605f0c6ea8f9a17a384edc9a2df15f4&#45;&gt;dir_6719ab1f1f7655efc2fa43f7eb574fd1</title>
<g id="a_edge1"><a xlink:href="dir_000104_000112.html" target="_top">
<path fill="none" stroke="#63b8ff" d="M391.19,-113.65C375.09,-98.8 341.68,-69.19 310,-48.75 294.9,-39.01 276.91,-29.97 262.34,-23.22"/>
<polygon fill="#63b8ff" stroke="#63b8ff" points="263.9,-20.08 253.34,-19.15 261.01,-26.46 263.9,-20.08"/>
</a>
</g>
<g id="a_edge1&#45;headlabel"><a xlink:href="dir_000104_000112.html" target="_top" xlink:title="183">
<text text-anchor="middle" x="266.96" y="-15.23" font-family="Helvetica,sans-Serif" font-size="10.00" fill="#63b8ff">183</text>
</a>
</g>
</g>
<!-- dir_f2ff11f222a905ddb637e89c42daf582 -->
<g id="node2" class="node">
<title>dir_f2ff11f222a905ddb637e89c42daf582</title>
<g id="a_node2"><a xlink:href="dir_f2ff11f222a905ddb637e89c42daf582.html" target="_top" xlink:title="arch">
<polygon fill="#a2b4d6" stroke="#404040" points="312.5,-134.25 275.5,-134.25 275.5,-113.5 312.5,-113.5 312.5,-134.25"/>
<text text-anchor="middle" x="294" y="-120.75" font-family="Helvetica,sans-Serif" font-size="10.00">arch</text>
</a>
</g>
</g>
<!-- dir_29a765eed241630f2929477fec556e75 -->
<g id="node7" class="node">
<title>dir_29a765eed241630f2929477fec556e75</title>
<g id="a_node7"><a xlink:href="dir_29a765eed241630f2929477fec556e75.html" target="_top" xlink:title="include">
<polygon fill="#a2b4d6" stroke="#404040" points="92.62,-77.5 41.38,-77.5 41.38,-56.75 92.62,-56.75 92.62,-77.5"/>
<text text-anchor="middle" x="67" y="-64" font-family="Helvetica,sans-Serif" font-size="10.00">include</text>
</a>
</g>
</g>
<!-- dir_f2ff11f222a905ddb637e89c42daf582&#45;&gt;dir_29a765eed241630f2929477fec556e75 -->
<g id="edge3" class="edge">
<title>dir_f2ff11f222a905ddb637e89c42daf582&#45;&gt;dir_29a765eed241630f2929477fec556e75</title>
<g id="a_edge3"><a xlink:href="dir_000010_000092.html" target="_top">
<path fill="none" stroke="#63b8ff" d="M275.2,-116.05C272.47,-115.14 269.67,-114.26 267,-113.5 210.92,-97.46 144.71,-83.36 104.3,-75.3"/>
<polygon fill="#63b8ff" stroke="#63b8ff" points="105.1,-71.89 94.61,-73.38 103.74,-78.75 105.1,-71.89"/>
</a>
</g>
<g id="a_edge3&#45;headlabel"><a xlink:href="dir_000010_000092.html" target="_top" xlink:title="123">
<text text-anchor="middle" x="107.69" y="-66.38" font-family="Helvetica,sans-Serif" font-size="10.00" fill="#63b8ff">123</text>
</a>
</g>
</g>
<!-- dir_f2ff11f222a905ddb637e89c42daf582&#45;&gt;dir_6719ab1f1f7655efc2fa43f7eb574fd1 -->
<g id="edge2" class="edge">
<title>dir_f2ff11f222a905ddb637e89c42daf582&#45;&gt;dir_6719ab1f1f7655efc2fa43f7eb574fd1</title>
<g id="a_edge2"><a xlink:href="dir_000010_000112.html" target="_top">
<path fill="none" stroke="#63b8ff" d="M290.89,-113.4C285.96,-98.96 275.6,-70.79 263,-48.75 259.34,-42.35 254.74,-35.78 250.34,-29.96"/>
<polygon fill="#63b8ff" stroke="#63b8ff" points="253.19,-27.93 244.25,-22.25 247.7,-32.27 253.19,-27.93"/>
</a>
</g>
<g id="a_edge2&#45;headlabel"><a xlink:href="dir_000010_000112.html" target="_top" xlink:title="7">
<text text-anchor="middle" x="256.71" y="-24.68" font-family="Helvetica,sans-Serif" font-size="10.00" fill="#63b8ff">7</text>
</a>
</g>
</g>
<!-- dir_137ec6a6d255f62d8ed043aa6445439f -->
<g id="node3" class="node">
<title>dir_137ec6a6d255f62d8ed043aa6445439f</title>
<g id="a_node3"><a xlink:href="dir_137ec6a6d255f62d8ed043aa6445439f.html" target="_top" xlink:title="boot">
<polygon fill="#a2b4d6" stroke="#404040" points="367.88,-134.25 330.12,-134.25 330.12,-113.5 367.88,-113.5 367.88,-134.25"/>
<text text-anchor="middle" x="349" y="-120.75" font-family="Helvetica,sans-Serif" font-size="10.00">boot</text>
</a>
</g>
</g>
<!-- dir_137ec6a6d255f62d8ed043aa6445439f&#45;&gt;dir_29a765eed241630f2929477fec556e75 -->
<g id="edge4" class="edge">
<title>dir_137ec6a6d255f62d8ed043aa6445439f&#45;&gt;dir_29a765eed241630f2929477fec556e75</title>
<g id="a_edge4"><a xlink:href="dir_000027_000092.html" target="_top">
<path fill="none" stroke="#63b8ff" d="M329.65,-115.74C327.09,-114.92 324.5,-114.15 322,-113.5 245.67,-93.59 154.2,-79.66 104.19,-72.86"/>
<polygon fill="#63b8ff" stroke="#63b8ff" points="104.87,-69.42 94.49,-71.57 103.94,-76.36 104.87,-69.42"/>
</a>
</g>
<g id="a_edge4&#45;headlabel"><a xlink:href="dir_000027_000092.html" target="_top" xlink:title="17">
<text text-anchor="middle" x="107.3" y="-63.76" font-family="Helvetica,sans-Serif" font-size="10.00" fill="#63b8ff">17</text>
</a>
</g>
</g>
<!-- dir_137ec6a6d255f62d8ed043aa6445439f&#45;&gt;dir_6719ab1f1f7655efc2fa43f7eb574fd1 -->
<g id="edge5" class="edge">
<title>dir_137ec6a6d255f62d8ed043aa6445439f&#45;&gt;dir_6719ab1f1f7655efc2fa43f7eb574fd1</title>
<g id="a_edge5"><a xlink:href="dir_000027_000112.html" target="_top">
<path fill="none" stroke="#63b8ff" d="M341.38,-113.25C329.59,-98.61 305.89,-70.18 283,-48.75 275.24,-41.49 266.17,-34.16 258.01,-27.94"/>
<polygon fill="#63b8ff" stroke="#63b8ff" points="260.31,-25.29 250.2,-22.12 256.13,-30.9 260.31,-25.29"/>
</a>
</g>
<g id="a_edge5&#45;headlabel"><a xlink:href="dir_000027_000112.html" target="_top" xlink:title="2">
<text text-anchor="middle" x="263.68" y="-21.13" font-family="Helvetica,sans-Serif" font-size="10.00" fill="#63b8ff">2</text>
</a>
</g>
</g>
<!-- dir_83b4b359322160b6ecc771995724f605 -->
<g id="node4" class="node">
<title>dir_83b4b359322160b6ecc771995724f605</title>
<g id="a_node4"><a xlink:href="dir_83b4b359322160b6ecc771995724f605.html" target="_top" xlink:title="core">
<polygon fill="#a2b4d6" stroke="#404040" points="53.5,-134.25 16.5,-134.25 16.5,-113.5 53.5,-113.5 53.5,-134.25"/>
<text text-anchor="middle" x="35" y="-120.75" font-family="Helvetica,sans-Serif" font-size="10.00">core</text>
</a>
</g>
</g>
<!-- dir_83b4b359322160b6ecc771995724f605&#45;&gt;dir_29a765eed241630f2929477fec556e75 -->
<g id="edge6" class="edge">
<title>dir_83b4b359322160b6ecc771995724f605&#45;&gt;dir_29a765eed241630f2929477fec556e75</title>
<g id="a_edge6"><a xlink:href="dir_000050_000092.html" target="_top">
<path fill="none" stroke="#63b8ff" d="M40.72,-113.09C44.86,-106 50.6,-96.19 55.65,-87.54"/>
<polygon fill="#63b8ff" stroke="#63b8ff" points="58.54,-89.53 60.56,-79.14 52.5,-86 58.54,-89.53"/>
</a>
</g>
<g id="a_edge6&#45;headlabel"><a xlink:href="dir_000050_000092.html" target="_top" xlink:title="42">
<text text-anchor="middle" x="59.94" y="-89.64" font-family="Helvetica,sans-Serif" font-size="10.00" fill="#63b8ff">42</text>
</a>
</g>
</g>
<!-- dir_83b4b359322160b6ecc771995724f605&#45;&gt;dir_6719ab1f1f7655efc2fa43f7eb574fd1 -->
<g id="edge7" class="edge">
<title>dir_83b4b359322160b6ecc771995724f605&#45;&gt;dir_6719ab1f1f7655efc2fa43f7eb574fd1</title>
<g id="a_edge7"><a xlink:href="dir_000050_000112.html" target="_top">
<path fill="none" stroke="#63b8ff" d="M50.54,-113.12C64.36,-104.26 84.97,-90.61 102,-77.5 117.41,-65.64 118.29,-58.7 135,-48.75 157.73,-35.21 186.21,-25.15 206.96,-18.89"/>
<polygon fill="#63b8ff" stroke="#63b8ff" points="207.8,-22.3 216.44,-16.16 205.86,-15.57 207.8,-22.3"/>
</a>
</g>
<g id="a_edge7&#45;headlabel"><a xlink:href="dir_000050_000112.html" target="_top" xlink:title="9">
<text text-anchor="middle" x="206.59" y="-22.48" font-family="Helvetica,sans-Serif" font-size="10.00" fill="#63b8ff">9</text>
</a>
</g>
</g>
<!-- dir_fc3be540ee5038c39c0d538e735f8a33 -->
<g id="node5" class="node">
<title>dir_fc3be540ee5038c39c0d538e735f8a33</title>
<g id="a_node5"><a xlink:href="dir_fc3be540ee5038c39c0d538e735f8a33.html" target="_top" xlink:title="fs">
<polygon fill="#a2b4d6" stroke="#404040" points="100.4,-134.25 71.6,-134.25 71.6,-113.5 100.4,-113.5 100.4,-134.25"/>
<text text-anchor="middle" x="86" y="-120.75" font-family="Helvetica,sans-Serif" font-size="10.00">fs</text>
</a>
</g>
</g>
<!-- dir_fc3be540ee5038c39c0d538e735f8a33&#45;&gt;dir_29a765eed241630f2929477fec556e75 -->
<g id="edge8" class="edge">
<title>dir_fc3be540ee5038c39c0d538e735f8a33&#45;&gt;dir_29a765eed241630f2929477fec556e75</title>
<g id="a_edge8"><a xlink:href="dir_000081_000092.html" target="_top">
<path fill="none" stroke="#63b8ff" d="M82.6,-113.09C80.25,-106.31 77.04,-97.05 74.14,-88.69"/>
<polygon fill="#63b8ff" stroke="#63b8ff" points="77.45,-87.56 70.86,-79.26 70.84,-89.85 77.45,-87.56"/>
</a>
</g>
<g id="a_edge8&#45;headlabel"><a xlink:href="dir_000081_000092.html" target="_top" xlink:title="35">
<text text-anchor="middle" x="80.81" y="-85.47" font-family="Helvetica,sans-Serif" font-size="10.00" fill="#63b8ff">35</text>
</a>
</g>
</g>
<!-- dir_fc3be540ee5038c39c0d538e735f8a33&#45;&gt;dir_6719ab1f1f7655efc2fa43f7eb574fd1 -->
<g id="edge9" class="edge">
<title>dir_fc3be540ee5038c39c0d538e735f8a33&#45;&gt;dir_6719ab1f1f7655efc2fa43f7eb574fd1</title>
<g id="a_edge9"><a xlink:href="dir_000081_000112.html" target="_top">
<path fill="none" stroke="#63b8ff" d="M96.26,-113.16C112.08,-98.42 143.69,-69.85 173,-48.75 184.17,-40.71 197.12,-32.71 208.29,-26.19"/>
<polygon fill="#63b8ff" stroke="#63b8ff" points="209.7,-29.42 216.64,-21.41 206.22,-23.34 209.7,-29.42"/>
</a>
</g>
<g id="a_edge9&#45;headlabel"><a xlink:href="dir_000081_000112.html" target="_top" xlink:title="20">
<text text-anchor="middle" x="209.31" y="-29.79" font-family="Helvetica,sans-Serif" font-size="10.00" fill="#63b8ff">20</text>
</a>
</g>
</g>
<!-- dir_675dedb16c240190ff5f5386f85fd715 -->
<g id="node6" class="node">
<title>dir_675dedb16c240190ff5f5386f85fd715</title>
<g id="a_node6"><a xlink:href="dir_675dedb16c240190ff5f5386f85fd715.html" target="_top" xlink:title="hw">
<polygon fill="#a2b4d6" stroke="#404040" points="149.12,-134.25 118.88,-134.25 118.88,-113.5 149.12,-113.5 149.12,-134.25"/>
<text text-anchor="middle" x="134" y="-120.75" font-family="Helvetica,sans-Serif" font-size="10.00">hw</text>
</a>
</g>
</g>
<!-- dir_675dedb16c240190ff5f5386f85fd715&#45;&gt;dir_29a765eed241630f2929477fec556e75 -->
<g id="edge10" class="edge">
<title>dir_675dedb16c240190ff5f5386f85fd715&#45;&gt;dir_29a765eed241630f2929477fec556e75</title>
<g id="a_edge10"><a xlink:href="dir_000089_000092.html" target="_top">
<path fill="none" stroke="#63b8ff" d="M122.02,-113.09C112.49,-105.3 98.94,-94.22 87.67,-85.01"/>
<polygon fill="#63b8ff" stroke="#63b8ff" points="90,-82.4 80.05,-78.79 85.58,-87.82 90,-82.4"/>
</a>
</g>
<g id="a_edge10&#45;headlabel"><a xlink:href="dir_000089_000092.html" target="_top" xlink:title="17">
<text text-anchor="middle" x="93.41" y="-78.4" font-family="Helvetica,sans-Serif" font-size="10.00" fill="#63b8ff">17</text>
</a>
</g>
</g>
<!-- dir_675dedb16c240190ff5f5386f85fd715&#45;&gt;dir_6719ab1f1f7655efc2fa43f7eb574fd1 -->
<g id="edge11" class="edge">
<title>dir_675dedb16c240190ff5f5386f85fd715&#45;&gt;dir_6719ab1f1f7655efc2fa43f7eb574fd1</title>
<g id="a_edge11"><a xlink:href="dir_000089_000112.html" target="_top">
<path fill="none" stroke="#63b8ff" d="M142.61,-113.37C159.45,-94.78 196.97,-53.36 218.66,-29.41"/>
<polygon fill="#63b8ff" stroke="#63b8ff" points="220.99,-32.06 225.11,-22.3 215.8,-27.36 220.99,-32.06"/>
</a>
</g>
<g id="a_edge11&#45;headlabel"><a xlink:href="dir_000089_000112.html" target="_top" xlink:title="1">
<text text-anchor="middle" x="221.69" y="-32.38" font-family="Helvetica,sans-Serif" font-size="10.00" fill="#63b8ff">1</text>
</a>
</g>
</g>
<!-- dir_29a765eed241630f2929477fec556e75&#45;&gt;dir_6719ab1f1f7655efc2fa43f7eb574fd1 -->
<g id="edge12" class="edge">
<title>dir_29a765eed241630f2929477fec556e75&#45;&gt;dir_6719ab1f1f7655efc2fa43f7eb574fd1</title>
<g id="a_edge12"><a xlink:href="dir_000092_000112.html" target="_top">
<path fill="none" stroke="#63b8ff" d="M87.97,-56.42C94.05,-53.78 100.73,-51.02 107,-48.75 140.98,-36.46 181.11,-25.26 207.26,-18.39"/>
<polygon fill="#63b8ff" stroke="#63b8ff" points="207.95,-21.83 216.75,-15.93 206.19,-15.06 207.95,-21.83"/>
</a>
</g>
<g id="a_edge12&#45;headlabel"><a xlink:href="dir_000092_000112.html" target="_top" xlink:title="133">
<text text-anchor="middle" x="206.65" y="-21.98" font-family="Helvetica,sans-Serif" font-size="10.00" fill="#63b8ff">133</text>
</a>
</g>
</g>
<!-- dir_8458728a750598b4918c185cdd2ea453 -->
<g id="node8" class="node">
<title>dir_8458728a750598b4918c185cdd2ea453</title>
<g id="a_node8"><a xlink:href="dir_8458728a750598b4918c185cdd2ea453.html" target="_top" xlink:title="mm">
<polygon fill="#a2b4d6" stroke="#404040" points="202.75,-134.25 167.25,-134.25 167.25,-113.5 202.75,-113.5 202.75,-134.25"/>
<text text-anchor="middle" x="185" y="-120.75" font-family="Helvetica,sans-Serif" font-size="10.00">mm</text>
</a>
</g>
</g>
<!-- dir_8458728a750598b4918c185cdd2ea453&#45;&gt;dir_29a765eed241630f2929477fec556e75 -->
<g id="edge13" class="edge">
<title>dir_8458728a750598b4918c185cdd2ea453&#45;&gt;dir_29a765eed241630f2929477fec556e75</title>
<g id="a_edge13"><a xlink:href="dir_000131_000092.html" target="_top">
<path fill="none" stroke="#63b8ff" d="M166.82,-114.44C148.68,-106.02 120.44,-92.92 98.62,-82.8"/>
<polygon fill="#63b8ff" stroke="#63b8ff" points="100.11,-79.63 89.57,-78.6 97.16,-85.98 100.11,-79.63"/>
</a>
</g>
<g id="a_edge13&#45;headlabel"><a xlink:href="dir_000131_000092.html" target="_top" xlink:title="19">
<text text-anchor="middle" x="103.19" y="-74.8" font-family="Helvetica,sans-Serif" font-size="10.00" fill="#63b8ff">19</text>
</a>
</g>
</g>
<!-- dir_8458728a750598b4918c185cdd2ea453&#45;&gt;dir_6719ab1f1f7655efc2fa43f7eb574fd1 -->
<g id="edge14" class="edge">
<title>dir_8458728a750598b4918c185cdd2ea453&#45;&gt;dir_6719ab1f1f7655efc2fa43f7eb574fd1</title>
<g id="a_edge14"><a xlink:href="dir_000131_000112.html" target="_top">
<path fill="none" stroke="#63b8ff" d="M191.29,-113.05C196.9,-104.03 205.12,-90.18 211,-77.5 217.92,-62.57 224.21,-45.04 228.61,-31.78"/>
<polygon fill="#63b8ff" stroke="#63b8ff" points="231.88,-33.03 231.62,-22.44 225.22,-30.88 231.88,-33.03"/>
</a>
</g>
<g id="a_edge14&#45;headlabel"><a xlink:href="dir_000131_000112.html" target="_top" xlink:title="6">
<text text-anchor="middle" x="233.94" y="-32.76" font-family="Helvetica,sans-Serif" font-size="10.00" fill="#63b8ff">6</text>
</a>
</g>
</g>
<!-- dir_e895c7bd49bd1e4c3e28946d53f9cbd5 -->
<g id="node9" class="node">
<title>dir_e895c7bd49bd1e4c3e28946d53f9cbd5</title>
<g id="a_node9"><a xlink:href="dir_e895c7bd49bd1e4c3e28946d53f9cbd5.html" target="_top" xlink:title="uapi">
<polygon fill="#a2b4d6" stroke="#404040" points="257.5,-134.25 220.5,-134.25 220.5,-113.5 257.5,-113.5 257.5,-134.25"/>
<text text-anchor="middle" x="239" y="-120.75" font-family="Helvetica,sans-Serif" font-size="10.00">uapi</text>
</a>
</g>
</g>
<!-- dir_e895c7bd49bd1e4c3e28946d53f9cbd5&#45;&gt;dir_29a765eed241630f2929477fec556e75 -->
<g id="edge15" class="edge">
<title>dir_e895c7bd49bd1e4c3e28946d53f9cbd5&#45;&gt;dir_29a765eed241630f2929477fec556e75</title>
<g id="a_edge15"><a xlink:href="dir_000186_000092.html" target="_top">
<path fill="none" stroke="#63b8ff" d="M220.14,-116.24C217.42,-115.31 214.64,-114.37 212,-113.5 175.4,-101.42 133.35,-88.35 103.99,-79.35"/>
<polygon fill="#63b8ff" stroke="#63b8ff" points="105.04,-76.02 94.46,-76.44 103,-82.71 105.04,-76.02"/>
</a>
</g>
<g id="a_edge15&#45;headlabel"><a xlink:href="dir_000186_000092.html" target="_top" xlink:title="9">
<text text-anchor="middle" x="107.86" y="-70.78" font-family="Helvetica,sans-Serif" font-size="10.00" fill="#63b8ff">9</text>
</a>
</g>
</g>
<!-- dir_e895c7bd49bd1e4c3e28946d53f9cbd5&#45;&gt;dir_6719ab1f1f7655efc2fa43f7eb574fd1 -->
<g id="edge16" class="edge">
<title>dir_e895c7bd49bd1e4c3e28946d53f9cbd5&#45;&gt;dir_6719ab1f1f7655efc2fa43f7eb574fd1</title>
<g id="a_edge16"><a xlink:href="dir_000186_000112.html" target="_top">
<path fill="none" stroke="#63b8ff" d="M242.22,-113.24C246.53,-99.05 253.17,-71.75 249,-48.75 247.96,-43 246.08,-36.99 244.04,-31.5"/>
<polygon fill="#63b8ff" stroke="#63b8ff" points="247.44,-30.56 240.39,-22.65 240.97,-33.23 247.44,-30.56"/>
</a>
</g>
<g id="a_edge16&#45;headlabel"><a xlink:href="dir_000186_000112.html" target="_top" xlink:title="1">
<text text-anchor="middle" x="250.86" y="-28.28" font-family="Helvetica,sans-Serif" font-size="10.00" fill="#63b8ff">1</text>
</a>
</g>
</g>
</g>
</svg>
