<?xml version="1.0" encoding="UTF-8" standalone="no"?>
<!DOCTYPE svg PUBLIC "-//W3C//DTD SVG 1.1//EN"
 "http://www.w3.org/Graphics/SVG/1.1/DTD/svg11.dtd">
<!-- Generated by graphviz version 10.0.1 (0)
 -->
<!-- Title: libs/di/include/di/vocab/md Pages: 1 -->
<svg width="437pt" height="187pt"
 viewBox="0.00 0.00 437.03 187.00" xmlns="http://www.w3.org/2000/svg" xmlns:xlink="http://www.w3.org/1999/xlink">
<g id="graph0" class="graph" transform="scale(1 1) rotate(0) translate(4 183)">
<title>libs/di/include/di/vocab/md</title>
<g id="clust1" class="cluster">
<title>clusterdir_942cfae36a92b6b1c4b510e99e852d40</title>
<g id="a_clust1"><a xlink:href="dir_942cfae36a92b6b1c4b510e99e852d40.html" target="_top" xlink:title="vocab">
<polygon fill="#edf0f7" stroke="#7f7f7f" stroke-dasharray="5,2" points="79.97,-40.75 79.97,-171 279.97,-171 279.97,-40.75 79.97,-40.75"/>
<text text-anchor="middle" x="179.97" y="-157.5" font-family="Helvetica,sans-Serif" font-size="10.00">vocab</text>
</a>
</g>
</g>
<g id="clust2" class="cluster">
<title>clusterdir_bf9e2a3d6b93982a82bbe9d883f4fbeb</title>
<g id="a_clust2"><a xlink:href="dir_bf9e2a3d6b93982a82bbe9d883f4fbeb.html" target="_top">
<polygon fill="#edf0f7" stroke="#404040" stroke-width="2" points="87.97,-48.75 87.97,-142.25 163.97,-142.25 163.97,-48.75 87.97,-48.75"/>
</a>
</g>
</g>
<!-- dir_470b886410dd06990f67532f35a9ce13 -->
<g id="node1" class="node">
<title>dir_470b886410dd06990f67532f35a9ce13</title>
<g id="a_node1"><a xlink:href="dir_470b886410dd06990f67532f35a9ce13.html" target="_top" xlink:title="span">
<polygon fill="#a2b4d6" stroke="#404040" points="212.6,-77.5 173.35,-77.5 173.35,-56.75 212.6,-56.75 212.6,-77.5"/>
<text text-anchor="middle" x="192.97" y="-64" font-family="Helvetica,sans-Serif" font-size="10.00">span</text>
</a>
</g>
</g>
<!-- dir_f2746db212e1651cb9c1857c0d141a99 -->
<g id="node2" class="node">
<title>dir_f2746db212e1651cb9c1857c0d141a99</title>
<g id="a_node2"><a xlink:href="dir_f2746db212e1651cb9c1857c0d141a99.html" target="_top" xlink:title="array">
<polygon fill="#a2b4d6" stroke="#404040" points="271.72,-77.5 230.22,-77.5 230.22,-56.75 271.72,-56.75 271.72,-77.5"/>
<text text-anchor="middle" x="250.97" y="-64" font-family="Helvetica,sans-Serif" font-size="10.00">array</text>
</a>
</g>
</g>
<!-- dir_bf9e2a3d6b93982a82bbe9d883f4fbeb -->
<g id="node3" class="node">
<title>dir_bf9e2a3d6b93982a82bbe9d883f4fbeb</title>
<text text-anchor="middle" x="139.97" y="-120.75" font-family="Helvetica,sans-Serif" font-size="10.00">md</text>
</g>
<!-- dir_bf9e2a3d6b93982a82bbe9d883f4fbeb&#45;&gt;dir_470b886410dd06990f67532f35a9ce13 -->
<g id="edge3" class="edge">
<title>dir_bf9e2a3d6b93982a82bbe9d883f4fbeb&#45;&gt;dir_470b886410dd06990f67532f35a9ce13</title>
<g id="a_edge3"><a xlink:href="dir_000122_000158.html" target="_top">
<path fill="none" stroke="#63b8ff" d="M148.72,-113.83C156.03,-106.28 166.67,-95.29 175.69,-85.98"/>
<polygon fill="#63b8ff" stroke="#63b8ff" points="178.18,-88.44 182.62,-78.82 173.15,-83.57 178.18,-88.44"/>
</a>
</g>
<g id="a_edge3&#45;headlabel"><a xlink:href="dir_000122_000158.html" target="_top" xlink:title="3">
<text text-anchor="middle" x="178.77" y="-88.78" font-family="Helvetica,sans-Serif" font-size="10.00" fill="#63b8ff">3</text>
</a>
</g>
</g>
<!-- dir_bf9e2a3d6b93982a82bbe9d883f4fbeb&#45;&gt;dir_f2746db212e1651cb9c1857c0d141a99 -->
<g id="edge7" class="edge">
<title>dir_bf9e2a3d6b93982a82bbe9d883f4fbeb&#45;&gt;dir_f2746db212e1651cb9c1857c0d141a99</title>
<g id="a_edge7"><a xlink:href="dir_000122_000017.html" target="_top">
<path fill="none" stroke="#63b8ff" d="M155.41,-115.26C172.33,-106.92 199.88,-93.33 221.07,-82.88"/>
<polygon fill="#63b8ff" stroke="#63b8ff" points="222.4,-86.12 229.82,-78.56 219.3,-79.84 222.4,-86.12"/>
</a>
</g>
<g id="a_edge7&#45;headlabel"><a xlink:href="dir_000122_000017.html" target="_top" xlink:title="2">
<text text-anchor="middle" x="221.79" y="-86.46" font-family="Helvetica,sans-Serif" font-size="10.00" fill="#63b8ff">2</text>
</a>
</g>
</g>
<!-- dir_c6eaad025eec0c5edf1b13e87a245536 -->
<g id="node4" class="node">
<title>dir_c6eaad025eec0c5edf1b13e87a245536</title>
<g id="a_node4"><a xlink:href="dir_c6eaad025eec0c5edf1b13e87a245536.html" target="_top" xlink:title="concepts">
<polygon fill="#a2b4d6" stroke="#404040" points="155.72,-77.5 96.22,-77.5 96.22,-56.75 155.72,-56.75 155.72,-77.5"/>
<text text-anchor="middle" x="125.97" y="-64" font-family="Helvetica,sans-Serif" font-size="10.00">concepts</text>
</a>
</g>
</g>
<!-- dir_bf9e2a3d6b93982a82bbe9d883f4fbeb&#45;&gt;dir_c6eaad025eec0c5edf1b13e87a245536 -->
<g id="edge6" class="edge">
<title>dir_bf9e2a3d6b93982a82bbe9d883f4fbeb&#45;&gt;dir_c6eaad025eec0c5edf1b13e87a245536</title>
<g id="a_edge6"><a xlink:href="dir_000122_000044.html" target="_top">
<path fill="none" stroke="#63b8ff" d="M137.66,-113.83C135.91,-106.99 133.43,-97.3 131.21,-88.61"/>
<polygon fill="#63b8ff" stroke="#63b8ff" points="134.67,-88.02 128.8,-79.2 127.89,-89.75 134.67,-88.02"/>
</a>
</g>
<g id="a_edge6&#45;headlabel"><a xlink:href="dir_000122_000044.html" target="_top" xlink:title="9">
<text text-anchor="middle" x="137.94" y="-86.21" font-family="Helvetica,sans-Serif" font-size="10.00" fill="#63b8ff">9</text>
</a>
</g>
</g>
<!-- dir_0669efae56692bb73da75efb5ebbccdf -->
<g id="node5" class="node">
<title>dir_0669efae56692bb73da75efb5ebbccdf</title>
<g id="a_node5"><a xlink:href="dir_0669efae56692bb73da75efb5ebbccdf.html" target="_top" xlink:title="function">
<polygon fill="#edf0f7" stroke="red" stroke-dasharray="5,2" points="71.85,-77.5 16.1,-77.5 16.1,-56.75 71.85,-56.75 71.85,-77.5"/>
<text text-anchor="middle" x="43.97" y="-64" font-family="Helvetica,sans-Serif" font-size="10.00">function</text>
</a>
</g>
</g>
<!-- dir_bf9e2a3d6b93982a82bbe9d883f4fbeb&#45;&gt;dir_0669efae56692bb73da75efb5ebbccdf -->
<g id="edge1" class="edge">
<title>dir_bf9e2a3d6b93982a82bbe9d883f4fbeb&#45;&gt;dir_0669efae56692bb73da75efb5ebbccdf</title>
<g id="a_edge1"><a xlink:href="dir_000122_000083.html" target="_top">
<path fill="none" stroke="#63b8ff" d="M124.12,-113.83C109.74,-105.63 88.24,-93.37 71.13,-83.61"/>
<polygon fill="#63b8ff" stroke="#63b8ff" points="72.88,-80.58 62.46,-78.67 69.41,-86.66 72.88,-80.58"/>
</a>
</g>
<g id="a_edge1&#45;headlabel"><a xlink:href="dir_000122_000083.html" target="_top" xlink:title="4">
<text text-anchor="middle" x="76.1" y="-76.02" font-family="Helvetica,sans-Serif" font-size="10.00" fill="#63b8ff">4</text>
</a>
</g>
</g>
<!-- dir_30ecaf38acae77be14fb9173f98f8612 -->
<g id="node6" class="node">
<title>dir_30ecaf38acae77be14fb9173f98f8612</title>
<g id="a_node6"><a xlink:href="dir_30ecaf38acae77be14fb9173f98f8612.html" target="_top" xlink:title="types">
<polygon fill="#edf0f7" stroke="#7f7f7f" points="97.47,-20.75 54.47,-20.75 54.47,0 97.47,0 97.47,-20.75"/>
<text text-anchor="middle" x="75.97" y="-7.25" font-family="Helvetica,sans-Serif" font-size="10.00">types</text>
</a>
</g>
</g>
<!-- dir_bf9e2a3d6b93982a82bbe9d883f4fbeb&#45;&gt;dir_30ecaf38acae77be14fb9173f98f8612 -->
<g id="edge2" class="edge">
<title>dir_bf9e2a3d6b93982a82bbe9d883f4fbeb&#45;&gt;dir_30ecaf38acae77be14fb9173f98f8612</title>
<g id="a_edge2"><a xlink:href="dir_000122_000184.html" target="_top">
<path fill="none" stroke="#63b8ff" d="M124.3,-122.93C95.41,-122.07 34.23,-115.6 6.97,-77.5 -2.53,-64.22 -2.04,-54.37 6.97,-40.75 15.11,-28.45 29.55,-21.28 43.13,-17.11"/>
<polygon fill="#63b8ff" stroke="#63b8ff" points="43.9,-20.53 52.71,-14.65 42.15,-13.75 43.9,-20.53"/>
</a>
</g>
<g id="a_edge2&#45;headlabel"><a xlink:href="dir_000122_000184.html" target="_top" xlink:title="5">
<text text-anchor="middle" x="42.59" y="-20.67" font-family="Helvetica,sans-Serif" font-size="10.00" fill="#63b8ff">5</text>
</a>
</g>
</g>
<!-- dir_521de572ae4fe2915cc70a876c52f5b7 -->
<g id="node7" class="node">
<title>dir_521de572ae4fe2915cc70a876c52f5b7</title>
<g id="a_node7"><a xlink:href="dir_521de572ae4fe2915cc70a876c52f5b7.html" target="_top" xlink:title="container">
<polygon fill="#edf0f7" stroke="red" stroke-dasharray="5,2" points="351.85,-77.5 290.1,-77.5 290.1,-56.75 351.85,-56.75 351.85,-77.5"/>
<text text-anchor="middle" x="320.97" y="-64" font-family="Helvetica,sans-Serif" font-size="10.00">container</text>
</a>
</g>
</g>
<!-- dir_bf9e2a3d6b93982a82bbe9d883f4fbeb&#45;&gt;dir_521de572ae4fe2915cc70a876c52f5b7 -->
<g id="edge4" class="edge">
<title>dir_bf9e2a3d6b93982a82bbe9d883f4fbeb&#45;&gt;dir_521de572ae4fe2915cc70a876c52f5b7</title>
<g id="a_edge4"><a xlink:href="dir_000122_000046.html" target="_top">
<path fill="none" stroke="#63b8ff" d="M155.72,-118.11C182.94,-109.88 239.66,-92.72 279,-80.82"/>
<polygon fill="#63b8ff" stroke="#63b8ff" points="279.84,-84.22 288.4,-77.98 277.81,-77.52 279.84,-84.22"/>
</a>
</g>
<g id="a_edge4&#45;headlabel"><a xlink:href="dir_000122_000046.html" target="_top" xlink:title="5">
<text text-anchor="middle" x="278.67" y="-84.42" font-family="Helvetica,sans-Serif" font-size="10.00" fill="#63b8ff">5</text>
</a>
</g>
</g>
<!-- dir_60d1624911c2c9f7b6f38e44ec895aaa -->
<g id="node8" class="node">
<title>dir_60d1624911c2c9f7b6f38e44ec895aaa</title>
<g id="a_node8"><a xlink:href="dir_60d1624911c2c9f7b6f38e44ec895aaa.html" target="_top" xlink:title="math">
<polygon fill="#edf0f7" stroke="red" stroke-dasharray="5,2" points="411.72,-77.5 370.22,-77.5 370.22,-56.75 411.72,-56.75 411.72,-77.5"/>
<text text-anchor="middle" x="390.97" y="-64" font-family="Helvetica,sans-Serif" font-size="10.00">math</text>
</a>
</g>
</g>
<!-- dir_bf9e2a3d6b93982a82bbe9d883f4fbeb&#45;&gt;dir_60d1624911c2c9f7b6f38e44ec895aaa -->
<g id="edge5" class="edge">
<title>dir_bf9e2a3d6b93982a82bbe9d883f4fbeb&#45;&gt;dir_60d1624911c2c9f7b6f38e44ec895aaa</title>
<g id="a_edge5"><a xlink:href="dir_000122_000121.html" target="_top">
<path fill="none" stroke="#63b8ff" d="M155.64,-120.22C190.42,-114.2 276.88,-98.6 358.75,-77.87"/>
<polygon fill="#63b8ff" stroke="#63b8ff" points="359.46,-81.3 368.28,-75.42 357.72,-74.52 359.46,-81.3"/>
</a>
</g>
<g id="a_edge5&#45;headlabel"><a xlink:href="dir_000122_000121.html" target="_top" xlink:title="3">
<text text-anchor="middle" x="358.15" y="-81.44" font-family="Helvetica,sans-Serif" font-size="10.00" fill="#63b8ff">3</text>
</a>
</g>
</g>
<!-- dir_f555f996eeee1ebe901dc71e0c5de8ff -->
<g id="node9" class="node">
<title>dir_f555f996eeee1ebe901dc71e0c5de8ff</title>
<g id="a_node9"><a xlink:href="dir_f555f996eeee1ebe901dc71e0c5de8ff.html" target="_top" xlink:title="meta">
<polygon fill="#edf0f7" stroke="#7f7f7f" points="195.72,-20.75 154.22,-20.75 154.22,0 195.72,0 195.72,-20.75"/>
<text text-anchor="middle" x="174.97" y="-7.25" font-family="Helvetica,sans-Serif" font-size="10.00">meta</text>
</a>
</g>
</g>
<!-- dir_bf9e2a3d6b93982a82bbe9d883f4fbeb&#45;&gt;dir_f555f996eeee1ebe901dc71e0c5de8ff -->
<g id="edge8" class="edge">
<title>dir_bf9e2a3d6b93982a82bbe9d883f4fbeb&#45;&gt;dir_f555f996eeee1ebe901dc71e0c5de8ff</title>
<g id="a_edge8"><a xlink:href="dir_000122_000126.html" target="_top">
<path fill="none" stroke="#63b8ff" d="M155.5,-122.88C209.3,-122.52 386.29,-118.23 420.97,-77.5 431.56,-65.06 431.82,-52.96 420.97,-40.75 407.02,-25.04 271.04,-16.2 207.45,-12.89"/>
<polygon fill="#63b8ff" stroke="#63b8ff" points="207.78,-9.4 197.62,-12.4 207.43,-16.4 207.78,-9.4"/>
</a>
</g>
<g id="a_edge8&#45;headlabel"><a xlink:href="dir_000122_000126.html" target="_top" xlink:title="19">
<text text-anchor="middle" x="210" y="-3.55" font-family="Helvetica,sans-Serif" font-size="10.00" fill="#63b8ff">19</text>
</a>
</g>
</g>
<!-- dir_c6eaad025eec0c5edf1b13e87a245536&#45;&gt;dir_30ecaf38acae77be14fb9173f98f8612 -->
<g id="edge9" class="edge">
<title>dir_c6eaad025eec0c5edf1b13e87a245536&#45;&gt;dir_30ecaf38acae77be14fb9173f98f8612</title>
<g id="a_edge9"><a xlink:href="dir_000044_000184.html" target="_top">
<path fill="none" stroke="#63b8ff" d="M117.03,-56.34C110.21,-48.86 100.61,-38.36 92.41,-29.38"/>
<polygon fill="#63b8ff" stroke="#63b8ff" points="95.18,-27.22 85.86,-22.2 90.01,-31.94 95.18,-27.22"/>
</a>
</g>
<g id="a_edge9&#45;headlabel"><a xlink:href="dir_000044_000184.html" target="_top" xlink:title="1">
<text text-anchor="middle" x="98.68" y="-23.72" font-family="Helvetica,sans-Serif" font-size="10.00" fill="#63b8ff">1</text>
</a>
</g>
</g>
<!-- dir_c6eaad025eec0c5edf1b13e87a245536&#45;&gt;dir_f555f996eeee1ebe901dc71e0c5de8ff -->
<g id="edge10" class="edge">
<title>dir_c6eaad025eec0c5edf1b13e87a245536&#45;&gt;dir_f555f996eeee1ebe901dc71e0c5de8ff</title>
<g id="a_edge10"><a xlink:href="dir_000044_000126.html" target="_top">
<path fill="none" stroke="#63b8ff" d="M134.73,-56.34C141.42,-48.86 150.83,-38.36 158.86,-29.38"/>
<polygon fill="#63b8ff" stroke="#63b8ff" points="161.22,-31.99 165.28,-22.21 156,-27.32 161.22,-31.99"/>
</a>
</g>
<g id="a_edge10&#45;headlabel"><a xlink:href="dir_000044_000126.html" target="_top" xlink:title="7">
<text text-anchor="middle" x="161.95" y="-32.31" font-family="Helvetica,sans-Serif" font-size="10.00" fill="#63b8ff">7</text>
</a>
</g>
</g>
</g>
</svg>
