<?xml version="1.0" encoding="UTF-8" standalone="no"?>
<!DOCTYPE svg PUBLIC "-//W3C//DTD SVG 1.1//EN"
 "http://www.w3.org/Graphics/SVG/1.1/DTD/svg11.dtd">
<!-- Generated by graphviz version 12.2.1 (0)
 -->
<!-- Title: libs/dius Pages: 1 -->
<svg width="420pt" height="203pt"
 viewBox="0.00 0.00 419.50 203.00" xmlns="http://www.w3.org/2000/svg" xmlns:xlink="http://www.w3.org/1999/xlink">
<g id="graph0" class="graph" transform="scale(1 1) rotate(0) translate(4 199)">
<title>libs/dius</title>
<g id="clust1" class="cluster">
<title>clusterdir_6719ab1f1f7655efc2fa43f7eb574fd1</title>
<g id="a_clust1"><a xlink:href="dir_6719ab1f1f7655efc2fa43f7eb574fd1.html" target="_top" xlink:title="libs">
<polygon fill="#edf0f7" stroke="#404040" stroke-dasharray="5,2" points="8,-8 8,-187 372,-187 372,-8 8,-8"/>
<text text-anchor="middle" x="190" y="-173.5" font-family="Helvetica,sans-Serif" font-size="10.00">libs</text>
</a>
</g>
</g>
<g id="clust2" class="cluster">
<title>clusterdir_2bc9e3f402dd86ba93785edd287294d9</title>
<g id="a_clust2"><a xlink:href="dir_2bc9e3f402dd86ba93785edd287294d9.html" target="_top">
<polygon fill="#edf0f7" stroke="#404040" stroke-width="2" points="16,-64.75 16,-158.25 364,-158.25 364,-64.75 16,-64.75"/>
</a>
</g>
</g>
<!-- dir_048287677304621c659962c2a2c2732d -->
<g id="node1" class="node">
<title>dir_048287677304621c659962c2a2c2732d</title>
<g id="a_node1"><a xlink:href="dir_048287677304621c659962c2a2c2732d.html" target="_top" xlink:title="ccpp">
<polygon fill="#a2b4d6" stroke="red" points="164.25,-36.75 125.75,-36.75 125.75,-16 164.25,-16 164.25,-36.75"/>
<text text-anchor="middle" x="145" y="-23.25" font-family="Helvetica,sans-Serif" font-size="10.00">ccpp</text>
</a>
</g>
</g>
<!-- dir_984cd133b143ec7cf21a4bdcb401bfa5 -->
<g id="node2" class="node">
<title>dir_984cd133b143ec7cf21a4bdcb401bfa5</title>
<g id="a_node2"><a xlink:href="dir_984cd133b143ec7cf21a4bdcb401bfa5.html" target="_top" xlink:title="di">
<polygon fill="#a2b4d6" stroke="red" points="215.4,-36.75 186.6,-36.75 186.6,-16 215.4,-16 215.4,-36.75"/>
<text text-anchor="middle" x="201" y="-23.25" font-family="Helvetica,sans-Serif" font-size="10.00">di</text>
</a>
</g>
</g>
<!-- dir_2bc9e3f402dd86ba93785edd287294d9 -->
<g id="node3" class="node">
<title>dir_2bc9e3f402dd86ba93785edd287294d9</title>
<text text-anchor="middle" x="214" y="-136.75" font-family="Helvetica,sans-Serif" font-size="10.00">dius</text>
</g>
<!-- dir_2bc9e3f402dd86ba93785edd287294d9&#45;&gt;dir_048287677304621c659962c2a2c2732d -->
<g id="edge1" class="edge">
<title>dir_2bc9e3f402dd86ba93785edd287294d9&#45;&gt;dir_048287677304621c659962c2a2c2732d</title>
<g id="a_edge1"><a xlink:href="dir_000065_000032.html" target="_top">
<path fill="none" stroke="#63b8ff" d="M208.35,-129.75C197.14,-111.63 171.85,-70.76 156.83,-46.49"/>
<polygon fill="#63b8ff" stroke="#63b8ff" points="159.96,-44.89 151.72,-38.23 154,-48.57 159.96,-44.89"/>
</a>
</g>
<g id="a_edge1&#45;headlabel"><a xlink:href="dir_000065_000032.html" target="_top" xlink:title="19">
<text text-anchor="middle" x="163.46" y="-42.04" font-family="Helvetica,sans-Serif" font-size="10.00" fill="#63b8ff">19</text>
</a>
</g>
</g>
<!-- dir_2bc9e3f402dd86ba93785edd287294d9&#45;&gt;dir_984cd133b143ec7cf21a4bdcb401bfa5 -->
<g id="edge3" class="edge">
<title>dir_2bc9e3f402dd86ba93785edd287294d9&#45;&gt;dir_984cd133b143ec7cf21a4bdcb401bfa5</title>
<g id="a_edge3"><a xlink:href="dir_000065_000060.html" target="_top">
<path fill="none" stroke="#63b8ff" d="M209.74,-129.74C205.8,-120.74 200.23,-106.51 198,-93.5 195.41,-78.39 196.34,-61.08 197.81,-47.96"/>
<polygon fill="#63b8ff" stroke="#63b8ff" points="201.24,-48.75 199.1,-38.37 194.3,-47.82 201.24,-48.75"/>
</a>
</g>
<g id="a_edge3&#45;headlabel"><a xlink:href="dir_000065_000060.html" target="_top" xlink:title="185">
<text text-anchor="middle" x="203.78" y="-48.06" font-family="Helvetica,sans-Serif" font-size="10.00" fill="#63b8ff">185</text>
</a>
</g>
</g>
<!-- dir_6ac4aa95e4478b160428441746083760 -->
<g id="node4" class="node">
<title>dir_6ac4aa95e4478b160428441746083760</title>
<g id="a_node4"><a xlink:href="dir_6ac4aa95e4478b160428441746083760.html" target="_top" xlink:title="include">
<polygon fill="#a2b4d6" stroke="#404040" points="293.62,-93.5 242.38,-93.5 242.38,-72.75 293.62,-72.75 293.62,-93.5"/>
<text text-anchor="middle" x="268" y="-80" font-family="Helvetica,sans-Serif" font-size="10.00">include</text>
</a>
</g>
</g>
<!-- dir_2bc9e3f402dd86ba93785edd287294d9&#45;&gt;dir_6ac4aa95e4478b160428441746083760 -->
<g id="edge2" class="edge">
<title>dir_2bc9e3f402dd86ba93785edd287294d9&#45;&gt;dir_6ac4aa95e4478b160428441746083760</title>
<g id="a_edge2"><a xlink:href="dir_000065_000103.html" target="_top">
<path fill="none" stroke="#63b8ff" d="M222.92,-129.83C230.44,-122.21 241.43,-111.07 250.67,-101.69"/>
<polygon fill="#63b8ff" stroke="#63b8ff" points="252.93,-104.39 257.46,-94.81 247.95,-99.47 252.93,-104.39"/>
</a>
</g>
<g id="a_edge2&#45;headlabel"><a xlink:href="dir_000065_000103.html" target="_top" xlink:title="72">
<text text-anchor="middle" x="253.49" y="-104.74" font-family="Helvetica,sans-Serif" font-size="10.00" fill="#63b8ff">72</text>
</a>
</g>
</g>
<!-- dir_6ac4aa95e4478b160428441746083760&#45;&gt;dir_048287677304621c659962c2a2c2732d -->
<g id="edge6" class="edge">
<title>dir_6ac4aa95e4478b160428441746083760&#45;&gt;dir_048287677304621c659962c2a2c2732d</title>
<g id="a_edge6"><a xlink:href="dir_000103_000032.html" target="_top">
<path fill="none" stroke="#63b8ff" d="M252.04,-72.32C247.57,-69.72 242.65,-67.02 238,-64.75 217.53,-54.77 193.69,-45.23 175.28,-38.29"/>
<polygon fill="#63b8ff" stroke="#63b8ff" points="176.6,-35.04 166.01,-34.84 174.16,-41.61 176.6,-35.04"/>
</a>
</g>
<g id="a_edge6&#45;headlabel"><a xlink:href="dir_000103_000032.html" target="_top" xlink:title="4">
<text text-anchor="middle" x="179.54" y="-29.98" font-family="Helvetica,sans-Serif" font-size="10.00" fill="#63b8ff">4</text>
</a>
</g>
</g>
<!-- dir_6ac4aa95e4478b160428441746083760&#45;&gt;dir_984cd133b143ec7cf21a4bdcb401bfa5 -->
<g id="edge4" class="edge">
<title>dir_6ac4aa95e4478b160428441746083760&#45;&gt;dir_984cd133b143ec7cf21a4bdcb401bfa5</title>
<g id="a_edge4"><a xlink:href="dir_000103_000060.html" target="_top">
<path fill="none" stroke="#63b8ff" d="M256.02,-72.34C246.49,-64.55 232.94,-53.47 221.67,-44.26"/>
<polygon fill="#63b8ff" stroke="#63b8ff" points="224,-41.65 214.05,-38.04 219.58,-47.07 224,-41.65"/>
</a>
</g>
<g id="a_edge4&#45;headlabel"><a xlink:href="dir_000103_000060.html" target="_top" xlink:title="127">
<text text-anchor="middle" x="227.41" y="-37.65" font-family="Helvetica,sans-Serif" font-size="10.00" fill="#63b8ff">127</text>
</a>
</g>
</g>
<!-- dir_2605f0c6ea8f9a17a384edc9a2df15f4 -->
<g id="node10" class="node">
<title>dir_2605f0c6ea8f9a17a384edc9a2df15f4</title>
<g id="a_node10"><a xlink:href="dir_2605f0c6ea8f9a17a384edc9a2df15f4.html" target="_top" xlink:title="iris">
<polygon fill="#edf0f7" stroke="red" points="411.5,-36.75 380.5,-36.75 380.5,-16 411.5,-16 411.5,-36.75"/>
<text text-anchor="middle" x="396" y="-23.25" font-family="Helvetica,sans-Serif" font-size="10.00">iris</text>
</a>
</g>
</g>
<!-- dir_6ac4aa95e4478b160428441746083760&#45;&gt;dir_2605f0c6ea8f9a17a384edc9a2df15f4 -->
<g id="edge5" class="edge">
<title>dir_6ac4aa95e4478b160428441746083760&#45;&gt;dir_2605f0c6ea8f9a17a384edc9a2df15f4</title>
<g id="a_edge5"><a xlink:href="dir_000103_000115.html" target="_top">
<path fill="none" stroke="#63b8ff" d="M292.14,-72.31C311.79,-64.25 340.49,-52.33 369.89,-39.41"/>
<polygon fill="#63b8ff" stroke="#63b8ff" points="371.19,-42.66 378.92,-35.42 368.36,-36.26 371.19,-42.66"/>
</a>
</g>
<g id="a_edge5&#45;headlabel"><a xlink:href="dir_000103_000115.html" target="_top" xlink:title="2">
<text text-anchor="middle" x="370.44" y="-42.98" font-family="Helvetica,sans-Serif" font-size="10.00" fill="#63b8ff">2</text>
</a>
</g>
</g>
<!-- dir_17076abbcecdd53a1af3ac0a38ec6e06 -->
<g id="node5" class="node">
<title>dir_17076abbcecdd53a1af3ac0a38ec6e06</title>
<g id="a_node5"><a xlink:href="dir_17076abbcecdd53a1af3ac0a38ec6e06.html" target="_top" xlink:title="iros">
<polygon fill="#a2b4d6" stroke="#404040" points="356,-150.25 322,-150.25 322,-129.5 356,-129.5 356,-150.25"/>
<text text-anchor="middle" x="339" y="-136.75" font-family="Helvetica,sans-Serif" font-size="10.00">iros</text>
</a>
</g>
</g>
<!-- dir_17076abbcecdd53a1af3ac0a38ec6e06&#45;&gt;dir_984cd133b143ec7cf21a4bdcb401bfa5 -->
<g id="edge9" class="edge">
<title>dir_17076abbcecdd53a1af3ac0a38ec6e06&#45;&gt;dir_984cd133b143ec7cf21a4bdcb401bfa5</title>
<g id="a_edge9"><a xlink:href="dir_000120_000060.html" target="_top">
<path fill="none" stroke="#63b8ff" d="M321.52,-132.17C293.21,-121.2 239.77,-99.96 233,-93.5 229.37,-90.03 218.1,-65.83 209.97,-47.7"/>
<polygon fill="#63b8ff" stroke="#63b8ff" points="213.17,-46.28 205.9,-38.57 206.77,-49.13 213.17,-46.28"/>
</a>
</g>
<g id="a_edge9&#45;headlabel"><a xlink:href="dir_000120_000060.html" target="_top" xlink:title="6">
<text text-anchor="middle" x="216.61" y="-43.9" font-family="Helvetica,sans-Serif" font-size="10.00" fill="#63b8ff">6</text>
</a>
</g>
</g>
<!-- dir_17076abbcecdd53a1af3ac0a38ec6e06&#45;&gt;dir_6ac4aa95e4478b160428441746083760 -->
<g id="edge8" class="edge">
<title>dir_17076abbcecdd53a1af3ac0a38ec6e06&#45;&gt;dir_6ac4aa95e4478b160428441746083760</title>
<g id="a_edge8"><a xlink:href="dir_000120_000103.html" target="_top">
<path fill="none" stroke="#63b8ff" d="M326.31,-129.09C316.11,-121.22 301.56,-110 289.54,-100.74"/>
<polygon fill="#63b8ff" stroke="#63b8ff" points="291.84,-98.09 281.78,-94.75 287.56,-103.63 291.84,-98.09"/>
</a>
</g>
<g id="a_edge8&#45;headlabel"><a xlink:href="dir_000120_000103.html" target="_top" xlink:title="10">
<text text-anchor="middle" x="295.22" y="-93.99" font-family="Helvetica,sans-Serif" font-size="10.00" fill="#63b8ff">10</text>
</a>
</g>
</g>
<!-- dir_17076abbcecdd53a1af3ac0a38ec6e06&#45;&gt;dir_2605f0c6ea8f9a17a384edc9a2df15f4 -->
<g id="edge7" class="edge">
<title>dir_17076abbcecdd53a1af3ac0a38ec6e06&#45;&gt;dir_2605f0c6ea8f9a17a384edc9a2df15f4</title>
<g id="a_edge7"><a xlink:href="dir_000120_000115.html" target="_top">
<path fill="none" stroke="#63b8ff" d="M343.86,-129.37C353.11,-111.27 373.43,-71.53 385.79,-47.35"/>
<polygon fill="#63b8ff" stroke="#63b8ff" points="388.87,-49.02 390.3,-38.52 382.63,-45.83 388.87,-49.02"/>
</a>
</g>
<g id="a_edge7&#45;headlabel"><a xlink:href="dir_000120_000115.html" target="_top" xlink:title="3">
<text text-anchor="middle" x="390.45" y="-49.04" font-family="Helvetica,sans-Serif" font-size="10.00" fill="#63b8ff">3</text>
</a>
</g>
</g>
<!-- dir_7ccd26c404836bc22a606bd372fc0063 -->
<g id="node6" class="node">
<title>dir_7ccd26c404836bc22a606bd372fc0063</title>
<g id="a_node6"><a xlink:href="dir_7ccd26c404836bc22a606bd372fc0063.html" target="_top" xlink:title="linux">
<polygon fill="#a2b4d6" stroke="#404040" points="64,-150.25 24,-150.25 24,-129.5 64,-129.5 64,-150.25"/>
<text text-anchor="middle" x="44" y="-136.75" font-family="Helvetica,sans-Serif" font-size="10.00">linux</text>
</a>
</g>
</g>
<!-- dir_7ccd26c404836bc22a606bd372fc0063&#45;&gt;dir_048287677304621c659962c2a2c2732d -->
<g id="edge10" class="edge">
<title>dir_7ccd26c404836bc22a606bd372fc0063&#45;&gt;dir_048287677304621c659962c2a2c2732d</title>
<g id="a_edge10"><a xlink:href="dir_000130_000032.html" target="_top">
<path fill="none" stroke="#63b8ff" d="M44.91,-129.04C46.82,-113.62 52.53,-83.55 69,-64.75 81.01,-51.05 99.2,-41.85 114.77,-36.01"/>
<polygon fill="#63b8ff" stroke="#63b8ff" points="115.76,-39.37 124.09,-32.83 113.5,-32.75 115.76,-39.37"/>
</a>
</g>
<g id="a_edge10&#45;headlabel"><a xlink:href="dir_000130_000032.html" target="_top" xlink:title="6">
<text text-anchor="middle" x="114.71" y="-39.61" font-family="Helvetica,sans-Serif" font-size="10.00" fill="#63b8ff">6</text>
</a>
</g>
</g>
<!-- dir_7ccd26c404836bc22a606bd372fc0063&#45;&gt;dir_984cd133b143ec7cf21a4bdcb401bfa5 -->
<g id="edge12" class="edge">
<title>dir_7ccd26c404836bc22a606bd372fc0063&#45;&gt;dir_984cd133b143ec7cf21a4bdcb401bfa5</title>
<g id="a_edge12"><a xlink:href="dir_000130_000060.html" target="_top">
<path fill="none" stroke="#63b8ff" d="M55.65,-129.04C73.23,-114.38 107.8,-86.21 139,-64.75 150.97,-56.52 164.77,-48.1 176.31,-41.34"/>
<polygon fill="#63b8ff" stroke="#63b8ff" points="177.94,-44.44 184.85,-36.41 174.44,-38.38 177.94,-44.44"/>
</a>
</g>
<g id="a_edge12&#45;headlabel"><a xlink:href="dir_000130_000060.html" target="_top" xlink:title="12">
<text text-anchor="middle" x="177.56" y="-44.82" font-family="Helvetica,sans-Serif" font-size="10.00" fill="#63b8ff">12</text>
</a>
</g>
</g>
<!-- dir_7ccd26c404836bc22a606bd372fc0063&#45;&gt;dir_6ac4aa95e4478b160428441746083760 -->
<g id="edge11" class="edge">
<title>dir_7ccd26c404836bc22a606bd372fc0063&#45;&gt;dir_6ac4aa95e4478b160428441746083760</title>
<g id="a_edge11"><a xlink:href="dir_000130_000103.html" target="_top">
<path fill="none" stroke="#63b8ff" d="M64.21,-132.06C67.14,-131.16 70.14,-130.27 73,-129.5 141.92,-110.89 163.37,-112.49 231.34,-95.17"/>
<polygon fill="#63b8ff" stroke="#63b8ff" points="231.93,-98.64 240.72,-92.73 230.16,-91.86 231.93,-98.64"/>
</a>
</g>
<g id="a_edge11&#45;headlabel"><a xlink:href="dir_000130_000103.html" target="_top" xlink:title="14">
<text text-anchor="middle" x="230.63" y="-98.78" font-family="Helvetica,sans-Serif" font-size="10.00" fill="#63b8ff">14</text>
</a>
</g>
</g>
<!-- dir_53c77cad3f2909eef1204c9f26a60953 -->
<g id="node7" class="node">
<title>dir_53c77cad3f2909eef1204c9f26a60953</title>
<g id="a_node7"><a xlink:href="dir_53c77cad3f2909eef1204c9f26a60953.html" target="_top" xlink:title="posix">
<polygon fill="#a2b4d6" stroke="#404040" points="124.12,-150.25 81.88,-150.25 81.88,-129.5 124.12,-129.5 124.12,-150.25"/>
<text text-anchor="middle" x="103" y="-136.75" font-family="Helvetica,sans-Serif" font-size="10.00">posix</text>
</a>
</g>
</g>
<!-- dir_53c77cad3f2909eef1204c9f26a60953&#45;&gt;dir_048287677304621c659962c2a2c2732d -->
<g id="edge13" class="edge">
<title>dir_53c77cad3f2909eef1204c9f26a60953&#45;&gt;dir_048287677304621c659962c2a2c2732d</title>
<g id="a_edge13"><a xlink:href="dir_000157_000032.html" target="_top">
<path fill="none" stroke="#63b8ff" d="M103.63,-129.36C104.88,-114.87 108.42,-86.64 118,-64.75 120.88,-58.17 125.05,-51.62 129.27,-45.87"/>
<polygon fill="#63b8ff" stroke="#63b8ff" points="131.79,-48.33 135.22,-38.31 126.29,-44 131.79,-48.33"/>
</a>
</g>
<g id="a_edge13&#45;headlabel"><a xlink:href="dir_000157_000032.html" target="_top" xlink:title="4">
<text text-anchor="middle" x="132.73" y="-48.6" font-family="Helvetica,sans-Serif" font-size="10.00" fill="#63b8ff">4</text>
</a>
</g>
</g>
<!-- dir_53c77cad3f2909eef1204c9f26a60953&#45;&gt;dir_984cd133b143ec7cf21a4bdcb401bfa5 -->
<g id="edge15" class="edge">
<title>dir_53c77cad3f2909eef1204c9f26a60953&#45;&gt;dir_984cd133b143ec7cf21a4bdcb401bfa5</title>
<g id="a_edge15"><a xlink:href="dir_000157_000060.html" target="_top">
<path fill="none" stroke="#63b8ff" d="M111.36,-129.37C127.62,-110.86 163.78,-69.72 184.87,-45.73"/>
<polygon fill="#63b8ff" stroke="#63b8ff" points="187.41,-48.13 191.39,-38.31 182.16,-43.51 187.41,-48.13"/>
</a>
</g>
<g id="a_edge15&#45;headlabel"><a xlink:href="dir_000157_000060.html" target="_top" xlink:title="3">
<text text-anchor="middle" x="188.17" y="-48.45" font-family="Helvetica,sans-Serif" font-size="10.00" fill="#63b8ff">3</text>
</a>
</g>
</g>
<!-- dir_53c77cad3f2909eef1204c9f26a60953&#45;&gt;dir_6ac4aa95e4478b160428441746083760 -->
<g id="edge14" class="edge">
<title>dir_53c77cad3f2909eef1204c9f26a60953&#45;&gt;dir_6ac4aa95e4478b160428441746083760</title>
<g id="a_edge14"><a xlink:href="dir_000157_000103.html" target="_top">
<path fill="none" stroke="#63b8ff" d="M124.57,-131.72C151.73,-122.71 198.78,-107.09 231.56,-96.22"/>
<polygon fill="#63b8ff" stroke="#63b8ff" points="232.25,-99.67 240.64,-93.2 230.05,-93.03 232.25,-99.67"/>
</a>
</g>
<g id="a_edge14&#45;headlabel"><a xlink:href="dir_000157_000103.html" target="_top" xlink:title="4">
<text text-anchor="middle" x="231.17" y="-99.9" font-family="Helvetica,sans-Serif" font-size="10.00" fill="#63b8ff">4</text>
</a>
</g>
</g>
<!-- dir_31e18d227c2c24cfedcd1fb5687b87ef -->
<g id="node8" class="node">
<title>dir_31e18d227c2c24cfedcd1fb5687b87ef</title>
<g id="a_node8"><a xlink:href="dir_31e18d227c2c24cfedcd1fb5687b87ef.html" target="_top" xlink:title="runtime">
<polygon fill="#a2b4d6" stroke="#404040" points="304.12,-150.25 249.88,-150.25 249.88,-129.5 304.12,-129.5 304.12,-150.25"/>
<text text-anchor="middle" x="277" y="-136.75" font-family="Helvetica,sans-Serif" font-size="10.00">runtime</text>
</a>
</g>
</g>
<!-- dir_31e18d227c2c24cfedcd1fb5687b87ef&#45;&gt;dir_048287677304621c659962c2a2c2732d -->
<g id="edge18" class="edge">
<title>dir_31e18d227c2c24cfedcd1fb5687b87ef&#45;&gt;dir_048287677304621c659962c2a2c2732d</title>
<g id="a_edge18"><a xlink:href="dir_000167_000032.html" target="_top">
<path fill="none" stroke="#63b8ff" d="M285.74,-129.23C298.39,-114.06 318.68,-84.34 303,-64.75 267.41,-20.31 233.18,-50.76 178,-36.75 177.18,-36.54 176.34,-36.33 175.5,-36.11"/>
<polygon fill="#63b8ff" stroke="#63b8ff" points="176.52,-32.76 165.95,-33.51 174.68,-39.51 176.52,-32.76"/>
</a>
</g>
<g id="a_edge18&#45;headlabel"><a xlink:href="dir_000167_000032.html" target="_top" xlink:title="1">
<text text-anchor="middle" x="179.28" y="-27.44" font-family="Helvetica,sans-Serif" font-size="10.00" fill="#63b8ff">1</text>
</a>
</g>
</g>
<!-- dir_31e18d227c2c24cfedcd1fb5687b87ef&#45;&gt;dir_984cd133b143ec7cf21a4bdcb401bfa5 -->
<g id="edge17" class="edge">
<title>dir_31e18d227c2c24cfedcd1fb5687b87ef&#45;&gt;dir_984cd133b143ec7cf21a4bdcb401bfa5</title>
<g id="a_edge17"><a xlink:href="dir_000167_000060.html" target="_top">
<path fill="none" stroke="#63b8ff" d="M258.33,-129.01C245.16,-121.1 228.11,-108.81 218,-93.5 209.1,-80.02 204.86,-62.15 202.84,-48.39"/>
<polygon fill="#63b8ff" stroke="#63b8ff" points="206.34,-48.18 201.71,-38.65 199.38,-48.99 206.34,-48.18"/>
</a>
</g>
<g id="a_edge17&#45;headlabel"><a xlink:href="dir_000167_000060.html" target="_top" xlink:title="33">
<text text-anchor="middle" x="209.4" y="-46.8" font-family="Helvetica,sans-Serif" font-size="10.00" fill="#63b8ff">33</text>
</a>
</g>
</g>
<!-- dir_31e18d227c2c24cfedcd1fb5687b87ef&#45;&gt;dir_6ac4aa95e4478b160428441746083760 -->
<g id="edge16" class="edge">
<title>dir_31e18d227c2c24cfedcd1fb5687b87ef&#45;&gt;dir_6ac4aa95e4478b160428441746083760</title>
<g id="a_edge16"><a xlink:href="dir_000167_000103.html" target="_top">
<path fill="none" stroke="#63b8ff" d="M275.39,-129.09C274.29,-122.39 272.79,-113.26 271.43,-104.98"/>
<polygon fill="#63b8ff" stroke="#63b8ff" points="274.92,-104.62 269.84,-95.32 268.01,-105.76 274.92,-104.62"/>
</a>
</g>
<g id="a_edge16&#45;headlabel"><a xlink:href="dir_000167_000103.html" target="_top" xlink:title="27">
<text text-anchor="middle" x="278.06" y="-103.09" font-family="Helvetica,sans-Serif" font-size="10.00" fill="#63b8ff">27</text>
</a>
</g>
</g>
<!-- dir_fa70516c1f0e70fcd30080d69bfe6fb3 -->
<g id="node9" class="node">
<title>dir_fa70516c1f0e70fcd30080d69bfe6fb3</title>
<g id="a_node9"><a xlink:href="dir_fa70516c1f0e70fcd30080d69bfe6fb3.html" target="_top" xlink:title="test">
<polygon fill="#a2b4d6" stroke="#404040" points="177.38,-150.25 142.62,-150.25 142.62,-129.5 177.38,-129.5 177.38,-150.25"/>
<text text-anchor="middle" x="160" y="-136.75" font-family="Helvetica,sans-Serif" font-size="10.00">test</text>
</a>
</g>
</g>
<!-- dir_fa70516c1f0e70fcd30080d69bfe6fb3&#45;&gt;dir_048287677304621c659962c2a2c2732d -->
<g id="edge19" class="edge">
<title>dir_fa70516c1f0e70fcd30080d69bfe6fb3&#45;&gt;dir_048287677304621c659962c2a2c2732d</title>
<g id="a_edge19"><a xlink:href="dir_000189_000032.html" target="_top">
<path fill="none" stroke="#63b8ff" d="M158.72,-129.37C156.32,-111.52 151.09,-72.61 147.82,-48.34"/>
<polygon fill="#63b8ff" stroke="#63b8ff" points="151.32,-48.12 146.52,-38.68 144.38,-49.05 151.32,-48.12"/>
</a>
</g>
<g id="a_edge19&#45;headlabel"><a xlink:href="dir_000189_000032.html" target="_top" xlink:title="1">
<text text-anchor="middle" x="154.41" y="-46.68" font-family="Helvetica,sans-Serif" font-size="10.00" fill="#63b8ff">1</text>
</a>
</g>
</g>
<!-- dir_fa70516c1f0e70fcd30080d69bfe6fb3&#45;&gt;dir_6ac4aa95e4478b160428441746083760 -->
<g id="edge20" class="edge">
<title>dir_fa70516c1f0e70fcd30080d69bfe6fb3&#45;&gt;dir_6ac4aa95e4478b160428441746083760</title>
<g id="a_edge20"><a xlink:href="dir_000189_000103.html" target="_top">
<path fill="none" stroke="#63b8ff" d="M177.83,-129.83C194.31,-121.48 219.11,-108.91 238.53,-99.06"/>
<polygon fill="#63b8ff" stroke="#63b8ff" points="239.99,-102.25 247.33,-94.6 236.83,-96 239.99,-102.25"/>
</a>
</g>
<g id="a_edge20&#45;headlabel"><a xlink:href="dir_000189_000103.html" target="_top" xlink:title="5">
<text text-anchor="middle" x="239.42" y="-102.6" font-family="Helvetica,sans-Serif" font-size="10.00" fill="#63b8ff">5</text>
</a>
</g>
</g>
</g>
</svg>
