<?xml version="1.0" encoding="UTF-8" standalone="no"?>
<!DOCTYPE svg PUBLIC "-//W3C//DTD SVG 1.1//EN"
 "http://www.w3.org/Graphics/SVG/1.1/DTD/svg11.dtd">
<!-- Generated by graphviz version 10.0.1 (0)
 -->
<!-- Title: Graphical Class Hierarchy Pages: 1 -->
<svg width="391pt" height="429pt"
 viewBox="0.00 0.00 391.00 428.88" xmlns="http://www.w3.org/2000/svg" xmlns:xlink="http://www.w3.org/1999/xlink">
<g id="graph0" class="graph" transform="scale(1 1) rotate(0) translate(4 424.88)">
<title>Graphical Class Hierarchy</title>
<!-- Node0 -->
<g id="Node000000" class="node">
<title>Node0</title>
<g id="a_Node000000"><a xlink:href="structdi_1_1meta_1_1CustomCommonError.html" target="_top" xlink:title=" ">
<polygon fill="white" stroke="#666666" points="187,-420.88 19.5,-420.88 19.5,-387.38 187,-387.38 187,-420.88"/>
<text text-anchor="start" x="27.5" y="-407.38" font-family="Helvetica,sans-Serif" font-size="10.00">di::meta::CustomCommonError</text>
<text text-anchor="middle" x="103.25" y="-394.62" font-family="Helvetica,sans-Serif" font-size="10.00">&lt; T, U &gt;</text>
</a>
</g>
</g>
<!-- Node1 -->
<g id="Node000001" class="node">
<title>Node1</title>
<g id="a_Node000001"><a xlink:href="structdi_1_1meta_1_1detail_1_1CommonErrorHelper_3_01T_00_01U_01_4.html" target="_top" xlink:title=" ">
<polygon fill="white" stroke="#666666" points="383,-342.88 242.5,-342.88 242.5,-309.38 383,-309.38 383,-342.88"/>
<text text-anchor="start" x="250.5" y="-329.38" font-family="Helvetica,sans-Serif" font-size="10.00">di::meta::detail::Common</text>
<text text-anchor="middle" x="312.75" y="-316.62" font-family="Helvetica,sans-Serif" font-size="10.00">ErrorHelper&lt; T, U &gt;</text>
</a>
</g>
</g>
<!-- Node0&#45;&gt;Node1 -->
<g id="edge380_Node000000_Node000001" class="edge">
<title>Node0&#45;&gt;Node1</title>
<g id="a_edge380_Node000000_Node000001"><a xlink:title=" ">
<path fill="none" stroke="#63b8ff" d="M190.31,-383.65C195.83,-381.9 201.27,-380.06 206.5,-378.12 232.5,-368.52 260.58,-354.44 281.19,-343.36"/>
<polygon fill="#63b8ff" stroke="#63b8ff" points="189.64,-380.19 181.08,-386.44 191.67,-386.89 189.64,-380.19"/>
</a>
</g>
</g>
<!-- Node2 -->
<g id="Node000002" class="node">
<title>Node2</title>
<g id="a_Node000002"><a xlink:href="structdi_1_1meta_1_1TypeConstant.html" target="_top" xlink:title=" ">
<polygon fill="white" stroke="#666666" points="176.88,-264.88 29.62,-264.88 29.62,-231.38 176.88,-231.38 176.88,-264.88"/>
<text text-anchor="start" x="37.62" y="-251.38" font-family="Helvetica,sans-Serif" font-size="10.00">di::meta::TypeConstant</text>
<text text-anchor="middle" x="103.25" y="-238.62" font-family="Helvetica,sans-Serif" font-size="10.00">&lt; CommonType&lt; T, U &gt; &gt;</text>
</a>
</g>
</g>
<!-- Node2&#45;&gt;Node1 -->
<g id="edge381_Node000002_Node000001" class="edge">
<title>Node2&#45;&gt;Node1</title>
<g id="a_edge381_Node000002_Node000001"><a xlink:title=" ">
<path fill="none" stroke="#63b8ff" d="M187.89,-267.85C194.24,-269.81 200.5,-271.91 206.5,-274.12 232.5,-283.73 260.58,-297.81 281.19,-308.89"/>
<polygon fill="#63b8ff" stroke="#63b8ff" points="189.2,-264.58 178.62,-265.09 187.21,-271.29 189.2,-264.58"/>
</a>
</g>
</g>
<!-- Node3 -->
<g id="Node000003" class="node">
<title>Node3</title>
<g id="a_Node000003"><a xlink:href="structdi_1_1meta_1_1detail_1_1CommonReferenceHelper_3_01T_00_01U_01_4.html" target="_top" xlink:title=" ">
<polygon fill="white" stroke="#666666" points="383,-152.88 242.5,-152.88 242.5,-119.38 383,-119.38 383,-152.88"/>
<text text-anchor="start" x="250.5" y="-139.38" font-family="Helvetica,sans-Serif" font-size="10.00">di::meta::detail::Common</text>
<text text-anchor="middle" x="312.75" y="-126.62" font-family="Helvetica,sans-Serif" font-size="10.00">ReferenceHelper&lt; T, U &gt;</text>
</a>
</g>
</g>
<!-- Node2&#45;&gt;Node3 -->
<g id="edge382_Node000002_Node000003" class="edge">
<title>Node2&#45;&gt;Node3</title>
<g id="a_edge382_Node000002_Node000003"><a xlink:title=" ">
<path fill="none" stroke="#63b8ff" d="M188.02,-230.08C194.4,-227.72 200.63,-225.08 206.5,-222.12 241.9,-204.28 276.16,-172.82 295.54,-153.3"/>
<polygon fill="#63b8ff" stroke="#63b8ff" points="186.96,-226.74 178.62,-233.28 189.22,-233.37 186.96,-226.74"/>
</a>
</g>
</g>
<!-- Node4 -->
<g id="Node000004" class="node">
<title>Node4</title>
<g id="a_Node000004"><a xlink:href="structdi_1_1meta_1_1TypeConstant.html" target="_top" xlink:title=" ">
<polygon fill="white" stroke="#666666" points="206.5,-213 0,-213 0,-141.25 206.5,-141.25 206.5,-213"/>
<text text-anchor="start" x="8" y="-199.5" font-family="Helvetica,sans-Serif" font-size="10.00">di::meta::TypeConstant</text>
<text text-anchor="start" x="8" y="-186.75" font-family="Helvetica,sans-Serif" font-size="10.00">&lt; CustomCommonReference</text>
<text text-anchor="start" x="8" y="-174" font-family="Helvetica,sans-Serif" font-size="10.00">&lt; T, U, ProjectQualifiers</text>
<text text-anchor="start" x="8" y="-161.25" font-family="Helvetica,sans-Serif" font-size="10.00">&lt; T &gt;::template Type, ProjectQualifiers</text>
<text text-anchor="middle" x="103.25" y="-148.5" font-family="Helvetica,sans-Serif" font-size="10.00">&lt; U &gt;::template Type &gt;::Type &gt;</text>
</a>
</g>
</g>
<!-- Node4&#45;&gt;Node3 -->
<g id="edge383_Node000004_Node000003" class="edge">
<title>Node4&#45;&gt;Node3</title>
<g id="a_edge383_Node000004_Node000003"><a xlink:title=" ">
<path fill="none" stroke="#63b8ff" d="M217.97,-154.65C226.15,-153.04 234.25,-151.44 242.05,-149.9"/>
<polygon fill="#63b8ff" stroke="#63b8ff" points="217.4,-151.2 208.27,-156.57 218.76,-158.07 217.4,-151.2"/>
</a>
</g>
</g>
<!-- Node5 -->
<g id="Node000005" class="node">
<title>Node5</title>
<g id="a_Node000005"><a xlink:href="structdi_1_1meta_1_1TypeConstant.html" target="_top" xlink:title=" ">
<polygon fill="white" stroke="#666666" points="177.62,-123.62 28.88,-123.62 28.88,-64.62 177.62,-64.62 177.62,-123.62"/>
<text text-anchor="start" x="36.88" y="-110.12" font-family="Helvetica,sans-Serif" font-size="10.00">di::meta::TypeConstant</text>
<text text-anchor="start" x="36.88" y="-97.38" font-family="Helvetica,sans-Serif" font-size="10.00">&lt; decltype(false ? __get</text>
<text text-anchor="start" x="36.88" y="-84.62" font-family="Helvetica,sans-Serif" font-size="10.00">_value&lt; T &gt;() :__get_value</text>
<text text-anchor="middle" x="103.25" y="-71.88" font-family="Helvetica,sans-Serif" font-size="10.00">&lt; U &gt;())&gt;</text>
</a>
</g>
</g>
<!-- Node5&#45;&gt;Node3 -->
<g id="edge384_Node000005_Node000003" class="edge">
<title>Node5&#45;&gt;Node3</title>
<g id="a_edge384_Node000005_Node000003"><a xlink:title=" ">
<path fill="none" stroke="#63b8ff" d="M189.13,-111.31C206.73,-114.87 225.08,-118.58 242.07,-122.02"/>
<polygon fill="#63b8ff" stroke="#63b8ff" points="189.97,-107.9 179.47,-109.35 188.58,-114.77 189.97,-107.9"/>
</a>
</g>
</g>
<!-- Node7 -->
<g id="Node000007" class="node">
<title>Node7</title>
<g id="a_Node000007"><a xlink:href="structdi_1_1meta_1_1TypeConstant.html" target="_top" xlink:title=" ">
<polygon fill="white" stroke="#666666" points="167.5,-368.88 39,-368.88 39,-335.38 167.5,-335.38 167.5,-368.88"/>
<text text-anchor="start" x="47" y="-355.38" font-family="Helvetica,sans-Serif" font-size="10.00">di::meta::TypeConstant</text>
<text text-anchor="middle" x="103.25" y="-342.62" font-family="Helvetica,sans-Serif" font-size="10.00">&lt; Error &gt;</text>
</a>
</g>
</g>
<!-- Node7&#45;&gt;Node1 -->
<g id="edge385_Node000007_Node000001" class="edge">
<title>Node7&#45;&gt;Node1</title>
<g id="a_edge385_Node000007_Node000001"><a xlink:title=" ">
<path fill="none" stroke="#63b8ff" d="M179.13,-342.74C199.66,-340.17 221.83,-337.39 242.06,-334.86"/>
<polygon fill="#63b8ff" stroke="#63b8ff" points="178.91,-339.24 169.42,-343.96 179.78,-346.19 178.91,-339.24"/>
</a>
</g>
</g>
<!-- Node6 -->
<g id="Node000006" class="node">
<title>Node6</title>
<g id="a_Node000006"><a xlink:href="structdi_1_1meta_1_1TypeConstant.html" target="_top" xlink:title=" ">
<polygon fill="white" stroke="#666666" points="180.62,-46.25 25.88,-46.25 25.88,0 180.62,0 180.62,-46.25"/>
<text text-anchor="start" x="33.88" y="-32.75" font-family="Helvetica,sans-Serif" font-size="10.00">di::meta::TypeConstant</text>
<text text-anchor="start" x="33.88" y="-20" font-family="Helvetica,sans-Serif" font-size="10.00">&lt; SimpleCommonReference</text>
<text text-anchor="middle" x="103.25" y="-7.25" font-family="Helvetica,sans-Serif" font-size="10.00">&lt; T, U &gt;::Type &gt;</text>
</a>
</g>
</g>
<!-- Node6&#45;&gt;Node3 -->
<g id="edge386_Node000006_Node000003" class="edge">
<title>Node6&#45;&gt;Node3</title>
<g id="a_edge386_Node000006_Node000003"><a xlink:title=" ">
<path fill="none" stroke="#63b8ff" d="M191.68,-48.16C196.77,-50.33 201.75,-52.65 206.5,-55.12 240.05,-72.57 273.81,-100.91 293.74,-119.02"/>
<polygon fill="#63b8ff" stroke="#63b8ff" points="193.09,-44.96 182.51,-44.47 190.48,-51.45 193.09,-44.96"/>
</a>
</g>
</g>
<!-- Node8 -->
<g id="Node000008" class="node">
<title>Node8</title>
<g id="a_Node000008"><a xlink:href="structdi_1_1meta_1_1TypeConstant.html" target="_top" xlink:title=" ">
<polygon fill="white" stroke="#666666" points="167.5,-316.88 39,-316.88 39,-283.38 167.5,-283.38 167.5,-316.88"/>
<text text-anchor="start" x="47" y="-303.38" font-family="Helvetica,sans-Serif" font-size="10.00">di::meta::TypeConstant</text>
<text text-anchor="middle" x="103.25" y="-290.62" font-family="Helvetica,sans-Serif" font-size="10.00">&lt; Variant&lt; T, U &gt; &gt;</text>
</a>
</g>
</g>
<!-- Node8&#45;&gt;Node1 -->
<g id="edge387_Node000008_Node000001" class="edge">
<title>Node8&#45;&gt;Node1</title>
<g id="a_edge387_Node000008_Node000001"><a xlink:title=" ">
<path fill="none" stroke="#63b8ff" d="M179.13,-309.51C199.66,-312.08 221.83,-314.86 242.06,-317.39"/>
<polygon fill="#63b8ff" stroke="#63b8ff" points="179.78,-306.06 169.42,-308.29 178.91,-313.01 179.78,-306.06"/>
</a>
</g>
</g>
</g>
</svg>
