<?xml version="1.0" encoding="UTF-8" standalone="no"?>
<!DOCTYPE svg PUBLIC "-//W3C//DTD SVG 1.1//EN"
 "http://www.w3.org/Graphics/SVG/1.1/DTD/svg11.dtd">
<!-- Generated by graphviz version 10.0.1 (0)
 -->
<!-- Title: Graphical Class Hierarchy Pages: 1 -->
<svg width="366pt" height="210pt"
 viewBox="0.00 0.00 365.50 209.88" xmlns="http://www.w3.org/2000/svg" xmlns:xlink="http://www.w3.org/1999/xlink">
<g id="graph0" class="graph" transform="scale(1 1) rotate(0) translate(4 205.88)">
<title>Graphical Class Hierarchy</title>
<!-- Node0 -->
<g id="Node000000" class="node">
<title>Node0</title>
<g id="a_Node000000"><a xlink:href="structdi_1_1meta_1_1TypeConstant.html" target="_top" xlink:title=" ">
<polygon fill="white" stroke="#666666" points="159.62,-117.5 1.12,-117.5 1.12,-96.75 159.62,-96.75 159.62,-117.5"/>
<text text-anchor="middle" x="80.38" y="-104" font-family="Helvetica,sans-Serif" font-size="10.00">di::meta::TypeConstant&lt; U &gt;</text>
</a>
</g>
</g>
<!-- Node1 -->
<g id="Node000001" class="node">
<title>Node1</title>
<g id="a_Node000001"><a xlink:href="structdi_1_1meta_1_1detail_1_1ConditionalHelper_3_01false_00_01T_00_01U_01_4.html" target="_top" xlink:title=" ">
<polygon fill="white" stroke="#666666" points="353,-201.88 201.25,-201.88 201.25,-168.38 353,-168.38 353,-201.88"/>
<text text-anchor="start" x="209.25" y="-188.38" font-family="Helvetica,sans-Serif" font-size="10.00">di::meta::detail::Conditional</text>
<text text-anchor="middle" x="277.12" y="-175.62" font-family="Helvetica,sans-Serif" font-size="10.00">Helper&lt; false, T, U &gt;</text>
</a>
</g>
</g>
<!-- Node0&#45;&gt;Node1 -->
<g id="edge581_Node000000_Node000001" class="edge">
<title>Node0&#45;&gt;Node1</title>
<g id="a_edge581_Node000000_Node000001"><a xlink:title=" ">
<path fill="none" stroke="#63b8ff" d="M113.38,-122.66C136.32,-133.52 168.1,-148.01 196.75,-159.12 204.59,-162.17 212.95,-165.16 221.2,-167.98"/>
<polygon fill="#63b8ff" stroke="#63b8ff" points="115.09,-119.6 104.56,-118.46 112.08,-125.92 115.09,-119.6"/>
</a>
</g>
</g>
<!-- Node2 -->
<g id="Node000002" class="node">
<title>Node2</title>
<g id="a_Node000002"><a xlink:href="structdi_1_1meta_1_1detail_1_1LikeExpectedHelper.html" target="_top" xlink:title=" ">
<polygon fill="white" stroke="#666666" points="357.5,-149.88 196.75,-149.88 196.75,-116.38 357.5,-116.38 357.5,-149.88"/>
<text text-anchor="start" x="204.75" y="-136.38" font-family="Helvetica,sans-Serif" font-size="10.00">di::meta::detail::LikeExpected</text>
<text text-anchor="middle" x="277.12" y="-123.62" font-family="Helvetica,sans-Serif" font-size="10.00">Helper&lt; T, U &gt;</text>
</a>
</g>
</g>
<!-- Node0&#45;&gt;Node2 -->
<g id="edge582_Node000000_Node000002" class="edge">
<title>Node0&#45;&gt;Node2</title>
<g id="a_edge582_Node000000_Node000002"><a xlink:title=" ">
<path fill="none" stroke="#63b8ff" d="M171.4,-119.14C179.79,-120.26 188.26,-121.39 196.55,-122.5"/>
<polygon fill="#63b8ff" stroke="#63b8ff" points="171.9,-115.68 161.53,-117.83 170.98,-122.62 171.9,-115.68"/>
</a>
</g>
</g>
<!-- Node3 -->
<g id="Node000003" class="node">
<title>Node3</title>
<g id="a_Node000003"><a xlink:href="structdi_1_1meta_1_1detail_1_1LikeExpectedHelper_3_01vocab_1_1Expected_3_01X_00_01E_01_4_00_01U_01_4.html" target="_top" xlink:title=" ">
<polygon fill="white" stroke="#666666" points="357.5,-46.25 196.75,-46.25 196.75,0 357.5,0 357.5,-46.25"/>
<text text-anchor="start" x="204.75" y="-32.75" font-family="Helvetica,sans-Serif" font-size="10.00">di::meta::detail::LikeExpected</text>
<text text-anchor="start" x="204.75" y="-20" font-family="Helvetica,sans-Serif" font-size="10.00">Helper&lt; vocab::Expected&lt;</text>
<text text-anchor="middle" x="277.12" y="-7.25" font-family="Helvetica,sans-Serif" font-size="10.00"> X, E &gt;, U &gt;</text>
</a>
</g>
</g>
<!-- Node0&#45;&gt;Node3 -->
<g id="edge583_Node000000_Node000003" class="edge">
<title>Node0&#45;&gt;Node3</title>
<g id="a_edge583_Node000000_Node000003"><a xlink:title=" ">
<path fill="none" stroke="#63b8ff" d="M114.91,-91.58C137.85,-81.05 169.01,-66.96 196.75,-55.12 203.31,-52.33 210.2,-49.45 217.07,-46.63"/>
<polygon fill="#63b8ff" stroke="#63b8ff" points="113.67,-88.3 106.05,-95.66 116.6,-94.66 113.67,-88.3"/>
</a>
</g>
</g>
<!-- Node5 -->
<g id="Node000005" class="node">
<title>Node5</title>
<g id="a_Node000005"><a xlink:href="structdi_1_1meta_1_1detail_1_1LikeHelper.html" target="_top" xlink:title=" ">
<polygon fill="white" stroke="#666666" points="351.12,-97.88 203.12,-97.88 203.12,-64.38 351.12,-64.38 351.12,-97.88"/>
<text text-anchor="start" x="211.12" y="-84.38" font-family="Helvetica,sans-Serif" font-size="10.00">di::meta::detail::LikeHelper</text>
<text text-anchor="middle" x="277.12" y="-71.62" font-family="Helvetica,sans-Serif" font-size="10.00">&lt; T, U &gt;</text>
</a>
</g>
</g>
<!-- Node0&#45;&gt;Node5 -->
<g id="edge584_Node000000_Node000005" class="edge">
<title>Node0&#45;&gt;Node5</title>
<g id="a_edge584_Node000000_Node000005"><a xlink:title=" ">
<path fill="none" stroke="#63b8ff" d="M171.39,-95.11C181.93,-93.7 192.58,-92.28 202.85,-90.91"/>
<polygon fill="#63b8ff" stroke="#63b8ff" points="170.98,-91.63 161.53,-96.42 171.9,-98.57 170.98,-91.63"/>
</a>
</g>
</g>
<!-- Node4 -->
<g id="Node000004" class="node">
<title>Node4</title>
<g id="a_Node000004"><a xlink:href="structdi_1_1meta_1_1TypeConstant.html" target="_top" xlink:title=" ">
<polygon fill="white" stroke="#666666" points="160.75,-39.88 0,-39.88 0,-6.38 160.75,-6.38 160.75,-39.88"/>
<text text-anchor="start" x="8" y="-26.38" font-family="Helvetica,sans-Serif" font-size="10.00">di::meta::TypeConstant</text>
<text text-anchor="middle" x="80.38" y="-13.62" font-family="Helvetica,sans-Serif" font-size="10.00">&lt; vocab::Expected&lt; U, E &gt; &gt;</text>
</a>
</g>
</g>
<!-- Node4&#45;&gt;Node3 -->
<g id="edge585_Node000004_Node000003" class="edge">
<title>Node4&#45;&gt;Node3</title>
<g id="a_edge585_Node000004_Node000003"><a xlink:title=" ">
<path fill="none" stroke="#63b8ff" d="M172.44,-23.12C180.47,-23.12 188.55,-23.12 196.47,-23.12"/>
<polygon fill="#63b8ff" stroke="#63b8ff" points="172.66,-19.63 162.66,-23.13 172.66,-26.63 172.66,-19.63"/>
</a>
</g>
</g>
</g>
</svg>
