<?xml version="1.0" encoding="UTF-8" standalone="no"?>
<!DOCTYPE svg PUBLIC "-//W3C//DTD SVG 1.1//EN"
 "http://www.w3.org/Graphics/SVG/1.1/DTD/svg11.dtd">
<!-- Generated by graphviz version 10.0.1 (0)
 -->
<!-- Title: Graphical Class Hierarchy Pages: 1 -->
<svg width="280pt" height="94pt"
 viewBox="0.00 0.00 280.00 93.50" xmlns="http://www.w3.org/2000/svg" xmlns:xlink="http://www.w3.org/1999/xlink">
<g id="graph0" class="graph" transform="scale(1 1) rotate(0) translate(4 89.5)">
<title>Graphical Class Hierarchy</title>
<!-- Node0 -->
<g id="Node000000" class="node">
<title>Node0</title>
<g id="a_Node000000"><a xlink:href="structdi_1_1bit_1_1BitFlag.html" target="_top" xlink:title=" ">
<polygon fill="white" stroke="#666666" points="118.75,-53.12 0,-53.12 0,-32.38 118.75,-32.38 118.75,-53.12"/>
<text text-anchor="middle" x="59.38" y="-39.62" font-family="Helvetica,sans-Serif" font-size="10.00">di::bit::BitFlag&lt; 55 &gt;</text>
</a>
</g>
</g>
<!-- Node1 -->
<g id="Node000001" class="node">
<title>Node1</title>
<g id="a_Node000001"><a xlink:href="structiris_1_1x86_1_1amd64_1_1sd_1_1Granular.html" target="_top" xlink:title=" ">
<polygon fill="white" stroke="#666666" points="269.38,-85.5 157.38,-85.5 157.38,-52 269.38,-52 269.38,-85.5"/>
<text text-anchor="start" x="165.38" y="-72" font-family="Helvetica,sans-Serif" font-size="10.00">iris::x86::amd64::sd</text>
<text text-anchor="middle" x="213.38" y="-59.25" font-family="Helvetica,sans-Serif" font-size="10.00">::Granular</text>
</a>
</g>
</g>
<!-- Node0&#45;&gt;Node1 -->
<g id="edge76_Node000000_Node000001" class="edge">
<title>Node0&#45;&gt;Node1</title>
<g id="a_edge76_Node000000_Node000001"><a xlink:title=" ">
<path fill="none" stroke="#63b8ff" d="M130.44,-54.73C139.43,-56.27 148.54,-57.83 157.25,-59.32"/>
<polygon fill="#63b8ff" stroke="#63b8ff" points="131.08,-51.29 120.63,-53.06 129.9,-58.19 131.08,-51.29"/>
</a>
</g>
</g>
<!-- Node2 -->
<g id="Node000002" class="node">
<title>Node2</title>
<g id="a_Node000002"><a xlink:href="structiris_1_1x86_1_1amd64_1_1ssd_1_1Granular.html" target="_top" xlink:title=" ">
<polygon fill="white" stroke="#666666" points="272,-33.5 154.75,-33.5 154.75,0 272,0 272,-33.5"/>
<text text-anchor="start" x="162.75" y="-20" font-family="Helvetica,sans-Serif" font-size="10.00">iris::x86::amd64::ssd</text>
<text text-anchor="middle" x="213.38" y="-7.25" font-family="Helvetica,sans-Serif" font-size="10.00">::Granular</text>
</a>
</g>
</g>
<!-- Node0&#45;&gt;Node2 -->
<g id="edge77_Node000000_Node000002" class="edge">
<title>Node0&#45;&gt;Node2</title>
<g id="a_edge77_Node000000_Node000002"><a xlink:title=" ">
<path fill="none" stroke="#63b8ff" d="M130.35,-30.78C138.35,-29.41 146.44,-28.03 154.26,-26.69"/>
<polygon fill="#63b8ff" stroke="#63b8ff" points="129.9,-27.31 120.63,-32.44 131.08,-34.21 129.9,-27.31"/>
</a>
</g>
</g>
</g>
</svg>
