<?xml version="1.0" encoding="UTF-8" standalone="no"?>
<!DOCTYPE svg PUBLIC "-//W3C//DTD SVG 1.1//EN"
 "http://www.w3.org/Graphics/SVG/1.1/DTD/svg11.dtd">
<!-- Generated by graphviz version 10.0.1 (0)
 -->
<!-- Title: Graphical Class Hierarchy Pages: 1 -->
<svg width="345pt" height="106pt"
 viewBox="0.00 0.00 345.25 105.88" xmlns="http://www.w3.org/2000/svg" xmlns:xlink="http://www.w3.org/1999/xlink">
<g id="graph0" class="graph" transform="scale(1 1) rotate(0) translate(4 101.88)">
<title>Graphical Class Hierarchy</title>
<!-- Node0 -->
<g id="Node000000" class="node">
<title>Node0</title>
<g id="a_Node000000"><a xlink:href="structdi_1_1meta_1_1TypeConstant.html" target="_top" xlink:title=" ">
<polygon fill="white" stroke="#666666" points="157.75,-56.12 0,-56.12 0,-35.38 157.75,-35.38 157.75,-56.12"/>
<text text-anchor="middle" x="78.88" y="-42.62" font-family="Helvetica,sans-Serif" font-size="10.00">di::meta::TypeConstant&lt; R &gt;</text>
</a>
</g>
</g>
<!-- Node1 -->
<g id="Node000001" class="node">
<title>Node1</title>
<g id="a_Node000001"><a xlink:href="structdi_1_1meta_1_1detail_1_1LanguageFunctionReturnHelper_3_01R_07Args_8_8_8_08_4.html" target="_top" xlink:title=" ">
<polygon fill="white" stroke="#666666" points="337.25,-97.88 193.75,-97.88 193.75,-51.62 337.25,-51.62 337.25,-97.88"/>
<text text-anchor="start" x="201.75" y="-84.38" font-family="Helvetica,sans-Serif" font-size="10.00">di::meta::detail::Language</text>
<text text-anchor="start" x="201.75" y="-71.62" font-family="Helvetica,sans-Serif" font-size="10.00">FunctionReturnHelper&lt; R</text>
<text text-anchor="middle" x="265.5" y="-58.88" font-family="Helvetica,sans-Serif" font-size="10.00">(Args...)&gt;</text>
</a>
</g>
</g>
<!-- Node0&#45;&gt;Node1 -->
<g id="edge529_Node000000_Node000001" class="edge">
<title>Node0&#45;&gt;Node1</title>
<g id="a_edge529_Node000000_Node000001"><a xlink:title=" ">
<path fill="none" stroke="#63b8ff" d="M159.92,-58.32C171.07,-60.07 182.45,-61.86 193.42,-63.58"/>
<polygon fill="#63b8ff" stroke="#63b8ff" points="160.8,-54.92 150.38,-56.82 159.72,-61.83 160.8,-54.92"/>
</a>
</g>
</g>
<!-- Node2 -->
<g id="Node000002" class="node">
<title>Node2</title>
<g id="a_Node000002"><a xlink:href="structdi_1_1meta_1_1detail_1_1UnionCV.html" target="_top" xlink:title=" ">
<polygon fill="white" stroke="#666666" points="334.62,-33.5 196.38,-33.5 196.38,0 334.62,0 334.62,-33.5"/>
<text text-anchor="start" x="204.38" y="-20" font-family="Helvetica,sans-Serif" font-size="10.00">di::meta::detail::UnionCV</text>
<text text-anchor="middle" x="265.5" y="-7.25" font-family="Helvetica,sans-Serif" font-size="10.00">&lt; T, U, R &gt;</text>
</a>
</g>
</g>
<!-- Node0&#45;&gt;Node2 -->
<g id="edge530_Node000000_Node000002" class="edge">
<title>Node0&#45;&gt;Node2</title>
<g id="a_edge530_Node000000_Node000002"><a xlink:title=" ">
<path fill="none" stroke="#63b8ff" d="M160.18,-33.14C172.08,-31.27 184.25,-29.36 195.88,-27.53"/>
<polygon fill="#63b8ff" stroke="#63b8ff" points="159.72,-29.67 150.38,-34.68 160.8,-36.58 159.72,-29.67"/>
</a>
</g>
</g>
</g>
</svg>
