<?xml version="1.0" encoding="UTF-8" standalone="no"?>
<!DOCTYPE svg PUBLIC "-//W3C//DTD SVG 1.1//EN"
 "http://www.w3.org/Graphics/SVG/1.1/DTD/svg11.dtd">
<!-- Generated by graphviz version 10.0.1 (0)
 -->
<!-- Title: Graphical Class Hierarchy Pages: 1 -->
<svg width="285pt" height="144pt"
 viewBox="0.00 0.00 284.50 144.00" xmlns="http://www.w3.org/2000/svg" xmlns:xlink="http://www.w3.org/1999/xlink">
<g id="graph0" class="graph" transform="scale(1 1) rotate(0) translate(4 140)">
<title>Graphical Class Hierarchy</title>
<!-- Node0 -->
<g id="Node000000" class="node">
<title>Node0</title>
<g id="a_Node000000"><a xlink:title=" ">
<polygon fill="#e0e0e0" stroke="#999999" points="37.75,-77.88 0,-77.88 0,-57.12 37.75,-57.12 37.75,-77.88"/>
<text text-anchor="middle" x="18.88" y="-64.38" font-family="Helvetica,sans-Serif" font-size="10.00">Peer</text>
</a>
</g>
</g>
<!-- Node1 -->
<g id="Node000001" class="node">
<title>Node1</title>
<g id="a_Node000001"><a xlink:href="structdi_1_1execution_1_1ipc__binary__ns_1_1FilterMessagesFunction.html" target="_top" xlink:title=" ">
<polygon fill="white" stroke="#666666" points="276.5,-136 73.75,-136 73.75,-77 276.5,-77 276.5,-136"/>
<text text-anchor="start" x="81.75" y="-122.5" font-family="Helvetica,sans-Serif" font-size="10.00">di::execution::ipc</text>
<text text-anchor="start" x="81.75" y="-109.75" font-family="Helvetica,sans-Serif" font-size="10.00">_binary_ns::FilterMessages</text>
<text text-anchor="start" x="81.75" y="-97" font-family="Helvetica,sans-Serif" font-size="10.00">Function&lt; Proto, Read, Write,</text>
<text text-anchor="middle" x="175.12" y="-84.25" font-family="Helvetica,sans-Serif" font-size="10.00"> TxFun, RxFun, Alloc, ClientOrServer &gt;</text>
</a>
</g>
</g>
<!-- Node0&#45;&gt;Node1 -->
<g id="edge927_Node000000_Node000001" class="edge">
<title>Node0&#45;&gt;Node1</title>
<g id="a_edge927_Node000000_Node000001"><a xlink:title=" ">
<path fill="none" stroke="#63b8ff" d="M49.2,-74.91C56.54,-76.77 64.84,-78.87 73.58,-81.08"/>
<polygon fill="#63b8ff" stroke="#63b8ff" points="50.2,-71.56 39.64,-72.5 48.48,-78.34 50.2,-71.56"/>
</a>
</g>
</g>
<!-- Node2 -->
<g id="Node000002" class="node">
<title>Node2</title>
<g id="a_Node000002"><a xlink:href="structdi_1_1execution_1_1ipc__binary__ns_1_1MessageDecode_1_1Sender.html" target="_top" xlink:title=" ">
<polygon fill="white" stroke="#666666" points="252.5,-59 97.75,-59 97.75,0 252.5,0 252.5,-59"/>
<text text-anchor="start" x="105.75" y="-45.5" font-family="Helvetica,sans-Serif" font-size="10.00">di::execution::ipc</text>
<text text-anchor="start" x="105.75" y="-32.75" font-family="Helvetica,sans-Serif" font-size="10.00">_binary_ns::MessageDecode</text>
<text text-anchor="start" x="105.75" y="-20" font-family="Helvetica,sans-Serif" font-size="10.00">&lt; Proto, ClientOrServer</text>
<text text-anchor="middle" x="175.12" y="-7.25" font-family="Helvetica,sans-Serif" font-size="10.00"> &gt;::Sender</text>
</a>
</g>
</g>
<!-- Node0&#45;&gt;Node2 -->
<g id="edge928_Node000000_Node000002" class="edge">
<title>Node0&#45;&gt;Node2</title>
<g id="a_edge928_Node000000_Node000002"><a xlink:title=" ">
<path fill="none" stroke="#63b8ff" d="M49.35,-60.24C63.14,-56.84 80.27,-52.62 97.37,-48.41"/>
<polygon fill="#63b8ff" stroke="#63b8ff" points="48.52,-56.84 39.64,-62.63 50.19,-63.64 48.52,-56.84"/>
</a>
</g>
</g>
</g>
</svg>
