<?xml version="1.0" encoding="UTF-8" standalone="no"?>
<!DOCTYPE svg PUBLIC "-//W3C//DTD SVG 1.1//EN"
 "http://www.w3.org/Graphics/SVG/1.1/DTD/svg11.dtd">
<!-- Generated by graphviz version 10.0.1 (0)
 -->
<!-- Title: Graphical Class Hierarchy Pages: 1 -->
<svg width="356pt" height="234pt"
 viewBox="0.00 0.00 355.75 234.25" xmlns="http://www.w3.org/2000/svg" xmlns:xlink="http://www.w3.org/1999/xlink">
<g id="graph0" class="graph" transform="scale(1 1) rotate(0) translate(4 230.25)">
<title>Graphical Class Hierarchy</title>
<!-- Node0 -->
<g id="Node000000" class="node">
<title>Node0</title>
<g id="a_Node000000"><a xlink:href="classdi_1_1container_1_1string_1_1ConstantStringInterface.html" target="_top" xlink:title=" ">
<polygon fill="white" stroke="#666666" points="175.75,-226.25 0,-226.25 0,-180 175.75,-180 175.75,-226.25"/>
<text text-anchor="start" x="8" y="-212.75" font-family="Helvetica,sans-Serif" font-size="10.00">di::container::string</text>
<text text-anchor="start" x="8" y="-200" font-family="Helvetica,sans-Serif" font-size="10.00">::ConstantStringInterface</text>
<text text-anchor="middle" x="87.88" y="-187.25" font-family="Helvetica,sans-Serif" font-size="10.00">&lt; StringViewImpl&lt; Enc &gt;, Enc &gt;</text>
</a>
</g>
</g>
<!-- Node1 -->
<g id="Node000001" class="node">
<title>Node1</title>
<g id="a_Node000001"><a xlink:href="classdi_1_1container_1_1string_1_1StringViewImpl.html" target="_top" xlink:title=" ">
<polygon fill="white" stroke="#666666" points="347.75,-126.88 211.75,-126.88 211.75,-93.38 347.75,-93.38 347.75,-126.88"/>
<text text-anchor="start" x="219.75" y="-113.38" font-family="Helvetica,sans-Serif" font-size="10.00">di::container::string</text>
<text text-anchor="middle" x="279.75" y="-100.62" font-family="Helvetica,sans-Serif" font-size="10.00">::StringViewImpl&lt; Enc &gt;</text>
</a>
</g>
</g>
<!-- Node0&#45;&gt;Node1 -->
<g id="edge242_Node000000_Node000001" class="edge">
<title>Node0&#45;&gt;Node1</title>
<g id="a_edge242_Node000000_Node000001"><a xlink:title=" ">
<path fill="none" stroke="#63b8ff" d="M167.28,-175.01C170.16,-173.73 172.99,-172.44 175.75,-171.12 202.97,-158.19 232.39,-140.33 252.8,-127.29"/>
<polygon fill="#63b8ff" stroke="#63b8ff" points="165.94,-171.77 158.11,-178.91 168.69,-178.21 165.94,-171.77"/>
</a>
</g>
</g>
<!-- Node2 -->
<g id="Node000002" class="node">
<title>Node2</title>
<g id="a_Node000002"><a xlink:href="classdi_1_1meta_1_1EnableBorrowedContainer.html" target="_top" xlink:title=" ">
<polygon fill="white" stroke="#666666" points="162.25,-162.25 13.5,-162.25 13.5,-116 162.25,-116 162.25,-162.25"/>
<text text-anchor="start" x="21.5" y="-148.75" font-family="Helvetica,sans-Serif" font-size="10.00">di::meta::EnableBorrowed</text>
<text text-anchor="start" x="21.5" y="-136" font-family="Helvetica,sans-Serif" font-size="10.00">Container&lt; StringViewImpl</text>
<text text-anchor="middle" x="87.88" y="-123.25" font-family="Helvetica,sans-Serif" font-size="10.00">&lt; Enc &gt; &gt;</text>
</a>
</g>
</g>
<!-- Node2&#45;&gt;Node1 -->
<g id="edge243_Node000002_Node000001" class="edge">
<title>Node2&#45;&gt;Node1</title>
<g id="a_edge243_Node000002_Node000001"><a xlink:title=" ">
<path fill="none" stroke="#63b8ff" d="M173.58,-126.19C186.22,-124.26 199.1,-122.29 211.32,-120.42"/>
<polygon fill="#63b8ff" stroke="#63b8ff" points="173.41,-122.67 164.05,-127.64 174.47,-129.59 173.41,-122.67"/>
</a>
</g>
</g>
<!-- Node3 -->
<g id="Node000003" class="node">
<title>Node3</title>
<g id="a_Node000003"><a xlink:href="classdi_1_1meta_1_1EnableView.html" target="_top" xlink:title=" ">
<polygon fill="white" stroke="#666666" points="164.12,-97.88 11.62,-97.88 11.62,-64.38 164.12,-64.38 164.12,-97.88"/>
<text text-anchor="start" x="19.62" y="-84.38" font-family="Helvetica,sans-Serif" font-size="10.00">di::meta::EnableView</text>
<text text-anchor="middle" x="87.88" y="-71.62" font-family="Helvetica,sans-Serif" font-size="10.00">&lt; StringViewImpl&lt; Enc &gt; &gt;</text>
</a>
</g>
</g>
<!-- Node3&#45;&gt;Node1 -->
<g id="edge244_Node000003_Node000001" class="edge">
<title>Node3&#45;&gt;Node1</title>
<g id="a_edge244_Node000003_Node000001"><a xlink:title=" ">
<path fill="none" stroke="#63b8ff" d="M175.84,-94.41C187.78,-96.23 199.89,-98.08 211.41,-99.84"/>
<polygon fill="#63b8ff" stroke="#63b8ff" points="176.37,-90.95 165.96,-92.9 175.32,-97.87 176.37,-90.95"/>
</a>
</g>
</g>
<!-- Node4 -->
<g id="Node000004" class="node">
<title>Node4</title>
<g id="a_Node000004"><a xlink:href="structdi_1_1util_1_1OwnedType.html" target="_top" xlink:title=" ">
<polygon fill="white" stroke="#666666" points="155.12,-46.25 20.62,-46.25 20.62,0 155.12,0 155.12,-46.25"/>
<text text-anchor="start" x="28.62" y="-32.75" font-family="Helvetica,sans-Serif" font-size="10.00">di::util::OwnedType</text>
<text text-anchor="start" x="28.62" y="-20" font-family="Helvetica,sans-Serif" font-size="10.00">&lt; StringViewImpl&lt; Enc</text>
<text text-anchor="middle" x="87.88" y="-7.25" font-family="Helvetica,sans-Serif" font-size="10.00"> &gt;, StringImpl&lt; Enc &gt; &gt;</text>
</a>
</g>
</g>
<!-- Node4&#45;&gt;Node1 -->
<g id="edge245_Node000004_Node000001" class="edge">
<title>Node4&#45;&gt;Node1</title>
<g id="a_edge245_Node000004_Node000001"><a xlink:title=" ">
<path fill="none" stroke="#63b8ff" d="M165.62,-50.73C169.06,-52.18 172.45,-53.64 175.75,-55.12 201.09,-66.49 228.81,-81.44 249.1,-92.89"/>
<polygon fill="#63b8ff" stroke="#63b8ff" points="167.17,-47.59 156.59,-47.05 164.53,-54.07 167.17,-47.59"/>
</a>
</g>
</g>
</g>
</svg>
