<?xml version="1.0" encoding="UTF-8" standalone="no"?>
<!DOCTYPE svg PUBLIC "-//W3C//DTD SVG 1.1//EN"
 "http://www.w3.org/Graphics/SVG/1.1/DTD/svg11.dtd">
<!-- Generated by graphviz version 10.0.1 (0)
 -->
<!-- Title: Graphical Class Hierarchy Pages: 1 -->
<svg width="317pt" height="314pt"
 viewBox="0.00 0.00 316.75 313.50" xmlns="http://www.w3.org/2000/svg" xmlns:xlink="http://www.w3.org/1999/xlink">
<g id="graph0" class="graph" transform="scale(1 1) rotate(0) translate(4 309.5)">
<title>Graphical Class Hierarchy</title>
<!-- Node0 -->
<g id="Node000000" class="node">
<title>Node0</title>
<g id="a_Node000000"><a xlink:href="structdi_1_1meta_1_1TypeConstant.html" target="_top" xlink:title=" ">
<polygon fill="white" stroke="#666666" points="128.5,-163.5 0,-163.5 0,-130 128.5,-130 128.5,-163.5"/>
<text text-anchor="start" x="8" y="-150" font-family="Helvetica,sans-Serif" font-size="10.00">di::meta::TypeConstant</text>
<text text-anchor="middle" x="64.25" y="-137.25" font-family="Helvetica,sans-Serif" font-size="10.00">&lt; List&lt;&gt; &gt;</text>
</a>
</g>
</g>
<!-- Node1 -->
<g id="Node000001" class="node">
<title>Node1</title>
<g id="a_Node000001"><a xlink:href="structdi_1_1meta_1_1detail_1_1ConcatHelper_3_4.html" target="_top" xlink:title=" ">
<polygon fill="white" stroke="#666666" points="301.62,-305.5 171.62,-305.5 171.62,-272 301.62,-272 301.62,-305.5"/>
<text text-anchor="start" x="179.62" y="-292" font-family="Helvetica,sans-Serif" font-size="10.00">di::meta::detail::Concat</text>
<text text-anchor="middle" x="236.62" y="-279.25" font-family="Helvetica,sans-Serif" font-size="10.00">Helper&lt;&gt;</text>
</a>
</g>
</g>
<!-- Node0&#45;&gt;Node1 -->
<g id="edge503_Node000000_Node000001" class="edge">
<title>Node0&#45;&gt;Node1</title>
<g id="a_edge503_Node000000_Node000001"><a xlink:title=" ">
<path fill="none" stroke="#63b8ff" d="M81.79,-173.01C99.42,-199.06 129.55,-238.49 164.5,-262.75 169.25,-266.05 174.47,-268.98 179.86,-271.58"/>
<polygon fill="#63b8ff" stroke="#63b8ff" points="84.94,-171.42 76.5,-165 79.1,-175.28 84.94,-171.42"/>
</a>
</g>
</g>
<!-- Node2 -->
<g id="Node000002" class="node">
<title>Node2</title>
<g id="a_Node000002"><a xlink:href="structdi_1_1meta_1_1detail_1_1GatherSignaturesHelper_3_01Tag_00_01List_3_4_00_01Tup_01_4.html" target="_top" xlink:title=" ">
<polygon fill="white" stroke="#666666" points="302,-253.88 171.25,-253.88 171.25,-207.62 302,-207.62 302,-253.88"/>
<text text-anchor="start" x="179.25" y="-240.38" font-family="Helvetica,sans-Serif" font-size="10.00">di::meta::detail::Gather</text>
<text text-anchor="start" x="179.25" y="-227.62" font-family="Helvetica,sans-Serif" font-size="10.00">SignaturesHelper&lt; Tag,</text>
<text text-anchor="middle" x="236.62" y="-214.88" font-family="Helvetica,sans-Serif" font-size="10.00"> List&lt;&gt;, Tup &gt;</text>
</a>
</g>
</g>
<!-- Node0&#45;&gt;Node2 -->
<g id="edge504_Node000000_Node000002" class="edge">
<title>Node0&#45;&gt;Node2</title>
<g id="a_edge504_Node000000_Node000002"><a xlink:title=" ">
<path fill="none" stroke="#63b8ff" d="M106.74,-169.19C124.41,-178.57 145.34,-189.43 164.5,-198.75 170.22,-201.53 176.24,-204.37 182.26,-207.16"/>
<polygon fill="#63b8ff" stroke="#63b8ff" points="108.55,-166.19 98.08,-164.58 105.25,-172.37 108.55,-166.19"/>
</a>
</g>
</g>
<!-- Node3 -->
<g id="Node000003" class="node">
<title>Node3</title>
<g id="a_Node000003"><a xlink:href="structdi_1_1meta_1_1detail_1_1PopBackHelper.html" target="_top" xlink:title=" ">
<polygon fill="white" stroke="#666666" points="305.75,-189.5 167.5,-189.5 167.5,-156 305.75,-156 305.75,-189.5"/>
<text text-anchor="start" x="175.5" y="-176" font-family="Helvetica,sans-Serif" font-size="10.00">di::meta::detail::PopBack</text>
<text text-anchor="middle" x="236.62" y="-163.25" font-family="Helvetica,sans-Serif" font-size="10.00">Helper&lt; T &gt;</text>
</a>
</g>
</g>
<!-- Node0&#45;&gt;Node3 -->
<g id="edge505_Node000000_Node000003" class="edge">
<title>Node0&#45;&gt;Node3</title>
<g id="a_edge505_Node000000_Node000003"><a xlink:title=" ">
<path fill="none" stroke="#63b8ff" d="M140.05,-158.16C149.1,-159.55 158.32,-160.95 167.27,-162.32"/>
<polygon fill="#63b8ff" stroke="#63b8ff" points="140.6,-154.71 130.19,-156.66 139.55,-161.63 140.6,-154.71"/>
</a>
</g>
</g>
<!-- Node4 -->
<g id="Node000004" class="node">
<title>Node4</title>
<g id="a_Node000004"><a xlink:href="structdi_1_1meta_1_1detail_1_1PopFrontHelper.html" target="_top" xlink:title=" ">
<polygon fill="white" stroke="#666666" points="306.12,-137.5 167.12,-137.5 167.12,-104 306.12,-104 306.12,-137.5"/>
<text text-anchor="start" x="175.12" y="-124" font-family="Helvetica,sans-Serif" font-size="10.00">di::meta::detail::PopFront</text>
<text text-anchor="middle" x="236.62" y="-111.25" font-family="Helvetica,sans-Serif" font-size="10.00">Helper&lt; T &gt;</text>
</a>
</g>
</g>
<!-- Node0&#45;&gt;Node4 -->
<g id="edge506_Node000000_Node000004" class="edge">
<title>Node0&#45;&gt;Node4</title>
<g id="a_edge506_Node000000_Node000004"><a xlink:title=" ">
<path fill="none" stroke="#63b8ff" d="M139.87,-135.36C148.79,-134 157.87,-132.62 166.7,-131.27"/>
<polygon fill="#63b8ff" stroke="#63b8ff" points="139.55,-131.87 130.19,-136.84 140.6,-138.79 139.55,-131.87"/>
</a>
</g>
</g>
<!-- Node5 -->
<g id="Node000005" class="node">
<title>Node5</title>
<g id="a_Node000005"><a xlink:href="structdi_1_1meta_1_1detail_1_1RepeatHelper_3_01T_00_010_01_4.html" target="_top" xlink:title=" ">
<polygon fill="white" stroke="#666666" points="302,-85.5 171.25,-85.5 171.25,-52 302,-52 302,-85.5"/>
<text text-anchor="start" x="179.25" y="-72" font-family="Helvetica,sans-Serif" font-size="10.00">di::meta::detail::Repeat</text>
<text text-anchor="middle" x="236.62" y="-59.25" font-family="Helvetica,sans-Serif" font-size="10.00">Helper&lt; T, 0 &gt;</text>
</a>
</g>
</g>
<!-- Node0&#45;&gt;Node5 -->
<g id="edge507_Node000000_Node000005" class="edge">
<title>Node0&#45;&gt;Node5</title>
<g id="a_edge507_Node000000_Node000005"><a xlink:title=" ">
<path fill="none" stroke="#63b8ff" d="M105.61,-124.06C123.4,-114.46 144.72,-103.5 164.5,-94.75 171.35,-91.72 178.68,-88.75 185.93,-85.96"/>
<polygon fill="#63b8ff" stroke="#63b8ff" points="104.02,-120.94 96.91,-128.8 107.37,-127.08 104.02,-120.94"/>
</a>
</g>
</g>
<!-- Node6 -->
<g id="Node000006" class="node">
<title>Node6</title>
<g id="a_Node000006"><a xlink:href="structdi_1_1meta_1_1detail_1_1ZipHelper.html" target="_top" xlink:title=" ">
<polygon fill="white" stroke="#666666" points="308.75,-33.5 164.5,-33.5 164.5,0 308.75,0 308.75,-33.5"/>
<text text-anchor="start" x="172.5" y="-20" font-family="Helvetica,sans-Serif" font-size="10.00">di::meta::detail::ZipHelper</text>
<text text-anchor="middle" x="236.62" y="-7.25" font-family="Helvetica,sans-Serif" font-size="10.00">&lt; T, U &gt;</text>
</a>
</g>
</g>
<!-- Node0&#45;&gt;Node6 -->
<g id="edge508_Node000000_Node000006" class="edge">
<title>Node0&#45;&gt;Node6</title>
<g id="a_edge508_Node000000_Node000006"><a xlink:title=" ">
<path fill="none" stroke="#63b8ff" d="M84.4,-120.71C102.7,-97.46 132.2,-63.9 164.5,-42.75 169.56,-39.44 175.1,-36.48 180.78,-33.85"/>
<polygon fill="#63b8ff" stroke="#63b8ff" points="81.75,-118.42 78.43,-128.48 87.3,-122.69 81.75,-118.42"/>
</a>
</g>
</g>
</g>
</svg>
