<?xml version="1.0" encoding="UTF-8" standalone="no"?>
<!DOCTYPE svg PUBLIC "-//W3C//DTD SVG 1.1//EN"
 "http://www.w3.org/Graphics/SVG/1.1/DTD/svg11.dtd">
<!-- Generated by graphviz version 10.0.1 (0)
 -->
<!-- Title: Graphical Class Hierarchy Pages: 1 -->
<svg width="470pt" height="529pt"
 viewBox="0.00 0.00 469.75 528.88" xmlns="http://www.w3.org/2000/svg" xmlns:xlink="http://www.w3.org/1999/xlink">
<g id="graph0" class="graph" transform="scale(1 1) rotate(0) translate(4 524.88)">
<title>Graphical Class Hierarchy</title>
<!-- Node0 -->
<g id="Node000000" class="node">
<title>Node0</title>
<g id="a_Node000000"><a xlink:href="structdi_1_1container_1_1IteratorBase.html" target="_top" xlink:title=" ">
<polygon fill="white" stroke="#666666" points="154.75,-264.38 0,-264.38 0,-218.12 154.75,-218.12 154.75,-264.38"/>
<text text-anchor="start" x="8" y="-250.88" font-family="Helvetica,sans-Serif" font-size="10.00">di::container::IteratorBase</text>
<text text-anchor="start" x="8" y="-238.12" font-family="Helvetica,sans-Serif" font-size="10.00">&lt; Self, Category, ValueType,</text>
<text text-anchor="middle" x="77.38" y="-225.38" font-family="Helvetica,sans-Serif" font-size="10.00"> SSizeType &gt;</text>
</a>
</g>
</g>
<!-- Node1 -->
<g id="Node000001" class="node">
<title>Node1</title>
<g id="a_Node000001"><a xlink:href="classdi_1_1container_1_1IteratorExtension.html" target="_top" xlink:title=" ">
<polygon fill="white" stroke="#666666" points="437.38,-520.88 215.12,-520.88 215.12,-423.62 437.38,-423.62 437.38,-520.88"/>
<text text-anchor="start" x="223.12" y="-507.38" font-family="Helvetica,sans-Serif" font-size="10.00">di::container::IteratorExtension</text>
<text text-anchor="start" x="223.12" y="-494.62" font-family="Helvetica,sans-Serif" font-size="10.00">&lt; Iterator&lt; is_const &gt;, InnerIterator</text>
<text text-anchor="start" x="223.12" y="-481.88" font-family="Helvetica,sans-Serif" font-size="10.00">&lt; is_const &gt;, meta::RemoveCVRef&lt;</text>
<text text-anchor="start" x="223.12" y="-469.12" font-family="Helvetica,sans-Serif" font-size="10.00"> detail::InvokeRepeatResult&lt; meta</text>
<text text-anchor="start" x="223.12" y="-456.38" font-family="Helvetica,sans-Serif" font-size="10.00">::MaybeConst&lt; is_const, F &gt; &amp;, meta</text>
<text text-anchor="start" x="223.12" y="-443.62" font-family="Helvetica,sans-Serif" font-size="10.00">::ContainerReference&lt; meta::MaybeConst</text>
<text text-anchor="middle" x="326.25" y="-430.88" font-family="Helvetica,sans-Serif" font-size="10.00">&lt; is_const, View &gt; &gt;, N &gt; &gt; &gt;</text>
</a>
</g>
</g>
<!-- Node0&#45;&gt;Node1 -->
<g id="edge211_Node000000_Node000001" class="edge">
<title>Node0&#45;&gt;Node1</title>
<g id="a_edge211_Node000000_Node000001"><a xlink:title=" ">
<path fill="none" stroke="#63b8ff" d="M92.87,-274.95C110.85,-313.27 144.84,-375.51 190.75,-414.25 198.13,-420.48 206.29,-426.14 214.83,-431.26"/>
<polygon fill="#63b8ff" stroke="#63b8ff" points="96.2,-273.83 88.85,-266.19 89.84,-276.74 96.2,-273.83"/>
</a>
</g>
</g>
<!-- Node2 -->
<g id="Node000002" class="node">
<title>Node2</title>
<g id="a_Node000002"><a xlink:href="classdi_1_1container_1_1IteratorExtension.html" target="_top" xlink:title=" ">
<polygon fill="white" stroke="#666666" points="419.38,-405.12 233.12,-405.12 233.12,-333.38 419.38,-333.38 419.38,-405.12"/>
<text text-anchor="start" x="241.12" y="-391.62" font-family="Helvetica,sans-Serif" font-size="10.00">di::container::IteratorExtension</text>
<text text-anchor="start" x="241.12" y="-378.88" font-family="Helvetica,sans-Serif" font-size="10.00">&lt; Iterator&lt; is_const &gt;, Iter</text>
<text text-anchor="start" x="241.12" y="-366.12" font-family="Helvetica,sans-Serif" font-size="10.00">&lt; is_const &gt;, meta::RemoveCVRef</text>
<text text-anchor="start" x="241.12" y="-353.38" font-family="Helvetica,sans-Serif" font-size="10.00">&lt; meta::TupleElement&lt; Value&lt; is</text>
<text text-anchor="middle" x="326.25" y="-340.62" font-family="Helvetica,sans-Serif" font-size="10.00">_const &gt;, index &gt; &gt; &gt;</text>
</a>
</g>
</g>
<!-- Node0&#45;&gt;Node2 -->
<g id="edge212_Node000000_Node000002" class="edge">
<title>Node0&#45;&gt;Node2</title>
<g id="a_edge212_Node000000_Node000002"><a xlink:title=" ">
<path fill="none" stroke="#63b8ff" d="M113.07,-271.86C134.33,-289.39 162.76,-310.71 190.75,-325.25 203.94,-332.1 218.41,-338.17 232.81,-343.45"/>
<polygon fill="#63b8ff" stroke="#63b8ff" points="115.49,-269.33 105.58,-265.59 111,-274.69 115.49,-269.33"/>
</a>
</g>
</g>
<!-- Node3 -->
<g id="Node000003" class="node">
<title>Node3</title>
<g id="a_Node000003"><a xlink:href="classdi_1_1container_1_1IteratorExtension.html" target="_top" xlink:title=" ">
<polygon fill="white" stroke="#666666" points="414.5,-315.75 238,-315.75 238,-256.75 414.5,-256.75 414.5,-315.75"/>
<text text-anchor="start" x="246" y="-302.25" font-family="Helvetica,sans-Serif" font-size="10.00">di::container::IteratorExtension</text>
<text text-anchor="start" x="246" y="-289.5" font-family="Helvetica,sans-Serif" font-size="10.00">&lt; Iterator&lt; is_const &gt;, Iter</text>
<text text-anchor="start" x="246" y="-276.75" font-family="Helvetica,sans-Serif" font-size="10.00">&lt; is_const &gt;, Tuple&lt; Index&lt; is</text>
<text text-anchor="middle" x="326.25" y="-264" font-family="Helvetica,sans-Serif" font-size="10.00">_const &gt;, Value&lt; is_const &gt; &gt; &gt;</text>
</a>
</g>
</g>
<!-- Node0&#45;&gt;Node3 -->
<g id="edge213_Node000000_Node000003" class="edge">
<title>Node0&#45;&gt;Node3</title>
<g id="a_edge213_Node000000_Node000003"><a xlink:title=" ">
<path fill="none" stroke="#63b8ff" d="M166.36,-257.29C189.56,-261.52 214.58,-266.08 237.76,-270.3"/>
<polygon fill="#63b8ff" stroke="#63b8ff" points="167.09,-253.86 156.62,-255.51 165.83,-260.75 167.09,-253.86"/>
</a>
</g>
</g>
<!-- Node4 -->
<g id="Node000004" class="node">
<title>Node4</title>
<g id="a_Node000004"><a xlink:href="classdi_1_1container_1_1IteratorExtension.html" target="_top" xlink:title=" ">
<polygon fill="white" stroke="#666666" points="438.88,-238.5 213.62,-238.5 213.62,-154 438.88,-154 438.88,-238.5"/>
<text text-anchor="start" x="221.62" y="-225" font-family="Helvetica,sans-Serif" font-size="10.00">di::container::IteratorExtension</text>
<text text-anchor="start" x="221.62" y="-212.25" font-family="Helvetica,sans-Serif" font-size="10.00">&lt; Iterator&lt; is_const &gt;, Iter</text>
<text text-anchor="start" x="221.62" y="-199.5" font-family="Helvetica,sans-Serif" font-size="10.00">&lt; is_const &gt;, meta::RemoveCVRef</text>
<text text-anchor="start" x="221.62" y="-186.75" font-family="Helvetica,sans-Serif" font-size="10.00">&lt; meta::InvokeResult&lt; meta::MaybeConst</text>
<text text-anchor="start" x="221.62" y="-174" font-family="Helvetica,sans-Serif" font-size="10.00">&lt; is_const, F &gt; &amp;, meta::IteratorReference</text>
<text text-anchor="middle" x="326.25" y="-161.25" font-family="Helvetica,sans-Serif" font-size="10.00">&lt; Iter&lt; is_const &gt; &gt; &gt; &gt; &gt;</text>
</a>
</g>
</g>
<!-- Node0&#45;&gt;Node4 -->
<g id="edge214_Node000000_Node000004" class="edge">
<title>Node0&#45;&gt;Node4</title>
<g id="a_edge214_Node000000_Node000004"><a xlink:title=" ">
<path fill="none" stroke="#63b8ff" d="M166.09,-225.26C181.34,-222.48 197.39,-219.56 213.2,-216.68"/>
<polygon fill="#63b8ff" stroke="#63b8ff" points="165.83,-221.75 156.62,-226.99 167.09,-228.64 165.83,-221.75"/>
</a>
</g>
</g>
<!-- Node5 -->
<g id="Node000005" class="node">
<title>Node5</title>
<g id="a_Node000005"><a xlink:href="classdi_1_1container_1_1IteratorExtension.html" target="_top" xlink:title=" ">
<polygon fill="white" stroke="#666666" points="409.62,-136 242.88,-136 242.88,-102.5 409.62,-102.5 409.62,-136"/>
<text text-anchor="start" x="250.88" y="-122.5" font-family="Helvetica,sans-Serif" font-size="10.00">di::container::IteratorExtension</text>
<text text-anchor="middle" x="326.25" y="-109.75" font-family="Helvetica,sans-Serif" font-size="10.00">&lt; Iterator, T *, T &gt;</text>
</a>
</g>
</g>
<!-- Node0&#45;&gt;Node5 -->
<g id="edge215_Node000000_Node000005" class="edge">
<title>Node0&#45;&gt;Node5</title>
<g id="a_edge215_Node000000_Node000005"><a xlink:title=" ">
<path fill="none" stroke="#63b8ff" d="M106.58,-209.75C127.65,-188.23 158.3,-160.88 190.75,-145.25 206.82,-137.51 225.02,-132.07 242.72,-128.25"/>
<polygon fill="#63b8ff" stroke="#63b8ff" points="104.15,-207.23 99.77,-216.88 109.21,-212.07 104.15,-207.23"/>
</a>
</g>
</g>
<!-- Node6 -->
<g id="Node000006" class="node">
<title>Node6</title>
<g id="a_Node000006"><a xlink:href="classdi_1_1container_1_1IteratorExtension.html" target="_top" xlink:title=" ">
<polygon fill="white" stroke="#666666" points="461.75,-84.5 190.75,-84.5 190.75,0 461.75,0 461.75,-84.5"/>
<text text-anchor="start" x="198.75" y="-71" font-family="Helvetica,sans-Serif" font-size="10.00">di::container::IteratorExtension</text>
<text text-anchor="start" x="198.75" y="-58.25" font-family="Helvetica,sans-Serif" font-size="10.00">&lt; Iterator&lt; is_const &gt;, Ziperator</text>
<text text-anchor="start" x="198.75" y="-45.5" font-family="Helvetica,sans-Serif" font-size="10.00">&lt; is_const &gt;, meta::RemoveCVRef</text>
<text text-anchor="start" x="198.75" y="-32.75" font-family="Helvetica,sans-Serif" font-size="10.00">&lt; meta::InvokeResult&lt; meta::MaybeConst</text>
<text text-anchor="start" x="198.75" y="-20" font-family="Helvetica,sans-Serif" font-size="10.00">&lt; is_const, F &gt; &amp;, meta::ContainerReference</text>
<text text-anchor="middle" x="326.25" y="-7.25" font-family="Helvetica,sans-Serif" font-size="10.00">&lt; meta::MaybeConst&lt; is_const, Views &gt; &gt;... &gt; &gt; &gt;</text>
</a>
</g>
</g>
<!-- Node0&#45;&gt;Node6 -->
<g id="edge216_Node000000_Node000006" class="edge">
<title>Node0&#45;&gt;Node6</title>
<g id="a_edge216_Node000000_Node000006"><a xlink:title=" ">
<path fill="none" stroke="#63b8ff" d="M96.18,-207.99C115.48,-174.78 149.18,-124.32 190.75,-93.25 194.65,-90.33 198.74,-87.57 202.96,-84.94"/>
<polygon fill="#63b8ff" stroke="#63b8ff" points="93.3,-205.97 91.4,-216.39 99.39,-209.43 93.3,-205.97"/>
</a>
</g>
</g>
</g>
</svg>
