<?xml version="1.0" encoding="UTF-8" standalone="no"?>
<!DOCTYPE svg PUBLIC "-//W3C//DTD SVG 1.1//EN"
 "http://www.w3.org/Graphics/SVG/1.1/DTD/svg11.dtd">
<!-- Generated by graphviz version 10.0.1 (0)
 -->
<!-- Title: Graphical Class Hierarchy Pages: 1 -->
<svg width="256pt" height="94pt"
 viewBox="0.00 0.00 256.00 93.50" xmlns="http://www.w3.org/2000/svg" xmlns:xlink="http://www.w3.org/1999/xlink">
<g id="graph0" class="graph" transform="scale(1 1) rotate(0) translate(4 89.5)">
<title>Graphical Class Hierarchy</title>
<!-- Node0 -->
<g id="Node000000" class="node">
<title>Node0</title>
<g id="a_Node000000"><a xlink:href="structdi_1_1bit_1_1BitField.html" target="_top" xlink:title=" ">
<polygon fill="white" stroke="#666666" points="94.75,-59.5 0,-59.5 0,-26 94.75,-26 94.75,-59.5"/>
<text text-anchor="start" x="8" y="-46" font-family="Helvetica,sans-Serif" font-size="10.00">di::bit::BitField&lt;</text>
<text text-anchor="middle" x="47.38" y="-33.25" font-family="Helvetica,sans-Serif" font-size="10.00"> 48, 16 &gt;</text>
</a>
</g>
</g>
<!-- Node1 -->
<g id="Node000001" class="node">
<title>Node1</title>
<g id="a_Node000001"><a xlink:href="structiris_1_1x86_1_1amd64_1_1idt_1_1TargetMid.html" target="_top" xlink:title=" ">
<polygon fill="white" stroke="#666666" points="246.12,-85.5 132.62,-85.5 132.62,-52 246.12,-52 246.12,-85.5"/>
<text text-anchor="start" x="140.62" y="-72" font-family="Helvetica,sans-Serif" font-size="10.00">iris::x86::amd64::idt</text>
<text text-anchor="middle" x="189.38" y="-59.25" font-family="Helvetica,sans-Serif" font-size="10.00">::TargetMid</text>
</a>
</g>
</g>
<!-- Node0&#45;&gt;Node1 -->
<g id="edge39_Node000000_Node000001" class="edge">
<title>Node0&#45;&gt;Node1</title>
<g id="a_edge39_Node000000_Node000001"><a xlink:title=" ">
<path fill="none" stroke="#63b8ff" d="M106.14,-53.48C114.76,-55.08 123.64,-56.73 132.24,-58.32"/>
<polygon fill="#63b8ff" stroke="#63b8ff" points="106.95,-50.07 96.48,-51.68 105.67,-56.95 106.95,-50.07"/>
</a>
</g>
</g>
<!-- Node2 -->
<g id="Node000002" class="node">
<title>Node2</title>
<g id="a_Node000002"><a xlink:href="structiris_1_1x86_1_1amd64_1_1ssd_1_1LimitHigh.html" target="_top" xlink:title=" ">
<polygon fill="white" stroke="#666666" points="248,-33.5 130.75,-33.5 130.75,0 248,0 248,-33.5"/>
<text text-anchor="start" x="138.75" y="-20" font-family="Helvetica,sans-Serif" font-size="10.00">iris::x86::amd64::ssd</text>
<text text-anchor="middle" x="189.38" y="-7.25" font-family="Helvetica,sans-Serif" font-size="10.00">::LimitHigh</text>
</a>
</g>
</g>
<!-- Node0&#45;&gt;Node2 -->
<g id="edge40_Node000000_Node000002" class="edge">
<title>Node0&#45;&gt;Node2</title>
<g id="a_edge40_Node000000_Node000002"><a xlink:title=" ">
<path fill="none" stroke="#63b8ff" d="M106.08,-32.03C114.06,-30.55 122.27,-29.03 130.25,-27.54"/>
<polygon fill="#63b8ff" stroke="#63b8ff" points="105.67,-28.55 96.48,-33.82 106.95,-35.43 105.67,-28.55"/>
</a>
</g>
</g>
</g>
</svg>
