<?xml version="1.0" encoding="UTF-8" standalone="no"?>
<!DOCTYPE svg PUBLIC "-//W3C//DTD SVG 1.1//EN"
 "http://www.w3.org/Graphics/SVG/1.1/DTD/svg11.dtd">
<!-- Generated by graphviz version 10.0.1 (0)
 -->
<!-- Title: Graphical Class Hierarchy Pages: 1 -->
<svg width="359pt" height="1631pt"
 viewBox="0.00 0.00 358.75 1631.25" xmlns="http://www.w3.org/2000/svg" xmlns:xlink="http://www.w3.org/1999/xlink">
<g id="graph0" class="graph" transform="scale(1 1) rotate(0) translate(4 1627.25)">
<title>Graphical Class Hierarchy</title>
<!-- Node0 -->
<g id="Node000000" class="node">
<title>Node0</title>
<g id="a_Node000000"><a xlink:href="structdi_1_1meta_1_1TypeConstant.html" target="_top" xlink:title=" ">
<polygon fill="white" stroke="#666666" points="128.5,-841.88 0,-841.88 0,-808.38 128.5,-808.38 128.5,-841.88"/>
<text text-anchor="start" x="8" y="-828.38" font-family="Helvetica,sans-Serif" font-size="10.00">di::meta::TypeConstant</text>
<text text-anchor="middle" x="64.25" y="-815.62" font-family="Helvetica,sans-Serif" font-size="10.00">&lt; R(Args...)&gt;</text>
</a>
</g>
</g>
<!-- Node1 -->
<g id="Node000001" class="node">
<title>Node1</title>
<g id="a_Node000001"><a xlink:href="structdi_1_1function_1_1function__ref__ns_1_1SignatureAfterBindFrontHelper_3_01R_07_5_08_07U_00_01Args_8_8_8_08_00_01T_01_4.html" target="_top" xlink:title=" ">
<polygon fill="white" stroke="#666666" points="344.38,-1623.25 170.88,-1623.25 170.88,-1577 344.38,-1577 344.38,-1623.25"/>
<text text-anchor="start" x="178.88" y="-1609.75" font-family="Helvetica,sans-Serif" font-size="10.00">di::function::function</text>
<text text-anchor="start" x="178.88" y="-1597" font-family="Helvetica,sans-Serif" font-size="10.00">_ref_ns::SignatureAfterBindFront</text>
<text text-anchor="middle" x="257.62" y="-1584.25" font-family="Helvetica,sans-Serif" font-size="10.00">Helper&lt; R(*)(U, Args...), T &gt;</text>
</a>
</g>
</g>
<!-- Node0&#45;&gt;Node1 -->
<g id="edge531_Node000000_Node000001" class="edge">
<title>Node0&#45;&gt;Node1</title>
<g id="a_edge531_Node000000_Node000001"><a xlink:title=" ">
<path fill="none" stroke="#63b8ff" d="M65.2,-853.63C65.54,-976.01 72.8,-1455.8 164.5,-1568.12 167.07,-1571.27 169.97,-1574.11 173.11,-1576.67"/>
<polygon fill="#63b8ff" stroke="#63b8ff" points="68.7,-853.82 65.19,-843.83 61.7,-853.83 68.7,-853.82"/>
</a>
</g>
</g>
<!-- Node2 -->
<g id="Node000002" class="node">
<title>Node2</title>
<g id="a_Node000002"><a xlink:href="structdi_1_1meta_1_1detail_1_1RemoveFunctionQualifiersHelper_3_01R_07Args_8_8_8_08_01_6_6_01_4.html" target="_top" xlink:title=" ">
<polygon fill="white" stroke="#666666" points="326,-1559.25 189.25,-1559.25 189.25,-1513 326,-1513 326,-1559.25"/>
<text text-anchor="start" x="197.25" y="-1545.75" font-family="Helvetica,sans-Serif" font-size="10.00">di::meta::detail::Remove</text>
<text text-anchor="start" x="197.25" y="-1533" font-family="Helvetica,sans-Serif" font-size="10.00">FunctionQualifiersHelper</text>
<text text-anchor="middle" x="257.62" y="-1520.25" font-family="Helvetica,sans-Serif" font-size="10.00">&lt; R(Args...) &amp;&amp; &gt;</text>
</a>
</g>
</g>
<!-- Node0&#45;&gt;Node2 -->
<g id="edge532_Node000000_Node000002" class="edge">
<title>Node0&#45;&gt;Node2</title>
<g id="a_edge532_Node000000_Node000002"><a xlink:title=" ">
<path fill="none" stroke="#63b8ff" d="M65.6,-853.74C67.58,-969.61 80.55,-1402.58 164.5,-1504.12 171.08,-1512.09 179.76,-1518.07 189.15,-1522.57"/>
<polygon fill="#63b8ff" stroke="#63b8ff" points="69.1,-853.83 65.45,-843.88 62.1,-853.94 69.1,-853.83"/>
</a>
</g>
</g>
<!-- Node3 -->
<g id="Node000003" class="node">
<title>Node3</title>
<g id="a_Node000003"><a xlink:href="structdi_1_1meta_1_1detail_1_1RemoveFunctionQualifiersHelper_3_01R_07Args_8_8_8_08_01_6_6noexcept_01_4.html" target="_top" xlink:title=" ">
<polygon fill="white" stroke="#666666" points="330.88,-1495.25 184.38,-1495.25 184.38,-1449 330.88,-1449 330.88,-1495.25"/>
<text text-anchor="start" x="192.38" y="-1481.75" font-family="Helvetica,sans-Serif" font-size="10.00">di::meta::detail::Remove</text>
<text text-anchor="start" x="192.38" y="-1469" font-family="Helvetica,sans-Serif" font-size="10.00">FunctionQualifiersHelper</text>
<text text-anchor="middle" x="257.62" y="-1456.25" font-family="Helvetica,sans-Serif" font-size="10.00">&lt; R(Args...) &amp;&amp;noexcept &gt;</text>
</a>
</g>
</g>
<!-- Node0&#45;&gt;Node3 -->
<g id="edge533_Node000000_Node000003" class="edge">
<title>Node0&#45;&gt;Node3</title>
<g id="a_edge533_Node000000_Node000003"><a xlink:title=" ">
<path fill="none" stroke="#63b8ff" d="M66.07,-853.46C69.77,-961.93 88.18,-1349.19 164.5,-1440.12 169.94,-1446.61 176.77,-1451.78 184.24,-1455.91"/>
<polygon fill="#63b8ff" stroke="#63b8ff" points="69.58,-853.59 65.76,-843.71 62.58,-853.82 69.58,-853.59"/>
</a>
</g>
</g>
<!-- Node4 -->
<g id="Node000004" class="node">
<title>Node4</title>
<g id="a_Node000004"><a xlink:href="structdi_1_1meta_1_1detail_1_1RemoveFunctionQualifiersHelper_3_01R_07Args_8_8_8_08_01_6noexcept_01_4.html" target="_top" xlink:title=" ">
<polygon fill="white" stroke="#666666" points="327.12,-1431.25 188.12,-1431.25 188.12,-1385 327.12,-1385 327.12,-1431.25"/>
<text text-anchor="start" x="196.12" y="-1417.75" font-family="Helvetica,sans-Serif" font-size="10.00">di::meta::detail::Remove</text>
<text text-anchor="start" x="196.12" y="-1405" font-family="Helvetica,sans-Serif" font-size="10.00">FunctionQualifiersHelper</text>
<text text-anchor="middle" x="257.62" y="-1392.25" font-family="Helvetica,sans-Serif" font-size="10.00">&lt; R(Args...) &amp;noexcept &gt;</text>
</a>
</g>
</g>
<!-- Node0&#45;&gt;Node4 -->
<g id="edge534_Node000000_Node000004" class="edge">
<title>Node0&#45;&gt;Node4</title>
<g id="a_edge534_Node000000_Node000004"><a xlink:title=" ">
<path fill="none" stroke="#63b8ff" d="M66.67,-853.74C72.26,-955.2 95.91,-1295.89 164.5,-1376.12 170.88,-1383.59 179.1,-1389.31 188,-1393.7"/>
<polygon fill="#63b8ff" stroke="#63b8ff" points="70.17,-853.64 66.15,-843.84 63.18,-854.02 70.17,-853.64"/>
</a>
</g>
</g>
<!-- Node5 -->
<g id="Node000005" class="node">
<title>Node5</title>
<g id="a_Node000005"><a xlink:href="structdi_1_1meta_1_1detail_1_1RemoveFunctionQualifiersHelper_3_01R_07Args_8_8_8_08_01const_01_6_01_4.html" target="_top" xlink:title=" ">
<polygon fill="white" stroke="#666666" points="326,-1367.25 189.25,-1367.25 189.25,-1321 326,-1321 326,-1367.25"/>
<text text-anchor="start" x="197.25" y="-1353.75" font-family="Helvetica,sans-Serif" font-size="10.00">di::meta::detail::Remove</text>
<text text-anchor="start" x="197.25" y="-1341" font-family="Helvetica,sans-Serif" font-size="10.00">FunctionQualifiersHelper</text>
<text text-anchor="middle" x="257.62" y="-1328.25" font-family="Helvetica,sans-Serif" font-size="10.00">&lt; R(Args...) const &amp; &gt;</text>
</a>
</g>
</g>
<!-- Node0&#45;&gt;Node5 -->
<g id="edge535_Node000000_Node000005" class="edge">
<title>Node0&#45;&gt;Node5</title>
<g id="a_edge535_Node000000_Node000005"><a xlink:title=" ">
<path fill="none" stroke="#63b8ff" d="M67.39,-853.42C74.97,-946.67 103.46,-1242.36 164.5,-1312.12 171.19,-1319.77 179.8,-1325.59 189.07,-1330.02"/>
<polygon fill="#63b8ff" stroke="#63b8ff" points="70.89,-853.32 66.61,-843.63 63.91,-853.87 70.89,-853.32"/>
</a>
</g>
</g>
<!-- Node6 -->
<g id="Node000006" class="node">
<title>Node6</title>
<g id="a_Node000006"><a xlink:href="structdi_1_1meta_1_1detail_1_1RemoveFunctionQualifiersHelper_3_01R_07Args_8_8_8_08_01const_01_6_6_01_4.html" target="_top" xlink:title=" ">
<polygon fill="white" stroke="#666666" points="326,-1303.25 189.25,-1303.25 189.25,-1257 326,-1257 326,-1303.25"/>
<text text-anchor="start" x="197.25" y="-1289.75" font-family="Helvetica,sans-Serif" font-size="10.00">di::meta::detail::Remove</text>
<text text-anchor="start" x="197.25" y="-1277" font-family="Helvetica,sans-Serif" font-size="10.00">FunctionQualifiersHelper</text>
<text text-anchor="middle" x="257.62" y="-1264.25" font-family="Helvetica,sans-Serif" font-size="10.00">&lt; R(Args...) const &amp;&amp; &gt;</text>
</a>
</g>
</g>
<!-- Node0&#45;&gt;Node6 -->
<g id="edge536_Node000000_Node000006" class="edge">
<title>Node0&#45;&gt;Node6</title>
<g id="a_edge536_Node000000_Node000006"><a xlink:title=" ">
<path fill="none" stroke="#63b8ff" d="M68.35,-853.54C78.16,-938.58 111.07,-1188.84 164.5,-1248.12 171.19,-1255.55 179.69,-1261.25 188.8,-1265.62"/>
<polygon fill="#63b8ff" stroke="#63b8ff" points="71.84,-853.28 67.24,-843.74 64.89,-854.07 71.84,-853.28"/>
</a>
</g>
</g>
<!-- Node7 -->
<g id="Node000007" class="node">
<title>Node7</title>
<g id="a_Node000007"><a xlink:href="structdi_1_1meta_1_1detail_1_1RemoveFunctionQualifiersHelper_3_01R_07Args_8_8_8_08_01const_01_6_6noexcept_01_4.html" target="_top" xlink:title=" ">
<polygon fill="white" stroke="#666666" points="345.5,-1239.25 169.75,-1239.25 169.75,-1193 345.5,-1193 345.5,-1239.25"/>
<text text-anchor="start" x="177.75" y="-1225.75" font-family="Helvetica,sans-Serif" font-size="10.00">di::meta::detail::Remove</text>
<text text-anchor="start" x="177.75" y="-1213" font-family="Helvetica,sans-Serif" font-size="10.00">FunctionQualifiersHelper</text>
<text text-anchor="middle" x="257.62" y="-1200.25" font-family="Helvetica,sans-Serif" font-size="10.00">&lt; R(Args...) const &amp;&amp;noexcept &gt;</text>
</a>
</g>
</g>
<!-- Node0&#45;&gt;Node7 -->
<g id="edge537_Node000000_Node000007" class="edge">
<title>Node0&#45;&gt;Node7</title>
<g id="a_edge537_Node000000_Node000007"><a xlink:title=" ">
<path fill="none" stroke="#63b8ff" d="M64.71,-853.19C64.98,-919.73 74.99,-1088.64 164.5,-1184.12 167.39,-1187.21 170.6,-1190 174.04,-1192.52"/>
<polygon fill="#63b8ff" stroke="#63b8ff" points="68.21,-853.52 64.75,-843.51 61.21,-853.49 68.21,-853.52"/>
</a>
</g>
</g>
<!-- Node8 -->
<g id="Node000008" class="node">
<title>Node8</title>
<g id="a_Node000008"><a xlink:href="structdi_1_1meta_1_1detail_1_1RemoveFunctionQualifiersHelper_3_01R_07Args_8_8_8_08_01const_01_6noexcept_01_4.html" target="_top" xlink:title=" ">
<polygon fill="white" stroke="#666666" points="341.75,-1175.25 173.5,-1175.25 173.5,-1129 341.75,-1129 341.75,-1175.25"/>
<text text-anchor="start" x="181.5" y="-1161.75" font-family="Helvetica,sans-Serif" font-size="10.00">di::meta::detail::Remove</text>
<text text-anchor="start" x="181.5" y="-1149" font-family="Helvetica,sans-Serif" font-size="10.00">FunctionQualifiersHelper</text>
<text text-anchor="middle" x="257.62" y="-1136.25" font-family="Helvetica,sans-Serif" font-size="10.00">&lt; R(Args...) const &amp;noexcept &gt;</text>
</a>
</g>
</g>
<!-- Node0&#45;&gt;Node8 -->
<g id="edge538_Node000000_Node000008" class="edge">
<title>Node0&#45;&gt;Node8</title>
<g id="a_edge538_Node000000_Node000008"><a xlink:title=" ">
<path fill="none" stroke="#63b8ff" d="M66.73,-853.28C71.29,-911.22 89.78,-1044.67 164.5,-1120.12 167.6,-1123.25 171.02,-1126.08 174.66,-1128.62"/>
<polygon fill="#63b8ff" stroke="#63b8ff" points="70.25,-853.35 66.06,-843.62 63.26,-853.84 70.25,-853.35"/>
</a>
</g>
</g>
<!-- Node9 -->
<g id="Node000009" class="node">
<title>Node9</title>
<g id="a_Node000009"><a xlink:href="structdi_1_1meta_1_1detail_1_1RemoveFunctionQualifiersHelper_3_01R_07Args_8_8_8_08_01const_01_4.html" target="_top" xlink:title=" ">
<polygon fill="white" stroke="#666666" points="326,-1111.25 189.25,-1111.25 189.25,-1065 326,-1065 326,-1111.25"/>
<text text-anchor="start" x="197.25" y="-1097.75" font-family="Helvetica,sans-Serif" font-size="10.00">di::meta::detail::Remove</text>
<text text-anchor="start" x="197.25" y="-1085" font-family="Helvetica,sans-Serif" font-size="10.00">FunctionQualifiersHelper</text>
<text text-anchor="middle" x="257.62" y="-1072.25" font-family="Helvetica,sans-Serif" font-size="10.00">&lt; R(Args...) const &gt;</text>
</a>
</g>
</g>
<!-- Node0&#45;&gt;Node9 -->
<g id="edge539_Node000000_Node000009" class="edge">
<title>Node0&#45;&gt;Node9</title>
<g id="a_edge539_Node000000_Node000009"><a xlink:title=" ">
<path fill="none" stroke="#63b8ff" d="M69.82,-853.48C79.05,-901.78 104.42,-1000.19 164.5,-1056.12 171.56,-1062.7 180.05,-1067.93 188.97,-1072.1"/>
<polygon fill="#63b8ff" stroke="#63b8ff" points="73.29,-853.04 68.07,-843.83 66.41,-854.29 73.29,-853.04"/>
</a>
</g>
</g>
<!-- Node10 -->
<g id="Node000010" class="node">
<title>Node10</title>
<g id="a_Node000010"><a xlink:href="structdi_1_1meta_1_1detail_1_1RemoveFunctionQualifiersHelper_3_01R_07Args_8_8_8_08_01const_01noexcept_01_4.html" target="_top" xlink:title=" ">
<polygon fill="white" stroke="#666666" points="338,-1047.25 177.25,-1047.25 177.25,-1001 338,-1001 338,-1047.25"/>
<text text-anchor="start" x="185.25" y="-1033.75" font-family="Helvetica,sans-Serif" font-size="10.00">di::meta::detail::Remove</text>
<text text-anchor="start" x="185.25" y="-1021" font-family="Helvetica,sans-Serif" font-size="10.00">FunctionQualifiersHelper</text>
<text text-anchor="middle" x="257.62" y="-1008.25" font-family="Helvetica,sans-Serif" font-size="10.00">&lt; R(Args...) const noexcept &gt;</text>
</a>
</g>
</g>
<!-- Node0&#45;&gt;Node10 -->
<g id="edge540_Node000000_Node000010" class="edge">
<title>Node0&#45;&gt;Node10</title>
<g id="a_edge540_Node000000_Node000010"><a xlink:title=" ">
<path fill="none" stroke="#63b8ff" d="M74.73,-852.7C88.76,-889.54 118.44,-954.54 164.5,-992.12 168.3,-995.23 172.43,-998.04 176.75,-1000.59"/>
<polygon fill="#63b8ff" stroke="#63b8ff" points="78.14,-851.83 71.4,-843.65 71.57,-854.24 78.14,-851.83"/>
</a>
</g>
</g>
<!-- Node11 -->
<g id="Node000011" class="node">
<title>Node11</title>
<g id="a_Node000011"><a xlink:href="structdi_1_1meta_1_1detail_1_1RemoveFunctionQualifiersHelper_3_01R_07Args_8_8_8_08_01const_01volatile_01_6_01_4.html" target="_top" xlink:title=" ">
<polygon fill="white" stroke="#666666" points="339.12,-983.25 176.12,-983.25 176.12,-937 339.12,-937 339.12,-983.25"/>
<text text-anchor="start" x="184.12" y="-969.75" font-family="Helvetica,sans-Serif" font-size="10.00">di::meta::detail::Remove</text>
<text text-anchor="start" x="184.12" y="-957" font-family="Helvetica,sans-Serif" font-size="10.00">FunctionQualifiersHelper</text>
<text text-anchor="middle" x="257.62" y="-944.25" font-family="Helvetica,sans-Serif" font-size="10.00">&lt; R(Args...) const volatile &amp; &gt;</text>
</a>
</g>
</g>
<!-- Node0&#45;&gt;Node11 -->
<g id="edge541_Node000000_Node000011" class="edge">
<title>Node0&#45;&gt;Node11</title>
<g id="a_edge541_Node000000_Node000011"><a xlink:title=" ">
<path fill="none" stroke="#63b8ff" d="M84.38,-851.03C102.65,-874.13 132.14,-907.42 164.5,-928.12 169.35,-931.23 174.54,-934.07 179.88,-936.67"/>
<polygon fill="#63b8ff" stroke="#63b8ff" points="87.3,-849.08 78.41,-843.31 81.76,-853.36 87.3,-849.08"/>
</a>
</g>
</g>
<!-- Node12 -->
<g id="Node000012" class="node">
<title>Node12</title>
<g id="a_Node000012"><a xlink:href="structdi_1_1meta_1_1detail_1_1RemoveFunctionQualifiersHelper_3_01R_07Args_8_8_8_08_01const_01volatile_01_6_6_01_4.html" target="_top" xlink:title=" ">
<polygon fill="white" stroke="#666666" points="342.88,-919.25 172.38,-919.25 172.38,-873 342.88,-873 342.88,-919.25"/>
<text text-anchor="start" x="180.38" y="-905.75" font-family="Helvetica,sans-Serif" font-size="10.00">di::meta::detail::Remove</text>
<text text-anchor="start" x="180.38" y="-893" font-family="Helvetica,sans-Serif" font-size="10.00">FunctionQualifiersHelper</text>
<text text-anchor="middle" x="257.62" y="-880.25" font-family="Helvetica,sans-Serif" font-size="10.00">&lt; R(Args...) const volatile &amp;&amp; &gt;</text>
</a>
</g>
</g>
<!-- Node0&#45;&gt;Node12 -->
<g id="edge542_Node000000_Node000012" class="edge">
<title>Node0&#45;&gt;Node12</title>
<g id="a_edge542_Node000000_Node000012"><a xlink:title=" ">
<path fill="none" stroke="#63b8ff" d="M118.2,-846.39C133.13,-852.26 149.41,-858.54 164.5,-864.12 172.12,-866.95 180.12,-869.83 188.1,-872.66"/>
<polygon fill="#63b8ff" stroke="#63b8ff" points="119.6,-843.18 109.02,-842.76 117.03,-849.69 119.6,-843.18"/>
</a>
</g>
</g>
<!-- Node13 -->
<g id="Node000013" class="node">
<title>Node13</title>
<g id="a_Node000013"><a xlink:href="structdi_1_1meta_1_1detail_1_1RemoveFunctionQualifiersHelper_3_01R_07Args_8_8_8_08_01const_01volatile_01_6_6noexcept_01_4.html" target="_top" xlink:title=" ">
<polygon fill="white" stroke="#666666" points="328.25,-854.62 187,-854.62 187,-795.62 328.25,-795.62 328.25,-854.62"/>
<text text-anchor="start" x="195" y="-841.12" font-family="Helvetica,sans-Serif" font-size="10.00">di::meta::detail::Remove</text>
<text text-anchor="start" x="195" y="-828.38" font-family="Helvetica,sans-Serif" font-size="10.00">FunctionQualifiersHelper</text>
<text text-anchor="start" x="195" y="-815.62" font-family="Helvetica,sans-Serif" font-size="10.00">&lt; R(Args...) const volatile</text>
<text text-anchor="middle" x="257.62" y="-802.88" font-family="Helvetica,sans-Serif" font-size="10.00"> &amp;&amp;noexcept &gt;</text>
</a>
</g>
</g>
<!-- Node0&#45;&gt;Node13 -->
<g id="edge543_Node000000_Node000013" class="edge">
<title>Node0&#45;&gt;Node13</title>
<g id="a_edge543_Node000000_Node000013"><a xlink:title=" ">
<path fill="none" stroke="#63b8ff" d="M140.43,-825.12C155.64,-825.12 171.57,-825.12 186.59,-825.12"/>
<polygon fill="#63b8ff" stroke="#63b8ff" points="140.49,-821.63 130.49,-825.13 140.49,-828.63 140.49,-821.63"/>
</a>
</g>
</g>
<!-- Node14 -->
<g id="Node000014" class="node">
<title>Node14</title>
<g id="a_Node000014"><a xlink:href="structdi_1_1meta_1_1detail_1_1RemoveFunctionQualifiersHelper_3_01R_07Args_8_8_8_08_01const_01volatile_01_6noexcept_01_4.html" target="_top" xlink:title=" ">
<polygon fill="white" stroke="#666666" points="328.25,-777.62 187,-777.62 187,-718.62 328.25,-718.62 328.25,-777.62"/>
<text text-anchor="start" x="195" y="-764.12" font-family="Helvetica,sans-Serif" font-size="10.00">di::meta::detail::Remove</text>
<text text-anchor="start" x="195" y="-751.38" font-family="Helvetica,sans-Serif" font-size="10.00">FunctionQualifiersHelper</text>
<text text-anchor="start" x="195" y="-738.62" font-family="Helvetica,sans-Serif" font-size="10.00">&lt; R(Args...) const volatile</text>
<text text-anchor="middle" x="257.62" y="-725.88" font-family="Helvetica,sans-Serif" font-size="10.00"> &amp;noexcept &gt;</text>
</a>
</g>
</g>
<!-- Node0&#45;&gt;Node14 -->
<g id="edge544_Node000000_Node000014" class="edge">
<title>Node0&#45;&gt;Node14</title>
<g id="a_edge544_Node000000_Node000014"><a xlink:title=" ">
<path fill="none" stroke="#63b8ff" d="M118.15,-803.84C139.39,-795.3 164.16,-785.33 186.84,-776.2"/>
<polygon fill="#63b8ff" stroke="#63b8ff" points="117.1,-800.49 109.13,-807.47 119.71,-806.99 117.1,-800.49"/>
</a>
</g>
</g>
<!-- Node15 -->
<g id="Node000015" class="node">
<title>Node15</title>
<g id="a_Node000015"><a xlink:href="structdi_1_1meta_1_1detail_1_1RemoveFunctionQualifiersHelper_3_01R_07Args_8_8_8_08_01const_01volatile_01_4.html" target="_top" xlink:title=" ">
<polygon fill="white" stroke="#666666" points="333.88,-700.25 181.38,-700.25 181.38,-654 333.88,-654 333.88,-700.25"/>
<text text-anchor="start" x="189.38" y="-686.75" font-family="Helvetica,sans-Serif" font-size="10.00">di::meta::detail::Remove</text>
<text text-anchor="start" x="189.38" y="-674" font-family="Helvetica,sans-Serif" font-size="10.00">FunctionQualifiersHelper</text>
<text text-anchor="middle" x="257.62" y="-661.25" font-family="Helvetica,sans-Serif" font-size="10.00">&lt; R(Args...) const volatile &gt;</text>
</a>
</g>
</g>
<!-- Node0&#45;&gt;Node15 -->
<g id="edge545_Node000000_Node000015" class="edge">
<title>Node0&#45;&gt;Node15</title>
<g id="a_edge545_Node000000_Node000015"><a xlink:title=" ">
<path fill="none" stroke="#63b8ff" d="M82.04,-798.71C99.71,-772.85 129.75,-733.97 164.5,-710.12 169.68,-706.57 175.29,-703.35 181.1,-700.45"/>
<polygon fill="#63b8ff" stroke="#63b8ff" points="79.16,-796.73 76.52,-806.99 84.98,-800.61 79.16,-796.73"/>
</a>
</g>
</g>
<!-- Node16 -->
<g id="Node000016" class="node">
<title>Node16</title>
<g id="a_Node000016"><a xlink:href="structdi_1_1meta_1_1detail_1_1RemoveFunctionQualifiersHelper_3_01R_07Args_8_8_8_08_01const_01volatile_01noexcept_01_4.html" target="_top" xlink:title=" ">
<polygon fill="white" stroke="#666666" points="328.25,-635.62 187,-635.62 187,-576.62 328.25,-576.62 328.25,-635.62"/>
<text text-anchor="start" x="195" y="-622.12" font-family="Helvetica,sans-Serif" font-size="10.00">di::meta::detail::Remove</text>
<text text-anchor="start" x="195" y="-609.38" font-family="Helvetica,sans-Serif" font-size="10.00">FunctionQualifiersHelper</text>
<text text-anchor="start" x="195" y="-596.62" font-family="Helvetica,sans-Serif" font-size="10.00">&lt; R(Args...) const volatile</text>
<text text-anchor="middle" x="257.62" y="-583.88" font-family="Helvetica,sans-Serif" font-size="10.00"> noexcept &gt;</text>
</a>
</g>
</g>
<!-- Node0&#45;&gt;Node16 -->
<g id="edge546_Node000000_Node000016" class="edge">
<title>Node0&#45;&gt;Node16</title>
<g id="a_edge546_Node000000_Node000016"><a xlink:title=" ">
<path fill="none" stroke="#63b8ff" d="M73.94,-797.58C87.49,-758.74 117.1,-687.86 164.5,-645.12 171.08,-639.19 178.69,-634.08 186.67,-629.69"/>
<polygon fill="#63b8ff" stroke="#63b8ff" points="70.76,-796.06 70.89,-806.65 77.4,-798.29 70.76,-796.06"/>
</a>
</g>
</g>
<!-- Node17 -->
<g id="Node000017" class="node">
<title>Node17</title>
<g id="a_Node000017"><a xlink:href="structdi_1_1meta_1_1detail_1_1RemoveFunctionQualifiersHelper_3_01R_07Args_8_8_8_08_01noexcept_01_4.html" target="_top" xlink:title=" ">
<polygon fill="white" stroke="#666666" points="326,-558.25 189.25,-558.25 189.25,-512 326,-512 326,-558.25"/>
<text text-anchor="start" x="197.25" y="-544.75" font-family="Helvetica,sans-Serif" font-size="10.00">di::meta::detail::Remove</text>
<text text-anchor="start" x="197.25" y="-532" font-family="Helvetica,sans-Serif" font-size="10.00">FunctionQualifiersHelper</text>
<text text-anchor="middle" x="257.62" y="-519.25" font-family="Helvetica,sans-Serif" font-size="10.00">&lt; R(Args...) noexcept &gt;</text>
</a>
</g>
</g>
<!-- Node0&#45;&gt;Node17 -->
<g id="edge547_Node000000_Node000017" class="edge">
<title>Node0&#45;&gt;Node17</title>
<g id="a_edge547_Node000000_Node000017"><a xlink:title=" ">
<path fill="none" stroke="#63b8ff" d="M68.48,-796.7C75.89,-744.33 98.9,-632.14 164.5,-568.12 171.55,-561.24 180.14,-555.79 189.2,-551.46"/>
<polygon fill="#63b8ff" stroke="#63b8ff" points="65.01,-796.21 67.18,-806.58 71.95,-797.12 65.01,-796.21"/>
</a>
</g>
</g>
<!-- Node18 -->
<g id="Node000018" class="node">
<title>Node18</title>
<g id="a_Node000018"><a xlink:href="structdi_1_1meta_1_1detail_1_1RemoveFunctionQualifiersHelper_3_01R_07Args_8_8_8_08_01volatile_01_6_01_4.html" target="_top" xlink:title=" ">
<polygon fill="white" stroke="#666666" points="326,-494.25 189.25,-494.25 189.25,-448 326,-448 326,-494.25"/>
<text text-anchor="start" x="197.25" y="-480.75" font-family="Helvetica,sans-Serif" font-size="10.00">di::meta::detail::Remove</text>
<text text-anchor="start" x="197.25" y="-468" font-family="Helvetica,sans-Serif" font-size="10.00">FunctionQualifiersHelper</text>
<text text-anchor="middle" x="257.62" y="-455.25" font-family="Helvetica,sans-Serif" font-size="10.00">&lt; R(Args...) volatile &amp; &gt;</text>
</a>
</g>
</g>
<!-- Node0&#45;&gt;Node18 -->
<g id="edge548_Node000000_Node000018" class="edge">
<title>Node0&#45;&gt;Node18</title>
<g id="a_edge548_Node000000_Node000018"><a xlink:title=" ">
<path fill="none" stroke="#63b8ff" d="M65.79,-797C68.49,-735.32 83.56,-586.97 164.5,-503.12 171.32,-496.06 179.78,-490.55 188.78,-486.26"/>
<polygon fill="#63b8ff" stroke="#63b8ff" points="62.3,-796.51 65.45,-806.63 69.3,-796.76 62.3,-796.51"/>
</a>
</g>
</g>
<!-- Node19 -->
<g id="Node000019" class="node">
<title>Node19</title>
<g id="a_Node000019"><a xlink:href="structdi_1_1meta_1_1detail_1_1RemoveFunctionQualifiersHelper_3_01R_07Args_8_8_8_08_01volatile_01_6_6_01_4.html" target="_top" xlink:title=" ">
<polygon fill="white" stroke="#666666" points="328.25,-430.25 187,-430.25 187,-384 328.25,-384 328.25,-430.25"/>
<text text-anchor="start" x="195" y="-416.75" font-family="Helvetica,sans-Serif" font-size="10.00">di::meta::detail::Remove</text>
<text text-anchor="start" x="195" y="-404" font-family="Helvetica,sans-Serif" font-size="10.00">FunctionQualifiersHelper</text>
<text text-anchor="middle" x="257.62" y="-391.25" font-family="Helvetica,sans-Serif" font-size="10.00">&lt; R(Args...) volatile &amp;&amp; &gt;</text>
</a>
</g>
</g>
<!-- Node0&#45;&gt;Node19 -->
<g id="edge549_Node000000_Node000019" class="edge">
<title>Node0&#45;&gt;Node19</title>
<g id="a_edge549_Node000000_Node000019"><a xlink:title=" ">
<path fill="none" stroke="#63b8ff" d="M68.99,-797.09C80.12,-717.51 115.35,-492.51 164.5,-439.12 170.69,-432.4 178.37,-427.09 186.63,-422.89"/>
<polygon fill="#63b8ff" stroke="#63b8ff" points="65.57,-796.27 67.67,-806.65 72.5,-797.22 65.57,-796.27"/>
</a>
</g>
</g>
<!-- Node20 -->
<g id="Node000020" class="node">
<title>Node20</title>
<g id="a_Node000020"><a xlink:href="structdi_1_1meta_1_1detail_1_1RemoveFunctionQualifiersHelper_3_01R_07Args_8_8_8_08_01volatile_01_6_6noexcept_01_4.html" target="_top" xlink:title=" ">
<polygon fill="white" stroke="#666666" points="350.75,-366.25 164.5,-366.25 164.5,-320 350.75,-320 350.75,-366.25"/>
<text text-anchor="start" x="172.5" y="-352.75" font-family="Helvetica,sans-Serif" font-size="10.00">di::meta::detail::Remove</text>
<text text-anchor="start" x="172.5" y="-340" font-family="Helvetica,sans-Serif" font-size="10.00">FunctionQualifiersHelper</text>
<text text-anchor="middle" x="257.62" y="-327.25" font-family="Helvetica,sans-Serif" font-size="10.00">&lt; R(Args...) volatile &amp;&amp;noexcept &gt;</text>
</a>
</g>
</g>
<!-- Node0&#45;&gt;Node20 -->
<g id="edge550_Node000000_Node000020" class="edge">
<title>Node0&#45;&gt;Node20</title>
<g id="a_edge550_Node000000_Node000020"><a xlink:title=" ">
<path fill="none" stroke="#63b8ff" d="M67.92,-796.67C76.78,-708 107.89,-438.79 164.5,-375.12 167.31,-371.96 170.45,-369.11 173.83,-366.54"/>
<polygon fill="#63b8ff" stroke="#63b8ff" points="64.45,-796.14 66.97,-806.44 71.42,-796.83 64.45,-796.14"/>
</a>
</g>
</g>
<!-- Node21 -->
<g id="Node000021" class="node">
<title>Node21</title>
<g id="a_Node000021"><a xlink:href="structdi_1_1meta_1_1detail_1_1RemoveFunctionQualifiersHelper_3_01R_07Args_8_8_8_08_01volatile_01_6noexcept_01_4.html" target="_top" xlink:title=" ">
<polygon fill="white" stroke="#666666" points="347,-302.25 168.25,-302.25 168.25,-256 347,-256 347,-302.25"/>
<text text-anchor="start" x="176.25" y="-288.75" font-family="Helvetica,sans-Serif" font-size="10.00">di::meta::detail::Remove</text>
<text text-anchor="start" x="176.25" y="-276" font-family="Helvetica,sans-Serif" font-size="10.00">FunctionQualifiersHelper</text>
<text text-anchor="middle" x="257.62" y="-263.25" font-family="Helvetica,sans-Serif" font-size="10.00">&lt; R(Args...) volatile &amp;noexcept &gt;</text>
</a>
</g>
</g>
<!-- Node0&#45;&gt;Node21 -->
<g id="edge551_Node000000_Node000021" class="edge">
<title>Node0&#45;&gt;Node21</title>
<g id="a_edge551_Node000000_Node000021"><a xlink:title=" ">
<path fill="none" stroke="#63b8ff" d="M67.08,-796.55C73.82,-699.63 100.31,-385.26 164.5,-311.12 167.27,-307.92 170.38,-305.04 173.73,-302.45"/>
<polygon fill="#63b8ff" stroke="#63b8ff" points="63.59,-796.28 66.4,-806.5 70.57,-796.76 63.59,-796.28"/>
</a>
</g>
</g>
<!-- Node22 -->
<g id="Node000022" class="node">
<title>Node22</title>
<g id="a_Node000022"><a xlink:href="structdi_1_1meta_1_1detail_1_1RemoveFunctionQualifiersHelper_3_01R_07Args_8_8_8_08_01volatile_01_4.html" target="_top" xlink:title=" ">
<polygon fill="white" stroke="#666666" points="326,-238.25 189.25,-238.25 189.25,-192 326,-192 326,-238.25"/>
<text text-anchor="start" x="197.25" y="-224.75" font-family="Helvetica,sans-Serif" font-size="10.00">di::meta::detail::Remove</text>
<text text-anchor="start" x="197.25" y="-212" font-family="Helvetica,sans-Serif" font-size="10.00">FunctionQualifiersHelper</text>
<text text-anchor="middle" x="257.62" y="-199.25" font-family="Helvetica,sans-Serif" font-size="10.00">&lt; R(Args...) volatile &gt;</text>
</a>
</g>
</g>
<!-- Node0&#45;&gt;Node22 -->
<g id="edge552_Node000000_Node000022" class="edge">
<title>Node0&#45;&gt;Node22</title>
<g id="a_edge552_Node000000_Node000022"><a xlink:title=" ">
<path fill="none" stroke="#63b8ff" d="M66.41,-796.49C71.19,-691.83 92.68,-331.82 164.5,-247.12 171.07,-239.38 179.62,-233.5 188.86,-229.05"/>
<polygon fill="#63b8ff" stroke="#63b8ff" points="62.91,-796.29 65.97,-806.43 69.91,-796.6 62.91,-796.29"/>
</a>
</g>
</g>
<!-- Node23 -->
<g id="Node000023" class="node">
<title>Node23</title>
<g id="a_Node000023"><a xlink:href="structdi_1_1meta_1_1detail_1_1RemoveFunctionQualifiersHelper_3_01R_07Args_8_8_8_08_01volatile_01noexcept_01_4.html" target="_top" xlink:title=" ">
<polygon fill="white" stroke="#666666" points="343.25,-174.25 172,-174.25 172,-128 343.25,-128 343.25,-174.25"/>
<text text-anchor="start" x="180" y="-160.75" font-family="Helvetica,sans-Serif" font-size="10.00">di::meta::detail::Remove</text>
<text text-anchor="start" x="180" y="-148" font-family="Helvetica,sans-Serif" font-size="10.00">FunctionQualifiersHelper</text>
<text text-anchor="middle" x="257.62" y="-135.25" font-family="Helvetica,sans-Serif" font-size="10.00">&lt; R(Args...) volatile noexcept &gt;</text>
</a>
</g>
</g>
<!-- Node0&#45;&gt;Node23 -->
<g id="edge553_Node000000_Node000023" class="edge">
<title>Node0&#45;&gt;Node23</title>
<g id="a_edge553_Node000000_Node000023"><a xlink:title=" ">
<path fill="none" stroke="#63b8ff" d="M65.86,-796.63C68.82,-684.96 84.97,-278.52 164.5,-183.12 167.1,-180 170.03,-177.19 173.19,-174.64"/>
<polygon fill="#63b8ff" stroke="#63b8ff" points="62.37,-796.32 65.62,-806.4 69.37,-796.49 62.37,-796.32"/>
</a>
</g>
</g>
<!-- Node24 -->
<g id="Node000024" class="node">
<title>Node24</title>
<g id="a_Node000024"><a xlink:href="structdi_1_1meta_1_1detail_1_1RemoveFunctionQualifiersHelper_3_01R_07Args_8_8_8_08_6_01_4.html" target="_top" xlink:title=" ">
<polygon fill="white" stroke="#666666" points="326,-110.25 189.25,-110.25 189.25,-64 326,-64 326,-110.25"/>
<text text-anchor="start" x="197.25" y="-96.75" font-family="Helvetica,sans-Serif" font-size="10.00">di::meta::detail::Remove</text>
<text text-anchor="start" x="197.25" y="-84" font-family="Helvetica,sans-Serif" font-size="10.00">FunctionQualifiersHelper</text>
<text text-anchor="middle" x="257.62" y="-71.25" font-family="Helvetica,sans-Serif" font-size="10.00">&lt; R(Args...)&amp; &gt;</text>
</a>
</g>
</g>
<!-- Node0&#45;&gt;Node24 -->
<g id="edge554_Node000000_Node000024" class="edge">
<title>Node0&#45;&gt;Node24</title>
<g id="a_edge554_Node000000_Node000024"><a xlink:title=" ">
<path fill="none" stroke="#63b8ff" d="M65.42,-796.91C66.67,-678.8 77.2,-225.32 164.5,-119.12 171.06,-111.15 179.72,-105.15 189.12,-100.65"/>
<polygon fill="#63b8ff" stroke="#63b8ff" points="61.92,-796.61 65.33,-806.65 68.92,-796.68 61.92,-796.61"/>
</a>
</g>
</g>
<!-- Node25 -->
<g id="Node000025" class="node">
<title>Node25</title>
<g id="a_Node000025"><a xlink:href="structdi_1_1meta_1_1detail_1_1RemoveFunctionQualifiersHelper_3_01R_07Args_8_8_8_08_4.html" target="_top" xlink:title=" ">
<polygon fill="white" stroke="#666666" points="326,-46.25 189.25,-46.25 189.25,0 326,0 326,-46.25"/>
<text text-anchor="start" x="197.25" y="-32.75" font-family="Helvetica,sans-Serif" font-size="10.00">di::meta::detail::Remove</text>
<text text-anchor="start" x="197.25" y="-20" font-family="Helvetica,sans-Serif" font-size="10.00">FunctionQualifiersHelper</text>
<text text-anchor="middle" x="257.62" y="-7.25" font-family="Helvetica,sans-Serif" font-size="10.00">&lt; R(Args...)&gt;</text>
</a>
</g>
</g>
<!-- Node0&#45;&gt;Node25 -->
<g id="edge555_Node000000_Node000025" class="edge">
<title>Node0&#45;&gt;Node25</title>
<g id="a_edge555_Node000000_Node000025"><a xlink:title=" ">
<path fill="none" stroke="#63b8ff" d="M65.05,-796.79C64.73,-671.96 69.49,-172.05 164.5,-55.12 171.01,-47.11 179.65,-41.1 189.04,-36.59"/>
<polygon fill="#63b8ff" stroke="#63b8ff" points="61.55,-796.49 65.09,-806.47 68.55,-796.46 61.55,-796.49"/>
</a>
</g>
</g>
</g>
</svg>
