<?xml version="1.0" encoding="UTF-8" standalone="no"?>
<!DOCTYPE svg PUBLIC "-//W3C//DTD SVG 1.1//EN"
 "http://www.w3.org/Graphics/SVG/1.1/DTD/svg11.dtd">
<!-- Generated by graphviz version 10.0.1 (0)
 -->
<!-- Title: Graphical Class Hierarchy Pages: 1 -->
<svg width="331pt" height="80pt"
 viewBox="0.00 0.00 331.00 80.12" xmlns="http://www.w3.org/2000/svg" xmlns:xlink="http://www.w3.org/1999/xlink">
<g id="graph0" class="graph" transform="scale(1 1) rotate(0) translate(4 76.12)">
<title>Graphical Class Hierarchy</title>
<!-- Node0 -->
<g id="Node000000" class="node">
<title>Node0</title>
<g id="a_Node000000"><a xlink:title=" ">
<polygon fill="#e0e0e0" stroke="#999999" points="102.25,-49.12 0,-49.12 0,-28.38 102.25,-28.38 102.25,-49.12"/>
<text text-anchor="middle" x="51.12" y="-35.62" font-family="Helvetica,sans-Serif" font-size="10.00">di::meta::detail::F</text>
</a>
</g>
</g>
<!-- Node1 -->
<g id="Node000001" class="node">
<title>Node1</title>
<g id="a_Node000001"><a xlink:href="structdi_1_1meta_1_1detail_1_1ChainHelper_3_01F_01_4.html" target="_top" xlink:title=" ">
<polygon fill="white" stroke="#666666" points="323,-72.12 138.25,-72.12 138.25,-51.38 323,-51.38 323,-72.12"/>
<text text-anchor="middle" x="230.62" y="-58.62" font-family="Helvetica,sans-Serif" font-size="10.00">di::meta::detail::ChainHelper&lt; F &gt;</text>
</a>
</g>
</g>
<!-- Node0&#45;&gt;Node1 -->
<g id="edge461_Node000000_Node000001" class="edge">
<title>Node0&#45;&gt;Node1</title>
<g id="a_edge461_Node000000_Node000001"><a xlink:title=" ">
<path fill="none" stroke="#63b8ff" d="M113.91,-46.76C124.23,-48.09 135.1,-49.5 145.86,-50.9"/>
<polygon fill="#63b8ff" stroke="#63b8ff" points="114.38,-43.29 104.02,-45.47 113.48,-50.23 114.38,-43.29"/>
</a>
</g>
</g>
<!-- Node2 -->
<g id="Node000002" class="node">
<title>Node2</title>
<g id="a_Node000002"><a xlink:href="structdi_1_1meta_1_1detail_1_1ComposeHelper_3_01F_01_4.html" target="_top" xlink:title=" ">
<polygon fill="white" stroke="#666666" points="301.62,-33.5 159.62,-33.5 159.62,0 301.62,0 301.62,-33.5"/>
<text text-anchor="start" x="167.62" y="-20" font-family="Helvetica,sans-Serif" font-size="10.00">di::meta::detail::Compose</text>
<text text-anchor="middle" x="230.62" y="-7.25" font-family="Helvetica,sans-Serif" font-size="10.00">Helper&lt; F &gt;</text>
</a>
</g>
</g>
<!-- Node0&#45;&gt;Node2 -->
<g id="edge462_Node000000_Node000002" class="edge">
<title>Node0&#45;&gt;Node2</title>
<g id="a_edge462_Node000000_Node000002"><a xlink:title=" ">
<path fill="none" stroke="#63b8ff" d="M113.54,-31.14C128.27,-29.31 144.12,-27.35 159.23,-25.47"/>
<polygon fill="#63b8ff" stroke="#63b8ff" points="113.51,-27.61 104.02,-32.32 114.37,-34.56 113.51,-27.61"/>
</a>
</g>
</g>
</g>
</svg>
