<?xml version="1.0" encoding="UTF-8" standalone="no"?>
<!DOCTYPE svg PUBLIC "-//W3C//DTD SVG 1.1//EN"
 "http://www.w3.org/Graphics/SVG/1.1/DTD/svg11.dtd">
<!-- Generated by graphviz version 10.0.1 (0)
 -->
<!-- Title: Graphical Class Hierarchy Pages: 1 -->
<svg width="213pt" height="107pt"
 viewBox="0.00 0.00 212.50 106.75" xmlns="http://www.w3.org/2000/svg" xmlns:xlink="http://www.w3.org/1999/xlink">
<g id="graph0" class="graph" transform="scale(1 1) rotate(0) translate(4 102.75)">
<title>Graphical Class Hierarchy</title>
<!-- Node0 -->
<g id="Node000000" class="node">
<title>Node0</title>
<g id="a_Node000000"><a xlink:title=" ">
<polygon fill="#e0e0e0" stroke="#999999" points="68.5,-59.75 0,-59.75 0,-39 68.5,-39 68.5,-59.75"/>
<text text-anchor="middle" x="34.25" y="-46.25" font-family="Helvetica,sans-Serif" font-size="10.00">Dispatcher</text>
</a>
</g>
</g>
<!-- Node1 -->
<g id="Node000001" class="node">
<title>Node1</title>
<g id="a_Node000001"><a xlink:href="structdi_1_1io_1_1Flush.html" target="_top" xlink:title=" ">
<polygon fill="white" stroke="#666666" points="190.62,-98.75 118.38,-98.75 118.38,-78 190.62,-78 190.62,-98.75"/>
<text text-anchor="middle" x="154.5" y="-85.25" font-family="Helvetica,sans-Serif" font-size="10.00">di::io::Flush</text>
</a>
</g>
</g>
<!-- Node0&#45;&gt;Node1 -->
<g id="edge884_Node000000_Node000001" class="edge">
<title>Node0&#45;&gt;Node1</title>
<g id="a_edge884_Node000000_Node000001"><a xlink:title=" ">
<path fill="none" stroke="#63b8ff" d="M78.95,-63.79C92.78,-68.35 107.82,-73.31 120.74,-77.57"/>
<polygon fill="#63b8ff" stroke="#63b8ff" points="80.22,-60.52 69.63,-60.71 78.03,-67.17 80.22,-60.52"/>
</a>
</g>
</g>
<!-- Node2 -->
<g id="Node000002" class="node">
<title>Node2</title>
<g id="a_Node000002"><a xlink:href="structdi_1_1io_1_1ReadSome.html" target="_top" xlink:title=" ">
<polygon fill="white" stroke="#666666" points="203.75,-59.75 105.25,-59.75 105.25,-39 203.75,-39 203.75,-59.75"/>
<text text-anchor="middle" x="154.5" y="-46.25" font-family="Helvetica,sans-Serif" font-size="10.00">di::io::ReadSome</text>
</a>
</g>
</g>
<!-- Node0&#45;&gt;Node2 -->
<g id="edge885_Node000000_Node000002" class="edge">
<title>Node0&#45;&gt;Node2</title>
<g id="a_edge885_Node000000_Node000002"><a xlink:title=" ">
<path fill="none" stroke="#63b8ff" d="M80.26,-49.38C88.29,-49.38 96.7,-49.38 104.84,-49.38"/>
<polygon fill="#63b8ff" stroke="#63b8ff" points="80.33,-45.88 70.33,-49.38 80.33,-52.88 80.33,-45.88"/>
</a>
</g>
</g>
<!-- Node3 -->
<g id="Node000003" class="node">
<title>Node3</title>
<g id="a_Node000003"><a xlink:href="structdi_1_1io_1_1WriteSome.html" target="_top" xlink:title=" ">
<polygon fill="white" stroke="#666666" points="204.5,-20.75 104.5,-20.75 104.5,0 204.5,0 204.5,-20.75"/>
<text text-anchor="middle" x="154.5" y="-7.25" font-family="Helvetica,sans-Serif" font-size="10.00">di::io::WriteSome</text>
</a>
</g>
</g>
<!-- Node0&#45;&gt;Node3 -->
<g id="edge886_Node000000_Node000003" class="edge">
<title>Node0&#45;&gt;Node3</title>
<g id="a_edge886_Node000000_Node000003"><a xlink:title=" ">
<path fill="none" stroke="#63b8ff" d="M78.95,-34.96C92.78,-30.4 107.82,-25.44 120.74,-21.18"/>
<polygon fill="#63b8ff" stroke="#63b8ff" points="78.03,-31.58 69.63,-38.04 80.22,-38.23 78.03,-31.58"/>
</a>
</g>
</g>
</g>
</svg>
