<?xml version="1.0" encoding="UTF-8" standalone="no"?>
<!DOCTYPE svg PUBLIC "-//W3C//DTD SVG 1.1//EN"
 "http://www.w3.org/Graphics/SVG/1.1/DTD/svg11.dtd">
<!-- Generated by graphviz version 10.0.1 (0)
 -->
<!-- Title: Graphical Class Hierarchy Pages: 1 -->
<svg width="256pt" height="146pt"
 viewBox="0.00 0.00 256.00 145.50" xmlns="http://www.w3.org/2000/svg" xmlns:xlink="http://www.w3.org/1999/xlink">
<g id="graph0" class="graph" transform="scale(1 1) rotate(0) translate(4 141.5)">
<title>Graphical Class Hierarchy</title>
<!-- Node0 -->
<g id="Node000000" class="node">
<title>Node0</title>
<g id="a_Node000000"><a xlink:href="structdi_1_1bit_1_1BitField.html" target="_top" xlink:title=" ">
<polygon fill="white" stroke="#666666" points="94.75,-85.5 0,-85.5 0,-52 94.75,-52 94.75,-85.5"/>
<text text-anchor="start" x="8" y="-72" font-family="Helvetica,sans-Serif" font-size="10.00">di::bit::BitField&lt;</text>
<text text-anchor="middle" x="47.38" y="-59.25" font-family="Helvetica,sans-Serif" font-size="10.00"> 16, 16 &gt;</text>
</a>
</g>
</g>
<!-- Node1 -->
<g id="Node000001" class="node">
<title>Node1</title>
<g id="a_Node000001"><a xlink:href="structiris_1_1x86_1_1amd64_1_1idt_1_1SegmentSelector.html" target="_top" xlink:title=" ">
<polygon fill="white" stroke="#666666" points="246.12,-137.5 132.62,-137.5 132.62,-104 246.12,-104 246.12,-137.5"/>
<text text-anchor="start" x="140.62" y="-124" font-family="Helvetica,sans-Serif" font-size="10.00">iris::x86::amd64::idt</text>
<text text-anchor="middle" x="189.38" y="-111.25" font-family="Helvetica,sans-Serif" font-size="10.00">::SegmentSelector</text>
</a>
</g>
</g>
<!-- Node0&#45;&gt;Node1 -->
<g id="edge25_Node000000_Node000001" class="edge">
<title>Node0&#45;&gt;Node1</title>
<g id="a_edge25_Node000000_Node000001"><a xlink:title=" ">
<path fill="none" stroke="#63b8ff" d="M105.22,-89.86C117.52,-94.43 130.37,-99.21 142.19,-103.6"/>
<polygon fill="#63b8ff" stroke="#63b8ff" points="106.62,-86.65 96.02,-86.45 104.18,-93.21 106.62,-86.65"/>
</a>
</g>
</g>
<!-- Node2 -->
<g id="Node000002" class="node">
<title>Node2</title>
<g id="a_Node000002"><a xlink:href="structiris_1_1x86_1_1amd64_1_1sd_1_1BaseLow.html" target="_top" xlink:title=" ">
<polygon fill="white" stroke="#666666" points="245.38,-85.5 133.38,-85.5 133.38,-52 245.38,-52 245.38,-85.5"/>
<text text-anchor="start" x="141.38" y="-72" font-family="Helvetica,sans-Serif" font-size="10.00">iris::x86::amd64::sd</text>
<text text-anchor="middle" x="189.38" y="-59.25" font-family="Helvetica,sans-Serif" font-size="10.00">::BaseLow</text>
</a>
</g>
</g>
<!-- Node0&#45;&gt;Node2 -->
<g id="edge26_Node000000_Node000002" class="edge">
<title>Node0&#45;&gt;Node2</title>
<g id="a_edge26_Node000000_Node000002"><a xlink:title=" ">
<path fill="none" stroke="#63b8ff" d="M106.44,-68.75C115.3,-68.75 124.43,-68.75 133.22,-68.75"/>
<polygon fill="#63b8ff" stroke="#63b8ff" points="106.51,-65.25 96.51,-68.75 106.51,-72.25 106.51,-65.25"/>
</a>
</g>
</g>
<!-- Node3 -->
<g id="Node000003" class="node">
<title>Node3</title>
<g id="a_Node000003"><a xlink:href="structiris_1_1x86_1_1amd64_1_1ssd_1_1BaseLow.html" target="_top" xlink:title=" ">
<polygon fill="white" stroke="#666666" points="248,-33.5 130.75,-33.5 130.75,0 248,0 248,-33.5"/>
<text text-anchor="start" x="138.75" y="-20" font-family="Helvetica,sans-Serif" font-size="10.00">iris::x86::amd64::ssd</text>
<text text-anchor="middle" x="189.38" y="-7.25" font-family="Helvetica,sans-Serif" font-size="10.00">::BaseLow</text>
</a>
</g>
</g>
<!-- Node0&#45;&gt;Node3 -->
<g id="edge27_Node000000_Node000003" class="edge">
<title>Node0&#45;&gt;Node3</title>
<g id="a_edge27_Node000000_Node000003"><a xlink:title=" ">
<path fill="none" stroke="#63b8ff" d="M105.22,-47.64C117.52,-43.07 130.37,-38.29 142.19,-33.9"/>
<polygon fill="#63b8ff" stroke="#63b8ff" points="104.18,-44.29 96.02,-51.05 106.62,-50.85 104.18,-44.29"/>
</a>
</g>
</g>
</g>
</svg>
