<?xml version="1.0" encoding="UTF-8" standalone="no"?>
<!DOCTYPE svg PUBLIC "-//W3C//DTD SVG 1.1//EN"
 "http://www.w3.org/Graphics/SVG/1.1/DTD/svg11.dtd">
<!-- Generated by graphviz version 10.0.1 (0)
 -->
<!-- Title: Graphical Class Hierarchy Pages: 1 -->
<svg width="359pt" height="196pt"
 viewBox="0.00 0.00 358.75 196.00" xmlns="http://www.w3.org/2000/svg" xmlns:xlink="http://www.w3.org/1999/xlink">
<g id="graph0" class="graph" transform="scale(1 1) rotate(0) translate(4 192)">
<title>Graphical Class Hierarchy</title>
<!-- Node0 -->
<g id="Node000000" class="node">
<title>Node0</title>
<g id="a_Node000000"><a xlink:href="classdi_1_1meta_1_1EnableBorrowedContainer.html" target="_top" xlink:title=" ">
<polygon fill="white" stroke="#666666" points="167.5,-188 0,-188 0,-141.75 167.5,-141.75 167.5,-188"/>
<text text-anchor="start" x="8" y="-174.5" font-family="Helvetica,sans-Serif" font-size="10.00">di::meta::EnableBorrowed</text>
<text text-anchor="start" x="8" y="-161.75" font-family="Helvetica,sans-Serif" font-size="10.00">Container&lt; RecursiveDirectory</text>
<text text-anchor="middle" x="83.75" y="-149" font-family="Helvetica,sans-Serif" font-size="10.00">Iterator &gt;</text>
</a>
</g>
</g>
<!-- Node1 -->
<g id="Node000001" class="node">
<title>Node1</title>
<g id="a_Node000001"><a xlink:href="classdius_1_1filesystem_1_1RecursiveDirectoryIterator.html" target="_top" xlink:title=" ">
<polygon fill="white" stroke="#666666" points="350.75,-123.62 203.5,-123.62 203.5,-90.12 350.75,-90.12 350.75,-123.62"/>
<text text-anchor="start" x="211.5" y="-110.12" font-family="Helvetica,sans-Serif" font-size="10.00">dius::filesystem::Recursive</text>
<text text-anchor="middle" x="277.12" y="-97.38" font-family="Helvetica,sans-Serif" font-size="10.00">DirectoryIterator</text>
</a>
</g>
</g>
<!-- Node0&#45;&gt;Node1 -->
<g id="edge471_Node000000_Node000001" class="edge">
<title>Node0&#45;&gt;Node1</title>
<g id="a_edge471_Node000000_Node000001"><a xlink:title=" ">
<path fill="none" stroke="#63b8ff" d="M173.38,-138.01C189.06,-133.26 204.99,-128.43 219.48,-124.04"/>
<polygon fill="#63b8ff" stroke="#63b8ff" points="172.59,-134.6 164.04,-140.85 174.62,-141.29 172.59,-134.6"/>
</a>
</g>
</g>
<!-- Node2 -->
<g id="Node000002" class="node">
<title>Node2</title>
<g id="a_Node000002"><a xlink:href="classdi_1_1meta_1_1EnableView.html" target="_top" xlink:title=" ">
<polygon fill="white" stroke="#666666" points="167.5,-123.62 0,-123.62 0,-90.12 167.5,-90.12 167.5,-123.62"/>
<text text-anchor="start" x="8" y="-110.12" font-family="Helvetica,sans-Serif" font-size="10.00">di::meta::EnableView</text>
<text text-anchor="middle" x="83.75" y="-97.38" font-family="Helvetica,sans-Serif" font-size="10.00">&lt; RecursiveDirectoryIterator &gt;</text>
</a>
</g>
</g>
<!-- Node2&#45;&gt;Node1 -->
<g id="edge472_Node000002_Node000001" class="edge">
<title>Node2&#45;&gt;Node1</title>
<g id="a_edge472_Node000002_Node000001"><a xlink:title=" ">
<path fill="none" stroke="#63b8ff" d="M179.15,-106.88C187.17,-106.88 195.2,-106.88 203.01,-106.88"/>
<polygon fill="#63b8ff" stroke="#63b8ff" points="179.37,-103.38 169.37,-106.88 179.37,-110.38 179.37,-103.38"/>
</a>
</g>
</g>
<!-- Node3 -->
<g id="Node000003" class="node">
<title>Node3</title>
<g id="a_Node000003"><a xlink:href="structdi_1_1container_1_1IteratorBase.html" target="_top" xlink:title=" ">
<polygon fill="white" stroke="#666666" points="163.38,-71.75 4.12,-71.75 4.12,0 163.38,0 163.38,-71.75"/>
<text text-anchor="start" x="12.12" y="-58.25" font-family="Helvetica,sans-Serif" font-size="10.00">di::container::IteratorBase</text>
<text text-anchor="start" x="12.12" y="-45.5" font-family="Helvetica,sans-Serif" font-size="10.00">&lt; RecursiveDirectoryIterator,</text>
<text text-anchor="start" x="12.12" y="-32.75" font-family="Helvetica,sans-Serif" font-size="10.00"> di::InputIteratorTag, di::</text>
<text text-anchor="start" x="12.12" y="-20" font-family="Helvetica,sans-Serif" font-size="10.00">Expected&lt; DirectoryEntry, di</text>
<text text-anchor="middle" x="83.75" y="-7.25" font-family="Helvetica,sans-Serif" font-size="10.00">::GenericCode &gt;, i64 &gt;</text>
</a>
</g>
</g>
<!-- Node3&#45;&gt;Node1 -->
<g id="edge473_Node000003_Node000001" class="edge">
<title>Node3&#45;&gt;Node1</title>
<g id="a_edge473_Node000003_Node000001"><a xlink:title=" ">
<path fill="none" stroke="#63b8ff" d="M174.29,-69.09C193.46,-76.2 212.95,-83.44 229.69,-89.65"/>
<polygon fill="#63b8ff" stroke="#63b8ff" points="175.71,-65.89 165.11,-65.69 173.27,-72.45 175.71,-65.89"/>
</a>
</g>
</g>
</g>
</svg>
