<?xml version="1.0" encoding="UTF-8" standalone="no"?>
<!DOCTYPE svg PUBLIC "-//W3C//DTD SVG 1.1//EN"
 "http://www.w3.org/Graphics/SVG/1.1/DTD/svg11.dtd">
<!-- Generated by graphviz version 10.0.1 (0)
 -->
<!-- Title: Graphical Class Hierarchy Pages: 1 -->
<svg width="565pt" height="608pt"
 viewBox="0.00 0.00 565.25 608.25" xmlns="http://www.w3.org/2000/svg" xmlns:xlink="http://www.w3.org/1999/xlink">
<g id="graph0" class="graph" transform="scale(1 1) rotate(0) translate(4 604.25)">
<title>Graphical Class Hierarchy</title>
<!-- Node0 -->
<g id="Node000000" class="node">
<title>Node0</title>
<g id="a_Node000000"><a xlink:href="structdi_1_1container_1_1IntrusiveTagBase.html" target="_top" xlink:title=" ">
<polygon fill="white" stroke="#666666" points="127,-338.88 0,-338.88 0,-305.38 127,-305.38 127,-338.88"/>
<text text-anchor="start" x="8" y="-325.38" font-family="Helvetica,sans-Serif" font-size="10.00">di::container::Intrusive</text>
<text text-anchor="middle" x="63.5" y="-312.62" font-family="Helvetica,sans-Serif" font-size="10.00">TagBase&lt; NodeType &gt;</text>
</a>
</g>
</g>
<!-- Node1 -->
<g id="Node000001" class="node">
<title>Node1</title>
<g id="a_Node000001"><a xlink:href="structdi_1_1container_1_1IntrusiveForwardListTag.html" target="_top" xlink:title=" ">
<polygon fill="white" stroke="#666666" points="350.75,-600.25 172,-600.25 172,-554 350.75,-554 350.75,-600.25"/>
<text text-anchor="start" x="180" y="-586.75" font-family="Helvetica,sans-Serif" font-size="10.00">di::container::Intrusive</text>
<text text-anchor="start" x="180" y="-574" font-family="Helvetica,sans-Serif" font-size="10.00">ForwardListTag&lt; DefaultIntrusive</text>
<text text-anchor="middle" x="261.38" y="-561.25" font-family="Helvetica,sans-Serif" font-size="10.00">ForwardListTag &gt;</text>
</a>
</g>
</g>
<!-- Node0&#45;&gt;Node1 -->
<g id="edge178_Node000000_Node000001" class="edge">
<title>Node0&#45;&gt;Node1</title>
<g id="a_edge178_Node000000_Node000001"><a xlink:title=" ">
<path fill="none" stroke="#63b8ff" d="M69.3,-350.26C78.77,-397.28 104.29,-491.92 163,-545.12 166.43,-548.23 170.17,-551.04 174.11,-553.57"/>
<polygon fill="#63b8ff" stroke="#63b8ff" points="72.77,-349.77 67.46,-340.6 65.89,-351.08 72.77,-349.77"/>
</a>
</g>
</g>
<!-- Node3 -->
<g id="Node000003" class="node">
<title>Node3</title>
<g id="a_Node000003"><a xlink:href="structdi_1_1container_1_1IntrusiveForwardListTag.html" target="_top" xlink:title=" ">
<polygon fill="white" stroke="#666666" points="350.75,-536.25 172,-536.25 172,-490 350.75,-490 350.75,-536.25"/>
<text text-anchor="start" x="180" y="-522.75" font-family="Helvetica,sans-Serif" font-size="10.00">di::container::Intrusive</text>
<text text-anchor="start" x="180" y="-510" font-family="Helvetica,sans-Serif" font-size="10.00">ForwardListTag&lt; DefaultIntrusive</text>
<text text-anchor="middle" x="261.38" y="-497.25" font-family="Helvetica,sans-Serif" font-size="10.00">HashSetTag &gt;</text>
</a>
</g>
</g>
<!-- Node0&#45;&gt;Node3 -->
<g id="edge180_Node000000_Node000003" class="edge">
<title>Node0&#45;&gt;Node3</title>
<g id="a_edge180_Node000000_Node000003"><a xlink:title=" ">
<path fill="none" stroke="#63b8ff" d="M74.64,-349.77C89,-385.18 118.56,-446.15 163,-481.12 166.92,-484.21 171.14,-487 175.56,-489.52"/>
<polygon fill="#63b8ff" stroke="#63b8ff" points="77.97,-348.67 71.07,-340.64 71.45,-351.23 77.97,-348.67"/>
</a>
</g>
</g>
<!-- Node4 -->
<g id="Node000004" class="node">
<title>Node4</title>
<g id="a_Node000004"><a xlink:href="structdi_1_1container_1_1IntrusiveForwardListTag.html" target="_top" xlink:title=" ">
<polygon fill="white" stroke="#666666" points="359.75,-471.88 163,-471.88 163,-438.38 359.75,-438.38 359.75,-471.88"/>
<text text-anchor="start" x="171" y="-458.38" font-family="Helvetica,sans-Serif" font-size="10.00">di::container::Intrusive</text>
<text text-anchor="middle" x="261.38" y="-445.62" font-family="Helvetica,sans-Serif" font-size="10.00">ForwardListTag&lt; InternalObjectTag &gt;</text>
</a>
</g>
</g>
<!-- Node0&#45;&gt;Node4 -->
<g id="edge181_Node000000_Node000004" class="edge">
<title>Node0&#45;&gt;Node4</title>
<g id="a_edge181_Node000000_Node000004"><a xlink:title=" ">
<path fill="none" stroke="#63b8ff" d="M81.97,-348.4C99.59,-372.87 129.01,-408.57 163,-429.12 168.54,-432.47 174.51,-435.4 180.68,-437.95"/>
<polygon fill="#63b8ff" stroke="#63b8ff" points="84.85,-346.41 76.25,-340.23 79.12,-350.43 84.85,-346.41"/>
</a>
</g>
</g>
<!-- Node5 -->
<g id="Node000005" class="node">
<title>Node5</title>
<g id="a_Node000005"><a xlink:href="structdi_1_1container_1_1IntrusiveListTag.html" target="_top" xlink:title=" ">
<polygon fill="white" stroke="#666666" points="353.75,-419.88 169,-419.88 169,-386.38 353.75,-386.38 353.75,-419.88"/>
<text text-anchor="start" x="177" y="-406.38" font-family="Helvetica,sans-Serif" font-size="10.00">di::container::Intrusive</text>
<text text-anchor="middle" x="261.38" y="-393.62" font-family="Helvetica,sans-Serif" font-size="10.00">ListTag&lt; DefaultIntrusiveListTag &gt;</text>
</a>
</g>
</g>
<!-- Node0&#45;&gt;Node5 -->
<g id="edge182_Node000000_Node000005" class="edge">
<title>Node0&#45;&gt;Node5</title>
<g id="a_edge182_Node000000_Node000005"><a xlink:title=" ">
<path fill="none" stroke="#63b8ff" d="M100.39,-345.01C118.61,-355.88 141.41,-368.37 163,-377.12 170.95,-380.35 179.42,-383.29 187.92,-385.94"/>
<polygon fill="#63b8ff" stroke="#63b8ff" points="102.44,-342.15 92.07,-339.96 98.8,-348.14 102.44,-342.15"/>
</a>
</g>
</g>
<!-- Node7 -->
<g id="Node000007" class="node">
<title>Node7</title>
<g id="a_Node000007"><a xlink:href="structdi_1_1container_1_1IntrusiveListTag.html" target="_top" xlink:title=" ">
<polygon fill="white" stroke="#666666" points="324.12,-367.88 198.62,-367.88 198.62,-334.38 324.12,-334.38 324.12,-367.88"/>
<text text-anchor="start" x="206.62" y="-354.38" font-family="Helvetica,sans-Serif" font-size="10.00">di::container::Intrusive</text>
<text text-anchor="middle" x="261.38" y="-341.62" font-family="Helvetica,sans-Serif" font-size="10.00">ListTag&lt; SizedTag &gt;</text>
</a>
</g>
</g>
<!-- Node0&#45;&gt;Node7 -->
<g id="edge184_Node000000_Node000007" class="edge">
<title>Node0&#45;&gt;Node7</title>
<g id="a_edge184_Node000000_Node000007"><a xlink:title=" ">
<path fill="none" stroke="#63b8ff" d="M138.67,-333.11C158.33,-336.02 179.34,-339.13 198.28,-341.93"/>
<polygon fill="#63b8ff" stroke="#63b8ff" points="139.19,-329.64 128.78,-331.64 138.16,-336.57 139.19,-329.64"/>
</a>
</g>
</g>
<!-- Node8 -->
<g id="Node000008" class="node">
<title>Node8</title>
<g id="a_Node000008"><a xlink:href="structdi_1_1container_1_1IntrusiveTreeSetTag.html" target="_top" xlink:title=" ">
<polygon fill="white" stroke="#666666" points="340.62,-316.25 182.12,-316.25 182.12,-270 340.62,-270 340.62,-316.25"/>
<text text-anchor="start" x="190.12" y="-302.75" font-family="Helvetica,sans-Serif" font-size="10.00">di::container::Intrusive</text>
<text text-anchor="start" x="190.12" y="-290" font-family="Helvetica,sans-Serif" font-size="10.00">TreeSetTag&lt; DefaultIntrusive</text>
<text text-anchor="middle" x="261.38" y="-277.25" font-family="Helvetica,sans-Serif" font-size="10.00">TreeSetTag &gt;</text>
</a>
</g>
</g>
<!-- Node0&#45;&gt;Node8 -->
<g id="edge185_Node000000_Node000008" class="edge">
<title>Node0&#45;&gt;Node8</title>
<g id="a_edge185_Node000000_Node000008"><a xlink:title=" ">
<path fill="none" stroke="#63b8ff" d="M138.46,-311.17C152.62,-309.08 167.49,-306.88 181.79,-304.76"/>
<polygon fill="#63b8ff" stroke="#63b8ff" points="138.16,-307.68 128.78,-312.61 139.19,-314.61 138.16,-307.68"/>
</a>
</g>
</g>
<!-- Node10 -->
<g id="Node000010" class="node">
<title>Node10</title>
<g id="a_Node000010"><a xlink:href="structdi_1_1container_1_1OwningHashNodeTag.html" target="_top" xlink:title=" ">
<polygon fill="white" stroke="#666666" points="339.88,-251.62 182.88,-251.62 182.88,-192.62 339.88,-192.62 339.88,-251.62"/>
<text text-anchor="start" x="190.88" y="-238.12" font-family="Helvetica,sans-Serif" font-size="10.00">di::container::OwningHash</text>
<text text-anchor="start" x="190.88" y="-225.38" font-family="Helvetica,sans-Serif" font-size="10.00">NodeTag&lt; NodeHashMapTag</text>
<text text-anchor="start" x="190.88" y="-212.62" font-family="Helvetica,sans-Serif" font-size="10.00">&lt; Key, Value &gt;, Tuple&lt; Key,</text>
<text text-anchor="middle" x="261.38" y="-199.88" font-family="Helvetica,sans-Serif" font-size="10.00"> Value &gt; &gt;</text>
</a>
</g>
</g>
<!-- Node0&#45;&gt;Node10 -->
<g id="edge187_Node000000_Node000010" class="edge">
<title>Node0&#45;&gt;Node10</title>
<g id="a_edge187_Node000000_Node000010"><a xlink:title=" ">
<path fill="none" stroke="#63b8ff" d="M98.79,-298.84C117.35,-286.78 140.93,-272.27 163,-261.12 169.26,-257.96 175.84,-254.87 182.5,-251.9"/>
<polygon fill="#63b8ff" stroke="#63b8ff" points="97.01,-295.83 90.58,-304.25 100.86,-301.68 97.01,-295.83"/>
</a>
</g>
</g>
<!-- Node12 -->
<g id="Node000012" class="node">
<title>Node12</title>
<g id="a_Node000012"><a xlink:href="structdi_1_1container_1_1OwningHashNodeTag.html" target="_top" xlink:title=" ">
<polygon fill="white" stroke="#666666" points="337.25,-174.25 185.5,-174.25 185.5,-128 337.25,-128 337.25,-174.25"/>
<text text-anchor="start" x="193.5" y="-160.75" font-family="Helvetica,sans-Serif" font-size="10.00">di::container::OwningHash</text>
<text text-anchor="start" x="193.5" y="-148" font-family="Helvetica,sans-Serif" font-size="10.00">NodeTag&lt; NodeHashSetTag</text>
<text text-anchor="middle" x="261.38" y="-135.25" font-family="Helvetica,sans-Serif" font-size="10.00">&lt; Value &gt;, Value &gt;</text>
</a>
</g>
</g>
<!-- Node0&#45;&gt;Node12 -->
<g id="edge189_Node000000_Node000012" class="edge">
<title>Node0&#45;&gt;Node12</title>
<g id="a_edge189_Node000000_Node000012"><a xlink:title=" ">
<path fill="none" stroke="#63b8ff" d="M77.29,-294.96C93.22,-263.93 123.26,-213.64 163,-184.12 169.74,-179.12 177.28,-174.85 185.11,-171.19"/>
<polygon fill="#63b8ff" stroke="#63b8ff" points="74.26,-293.21 72.93,-303.72 80.52,-296.33 74.26,-293.21"/>
</a>
</g>
</g>
<!-- Node14 -->
<g id="Node000014" class="node">
<title>Node14</title>
<g id="a_Node000014"><a xlink:href="structdi_1_1container_1_1OwningRBTreeTag.html" target="_top" xlink:title=" ">
<polygon fill="white" stroke="#666666" points="343.25,-110.25 179.5,-110.25 179.5,-64 343.25,-64 343.25,-110.25"/>
<text text-anchor="start" x="187.5" y="-96.75" font-family="Helvetica,sans-Serif" font-size="10.00">di::container::OwningRBTree</text>
<text text-anchor="start" x="187.5" y="-84" font-family="Helvetica,sans-Serif" font-size="10.00">Tag&lt; TreeMapTag&lt; Key, Value</text>
<text text-anchor="middle" x="261.38" y="-71.25" font-family="Helvetica,sans-Serif" font-size="10.00"> &gt;, Tuple&lt; Key, Value &gt; &gt;</text>
</a>
</g>
</g>
<!-- Node0&#45;&gt;Node14 -->
<g id="edge191_Node000000_Node000014" class="edge">
<title>Node0&#45;&gt;Node14</title>
<g id="a_edge191_Node000000_Node000014"><a xlink:title=" ">
<path fill="none" stroke="#63b8ff" d="M70.67,-294C81.69,-250.37 108.83,-166.47 163,-119.12 167.96,-114.79 173.52,-111.04 179.4,-107.8"/>
<polygon fill="#63b8ff" stroke="#63b8ff" points="67.34,-292.91 68.4,-303.45 74.14,-294.55 67.34,-292.91"/>
</a>
</g>
</g>
<!-- Node16 -->
<g id="Node000016" class="node">
<title>Node16</title>
<g id="a_Node000016"><a xlink:href="structdi_1_1container_1_1OwningRBTreeTag.html" target="_top" xlink:title=" ">
<polygon fill="white" stroke="#666666" points="338,-46.25 184.75,-46.25 184.75,0 338,0 338,-46.25"/>
<text text-anchor="start" x="192.75" y="-32.75" font-family="Helvetica,sans-Serif" font-size="10.00">di::container::OwningRBTree</text>
<text text-anchor="start" x="192.75" y="-20" font-family="Helvetica,sans-Serif" font-size="10.00">Tag&lt; TreeSetTag&lt; Value &gt;</text>
<text text-anchor="middle" x="261.38" y="-7.25" font-family="Helvetica,sans-Serif" font-size="10.00">, Value &gt;</text>
</a>
</g>
</g>
<!-- Node0&#45;&gt;Node16 -->
<g id="edge193_Node000000_Node000016" class="edge">
<title>Node0&#45;&gt;Node16</title>
<g id="a_edge193_Node000000_Node000016"><a xlink:title=" ">
<path fill="none" stroke="#63b8ff" d="M66.99,-293.58C73.24,-239.43 94.38,-121.32 163,-55.12 169.28,-49.07 176.72,-44.16 184.65,-40.18"/>
<polygon fill="#63b8ff" stroke="#63b8ff" points="63.52,-293.19 65.95,-303.51 70.48,-293.93 63.52,-293.19"/>
</a>
</g>
</g>
<!-- Node2 -->
<g id="Node000002" class="node">
<title>Node2</title>
<g id="a_Node000002"><a xlink:href="structdi_1_1container_1_1DefaultIntrusiveForwardListTag.html" target="_top" xlink:title=" ">
<polygon fill="white" stroke="#666666" points="557.25,-593.88 395.75,-593.88 395.75,-560.38 557.25,-560.38 557.25,-593.88"/>
<text text-anchor="start" x="403.75" y="-580.38" font-family="Helvetica,sans-Serif" font-size="10.00">di::container::DefaultIntrusive</text>
<text text-anchor="middle" x="476.5" y="-567.62" font-family="Helvetica,sans-Serif" font-size="10.00">ForwardListTag</text>
</a>
</g>
</g>
<!-- Node1&#45;&gt;Node2 -->
<g id="edge179_Node000001_Node000002" class="edge">
<title>Node1&#45;&gt;Node2</title>
<g id="a_edge179_Node000001_Node000002"><a xlink:title=" ">
<path fill="none" stroke="#63b8ff" d="M362.6,-577.12C373.56,-577.12 384.62,-577.12 395.31,-577.12"/>
<polygon fill="#63b8ff" stroke="#63b8ff" points="362.73,-573.63 352.73,-577.13 362.73,-580.63 362.73,-573.63"/>
</a>
</g>
</g>
<!-- Node6 -->
<g id="Node000006" class="node">
<title>Node6</title>
<g id="a_Node000006"><a xlink:href="structdi_1_1container_1_1DefaultIntrusiveListTag.html" target="_top" xlink:title=" ">
<polygon fill="white" stroke="#666666" points="557.25,-419.88 395.75,-419.88 395.75,-386.38 557.25,-386.38 557.25,-419.88"/>
<text text-anchor="start" x="403.75" y="-406.38" font-family="Helvetica,sans-Serif" font-size="10.00">di::container::DefaultIntrusive</text>
<text text-anchor="middle" x="476.5" y="-393.62" font-family="Helvetica,sans-Serif" font-size="10.00">ListTag</text>
</a>
</g>
</g>
<!-- Node5&#45;&gt;Node6 -->
<g id="edge183_Node000005_Node000006" class="edge">
<title>Node5&#45;&gt;Node6</title>
<g id="a_edge183_Node000005_Node000006"><a xlink:title=" ">
<path fill="none" stroke="#63b8ff" d="M365.34,-403.12C375.43,-403.12 385.55,-403.12 395.36,-403.12"/>
<polygon fill="#63b8ff" stroke="#63b8ff" points="365.51,-399.63 355.51,-403.13 365.51,-406.63 365.51,-399.63"/>
</a>
</g>
</g>
<!-- Node9 -->
<g id="Node000009" class="node">
<title>Node9</title>
<g id="a_Node000009"><a xlink:href="structdi_1_1container_1_1DefaultIntrusiveTreeSetTag.html" target="_top" xlink:title=" ">
<polygon fill="white" stroke="#666666" points="557.25,-309.88 395.75,-309.88 395.75,-276.38 557.25,-276.38 557.25,-309.88"/>
<text text-anchor="start" x="403.75" y="-296.38" font-family="Helvetica,sans-Serif" font-size="10.00">di::container::DefaultIntrusive</text>
<text text-anchor="middle" x="476.5" y="-283.62" font-family="Helvetica,sans-Serif" font-size="10.00">TreeSetTag</text>
</a>
</g>
</g>
<!-- Node8&#45;&gt;Node9 -->
<g id="edge186_Node000008_Node000009" class="edge">
<title>Node8&#45;&gt;Node9</title>
<g id="a_edge186_Node000008_Node000009"><a xlink:title=" ">
<path fill="none" stroke="#63b8ff" d="M352.22,-293.12C366.57,-293.12 381.33,-293.12 395.43,-293.12"/>
<polygon fill="#63b8ff" stroke="#63b8ff" points="352.34,-289.63 342.34,-293.13 352.34,-296.63 352.34,-289.63"/>
</a>
</g>
</g>
<!-- Node11 -->
<g id="Node000011" class="node">
<title>Node11</title>
<g id="a_Node000011"><a xlink:href="structdi_1_1container_1_1detail_1_1NodeHashMapTag.html" target="_top" xlink:title=" ">
<polygon fill="white" stroke="#666666" points="547.5,-245.25 405.5,-245.25 405.5,-199 547.5,-199 547.5,-245.25"/>
<text text-anchor="start" x="413.5" y="-231.75" font-family="Helvetica,sans-Serif" font-size="10.00">di::container::detail</text>
<text text-anchor="start" x="413.5" y="-219" font-family="Helvetica,sans-Serif" font-size="10.00">::NodeHashMapTag&lt; Key,</text>
<text text-anchor="middle" x="476.5" y="-206.25" font-family="Helvetica,sans-Serif" font-size="10.00"> Value &gt;</text>
</a>
</g>
</g>
<!-- Node10&#45;&gt;Node11 -->
<g id="edge188_Node000010_Node000011" class="edge">
<title>Node10&#45;&gt;Node11</title>
<g id="a_edge188_Node000010_Node000011"><a xlink:title=" ">
<path fill="none" stroke="#63b8ff" d="M351.58,-222.12C369.51,-222.12 388.11,-222.12 405.28,-222.12"/>
<polygon fill="#63b8ff" stroke="#63b8ff" points="351.74,-218.63 341.74,-222.13 351.74,-225.63 351.74,-218.63"/>
</a>
</g>
</g>
<!-- Node13 -->
<g id="Node000013" class="node">
<title>Node13</title>
<g id="a_Node000013"><a xlink:href="structdi_1_1container_1_1detail_1_1NodeHashSetTag.html" target="_top" xlink:title=" ">
<polygon fill="white" stroke="#666666" points="553.5,-167.88 399.5,-167.88 399.5,-134.38 553.5,-134.38 553.5,-167.88"/>
<text text-anchor="start" x="407.5" y="-154.38" font-family="Helvetica,sans-Serif" font-size="10.00">di::container::detail</text>
<text text-anchor="middle" x="476.5" y="-141.62" font-family="Helvetica,sans-Serif" font-size="10.00">::NodeHashSetTag&lt; Value &gt;</text>
</a>
</g>
</g>
<!-- Node12&#45;&gt;Node13 -->
<g id="edge190_Node000012_Node000013" class="edge">
<title>Node12&#45;&gt;Node13</title>
<g id="a_edge190_Node000012_Node000013"><a xlink:title=" ">
<path fill="none" stroke="#63b8ff" d="M348.92,-151.12C365.59,-151.12 382.93,-151.12 399.24,-151.12"/>
<polygon fill="#63b8ff" stroke="#63b8ff" points="349.03,-147.63 339.03,-151.13 349.03,-154.63 349.03,-147.63"/>
</a>
</g>
</g>
<!-- Node15 -->
<g id="Node000015" class="node">
<title>Node15</title>
<g id="a_Node000015"><a xlink:href="structdi_1_1container_1_1detail_1_1TreeMapTag.html" target="_top" xlink:title=" ">
<polygon fill="white" stroke="#666666" points="553.12,-103.88 399.88,-103.88 399.88,-70.38 553.12,-70.38 553.12,-103.88"/>
<text text-anchor="start" x="407.88" y="-90.38" font-family="Helvetica,sans-Serif" font-size="10.00">di::container::detail</text>
<text text-anchor="middle" x="476.5" y="-77.62" font-family="Helvetica,sans-Serif" font-size="10.00">::TreeMapTag&lt; Key, Value &gt;</text>
</a>
</g>
</g>
<!-- Node14&#45;&gt;Node15 -->
<g id="edge192_Node000014_Node000015" class="edge">
<title>Node14&#45;&gt;Node15</title>
<g id="a_edge192_Node000014_Node000015"><a xlink:title=" ">
<path fill="none" stroke="#63b8ff" d="M354.85,-87.12C369.74,-87.12 385.01,-87.12 399.45,-87.12"/>
<polygon fill="#63b8ff" stroke="#63b8ff" points="355.07,-83.63 345.07,-87.13 355.07,-90.63 355.07,-83.63"/>
</a>
</g>
</g>
<!-- Node17 -->
<g id="Node000017" class="node">
<title>Node17</title>
<g id="a_Node000017"><a xlink:href="structdi_1_1container_1_1detail_1_1TreeSetTag.html" target="_top" xlink:title=" ">
<polygon fill="white" stroke="#666666" points="538.5,-39.88 414.5,-39.88 414.5,-6.38 538.5,-6.38 538.5,-39.88"/>
<text text-anchor="start" x="422.5" y="-26.38" font-family="Helvetica,sans-Serif" font-size="10.00">di::container::detail</text>
<text text-anchor="middle" x="476.5" y="-13.62" font-family="Helvetica,sans-Serif" font-size="10.00">::TreeSetTag&lt; Value &gt;</text>
</a>
</g>
</g>
<!-- Node16&#45;&gt;Node17 -->
<g id="edge194_Node000016_Node000017" class="edge">
<title>Node16&#45;&gt;Node17</title>
<g id="a_edge194_Node000016_Node000017"><a xlink:title=" ">
<path fill="none" stroke="#63b8ff" d="M349.93,-23.12C371.51,-23.12 394.17,-23.12 414.2,-23.12"/>
<polygon fill="#63b8ff" stroke="#63b8ff" points="349.93,-19.63 339.93,-23.13 349.93,-26.63 349.93,-19.63"/>
</a>
</g>
</g>
</g>
</svg>
