<?xml version="1.0" encoding="UTF-8" standalone="no"?>
<!DOCTYPE svg PUBLIC "-//W3C//DTD SVG 1.1//EN"
 "http://www.w3.org/Graphics/SVG/1.1/DTD/svg11.dtd">
<!-- Generated by graphviz version 10.0.1 (0)
 -->
<!-- Title: Graphical Class Hierarchy Pages: 1 -->
<svg width="306pt" height="222pt"
 viewBox="0.00 0.00 305.50 221.50" xmlns="http://www.w3.org/2000/svg" xmlns:xlink="http://www.w3.org/1999/xlink">
<g id="graph0" class="graph" transform="scale(1 1) rotate(0) translate(4 217.5)">
<title>Graphical Class Hierarchy</title>
<!-- Node0 -->
<g id="Node000000" class="node">
<title>Node0</title>
<g id="a_Node000000"><a xlink:href="classdi_1_1container_1_1IntrusiveList.html" target="_top" xlink:title=" ">
<polygon fill="white" stroke="#666666" points="125.5,-123.5 0,-123.5 0,-90 125.5,-90 125.5,-123.5"/>
<text text-anchor="start" x="8" y="-110" font-family="Helvetica,sans-Serif" font-size="10.00">di::container::Intrusive</text>
<text text-anchor="middle" x="62.75" y="-97.25" font-family="Helvetica,sans-Serif" font-size="10.00">List&lt; T, Tag, Self &gt;</text>
</a>
</g>
</g>
<!-- Node1 -->
<g id="Node000001" class="node">
<title>Node1</title>
<g id="a_Node000001"><a xlink:href="classdi_1_1container_1_1LinkedList.html" target="_top" xlink:title=" ">
<polygon fill="white" stroke="#666666" points="295.25,-213.5 163.75,-213.5 163.75,-180 295.25,-180 295.25,-213.5"/>
<text text-anchor="start" x="171.75" y="-200" font-family="Helvetica,sans-Serif" font-size="10.00">di::container::LinkedList</text>
<text text-anchor="middle" x="229.5" y="-187.25" font-family="Helvetica,sans-Serif" font-size="10.00">&lt; iris::Processor &gt;</text>
</a>
</g>
</g>
<!-- Node0&#45;&gt;Node1 -->
<g id="edge160_Node000000_Node000001" class="edge">
<title>Node0&#45;&gt;Node1</title>
<g id="a_edge160_Node000000_Node000001"><a xlink:title=" ">
<path fill="none" stroke="#63b8ff" d="M96.17,-130.45C114.72,-143.37 138.76,-159.06 161.5,-170.75 167.6,-173.89 174.18,-176.88 180.74,-179.64"/>
<polygon fill="#63b8ff" stroke="#63b8ff" points="98.43,-127.76 88.24,-124.85 94.4,-133.48 98.43,-127.76"/>
</a>
</g>
</g>
<!-- Node2 -->
<g id="Node000002" class="node">
<title>Node2</title>
<g id="a_Node000002"><a xlink:href="classdi_1_1container_1_1LinkedList.html" target="_top" xlink:title=" ">
<polygon fill="white" stroke="#666666" points="297.5,-161.88 161.5,-161.88 161.5,-115.62 297.5,-115.62 297.5,-161.88"/>
<text text-anchor="start" x="169.5" y="-148.38" font-family="Helvetica,sans-Serif" font-size="10.00">di::container::LinkedList</text>
<text text-anchor="start" x="169.5" y="-135.62" font-family="Helvetica,sans-Serif" font-size="10.00">&lt; di::sync::Synchronized</text>
<text text-anchor="middle" x="229.5" y="-122.88" font-family="Helvetica,sans-Serif" font-size="10.00">&lt; IrqController &gt; &gt;</text>
</a>
</g>
</g>
<!-- Node0&#45;&gt;Node2 -->
<g id="edge161_Node000000_Node000002" class="edge">
<title>Node0&#45;&gt;Node2</title>
<g id="a_edge161_Node000000_Node000002"><a xlink:title=" ">
<path fill="none" stroke="#63b8ff" d="M136.85,-120.95C144.92,-122.52 153.1,-124.11 161.09,-125.66"/>
<polygon fill="#63b8ff" stroke="#63b8ff" points="137.54,-117.52 127.05,-119.05 136.2,-124.39 137.54,-117.52"/>
</a>
</g>
</g>
<!-- Node3 -->
<g id="Node000003" class="node">
<title>Node3</title>
<g id="a_Node000003"><a xlink:href="classdi_1_1container_1_1LinkedList.html" target="_top" xlink:title=" ">
<polygon fill="white" stroke="#666666" points="297.5,-97.88 161.5,-97.88 161.5,-51.62 297.5,-51.62 297.5,-97.88"/>
<text text-anchor="start" x="169.5" y="-84.38" font-family="Helvetica,sans-Serif" font-size="10.00">di::container::LinkedList</text>
<text text-anchor="start" x="169.5" y="-71.62" font-family="Helvetica,sans-Serif" font-size="10.00">&lt; di::sync::Synchronized</text>
<text text-anchor="middle" x="229.5" y="-58.88" font-family="Helvetica,sans-Serif" font-size="10.00">&lt; Timer &gt; &gt;</text>
</a>
</g>
</g>
<!-- Node0&#45;&gt;Node3 -->
<g id="edge162_Node000000_Node000003" class="edge">
<title>Node0&#45;&gt;Node3</title>
<g id="a_edge162_Node000000_Node000003"><a xlink:title=" ">
<path fill="none" stroke="#63b8ff" d="M136.85,-92.55C144.92,-90.98 153.1,-89.39 161.09,-87.84"/>
<polygon fill="#63b8ff" stroke="#63b8ff" points="136.2,-89.11 127.05,-94.45 137.54,-95.98 136.2,-89.11"/>
</a>
</g>
</g>
<!-- Node4 -->
<g id="Node000004" class="node">
<title>Node4</title>
<g id="a_Node000004"><a xlink:href="classdi_1_1container_1_1LinkedList.html" target="_top" xlink:title=" ">
<polygon fill="white" stroke="#666666" points="295.25,-33.5 163.75,-33.5 163.75,0 295.25,0 295.25,-33.5"/>
<text text-anchor="start" x="171.75" y="-20" font-family="Helvetica,sans-Serif" font-size="10.00">di::container::LinkedList</text>
<text text-anchor="middle" x="229.5" y="-7.25" font-family="Helvetica,sans-Serif" font-size="10.00">&lt; T, Alloc &gt;</text>
</a>
</g>
</g>
<!-- Node0&#45;&gt;Node4 -->
<g id="edge163_Node000000_Node000004" class="edge">
<title>Node0&#45;&gt;Node4</title>
<g id="a_edge163_Node000000_Node000004"><a xlink:title=" ">
<path fill="none" stroke="#63b8ff" d="M96.17,-83.05C114.72,-70.13 138.76,-54.44 161.5,-42.75 167.6,-39.61 174.18,-36.62 180.74,-33.86"/>
<polygon fill="#63b8ff" stroke="#63b8ff" points="94.4,-80.02 88.24,-88.65 98.43,-85.74 94.4,-80.02"/>
</a>
</g>
</g>
</g>
</svg>
