<?xml version="1.0" encoding="UTF-8" standalone="no"?>
<!DOCTYPE svg PUBLIC "-//W3C//DTD SVG 1.1//EN"
 "http://www.w3.org/Graphics/SVG/1.1/DTD/svg11.dtd">
<!-- Generated by graphviz version 10.0.1 (0)
 -->
<!-- Title: Graphical Class Hierarchy Pages: 1 -->
<svg width="259pt" height="302pt"
 viewBox="0.00 0.00 259.00 301.50" xmlns="http://www.w3.org/2000/svg" xmlns:xlink="http://www.w3.org/1999/xlink">
<g id="graph0" class="graph" transform="scale(1 1) rotate(0) translate(4 297.5)">
<title>Graphical Class Hierarchy</title>
<!-- Node0 -->
<g id="Node000000" class="node">
<title>Node0</title>
<g id="a_Node000000"><a xlink:title=" ">
<polygon fill="#e0e0e0" stroke="#999999" points="76.75,-157.12 0,-157.12 0,-136.38 76.75,-136.38 76.75,-157.12"/>
<text text-anchor="middle" x="38.38" y="-143.62" font-family="Helvetica,sans-Serif" font-size="10.00">detail::Mixin</text>
</a>
</g>
</g>
<!-- Node1 -->
<g id="Node000001" class="node">
<title>Node1</title>
<g id="a_Node000001"><a xlink:href="classdi_1_1util_1_1StrongInt.html" target="_top" xlink:title=" ">
<polygon fill="white" stroke="#666666" points="249.12,-293.5 114.62,-293.5 114.62,-260 249.12,-260 249.12,-293.5"/>
<text text-anchor="start" x="122.62" y="-280" font-family="Helvetica,sans-Serif" font-size="10.00">di::util::StrongInt</text>
<text text-anchor="middle" x="181.88" y="-267.25" font-family="Helvetica,sans-Serif" font-size="10.00">&lt; PhysicalAddressTag &gt;</text>
</a>
</g>
</g>
<!-- Node0&#45;&gt;Node1 -->
<g id="edge8_Node000000_Node000001" class="edge">
<title>Node0&#45;&gt;Node1</title>
<g id="a_edge8_Node000000_Node000001"><a xlink:title=" ">
<path fill="none" stroke="#63b8ff" d="M49.31,-167.63C61.34,-190.88 83.66,-228.15 112.75,-250.75 117.05,-254.09 121.83,-257.04 126.8,-259.64"/>
<polygon fill="#63b8ff" stroke="#63b8ff" points="52.51,-166.21 44.92,-158.82 46.25,-169.33 52.51,-166.21"/>
</a>
</g>
</g>
<!-- Node2 -->
<g id="Node000002" class="node">
<title>Node2</title>
<g id="a_Node000002"><a xlink:href="classdi_1_1util_1_1StrongInt.html" target="_top" xlink:title=" ">
<polygon fill="white" stroke="#666666" points="245,-241.5 118.75,-241.5 118.75,-208 245,-208 245,-241.5"/>
<text text-anchor="start" x="126.75" y="-228" font-family="Helvetica,sans-Serif" font-size="10.00">di::util::StrongInt</text>
<text text-anchor="middle" x="181.88" y="-215.25" font-family="Helvetica,sans-Serif" font-size="10.00">&lt; VirtualAddressTag &gt;</text>
</a>
</g>
</g>
<!-- Node0&#45;&gt;Node2 -->
<g id="edge9_Node000000_Node000002" class="edge">
<title>Node0&#45;&gt;Node2</title>
<g id="a_edge9_Node000000_Node000002"><a xlink:title=" ">
<path fill="none" stroke="#63b8ff" d="M61.41,-164.59C75.51,-175.43 94.51,-189.01 112.75,-198.75 118.67,-201.91 125.06,-204.88 131.46,-207.59"/>
<polygon fill="#63b8ff" stroke="#63b8ff" points="63.72,-161.96 53.69,-158.54 59.4,-167.46 63.72,-161.96"/>
</a>
</g>
</g>
<!-- Node3 -->
<g id="Node000003" class="node">
<title>Node3</title>
<g id="a_Node000003"><a xlink:href="classdi_1_1util_1_1StrongInt.html" target="_top" xlink:title=" ">
<polygon fill="white" stroke="#666666" points="230.38,-189.5 133.38,-189.5 133.38,-156 230.38,-156 230.38,-189.5"/>
<text text-anchor="start" x="141.38" y="-176" font-family="Helvetica,sans-Serif" font-size="10.00">di::util::StrongInt</text>
<text text-anchor="middle" x="181.88" y="-163.25" font-family="Helvetica,sans-Serif" font-size="10.00">&lt; IrqLineTag &gt;</text>
</a>
</g>
</g>
<!-- Node0&#45;&gt;Node3 -->
<g id="edge10_Node000000_Node000003" class="edge">
<title>Node0&#45;&gt;Node3</title>
<g id="a_edge10_Node000000_Node000003"><a xlink:title=" ">
<path fill="none" stroke="#63b8ff" d="M88.2,-155.72C102.7,-158.38 118.55,-161.3 132.99,-163.95"/>
<polygon fill="#63b8ff" stroke="#63b8ff" points="88.88,-152.29 78.41,-153.92 87.61,-159.17 88.88,-152.29"/>
</a>
</g>
</g>
<!-- Node4 -->
<g id="Node000004" class="node">
<title>Node4</title>
<g id="a_Node000004"><a xlink:href="classdi_1_1util_1_1StrongInt.html" target="_top" xlink:title=" ">
<polygon fill="white" stroke="#666666" points="230.38,-137.5 133.38,-137.5 133.38,-104 230.38,-104 230.38,-137.5"/>
<text text-anchor="start" x="141.38" y="-124" font-family="Helvetica,sans-Serif" font-size="10.00">di::util::StrongInt</text>
<text text-anchor="middle" x="181.88" y="-111.25" font-family="Helvetica,sans-Serif" font-size="10.00">&lt; TaskIdTag &gt;</text>
</a>
</g>
</g>
<!-- Node0&#45;&gt;Node4 -->
<g id="edge11_Node000000_Node000004" class="edge">
<title>Node0&#45;&gt;Node4</title>
<g id="a_edge11_Node000000_Node000004"><a xlink:title=" ">
<path fill="none" stroke="#63b8ff" d="M88.2,-137.78C102.7,-135.12 118.55,-132.2 132.99,-129.55"/>
<polygon fill="#63b8ff" stroke="#63b8ff" points="87.61,-134.33 78.41,-139.58 88.88,-141.21 87.61,-134.33"/>
</a>
</g>
</g>
<!-- Node5 -->
<g id="Node000005" class="node">
<title>Node5</title>
<g id="a_Node000005"><a xlink:href="classdi_1_1util_1_1StrongInt.html" target="_top" xlink:title=" ">
<polygon fill="white" stroke="#666666" points="251,-85.5 112.75,-85.5 112.75,-52 251,-52 251,-85.5"/>
<text text-anchor="start" x="120.75" y="-72" font-family="Helvetica,sans-Serif" font-size="10.00">di::util::StrongInt</text>
<text text-anchor="middle" x="181.88" y="-59.25" font-family="Helvetica,sans-Serif" font-size="10.00">&lt; GlobalIrqNumberTag &gt;</text>
</a>
</g>
</g>
<!-- Node0&#45;&gt;Node5 -->
<g id="edge12_Node000000_Node000005" class="edge">
<title>Node0&#45;&gt;Node5</title>
<g id="a_edge12_Node000000_Node000005"><a xlink:title=" ">
<path fill="none" stroke="#63b8ff" d="M61.41,-128.91C75.51,-118.07 94.51,-104.49 112.75,-94.75 118.67,-91.59 125.06,-88.62 131.46,-85.91"/>
<polygon fill="#63b8ff" stroke="#63b8ff" points="59.4,-126.04 53.69,-134.96 63.72,-131.54 59.4,-126.04"/>
</a>
</g>
</g>
<!-- Node6 -->
<g id="Node000006" class="node">
<title>Node6</title>
<g id="a_Node000006"><a xlink:href="classdi_1_1util_1_1StrongInt.html" target="_top" xlink:title=" ">
<polygon fill="white" stroke="#666666" points="230.38,-33.5 133.38,-33.5 133.38,0 230.38,0 230.38,-33.5"/>
<text text-anchor="start" x="141.38" y="-20" font-family="Helvetica,sans-Serif" font-size="10.00">di::util::StrongInt</text>
<text text-anchor="middle" x="181.88" y="-7.25" font-family="Helvetica,sans-Serif" font-size="10.00">&lt; Tag &gt;</text>
</a>
</g>
</g>
<!-- Node0&#45;&gt;Node6 -->
<g id="edge13_Node000000_Node000006" class="edge">
<title>Node0&#45;&gt;Node6</title>
<g id="a_edge13_Node000000_Node000006"><a xlink:title=" ">
<path fill="none" stroke="#63b8ff" d="M49.31,-125.87C61.34,-102.62 83.66,-65.35 112.75,-42.75 118.85,-38.01 125.91,-34.06 133.13,-30.78"/>
<polygon fill="#63b8ff" stroke="#63b8ff" points="46.25,-124.17 44.92,-134.68 52.51,-127.29 46.25,-124.17"/>
</a>
</g>
</g>
</g>
</svg>
