<?xml version="1.0" encoding="UTF-8" standalone="no"?>
<!DOCTYPE svg PUBLIC "-//W3C//DTD SVG 1.1//EN"
 "http://www.w3.org/Graphics/SVG/1.1/DTD/svg11.dtd">
<!-- Generated by graphviz version 10.0.1 (0)
 -->
<!-- Title: Graphical Class Hierarchy Pages: 1 -->
<svg width="485pt" height="42pt"
 viewBox="0.00 0.00 485.00 41.50" xmlns="http://www.w3.org/2000/svg" xmlns:xlink="http://www.w3.org/1999/xlink">
<g id="graph0" class="graph" transform="scale(1 1) rotate(0) translate(4 37.5)">
<title>Graphical Class Hierarchy</title>
<!-- Node0 -->
<g id="Node000000" class="node">
<title>Node0</title>
<g id="a_Node000000"><a xlink:href="structdi_1_1meta_1_1TypeConstant.html" target="_top" xlink:title=" ">
<polygon fill="white" stroke="#666666" points="128.5,-33.5 0,-33.5 0,0 128.5,0 128.5,-33.5"/>
<text text-anchor="start" x="8" y="-20" font-family="Helvetica,sans-Serif" font-size="10.00">di::meta::TypeConstant</text>
<text text-anchor="middle" x="64.25" y="-7.25" font-family="Helvetica,sans-Serif" font-size="10.00">&lt; Fun&lt; Args... &gt; &gt;</text>
</a>
</g>
</g>
<!-- Node1 -->
<g id="Node000001" class="node">
<title>Node1</title>
<g id="a_Node000001"><a xlink:href="structdi_1_1meta_1_1detail_1_1DeferHelper_3_01Fun_00_01Args_8_8_8_01_4.html" target="_top" xlink:title=" ">
<polygon fill="white" stroke="#666666" points="320,-33.5 164.5,-33.5 164.5,0 320,0 320,-33.5"/>
<text text-anchor="start" x="172.5" y="-20" font-family="Helvetica,sans-Serif" font-size="10.00">di::meta::detail::DeferHelper</text>
<text text-anchor="middle" x="242.25" y="-7.25" font-family="Helvetica,sans-Serif" font-size="10.00">&lt; Fun, Args... &gt;</text>
</a>
</g>
</g>
<!-- Node0&#45;&gt;Node1 -->
<g id="edge487_Node000000_Node000001" class="edge">
<title>Node0&#45;&gt;Node1</title>
<g id="a_edge487_Node000000_Node000001"><a xlink:title=" ">
<path fill="none" stroke="#63b8ff" d="M140.3,-16.75C148.24,-16.75 156.33,-16.75 164.29,-16.75"/>
<polygon fill="#63b8ff" stroke="#63b8ff" points="140.3,-13.25 130.3,-16.75 140.3,-20.25 140.3,-13.25"/>
</a>
</g>
</g>
<!-- Node2 -->
<g id="Node000002" class="node">
<title>Node2</title>
<g id="a_Node000002"><a xlink:href="structdi_1_1meta_1_1Defer.html" target="_top" xlink:title=" ">
<polygon fill="white" stroke="#666666" points="477,-33.5 356,-33.5 356,0 477,0 477,-33.5"/>
<text text-anchor="start" x="364" y="-20" font-family="Helvetica,sans-Serif" font-size="10.00">di::meta::Defer&lt; Fun,</text>
<text text-anchor="middle" x="416.5" y="-7.25" font-family="Helvetica,sans-Serif" font-size="10.00"> Args &gt;</text>
</a>
</g>
</g>
<!-- Node1&#45;&gt;Node2 -->
<g id="edge488_Node000001_Node000002" class="edge">
<title>Node1&#45;&gt;Node2</title>
<g id="a_edge488_Node000001_Node000002"><a xlink:title=" ">
<path fill="none" stroke="#63b8ff" d="M331.71,-16.75C339.78,-16.75 347.83,-16.75 355.57,-16.75"/>
<polygon fill="#63b8ff" stroke="#63b8ff" points="331.82,-13.25 321.82,-16.75 331.82,-20.25 331.82,-13.25"/>
</a>
</g>
</g>
</g>
</svg>
