<?xml version="1.0" encoding="UTF-8" standalone="no"?>
<!DOCTYPE svg PUBLIC "-//W3C//DTD SVG 1.1//EN"
 "http://www.w3.org/Graphics/SVG/1.1/DTD/svg11.dtd">
<!-- Generated by graphviz version 10.0.1 (0)
 -->
<!-- Title: Graphical Class Hierarchy Pages: 1 -->
<svg width="332pt" height="118pt"
 viewBox="0.00 0.00 331.75 118.25" xmlns="http://www.w3.org/2000/svg" xmlns:xlink="http://www.w3.org/1999/xlink">
<g id="graph0" class="graph" transform="scale(1 1) rotate(0) translate(4 114.25)">
<title>Graphical Class Hierarchy</title>
<!-- Node0 -->
<g id="Node000000" class="node">
<title>Node0</title>
<g id="a_Node000000"><a xlink:href="structdi_1_1meta_1_1TypeConstant.html" target="_top" xlink:title=" ">
<polygon fill="white" stroke="#666666" points="129.25,-71.88 0,-71.88 0,-38.38 129.25,-38.38 129.25,-71.88"/>
<text text-anchor="start" x="8" y="-58.38" font-family="Helvetica,sans-Serif" font-size="10.00">di::meta::TypeConstant</text>
<text text-anchor="middle" x="64.62" y="-45.62" font-family="Helvetica,sans-Serif" font-size="10.00">&lt; meta::Decay&lt; T &gt; &gt;</text>
</a>
</g>
</g>
<!-- Node1 -->
<g id="Node000001" class="node">
<title>Node1</title>
<g id="a_Node000001"><a xlink:href="structdi_1_1execution_1_1into__result__ns_1_1ResultTypeConcatImplHelper_3_01T_01_4.html" target="_top" xlink:title=" ">
<polygon fill="white" stroke="#666666" points="323.75,-110.25 165.25,-110.25 165.25,-64 323.75,-64 323.75,-110.25"/>
<text text-anchor="start" x="173.25" y="-96.75" font-family="Helvetica,sans-Serif" font-size="10.00">di::execution::into</text>
<text text-anchor="start" x="173.25" y="-84" font-family="Helvetica,sans-Serif" font-size="10.00">_result_ns::ResultTypeConcat</text>
<text text-anchor="middle" x="244.5" y="-71.25" font-family="Helvetica,sans-Serif" font-size="10.00">ImplHelper&lt; T &gt;</text>
</a>
</g>
</g>
<!-- Node0&#45;&gt;Node1 -->
<g id="edge517_Node000000_Node000001" class="edge">
<title>Node0&#45;&gt;Node1</title>
<g id="a_edge517_Node000000_Node000001"><a xlink:title=" ">
<path fill="none" stroke="#63b8ff" d="M140.75,-68.64C148.74,-70.08 156.88,-71.54 164.91,-72.99"/>
<polygon fill="#63b8ff" stroke="#63b8ff" points="141.54,-65.23 131.08,-66.9 140.3,-72.12 141.54,-65.23"/>
</a>
</g>
</g>
<!-- Node2 -->
<g id="Node000002" class="node">
<title>Node2</title>
<g id="a_Node000002"><a xlink:href="structdi_1_1execution_1_1into__result__ns_1_1ResultTypeImplHelper_3_01T_01_4.html" target="_top" xlink:title=" ">
<polygon fill="white" stroke="#666666" points="317.75,-46.25 171.25,-46.25 171.25,0 317.75,0 317.75,-46.25"/>
<text text-anchor="start" x="179.25" y="-32.75" font-family="Helvetica,sans-Serif" font-size="10.00">di::execution::into</text>
<text text-anchor="start" x="179.25" y="-20" font-family="Helvetica,sans-Serif" font-size="10.00">_result_ns::ResultTypeImpl</text>
<text text-anchor="middle" x="244.5" y="-7.25" font-family="Helvetica,sans-Serif" font-size="10.00">Helper&lt; T &gt;</text>
</a>
</g>
</g>
<!-- Node0&#45;&gt;Node2 -->
<g id="edge518_Node000000_Node000002" class="edge">
<title>Node0&#45;&gt;Node2</title>
<g id="a_edge518_Node000000_Node000002"><a xlink:title=" ">
<path fill="none" stroke="#63b8ff" d="M140.78,-41.6C150.8,-39.8 161.07,-37.96 171.04,-36.16"/>
<polygon fill="#63b8ff" stroke="#63b8ff" points="140.3,-38.13 131.08,-43.35 141.54,-45.02 140.3,-38.13"/>
</a>
</g>
</g>
</g>
</svg>
