<?xml version="1.0" encoding="UTF-8" standalone="no"?>
<!DOCTYPE svg PUBLIC "-//W3C//DTD SVG 1.1//EN"
 "http://www.w3.org/Graphics/SVG/1.1/DTD/svg11.dtd">
<!-- Generated by graphviz version 12.2.1 (0)
 -->
<!-- Title: Graphical Class Hierarchy Pages: 1 -->
<svg width="535pt" height="42pt"
 viewBox="0.00 0.00 534.50 41.50" xmlns="http://www.w3.org/2000/svg" xmlns:xlink="http://www.w3.org/1999/xlink">
<g id="graph0" class="graph" transform="scale(1 1) rotate(0) translate(4 37.5)">
<title>Graphical Class Hierarchy</title>
<!-- Node0 -->
<g id="Node000000" class="node">
<title>Node0</title>
<g id="a_Node000000"><a xlink:href="classdi_1_1meta_1_1EnableView.html" target="_top" xlink:title=" ">
<polygon fill="white" stroke="#666666" points="157,-33.5 0,-33.5 0,0 157,0 157,-33.5"/>
<text text-anchor="start" x="8" y="-20" font-family="Helvetica,sans-Serif" font-size="10.00">di::meta::EnableView</text>
<text text-anchor="middle" x="78.5" y="-7.25" font-family="Helvetica,sans-Serif" font-size="10.00">&lt; ConcatView&lt; Views... &gt; &gt;</text>
</a>
</g>
</g>
<!-- Node1 -->
<g id="Node000001" class="node">
<title>Node1</title>
<g id="a_Node000001"><a xlink:href="classdi_1_1container_1_1ViewInterface.html" target="_top" xlink:title=" ">
<polygon fill="white" stroke="#666666" points="350,-33.5 193,-33.5 193,0 350,0 350,-33.5"/>
<text text-anchor="start" x="201" y="-20" font-family="Helvetica,sans-Serif" font-size="10.00">di::container::ViewInterface</text>
<text text-anchor="middle" x="271.5" y="-7.25" font-family="Helvetica,sans-Serif" font-size="10.00">&lt; ConcatView&lt; Views... &gt; &gt;</text>
</a>
</g>
</g>
<!-- Node0&#45;&gt;Node1 -->
<g id="edge832_Node000000_Node000001" class="edge">
<title>Node0&#45;&gt;Node1</title>
<g id="a_edge832_Node000000_Node000001"><a xlink:title=" ">
<path fill="none" stroke="#63b8ff" d="M168.75,-16.75C176.78,-16.75 184.87,-16.75 192.79,-16.75"/>
<polygon fill="#63b8ff" stroke="#63b8ff" points="168.98,-13.25 158.98,-16.75 168.98,-20.25 168.98,-13.25"/>
</a>
</g>
</g>
<!-- Node2 -->
<g id="Node000002" class="node">
<title>Node2</title>
<g id="a_Node000002"><a xlink:href="classdi_1_1container_1_1ConcatView.html" target="_top" xlink:title=" ">
<polygon fill="white" stroke="#666666" points="526.5,-33.5 386,-33.5 386,0 526.5,0 526.5,-33.5"/>
<text text-anchor="start" x="394" y="-20" font-family="Helvetica,sans-Serif" font-size="10.00">di::container::ConcatView</text>
<text text-anchor="middle" x="456.25" y="-7.25" font-family="Helvetica,sans-Serif" font-size="10.00">&lt; Views &gt;</text>
</a>
</g>
</g>
<!-- Node1&#45;&gt;Node2 -->
<g id="edge833_Node000001_Node000002" class="edge">
<title>Node1&#45;&gt;Node2</title>
<g id="a_edge833_Node000001_Node000002"><a xlink:title=" ">
<path fill="none" stroke="#63b8ff" d="M361.63,-16.75C369.7,-16.75 377.79,-16.75 385.65,-16.75"/>
<polygon fill="#63b8ff" stroke="#63b8ff" points="361.78,-13.25 351.78,-16.75 361.78,-20.25 361.78,-13.25"/>
</a>
</g>
</g>
</g>
</svg>
