<?xml version="1.0" encoding="UTF-8" standalone="no"?>
<!DOCTYPE svg PUBLIC "-//W3C//DTD SVG 1.1//EN"
 "http://www.w3.org/Graphics/SVG/1.1/DTD/svg11.dtd">
<!-- Generated by graphviz version 12.2.1 (0)
 -->
<!-- Title: Graphical Class Hierarchy Pages: 1 -->
<svg width="551pt" height="42pt"
 viewBox="0.00 0.00 551.00 41.50" xmlns="http://www.w3.org/2000/svg" xmlns:xlink="http://www.w3.org/1999/xlink">
<g id="graph0" class="graph" transform="scale(1 1) rotate(0) translate(4 37.5)">
<title>Graphical Class Hierarchy</title>
<!-- Node0 -->
<g id="Node000000" class="node">
<title>Node0</title>
<g id="a_Node000000"><a xlink:href="classdi_1_1meta_1_1EnableView.html" target="_top" xlink:title=" ">
<polygon fill="white" stroke="#666666" points="171.25,-33.5 0,-33.5 0,0 171.25,0 171.25,-33.5"/>
<text text-anchor="start" x="8" y="-20" font-family="Helvetica,sans-Serif" font-size="10.00">di::meta::EnableView</text>
<text text-anchor="middle" x="85.62" y="-7.25" font-family="Helvetica,sans-Serif" font-size="10.00">&lt; SplitView&lt; View, Pattern &gt; &gt;</text>
</a>
</g>
</g>
<!-- Node1 -->
<g id="Node000001" class="node">
<title>Node1</title>
<g id="a_Node000001"><a xlink:href="classdi_1_1container_1_1ViewInterface.html" target="_top" xlink:title=" ">
<polygon fill="white" stroke="#666666" points="378.5,-33.5 207.25,-33.5 207.25,0 378.5,0 378.5,-33.5"/>
<text text-anchor="start" x="215.25" y="-20" font-family="Helvetica,sans-Serif" font-size="10.00">di::container::ViewInterface</text>
<text text-anchor="middle" x="292.88" y="-7.25" font-family="Helvetica,sans-Serif" font-size="10.00">&lt; SplitView&lt; View, Pattern &gt; &gt;</text>
</a>
</g>
</g>
<!-- Node0&#45;&gt;Node1 -->
<g id="edge848_Node000000_Node000001" class="edge">
<title>Node0&#45;&gt;Node1</title>
<g id="a_edge848_Node000000_Node000001"><a xlink:title=" ">
<path fill="none" stroke="#63b8ff" d="M182.9,-16.75C190.94,-16.75 199.03,-16.75 206.97,-16.75"/>
<polygon fill="#63b8ff" stroke="#63b8ff" points="183.1,-13.25 173.1,-16.75 183.1,-20.25 183.1,-13.25"/>
</a>
</g>
</g>
<!-- Node2 -->
<g id="Node000002" class="node">
<title>Node2</title>
<g id="a_Node000002"><a xlink:href="classdi_1_1container_1_1SplitView.html" target="_top" xlink:title=" ">
<polygon fill="white" stroke="#666666" points="543,-33.5 414.5,-33.5 414.5,0 543,0 543,-33.5"/>
<text text-anchor="start" x="422.5" y="-20" font-family="Helvetica,sans-Serif" font-size="10.00">di::container::SplitView</text>
<text text-anchor="middle" x="478.75" y="-7.25" font-family="Helvetica,sans-Serif" font-size="10.00">&lt; View, Pattern &gt;</text>
</a>
</g>
</g>
<!-- Node1&#45;&gt;Node2 -->
<g id="edge849_Node000001_Node000002" class="edge">
<title>Node1&#45;&gt;Node2</title>
<g id="a_edge849_Node000001_Node000002"><a xlink:title=" ">
<path fill="none" stroke="#63b8ff" d="M390.23,-16.75C398.3,-16.75 406.33,-16.75 414.06,-16.75"/>
<polygon fill="#63b8ff" stroke="#63b8ff" points="390.33,-13.25 380.33,-16.75 390.33,-20.25 390.33,-13.25"/>
</a>
</g>
</g>
</g>
</svg>
