<?xml version="1.0" encoding="UTF-8" standalone="no"?>
<!DOCTYPE svg PUBLIC "-//W3C//DTD SVG 1.1//EN"
 "http://www.w3.org/Graphics/SVG/1.1/DTD/svg11.dtd">
<!-- Generated by graphviz version 10.0.1 (0)
 -->
<!-- Title: Graphical Class Hierarchy Pages: 1 -->
<svg width="341pt" height="247pt"
 viewBox="0.00 0.00 340.75 246.62" xmlns="http://www.w3.org/2000/svg" xmlns:xlink="http://www.w3.org/1999/xlink">
<g id="graph0" class="graph" transform="scale(1 1) rotate(0) translate(4 242.62)">
<title>Graphical Class Hierarchy</title>
<!-- Node0 -->
<g id="Node000000" class="node">
<title>Node0</title>
<g id="a_Node000000"><a xlink:href="classdi_1_1container_1_1ConstantPathInterface.html" target="_top" xlink:title=" ">
<polygon fill="white" stroke="#666666" points="147.25,-238.62 0,-238.62 0,-192.38 147.25,-192.38 147.25,-238.62"/>
<text text-anchor="start" x="8" y="-225.12" font-family="Helvetica,sans-Serif" font-size="10.00">di::container::ConstantPath</text>
<text text-anchor="start" x="8" y="-212.38" font-family="Helvetica,sans-Serif" font-size="10.00">Interface&lt; PathViewImpl</text>
<text text-anchor="middle" x="73.62" y="-199.62" font-family="Helvetica,sans-Serif" font-size="10.00">&lt; Enc &gt;, Enc &gt;</text>
</a>
</g>
</g>
<!-- Node1 -->
<g id="Node000001" class="node">
<title>Node1</title>
<g id="a_Node000001"><a xlink:href="classdi_1_1container_1_1PathViewImpl.html" target="_top" xlink:title=" ">
<polygon fill="white" stroke="#666666" points="332.75,-139.25 183.25,-139.25 183.25,-105.75 332.75,-105.75 332.75,-139.25"/>
<text text-anchor="start" x="191.25" y="-125.75" font-family="Helvetica,sans-Serif" font-size="10.00">di::container::PathViewImpl</text>
<text text-anchor="middle" x="258" y="-113" font-family="Helvetica,sans-Serif" font-size="10.00">&lt; Enc &gt;</text>
</a>
</g>
</g>
<!-- Node0&#45;&gt;Node1 -->
<g id="edge104_Node000000_Node000001" class="edge">
<title>Node0&#45;&gt;Node1</title>
<g id="a_edge104_Node000000_Node000001"><a xlink:title=" ">
<path fill="none" stroke="#63b8ff" d="M139.93,-187.07C142.41,-185.88 144.86,-184.69 147.25,-183.5 175.17,-169.63 206.14,-152.22 228.04,-139.56"/>
<polygon fill="#63b8ff" stroke="#63b8ff" points="138.53,-183.86 130.97,-191.28 141.51,-190.2 138.53,-183.86"/>
</a>
</g>
</g>
<!-- Node2 -->
<g id="Node000002" class="node">
<title>Node2</title>
<g id="a_Node000002"><a xlink:href="classdi_1_1meta_1_1EnableBorrowedContainer.html" target="_top" xlink:title=" ">
<polygon fill="white" stroke="#666666" points="144.62,-174.62 2.62,-174.62 2.62,-128.38 144.62,-128.38 144.62,-174.62"/>
<text text-anchor="start" x="10.62" y="-161.12" font-family="Helvetica,sans-Serif" font-size="10.00">di::meta::EnableBorrowed</text>
<text text-anchor="start" x="10.62" y="-148.38" font-family="Helvetica,sans-Serif" font-size="10.00">Container&lt; PathViewImpl</text>
<text text-anchor="middle" x="73.62" y="-135.62" font-family="Helvetica,sans-Serif" font-size="10.00">&lt; Enc &gt; &gt;</text>
</a>
</g>
</g>
<!-- Node2&#45;&gt;Node1 -->
<g id="edge105_Node000002_Node000001" class="edge">
<title>Node2&#45;&gt;Node1</title>
<g id="a_edge105_Node000002_Node000001"><a xlink:title=" ">
<path fill="none" stroke="#63b8ff" d="M156.08,-138.55C164.99,-137.13 174.03,-135.69 182.86,-134.29"/>
<polygon fill="#63b8ff" stroke="#63b8ff" points="155.7,-135.06 146.37,-140.09 156.8,-141.98 155.7,-135.06"/>
</a>
</g>
</g>
<!-- Node3 -->
<g id="Node000003" class="node">
<title>Node3</title>
<g id="a_Node000003"><a xlink:href="classdi_1_1meta_1_1EnableView.html" target="_top" xlink:title=" ">
<polygon fill="white" stroke="#666666" points="146.12,-110.25 1.12,-110.25 1.12,-76.75 146.12,-76.75 146.12,-110.25"/>
<text text-anchor="start" x="9.12" y="-96.75" font-family="Helvetica,sans-Serif" font-size="10.00">di::meta::EnableView</text>
<text text-anchor="middle" x="73.62" y="-84" font-family="Helvetica,sans-Serif" font-size="10.00">&lt; PathViewImpl&lt; Enc &gt; &gt;</text>
</a>
</g>
</g>
<!-- Node3&#45;&gt;Node1 -->
<g id="edge106_Node000003_Node000001" class="edge">
<title>Node3&#45;&gt;Node1</title>
<g id="a_edge106_Node000003_Node000001"><a xlink:title=" ">
<path fill="none" stroke="#63b8ff" d="M157.77,-106.72C166.13,-108.05 174.59,-109.4 182.85,-110.71"/>
<polygon fill="#63b8ff" stroke="#63b8ff" points="158.36,-103.27 147.94,-105.16 157.26,-110.18 158.36,-103.27"/>
</a>
</g>
</g>
<!-- Node4 -->
<g id="Node000004" class="node">
<title>Node4</title>
<g id="a_Node000004"><a xlink:href="structdi_1_1util_1_1OwnedType.html" target="_top" xlink:title=" ">
<polygon fill="white" stroke="#666666" points="140.88,-59 6.38,-59 6.38,0 140.88,0 140.88,-59"/>
<text text-anchor="start" x="14.38" y="-45.5" font-family="Helvetica,sans-Serif" font-size="10.00">di::util::OwnedType</text>
<text text-anchor="start" x="14.38" y="-32.75" font-family="Helvetica,sans-Serif" font-size="10.00">&lt; PathViewImpl&lt; Enc</text>
<text text-anchor="start" x="14.38" y="-20" font-family="Helvetica,sans-Serif" font-size="10.00"> &gt;, PathImpl&lt; string</text>
<text text-anchor="middle" x="73.62" y="-7.25" font-family="Helvetica,sans-Serif" font-size="10.00">::StringImpl&lt; Enc &gt; &gt; &gt;</text>
</a>
</g>
</g>
<!-- Node4&#45;&gt;Node1 -->
<g id="edge107_Node000004_Node000001" class="edge">
<title>Node4&#45;&gt;Node1</title>
<g id="a_edge107_Node000004_Node000001"><a xlink:title=" ">
<path fill="none" stroke="#63b8ff" d="M143.28,-64.51C170.67,-78.48 200.97,-93.93 223.39,-105.36"/>
<polygon fill="#63b8ff" stroke="#63b8ff" points="145.18,-61.55 134.68,-60.13 142,-67.79 145.18,-61.55"/>
</a>
</g>
</g>
</g>
</svg>
