<?xml version="1.0" encoding="UTF-8" standalone="no"?>
<!DOCTYPE svg PUBLIC "-//W3C//DTD SVG 1.1//EN"
 "http://www.w3.org/Graphics/SVG/1.1/DTD/svg11.dtd">
<!-- Generated by graphviz version 10.0.1 (0)
 -->
<!-- Title: Graphical Class Hierarchy Pages: 1 -->
<svg width="737pt" height="145pt"
 viewBox="0.00 0.00 737.25 144.50" xmlns="http://www.w3.org/2000/svg" xmlns:xlink="http://www.w3.org/1999/xlink">
<g id="graph0" class="graph" transform="scale(1 1) rotate(0) translate(4 140.5)">
<title>Graphical Class Hierarchy</title>
<!-- Node0 -->
<g id="Node000000" class="node">
<title>Node0</title>
<g id="a_Node000000"><a xlink:href="structdi_1_1container_1_1IntrusiveTagBase.html" target="_top" xlink:title=" ">
<polygon fill="white" stroke="#666666" points="166.75,-78.5 0,-78.5 0,-32.25 166.75,-32.25 166.75,-78.5"/>
<text text-anchor="start" x="8" y="-65" font-family="Helvetica,sans-Serif" font-size="10.00">di::container::Intrusive</text>
<text text-anchor="start" x="8" y="-52.25" font-family="Helvetica,sans-Serif" font-size="10.00">TagBase&lt; IntrusiveForwardList</text>
<text text-anchor="middle" x="83.38" y="-39.5" font-family="Helvetica,sans-Serif" font-size="10.00">Node&lt; Self &gt; &gt;</text>
</a>
</g>
</g>
<!-- Node1 -->
<g id="Node000001" class="node">
<title>Node1</title>
<g id="a_Node000001"><a xlink:href="structdi_1_1container_1_1IntrusiveForwardListTag.html" target="_top" xlink:title=" ">
<polygon fill="white" stroke="#666666" points="332.75,-72.12 202.75,-72.12 202.75,-38.62 332.75,-38.62 332.75,-72.12"/>
<text text-anchor="start" x="210.75" y="-58.62" font-family="Helvetica,sans-Serif" font-size="10.00">di::container::Intrusive</text>
<text text-anchor="middle" x="267.75" y="-45.88" font-family="Helvetica,sans-Serif" font-size="10.00">ForwardListTag&lt; Self &gt;</text>
</a>
</g>
</g>
<!-- Node0&#45;&gt;Node1 -->
<g id="edge169_Node000000_Node000001" class="edge">
<title>Node0&#45;&gt;Node1</title>
<g id="a_edge169_Node000000_Node000001"><a xlink:title=" ">
<path fill="none" stroke="#63b8ff" d="M178.47,-55.38C186.57,-55.38 194.64,-55.38 202.42,-55.38"/>
<polygon fill="#63b8ff" stroke="#63b8ff" points="178.54,-51.88 168.54,-55.38 178.54,-58.88 178.54,-51.88"/>
</a>
</g>
</g>
<!-- Node2 -->
<g id="Node000002" class="node">
<title>Node2</title>
<g id="a_Node000002"><a xlink:href="structdi_1_1container_1_1IntrusiveHashSetTag.html" target="_top" xlink:title=" ">
<polygon fill="white" stroke="#666666" points="531.75,-136.5 368.75,-136.5 368.75,-90.25 531.75,-90.25 531.75,-136.5"/>
<text text-anchor="start" x="376.75" y="-123" font-family="Helvetica,sans-Serif" font-size="10.00">di::container::Intrusive</text>
<text text-anchor="start" x="376.75" y="-110.25" font-family="Helvetica,sans-Serif" font-size="10.00">HashSetTag&lt; DefaultIntrusive</text>
<text text-anchor="middle" x="450.25" y="-97.5" font-family="Helvetica,sans-Serif" font-size="10.00">HashSetTag &gt;</text>
</a>
</g>
</g>
<!-- Node1&#45;&gt;Node2 -->
<g id="edge170_Node000001_Node000002" class="edge">
<title>Node1&#45;&gt;Node2</title>
<g id="a_edge170_Node000001_Node000002"><a xlink:title=" ">
<path fill="none" stroke="#63b8ff" d="M333.25,-76.1C347.02,-80.52 361.66,-85.23 375.74,-89.76"/>
<polygon fill="#63b8ff" stroke="#63b8ff" points="334.45,-72.81 323.86,-73.08 332.31,-79.47 334.45,-72.81"/>
</a>
</g>
</g>
<!-- Node4 -->
<g id="Node000004" class="node">
<title>Node4</title>
<g id="a_Node000004"><a xlink:href="structdi_1_1container_1_1IntrusiveHashSetTag.html" target="_top" xlink:title=" ">
<polygon fill="white" stroke="#666666" points="513,-72.12 387.5,-72.12 387.5,-38.62 513,-38.62 513,-72.12"/>
<text text-anchor="start" x="395.5" y="-58.62" font-family="Helvetica,sans-Serif" font-size="10.00">di::container::Intrusive</text>
<text text-anchor="middle" x="450.25" y="-45.88" font-family="Helvetica,sans-Serif" font-size="10.00">HashSetTag&lt; Self &gt;</text>
</a>
</g>
</g>
<!-- Node1&#45;&gt;Node4 -->
<g id="edge172_Node000001_Node000004" class="edge">
<title>Node1&#45;&gt;Node4</title>
<g id="a_edge172_Node000001_Node000004"><a xlink:title=" ">
<path fill="none" stroke="#63b8ff" d="M344.46,-55.38C358.73,-55.38 373.5,-55.38 387.29,-55.38"/>
<polygon fill="#63b8ff" stroke="#63b8ff" points="344.66,-51.88 334.66,-55.38 344.66,-58.88 344.66,-51.88"/>
</a>
</g>
</g>
<!-- Node5 -->
<g id="Node000005" class="node">
<title>Node5</title>
<g id="a_Node000005"><a xlink:href="structiris_1_1detail_1_1InternalObjectTag.html" target="_top" xlink:title=" ">
<polygon fill="white" stroke="#666666" points="528.38,-20.75 372.12,-20.75 372.12,0 528.38,0 528.38,-20.75"/>
<text text-anchor="middle" x="450.25" y="-7.25" font-family="Helvetica,sans-Serif" font-size="10.00">iris::detail::InternalObjectTag</text>
</a>
</g>
</g>
<!-- Node1&#45;&gt;Node5 -->
<g id="edge173_Node000001_Node000005" class="edge">
<title>Node1&#45;&gt;Node5</title>
<g id="a_edge173_Node000001_Node000005"><a xlink:title=" ">
<path fill="none" stroke="#63b8ff" d="M344.4,-35.51C352.61,-33.42 360.85,-31.33 368.75,-29.38 379.62,-26.68 391.34,-23.86 402.38,-21.25"/>
<polygon fill="#63b8ff" stroke="#63b8ff" points="343.53,-32.12 334.71,-38 345.27,-38.9 343.53,-32.12"/>
</a>
</g>
</g>
<!-- Node3 -->
<g id="Node000003" class="node">
<title>Node3</title>
<g id="a_Node000003"><a xlink:href="structdi_1_1container_1_1DefaultIntrusiveHashSetTag.html" target="_top" xlink:title=" ">
<polygon fill="white" stroke="#666666" points="729.25,-130.12 567.75,-130.12 567.75,-96.62 729.25,-96.62 729.25,-130.12"/>
<text text-anchor="start" x="575.75" y="-116.62" font-family="Helvetica,sans-Serif" font-size="10.00">di::container::DefaultIntrusive</text>
<text text-anchor="middle" x="648.5" y="-103.88" font-family="Helvetica,sans-Serif" font-size="10.00">HashSetTag</text>
</a>
</g>
</g>
<!-- Node2&#45;&gt;Node3 -->
<g id="edge171_Node000002_Node000003" class="edge">
<title>Node2&#45;&gt;Node3</title>
<g id="a_edge171_Node000002_Node000003"><a xlink:title=" ">
<path fill="none" stroke="#63b8ff" d="M543.45,-113.38C551.44,-113.38 559.48,-113.38 567.36,-113.38"/>
<polygon fill="#63b8ff" stroke="#63b8ff" points="543.72,-109.88 533.72,-113.38 543.72,-116.88 543.72,-109.88"/>
</a>
</g>
</g>
</g>
</svg>
