<?xml version="1.0" encoding="UTF-8" standalone="no"?>
<!DOCTYPE svg PUBLIC "-//W3C//DTD SVG 1.1//EN"
 "http://www.w3.org/Graphics/SVG/1.1/DTD/svg11.dtd">
<!-- Generated by graphviz version 10.0.1 (0)
 -->
<!-- Title: Graphical Class Hierarchy Pages: 1 -->
<svg width="225pt" height="132pt"
 viewBox="0.00 0.00 224.50 131.62" xmlns="http://www.w3.org/2000/svg" xmlns:xlink="http://www.w3.org/1999/xlink">
<g id="graph0" class="graph" transform="scale(1 1) rotate(0) translate(4 127.62)">
<title>Graphical Class Hierarchy</title>
<!-- Node0 -->
<g id="Node000000" class="node">
<title>Node0</title>
<g id="a_Node000000"><a xlink:title=" ">
<polygon fill="#e0e0e0" stroke="#999999" points="34.75,-74.88 0,-74.88 0,-54.12 34.75,-54.12 34.75,-74.88"/>
<text text-anchor="middle" x="17.38" y="-61.38" font-family="Helvetica,sans-Serif" font-size="10.00">Any</text>
</a>
</g>
</g>
<!-- Node1 -->
<g id="Node000001" class="node">
<title>Node1</title>
<g id="a_Node000001"><a xlink:href="classdi_1_1execution_1_1AnyReceiverT_1_1Type.html" target="_top" xlink:title=" ">
<polygon fill="white" stroke="#666666" points="216.5,-123.62 70.75,-123.62 70.75,-77.38 216.5,-77.38 216.5,-123.62"/>
<text text-anchor="start" x="78.75" y="-110.12" font-family="Helvetica,sans-Serif" font-size="10.00">di::execution::AnyReceiver</text>
<text text-anchor="start" x="78.75" y="-97.38" font-family="Helvetica,sans-Serif" font-size="10.00">T&lt; Sigs, Env, Storage,</text>
<text text-anchor="middle" x="143.62" y="-84.62" font-family="Helvetica,sans-Serif" font-size="10.00"> VTablePolicy &gt;::Type</text>
</a>
</g>
</g>
<!-- Node0&#45;&gt;Node1 -->
<g id="edge1_Node000000_Node000001" class="edge">
<title>Node0&#45;&gt;Node1</title>
<g id="a_edge1_Node000000_Node000001"><a xlink:title=" ">
<path fill="none" stroke="#63b8ff" d="M46.16,-72.55C53.52,-74.68 61.81,-77.08 70.36,-79.56"/>
<polygon fill="#63b8ff" stroke="#63b8ff" points="47.16,-69.2 36.59,-69.78 45.22,-75.92 47.16,-69.2"/>
</a>
</g>
</g>
<!-- Node2 -->
<g id="Node000002" class="node">
<title>Node2</title>
<g id="a_Node000002"><a xlink:href="classdi_1_1execution_1_1AnySenderT_1_1Type.html" target="_top" xlink:title=" ">
<polygon fill="white" stroke="#666666" points="212,-59 75.25,-59 75.25,0 212,0 212,-59"/>
<text text-anchor="start" x="83.25" y="-45.5" font-family="Helvetica,sans-Serif" font-size="10.00">di::execution::AnySender</text>
<text text-anchor="start" x="83.25" y="-32.75" font-family="Helvetica,sans-Serif" font-size="10.00">T&lt; Sigs, Env, Storage,</text>
<text text-anchor="start" x="83.25" y="-20" font-family="Helvetica,sans-Serif" font-size="10.00"> VTablePolicy, Op, Rec</text>
<text text-anchor="middle" x="143.62" y="-7.25" font-family="Helvetica,sans-Serif" font-size="10.00"> &gt;::Type</text>
</a>
</g>
</g>
<!-- Node0&#45;&gt;Node2 -->
<g id="edge2_Node000000_Node000002" class="edge">
<title>Node0&#45;&gt;Node2</title>
<g id="a_edge2_Node000000_Node000002"><a xlink:title=" ">
<path fill="none" stroke="#63b8ff" d="M46.02,-56.71C54.68,-54.27 64.64,-51.47 74.81,-48.6"/>
<polygon fill="#63b8ff" stroke="#63b8ff" points="45.27,-53.29 36.59,-59.37 47.16,-60.03 45.27,-53.29"/>
</a>
</g>
</g>
</g>
</svg>
