<?xml version="1.0" encoding="UTF-8" standalone="no"?>
<!DOCTYPE svg PUBLIC "-//W3C//DTD SVG 1.1//EN"
 "http://www.w3.org/Graphics/SVG/1.1/DTD/svg11.dtd">
<!-- Generated by graphviz version 12.2.1 (0)
 -->
<!-- Title: Graphical Class Hierarchy Pages: 1 -->
<svg width="538pt" height="54pt"
 viewBox="0.00 0.00 537.50 54.25" xmlns="http://www.w3.org/2000/svg" xmlns:xlink="http://www.w3.org/1999/xlink">
<g id="graph0" class="graph" transform="scale(1 1) rotate(0) translate(4 50.25)">
<title>Graphical Class Hierarchy</title>
<!-- Node0 -->
<g id="Node000000" class="node">
<title>Node0</title>
<g id="a_Node000000"><a xlink:href="classdi_1_1meta_1_1EnableView.html" target="_top" xlink:title=" ">
<polygon fill="white" stroke="#666666" points="139,-46.25 0,-46.25 0,0 139,0 139,-46.25"/>
<text text-anchor="start" x="8" y="-32.75" font-family="Helvetica,sans-Serif" font-size="10.00">di::meta::EnableView</text>
<text text-anchor="start" x="8" y="-20" font-family="Helvetica,sans-Serif" font-size="10.00">&lt; TakeWhileView&lt; View,</text>
<text text-anchor="middle" x="69.5" y="-7.25" font-family="Helvetica,sans-Serif" font-size="10.00"> Pred &gt; &gt;</text>
</a>
</g>
</g>
<!-- Node1 -->
<g id="Node000001" class="node">
<title>Node1</title>
<g id="a_Node000001"><a xlink:href="classdi_1_1container_1_1ViewInterface.html" target="_top" xlink:title=" ">
<polygon fill="white" stroke="#666666" points="361.25,-39.88 175,-39.88 175,-6.38 361.25,-6.38 361.25,-39.88"/>
<text text-anchor="start" x="183" y="-26.38" font-family="Helvetica,sans-Serif" font-size="10.00">di::container::ViewInterface</text>
<text text-anchor="middle" x="268.12" y="-13.62" font-family="Helvetica,sans-Serif" font-size="10.00">&lt; TakeWhileView&lt; View, Pred &gt; &gt;</text>
</a>
</g>
</g>
<!-- Node0&#45;&gt;Node1 -->
<g id="edge850_Node000000_Node000001" class="edge">
<title>Node0&#45;&gt;Node1</title>
<g id="a_edge850_Node000000_Node000001"><a xlink:title=" ">
<path fill="none" stroke="#63b8ff" d="M150.66,-23.12C158.53,-23.12 166.57,-23.12 174.55,-23.12"/>
<polygon fill="#63b8ff" stroke="#63b8ff" points="150.78,-19.63 140.78,-23.13 150.78,-26.63 150.78,-19.63"/>
</a>
</g>
</g>
<!-- Node2 -->
<g id="Node000002" class="node">
<title>Node2</title>
<g id="a_Node000002"><a xlink:href="classdi_1_1container_1_1TakeWhileView.html" target="_top" xlink:title=" ">
<polygon fill="white" stroke="#666666" points="529.5,-39.88 397.25,-39.88 397.25,-6.38 529.5,-6.38 529.5,-39.88"/>
<text text-anchor="start" x="405.25" y="-26.38" font-family="Helvetica,sans-Serif" font-size="10.00">di::container::TakeWhile</text>
<text text-anchor="middle" x="463.38" y="-13.62" font-family="Helvetica,sans-Serif" font-size="10.00">View&lt; View, Pred &gt;</text>
</a>
</g>
</g>
<!-- Node1&#45;&gt;Node2 -->
<g id="edge851_Node000001_Node000002" class="edge">
<title>Node1&#45;&gt;Node2</title>
<g id="a_edge851_Node000001_Node000002"><a xlink:title=" ">
<path fill="none" stroke="#63b8ff" d="M372.98,-23.12C381.08,-23.12 389.11,-23.12 396.84,-23.12"/>
<polygon fill="#63b8ff" stroke="#63b8ff" points="373.02,-19.63 363.02,-23.13 373.02,-26.63 373.02,-19.63"/>
</a>
</g>
</g>
</g>
</svg>
