<?xml version="1.0" encoding="UTF-8" standalone="no"?>
<!DOCTYPE svg PUBLIC "-//W3C//DTD SVG 1.1//EN"
 "http://www.w3.org/Graphics/SVG/1.1/DTD/svg11.dtd">
<!-- Generated by graphviz version 10.0.1 (0)
 -->
<!-- Title: Graphical Class Hierarchy Pages: 1 -->
<svg width="536pt" height="298pt"
 viewBox="0.00 0.00 536.00 297.88" xmlns="http://www.w3.org/2000/svg" xmlns:xlink="http://www.w3.org/1999/xlink">
<g id="graph0" class="graph" transform="scale(1 1) rotate(0) translate(4 293.88)">
<title>Graphical Class Hierarchy</title>
<!-- Node0 -->
<g id="Node000000" class="node">
<title>Node0</title>
<g id="a_Node000000"><a xlink:href="structdi_1_1meta_1_1TypeConstant.html" target="_top" xlink:title=" ">
<polygon fill="white" stroke="#666666" points="128.5,-155.5 0,-155.5 0,-122 128.5,-122 128.5,-155.5"/>
<text text-anchor="start" x="8" y="-142" font-family="Helvetica,sans-Serif" font-size="10.00">di::meta::TypeConstant</text>
<text text-anchor="middle" x="64.25" y="-129.25" font-family="Helvetica,sans-Serif" font-size="10.00">&lt; void &gt;</text>
</a>
</g>
</g>
<!-- Node1 -->
<g id="Node000001" class="node">
<title>Node1</title>
<g id="a_Node000001"><a xlink:href="structdi_1_1meta_1_1detail_1_1CommonComparisonCategoryHelper.html" target="_top" xlink:title=" ">
<polygon fill="white" stroke="#666666" points="324.88,-289.88 173.88,-289.88 173.88,-243.62 324.88,-243.62 324.88,-289.88"/>
<text text-anchor="start" x="181.88" y="-276.38" font-family="Helvetica,sans-Serif" font-size="10.00">di::meta::detail::Common</text>
<text text-anchor="start" x="181.88" y="-263.62" font-family="Helvetica,sans-Serif" font-size="10.00">ComparisonCategoryHelper</text>
<text text-anchor="middle" x="249.38" y="-250.88" font-family="Helvetica,sans-Serif" font-size="10.00">&lt; Types... &gt;</text>
</a>
</g>
</g>
<!-- Node0&#45;&gt;Node1 -->
<g id="edge597_Node000000_Node000001" class="edge">
<title>Node0&#45;&gt;Node1</title>
<g id="a_edge597_Node000000_Node000001"><a xlink:title=" ">
<path fill="none" stroke="#63b8ff" d="M86.42,-164.36C105.11,-185.61 134.06,-215.38 164.5,-234.75 169.23,-237.76 174.3,-240.56 179.5,-243.14"/>
<polygon fill="#63b8ff" stroke="#63b8ff" points="89.23,-162.26 80.05,-156.97 83.93,-166.83 89.23,-162.26"/>
</a>
</g>
</g>
<!-- Node3 -->
<g id="Node000003" class="node">
<title>Node3</title>
<g id="a_Node000003"><a xlink:href="structdi_1_1execution_1_1into__result__ns_1_1ResultTypeConcatImplHelper_3_4.html" target="_top" xlink:title=" ">
<polygon fill="white" stroke="#666666" points="328.62,-225.88 170.12,-225.88 170.12,-179.62 328.62,-179.62 328.62,-225.88"/>
<text text-anchor="start" x="178.12" y="-212.38" font-family="Helvetica,sans-Serif" font-size="10.00">di::execution::into</text>
<text text-anchor="start" x="178.12" y="-199.62" font-family="Helvetica,sans-Serif" font-size="10.00">_result_ns::ResultTypeConcat</text>
<text text-anchor="middle" x="249.38" y="-186.88" font-family="Helvetica,sans-Serif" font-size="10.00">ImplHelper&lt;&gt;</text>
</a>
</g>
</g>
<!-- Node0&#45;&gt;Node3 -->
<g id="edge599_Node000000_Node000003" class="edge">
<title>Node0&#45;&gt;Node3</title>
<g id="a_edge599_Node000000_Node000003"><a xlink:title=" ">
<path fill="none" stroke="#63b8ff" d="M125.16,-159.69C142.99,-165.92 162.64,-172.79 180.92,-179.18"/>
<polygon fill="#63b8ff" stroke="#63b8ff" points="126.35,-156.4 115.75,-156.4 124.04,-163 126.35,-156.4"/>
</a>
</g>
</g>
<!-- Node4 -->
<g id="Node000004" class="node">
<title>Node4</title>
<g id="a_Node000004"><a xlink:href="structdi_1_1execution_1_1into__result__ns_1_1ResultTypeImplHelper_3_4.html" target="_top" xlink:title=" ">
<polygon fill="white" stroke="#666666" points="322.62,-161.88 176.12,-161.88 176.12,-115.62 322.62,-115.62 322.62,-161.88"/>
<text text-anchor="start" x="184.12" y="-148.38" font-family="Helvetica,sans-Serif" font-size="10.00">di::execution::into</text>
<text text-anchor="start" x="184.12" y="-135.62" font-family="Helvetica,sans-Serif" font-size="10.00">_result_ns::ResultTypeImpl</text>
<text text-anchor="middle" x="249.38" y="-122.88" font-family="Helvetica,sans-Serif" font-size="10.00">Helper&lt;&gt;</text>
</a>
</g>
</g>
<!-- Node0&#45;&gt;Node4 -->
<g id="edge600_Node000000_Node000004" class="edge">
<title>Node0&#45;&gt;Node4</title>
<g id="a_edge600_Node000000_Node000004"><a xlink:title=" ">
<path fill="none" stroke="#63b8ff" d="M139.99,-138.75C151.83,-138.75 164.06,-138.75 175.85,-138.75"/>
<polygon fill="#63b8ff" stroke="#63b8ff" points="140.3,-135.25 130.3,-138.75 140.3,-142.25 140.3,-135.25"/>
</a>
</g>
</g>
<!-- Node5 -->
<g id="Node000005" class="node">
<title>Node5</title>
<g id="a_Node000005"><a xlink:href="structdi_1_1meta_1_1detail_1_1CommonComparisonCategoryHelper.html" target="_top" xlink:title=" ">
<polygon fill="white" stroke="#666666" points="324.88,-97.88 173.88,-97.88 173.88,-51.62 324.88,-51.62 324.88,-97.88"/>
<text text-anchor="start" x="181.88" y="-84.38" font-family="Helvetica,sans-Serif" font-size="10.00">di::meta::detail::Common</text>
<text text-anchor="start" x="181.88" y="-71.62" font-family="Helvetica,sans-Serif" font-size="10.00">ComparisonCategoryHelper</text>
<text text-anchor="middle" x="249.38" y="-58.88" font-family="Helvetica,sans-Serif" font-size="10.00">&lt; Types &gt;</text>
</a>
</g>
</g>
<!-- Node0&#45;&gt;Node5 -->
<g id="edge601_Node000000_Node000005" class="edge">
<title>Node0&#45;&gt;Node5</title>
<g id="a_edge601_Node000000_Node000005"><a xlink:title=" ">
<path fill="none" stroke="#63b8ff" d="M125.16,-117.81C142.99,-111.58 162.64,-104.71 180.92,-98.32"/>
<polygon fill="#63b8ff" stroke="#63b8ff" points="124.04,-114.5 115.75,-121.1 126.35,-121.1 124.04,-114.5"/>
</a>
</g>
</g>
<!-- Node6 -->
<g id="Node000006" class="node">
<title>Node6</title>
<g id="a_Node000006"><a xlink:href="structdi_1_1meta_1_1detail_1_1CompareThreeWayResultHelper.html" target="_top" xlink:title=" ">
<polygon fill="white" stroke="#666666" points="334.25,-33.5 164.5,-33.5 164.5,0 334.25,0 334.25,-33.5"/>
<text text-anchor="start" x="172.5" y="-20" font-family="Helvetica,sans-Serif" font-size="10.00">di::meta::detail::Compare</text>
<text text-anchor="middle" x="249.38" y="-7.25" font-family="Helvetica,sans-Serif" font-size="10.00">ThreeWayResultHelper&lt; T, U &gt;</text>
</a>
</g>
</g>
<!-- Node0&#45;&gt;Node6 -->
<g id="edge602_Node000000_Node000006" class="edge">
<title>Node0&#45;&gt;Node6</title>
<g id="a_edge602_Node000000_Node000006"><a xlink:title=" ">
<path fill="none" stroke="#63b8ff" d="M85.79,-113.02C104.28,-91.43 133.28,-61.24 164.5,-42.75 170.14,-39.41 176.25,-36.46 182.52,-33.86"/>
<polygon fill="#63b8ff" stroke="#63b8ff" points="83.24,-110.61 79.5,-120.52 88.61,-115.1 83.24,-110.61"/>
</a>
</g>
</g>
<!-- Node2 -->
<g id="Node000002" class="node">
<title>Node2</title>
<g id="a_Node000002"><a xlink:href="structdi_1_1meta_1_1detail_1_1CommonComparisonCategoryHelper_3_01strong__ordering_00_01Types_8_8_8_01_4.html" target="_top" xlink:title=" ">
<polygon fill="white" stroke="#666666" points="528,-289.88 370.25,-289.88 370.25,-243.62 528,-243.62 528,-289.88"/>
<text text-anchor="start" x="378.25" y="-276.38" font-family="Helvetica,sans-Serif" font-size="10.00">di::meta::detail::Common</text>
<text text-anchor="start" x="378.25" y="-263.62" font-family="Helvetica,sans-Serif" font-size="10.00">ComparisonCategoryHelper</text>
<text text-anchor="middle" x="449.12" y="-250.88" font-family="Helvetica,sans-Serif" font-size="10.00">&lt; strong_ordering, Types... &gt;</text>
</a>
</g>
</g>
<!-- Node1&#45;&gt;Node2 -->
<g id="edge598_Node000001_Node000002" class="edge">
<title>Node1&#45;&gt;Node2</title>
<g id="a_edge598_Node000001_Node000002"><a xlink:title=" ">
<path fill="none" stroke="#63b8ff" d="M336.6,-266.75C347.69,-266.75 359.01,-266.75 369.96,-266.75"/>
<polygon fill="#63b8ff" stroke="#63b8ff" points="336.65,-263.25 326.65,-266.75 336.65,-270.25 336.65,-263.25"/>
</a>
</g>
</g>
</g>
</svg>
