<?xml version="1.0" encoding="UTF-8" standalone="no"?>
<!DOCTYPE svg PUBLIC "-//W3C//DTD SVG 1.1//EN"
 "http://www.w3.org/Graphics/SVG/1.1/DTD/svg11.dtd">
<!-- Generated by graphviz version 10.0.1 (0)
 -->
<!-- Title: Graphical Class Hierarchy Pages: 1 -->
<svg width="329pt" height="1220pt"
 viewBox="0.00 0.00 328.75 1220.25" xmlns="http://www.w3.org/2000/svg" xmlns:xlink="http://www.w3.org/1999/xlink">
<g id="graph0" class="graph" transform="scale(1 1) rotate(0) translate(4 1216.25)">
<title>Graphical Class Hierarchy</title>
<!-- Node0 -->
<g id="Node000000" class="node">
<title>Node0</title>
<g id="a_Node000000"><a xlink:title=" ">
<polygon fill="#e0e0e0" stroke="#999999" points="97,-609.5 0,-609.5 0,-588.75 97,-588.75 97,-609.5"/>
<text text-anchor="middle" x="48.5" y="-596" font-family="Helvetica,sans-Serif" font-size="10.00">ReceiverAdaptor</text>
</a>
</g>
</g>
<!-- Node1 -->
<g id="Node000001" class="node">
<title>Node1</title>
<g id="a_Node000001"><a xlink:href="structdi_1_1execution_1_1bulk__ns_1_1ReceiverT_1_1Type.html" target="_top" xlink:title=" ">
<polygon fill="white" stroke="#666666" points="292.62,-1212.25 161.12,-1212.25 161.12,-1166 292.62,-1166 292.62,-1212.25"/>
<text text-anchor="start" x="169.12" y="-1198.75" font-family="Helvetica,sans-Serif" font-size="10.00">di::execution::bulk</text>
<text text-anchor="start" x="169.12" y="-1186" font-family="Helvetica,sans-Serif" font-size="10.00">_ns::ReceiverT&lt; Shape,</text>
<text text-anchor="middle" x="226.88" y="-1173.25" font-family="Helvetica,sans-Serif" font-size="10.00"> Function, Rec &gt;::Type</text>
</a>
</g>
</g>
<!-- Node0&#45;&gt;Node1 -->
<g id="edge929_Node000000_Node000001" class="edge">
<title>Node0&#45;&gt;Node1</title>
<g id="a_edge929_Node000000_Node000001"><a xlink:title=" ">
<path fill="none" stroke="#63b8ff" d="M49.83,-620.94C51.68,-713.57 63.31,-1073.33 133,-1157.12 140.31,-1165.91 150.15,-1172.29 160.7,-1176.92"/>
<polygon fill="#63b8ff" stroke="#63b8ff" points="53.34,-621.15 49.66,-611.22 46.34,-621.28 53.34,-621.15"/>
</a>
</g>
</g>
<!-- Node2 -->
<g id="Node000002" class="node">
<title>Node2</title>
<g id="a_Node000002"><a xlink:href="structdi_1_1execution_1_1counting__scope__ns_1_1NestReceiverT_1_1Type.html" target="_top" xlink:title=" ">
<polygon fill="white" stroke="#666666" points="298.62,-1148.25 155.12,-1148.25 155.12,-1102 298.62,-1102 298.62,-1148.25"/>
<text text-anchor="start" x="163.12" y="-1134.75" font-family="Helvetica,sans-Serif" font-size="10.00">di::execution::counting</text>
<text text-anchor="start" x="163.12" y="-1122" font-family="Helvetica,sans-Serif" font-size="10.00">_scope_ns::NestReceiverT</text>
<text text-anchor="middle" x="226.88" y="-1109.25" font-family="Helvetica,sans-Serif" font-size="10.00">&lt; Alloc, Rec &gt;::Type</text>
</a>
</g>
</g>
<!-- Node0&#45;&gt;Node2 -->
<g id="edge930_Node000000_Node000002" class="edge">
<title>Node0&#45;&gt;Node2</title>
<g id="a_edge930_Node000000_Node000002"><a xlink:title=" ">
<path fill="none" stroke="#63b8ff" d="M50.31,-621.12C53.9,-707.21 71.07,-1020.08 133,-1093.12 138.96,-1100.15 146.53,-1105.63 154.78,-1109.92"/>
<polygon fill="#63b8ff" stroke="#63b8ff" points="53.81,-621.09 49.92,-611.23 46.82,-621.37 53.81,-621.09"/>
</a>
</g>
</g>
<!-- Node3 -->
<g id="Node000003" class="node">
<title>Node3</title>
<g id="a_Node000003"><a xlink:href="structdi_1_1execution_1_1filter__ns_1_1FinalReceiverT_1_1Type.html" target="_top" xlink:title=" ">
<polygon fill="white" stroke="#666666" points="298.25,-1084.25 155.5,-1084.25 155.5,-1038 298.25,-1038 298.25,-1084.25"/>
<text text-anchor="start" x="163.5" y="-1070.75" font-family="Helvetica,sans-Serif" font-size="10.00">di::execution::filter</text>
<text text-anchor="start" x="163.5" y="-1058" font-family="Helvetica,sans-Serif" font-size="10.00">_ns::FinalReceiverT&lt;</text>
<text text-anchor="middle" x="226.88" y="-1045.25" font-family="Helvetica,sans-Serif" font-size="10.00"> Send, Fun, Rec, R &gt;::Type</text>
</a>
</g>
</g>
<!-- Node0&#45;&gt;Node3 -->
<g id="edge931_Node000000_Node000003" class="edge">
<title>Node0&#45;&gt;Node3</title>
<g id="a_edge931_Node000000_Node000003"><a xlink:title=" ">
<path fill="none" stroke="#63b8ff" d="M50.92,-621.25C56.43,-700.21 78.78,-966.73 133,-1029.12 139.15,-1036.21 146.95,-1041.72 155.4,-1046.02"/>
<polygon fill="#63b8ff" stroke="#63b8ff" points="54.42,-621.13 50.26,-611.39 47.44,-621.6 54.42,-621.13"/>
</a>
</g>
</g>
<!-- Node4 -->
<g id="Node000004" class="node">
<title>Node4</title>
<g id="a_Node000004"><a xlink:href="structdi_1_1execution_1_1filter__ns_1_1IntermediateReceiverT_1_1Type.html" target="_top" xlink:title=" ">
<polygon fill="white" stroke="#666666" points="302.38,-1020.25 151.38,-1020.25 151.38,-974 302.38,-974 302.38,-1020.25"/>
<text text-anchor="start" x="159.38" y="-1006.75" font-family="Helvetica,sans-Serif" font-size="10.00">di::execution::filter</text>
<text text-anchor="start" x="159.38" y="-994" font-family="Helvetica,sans-Serif" font-size="10.00">_ns::IntermediateReceiverT</text>
<text text-anchor="middle" x="226.88" y="-981.25" font-family="Helvetica,sans-Serif" font-size="10.00">&lt; Send, Fun, Rec, R &gt;::Type</text>
</a>
</g>
</g>
<!-- Node0&#45;&gt;Node4 -->
<g id="edge932_Node000000_Node000004" class="edge">
<title>Node0&#45;&gt;Node4</title>
<g id="a_edge932_Node000000_Node000004"><a xlink:title=" ">
<path fill="none" stroke="#63b8ff" d="M51.72,-621.09C59.32,-691.99 86.37,-913.19 133,-965.12 138.13,-970.84 144.32,-975.53 151.05,-979.38"/>
<polygon fill="#63b8ff" stroke="#63b8ff" points="55.21,-620.76 50.69,-611.18 48.25,-621.49 55.21,-620.76"/>
</a>
</g>
</g>
<!-- Node5 -->
<g id="Node000005" class="node">
<title>Node5</title>
<g id="a_Node000005"><a xlink:href="structdi_1_1execution_1_1filter__ns_1_1ItemReceiverT_1_1Type.html" target="_top" xlink:title=" ">
<polygon fill="white" stroke="#666666" points="300.88,-956.25 152.88,-956.25 152.88,-910 300.88,-910 300.88,-956.25"/>
<text text-anchor="start" x="160.88" y="-942.75" font-family="Helvetica,sans-Serif" font-size="10.00">di::execution::filter</text>
<text text-anchor="start" x="160.88" y="-930" font-family="Helvetica,sans-Serif" font-size="10.00">_ns::ItemReceiverT&lt; Send,</text>
<text text-anchor="middle" x="226.88" y="-917.25" font-family="Helvetica,sans-Serif" font-size="10.00"> Fun, Rec, R &gt;::Type</text>
</a>
</g>
</g>
<!-- Node0&#45;&gt;Node5 -->
<g id="edge933_Node000000_Node000005" class="edge">
<title>Node0&#45;&gt;Node5</title>
<g id="a_edge933_Node000000_Node000005"><a xlink:title=" ">
<path fill="none" stroke="#63b8ff" d="M49.03,-621.33C49.09,-676.31 56.95,-820.21 133,-901.12 138.61,-907.09 145.38,-911.94 152.67,-915.89"/>
<polygon fill="#63b8ff" stroke="#63b8ff" points="52.53,-621.44 49.12,-611.41 45.53,-621.38 52.53,-621.44"/>
</a>
</g>
</g>
<!-- Node6 -->
<g id="Node000006" class="node">
<title>Node6</title>
<g id="a_Node000006"><a xlink:href="structdi_1_1execution_1_1filter__ns_1_1ReceiverT_1_1Type.html" target="_top" xlink:title=" ">
<polygon fill="white" stroke="#666666" points="286.25,-892.25 167.5,-892.25 167.5,-846 286.25,-846 286.25,-892.25"/>
<text text-anchor="start" x="175.5" y="-878.75" font-family="Helvetica,sans-Serif" font-size="10.00">di::execution::filter</text>
<text text-anchor="start" x="175.5" y="-866" font-family="Helvetica,sans-Serif" font-size="10.00">_ns::ReceiverT&lt; Fun,</text>
<text text-anchor="middle" x="226.88" y="-853.25" font-family="Helvetica,sans-Serif" font-size="10.00"> Rec &gt;::Type</text>
</a>
</g>
</g>
<!-- Node0&#45;&gt;Node6 -->
<g id="edge934_Node000000_Node000006" class="edge">
<title>Node0&#45;&gt;Node6</title>
<g id="a_edge934_Node000000_Node000006"><a xlink:title=" ">
<path fill="none" stroke="#63b8ff" d="M50.99,-621.22C55.29,-667.67 71.7,-776.16 133,-837.12 142.43,-846.5 154.74,-853.14 167.29,-857.83"/>
<polygon fill="#63b8ff" stroke="#63b8ff" points="54.48,-621.05 50.19,-611.36 47.51,-621.61 54.48,-621.05"/>
</a>
</g>
</g>
<!-- Node7 -->
<g id="Node000007" class="node">
<title>Node7</title>
<g id="a_Node000007"><a xlink:href="structdi_1_1execution_1_1first__value__ns_1_1NextReceiverT_1_1Type.html" target="_top" xlink:title=" ">
<polygon fill="white" stroke="#666666" points="302.38,-828.25 151.38,-828.25 151.38,-782 302.38,-782 302.38,-828.25"/>
<text text-anchor="start" x="159.38" y="-814.75" font-family="Helvetica,sans-Serif" font-size="10.00">di::execution::first</text>
<text text-anchor="start" x="159.38" y="-802" font-family="Helvetica,sans-Serif" font-size="10.00">_value_ns::NextReceiverT</text>
<text text-anchor="middle" x="226.88" y="-789.25" font-family="Helvetica,sans-Serif" font-size="10.00">&lt; Seq, Rec, Next, R &gt;::Type</text>
</a>
</g>
</g>
<!-- Node0&#45;&gt;Node7 -->
<g id="edge935_Node000000_Node000007" class="edge">
<title>Node0&#45;&gt;Node7</title>
<g id="a_edge935_Node000000_Node000007"><a xlink:title=" ">
<path fill="none" stroke="#63b8ff" d="M54.12,-620.7C63.03,-657.21 86.02,-731.28 133,-773.12 138.35,-777.89 144.44,-781.95 150.89,-785.41"/>
<polygon fill="#63b8ff" stroke="#63b8ff" points="57.62,-620.29 51.96,-611.33 50.8,-621.86 57.62,-620.29"/>
</a>
</g>
</g>
<!-- Node8 -->
<g id="Node000008" class="node">
<title>Node8</title>
<g id="a_Node000008"><a xlink:href="structdi_1_1execution_1_1ignore__all__ns_1_1NextReceiverT_1_1Type.html" target="_top" xlink:title=" ">
<polygon fill="white" stroke="#666666" points="299.75,-763.62 154,-763.62 154,-704.62 299.75,-704.62 299.75,-763.62"/>
<text text-anchor="start" x="162" y="-750.12" font-family="Helvetica,sans-Serif" font-size="10.00">di::execution::ignore</text>
<text text-anchor="start" x="162" y="-737.38" font-family="Helvetica,sans-Serif" font-size="10.00">_all_ns::NextReceiverT</text>
<text text-anchor="start" x="162" y="-724.62" font-family="Helvetica,sans-Serif" font-size="10.00">&lt; Seq, Rec, Next, NextRec</text>
<text text-anchor="middle" x="226.88" y="-711.88" font-family="Helvetica,sans-Serif" font-size="10.00"> &gt;::Type</text>
</a>
</g>
</g>
<!-- Node0&#45;&gt;Node8 -->
<g id="edge936_Node000000_Node000008" class="edge">
<title>Node0&#45;&gt;Node8</title>
<g id="a_edge936_Node000000_Node000008"><a xlink:title=" ">
<path fill="none" stroke="#63b8ff" d="M62.69,-619.13C77.59,-640.41 103.62,-673.87 133,-695.12 139.38,-699.74 146.38,-703.93 153.6,-707.72"/>
<polygon fill="#63b8ff" stroke="#63b8ff" points="65.68,-617.31 57.16,-611.02 59.9,-621.25 65.68,-617.31"/>
</a>
</g>
</g>
<!-- Node9 -->
<g id="Node000009" class="node">
<title>Node9</title>
<g id="a_Node000009"><a xlink:href="structdi_1_1execution_1_1ignore__all__ns_1_1ReceiverT_1_1Type.html" target="_top" xlink:title=" ">
<polygon fill="white" stroke="#666666" points="295.25,-686.25 158.5,-686.25 158.5,-640 295.25,-640 295.25,-686.25"/>
<text text-anchor="start" x="166.5" y="-672.75" font-family="Helvetica,sans-Serif" font-size="10.00">di::execution::ignore</text>
<text text-anchor="start" x="166.5" y="-660" font-family="Helvetica,sans-Serif" font-size="10.00">_all_ns::ReceiverT&lt; Seq,</text>
<text text-anchor="middle" x="226.88" y="-647.25" font-family="Helvetica,sans-Serif" font-size="10.00"> Rec &gt;::Type</text>
</a>
</g>
</g>
<!-- Node0&#45;&gt;Node9 -->
<g id="edge937_Node000000_Node000009" class="edge">
<title>Node0&#45;&gt;Node9</title>
<g id="a_edge937_Node000000_Node000009"><a xlink:title=" ">
<path fill="none" stroke="#63b8ff" d="M87.31,-613.93C101.59,-619.44 118,-625.67 133,-631.12 141.09,-634.07 149.61,-637.1 158.06,-640.06"/>
<polygon fill="#63b8ff" stroke="#63b8ff" points="88.87,-610.78 78.28,-610.43 86.34,-617.31 88.87,-610.78"/>
</a>
</g>
</g>
<!-- Node10 -->
<g id="Node000010" class="node">
<title>Node10</title>
<g id="a_Node000010"><a xlink:href="structdi_1_1execution_1_1into__result__ns_1_1ReceiverT_1_1Type.html" target="_top" xlink:title=" ">
<polygon fill="white" stroke="#666666" points="287.75,-622.25 166,-622.25 166,-576 287.75,-576 287.75,-622.25"/>
<text text-anchor="start" x="174" y="-608.75" font-family="Helvetica,sans-Serif" font-size="10.00">di::execution::into</text>
<text text-anchor="start" x="174" y="-596" font-family="Helvetica,sans-Serif" font-size="10.00">_result_ns::ReceiverT</text>
<text text-anchor="middle" x="226.88" y="-583.25" font-family="Helvetica,sans-Serif" font-size="10.00">&lt; Result, Rec &gt;::Type</text>
</a>
</g>
</g>
<!-- Node0&#45;&gt;Node10 -->
<g id="edge938_Node000000_Node000010" class="edge">
<title>Node0&#45;&gt;Node10</title>
<g id="a_edge938_Node000000_Node000010"><a xlink:title=" ">
<path fill="none" stroke="#63b8ff" d="M108.7,-599.12C127.08,-599.12 147.35,-599.12 165.79,-599.12"/>
<polygon fill="#63b8ff" stroke="#63b8ff" points="108.74,-595.63 98.74,-599.13 108.74,-602.63 108.74,-595.63"/>
</a>
</g>
</g>
<!-- Node11 -->
<g id="Node000011" class="node">
<title>Node11</title>
<g id="a_Node000011"><a xlink:href="structdi_1_1execution_1_1into__variant__ns_1_1ReceiverT_1_1Type.html" target="_top" xlink:title=" ">
<polygon fill="white" stroke="#666666" points="290.38,-558.25 163.38,-558.25 163.38,-512 290.38,-512 290.38,-558.25"/>
<text text-anchor="start" x="171.38" y="-544.75" font-family="Helvetica,sans-Serif" font-size="10.00">di::execution::into</text>
<text text-anchor="start" x="171.38" y="-532" font-family="Helvetica,sans-Serif" font-size="10.00">_variant_ns::ReceiverT</text>
<text text-anchor="middle" x="226.88" y="-519.25" font-family="Helvetica,sans-Serif" font-size="10.00">&lt; Value, Rec &gt;::Type</text>
</a>
</g>
</g>
<!-- Node0&#45;&gt;Node11 -->
<g id="edge939_Node000000_Node000011" class="edge">
<title>Node0&#45;&gt;Node11</title>
<g id="a_edge939_Node000000_Node000011"><a xlink:title=" ">
<path fill="none" stroke="#63b8ff" d="M87.31,-584.32C101.59,-578.81 118,-572.58 133,-567.12 142.78,-563.57 153.17,-559.89 163.32,-556.35"/>
<polygon fill="#63b8ff" stroke="#63b8ff" points="86.34,-580.94 78.28,-587.82 88.87,-587.47 86.34,-580.94"/>
</a>
</g>
</g>
<!-- Node12 -->
<g id="Node000012" class="node">
<title>Node12</title>
<g id="a_Node000012"><a xlink:href="structdi_1_1execution_1_1on__ns_1_1ReceiverT_1_1Type.html" target="_top" xlink:title=" ">
<polygon fill="white" stroke="#666666" points="293.38,-494.25 160.38,-494.25 160.38,-448 293.38,-448 293.38,-494.25"/>
<text text-anchor="start" x="168.38" y="-480.75" font-family="Helvetica,sans-Serif" font-size="10.00">di::execution::on_ns</text>
<text text-anchor="start" x="168.38" y="-468" font-family="Helvetica,sans-Serif" font-size="10.00">::ReceiverT&lt; Send, Rec,</text>
<text text-anchor="middle" x="226.88" y="-455.25" font-family="Helvetica,sans-Serif" font-size="10.00"> Sched &gt;::Type</text>
</a>
</g>
</g>
<!-- Node0&#45;&gt;Node12 -->
<g id="edge940_Node000000_Node000012" class="edge">
<title>Node0&#45;&gt;Node12</title>
<g id="a_edge940_Node000000_Node000012"><a xlink:title=" ">
<path fill="none" stroke="#63b8ff" d="M62.43,-578.74C77.1,-557.14 102.94,-523.4 133,-503.12 141.34,-497.5 150.77,-492.77 160.35,-488.81"/>
<polygon fill="#63b8ff" stroke="#63b8ff" points="59.57,-576.72 56.98,-587 65.41,-580.58 59.57,-576.72"/>
</a>
</g>
</g>
<!-- Node13 -->
<g id="Node000013" class="node">
<title>Node13</title>
<g id="a_Node000013"><a xlink:href="structdi_1_1execution_1_1on__ns_1_1ReceiverWithEnvT_1_1Type.html" target="_top" xlink:title=" ">
<polygon fill="white" stroke="#666666" points="301.62,-430.25 152.12,-430.25 152.12,-384 301.62,-384 301.62,-430.25"/>
<text text-anchor="start" x="160.12" y="-416.75" font-family="Helvetica,sans-Serif" font-size="10.00">di::execution::on_ns</text>
<text text-anchor="start" x="160.12" y="-404" font-family="Helvetica,sans-Serif" font-size="10.00">::ReceiverWithEnvT&lt; Send,</text>
<text text-anchor="middle" x="226.88" y="-391.25" font-family="Helvetica,sans-Serif" font-size="10.00"> Rec, Sched &gt;::Type</text>
</a>
</g>
</g>
<!-- Node0&#45;&gt;Node13 -->
<g id="edge941_Node000000_Node000013" class="edge">
<title>Node0&#45;&gt;Node13</title>
<g id="a_edge941_Node000000_Node000013"><a xlink:title=" ">
<path fill="none" stroke="#63b8ff" d="M55.17,-577.4C65.19,-543.2 89.22,-476.81 133,-439.12 138.69,-434.23 145.16,-430.07 151.99,-426.54"/>
<polygon fill="#63b8ff" stroke="#63b8ff" points="51.82,-576.4 52.51,-586.98 58.56,-578.28 51.82,-576.4"/>
</a>
</g>
</g>
<!-- Node14 -->
<g id="Node000014" class="node">
<title>Node14</title>
<g id="a_Node000014"><a xlink:href="structdi_1_1execution_1_1repeat__effect__until__ns_1_1ReceiverT_1_1Type.html" target="_top" xlink:title=" ">
<polygon fill="white" stroke="#666666" points="300.5,-366.25 153.25,-366.25 153.25,-320 300.5,-320 300.5,-366.25"/>
<text text-anchor="start" x="161.25" y="-352.75" font-family="Helvetica,sans-Serif" font-size="10.00">di::execution::repeat</text>
<text text-anchor="start" x="161.25" y="-340" font-family="Helvetica,sans-Serif" font-size="10.00">_effect_until_ns::ReceiverT</text>
<text text-anchor="middle" x="226.88" y="-327.25" font-family="Helvetica,sans-Serif" font-size="10.00">&lt; Send, Rec, Pred &gt;::Type</text>
</a>
</g>
</g>
<!-- Node0&#45;&gt;Node14 -->
<g id="edge942_Node000000_Node000014" class="edge">
<title>Node0&#45;&gt;Node14</title>
<g id="a_edge942_Node000000_Node000014"><a xlink:title=" ">
<path fill="none" stroke="#63b8ff" d="M51.54,-577.12C56.81,-532.73 74.86,-431.83 133,-375.12 138.86,-369.41 145.79,-364.71 153.18,-360.85"/>
<polygon fill="#63b8ff" stroke="#63b8ff" points="48.06,-576.7 50.48,-587.02 55.02,-577.45 48.06,-576.7"/>
</a>
</g>
</g>
<!-- Node15 -->
<g id="Node000015" class="node">
<title>Node15</title>
<g id="a_Node000015"><a xlink:href="structdi_1_1execution_1_1schedule__from__ns_1_1ReceiverT_1_1Type.html" target="_top" xlink:title=" ">
<polygon fill="white" stroke="#666666" points="304.62,-302.25 149.12,-302.25 149.12,-256 304.62,-256 304.62,-302.25"/>
<text text-anchor="start" x="157.12" y="-288.75" font-family="Helvetica,sans-Serif" font-size="10.00">di::execution::schedule</text>
<text text-anchor="start" x="157.12" y="-276" font-family="Helvetica,sans-Serif" font-size="10.00">_from_ns::ReceiverT&lt; Rec,</text>
<text text-anchor="middle" x="226.88" y="-263.25" font-family="Helvetica,sans-Serif" font-size="10.00"> Sched, Completions &gt;::Type</text>
</a>
</g>
</g>
<!-- Node0&#45;&gt;Node15 -->
<g id="edge943_Node000000_Node000015" class="edge">
<title>Node0&#45;&gt;Node15</title>
<g id="a_edge943_Node000000_Node000015"><a xlink:title=" ">
<path fill="none" stroke="#63b8ff" d="M49.39,-576.87C50.35,-523.62 60.23,-387.6 133,-311.12 137.59,-306.31 142.93,-302.21 148.69,-298.74"/>
<polygon fill="#63b8ff" stroke="#63b8ff" points="45.89,-576.74 49.32,-586.77 52.89,-576.79 45.89,-576.74"/>
</a>
</g>
</g>
<!-- Node16 -->
<g id="Node000016" class="node">
<title>Node16</title>
<g id="a_Node000016"><a xlink:href="structdi_1_1execution_1_1schedule__from__ns_1_1ScheduleReceiverT_1_1Type.html" target="_top" xlink:title=" ">
<polygon fill="white" stroke="#666666" points="320.75,-238.25 133,-238.25 133,-192 320.75,-192 320.75,-238.25"/>
<text text-anchor="start" x="141" y="-224.75" font-family="Helvetica,sans-Serif" font-size="10.00">di::execution::schedule</text>
<text text-anchor="start" x="141" y="-212" font-family="Helvetica,sans-Serif" font-size="10.00">_from_ns::ScheduleReceiverT</text>
<text text-anchor="middle" x="226.88" y="-199.25" font-family="Helvetica,sans-Serif" font-size="10.00">&lt; Rec, Sched, Completions &gt;::Type</text>
</a>
</g>
</g>
<!-- Node0&#45;&gt;Node16 -->
<g id="edge944_Node000000_Node000016" class="edge">
<title>Node0&#45;&gt;Node16</title>
<g id="a_edge944_Node000000_Node000016"><a xlink:title=" ">
<path fill="none" stroke="#63b8ff" d="M51.95,-577.09C60.05,-507.91 88.05,-296.76 133,-247.12 135.86,-243.96 139.05,-241.12 142.48,-238.55"/>
<polygon fill="#63b8ff" stroke="#63b8ff" points="48.5,-576.44 50.84,-586.78 55.45,-577.24 48.5,-576.44"/>
</a>
</g>
</g>
<!-- Node17 -->
<g id="Node000017" class="node">
<title>Node17</title>
<g id="a_Node000017"><a xlink:href="structdi_1_1execution_1_1transform__each__ns_1_1ReceiverT_1_1Type.html" target="_top" xlink:title=" ">
<polygon fill="white" stroke="#666666" points="300.5,-174.25 153.25,-174.25 153.25,-128 300.5,-128 300.5,-174.25"/>
<text text-anchor="start" x="161.25" y="-160.75" font-family="Helvetica,sans-Serif" font-size="10.00">di::execution::transform</text>
<text text-anchor="start" x="161.25" y="-148" font-family="Helvetica,sans-Serif" font-size="10.00">_each_ns::ReceiverT&lt; Fun,</text>
<text text-anchor="middle" x="226.88" y="-135.25" font-family="Helvetica,sans-Serif" font-size="10.00"> Rec &gt;::Type</text>
</a>
</g>
</g>
<!-- Node0&#45;&gt;Node17 -->
<g id="edge945_Node000000_Node000017" class="edge">
<title>Node0&#45;&gt;Node17</title>
<g id="a_edge945_Node000000_Node000017"><a xlink:title=" ">
<path fill="none" stroke="#63b8ff" d="M51.07,-577.21C56.99,-500.18 80.41,-243.27 133,-183.12 138.61,-176.71 145.58,-171.57 153.15,-167.47"/>
<polygon fill="#63b8ff" stroke="#63b8ff" points="47.6,-576.6 50.35,-586.83 54.58,-577.12 47.6,-576.6"/>
</a>
</g>
</g>
<!-- Node18 -->
<g id="Node000018" class="node">
<title>Node18</title>
<g id="a_Node000018"><a xlink:href="structdi_1_1execution_1_1with__env__ns_1_1ReceiverT_1_1Type.html" target="_top" xlink:title=" ">
<polygon fill="white" stroke="#666666" points="286.25,-110.25 167.5,-110.25 167.5,-64 286.25,-64 286.25,-110.25"/>
<text text-anchor="start" x="175.5" y="-96.75" font-family="Helvetica,sans-Serif" font-size="10.00">di::execution::with</text>
<text text-anchor="start" x="175.5" y="-84" font-family="Helvetica,sans-Serif" font-size="10.00">_env_ns::ReceiverT&lt;</text>
<text text-anchor="middle" x="226.88" y="-71.25" font-family="Helvetica,sans-Serif" font-size="10.00"> Rec, Env &gt;::Type</text>
</a>
</g>
</g>
<!-- Node0&#45;&gt;Node18 -->
<g id="edge946_Node000000_Node000018" class="edge">
<title>Node0&#45;&gt;Node18</title>
<g id="a_edge946_Node000000_Node000018"><a xlink:title=" ">
<path fill="none" stroke="#63b8ff" d="M50.44,-576.94C54.45,-492.14 72.8,-189.79 133,-119.12 141.85,-108.74 154.24,-101.72 167.09,-96.98"/>
<polygon fill="#63b8ff" stroke="#63b8ff" points="46.94,-576.75 49.99,-586.9 53.93,-577.07 46.94,-576.75"/>
</a>
</g>
</g>
<!-- Node19 -->
<g id="Node000019" class="node">
<title>Node19</title>
<g id="a_Node000019"><a xlink:href="structdius_1_1linux_1_1RunSender_1_1OperationStateT_1_1Type_1_1Rec2.html" target="_top" xlink:title=" ">
<polygon fill="white" stroke="#666666" points="292.25,-46.25 161.5,-46.25 161.5,0 292.25,0 292.25,-46.25"/>
<text text-anchor="start" x="169.5" y="-32.75" font-family="Helvetica,sans-Serif" font-size="10.00">dius::linux::RunSender</text>
<text text-anchor="start" x="169.5" y="-20" font-family="Helvetica,sans-Serif" font-size="10.00">::OperationStateT&lt; Rec</text>
<text text-anchor="middle" x="226.88" y="-7.25" font-family="Helvetica,sans-Serif" font-size="10.00"> &gt;::Type::Rec2</text>
</a>
</g>
</g>
<!-- Node0&#45;&gt;Node19 -->
<g id="edge947_Node000000_Node000019" class="edge">
<title>Node0&#45;&gt;Node19</title>
<g id="a_edge947_Node000000_Node000019"><a xlink:title=" ">
<path fill="none" stroke="#63b8ff" d="M49.94,-576.98C52.17,-485.31 65.08,-136.48 133,-55.12 140.43,-46.22 150.47,-39.79 161.2,-35.15"/>
<polygon fill="#63b8ff" stroke="#63b8ff" points="46.44,-576.78 49.72,-586.86 53.44,-576.94 46.44,-576.78"/>
</a>
</g>
</g>
</g>
</svg>
