<?xml version="1.0" encoding="UTF-8" standalone="no"?>
<!DOCTYPE svg PUBLIC "-//W3C//DTD SVG 1.1//EN"
 "http://www.w3.org/Graphics/SVG/1.1/DTD/svg11.dtd">
<!-- Generated by graphviz version 10.0.1 (0)
 -->
<!-- Title: Graphical Class Hierarchy Pages: 1 -->
<svg width="936pt" height="42pt"
 viewBox="0.00 0.00 936.25 41.50" xmlns="http://www.w3.org/2000/svg" xmlns:xlink="http://www.w3.org/1999/xlink">
<g id="graph0" class="graph" transform="scale(1 1) rotate(0) translate(4 37.5)">
<title>Graphical Class Hierarchy</title>
<!-- Node0 -->
<g id="Node000000" class="node">
<title>Node0</title>
<g id="a_Node000000"><a xlink:href="structdi_1_1types_1_1InputIteratorTag.html" target="_top" xlink:title=" ">
<polygon fill="white" stroke="#666666" points="141.25,-27.12 0,-27.12 0,-6.38 141.25,-6.38 141.25,-27.12"/>
<text text-anchor="middle" x="70.62" y="-13.62" font-family="Helvetica,sans-Serif" font-size="10.00">di::types::InputIteratorTag</text>
</a>
</g>
</g>
<!-- Node1 -->
<g id="Node000001" class="node">
<title>Node1</title>
<g id="a_Node000001"><a xlink:href="structdi_1_1types_1_1ForwardIteratorTag.html" target="_top" xlink:title=" ">
<polygon fill="white" stroke="#666666" points="332.75,-27.12 177.25,-27.12 177.25,-6.38 332.75,-6.38 332.75,-27.12"/>
<text text-anchor="middle" x="255" y="-13.62" font-family="Helvetica,sans-Serif" font-size="10.00">di::types::ForwardIteratorTag</text>
</a>
</g>
</g>
<!-- Node0&#45;&gt;Node1 -->
<g id="edge616_Node000000_Node000001" class="edge">
<title>Node0&#45;&gt;Node1</title>
<g id="a_edge616_Node000000_Node000001"><a xlink:title=" ">
<path fill="none" stroke="#63b8ff" d="M153.11,-16.75C161.03,-16.75 169.04,-16.75 176.91,-16.75"/>
<polygon fill="#63b8ff" stroke="#63b8ff" points="153.13,-13.25 143.13,-16.75 153.13,-20.25 153.13,-13.25"/>
</a>
</g>
</g>
<!-- Node2 -->
<g id="Node000002" class="node">
<title>Node2</title>
<g id="a_Node000002"><a xlink:href="structdi_1_1types_1_1BidirectionalIteratorTag.html" target="_top" xlink:title=" ">
<polygon fill="white" stroke="#666666" points="494.25,-33.5 368.75,-33.5 368.75,0 494.25,0 494.25,-33.5"/>
<text text-anchor="start" x="376.75" y="-20" font-family="Helvetica,sans-Serif" font-size="10.00">di::types::Bidirectional</text>
<text text-anchor="middle" x="431.5" y="-7.25" font-family="Helvetica,sans-Serif" font-size="10.00">IteratorTag</text>
</a>
</g>
</g>
<!-- Node1&#45;&gt;Node2 -->
<g id="edge617_Node000001_Node000002" class="edge">
<title>Node1&#45;&gt;Node2</title>
<g id="a_edge617_Node000001_Node000002"><a xlink:title=" ">
<path fill="none" stroke="#63b8ff" d="M344.41,-16.75C352.47,-16.75 360.51,-16.75 368.26,-16.75"/>
<polygon fill="#63b8ff" stroke="#63b8ff" points="344.56,-13.25 334.56,-16.75 344.56,-20.25 344.56,-13.25"/>
</a>
</g>
</g>
<!-- Node3 -->
<g id="Node000003" class="node">
<title>Node3</title>
<g id="a_Node000003"><a xlink:href="structdi_1_1types_1_1RandomAccessIteratorTag.html" target="_top" xlink:title=" ">
<polygon fill="white" stroke="#666666" points="721,-27.12 530.25,-27.12 530.25,-6.38 721,-6.38 721,-27.12"/>
<text text-anchor="middle" x="625.62" y="-13.62" font-family="Helvetica,sans-Serif" font-size="10.00">di::types::RandomAccessIteratorTag</text>
</a>
</g>
</g>
<!-- Node2&#45;&gt;Node3 -->
<g id="edge618_Node000002_Node000003" class="edge">
<title>Node2&#45;&gt;Node3</title>
<g id="a_edge618_Node000002_Node000003"><a xlink:title=" ">
<path fill="none" stroke="#63b8ff" d="M505.93,-16.75C513.78,-16.75 521.85,-16.75 529.9,-16.75"/>
<polygon fill="#63b8ff" stroke="#63b8ff" points="506.13,-13.25 496.13,-16.75 506.13,-20.25 506.13,-13.25"/>
</a>
</g>
</g>
<!-- Node4 -->
<g id="Node000004" class="node">
<title>Node4</title>
<g id="a_Node000004"><a xlink:href="structdi_1_1types_1_1ContiguousIteratorTag.html" target="_top" xlink:title=" ">
<polygon fill="white" stroke="#666666" points="928.25,-27.12 757,-27.12 757,-6.38 928.25,-6.38 928.25,-27.12"/>
<text text-anchor="middle" x="842.62" y="-13.62" font-family="Helvetica,sans-Serif" font-size="10.00">di::types::ContiguousIteratorTag</text>
</a>
</g>
</g>
<!-- Node3&#45;&gt;Node4 -->
<g id="edge619_Node000003_Node000004" class="edge">
<title>Node3&#45;&gt;Node4</title>
<g id="a_edge619_Node000003_Node000004"><a xlink:title=" ">
<path fill="none" stroke="#63b8ff" d="M732.65,-16.75C740.74,-16.75 748.85,-16.75 756.78,-16.75"/>
<polygon fill="#63b8ff" stroke="#63b8ff" points="732.75,-13.25 722.75,-16.75 732.75,-20.25 732.75,-13.25"/>
</a>
</g>
</g>
</g>
</svg>
