<?xml version="1.0" encoding="UTF-8" standalone="no"?>
<!DOCTYPE svg PUBLIC "-//W3C//DTD SVG 1.1//EN"
 "http://www.w3.org/Graphics/SVG/1.1/DTD/svg11.dtd">
<!-- Generated by graphviz version 10.0.1 (0)
 -->
<!-- Title: Graphical Class Hierarchy Pages: 1 -->
<svg width="360pt" height="106pt"
 viewBox="0.00 0.00 360.25 105.88" xmlns="http://www.w3.org/2000/svg" xmlns:xlink="http://www.w3.org/1999/xlink">
<g id="graph0" class="graph" transform="scale(1 1) rotate(0) translate(4 101.88)">
<title>Graphical Class Hierarchy</title>
<!-- Node0 -->
<g id="Node000000" class="node">
<title>Node0</title>
<g id="a_Node000000"><a xlink:href="classdi_1_1execution_1_1WithAwaitableSenders.html" target="_top" xlink:title=" ">
<polygon fill="white" stroke="#666666" points="155.5,-62.5 0,-62.5 0,-29 155.5,-29 155.5,-62.5"/>
<text text-anchor="start" x="8" y="-49" font-family="Helvetica,sans-Serif" font-size="10.00">di::execution::WithAwaitable</text>
<text text-anchor="middle" x="77.75" y="-36.25" font-family="Helvetica,sans-Serif" font-size="10.00">Senders&lt; Self &gt;</text>
</a>
</g>
</g>
<!-- Node1 -->
<g id="Node000001" class="node">
<title>Node1</title>
<g id="a_Node000001"><a xlink:href="structdi_1_1execution_1_1async__generator__ns_1_1PromiseBaseT_1_1Type.html" target="_top" xlink:title=" ">
<polygon fill="white" stroke="#666666" points="352.25,-97.88 191.5,-97.88 191.5,-51.62 352.25,-51.62 352.25,-97.88"/>
<text text-anchor="start" x="199.5" y="-84.38" font-family="Helvetica,sans-Serif" font-size="10.00">di::execution::async</text>
<text text-anchor="start" x="199.5" y="-71.62" font-family="Helvetica,sans-Serif" font-size="10.00">_generator_ns::PromiseBaseT</text>
<text text-anchor="middle" x="271.88" y="-58.88" font-family="Helvetica,sans-Serif" font-size="10.00">&lt; Self, Ref, Value &gt;::Type</text>
</a>
</g>
</g>
<!-- Node0&#45;&gt;Node1 -->
<g id="edge278_Node000000_Node000001" class="edge">
<title>Node0&#45;&gt;Node1</title>
<g id="a_edge278_Node000000_Node000001"><a xlink:title=" ">
<path fill="none" stroke="#63b8ff" d="M167.12,-59.09C175.19,-60.31 183.33,-61.54 191.31,-62.74"/>
<polygon fill="#63b8ff" stroke="#63b8ff" points="167.69,-55.64 157.28,-57.6 166.65,-62.56 167.69,-55.64"/>
</a>
</g>
</g>
<!-- Node2 -->
<g id="Node000002" class="node">
<title>Node2</title>
<g id="a_Node000002"><a xlink:href="classdi_1_1execution_1_1lazy__ns_1_1PromiseBase.html" target="_top" xlink:title=" ">
<polygon fill="white" stroke="#666666" points="349.62,-33.5 194.12,-33.5 194.12,0 349.62,0 349.62,-33.5"/>
<text text-anchor="start" x="202.12" y="-20" font-family="Helvetica,sans-Serif" font-size="10.00">di::execution::lazy</text>
<text text-anchor="middle" x="271.88" y="-7.25" font-family="Helvetica,sans-Serif" font-size="10.00">_ns::PromiseBase&lt; Self, T &gt;</text>
</a>
</g>
</g>
<!-- Node0&#45;&gt;Node2 -->
<g id="edge279_Node000000_Node000002" class="edge">
<title>Node0&#45;&gt;Node2</title>
<g id="a_edge279_Node000000_Node000002"><a xlink:title=" ">
<path fill="none" stroke="#63b8ff" d="M167.04,-32.42C175.98,-31.07 185.01,-29.71 193.82,-28.38"/>
<polygon fill="#63b8ff" stroke="#63b8ff" points="166.65,-28.94 157.28,-33.9 167.69,-35.86 166.65,-28.94"/>
</a>
</g>
</g>
</g>
</svg>
