<?xml version="1.0" encoding="UTF-8" standalone="no"?>
<!DOCTYPE svg PUBLIC "-//W3C//DTD SVG 1.1//EN"
 "http://www.w3.org/Graphics/SVG/1.1/DTD/svg11.dtd">
<!-- Generated by graphviz version 10.0.1 (0)
 -->
<!-- Title: Graphical Class Hierarchy Pages: 1 -->
<svg width="360pt" height="1094pt"
 viewBox="0.00 0.00 360.25 1093.50" xmlns="http://www.w3.org/2000/svg" xmlns:xlink="http://www.w3.org/1999/xlink">
<g id="graph0" class="graph" transform="scale(1 1) rotate(0) translate(4 1089.5)">
<title>Graphical Class Hierarchy</title>
<!-- Node0 -->
<g id="Node000000" class="node">
<title>Node0</title>
<g id="a_Node000000"><a xlink:href="structdi_1_1bit_1_1BitFlag.html" target="_top" xlink:title=" ">
<polygon fill="white" stroke="#666666" points="133.75,-559.12 0,-559.12 0,-538.38 133.75,-538.38 133.75,-559.12"/>
<text text-anchor="middle" x="66.88" y="-545.62" font-family="Helvetica,sans-Serif" font-size="10.00">di::bit::BitFlag&lt; index &gt;</text>
</a>
</g>
</g>
<!-- Node1 -->
<g id="Node000001" class="node">
<title>Node1</title>
<g id="a_Node000001"><a xlink:href="structiris_1_1x86_1_1amd64_1_1ApicExtendedControlExtendId.html" target="_top" xlink:title=" ">
<polygon fill="white" stroke="#666666" points="344.75,-1085.5 177.25,-1085.5 177.25,-1052 344.75,-1052 344.75,-1085.5"/>
<text text-anchor="start" x="185.25" y="-1072" font-family="Helvetica,sans-Serif" font-size="10.00">iris::x86::amd64::ApicExtended</text>
<text text-anchor="middle" x="261" y="-1059.25" font-family="Helvetica,sans-Serif" font-size="10.00">ControlExtendId</text>
</a>
</g>
</g>
<!-- Node0&#45;&gt;Node1 -->
<g id="edge82_Node000000_Node000001" class="edge">
<title>Node0&#45;&gt;Node1</title>
<g id="a_edge82_Node000000_Node000001"><a xlink:title=" ">
<path fill="none" stroke="#63b8ff" d="M69.45,-570.88C76.06,-657.48 104.26,-972 169.75,-1042.75 172.85,-1046.1 176.35,-1049.03 180.13,-1051.59"/>
<polygon fill="#63b8ff" stroke="#63b8ff" points="72.94,-570.64 68.72,-560.92 65.96,-571.15 72.94,-570.64"/>
</a>
</g>
</g>
<!-- Node2 -->
<g id="Node000002" class="node">
<title>Node2</title>
<g id="a_Node000002"><a xlink:href="structiris_1_1x86_1_1amd64_1_1ApicExtendedControlInterruptEnable.html" target="_top" xlink:title=" ">
<polygon fill="white" stroke="#666666" points="344.75,-1033.5 177.25,-1033.5 177.25,-1000 344.75,-1000 344.75,-1033.5"/>
<text text-anchor="start" x="185.25" y="-1020" font-family="Helvetica,sans-Serif" font-size="10.00">iris::x86::amd64::ApicExtended</text>
<text text-anchor="middle" x="261" y="-1007.25" font-family="Helvetica,sans-Serif" font-size="10.00">ControlInterruptEnable</text>
</a>
</g>
</g>
<!-- Node0&#45;&gt;Node2 -->
<g id="edge83_Node000000_Node000002" class="edge">
<title>Node0&#45;&gt;Node2</title>
<g id="a_edge83_Node000000_Node000002"><a xlink:title=" ">
<path fill="none" stroke="#63b8ff" d="M70,-570.6C78.25,-650.92 110.63,-928.35 169.75,-990.75 172.89,-994.06 176.42,-996.96 180.23,-999.5"/>
<polygon fill="#63b8ff" stroke="#63b8ff" points="73.52,-570.57 69.04,-560.97 66.55,-571.27 73.52,-570.57"/>
</a>
</g>
</g>
<!-- Node3 -->
<g id="Node000003" class="node">
<title>Node3</title>
<g id="a_Node000003"><a xlink:href="structiris_1_1x86_1_1amd64_1_1ApicExtendedControlSpecificEoi.html" target="_top" xlink:title=" ">
<polygon fill="white" stroke="#666666" points="344.75,-981.5 177.25,-981.5 177.25,-948 344.75,-948 344.75,-981.5"/>
<text text-anchor="start" x="185.25" y="-968" font-family="Helvetica,sans-Serif" font-size="10.00">iris::x86::amd64::ApicExtended</text>
<text text-anchor="middle" x="261" y="-955.25" font-family="Helvetica,sans-Serif" font-size="10.00">ControlSpecificEoi</text>
</a>
</g>
</g>
<!-- Node0&#45;&gt;Node3 -->
<g id="edge84_Node000000_Node000003" class="edge">
<title>Node0&#45;&gt;Node3</title>
<g id="a_edge84_Node000000_Node000003"><a xlink:title=" ">
<path fill="none" stroke="#63b8ff" d="M70.69,-570.37C80.73,-644.19 116.98,-884.64 169.75,-938.75 173.05,-942.14 176.76,-945.09 180.75,-947.66"/>
<polygon fill="#63b8ff" stroke="#63b8ff" points="74.21,-570.25 69.42,-560.8 67.27,-571.18 74.21,-570.25"/>
</a>
</g>
</g>
<!-- Node4 -->
<g id="Node000004" class="node">
<title>Node4</title>
<g id="a_Node000004"><a xlink:href="structiris_1_1x86_1_1amd64_1_1ApicExtendedFeatureExtendedId.html" target="_top" xlink:title=" ">
<polygon fill="white" stroke="#666666" points="344.75,-929.5 177.25,-929.5 177.25,-896 344.75,-896 344.75,-929.5"/>
<text text-anchor="start" x="185.25" y="-916" font-family="Helvetica,sans-Serif" font-size="10.00">iris::x86::amd64::ApicExtended</text>
<text text-anchor="middle" x="261" y="-903.25" font-family="Helvetica,sans-Serif" font-size="10.00">FeatureExtendedId</text>
</a>
</g>
</g>
<!-- Node0&#45;&gt;Node4 -->
<g id="edge85_Node000000_Node000004" class="edge">
<title>Node0&#45;&gt;Node4</title>
<g id="a_edge85_Node000000_Node000004"><a xlink:title=" ">
<path fill="none" stroke="#63b8ff" d="M67.71,-570.7C68.51,-630.41 79.16,-797.27 169.75,-886.75 173.11,-890.07 176.87,-892.98 180.9,-895.51"/>
<polygon fill="#63b8ff" stroke="#63b8ff" points="71.21,-570.86 67.68,-560.88 64.21,-570.89 71.21,-570.86"/>
</a>
</g>
</g>
<!-- Node5 -->
<g id="Node000005" class="node">
<title>Node5</title>
<g id="a_Node000005"><a xlink:href="structiris_1_1x86_1_1amd64_1_1ApicExtendedFeatureInterruptEnable.html" target="_top" xlink:title=" ">
<polygon fill="white" stroke="#666666" points="344.75,-877.5 177.25,-877.5 177.25,-844 344.75,-844 344.75,-877.5"/>
<text text-anchor="start" x="185.25" y="-864" font-family="Helvetica,sans-Serif" font-size="10.00">iris::x86::amd64::ApicExtended</text>
<text text-anchor="middle" x="261" y="-851.25" font-family="Helvetica,sans-Serif" font-size="10.00">FeatureInterruptEnable</text>
</a>
</g>
</g>
<!-- Node0&#45;&gt;Node5 -->
<g id="edge86_Node000000_Node000005" class="edge">
<title>Node0&#45;&gt;Node5</title>
<g id="a_edge86_Node000000_Node000005"><a xlink:title=" ">
<path fill="none" stroke="#63b8ff" d="M69.13,-570.83C73.37,-624.24 91.7,-761.37 169.75,-834.75 173.31,-838.1 177.28,-841.02 181.51,-843.57"/>
<polygon fill="#63b8ff" stroke="#63b8ff" points="72.62,-570.66 68.44,-560.92 65.64,-571.14 72.62,-570.66"/>
</a>
</g>
</g>
<!-- Node6 -->
<g id="Node000006" class="node">
<title>Node6</title>
<g id="a_Node000006"><a xlink:href="structiris_1_1x86_1_1amd64_1_1ApicExtendedFeatureSpecificEoi.html" target="_top" xlink:title=" ">
<polygon fill="white" stroke="#666666" points="344.75,-825.5 177.25,-825.5 177.25,-792 344.75,-792 344.75,-825.5"/>
<text text-anchor="start" x="185.25" y="-812" font-family="Helvetica,sans-Serif" font-size="10.00">iris::x86::amd64::ApicExtended</text>
<text text-anchor="middle" x="261" y="-799.25" font-family="Helvetica,sans-Serif" font-size="10.00">FeatureSpecificEoi</text>
</a>
</g>
</g>
<!-- Node0&#45;&gt;Node6 -->
<g id="edge87_Node000000_Node000006" class="edge">
<title>Node0&#45;&gt;Node6</title>
<g id="a_edge87_Node000000_Node000006"><a xlink:title=" ">
<path fill="none" stroke="#63b8ff" d="M71.11,-570.82C79.07,-617.16 104,-725.04 169.75,-782.75 173.55,-786.08 177.75,-788.99 182.2,-791.53"/>
<polygon fill="#63b8ff" stroke="#63b8ff" points="74.57,-570.29 69.53,-560.97 67.66,-571.4 74.57,-570.29"/>
</a>
</g>
</g>
<!-- Node7 -->
<g id="Node000007" class="node">
<title>Node7</title>
<g id="a_Node000007"><a xlink:href="structiris_1_1x86_1_1amd64_1_1ApicExtendedRegisterPresent.html" target="_top" xlink:title=" ">
<polygon fill="white" stroke="#666666" points="344.75,-773.5 177.25,-773.5 177.25,-740 344.75,-740 344.75,-773.5"/>
<text text-anchor="start" x="185.25" y="-760" font-family="Helvetica,sans-Serif" font-size="10.00">iris::x86::amd64::ApicExtended</text>
<text text-anchor="middle" x="261" y="-747.25" font-family="Helvetica,sans-Serif" font-size="10.00">RegisterPresent</text>
</a>
</g>
</g>
<!-- Node0&#45;&gt;Node7 -->
<g id="edge88_Node000000_Node000007" class="edge">
<title>Node0&#45;&gt;Node7</title>
<g id="a_edge88_Node000000_Node000007"><a xlink:title=" ">
<path fill="none" stroke="#63b8ff" d="M73.87,-570.04C85.71,-608.12 115.73,-687.91 169.75,-730.75 173.97,-734.09 178.59,-737.01 183.46,-739.55"/>
<polygon fill="#63b8ff" stroke="#63b8ff" points="77.3,-569.28 71.09,-560.69 70.59,-571.28 77.3,-569.28"/>
</a>
</g>
</g>
<!-- Node8 -->
<g id="Node000008" class="node">
<title>Node8</title>
<g id="a_Node000008"><a xlink:href="structiris_1_1x86_1_1amd64_1_1ApicInterruptCommandDeliveryStatus.html" target="_top" xlink:title=" ">
<polygon fill="white" stroke="#666666" points="342.88,-721.5 179.12,-721.5 179.12,-688 342.88,-688 342.88,-721.5"/>
<text text-anchor="start" x="187.12" y="-708" font-family="Helvetica,sans-Serif" font-size="10.00">iris::x86::amd64::ApicInterrupt</text>
<text text-anchor="middle" x="261" y="-695.25" font-family="Helvetica,sans-Serif" font-size="10.00">CommandDeliveryStatus</text>
</a>
</g>
</g>
<!-- Node0&#45;&gt;Node8 -->
<g id="edge89_Node000000_Node000008" class="edge">
<title>Node0&#45;&gt;Node8</title>
<g id="a_edge89_Node000000_Node000008"><a xlink:title=" ">
<path fill="none" stroke="#63b8ff" d="M78.4,-569.11C94.3,-597.86 127.17,-650.03 169.75,-678.75 174.75,-682.12 180.19,-685.06 185.84,-687.63"/>
<polygon fill="#63b8ff" stroke="#63b8ff" points="81.68,-567.83 73.87,-560.67 75.51,-571.14 81.68,-567.83"/>
</a>
</g>
</g>
<!-- Node9 -->
<g id="Node000009" class="node">
<title>Node9</title>
<g id="a_Node000009"><a xlink:href="structiris_1_1x86_1_1amd64_1_1ApicInterruptCommandDestinationMode.html" target="_top" xlink:title=" ">
<polygon fill="white" stroke="#666666" points="342.88,-669.5 179.12,-669.5 179.12,-636 342.88,-636 342.88,-669.5"/>
<text text-anchor="start" x="187.12" y="-656" font-family="Helvetica,sans-Serif" font-size="10.00">iris::x86::amd64::ApicInterrupt</text>
<text text-anchor="middle" x="261" y="-643.25" font-family="Helvetica,sans-Serif" font-size="10.00">CommandDestinationMode</text>
</a>
</g>
</g>
<!-- Node0&#45;&gt;Node9 -->
<g id="edge90_Node000000_Node000009" class="edge">
<title>Node0&#45;&gt;Node9</title>
<g id="a_edge90_Node000000_Node000009"><a xlink:title=" ">
<path fill="none" stroke="#63b8ff" d="M87.11,-567.04C106.55,-584.63 138.16,-610.82 169.75,-626.75 176.3,-630.05 183.34,-633 190.49,-635.61"/>
<polygon fill="#63b8ff" stroke="#63b8ff" points="89.67,-564.65 79.94,-560.44 84.92,-569.79 89.67,-564.65"/>
</a>
</g>
</g>
<!-- Node10 -->
<g id="Node000010" class="node">
<title>Node10</title>
<g id="a_Node000010"><a xlink:href="structiris_1_1x86_1_1amd64_1_1ApicInterruptCommandLevel.html" target="_top" xlink:title=" ">
<polygon fill="white" stroke="#666666" points="342.88,-617.5 179.12,-617.5 179.12,-584 342.88,-584 342.88,-617.5"/>
<text text-anchor="start" x="187.12" y="-604" font-family="Helvetica,sans-Serif" font-size="10.00">iris::x86::amd64::ApicInterrupt</text>
<text text-anchor="middle" x="261" y="-591.25" font-family="Helvetica,sans-Serif" font-size="10.00">CommandLevel</text>
</a>
</g>
</g>
<!-- Node0&#45;&gt;Node10 -->
<g id="edge91_Node000000_Node000010" class="edge">
<title>Node0&#45;&gt;Node10</title>
<g id="a_edge91_Node000000_Node000010"><a xlink:title=" ">
<path fill="none" stroke="#63b8ff" d="M118.62,-562.48C142.46,-568.94 171.14,-576.7 196.42,-583.54"/>
<polygon fill="#63b8ff" stroke="#63b8ff" points="119.71,-559.15 109.14,-559.92 117.88,-565.91 119.71,-559.15"/>
</a>
</g>
</g>
<!-- Node11 -->
<g id="Node000011" class="node">
<title>Node11</title>
<g id="a_Node000011"><a xlink:href="structiris_1_1x86_1_1amd64_1_1ApicInterruptCommandTriggerMode.html" target="_top" xlink:title=" ">
<polygon fill="white" stroke="#666666" points="342.88,-565.5 179.12,-565.5 179.12,-532 342.88,-532 342.88,-565.5"/>
<text text-anchor="start" x="187.12" y="-552" font-family="Helvetica,sans-Serif" font-size="10.00">iris::x86::amd64::ApicInterrupt</text>
<text text-anchor="middle" x="261" y="-539.25" font-family="Helvetica,sans-Serif" font-size="10.00">CommandTriggerMode</text>
</a>
</g>
</g>
<!-- Node0&#45;&gt;Node11 -->
<g id="edge92_Node000000_Node000011" class="edge">
<title>Node0&#45;&gt;Node11</title>
<g id="a_edge92_Node000000_Node000011"><a xlink:title=" ">
<path fill="none" stroke="#63b8ff" d="M145.33,-548.75C156.36,-548.75 167.72,-548.75 178.82,-548.75"/>
<polygon fill="#63b8ff" stroke="#63b8ff" points="145.51,-545.25 135.51,-548.75 145.51,-552.25 145.51,-545.25"/>
</a>
</g>
</g>
<!-- Node12 -->
<g id="Node000012" class="node">
<title>Node12</title>
<g id="a_Node000012"><a xlink:href="structiris_1_1x86_1_1amd64_1_1ApicLvtEntryDeliveryStatus.html" target="_top" xlink:title=" ">
<polygon fill="white" stroke="#666666" points="329.38,-513.5 192.62,-513.5 192.62,-480 329.38,-480 329.38,-513.5"/>
<text text-anchor="start" x="200.62" y="-500" font-family="Helvetica,sans-Serif" font-size="10.00">iris::x86::amd64::ApicLvt</text>
<text text-anchor="middle" x="261" y="-487.25" font-family="Helvetica,sans-Serif" font-size="10.00">EntryDeliveryStatus</text>
</a>
</g>
</g>
<!-- Node0&#45;&gt;Node12 -->
<g id="edge93_Node000000_Node000012" class="edge">
<title>Node0&#45;&gt;Node12</title>
<g id="a_edge93_Node000000_Node000012"><a xlink:title=" ">
<path fill="none" stroke="#63b8ff" d="M118.62,-535.02C142.46,-528.56 171.14,-520.8 196.42,-513.96"/>
<polygon fill="#63b8ff" stroke="#63b8ff" points="117.88,-531.59 109.14,-537.58 119.71,-538.35 117.88,-531.59"/>
</a>
</g>
</g>
<!-- Node13 -->
<g id="Node000013" class="node">
<title>Node13</title>
<g id="a_Node000013"><a xlink:href="structiris_1_1x86_1_1amd64_1_1ApicLvtEntryMask.html" target="_top" xlink:title=" ">
<polygon fill="white" stroke="#666666" points="329.38,-461.5 192.62,-461.5 192.62,-428 329.38,-428 329.38,-461.5"/>
<text text-anchor="start" x="200.62" y="-448" font-family="Helvetica,sans-Serif" font-size="10.00">iris::x86::amd64::ApicLvt</text>
<text text-anchor="middle" x="261" y="-435.25" font-family="Helvetica,sans-Serif" font-size="10.00">EntryMask</text>
</a>
</g>
</g>
<!-- Node0&#45;&gt;Node13 -->
<g id="edge94_Node000000_Node000013" class="edge">
<title>Node0&#45;&gt;Node13</title>
<g id="a_edge94_Node000000_Node000013"><a xlink:title=" ">
<path fill="none" stroke="#63b8ff" d="M87.11,-530.46C106.55,-512.87 138.16,-486.68 169.75,-470.75 176.88,-467.15 184.59,-463.98 192.4,-461.2"/>
<polygon fill="#63b8ff" stroke="#63b8ff" points="84.92,-527.71 79.94,-537.06 89.67,-532.85 84.92,-527.71"/>
</a>
</g>
</g>
<!-- Node14 -->
<g id="Node000014" class="node">
<title>Node14</title>
<g id="a_Node000014"><a xlink:href="structiris_1_1x86_1_1amd64_1_1ApicLvtEntryRemoteIrr.html" target="_top" xlink:title=" ">
<polygon fill="white" stroke="#666666" points="329.38,-409.5 192.62,-409.5 192.62,-376 329.38,-376 329.38,-409.5"/>
<text text-anchor="start" x="200.62" y="-396" font-family="Helvetica,sans-Serif" font-size="10.00">iris::x86::amd64::ApicLvt</text>
<text text-anchor="middle" x="261" y="-383.25" font-family="Helvetica,sans-Serif" font-size="10.00">EntryRemoteIrr</text>
</a>
</g>
</g>
<!-- Node0&#45;&gt;Node14 -->
<g id="edge95_Node000000_Node000014" class="edge">
<title>Node0&#45;&gt;Node14</title>
<g id="a_edge95_Node000000_Node000014"><a xlink:title=" ">
<path fill="none" stroke="#63b8ff" d="M78.4,-528.39C94.3,-499.64 127.17,-447.47 169.75,-418.75 176.64,-414.1 184.37,-410.27 192.33,-407.12"/>
<polygon fill="#63b8ff" stroke="#63b8ff" points="75.51,-526.36 73.87,-536.83 81.68,-529.67 75.51,-526.36"/>
</a>
</g>
</g>
<!-- Node15 -->
<g id="Node000015" class="node">
<title>Node15</title>
<g id="a_Node000015"><a xlink:href="structiris_1_1x86_1_1amd64_1_1ApicLvtEntryTimerMode.html" target="_top" xlink:title=" ">
<polygon fill="white" stroke="#666666" points="329.38,-357.5 192.62,-357.5 192.62,-324 329.38,-324 329.38,-357.5"/>
<text text-anchor="start" x="200.62" y="-344" font-family="Helvetica,sans-Serif" font-size="10.00">iris::x86::amd64::ApicLvt</text>
<text text-anchor="middle" x="261" y="-331.25" font-family="Helvetica,sans-Serif" font-size="10.00">EntryTimerMode</text>
</a>
</g>
</g>
<!-- Node0&#45;&gt;Node15 -->
<g id="edge96_Node000000_Node000015" class="edge">
<title>Node0&#45;&gt;Node15</title>
<g id="a_edge96_Node000000_Node000015"><a xlink:title=" ">
<path fill="none" stroke="#63b8ff" d="M73.87,-527.46C85.71,-489.38 115.73,-409.59 169.75,-366.75 176.52,-361.38 184.36,-357.12 192.53,-353.74"/>
<polygon fill="#63b8ff" stroke="#63b8ff" points="70.59,-526.22 71.09,-536.81 77.3,-528.22 70.59,-526.22"/>
</a>
</g>
</g>
<!-- Node16 -->
<g id="Node000016" class="node">
<title>Node16</title>
<g id="a_Node000016"><a xlink:href="structiris_1_1x86_1_1amd64_1_1ApicLvtEntryTriggerMode.html" target="_top" xlink:title=" ">
<polygon fill="white" stroke="#666666" points="329.38,-305.5 192.62,-305.5 192.62,-272 329.38,-272 329.38,-305.5"/>
<text text-anchor="start" x="200.62" y="-292" font-family="Helvetica,sans-Serif" font-size="10.00">iris::x86::amd64::ApicLvt</text>
<text text-anchor="middle" x="261" y="-279.25" font-family="Helvetica,sans-Serif" font-size="10.00">EntryTriggerMode</text>
</a>
</g>
</g>
<!-- Node0&#45;&gt;Node16 -->
<g id="edge97_Node000000_Node000016" class="edge">
<title>Node0&#45;&gt;Node16</title>
<g id="a_edge97_Node000000_Node000016"><a xlink:title=" ">
<path fill="none" stroke="#63b8ff" d="M71.11,-526.68C79.07,-480.34 104,-372.46 169.75,-314.75 176.37,-308.94 184.21,-304.43 192.46,-300.92"/>
<polygon fill="#63b8ff" stroke="#63b8ff" points="67.66,-526.1 69.53,-536.53 74.57,-527.21 67.66,-526.1"/>
</a>
</g>
</g>
<!-- Node17 -->
<g id="Node000017" class="node">
<title>Node17</title>
<g id="a_Node000017"><a xlink:href="structiris_1_1x86_1_1amd64_1_1IoApicRedirectionTableEntryDeliveryStatus.html" target="_top" xlink:title=" ">
<polygon fill="white" stroke="#666666" points="342.88,-253.88 179.12,-253.88 179.12,-207.62 342.88,-207.62 342.88,-253.88"/>
<text text-anchor="start" x="187.12" y="-240.38" font-family="Helvetica,sans-Serif" font-size="10.00">iris::x86::amd64::IoApic</text>
<text text-anchor="start" x="187.12" y="-227.62" font-family="Helvetica,sans-Serif" font-size="10.00">RedirectionTableEntryDelivery</text>
<text text-anchor="middle" x="261" y="-214.88" font-family="Helvetica,sans-Serif" font-size="10.00">Status</text>
</a>
</g>
</g>
<!-- Node0&#45;&gt;Node17 -->
<g id="edge98_Node000000_Node000017" class="edge">
<title>Node0&#45;&gt;Node17</title>
<g id="a_edge98_Node000000_Node000017"><a xlink:title=" ">
<path fill="none" stroke="#63b8ff" d="M69.45,-526.6C74.38,-473.6 94.12,-338.27 169.75,-262.75 172.93,-259.58 176.44,-256.72 180.17,-254.14"/>
<polygon fill="#63b8ff" stroke="#63b8ff" points="65.97,-526.19 68.63,-536.44 72.95,-526.77 65.97,-526.19"/>
</a>
</g>
</g>
<!-- Node18 -->
<g id="Node000018" class="node">
<title>Node18</title>
<g id="a_Node000018"><a xlink:href="structiris_1_1x86_1_1amd64_1_1IoApicRedirectionTableEntryMask.html" target="_top" xlink:title=" ">
<polygon fill="white" stroke="#666666" points="335.38,-189.5 186.62,-189.5 186.62,-156 335.38,-156 335.38,-189.5"/>
<text text-anchor="start" x="194.62" y="-176" font-family="Helvetica,sans-Serif" font-size="10.00">iris::x86::amd64::IoApic</text>
<text text-anchor="middle" x="261" y="-163.25" font-family="Helvetica,sans-Serif" font-size="10.00">RedirectionTableEntryMask</text>
</a>
</g>
</g>
<!-- Node0&#45;&gt;Node18 -->
<g id="edge99_Node000000_Node000018" class="edge">
<title>Node0&#45;&gt;Node18</title>
<g id="a_edge99_Node000000_Node000018"><a xlink:title=" ">
<path fill="none" stroke="#63b8ff" d="M67.45,-526.84C67.49,-465.76 76.25,-292 169.75,-198.75 174.6,-193.91 180.29,-189.97 186.41,-186.74"/>
<polygon fill="#63b8ff" stroke="#63b8ff" points="63.94,-526.61 67.53,-536.58 70.94,-526.55 63.94,-526.61"/>
</a>
</g>
</g>
<!-- Node19 -->
<g id="Node000019" class="node">
<title>Node19</title>
<g id="a_Node000019"><a xlink:href="structiris_1_1x86_1_1amd64_1_1IoApicRedirectionTableEntryPolarity.html" target="_top" xlink:title=" ">
<polygon fill="white" stroke="#666666" points="341,-137.5 181,-137.5 181,-104 341,-104 341,-137.5"/>
<text text-anchor="start" x="189" y="-124" font-family="Helvetica,sans-Serif" font-size="10.00">iris::x86::amd64::IoApic</text>
<text text-anchor="middle" x="261" y="-111.25" font-family="Helvetica,sans-Serif" font-size="10.00">RedirectionTableEntryPolarity</text>
</a>
</g>
</g>
<!-- Node0&#45;&gt;Node19 -->
<g id="edge100_Node000000_Node000019" class="edge">
<title>Node0&#45;&gt;Node19</title>
<g id="a_edge100_Node000000_Node000019"><a xlink:title=" ">
<path fill="none" stroke="#63b8ff" d="M70.6,-526.47C80.32,-450.41 115.66,-202.61 169.75,-146.75 173.04,-143.35 176.74,-140.39 180.72,-137.81"/>
<polygon fill="#63b8ff" stroke="#63b8ff" points="67.13,-526.02 69.36,-536.37 74.07,-526.89 67.13,-526.02"/>
</a>
</g>
</g>
<!-- Node20 -->
<g id="Node000020" class="node">
<title>Node20</title>
<g id="a_Node000020"><a xlink:href="structiris_1_1x86_1_1amd64_1_1IoApicRedirectionTableEntryRemoteIrr.html" target="_top" xlink:title=" ">
<polygon fill="white" stroke="#666666" points="346.62,-85.5 175.38,-85.5 175.38,-52 346.62,-52 346.62,-85.5"/>
<text text-anchor="start" x="183.38" y="-72" font-family="Helvetica,sans-Serif" font-size="10.00">iris::x86::amd64::IoApic</text>
<text text-anchor="middle" x="261" y="-59.25" font-family="Helvetica,sans-Serif" font-size="10.00">RedirectionTableEntryRemoteIrr</text>
</a>
</g>
</g>
<!-- Node0&#45;&gt;Node20 -->
<g id="edge101_Node000000_Node000020" class="edge">
<title>Node0&#45;&gt;Node20</title>
<g id="a_edge101_Node000000_Node000020"><a xlink:title=" ">
<path fill="none" stroke="#63b8ff" d="M69.87,-526.85C77.72,-445.07 109.16,-159.08 169.75,-94.75 172.88,-91.43 176.41,-88.52 180.2,-85.98"/>
<polygon fill="#63b8ff" stroke="#63b8ff" points="66.4,-526.36 68.95,-536.64 73.37,-527.01 66.4,-526.36"/>
</a>
</g>
</g>
<!-- Node21 -->
<g id="Node000021" class="node">
<title>Node21</title>
<g id="a_Node000021"><a xlink:href="structiris_1_1x86_1_1amd64_1_1IoApicRedirectionTableEntryTriggerMode.html" target="_top" xlink:title=" ">
<polygon fill="white" stroke="#666666" points="352.25,-33.5 169.75,-33.5 169.75,0 352.25,0 352.25,-33.5"/>
<text text-anchor="start" x="177.75" y="-20" font-family="Helvetica,sans-Serif" font-size="10.00">iris::x86::amd64::IoApic</text>
<text text-anchor="middle" x="261" y="-7.25" font-family="Helvetica,sans-Serif" font-size="10.00">RedirectionTableEntryTriggerMode</text>
</a>
</g>
</g>
<!-- Node0&#45;&gt;Node21 -->
<g id="edge102_Node000000_Node000021" class="edge">
<title>Node0&#45;&gt;Node21</title>
<g id="a_edge102_Node000000_Node000021"><a xlink:title=" ">
<path fill="none" stroke="#63b8ff" d="M69.31,-526.92C75.51,-439.46 102.69,-115.54 169.75,-42.75 172.84,-39.39 176.34,-36.46 180.11,-33.89"/>
<polygon fill="#63b8ff" stroke="#63b8ff" points="65.83,-526.53 68.64,-536.75 72.82,-527.01 65.83,-526.53"/>
</a>
</g>
</g>
</g>
</svg>
