<?xml version="1.0" encoding="UTF-8" standalone="no"?>
<!DOCTYPE svg PUBLIC "-//W3C//DTD SVG 1.1//EN"
 "http://www.w3.org/Graphics/SVG/1.1/DTD/svg11.dtd">
<!-- Generated by graphviz version 10.0.1 (0)
 -->
<!-- Title: Graphical Class Hierarchy Pages: 1 -->
<svg width="280pt" height="146pt"
 viewBox="0.00 0.00 280.00 145.50" xmlns="http://www.w3.org/2000/svg" xmlns:xlink="http://www.w3.org/1999/xlink">
<g id="graph0" class="graph" transform="scale(1 1) rotate(0) translate(4 141.5)">
<title>Graphical Class Hierarchy</title>
<!-- Node0 -->
<g id="Node000000" class="node">
<title>Node0</title>
<g id="a_Node000000"><a xlink:href="structdi_1_1bit_1_1BitFlag.html" target="_top" xlink:title=" ">
<polygon fill="white" stroke="#666666" points="118.75,-79.12 0,-79.12 0,-58.38 118.75,-58.38 118.75,-79.12"/>
<text text-anchor="middle" x="59.38" y="-65.62" font-family="Helvetica,sans-Serif" font-size="10.00">di::bit::BitFlag&lt; 47 &gt;</text>
</a>
</g>
</g>
<!-- Node1 -->
<g id="Node000001" class="node">
<title>Node1</title>
<g id="a_Node000001"><a xlink:href="structiris_1_1x86_1_1amd64_1_1idt_1_1Present.html" target="_top" xlink:title=" ">
<polygon fill="white" stroke="#666666" points="270.12,-137.5 156.62,-137.5 156.62,-104 270.12,-104 270.12,-137.5"/>
<text text-anchor="start" x="164.62" y="-124" font-family="Helvetica,sans-Serif" font-size="10.00">iris::x86::amd64::idt</text>
<text text-anchor="middle" x="213.38" y="-111.25" font-family="Helvetica,sans-Serif" font-size="10.00">::Present</text>
</a>
</g>
</g>
<!-- Node0&#45;&gt;Node1 -->
<g id="edge69_Node000000_Node000001" class="edge">
<title>Node0&#45;&gt;Node1</title>
<g id="a_edge69_Node000000_Node000001"><a xlink:title=" ">
<path fill="none" stroke="#63b8ff" d="M102.58,-83.19C121.02,-89.5 142.8,-96.95 162.07,-103.54"/>
<polygon fill="#63b8ff" stroke="#63b8ff" points="103.9,-79.94 93.3,-80.01 101.63,-86.56 103.9,-79.94"/>
</a>
</g>
</g>
<!-- Node2 -->
<g id="Node000002" class="node">
<title>Node2</title>
<g id="a_Node000002"><a xlink:href="structiris_1_1x86_1_1amd64_1_1sd_1_1Present.html" target="_top" xlink:title=" ">
<polygon fill="white" stroke="#666666" points="269.38,-85.5 157.38,-85.5 157.38,-52 269.38,-52 269.38,-85.5"/>
<text text-anchor="start" x="165.38" y="-72" font-family="Helvetica,sans-Serif" font-size="10.00">iris::x86::amd64::sd</text>
<text text-anchor="middle" x="213.38" y="-59.25" font-family="Helvetica,sans-Serif" font-size="10.00">::Present</text>
</a>
</g>
</g>
<!-- Node0&#45;&gt;Node2 -->
<g id="edge70_Node000000_Node000002" class="edge">
<title>Node0&#45;&gt;Node2</title>
<g id="a_edge70_Node000000_Node000002"><a xlink:title=" ">
<path fill="none" stroke="#63b8ff" d="M130.44,-68.75C139.43,-68.75 148.54,-68.75 157.25,-68.75"/>
<polygon fill="#63b8ff" stroke="#63b8ff" points="130.66,-65.25 120.66,-68.75 130.66,-72.25 130.66,-65.25"/>
</a>
</g>
</g>
<!-- Node3 -->
<g id="Node000003" class="node">
<title>Node3</title>
<g id="a_Node000003"><a xlink:href="structiris_1_1x86_1_1amd64_1_1ssd_1_1Present.html" target="_top" xlink:title=" ">
<polygon fill="white" stroke="#666666" points="272,-33.5 154.75,-33.5 154.75,0 272,0 272,-33.5"/>
<text text-anchor="start" x="162.75" y="-20" font-family="Helvetica,sans-Serif" font-size="10.00">iris::x86::amd64::ssd</text>
<text text-anchor="middle" x="213.38" y="-7.25" font-family="Helvetica,sans-Serif" font-size="10.00">::Present</text>
</a>
</g>
</g>
<!-- Node0&#45;&gt;Node3 -->
<g id="edge71_Node000000_Node000003" class="edge">
<title>Node0&#45;&gt;Node3</title>
<g id="a_edge71_Node000000_Node000003"><a xlink:title=" ">
<path fill="none" stroke="#63b8ff" d="M102.58,-54.31C121.02,-48 142.8,-40.55 162.07,-33.96"/>
<polygon fill="#63b8ff" stroke="#63b8ff" points="101.63,-50.94 93.3,-57.49 103.9,-57.56 101.63,-50.94"/>
</a>
</g>
</g>
</g>
</svg>
