<?xml version="1.0" encoding="UTF-8" standalone="no"?>
<!DOCTYPE svg PUBLIC "-//W3C//DTD SVG 1.1//EN"
 "http://www.w3.org/Graphics/SVG/1.1/DTD/svg11.dtd">
<!-- Generated by graphviz version 10.0.1 (0)
 -->
<!-- Title: Graphical Class Hierarchy Pages: 1 -->
<svg width="473pt" height="54pt"
 viewBox="0.00 0.00 473.00 54.25" xmlns="http://www.w3.org/2000/svg" xmlns:xlink="http://www.w3.org/1999/xlink">
<g id="graph0" class="graph" transform="scale(1 1) rotate(0) translate(4 50.25)">
<title>Graphical Class Hierarchy</title>
<!-- Node0 -->
<g id="Node000000" class="node">
<title>Node0</title>
<g id="a_Node000000"><a xlink:href="structdi_1_1container_1_1IntrusiveTagBase.html" target="_top" xlink:title=" ">
<polygon fill="white" stroke="#666666" points="153.25,-46.25 0,-46.25 0,0 153.25,0 153.25,-46.25"/>
<text text-anchor="start" x="8" y="-32.75" font-family="Helvetica,sans-Serif" font-size="10.00">di::container::Intrusive</text>
<text text-anchor="start" x="8" y="-20" font-family="Helvetica,sans-Serif" font-size="10.00">TagBase&lt; IntrusiveListNode</text>
<text text-anchor="middle" x="76.62" y="-7.25" font-family="Helvetica,sans-Serif" font-size="10.00">&lt; Self &gt; &gt;</text>
</a>
</g>
</g>
<!-- Node1 -->
<g id="Node000001" class="node">
<title>Node1</title>
<g id="a_Node000001"><a xlink:href="structdi_1_1container_1_1IntrusiveListTag.html" target="_top" xlink:title=" ">
<polygon fill="white" stroke="#666666" points="314.75,-39.88 189.25,-39.88 189.25,-6.38 314.75,-6.38 314.75,-39.88"/>
<text text-anchor="start" x="197.25" y="-26.38" font-family="Helvetica,sans-Serif" font-size="10.00">di::container::Intrusive</text>
<text text-anchor="middle" x="252" y="-13.62" font-family="Helvetica,sans-Serif" font-size="10.00">ListTag&lt; Self &gt;</text>
</a>
</g>
</g>
<!-- Node0&#45;&gt;Node1 -->
<g id="edge174_Node000000_Node000001" class="edge">
<title>Node0&#45;&gt;Node1</title>
<g id="a_edge174_Node000000_Node000001"><a xlink:title=" ">
<path fill="none" stroke="#63b8ff" d="M165,-23.12C173.03,-23.12 181.06,-23.12 188.8,-23.12"/>
<polygon fill="#63b8ff" stroke="#63b8ff" points="165.18,-19.63 155.18,-23.13 165.18,-26.63 165.18,-19.63"/>
</a>
</g>
</g>
<!-- Node2 -->
<g id="Node000002" class="node">
<title>Node2</title>
<g id="a_Node000002"><a xlink:href="structdius_1_1runtime_1_1detail_1_1SizedTag.html" target="_top" xlink:title=" ">
<polygon fill="white" stroke="#666666" points="465,-39.88 350.75,-39.88 350.75,-6.38 465,-6.38 465,-39.88"/>
<text text-anchor="start" x="358.75" y="-26.38" font-family="Helvetica,sans-Serif" font-size="10.00">dius::runtime::detail</text>
<text text-anchor="middle" x="407.88" y="-13.62" font-family="Helvetica,sans-Serif" font-size="10.00">::SizedTag</text>
</a>
</g>
</g>
<!-- Node1&#45;&gt;Node2 -->
<g id="edge175_Node000001_Node000002" class="edge">
<title>Node1&#45;&gt;Node2</title>
<g id="a_edge175_Node000001_Node000002"><a xlink:title=" ">
<path fill="none" stroke="#63b8ff" d="M326.47,-23.12C334.54,-23.12 342.65,-23.12 350.46,-23.12"/>
<polygon fill="#63b8ff" stroke="#63b8ff" points="326.66,-19.63 316.66,-23.13 326.66,-26.63 326.66,-19.63"/>
</a>
</g>
</g>
</g>
</svg>
