<?xml version="1.0" encoding="UTF-8" standalone="no"?>
<!DOCTYPE svg PUBLIC "-//W3C//DTD SVG 1.1//EN"
 "http://www.w3.org/Graphics/SVG/1.1/DTD/svg11.dtd">
<!-- Generated by graphviz version 12.2.1 (0)
 -->
<!-- Title: Graphical Class Hierarchy Pages: 1 -->
<svg width="521pt" height="42pt"
 viewBox="0.00 0.00 521.00 41.50" xmlns="http://www.w3.org/2000/svg" xmlns:xlink="http://www.w3.org/1999/xlink">
<g id="graph0" class="graph" transform="scale(1 1) rotate(0) translate(4 37.5)">
<title>Graphical Class Hierarchy</title>
<!-- Node0 -->
<g id="Node000000" class="node">
<title>Node0</title>
<g id="a_Node000000"><a xlink:href="classdi_1_1meta_1_1EnableView.html" target="_top" xlink:title=" ">
<polygon fill="white" stroke="#666666" points="154,-33.5 0,-33.5 0,0 154,0 154,-33.5"/>
<text text-anchor="start" x="8" y="-20" font-family="Helvetica,sans-Serif" font-size="10.00">di::meta::EnableView</text>
<text text-anchor="middle" x="77" y="-7.25" font-family="Helvetica,sans-Serif" font-size="10.00">&lt; CacheLastView&lt; Con &gt; &gt;</text>
</a>
</g>
</g>
<!-- Node1 -->
<g id="Node000001" class="node">
<title>Node1</title>
<g id="a_Node000001"><a xlink:href="classdi_1_1container_1_1ViewInterface.html" target="_top" xlink:title=" ">
<polygon fill="white" stroke="#666666" points="344,-33.5 190,-33.5 190,0 344,0 344,-33.5"/>
<text text-anchor="start" x="198" y="-20" font-family="Helvetica,sans-Serif" font-size="10.00">di::container::ViewInterface</text>
<text text-anchor="middle" x="267" y="-7.25" font-family="Helvetica,sans-Serif" font-size="10.00">&lt; CacheLastView&lt; Con &gt; &gt;</text>
</a>
</g>
</g>
<!-- Node0&#45;&gt;Node1 -->
<g id="edge826_Node000000_Node000001" class="edge">
<title>Node0&#45;&gt;Node1</title>
<g id="a_edge826_Node000000_Node000001"><a xlink:title=" ">
<path fill="none" stroke="#63b8ff" d="M165.97,-16.75C173.86,-16.75 181.82,-16.75 189.6,-16.75"/>
<polygon fill="#63b8ff" stroke="#63b8ff" points="165.98,-13.25 155.98,-16.75 165.98,-20.25 165.98,-13.25"/>
</a>
</g>
</g>
<!-- Node2 -->
<g id="Node000002" class="node">
<title>Node2</title>
<g id="a_Node000002"><a xlink:href="classdi_1_1container_1_1CacheLastView.html" target="_top" xlink:title=" ">
<polygon fill="white" stroke="#666666" points="513,-33.5 380,-33.5 380,0 513,0 513,-33.5"/>
<text text-anchor="start" x="388" y="-20" font-family="Helvetica,sans-Serif" font-size="10.00">di::container::CacheLast</text>
<text text-anchor="middle" x="446.5" y="-7.25" font-family="Helvetica,sans-Serif" font-size="10.00">View&lt; Con &gt;</text>
</a>
</g>
</g>
<!-- Node1&#45;&gt;Node2 -->
<g id="edge827_Node000001_Node000002" class="edge">
<title>Node1&#45;&gt;Node2</title>
<g id="a_edge827_Node000001_Node000002"><a xlink:title=" ">
<path fill="none" stroke="#63b8ff" d="M355.66,-16.75C363.71,-16.75 371.77,-16.75 379.59,-16.75"/>
<polygon fill="#63b8ff" stroke="#63b8ff" points="355.82,-13.25 345.82,-16.75 355.82,-20.25 355.82,-13.25"/>
</a>
</g>
</g>
</g>
</svg>
