<?xml version="1.0" encoding="UTF-8" standalone="no"?>
<!DOCTYPE svg PUBLIC "-//W3C//DTD SVG 1.1//EN"
 "http://www.w3.org/Graphics/SVG/1.1/DTD/svg11.dtd">
<!-- Generated by graphviz version 10.0.1 (0)
 -->
<!-- Title: Graphical Class Hierarchy Pages: 1 -->
<svg width="384pt" height="170pt"
 viewBox="0.00 0.00 383.50 170.25" xmlns="http://www.w3.org/2000/svg" xmlns:xlink="http://www.w3.org/1999/xlink">
<g id="graph0" class="graph" transform="scale(1 1) rotate(0) translate(4 166.25)">
<title>Graphical Class Hierarchy</title>
<!-- Node0 -->
<g id="Node000000" class="node">
<title>Node0</title>
<g id="a_Node000000"><a xlink:href="classdi_1_1meta_1_1EnableBorrowedContainer.html" target="_top" xlink:title=" ">
<polygon fill="white" stroke="#666666" points="203.5,-162.25 0,-162.25 0,-116 203.5,-116 203.5,-162.25"/>
<text text-anchor="start" x="8" y="-148.75" font-family="Helvetica,sans-Serif" font-size="10.00">di::meta::EnableBorrowed</text>
<text text-anchor="start" x="8" y="-136" font-family="Helvetica,sans-Serif" font-size="10.00">Container&lt; Optional&lt; T</text>
<text text-anchor="middle" x="101.75" y="-123.25" font-family="Helvetica,sans-Serif" font-size="10.00"> &gt;, concepts::LValueReference&lt; T &gt; &gt;</text>
</a>
</g>
</g>
<!-- Node1 -->
<g id="Node000001" class="node">
<title>Node1</title>
<g id="a_Node000001"><a xlink:href="classdi_1_1vocab_1_1Optional_3_01T_01_4.html" target="_top" xlink:title=" ">
<polygon fill="white" stroke="#666666" points="375.5,-91.5 239.5,-91.5 239.5,-70.75 375.5,-70.75 375.5,-91.5"/>
<text text-anchor="middle" x="307.5" y="-78" font-family="Helvetica,sans-Serif" font-size="10.00">di::vocab::Optional&lt; T &gt;</text>
</a>
</g>
</g>
<!-- Node0&#45;&gt;Node1 -->
<g id="edge468_Node000000_Node000001" class="edge">
<title>Node0&#45;&gt;Node1</title>
<g id="a_edge468_Node000000_Node000001"><a xlink:title=" ">
<path fill="none" stroke="#63b8ff" d="M196.49,-112.44C221.97,-105.19 248.15,-97.74 268.56,-91.92"/>
<polygon fill="#63b8ff" stroke="#63b8ff" points="195.74,-109.02 187.08,-115.12 197.65,-115.75 195.74,-109.02"/>
</a>
</g>
</g>
<!-- Node2 -->
<g id="Node000002" class="node">
<title>Node2</title>
<g id="a_Node000002"><a xlink:href="classdi_1_1meta_1_1EnableView.html" target="_top" xlink:title=" ">
<polygon fill="white" stroke="#666666" points="161.5,-97.88 42,-97.88 42,-64.38 161.5,-64.38 161.5,-97.88"/>
<text text-anchor="start" x="50" y="-84.38" font-family="Helvetica,sans-Serif" font-size="10.00">di::meta::EnableView</text>
<text text-anchor="middle" x="101.75" y="-71.62" font-family="Helvetica,sans-Serif" font-size="10.00">&lt; Optional&lt; T &gt; &gt;</text>
</a>
</g>
</g>
<!-- Node2&#45;&gt;Node1 -->
<g id="edge469_Node000002_Node000001" class="edge">
<title>Node2&#45;&gt;Node1</title>
<g id="a_edge469_Node000002_Node000001"><a xlink:title=" ">
<path fill="none" stroke="#63b8ff" d="M173.27,-81.12C194.66,-81.12 218.09,-81.12 239.26,-81.12"/>
<polygon fill="#63b8ff" stroke="#63b8ff" points="173.47,-77.63 163.47,-81.13 173.47,-84.63 173.47,-77.63"/>
</a>
</g>
</g>
<!-- Node3 -->
<g id="Node000003" class="node">
<title>Node3</title>
<g id="a_Node000003"><a xlink:href="classdi_1_1function_1_1monad_1_1MonadInterface.html" target="_top" xlink:title=" ">
<polygon fill="white" stroke="#666666" points="177.25,-46.25 26.25,-46.25 26.25,0 177.25,0 177.25,-46.25"/>
<text text-anchor="start" x="34.25" y="-32.75" font-family="Helvetica,sans-Serif" font-size="10.00">di::function::monad</text>
<text text-anchor="start" x="34.25" y="-20" font-family="Helvetica,sans-Serif" font-size="10.00">::MonadInterface&lt; Optional</text>
<text text-anchor="middle" x="101.75" y="-7.25" font-family="Helvetica,sans-Serif" font-size="10.00">&lt; T &gt; &gt;</text>
</a>
</g>
</g>
<!-- Node3&#45;&gt;Node1 -->
<g id="edge470_Node000003_Node000001" class="edge">
<title>Node3&#45;&gt;Node1</title>
<g id="a_edge470_Node000003_Node000001"><a xlink:title=" ">
<path fill="none" stroke="#63b8ff" d="M188.45,-47.52C216.31,-55.45 245.83,-63.86 268.39,-70.28"/>
<polygon fill="#63b8ff" stroke="#63b8ff" points="189.49,-44.18 178.92,-44.81 187.58,-50.91 189.49,-44.18"/>
</a>
</g>
</g>
</g>
</svg>
