<?xml version="1.0" encoding="UTF-8" standalone="no"?>
<!DOCTYPE svg PUBLIC "-//W3C//DTD SVG 1.1//EN"
 "http://www.w3.org/Graphics/SVG/1.1/DTD/svg11.dtd">
<!-- Generated by graphviz version 10.0.1 (0)
 -->
<!-- Title: Graphical Class Hierarchy Pages: 1 -->
<svg width="275pt" height="94pt"
 viewBox="0.00 0.00 274.75 93.50" xmlns="http://www.w3.org/2000/svg" xmlns:xlink="http://www.w3.org/1999/xlink">
<g id="graph0" class="graph" transform="scale(1 1) rotate(0) translate(4 89.5)">
<title>Graphical Class Hierarchy</title>
<!-- Node0 -->
<g id="Node000000" class="node">
<title>Node0</title>
<g id="a_Node000000"><a xlink:href="structdi_1_1bit_1_1BitFlag.html" target="_top" xlink:title=" ">
<polygon fill="white" stroke="#666666" points="118.75,-53.12 0,-53.12 0,-32.38 118.75,-32.38 118.75,-53.12"/>
<text text-anchor="middle" x="59.38" y="-39.62" font-family="Helvetica,sans-Serif" font-size="10.00">di::bit::BitFlag&lt; 41 &gt;</text>
</a>
</g>
</g>
<!-- Node1 -->
<g id="Node000001" class="node">
<title>Node1</title>
<g id="a_Node000001"><a xlink:href="structiris_1_1x86_1_1amd64_1_1sd_1_1Readable.html" target="_top" xlink:title=" ">
<polygon fill="white" stroke="#666666" points="266.75,-85.5 154.75,-85.5 154.75,-52 266.75,-52 266.75,-85.5"/>
<text text-anchor="start" x="162.75" y="-72" font-family="Helvetica,sans-Serif" font-size="10.00">iris::x86::amd64::sd</text>
<text text-anchor="middle" x="210.75" y="-59.25" font-family="Helvetica,sans-Serif" font-size="10.00">::Readable</text>
</a>
</g>
</g>
<!-- Node0&#45;&gt;Node1 -->
<g id="edge63_Node000000_Node000001" class="edge">
<title>Node0&#45;&gt;Node1</title>
<g id="a_edge63_Node000000_Node000001"><a xlink:title=" ">
<path fill="none" stroke="#63b8ff" d="M130.14,-54.89C138.39,-56.33 146.72,-57.78 154.72,-59.17"/>
<polygon fill="#63b8ff" stroke="#63b8ff" points="130.93,-51.48 120.47,-53.21 129.73,-58.37 130.93,-51.48"/>
</a>
</g>
</g>
<!-- Node2 -->
<g id="Node000002" class="node">
<title>Node2</title>
<g id="a_Node000002"><a xlink:href="structiris_1_1x86_1_1amd64_1_1sd_1_1Writable.html" target="_top" xlink:title=" ">
<polygon fill="white" stroke="#666666" points="266.75,-33.5 154.75,-33.5 154.75,0 266.75,0 266.75,-33.5"/>
<text text-anchor="start" x="162.75" y="-20" font-family="Helvetica,sans-Serif" font-size="10.00">iris::x86::amd64::sd</text>
<text text-anchor="middle" x="210.75" y="-7.25" font-family="Helvetica,sans-Serif" font-size="10.00">::Writable</text>
</a>
</g>
</g>
<!-- Node0&#45;&gt;Node2 -->
<g id="edge64_Node000000_Node000002" class="edge">
<title>Node0&#45;&gt;Node2</title>
<g id="a_edge64_Node000000_Node000002"><a xlink:title=" ">
<path fill="none" stroke="#63b8ff" d="M130.14,-30.61C138.39,-29.17 146.72,-27.72 154.72,-26.33"/>
<polygon fill="#63b8ff" stroke="#63b8ff" points="129.73,-27.13 120.47,-32.29 130.93,-34.02 129.73,-27.13"/>
</a>
</g>
</g>
</g>
</svg>
