<?xml version="1.0" encoding="UTF-8" standalone="no"?>
<!DOCTYPE svg PUBLIC "-//W3C//DTD SVG 1.1//EN"
 "http://www.w3.org/Graphics/SVG/1.1/DTD/svg11.dtd">
<!-- Generated by graphviz version 10.0.1 (0)
 -->
<!-- Title: Graphical Class Hierarchy Pages: 1 -->
<svg width="330pt" height="146pt"
 viewBox="0.00 0.00 330.25 145.50" xmlns="http://www.w3.org/2000/svg" xmlns:xlink="http://www.w3.org/1999/xlink">
<g id="graph0" class="graph" transform="scale(1 1) rotate(0) translate(4 141.5)">
<title>Graphical Class Hierarchy</title>
<!-- Node0 -->
<g id="Node000000" class="node">
<title>Node0</title>
<g id="a_Node000000"><a xlink:href="structdi_1_1util_1_1AddMemberGet.html" target="_top" xlink:title=" ">
<polygon fill="white" stroke="#666666" points="152.5,-137.5 23.25,-137.5 23.25,-104 152.5,-104 152.5,-137.5"/>
<text text-anchor="start" x="31.25" y="-124" font-family="Helvetica,sans-Serif" font-size="10.00">di::util::AddMemberGet</text>
<text text-anchor="middle" x="87.88" y="-111.25" font-family="Helvetica,sans-Serif" font-size="10.00">&lt; Span&lt; T, extent &gt; &gt;</text>
</a>
</g>
</g>
<!-- Node1 -->
<g id="Node000001" class="node">
<title>Node1</title>
<g id="a_Node000001"><a xlink:href="classdi_1_1vocab_1_1Span_3_01T_00_01extent_01_4.html" target="_top" xlink:title=" ">
<polygon fill="white" stroke="#666666" points="322.25,-85.5 211.75,-85.5 211.75,-52 322.25,-52 322.25,-85.5"/>
<text text-anchor="start" x="219.75" y="-72" font-family="Helvetica,sans-Serif" font-size="10.00">di::vocab::Span&lt; T,</text>
<text text-anchor="middle" x="267" y="-59.25" font-family="Helvetica,sans-Serif" font-size="10.00"> extent &gt;</text>
</a>
</g>
</g>
<!-- Node0&#45;&gt;Node1 -->
<g id="edge714_Node000000_Node000001" class="edge">
<title>Node0&#45;&gt;Node1</title>
<g id="a_edge714_Node000000_Node000001"><a xlink:title=" ">
<path fill="none" stroke="#63b8ff" d="M158.21,-100.4C175.89,-95.2 194.65,-89.7 211.47,-84.76"/>
<polygon fill="#63b8ff" stroke="#63b8ff" points="157.42,-96.98 148.82,-103.15 159.4,-103.69 157.42,-96.98"/>
</a>
</g>
</g>
<!-- Node2 -->
<g id="Node000002" class="node">
<title>Node2</title>
<g id="a_Node000002"><a xlink:href="classdi_1_1meta_1_1EnableBorrowedContainer.html" target="_top" xlink:title=" ">
<polygon fill="white" stroke="#666666" points="175.75,-85.5 0,-85.5 0,-52 175.75,-52 175.75,-85.5"/>
<text text-anchor="start" x="8" y="-72" font-family="Helvetica,sans-Serif" font-size="10.00">di::meta::EnableBorrowed</text>
<text text-anchor="middle" x="87.88" y="-59.25" font-family="Helvetica,sans-Serif" font-size="10.00">Container&lt; Span&lt; T, extent &gt; &gt;</text>
</a>
</g>
</g>
<!-- Node2&#45;&gt;Node1 -->
<g id="edge715_Node000002_Node000001" class="edge">
<title>Node2&#45;&gt;Node1</title>
<g id="a_edge715_Node000002_Node000001"><a xlink:title=" ">
<path fill="none" stroke="#63b8ff" d="M187.42,-68.75C195.66,-68.75 203.78,-68.75 211.5,-68.75"/>
<polygon fill="#63b8ff" stroke="#63b8ff" points="187.65,-65.25 177.65,-68.75 187.65,-72.25 187.65,-65.25"/>
</a>
</g>
</g>
<!-- Node3 -->
<g id="Node000003" class="node">
<title>Node3</title>
<g id="a_Node000003"><a xlink:href="classdi_1_1meta_1_1EnableView.html" target="_top" xlink:title=" ">
<polygon fill="white" stroke="#666666" points="152.12,-33.5 23.62,-33.5 23.62,0 152.12,0 152.12,-33.5"/>
<text text-anchor="start" x="31.62" y="-20" font-family="Helvetica,sans-Serif" font-size="10.00">di::meta::EnableView</text>
<text text-anchor="middle" x="87.88" y="-7.25" font-family="Helvetica,sans-Serif" font-size="10.00">&lt; Span&lt; T, extent &gt; &gt;</text>
</a>
</g>
</g>
<!-- Node3&#45;&gt;Node1 -->
<g id="edge716_Node000003_Node000001" class="edge">
<title>Node3&#45;&gt;Node1</title>
<g id="a_edge716_Node000003_Node000001"><a xlink:title=" ">
<path fill="none" stroke="#63b8ff" d="M158.21,-37.1C175.89,-42.3 194.65,-47.8 211.47,-52.74"/>
<polygon fill="#63b8ff" stroke="#63b8ff" points="159.4,-33.81 148.82,-34.35 157.42,-40.52 159.4,-33.81"/>
</a>
</g>
</g>
</g>
</svg>
