<?xml version="1.0" encoding="UTF-8" standalone="no"?>
<!DOCTYPE svg PUBLIC "-//W3C//DTD SVG 1.1//EN"
 "http://www.w3.org/Graphics/SVG/1.1/DTD/svg11.dtd">
<!-- Generated by graphviz version 10.0.1 (0)
 -->
<!-- Title: Graphical Class Hierarchy Pages: 1 -->
<svg width="331pt" height="548pt"
 viewBox="0.00 0.00 331.00 547.50" xmlns="http://www.w3.org/2000/svg" xmlns:xlink="http://www.w3.org/1999/xlink">
<g id="graph0" class="graph" transform="scale(1 1) rotate(0) translate(4 543.5)">
<title>Graphical Class Hierarchy</title>
<!-- Node0 -->
<g id="Node000000" class="node">
<title>Node0</title>
<g id="a_Node000000"><a xlink:href="structdi_1_1bit_1_1BitField.html" target="_top" xlink:title=" ">
<polygon fill="white" stroke="#666666" points="108.25,-279.5 0,-279.5 0,-246 108.25,-246 108.25,-279.5"/>
<text text-anchor="start" x="8" y="-266" font-family="Helvetica,sans-Serif" font-size="10.00">di::bit::BitField&lt;</text>
<text text-anchor="middle" x="54.12" y="-253.25" font-family="Helvetica,sans-Serif" font-size="10.00"> index, bit_count &gt;</text>
</a>
</g>
</g>
<!-- Node1 -->
<g id="Node000001" class="node">
<title>Node1</title>
<g id="a_Node000001"><a xlink:href="structiris_1_1x86_1_1amd64_1_1ApicExtendedFeatureExtendedLvtCount.html" target="_top" xlink:title=" ">
<polygon fill="white" stroke="#666666" points="317.38,-539.5 149.88,-539.5 149.88,-506 317.38,-506 317.38,-539.5"/>
<text text-anchor="start" x="157.88" y="-526" font-family="Helvetica,sans-Serif" font-size="10.00">iris::x86::amd64::ApicExtended</text>
<text text-anchor="middle" x="233.62" y="-513.25" font-family="Helvetica,sans-Serif" font-size="10.00">FeatureExtendedLvtCount</text>
</a>
</g>
</g>
<!-- Node0&#45;&gt;Node1 -->
<g id="edge46_Node000000_Node000001" class="edge">
<title>Node0&#45;&gt;Node1</title>
<g id="a_edge46_Node000000_Node000001"><a xlink:title=" ">
<path fill="none" stroke="#63b8ff" d="M57.85,-290.99C64.11,-340.02 83.94,-440.96 144.25,-496.75 147.89,-500.12 151.94,-503.05 156.26,-505.6"/>
<polygon fill="#63b8ff" stroke="#63b8ff" points="61.35,-290.74 56.71,-281.21 54.39,-291.55 61.35,-290.74"/>
</a>
</g>
</g>
<!-- Node2 -->
<g id="Node000002" class="node">
<title>Node2</title>
<g id="a_Node000002"><a xlink:href="structiris_1_1x86_1_1amd64_1_1ApicInterruptCommandDestination.html" target="_top" xlink:title=" ">
<polygon fill="white" stroke="#666666" points="315.5,-487.5 151.75,-487.5 151.75,-454 315.5,-454 315.5,-487.5"/>
<text text-anchor="start" x="159.75" y="-474" font-family="Helvetica,sans-Serif" font-size="10.00">iris::x86::amd64::ApicInterrupt</text>
<text text-anchor="middle" x="233.62" y="-461.25" font-family="Helvetica,sans-Serif" font-size="10.00">CommandDestination</text>
</a>
</g>
</g>
<!-- Node0&#45;&gt;Node2 -->
<g id="edge47_Node000000_Node000002" class="edge">
<title>Node0&#45;&gt;Node2</title>
<g id="a_edge47_Node000000_Node000002"><a xlink:title=" ">
<path fill="none" stroke="#63b8ff" d="M61.34,-290.97C71.62,-331.04 96.01,-404.06 144.25,-444.75 148.28,-448.15 152.75,-451.11 157.46,-453.68"/>
<polygon fill="#63b8ff" stroke="#63b8ff" points="64.76,-290.26 59,-281.37 57.96,-291.91 64.76,-290.26"/>
</a>
</g>
</g>
<!-- Node3 -->
<g id="Node000003" class="node">
<title>Node3</title>
<g id="a_Node000003"><a xlink:href="structiris_1_1x86_1_1amd64_1_1ApicInterruptCommandRemoteReadStatus.html" target="_top" xlink:title=" ">
<polygon fill="white" stroke="#666666" points="315.5,-435.5 151.75,-435.5 151.75,-402 315.5,-402 315.5,-435.5"/>
<text text-anchor="start" x="159.75" y="-422" font-family="Helvetica,sans-Serif" font-size="10.00">iris::x86::amd64::ApicInterrupt</text>
<text text-anchor="middle" x="233.62" y="-409.25" font-family="Helvetica,sans-Serif" font-size="10.00">CommandRemoteReadStatus</text>
</a>
</g>
</g>
<!-- Node0&#45;&gt;Node3 -->
<g id="edge48_Node000000_Node000003" class="edge">
<title>Node0&#45;&gt;Node3</title>
<g id="a_edge48_Node000000_Node000003"><a xlink:title=" ">
<path fill="none" stroke="#63b8ff" d="M67.07,-290.33C81.27,-319.93 107.73,-366.23 144.25,-392.75 148.91,-396.13 154.01,-399.08 159.32,-401.64"/>
<polygon fill="#63b8ff" stroke="#63b8ff" points="70.25,-288.86 62.87,-281.26 63.9,-291.81 70.25,-288.86"/>
</a>
</g>
</g>
<!-- Node4 -->
<g id="Node000004" class="node">
<title>Node4</title>
<g id="a_Node000004"><a xlink:href="structiris_1_1x86_1_1amd64_1_1ApicInterruptCommandVector.html" target="_top" xlink:title=" ">
<polygon fill="white" stroke="#666666" points="315.5,-383.5 151.75,-383.5 151.75,-350 315.5,-350 315.5,-383.5"/>
<text text-anchor="start" x="159.75" y="-370" font-family="Helvetica,sans-Serif" font-size="10.00">iris::x86::amd64::ApicInterrupt</text>
<text text-anchor="middle" x="233.62" y="-357.25" font-family="Helvetica,sans-Serif" font-size="10.00">CommandVector</text>
</a>
</g>
</g>
<!-- Node0&#45;&gt;Node4 -->
<g id="edge49_Node000000_Node000004" class="edge">
<title>Node0&#45;&gt;Node4</title>
<g id="a_edge49_Node000000_Node000004"><a xlink:title=" ">
<path fill="none" stroke="#63b8ff" d="M77.87,-287.71C94.71,-304.83 119.01,-326.88 144.25,-340.75 150.28,-344.06 156.77,-347 163.41,-349.58"/>
<polygon fill="#63b8ff" stroke="#63b8ff" points="80.74,-285.64 71.28,-280.85 75.69,-290.49 80.74,-285.64"/>
</a>
</g>
</g>
<!-- Node5 -->
<g id="Node000005" class="node">
<title>Node5</title>
<g id="a_Node000005"><a xlink:href="structiris_1_1x86_1_1amd64_1_1ApicLvtEntryVector.html" target="_top" xlink:title=" ">
<polygon fill="white" stroke="#666666" points="302,-331.5 165.25,-331.5 165.25,-298 302,-298 302,-331.5"/>
<text text-anchor="start" x="173.25" y="-318" font-family="Helvetica,sans-Serif" font-size="10.00">iris::x86::amd64::ApicLvt</text>
<text text-anchor="middle" x="233.62" y="-305.25" font-family="Helvetica,sans-Serif" font-size="10.00">EntryVector</text>
</a>
</g>
</g>
<!-- Node0&#45;&gt;Node5 -->
<g id="edge50_Node000000_Node000005" class="edge">
<title>Node0&#45;&gt;Node5</title>
<g id="a_edge50_Node000000_Node000005"><a xlink:title=" ">
<path fill="none" stroke="#63b8ff" d="M119.26,-281.54C137.08,-286.76 156.33,-292.4 173.82,-297.52"/>
<polygon fill="#63b8ff" stroke="#63b8ff" points="120.41,-278.23 109.83,-278.78 118.45,-284.95 120.41,-278.23"/>
</a>
</g>
</g>
<!-- Node6 -->
<g id="Node000006" class="node">
<title>Node6</title>
<g id="a_Node000006"><a xlink:href="structiris_1_1x86_1_1amd64_1_1ApicMaxLvtEntry.html" target="_top" xlink:title=" ">
<polygon fill="white" stroke="#666666" points="305,-279.5 162.25,-279.5 162.25,-246 305,-246 305,-279.5"/>
<text text-anchor="start" x="170.25" y="-266" font-family="Helvetica,sans-Serif" font-size="10.00">iris::x86::amd64::ApicMax</text>
<text text-anchor="middle" x="233.62" y="-253.25" font-family="Helvetica,sans-Serif" font-size="10.00">LvtEntry</text>
</a>
</g>
</g>
<!-- Node0&#45;&gt;Node6 -->
<g id="edge51_Node000000_Node000006" class="edge">
<title>Node0&#45;&gt;Node6</title>
<g id="a_edge51_Node000000_Node000006"><a xlink:title=" ">
<path fill="none" stroke="#63b8ff" d="M119.7,-262.75C133.45,-262.75 148.03,-262.75 161.99,-262.75"/>
<polygon fill="#63b8ff" stroke="#63b8ff" points="119.89,-259.25 109.89,-262.75 119.89,-266.25 119.89,-259.25"/>
</a>
</g>
</g>
<!-- Node7 -->
<g id="Node000007" class="node">
<title>Node7</title>
<g id="a_Node000007"><a xlink:href="structiris_1_1x86_1_1amd64_1_1ApicVersion.html" target="_top" xlink:title=" ">
<polygon fill="white" stroke="#666666" points="312.5,-228.12 154.75,-228.12 154.75,-207.38 312.5,-207.38 312.5,-228.12"/>
<text text-anchor="middle" x="233.62" y="-214.62" font-family="Helvetica,sans-Serif" font-size="10.00">iris::x86::amd64::ApicVersion</text>
</a>
</g>
</g>
<!-- Node0&#45;&gt;Node7 -->
<g id="edge52_Node000000_Node000007" class="edge">
<title>Node0&#45;&gt;Node7</title>
<g id="a_edge52_Node000000_Node000007"><a xlink:title=" ">
<path fill="none" stroke="#63b8ff" d="M119.5,-243.37C127.8,-241.05 136.21,-238.78 144.25,-236.75 155.51,-233.9 167.64,-231.11 179.21,-228.59"/>
<polygon fill="#63b8ff" stroke="#63b8ff" points="118.8,-239.93 110.14,-246.03 120.71,-246.67 118.8,-239.93"/>
</a>
</g>
</g>
<!-- Node8 -->
<g id="Node000008" class="node">
<title>Node8</title>
<g id="a_Node000008"><a xlink:href="structiris_1_1x86_1_1amd64_1_1IoApicMaxRedirectionEntry.html" target="_top" xlink:title=" ">
<polygon fill="white" stroke="#666666" points="299,-189.5 168.25,-189.5 168.25,-156 299,-156 299,-189.5"/>
<text text-anchor="start" x="176.25" y="-176" font-family="Helvetica,sans-Serif" font-size="10.00">iris::x86::amd64::IoApic</text>
<text text-anchor="middle" x="233.62" y="-163.25" font-family="Helvetica,sans-Serif" font-size="10.00">MaxRedirectionEntry</text>
</a>
</g>
</g>
<!-- Node0&#45;&gt;Node8 -->
<g id="edge53_Node000000_Node000008" class="edge">
<title>Node0&#45;&gt;Node8</title>
<g id="a_edge53_Node000000_Node000008"><a xlink:title=" ">
<path fill="none" stroke="#63b8ff" d="M83.49,-238.59C100.27,-225.3 122.44,-209.4 144.25,-198.75 151.72,-195.1 159.81,-191.86 167.94,-189.01"/>
<polygon fill="#63b8ff" stroke="#63b8ff" points="81.51,-235.69 75.94,-244.7 85.91,-241.13 81.51,-235.69"/>
</a>
</g>
</g>
<!-- Node9 -->
<g id="Node000009" class="node">
<title>Node9</title>
<g id="a_Node000009"><a xlink:href="structiris_1_1x86_1_1amd64_1_1IoApicRedirectionTableEntryDestination.html" target="_top" xlink:title=" ">
<polygon fill="white" stroke="#666666" points="323,-137.5 144.25,-137.5 144.25,-104 323,-104 323,-137.5"/>
<text text-anchor="start" x="152.25" y="-124" font-family="Helvetica,sans-Serif" font-size="10.00">iris::x86::amd64::IoApic</text>
<text text-anchor="middle" x="233.62" y="-111.25" font-family="Helvetica,sans-Serif" font-size="10.00">RedirectionTableEntryDestination</text>
</a>
</g>
</g>
<!-- Node0&#45;&gt;Node9 -->
<g id="edge54_Node000000_Node000009" class="edge">
<title>Node0&#45;&gt;Node9</title>
<g id="a_edge54_Node000000_Node000009"><a xlink:title=" ">
<path fill="none" stroke="#63b8ff" d="M69,-236.07C84.08,-209.63 110.59,-169.82 144.25,-146.75 149.13,-143.4 154.45,-140.48 159.97,-137.93"/>
<polygon fill="#63b8ff" stroke="#63b8ff" points="66.11,-234.06 64.34,-244.5 72.24,-237.44 66.11,-234.06"/>
</a>
</g>
</g>
<!-- Node10 -->
<g id="Node000010" class="node">
<title>Node10</title>
<g id="a_Node000010"><a xlink:href="structiris_1_1x86_1_1amd64_1_1IoApicRedirectionTableEntryVector.html" target="_top" xlink:title="IO APIC Redirection Table Entry.">
<polygon fill="white" stroke="#666666" points="310.25,-85.5 157,-85.5 157,-52 310.25,-52 310.25,-85.5"/>
<text text-anchor="start" x="165" y="-72" font-family="Helvetica,sans-Serif" font-size="10.00">iris::x86::amd64::IoApic</text>
<text text-anchor="middle" x="233.62" y="-59.25" font-family="Helvetica,sans-Serif" font-size="10.00">RedirectionTableEntryVector</text>
</a>
</g>
</g>
<!-- Node0&#45;&gt;Node10 -->
<g id="edge55_Node000000_Node000010" class="edge">
<title>Node0&#45;&gt;Node10</title>
<g id="a_edge55_Node000000_Node000010"><a xlink:title=" ">
<path fill="none" stroke="#63b8ff" d="M62.47,-235.01C73.78,-197.66 99.05,-131.65 144.25,-94.75 148.34,-91.41 152.84,-88.5 157.58,-85.97"/>
<polygon fill="#63b8ff" stroke="#63b8ff" points="59.24,-233.58 59.82,-244.16 65.96,-235.53 59.24,-233.58"/>
</a>
</g>
</g>
<!-- Node11 -->
<g id="Node000011" class="node">
<title>Node11</title>
<g id="a_Node000011"><a xlink:href="structiris_1_1x86_1_1amd64_1_1IoApicVersion.html" target="_top" xlink:title="IO APIC Version Register.">
<polygon fill="white" stroke="#666666" points="299,-33.5 168.25,-33.5 168.25,0 299,0 299,-33.5"/>
<text text-anchor="start" x="176.25" y="-20" font-family="Helvetica,sans-Serif" font-size="10.00">iris::x86::amd64::IoApic</text>
<text text-anchor="middle" x="233.62" y="-7.25" font-family="Helvetica,sans-Serif" font-size="10.00">Version</text>
</a>
</g>
</g>
<!-- Node0&#45;&gt;Node11 -->
<g id="edge56_Node000000_Node000011" class="edge">
<title>Node0&#45;&gt;Node11</title>
<g id="a_edge56_Node000000_Node000011"><a xlink:title=" ">
<path fill="none" stroke="#63b8ff" d="M58.69,-234.2C66.05,-187.37 87.33,-94.3 144.25,-42.75 151.12,-36.52 159.42,-31.78 168.14,-28.18"/>
<polygon fill="#63b8ff" stroke="#63b8ff" points="55.23,-233.69 57.25,-244.09 62.15,-234.7 55.23,-233.69"/>
</a>
</g>
</g>
</g>
</svg>
