<?xml version="1.0" encoding="UTF-8" standalone="no"?>
<!DOCTYPE svg PUBLIC "-//W3C//DTD SVG 1.1//EN"
 "http://www.w3.org/Graphics/SVG/1.1/DTD/svg11.dtd">
<!-- Generated by graphviz version 10.0.1 (0)
 -->
<!-- Title: Graphical Class Hierarchy Pages: 1 -->
<svg width="341pt" height="94pt"
 viewBox="0.00 0.00 340.75 93.50" xmlns="http://www.w3.org/2000/svg" xmlns:xlink="http://www.w3.org/1999/xlink">
<g id="graph0" class="graph" transform="scale(1 1) rotate(0) translate(4 89.5)">
<title>Graphical Class Hierarchy</title>
<!-- Node0 -->
<g id="Node000000" class="node">
<title>Node0</title>
<g id="a_Node000000"><a xlink:href="structdi_1_1meta_1_1TypeConstant.html" target="_top" xlink:title=" ">
<polygon fill="white" stroke="#666666" points="128.5,-59.5 0,-59.5 0,-26 128.5,-26 128.5,-59.5"/>
<text text-anchor="start" x="8" y="-46" font-family="Helvetica,sans-Serif" font-size="10.00">di::meta::TypeConstant</text>
<text text-anchor="middle" x="64.25" y="-33.25" font-family="Helvetica,sans-Serif" font-size="10.00">&lt; unsigned char &gt;</text>
</a>
</g>
</g>
<!-- Node1 -->
<g id="Node000001" class="node">
<title>Node1</title>
<g id="a_Node000001"><a xlink:href="structdi_1_1meta_1_1detail_1_1MakeUnsignedHelper_3_01char_01_4.html" target="_top" xlink:title=" ">
<polygon fill="white" stroke="#666666" points="332.75,-85.5 164.5,-85.5 164.5,-52 332.75,-52 332.75,-85.5"/>
<text text-anchor="start" x="172.5" y="-72" font-family="Helvetica,sans-Serif" font-size="10.00">di::meta::detail::MakeUnsigned</text>
<text text-anchor="middle" x="248.62" y="-59.25" font-family="Helvetica,sans-Serif" font-size="10.00">Helper&lt; char &gt;</text>
</a>
</g>
</g>
<!-- Node0&#45;&gt;Node1 -->
<g id="edge586_Node000000_Node000001" class="edge">
<title>Node0&#45;&gt;Node1</title>
<g id="a_edge586_Node000000_Node000001"><a xlink:title=" ">
<path fill="none" stroke="#63b8ff" d="M139.91,-53.39C147.89,-54.53 156.04,-55.69 164.11,-56.84"/>
<polygon fill="#63b8ff" stroke="#63b8ff" points="140.67,-49.97 130.28,-52.02 139.68,-56.9 140.67,-49.97"/>
</a>
</g>
</g>
<!-- Node2 -->
<g id="Node000002" class="node">
<title>Node2</title>
<g id="a_Node000002"><a xlink:href="structdi_1_1meta_1_1detail_1_1MakeUnsignedHelper_3_01signed_01char_01_4.html" target="_top" xlink:title=" ">
<polygon fill="white" stroke="#666666" points="332.75,-33.5 164.5,-33.5 164.5,0 332.75,0 332.75,-33.5"/>
<text text-anchor="start" x="172.5" y="-20" font-family="Helvetica,sans-Serif" font-size="10.00">di::meta::detail::MakeUnsigned</text>
<text text-anchor="middle" x="248.62" y="-7.25" font-family="Helvetica,sans-Serif" font-size="10.00">Helper&lt; signed char &gt;</text>
</a>
</g>
</g>
<!-- Node0&#45;&gt;Node2 -->
<g id="edge587_Node000000_Node000002" class="edge">
<title>Node0&#45;&gt;Node2</title>
<g id="a_edge587_Node000000_Node000002"><a xlink:title=" ">
<path fill="none" stroke="#63b8ff" d="M139.91,-32.11C147.89,-30.97 156.04,-29.81 164.11,-28.66"/>
<polygon fill="#63b8ff" stroke="#63b8ff" points="139.68,-28.6 130.28,-33.48 140.67,-35.53 139.68,-28.6"/>
</a>
</g>
</g>
</g>
</svg>
