<?xml version="1.0" encoding="UTF-8" standalone="no"?>
<!DOCTYPE svg PUBLIC "-//W3C//DTD SVG 1.1//EN"
 "http://www.w3.org/Graphics/SVG/1.1/DTD/svg11.dtd">
<!-- Generated by graphviz version 10.0.1 (0)
 -->
<!-- Title: Graphical Class Hierarchy Pages: 1 -->
<svg width="281pt" height="107pt"
 viewBox="0.00 0.00 280.75 106.75" xmlns="http://www.w3.org/2000/svg" xmlns:xlink="http://www.w3.org/1999/xlink">
<g id="graph0" class="graph" transform="scale(1 1) rotate(0) translate(4 102.75)">
<title>Graphical Class Hierarchy</title>
<!-- Node0 -->
<g id="Node000000" class="node">
<title>Node0</title>
<g id="a_Node000000"><a xlink:href="structdi_1_1bit_1_1BitField.html" target="_top" xlink:title=" ">
<polygon fill="white" stroke="#666666" points="94.75,-66.12 0,-66.12 0,-32.62 94.75,-32.62 94.75,-66.12"/>
<text text-anchor="start" x="8" y="-52.62" font-family="Helvetica,sans-Serif" font-size="10.00">di::bit::BitField&lt;</text>
<text text-anchor="middle" x="47.38" y="-39.88" font-family="Helvetica,sans-Serif" font-size="10.00"> 45, 2 &gt;</text>
</a>
</g>
</g>
<!-- Node1 -->
<g id="Node000001" class="node">
<title>Node1</title>
<g id="a_Node000001"><a xlink:href="structiris_1_1x86_1_1amd64_1_1idt_1_1DPL.html" target="_top" xlink:title=" ">
<polygon fill="white" stroke="#666666" points="270.88,-98.75 132.62,-98.75 132.62,-78 270.88,-78 270.88,-98.75"/>
<text text-anchor="middle" x="201.75" y="-85.25" font-family="Helvetica,sans-Serif" font-size="10.00">iris::x86::amd64::idt::DPL</text>
</a>
</g>
</g>
<!-- Node0&#45;&gt;Node1 -->
<g id="edge36_Node000000_Node000001" class="edge">
<title>Node0&#45;&gt;Node1</title>
<g id="a_edge36_Node000000_Node000001"><a xlink:title=" ">
<path fill="none" stroke="#63b8ff" d="M105.6,-64.02C123.11,-68.5 142.04,-73.35 158.38,-77.53"/>
<polygon fill="#63b8ff" stroke="#63b8ff" points="106.94,-60.75 96.39,-61.66 105.21,-67.53 106.94,-60.75"/>
</a>
</g>
</g>
<!-- Node2 -->
<g id="Node000002" class="node">
<title>Node2</title>
<g id="a_Node000002"><a xlink:href="structiris_1_1x86_1_1amd64_1_1sd_1_1DPL.html" target="_top" xlink:title=" ">
<polygon fill="white" stroke="#666666" points="270.12,-59.75 133.38,-59.75 133.38,-39 270.12,-39 270.12,-59.75"/>
<text text-anchor="middle" x="201.75" y="-46.25" font-family="Helvetica,sans-Serif" font-size="10.00">iris::x86::amd64::sd::DPL</text>
</a>
</g>
</g>
<!-- Node0&#45;&gt;Node2 -->
<g id="edge37_Node000000_Node000002" class="edge">
<title>Node0&#45;&gt;Node2</title>
<g id="a_edge37_Node000000_Node000002"><a xlink:title=" ">
<path fill="none" stroke="#63b8ff" d="M106.16,-49.38C114.9,-49.38 123.97,-49.38 132.89,-49.38"/>
<polygon fill="#63b8ff" stroke="#63b8ff" points="106.43,-45.88 96.43,-49.38 106.43,-52.88 106.43,-45.88"/>
</a>
</g>
</g>
<!-- Node3 -->
<g id="Node000003" class="node">
<title>Node3</title>
<g id="a_Node000003"><a xlink:href="structiris_1_1x86_1_1amd64_1_1ssd_1_1DPL.html" target="_top" xlink:title=" ">
<polygon fill="white" stroke="#666666" points="272.75,-20.75 130.75,-20.75 130.75,0 272.75,0 272.75,-20.75"/>
<text text-anchor="middle" x="201.75" y="-7.25" font-family="Helvetica,sans-Serif" font-size="10.00">iris::x86::amd64::ssd::DPL</text>
</a>
</g>
</g>
<!-- Node0&#45;&gt;Node3 -->
<g id="edge38_Node000000_Node000003" class="edge">
<title>Node0&#45;&gt;Node3</title>
<g id="a_edge38_Node000000_Node000003"><a xlink:title=" ">
<path fill="none" stroke="#63b8ff" d="M105.6,-34.73C123.11,-30.25 142.04,-25.4 158.38,-21.22"/>
<polygon fill="#63b8ff" stroke="#63b8ff" points="105.21,-31.22 96.39,-37.09 106.94,-38 105.21,-31.22"/>
</a>
</g>
</g>
</g>
</svg>
