<?xml version="1.0" encoding="UTF-8" standalone="no"?>
<!DOCTYPE svg PUBLIC "-//W3C//DTD SVG 1.1//EN"
 "http://www.w3.org/Graphics/SVG/1.1/DTD/svg11.dtd">
<!-- Generated by graphviz version 10.0.1 (0)
 -->
<!-- Title: Graphical Class Hierarchy Pages: 1 -->
<svg width="518pt" height="273pt"
 viewBox="0.00 0.00 518.00 272.88" xmlns="http://www.w3.org/2000/svg" xmlns:xlink="http://www.w3.org/1999/xlink">
<g id="graph0" class="graph" transform="scale(1 1) rotate(0) translate(4 268.88)">
<title>Graphical Class Hierarchy</title>
<!-- Node0 -->
<g id="Node000000" class="node">
<title>Node0</title>
<g id="a_Node000000"><a xlink:href="classdi_1_1container_1_1ConstantRingInterface.html" target="_top" xlink:title=" ">
<polygon fill="white" stroke="#666666" points="148,-158.5 0,-158.5 0,-125 148,-125 148,-158.5"/>
<text text-anchor="start" x="8" y="-145" font-family="Helvetica,sans-Serif" font-size="10.00">di::container::ConstantRing</text>
<text text-anchor="middle" x="74" y="-132.25" font-family="Helvetica,sans-Serif" font-size="10.00">Interface&lt; Self, Value &gt;</text>
</a>
</g>
</g>
<!-- Node1 -->
<g id="Node000001" class="node">
<title>Node1</title>
<g id="a_Node000001"><a xlink:href="classdi_1_1container_1_1MutableRingInterface.html" target="_top" xlink:title=" ">
<polygon fill="white" stroke="#666666" points="341.75,-264.88 184,-264.88 184,-218.62 341.75,-218.62 341.75,-264.88"/>
<text text-anchor="start" x="192" y="-251.38" font-family="Helvetica,sans-Serif" font-size="10.00">di::container::MutableRing</text>
<text text-anchor="start" x="192" y="-238.62" font-family="Helvetica,sans-Serif" font-size="10.00">Interface&lt; Ring&lt; T, platform</text>
<text text-anchor="middle" x="262.88" y="-225.88" font-family="Helvetica,sans-Serif" font-size="10.00">::DefaultAllocator &gt;, T &gt;</text>
</a>
</g>
</g>
<!-- Node0&#45;&gt;Node1 -->
<g id="edge108_Node000000_Node000001" class="edge">
<title>Node0&#45;&gt;Node1</title>
<g id="a_edge108_Node000000_Node000001"><a xlink:title=" ">
<path fill="none" stroke="#63b8ff" d="M109.3,-165.22C130.34,-179.1 158.13,-196.48 184,-209.75 189.72,-212.68 195.78,-215.56 201.88,-218.3"/>
<polygon fill="#63b8ff" stroke="#63b8ff" points="111.37,-162.4 101.1,-159.77 107.49,-168.22 111.37,-162.4"/>
</a>
</g>
</g>
<!-- Node2 -->
<g id="Node000002" class="node">
<title>Node2</title>
<g id="a_Node000002"><a xlink:href="classdi_1_1container_1_1MutableRingInterface.html" target="_top" xlink:title=" ">
<polygon fill="white" stroke="#666666" points="335,-200.88 190.75,-200.88 190.75,-154.62 335,-154.62 335,-200.88"/>
<text text-anchor="start" x="198.75" y="-187.38" font-family="Helvetica,sans-Serif" font-size="10.00">di::container::MutableRing</text>
<text text-anchor="start" x="198.75" y="-174.62" font-family="Helvetica,sans-Serif" font-size="10.00">Interface&lt; StaticRing&lt;</text>
<text text-anchor="middle" x="262.88" y="-161.88" font-family="Helvetica,sans-Serif" font-size="10.00"> T, SizeConstant &gt;, T &gt;</text>
</a>
</g>
</g>
<!-- Node0&#45;&gt;Node2 -->
<g id="edge109_Node000000_Node000002" class="edge">
<title>Node0&#45;&gt;Node2</title>
<g id="a_edge109_Node000000_Node000002"><a xlink:title=" ">
<path fill="none" stroke="#63b8ff" d="M159.43,-158.01C169.74,-160 180.2,-162.02 190.3,-163.96"/>
<polygon fill="#63b8ff" stroke="#63b8ff" points="160.29,-154.62 149.81,-156.16 158.97,-161.49 160.29,-154.62"/>
</a>
</g>
</g>
<!-- Node4 -->
<g id="Node000004" class="node">
<title>Node4</title>
<g id="a_Node000004"><a xlink:href="classdi_1_1container_1_1MutableRingInterface.html" target="_top" xlink:title=" ">
<polygon fill="white" stroke="#666666" points="336.12,-136.25 189.62,-136.25 189.62,-77.25 336.12,-77.25 336.12,-136.25"/>
<text text-anchor="start" x="197.62" y="-122.75" font-family="Helvetica,sans-Serif" font-size="10.00">di::container::MutableRing</text>
<text text-anchor="start" x="197.62" y="-110" font-family="Helvetica,sans-Serif" font-size="10.00">Interface&lt; Ring&lt; Value,</text>
<text text-anchor="start" x="197.62" y="-97.25" font-family="Helvetica,sans-Serif" font-size="10.00"> platform::DefaultAllocator</text>
<text text-anchor="middle" x="262.88" y="-84.5" font-family="Helvetica,sans-Serif" font-size="10.00"> &gt;, Value &gt;</text>
</a>
</g>
</g>
<!-- Node0&#45;&gt;Node4 -->
<g id="edge111_Node000000_Node000004" class="edge">
<title>Node0&#45;&gt;Node4</title>
<g id="a_edge111_Node000000_Node000004"><a xlink:title=" ">
<path fill="none" stroke="#63b8ff" d="M159.5,-125.92C169.48,-124.06 179.59,-122.16 189.38,-120.33"/>
<polygon fill="#63b8ff" stroke="#63b8ff" points="158.99,-122.46 149.81,-127.74 160.28,-129.34 158.99,-122.46"/>
</a>
</g>
</g>
<!-- Node5 -->
<g id="Node000005" class="node">
<title>Node5</title>
<g id="a_Node000005"><a xlink:href="classdi_1_1container_1_1MutableRingInterface.html" target="_top" xlink:title=" ">
<polygon fill="white" stroke="#666666" points="335,-59.5 190.75,-59.5 190.75,-26 335,-26 335,-59.5"/>
<text text-anchor="start" x="198.75" y="-46" font-family="Helvetica,sans-Serif" font-size="10.00">di::container::MutableRing</text>
<text text-anchor="middle" x="262.88" y="-33.25" font-family="Helvetica,sans-Serif" font-size="10.00">Interface&lt; Self, Value &gt;</text>
</a>
</g>
</g>
<!-- Node0&#45;&gt;Node5 -->
<g id="edge112_Node000000_Node000005" class="edge">
<title>Node0&#45;&gt;Node5</title>
<g id="a_edge112_Node000000_Node000005"><a xlink:title=" ">
<path fill="none" stroke="#63b8ff" d="M105.1,-117.85C126.22,-101.97 155.65,-81.57 184,-67.75 189.74,-64.95 195.87,-62.36 202.08,-60"/>
<polygon fill="#63b8ff" stroke="#63b8ff" points="103.03,-115.02 97.21,-123.87 107.28,-120.58 103.03,-115.02"/>
</a>
</g>
</g>
<!-- Node3 -->
<g id="Node000003" class="node">
<title>Node3</title>
<g id="a_Node000003"><a xlink:href="classdi_1_1container_1_1StaticRing.html" target="_top" xlink:title=" ">
<polygon fill="white" stroke="#666666" points="510,-194.5 377.75,-194.5 377.75,-161 510,-161 510,-194.5"/>
<text text-anchor="start" x="385.75" y="-181" font-family="Helvetica,sans-Serif" font-size="10.00">di::container::StaticRing</text>
<text text-anchor="middle" x="443.88" y="-168.25" font-family="Helvetica,sans-Serif" font-size="10.00">&lt; T, SizeConstant &gt;</text>
</a>
</g>
</g>
<!-- Node2&#45;&gt;Node3 -->
<g id="edge110_Node000002_Node000003" class="edge">
<title>Node2&#45;&gt;Node3</title>
<g id="a_edge110_Node000002_Node000003"><a xlink:title=" ">
<path fill="none" stroke="#63b8ff" d="M346.84,-177.75C357.05,-177.75 367.37,-177.75 377.27,-177.75"/>
<polygon fill="#63b8ff" stroke="#63b8ff" points="346.91,-174.25 336.91,-177.75 346.91,-181.25 346.91,-174.25"/>
</a>
</g>
</g>
<!-- Node6 -->
<g id="Node000006" class="node">
<title>Node6</title>
<g id="a_Node000006"><a xlink:href="classdi_1_1container_1_1Ring.html" target="_top" xlink:title=" ">
<polygon fill="white" stroke="#666666" points="496.12,-85.5 391.62,-85.5 391.62,-52 496.12,-52 496.12,-85.5"/>
<text text-anchor="start" x="399.62" y="-72" font-family="Helvetica,sans-Serif" font-size="10.00">di::container::Ring</text>
<text text-anchor="middle" x="443.88" y="-59.25" font-family="Helvetica,sans-Serif" font-size="10.00">&lt; Value &gt;</text>
</a>
</g>
</g>
<!-- Node5&#45;&gt;Node6 -->
<g id="edge113_Node000005_Node000006" class="edge">
<title>Node5&#45;&gt;Node6</title>
<g id="a_edge113_Node000005_Node000006"><a xlink:title=" ">
<path fill="none" stroke="#63b8ff" d="M346.45,-54.74C361.73,-56.96 377.28,-59.22 391.31,-61.26"/>
<polygon fill="#63b8ff" stroke="#63b8ff" points="347.29,-51.33 336.89,-53.36 346.28,-58.26 347.29,-51.33"/>
</a>
</g>
</g>
<!-- Node7 -->
<g id="Node000007" class="node">
<title>Node7</title>
<g id="a_Node000007"><a xlink:href="classdi_1_1container_1_1Ring.html" target="_top" xlink:title=" ">
<polygon fill="white" stroke="#666666" points="496.12,-33.5 391.62,-33.5 391.62,0 496.12,0 496.12,-33.5"/>
<text text-anchor="start" x="399.62" y="-20" font-family="Helvetica,sans-Serif" font-size="10.00">di::container::Ring</text>
<text text-anchor="middle" x="443.88" y="-7.25" font-family="Helvetica,sans-Serif" font-size="10.00">&lt; T, Alloc &gt;</text>
</a>
</g>
</g>
<!-- Node5&#45;&gt;Node7 -->
<g id="edge114_Node000005_Node000007" class="edge">
<title>Node5&#45;&gt;Node7</title>
<g id="a_edge114_Node000005_Node000007"><a xlink:title=" ">
<path fill="none" stroke="#63b8ff" d="M346.45,-30.76C361.73,-28.54 377.28,-26.28 391.31,-24.24"/>
<polygon fill="#63b8ff" stroke="#63b8ff" points="346.28,-27.24 336.89,-32.14 347.29,-34.17 346.28,-27.24"/>
</a>
</g>
</g>
</g>
</svg>
