<?xml version="1.0" encoding="UTF-8" standalone="no"?>
<!DOCTYPE svg PUBLIC "-//W3C//DTD SVG 1.1//EN"
 "http://www.w3.org/Graphics/SVG/1.1/DTD/svg11.dtd">
<!-- Generated by graphviz version 10.0.1 (0)
 -->
<!-- Title: Graphical Class Hierarchy Pages: 1 -->
<svg width="505pt" height="106pt"
 viewBox="0.00 0.00 505.25 105.88" xmlns="http://www.w3.org/2000/svg" xmlns:xlink="http://www.w3.org/1999/xlink">
<g id="graph0" class="graph" transform="scale(1 1) rotate(0) translate(4 101.88)">
<title>Graphical Class Hierarchy</title>
<!-- Node0 -->
<g id="Node000000" class="node">
<title>Node0</title>
<g id="a_Node000000"><a xlink:href="classdi_1_1vocab_1_1StatusCode_3_01void_01_4.html" target="_top" xlink:title=" ">
<polygon fill="white" stroke="#666666" points="121.75,-62.5 0,-62.5 0,-29 121.75,-29 121.75,-62.5"/>
<text text-anchor="start" x="8" y="-49" font-family="Helvetica,sans-Serif" font-size="10.00">di::vocab::StatusCode</text>
<text text-anchor="middle" x="60.88" y="-36.25" font-family="Helvetica,sans-Serif" font-size="10.00">&lt; void &gt;</text>
</a>
</g>
</g>
<!-- Node1 -->
<g id="Node000001" class="node">
<title>Node1</title>
<g id="a_Node000001"><a xlink:href="classdi_1_1vocab_1_1detail_1_1StatusCodeStorage.html" target="_top" xlink:title=" ">
<polygon fill="white" stroke="#666666" points="311,-97.88 157.75,-97.88 157.75,-51.62 311,-51.62 311,-97.88"/>
<text text-anchor="start" x="165.75" y="-84.38" font-family="Helvetica,sans-Serif" font-size="10.00">di::vocab::detail::</text>
<text text-anchor="start" x="165.75" y="-71.62" font-family="Helvetica,sans-Serif" font-size="10.00">StatusCodeStorage&lt; Erased</text>
<text text-anchor="middle" x="234.38" y="-58.88" font-family="Helvetica,sans-Serif" font-size="10.00">&lt; T &gt; &gt;</text>
</a>
</g>
</g>
<!-- Node0&#45;&gt;Node1 -->
<g id="edge878_Node000000_Node000001" class="edge">
<title>Node0&#45;&gt;Node1</title>
<g id="a_edge878_Node000000_Node000001"><a xlink:title=" ">
<path fill="none" stroke="#63b8ff" d="M133.08,-57.79C141.13,-59.15 149.35,-60.54 157.45,-61.91"/>
<polygon fill="#63b8ff" stroke="#63b8ff" points="133.79,-54.36 123.35,-56.15 132.63,-61.26 133.79,-54.36"/>
</a>
</g>
</g>
<!-- Node3 -->
<g id="Node000003" class="node">
<title>Node3</title>
<g id="a_Node000003"><a xlink:href="classdi_1_1vocab_1_1detail_1_1StatusCodeStorage.html" target="_top" xlink:title=" ">
<polygon fill="white" stroke="#666666" points="303.12,-33.5 165.62,-33.5 165.62,0 303.12,0 303.12,-33.5"/>
<text text-anchor="start" x="173.62" y="-20" font-family="Helvetica,sans-Serif" font-size="10.00">di::vocab::detail::</text>
<text text-anchor="middle" x="234.38" y="-7.25" font-family="Helvetica,sans-Serif" font-size="10.00">StatusCodeStorage&lt; T &gt;</text>
</a>
</g>
</g>
<!-- Node0&#45;&gt;Node3 -->
<g id="edge880_Node000000_Node000003" class="edge">
<title>Node0&#45;&gt;Node3</title>
<g id="a_edge880_Node000000_Node000003"><a xlink:title=" ">
<path fill="none" stroke="#63b8ff" d="M133.2,-33.69C143.79,-31.9 154.69,-30.06 165.21,-28.28"/>
<polygon fill="#63b8ff" stroke="#63b8ff" points="132.63,-30.24 123.35,-35.35 133.79,-37.14 132.63,-30.24"/>
</a>
</g>
</g>
<!-- Node2 -->
<g id="Node000002" class="node">
<title>Node2</title>
<g id="a_Node000002"><a xlink:href="classdi_1_1vocab_1_1StatusCode_3_01Erased_3_01T_01_4_01_4.html" target="_top" xlink:title=" ">
<polygon fill="white" stroke="#666666" points="483,-91.5 361.25,-91.5 361.25,-58 483,-58 483,-91.5"/>
<text text-anchor="start" x="369.25" y="-78" font-family="Helvetica,sans-Serif" font-size="10.00">di::vocab::StatusCode</text>
<text text-anchor="middle" x="422.12" y="-65.25" font-family="Helvetica,sans-Serif" font-size="10.00">&lt; Erased&lt; T &gt; &gt;</text>
</a>
</g>
</g>
<!-- Node1&#45;&gt;Node2 -->
<g id="edge879_Node000001_Node000002" class="edge">
<title>Node1&#45;&gt;Node2</title>
<g id="a_edge879_Node000001_Node000002"><a xlink:title=" ">
<path fill="none" stroke="#63b8ff" d="M322.72,-74.75C335.59,-74.75 348.61,-74.75 360.78,-74.75"/>
<polygon fill="#63b8ff" stroke="#63b8ff" points="322.98,-71.25 312.98,-74.75 322.98,-78.25 322.98,-71.25"/>
</a>
</g>
</g>
<!-- Node4 -->
<g id="Node000004" class="node">
<title>Node4</title>
<g id="a_Node000004"><a xlink:href="classdi_1_1vocab_1_1StatusCode_3_01T_01_4.html" target="_top" xlink:title=" ">
<polygon fill="white" stroke="#666666" points="497.25,-27.12 347,-27.12 347,-6.38 497.25,-6.38 497.25,-27.12"/>
<text text-anchor="middle" x="422.12" y="-13.62" font-family="Helvetica,sans-Serif" font-size="10.00">di::vocab::StatusCode&lt; T &gt;</text>
</a>
</g>
</g>
<!-- Node3&#45;&gt;Node4 -->
<g id="edge881_Node000003_Node000004" class="edge">
<title>Node3&#45;&gt;Node4</title>
<g id="a_edge881_Node000003_Node000004"><a xlink:title=" ">
<path fill="none" stroke="#63b8ff" d="M314.85,-16.75C325.44,-16.75 336.27,-16.75 346.76,-16.75"/>
<polygon fill="#63b8ff" stroke="#63b8ff" points="315,-13.25 305,-16.75 315,-20.25 315,-13.25"/>
</a>
</g>
</g>
</g>
</svg>
