<?xml version="1.0" encoding="UTF-8" standalone="no"?>
<!DOCTYPE svg PUBLIC "-//W3C//DTD SVG 1.1//EN"
 "http://www.w3.org/Graphics/SVG/1.1/DTD/svg11.dtd">
<!-- Generated by graphviz version 10.0.1 (0)
 -->
<!-- Title: Graphical Class Hierarchy Pages: 1 -->
<svg width="330pt" height="170pt"
 viewBox="0.00 0.00 330.25 169.88" xmlns="http://www.w3.org/2000/svg" xmlns:xlink="http://www.w3.org/1999/xlink">
<g id="graph0" class="graph" transform="scale(1 1) rotate(0) translate(4 165.88)">
<title>Graphical Class Hierarchy</title>
<!-- Node0 -->
<g id="Node000000" class="node">
<title>Node0</title>
<g id="a_Node000000"><a xlink:href="classdi_1_1container_1_1ConstantVectorInterface.html" target="_top" xlink:title=" ">
<polygon fill="white" stroke="#666666" points="167.88,-161.88 7.88,-161.88 7.88,-115.62 167.88,-115.62 167.88,-161.88"/>
<text text-anchor="start" x="15.88" y="-148.38" font-family="Helvetica,sans-Serif" font-size="10.00">di::container::ConstantVector</text>
<text text-anchor="start" x="15.88" y="-135.62" font-family="Helvetica,sans-Serif" font-size="10.00">Interface&lt; Span&lt; T, dynamic</text>
<text text-anchor="middle" x="87.88" y="-122.88" font-family="Helvetica,sans-Serif" font-size="10.00">_extent &gt;, T &gt;</text>
</a>
</g>
</g>
<!-- Node1 -->
<g id="Node000001" class="node">
<title>Node1</title>
<g id="a_Node000001"><a xlink:href="classdi_1_1vocab_1_1Span_3_01T_00_01dynamic__extent_01_4.html" target="_top" xlink:title=" ">
<polygon fill="white" stroke="#666666" points="322.25,-91.5 211.75,-91.5 211.75,-58 322.25,-58 322.25,-91.5"/>
<text text-anchor="start" x="219.75" y="-78" font-family="Helvetica,sans-Serif" font-size="10.00">di::vocab::Span&lt; T,</text>
<text text-anchor="middle" x="267" y="-65.25" font-family="Helvetica,sans-Serif" font-size="10.00"> dynamic_extent &gt;</text>
</a>
</g>
</g>
<!-- Node0&#45;&gt;Node1 -->
<g id="edge157_Node000000_Node000001" class="edge">
<title>Node0&#45;&gt;Node1</title>
<g id="a_edge157_Node000000_Node000001"><a xlink:title=" ">
<path fill="none" stroke="#63b8ff" d="M164.69,-111.35C182.92,-104.77 201.87,-97.92 218.39,-91.95"/>
<polygon fill="#63b8ff" stroke="#63b8ff" points="163.71,-107.99 155.5,-114.68 166.09,-114.57 163.71,-107.99"/>
</a>
</g>
</g>
<!-- Node2 -->
<g id="Node000002" class="node">
<title>Node2</title>
<g id="a_Node000002"><a xlink:href="classdi_1_1meta_1_1EnableBorrowedContainer.html" target="_top" xlink:title=" ">
<polygon fill="white" stroke="#666666" points="169.75,-97.88 6,-97.88 6,-51.62 169.75,-51.62 169.75,-97.88"/>
<text text-anchor="start" x="14" y="-84.38" font-family="Helvetica,sans-Serif" font-size="10.00">di::meta::EnableBorrowed</text>
<text text-anchor="start" x="14" y="-71.62" font-family="Helvetica,sans-Serif" font-size="10.00">Container&lt; Span&lt; T, dynamic</text>
<text text-anchor="middle" x="87.88" y="-58.88" font-family="Helvetica,sans-Serif" font-size="10.00">_extent &gt; &gt;</text>
</a>
</g>
</g>
<!-- Node2&#45;&gt;Node1 -->
<g id="edge158_Node000002_Node000001" class="edge">
<title>Node2&#45;&gt;Node1</title>
<g id="a_edge158_Node000002_Node000001"><a xlink:title=" ">
<path fill="none" stroke="#63b8ff" d="M181.62,-74.75C191.75,-74.75 201.81,-74.75 211.26,-74.75"/>
<polygon fill="#63b8ff" stroke="#63b8ff" points="181.69,-71.25 171.69,-74.75 181.69,-78.25 181.69,-71.25"/>
</a>
</g>
</g>
<!-- Node3 -->
<g id="Node000003" class="node">
<title>Node3</title>
<g id="a_Node000003"><a xlink:href="classdi_1_1meta_1_1EnableView.html" target="_top" xlink:title=" ">
<polygon fill="white" stroke="#666666" points="175.75,-33.5 0,-33.5 0,0 175.75,0 175.75,-33.5"/>
<text text-anchor="start" x="8" y="-20" font-family="Helvetica,sans-Serif" font-size="10.00">di::meta::EnableView</text>
<text text-anchor="middle" x="87.88" y="-7.25" font-family="Helvetica,sans-Serif" font-size="10.00">&lt; Span&lt; T, dynamic_extent &gt; &gt;</text>
</a>
</g>
</g>
<!-- Node3&#45;&gt;Node1 -->
<g id="edge159_Node000003_Node000001" class="edge">
<title>Node3&#45;&gt;Node1</title>
<g id="a_edge159_Node000003_Node000001"><a xlink:title=" ">
<path fill="none" stroke="#63b8ff" d="M158.88,-37.37C164.6,-39.16 170.28,-40.96 175.75,-42.75 189.81,-47.34 205.01,-52.61 218.84,-57.53"/>
<polygon fill="#63b8ff" stroke="#63b8ff" points="159.91,-34.03 149.33,-34.42 157.85,-40.72 159.91,-34.03"/>
</a>
</g>
</g>
</g>
</svg>
