<?xml version="1.0" encoding="UTF-8" standalone="no"?>
<!DOCTYPE svg PUBLIC "-//W3C//DTD SVG 1.1//EN"
 "http://www.w3.org/Graphics/SVG/1.1/DTD/svg11.dtd">
<!-- Generated by graphviz version 10.0.1 (0)
 -->
<!-- Title: Graphical Class Hierarchy Pages: 1 -->
<svg width="550pt" height="1243pt"
 viewBox="0.00 0.00 549.50 1242.75" xmlns="http://www.w3.org/2000/svg" xmlns:xlink="http://www.w3.org/1999/xlink">
<g id="graph0" class="graph" transform="scale(1 1) rotate(0) translate(4 1238.75)">
<title>Graphical Class Hierarchy</title>
<!-- Node0 -->
<g id="Node000000" class="node">
<title>Node0</title>
<g id="a_Node000000"><a xlink:href="structdi_1_1util_1_1AddMemberGet.html" target="_top" xlink:title=" ">
<polygon fill="white" stroke="#666666" points="138.62,-712.12 9.38,-712.12 9.38,-678.62 138.62,-678.62 138.62,-712.12"/>
<text text-anchor="start" x="17.38" y="-698.62" font-family="Helvetica,sans-Serif" font-size="10.00">di::util::AddMemberGet</text>
<text text-anchor="middle" x="74" y="-685.88" font-family="Helvetica,sans-Serif" font-size="10.00">&lt; Tuple&lt; Types... &gt; &gt;</text>
</a>
</g>
</g>
<!-- Node1 -->
<g id="Node000001" class="node">
<title>Node1</title>
<g id="a_Node000001"><a xlink:href="classdi_1_1vocab_1_1Tuple.html" target="_top" xlink:title=" ">
<polygon fill="white" stroke="#666666" points="339.5,-949.75 205,-949.75 205,-929 339.5,-929 339.5,-949.75"/>
<text text-anchor="middle" x="272.25" y="-936.25" font-family="Helvetica,sans-Serif" font-size="10.00">di::vocab::Tuple&lt; Es... &gt;</text>
</a>
</g>
</g>
<!-- Node0&#45;&gt;Node1 -->
<g id="edge717_Node000000_Node000001" class="edge">
<title>Node0&#45;&gt;Node1</title>
<g id="a_edge717_Node000000_Node000001"><a xlink:title=" ">
<path fill="none" stroke="#63b8ff" d="M80.5,-723.64C91.38,-771.63 120.33,-868.76 184,-919.38 190.08,-924.21 197.12,-927.92 204.5,-930.76"/>
<polygon fill="#63b8ff" stroke="#63b8ff" points="83.96,-723.07 78.43,-714.03 77.12,-724.54 83.96,-723.07"/>
</a>
</g>
</g>
<!-- Node4 -->
<g id="Node000004" class="node">
<title>Node4</title>
<g id="a_Node000004"><a xlink:href="classdi_1_1vocab_1_1Tuple.html" target="_top" xlink:title=" ">
<polygon fill="white" stroke="#666666" points="339.5,-910.75 205,-910.75 205,-890 339.5,-890 339.5,-910.75"/>
<text text-anchor="middle" x="272.25" y="-897.25" font-family="Helvetica,sans-Serif" font-size="10.00">di::vocab::Tuple&lt; Fs... &gt;</text>
</a>
</g>
</g>
<!-- Node0&#45;&gt;Node4 -->
<g id="edge719_Node000000_Node000004" class="edge">
<title>Node0&#45;&gt;Node4</title>
<g id="a_edge719_Node000000_Node000004"><a xlink:title=" ">
<path fill="none" stroke="#63b8ff" d="M83.35,-723.32C97.2,-764.66 129.01,-841.48 184,-881.38 190.27,-885.93 197.43,-889.42 204.87,-892.11"/>
<polygon fill="#63b8ff" stroke="#63b8ff" points="86.7,-722.31 80.3,-713.87 80.04,-724.46 86.7,-722.31"/>
</a>
</g>
</g>
<!-- Node6 -->
<g id="Node000006" class="node">
<title>Node6</title>
<g id="a_Node000006"><a xlink:href="classdi_1_1vocab_1_1Tuple.html" target="_top" xlink:title=" ">
<polygon fill="white" stroke="#666666" points="345.12,-871.88 199.38,-871.88 199.38,-812.88 345.12,-812.88 345.12,-871.88"/>
<text text-anchor="start" x="207.38" y="-858.38" font-family="Helvetica,sans-Serif" font-size="10.00">di::vocab::Tuple&lt; meta</text>
<text text-anchor="start" x="207.38" y="-845.62" font-family="Helvetica,sans-Serif" font-size="10.00">::MethodErasedSignature</text>
<text text-anchor="start" x="207.38" y="-832.88" font-family="Helvetica,sans-Serif" font-size="10.00">&lt; meta::Type&lt; Methods &gt;</text>
<text text-anchor="middle" x="272.25" y="-820.12" font-family="Helvetica,sans-Serif" font-size="10.00"> &gt; *... &gt;</text>
</a>
</g>
</g>
<!-- Node0&#45;&gt;Node6 -->
<g id="edge721_Node000000_Node000006" class="edge">
<title>Node0&#45;&gt;Node6</title>
<g id="a_edge721_Node000000_Node000006"><a xlink:title=" ">
<path fill="none" stroke="#63b8ff" d="M95.83,-720.76C116.34,-744.5 149.51,-779.75 184,-803.38 188.79,-806.66 193.9,-809.77 199.16,-812.7"/>
<polygon fill="#63b8ff" stroke="#63b8ff" points="98.74,-718.78 89.6,-713.42 93.41,-723.31 98.74,-718.78"/>
</a>
</g>
</g>
<!-- Node7 -->
<g id="Node000007" class="node">
<title>Node7</title>
<g id="a_Node000007"><a xlink:href="classdi_1_1vocab_1_1Tuple.html" target="_top" xlink:title=" ">
<polygon fill="white" stroke="#666666" points="352.62,-794.75 191.88,-794.75 191.88,-774 352.62,-774 352.62,-794.75"/>
<text text-anchor="middle" x="272.25" y="-781.25" font-family="Helvetica,sans-Serif" font-size="10.00">di::vocab::Tuple&lt; Options... &gt;</text>
</a>
</g>
</g>
<!-- Node0&#45;&gt;Node7 -->
<g id="edge722_Node000000_Node000007" class="edge">
<title>Node0&#45;&gt;Node7</title>
<g id="a_edge722_Node000000_Node000007"><a xlink:title=" ">
<path fill="none" stroke="#63b8ff" d="M106.2,-719.16C127.19,-734.12 156.03,-752.72 184,-764.38 192.75,-768.02 202.28,-771.07 211.73,-773.59"/>
<polygon fill="#63b8ff" stroke="#63b8ff" points="108.51,-716.52 98.36,-713.47 104.4,-722.18 108.51,-716.52"/>
</a>
</g>
</g>
<!-- Node8 -->
<g id="Node000008" class="node">
<title>Node8</title>
<g id="a_Node000008"><a xlink:href="classdi_1_1vocab_1_1Tuple.html" target="_top" xlink:title=" ">
<polygon fill="white" stroke="#666666" points="360.5,-755.75 184,-755.75 184,-735 360.5,-735 360.5,-755.75"/>
<text text-anchor="middle" x="272.25" y="-742.25" font-family="Helvetica,sans-Serif" font-size="10.00">di::vocab::Tuple&lt; Arguments... &gt;</text>
</a>
</g>
</g>
<!-- Node0&#45;&gt;Node8 -->
<g id="edge723_Node000000_Node000008" class="edge">
<title>Node0&#45;&gt;Node8</title>
<g id="a_edge723_Node000000_Node000008"><a xlink:title=" ">
<path fill="none" stroke="#63b8ff" d="M144.04,-715.71C157.26,-719.41 171.03,-723.12 184,-726.38 195.28,-729.2 207.44,-732.01 218.99,-734.55"/>
<polygon fill="#63b8ff" stroke="#63b8ff" points="145.12,-712.38 134.54,-713.03 143.21,-719.12 145.12,-712.38"/>
</a>
</g>
</g>
<!-- Node9 -->
<g id="Node000009" class="node">
<title>Node9</title>
<g id="a_Node000009"><a xlink:href="classdi_1_1vocab_1_1Tuple.html" target="_top" xlink:title=" ">
<polygon fill="white" stroke="#666666" points="335.75,-717.12 208.75,-717.12 208.75,-683.62 335.75,-683.62 335.75,-717.12"/>
<text text-anchor="start" x="216.75" y="-703.62" font-family="Helvetica,sans-Serif" font-size="10.00">di::vocab::Tuple&lt; First,</text>
<text text-anchor="middle" x="272.25" y="-690.88" font-family="Helvetica,sans-Serif" font-size="10.00"> Rest... &gt;</text>
</a>
</g>
</g>
<!-- Node0&#45;&gt;Node9 -->
<g id="edge724_Node000000_Node000009" class="edge">
<title>Node0&#45;&gt;Node9</title>
<g id="a_edge724_Node000000_Node000009"><a xlink:title=" ">
<path fill="none" stroke="#63b8ff" d="M150.41,-697.3C169.55,-697.78 189.91,-698.3 208.35,-698.77"/>
<polygon fill="#63b8ff" stroke="#63b8ff" points="150.59,-693.8 140.5,-697.04 150.41,-700.8 150.59,-693.8"/>
</a>
</g>
</g>
<!-- Node10 -->
<g id="Node000010" class="node">
<title>Node10</title>
<g id="a_Node000010"><a xlink:href="classdi_1_1vocab_1_1Tuple.html" target="_top" xlink:title=" ">
<polygon fill="white" stroke="#666666" points="359,-665.62 185.5,-665.62 185.5,-581.12 359,-581.12 359,-665.62"/>
<text text-anchor="start" x="193.5" y="-652.12" font-family="Helvetica,sans-Serif" font-size="10.00">di::vocab::Tuple&lt; meta</text>
<text text-anchor="start" x="193.5" y="-639.38" font-family="Helvetica,sans-Serif" font-size="10.00">::ContainerIterator&lt; meta</text>
<text text-anchor="start" x="193.5" y="-626.62" font-family="Helvetica,sans-Serif" font-size="10.00">::MaybeConst&lt; is_const, First</text>
<text text-anchor="start" x="193.5" y="-613.88" font-family="Helvetica,sans-Serif" font-size="10.00"> &gt; &gt;, meta::ContainerIterator</text>
<text text-anchor="start" x="193.5" y="-601.12" font-family="Helvetica,sans-Serif" font-size="10.00">&lt; meta::MaybeConst&lt; is_const,</text>
<text text-anchor="middle" x="272.25" y="-588.38" font-family="Helvetica,sans-Serif" font-size="10.00"> Rest &gt; &gt;... &gt;</text>
</a>
</g>
</g>
<!-- Node0&#45;&gt;Node10 -->
<g id="edge725_Node000000_Node000010" class="edge">
<title>Node0&#45;&gt;Node10</title>
<g id="a_edge725_Node000000_Node000010"><a xlink:title=" ">
<path fill="none" stroke="#63b8ff" d="M132.53,-674.27C148.99,-668.23 167.3,-661.51 185.08,-654.99"/>
<polygon fill="#63b8ff" stroke="#63b8ff" points="131.61,-670.88 123.43,-677.61 134.02,-677.45 131.61,-670.88"/>
</a>
</g>
</g>
<!-- Node11 -->
<g id="Node000011" class="node">
<title>Node11</title>
<g id="a_Node000011"><a xlink:href="classdi_1_1vocab_1_1Tuple.html" target="_top" xlink:title=" ">
<polygon fill="white" stroke="#666666" points="348.5,-562.75 196,-562.75 196,-542 348.5,-542 348.5,-562.75"/>
<text text-anchor="middle" x="272.25" y="-549.25" font-family="Helvetica,sans-Serif" font-size="10.00">di::vocab::Tuple&lt; Views... &gt;</text>
</a>
</g>
</g>
<!-- Node0&#45;&gt;Node11 -->
<g id="edge726_Node000000_Node000011" class="edge">
<title>Node0&#45;&gt;Node11</title>
<g id="a_edge726_Node000000_Node000011"><a xlink:title=" ">
<path fill="none" stroke="#63b8ff" d="M138.88,-672.2C142.15,-669.83 145.23,-667.23 148,-664.38 178.6,-632.89 150.75,-601.05 184,-572.38 188.24,-568.72 193.01,-565.7 198.08,-563.21"/>
<polygon fill="#63b8ff" stroke="#63b8ff" points="137.08,-669.2 130.49,-677.49 140.81,-675.12 137.08,-669.2"/>
</a>
</g>
</g>
<!-- Node12 -->
<g id="Node000012" class="node">
<title>Node12</title>
<g id="a_Node000012"><a xlink:href="classdi_1_1vocab_1_1Tuple.html" target="_top" xlink:title=" ">
<polygon fill="white" stroke="#666666" points="356.75,-523.88 187.75,-523.88 187.75,-464.88 356.75,-464.88 356.75,-523.88"/>
<text text-anchor="start" x="195.75" y="-510.38" font-family="Helvetica,sans-Serif" font-size="10.00">di::vocab::Tuple&lt; meta</text>
<text text-anchor="start" x="195.75" y="-497.62" font-family="Helvetica,sans-Serif" font-size="10.00">::ContainerIterator&lt; meta</text>
<text text-anchor="start" x="195.75" y="-484.88" font-family="Helvetica,sans-Serif" font-size="10.00">::MaybeConst&lt; is_const, Views</text>
<text text-anchor="middle" x="272.25" y="-472.12" font-family="Helvetica,sans-Serif" font-size="10.00"> &gt; &gt;... &gt;</text>
</a>
</g>
</g>
<!-- Node0&#45;&gt;Node12 -->
<g id="edge727_Node000000_Node000012" class="edge">
<title>Node0&#45;&gt;Node12</title>
<g id="a_edge727_Node000000_Node000012"><a xlink:title=" ">
<path fill="none" stroke="#63b8ff" d="M140.29,-671.71C143.08,-669.47 145.67,-667.04 148,-664.38 187.76,-618.93 144.67,-579.19 184,-533.38 186.81,-530.1 189.95,-527.09 193.32,-524.32"/>
<polygon fill="#63b8ff" stroke="#63b8ff" points="138.37,-668.78 132.09,-677.32 142.32,-674.56 138.37,-668.78"/>
</a>
</g>
</g>
<!-- Node13 -->
<g id="Node000013" class="node">
<title>Node13</title>
<g id="a_Node000013"><a xlink:href="classdi_1_1vocab_1_1Tuple.html" target="_top" xlink:title=" ">
<polygon fill="white" stroke="#666666" points="356.75,-446.88 187.75,-446.88 187.75,-387.88 356.75,-387.88 356.75,-446.88"/>
<text text-anchor="start" x="195.75" y="-433.38" font-family="Helvetica,sans-Serif" font-size="10.00">di::vocab::Tuple&lt; meta</text>
<text text-anchor="start" x="195.75" y="-420.62" font-family="Helvetica,sans-Serif" font-size="10.00">::ContainerSentinel&lt; meta</text>
<text text-anchor="start" x="195.75" y="-407.88" font-family="Helvetica,sans-Serif" font-size="10.00">::MaybeConst&lt; is_const, Views</text>
<text text-anchor="middle" x="272.25" y="-395.12" font-family="Helvetica,sans-Serif" font-size="10.00"> &gt; &gt;... &gt;</text>
</a>
</g>
</g>
<!-- Node0&#45;&gt;Node13 -->
<g id="edge728_Node000000_Node000013" class="edge">
<title>Node0&#45;&gt;Node13</title>
<g id="a_edge728_Node000000_Node000013"><a xlink:title=" ">
<path fill="none" stroke="#63b8ff" d="M141.17,-671.5C143.66,-669.32 145.96,-666.95 148,-664.38 206.28,-590.86 126.41,-530.44 184,-456.38 186.55,-453.1 189.43,-450.09 192.55,-447.33"/>
<polygon fill="#63b8ff" stroke="#63b8ff" points="139.29,-668.53 133.29,-677.27 143.43,-674.18 139.29,-668.53"/>
</a>
</g>
</g>
<!-- Node14 -->
<g id="Node000014" class="node">
<title>Node14</title>
<g id="a_Node000014"><a xlink:href="classdi_1_1vocab_1_1Tuple.html" target="_top" xlink:title=" ">
<polygon fill="white" stroke="#666666" points="347.75,-369.75 196.75,-369.75 196.75,-349 347.75,-349 347.75,-369.75"/>
<text text-anchor="middle" x="272.25" y="-356.25" font-family="Helvetica,sans-Serif" font-size="10.00">di::vocab::Tuple&lt; Types... &gt;</text>
</a>
</g>
</g>
<!-- Node0&#45;&gt;Node14 -->
<g id="edge729_Node000000_Node000014" class="edge">
<title>Node0&#45;&gt;Node14</title>
<g id="a_edge729_Node000000_Node000014"><a xlink:title=" ">
<path fill="none" stroke="#63b8ff" d="M141.46,-671.48C143.85,-669.31 146.05,-666.95 148,-664.38 225,-562.54 98.33,-474.04 184,-379.38 187.65,-375.34 191.93,-372.04 196.61,-369.34"/>
<polygon fill="#63b8ff" stroke="#63b8ff" points="139.74,-668.39 133.87,-677.21 143.96,-673.97 139.74,-668.39"/>
</a>
</g>
</g>
<!-- Node15 -->
<g id="Node000015" class="node">
<title>Node15</title>
<g id="a_Node000015"><a xlink:href="classdi_1_1vocab_1_1Tuple.html" target="_top" xlink:title=" ">
<polygon fill="white" stroke="#666666" points="355.62,-330.75 188.88,-330.75 188.88,-310 355.62,-310 355.62,-330.75"/>
<text text-anchor="middle" x="272.25" y="-317.25" font-family="Helvetica,sans-Serif" font-size="10.00">di::vocab::Tuple&lt; Factories... &gt;</text>
</a>
</g>
</g>
<!-- Node0&#45;&gt;Node15 -->
<g id="edge730_Node000000_Node000015" class="edge">
<title>Node0&#45;&gt;Node15</title>
<g id="a_edge730_Node000000_Node000015"><a xlink:title=" ">
<path fill="none" stroke="#63b8ff" d="M141.51,-671.52C143.89,-669.34 146.07,-666.96 148,-664.38 234.52,-548.16 87.59,-448.53 184,-340.38 187.21,-336.78 190.91,-333.76 194.96,-331.23"/>
<polygon fill="#63b8ff" stroke="#63b8ff" points="139.78,-668.43 133.95,-677.27 144.03,-673.99 139.78,-668.43"/>
</a>
</g>
</g>
<!-- Node16 -->
<g id="Node000016" class="node">
<title>Node16</title>
<g id="a_Node000016"><a xlink:href="classdi_1_1vocab_1_1Tuple.html" target="_top" xlink:title=" ">
<polygon fill="white" stroke="#666666" points="357.5,-291.75 187,-291.75 187,-271 357.5,-271 357.5,-291.75"/>
<text text-anchor="middle" x="272.25" y="-278.25" font-family="Helvetica,sans-Serif" font-size="10.00">di::vocab::Tuple&lt; Overrides... &gt;</text>
</a>
</g>
</g>
<!-- Node0&#45;&gt;Node16 -->
<g id="edge731_Node000000_Node000016" class="edge">
<title>Node0&#45;&gt;Node16</title>
<g id="a_edge731_Node000000_Node000016"><a xlink:title=" ">
<path fill="none" stroke="#63b8ff" d="M141.54,-671.54C143.91,-669.36 146.09,-666.97 148,-664.38 196.02,-599.07 130.42,-362.2 184,-301.38 187.18,-297.76 190.88,-294.73 194.91,-292.19"/>
<polygon fill="#63b8ff" stroke="#63b8ff" points="139.82,-668.45 134.01,-677.31 144.08,-674.01 139.82,-668.45"/>
</a>
</g>
</g>
<!-- Node17 -->
<g id="Node000017" class="node">
<title>Node17</title>
<g id="a_Node000017"><a xlink:href="classdi_1_1vocab_1_1Tuple.html" target="_top" xlink:title=" ">
<polygon fill="white" stroke="#666666" points="345.12,-252.88 199.38,-252.88 199.38,-193.88 345.12,-193.88 345.12,-252.88"/>
<text text-anchor="start" x="207.38" y="-239.38" font-family="Helvetica,sans-Serif" font-size="10.00">di::vocab::Tuple&lt; meta</text>
<text text-anchor="start" x="207.38" y="-226.62" font-family="Helvetica,sans-Serif" font-size="10.00">::ConnectResult&lt; Sends,</text>
<text text-anchor="start" x="207.38" y="-213.88" font-family="Helvetica,sans-Serif" font-size="10.00"> Receiver&lt; indices, Sends,</text>
<text text-anchor="middle" x="272.25" y="-201.12" font-family="Helvetica,sans-Serif" font-size="10.00"> Data &gt; &gt;... &gt;</text>
</a>
</g>
</g>
<!-- Node0&#45;&gt;Node17 -->
<g id="edge732_Node000000_Node000017" class="edge">
<title>Node0&#45;&gt;Node17</title>
<g id="a_edge732_Node000000_Node000017"><a xlink:title=" ">
<path fill="none" stroke="#63b8ff" d="M141.57,-671.57C143.94,-669.38 146.1,-666.98 148,-664.38 253.58,-519.35 79.79,-408.38 184,-262.38 188.14,-256.57 193.36,-251.61 199.17,-247.38"/>
<polygon fill="#63b8ff" stroke="#63b8ff" points="139.85,-668.48 134.06,-677.35 144.12,-674.02 139.85,-668.48"/>
</a>
</g>
</g>
<!-- Node18 -->
<g id="Node000018" class="node">
<title>Node18</title>
<g id="a_Node000018"><a xlink:href="classdi_1_1vocab_1_1Tuple.html" target="_top" xlink:title=" ">
<polygon fill="white" stroke="#666666" points="353.38,-175.75 191.12,-175.75 191.12,-155 353.38,-155 353.38,-175.75"/>
<text text-anchor="middle" x="272.25" y="-162.25" font-family="Helvetica,sans-Serif" font-size="10.00">di::vocab::Tuple&lt; Senders... &gt;</text>
</a>
</g>
</g>
<!-- Node0&#45;&gt;Node18 -->
<g id="edge733_Node000000_Node000018" class="edge">
<title>Node0&#45;&gt;Node18</title>
<g id="a_edge733_Node000000_Node000018"><a xlink:title=" ">
<path fill="none" stroke="#63b8ff" d="M141.62,-671.6C143.97,-669.4 146.12,-667 148,-664.38 210.21,-577.63 114.4,-266.31 184,-185.38 187.14,-181.72 190.8,-178.66 194.81,-176.1"/>
<polygon fill="#63b8ff" stroke="#63b8ff" points="139.9,-668.51 134.14,-677.4 144.18,-674.04 139.9,-668.51"/>
</a>
</g>
</g>
<!-- Node19 -->
<g id="Node000019" class="node">
<title>Node19</title>
<g id="a_Node000019"><a xlink:href="classdi_1_1vocab_1_1Tuple.html" target="_top" xlink:title=" ">
<polygon fill="white" stroke="#666666" points="342.12,-136.88 202.38,-136.88 202.38,-77.88 342.12,-77.88 342.12,-136.88"/>
<text text-anchor="start" x="210.38" y="-123.38" font-family="Helvetica,sans-Serif" font-size="10.00">di::vocab::Tuple&lt; meta</text>
<text text-anchor="start" x="210.38" y="-110.62" font-family="Helvetica,sans-Serif" font-size="10.00">::SubscribeResult&lt; Seqs,</text>
<text text-anchor="start" x="210.38" y="-97.88" font-family="Helvetica,sans-Serif" font-size="10.00"> Receiver&lt; indices, Seqs,</text>
<text text-anchor="middle" x="272.25" y="-85.12" font-family="Helvetica,sans-Serif" font-size="10.00"> Data &gt; &gt;... &gt;</text>
</a>
</g>
</g>
<!-- Node0&#45;&gt;Node19 -->
<g id="edge734_Node000000_Node000019" class="edge">
<title>Node0&#45;&gt;Node19</title>
<g id="a_edge734_Node000000_Node000019"><a xlink:title=" ">
<path fill="none" stroke="#63b8ff" d="M141.64,-671.61C143.98,-669.41 146.13,-667 148,-664.38 214.98,-570.42 117.91,-240.96 184,-146.38 188.75,-139.57 194.98,-133.94 201.92,-129.28"/>
<polygon fill="#63b8ff" stroke="#63b8ff" points="139.91,-668.52 134.17,-677.42 144.21,-674.05 139.91,-668.52"/>
</a>
</g>
</g>
<!-- Node20 -->
<g id="Node000020" class="node">
<title>Node20</title>
<g id="a_Node000020"><a xlink:href="classdi_1_1vocab_1_1Tuple.html" target="_top" xlink:title=" ">
<polygon fill="white" stroke="#666666" points="345.5,-59.75 199,-59.75 199,-39 345.5,-39 345.5,-59.75"/>
<text text-anchor="middle" x="272.25" y="-46.25" font-family="Helvetica,sans-Serif" font-size="10.00">di::vocab::Tuple&lt; Seqs... &gt;</text>
</a>
</g>
</g>
<!-- Node0&#45;&gt;Node20 -->
<g id="edge735_Node000000_Node000020" class="edge">
<title>Node0&#45;&gt;Node20</title>
<g id="a_edge735_Node000000_Node000020"><a xlink:title=" ">
<path fill="none" stroke="#63b8ff" d="M142.26,-671.06C144.37,-669.01 146.3,-666.79 148,-664.38 224.41,-556.17 98.37,-170.44 184,-69.38 188.12,-64.51 193.16,-60.7 198.71,-57.71"/>
<polygon fill="#63b8ff" stroke="#63b8ff" points="140.19,-668.24 134.55,-677.21 144.55,-673.71 140.19,-668.24"/>
</a>
</g>
</g>
<!-- Node21 -->
<g id="Node000021" class="node">
<title>Node21</title>
<g id="a_Node000021"><a xlink:href="classdi_1_1vocab_1_1Tuple.html" target="_top" xlink:title=" ">
<polygon fill="white" stroke="#666666" points="360.12,-20.75 184.38,-20.75 184.38,0 360.12,0 360.12,-20.75"/>
<text text-anchor="middle" x="272.25" y="-7.25" font-family="Helvetica,sans-Serif" font-size="10.00">di::vocab::Tuple&lt; BoundArgs... &gt;</text>
</a>
</g>
</g>
<!-- Node0&#45;&gt;Node21 -->
<g id="edge736_Node000000_Node000021" class="edge">
<title>Node0&#45;&gt;Node21</title>
<g id="a_edge736_Node000000_Node000021"><a xlink:title=" ">
<path fill="none" stroke="#63b8ff" d="M142.27,-671.07C144.38,-669.02 146.3,-666.79 148,-664.38 229.18,-548.95 92.97,-138.21 184,-30.38 187.11,-26.69 190.74,-23.61 194.73,-21.04"/>
<polygon fill="#63b8ff" stroke="#63b8ff" points="140.2,-668.25 134.57,-677.23 144.57,-673.72 140.2,-668.25"/>
</a>
</g>
</g>
<!-- Node22 -->
<g id="Node000022" class="node">
<title>Node22</title>
<g id="a_Node000022"><a xlink:href="classdi_1_1vocab_1_1Tuple.html" target="_top" xlink:title=" ">
<polygon fill="white" stroke="#666666" points="344.75,-1234.75 199.75,-1234.75 199.75,-1214 344.75,-1214 344.75,-1234.75"/>
<text text-anchor="middle" x="272.25" y="-1221.25" font-family="Helvetica,sans-Serif" font-size="10.00">di::vocab::Tuple&lt; Args... &gt;</text>
</a>
</g>
</g>
<!-- Node0&#45;&gt;Node22 -->
<g id="edge737_Node000000_Node000022" class="edge">
<title>Node0&#45;&gt;Node22</title>
<g id="a_edge737_Node000000_Node000022"><a xlink:title=" ">
<path fill="none" stroke="#63b8ff" d="M77.16,-723.96C85.05,-820.9 115.55,-1134.93 184,-1204.38 188.47,-1208.91 193.75,-1212.51 199.46,-1215.35"/>
<polygon fill="#63b8ff" stroke="#63b8ff" points="80.65,-723.71 76.37,-714.01 73.67,-724.26 80.65,-723.71"/>
</a>
</g>
</g>
<!-- Node23 -->
<g id="Node000023" class="node">
<title>Node23</title>
<g id="a_Node000023"><a xlink:href="classdi_1_1vocab_1_1Tuple.html" target="_top" xlink:title=" ">
<polygon fill="white" stroke="#666666" points="351.5,-1195.75 193,-1195.75 193,-1175 351.5,-1175 351.5,-1195.75"/>
<text text-anchor="middle" x="272.25" y="-1182.25" font-family="Helvetica,sans-Serif" font-size="10.00">di::vocab::Tuple&lt; Parsers... &gt;</text>
</a>
</g>
</g>
<!-- Node0&#45;&gt;Node23 -->
<g id="edge738_Node000000_Node000023" class="edge">
<title>Node0&#45;&gt;Node23</title>
<g id="a_edge738_Node000000_Node000023"><a xlink:title=" ">
<path fill="none" stroke="#63b8ff" d="M77.66,-723.95C86.81,-816.12 120.04,-1103.24 184,-1166.38 187.2,-1169.53 190.79,-1172.22 194.65,-1174.5"/>
<polygon fill="#63b8ff" stroke="#63b8ff" points="81.14,-723.64 76.69,-714.02 74.18,-724.32 81.14,-723.64"/>
</a>
</g>
</g>
<!-- Node24 -->
<g id="Node000024" class="node">
<title>Node24</title>
<g id="a_Node000024"><a xlink:href="classdi_1_1vocab_1_1Tuple.html" target="_top" xlink:title=" ">
<polygon fill="white" stroke="#666666" points="337.62,-1157.12 206.88,-1157.12 206.88,-1123.62 337.62,-1123.62 337.62,-1157.12"/>
<text text-anchor="start" x="214.88" y="-1143.62" font-family="Helvetica,sans-Serif" font-size="10.00">di::vocab::Tuple&lt; Locks</text>
<text text-anchor="middle" x="272.25" y="-1130.88" font-family="Helvetica,sans-Serif" font-size="10.00"> &amp;... &gt;</text>
</a>
</g>
</g>
<!-- Node0&#45;&gt;Node24 -->
<g id="edge739_Node000000_Node000024" class="edge">
<title>Node0&#45;&gt;Node24</title>
<g id="a_edge739_Node000000_Node000024"><a xlink:title=" ">
<path fill="none" stroke="#63b8ff" d="M78.72,-723.66C90.37,-808.28 128.77,-1057.17 184,-1114.38 190.26,-1120.86 198.05,-1125.74 206.39,-1129.42"/>
<polygon fill="#63b8ff" stroke="#63b8ff" points="82.21,-723.35 77.39,-713.91 75.27,-724.29 82.21,-723.35"/>
</a>
</g>
</g>
<!-- Node25 -->
<g id="Node000025" class="node">
<title>Node25</title>
<g id="a_Node000025"><a xlink:href="classdi_1_1vocab_1_1Tuple.html" target="_top" xlink:title=" ">
<polygon fill="white" stroke="#666666" points="334.62,-1105.12 209.88,-1105.12 209.88,-1071.62 334.62,-1071.62 334.62,-1105.12"/>
<text text-anchor="start" x="217.88" y="-1091.62" font-family="Helvetica,sans-Serif" font-size="10.00">di::vocab::Tuple&lt; Args</text>
<text text-anchor="middle" x="272.25" y="-1078.88" font-family="Helvetica,sans-Serif" font-size="10.00"> &amp;&amp;... &gt;</text>
</a>
</g>
</g>
<!-- Node0&#45;&gt;Node25 -->
<g id="edge740_Node000000_Node000025" class="edge">
<title>Node0&#45;&gt;Node25</title>
<g id="a_edge740_Node000000_Node000025"><a xlink:title=" ">
<path fill="none" stroke="#63b8ff" d="M74.82,-723.91C75.99,-792.3 88.7,-966.98 184,-1062.38 191.15,-1069.53 200.18,-1074.73 209.7,-1078.51"/>
<polygon fill="#63b8ff" stroke="#63b8ff" points="78.32,-723.9 74.73,-713.93 71.32,-723.96 78.32,-723.9"/>
</a>
</g>
</g>
<!-- Node26 -->
<g id="Node000026" class="node">
<title>Node26</title>
<g id="a_Node000026"><a xlink:href="classdi_1_1vocab_1_1Tuple.html" target="_top" xlink:title=" ">
<polygon fill="white" stroke="#666666" points="338,-1053.5 206.5,-1053.5 206.5,-1007.25 338,-1007.25 338,-1053.5"/>
<text text-anchor="start" x="214.5" y="-1040" font-family="Helvetica,sans-Serif" font-size="10.00">di::vocab::Tuple&lt; di</text>
<text text-anchor="start" x="214.5" y="-1027.25" font-family="Helvetica,sans-Serif" font-size="10.00">::TransparentString,</text>
<text text-anchor="middle" x="272.25" y="-1014.5" font-family="Helvetica,sans-Serif" font-size="10.00"> di::Arc&lt; iris::Inode &gt; &gt;</text>
</a>
</g>
</g>
<!-- Node0&#45;&gt;Node26 -->
<g id="edge741_Node000000_Node000026" class="edge">
<title>Node0&#45;&gt;Node26</title>
<g id="a_edge741_Node000000_Node000026"><a xlink:title=" ">
<path fill="none" stroke="#63b8ff" d="M77.42,-723.65C83.94,-782.49 106.95,-919.14 184,-997.38 190.36,-1003.84 198.12,-1009.05 206.35,-1013.25"/>
<polygon fill="#63b8ff" stroke="#63b8ff" points="80.92,-723.42 76.42,-713.83 73.95,-724.13 80.92,-723.42"/>
</a>
</g>
</g>
<!-- Node27 -->
<g id="Node000027" class="node">
<title>Node27</title>
<g id="a_Node000027"><a xlink:href="classdi_1_1vocab_1_1Tuple.html" target="_top" xlink:title=" ">
<polygon fill="white" stroke="#666666" points="343.25,-988.75 201.25,-988.75 201.25,-968 343.25,-968 343.25,-988.75"/>
<text text-anchor="middle" x="272.25" y="-975.25" font-family="Helvetica,sans-Serif" font-size="10.00">di::vocab::Tuple&lt; Types &gt;</text>
</a>
</g>
</g>
<!-- Node0&#45;&gt;Node27 -->
<g id="edge742_Node000000_Node000027" class="edge">
<title>Node0&#45;&gt;Node27</title>
<g id="a_edge742_Node000000_Node000027"><a xlink:title=" ">
<path fill="none" stroke="#63b8ff" d="M78.22,-723.43C85.97,-777.56 110.82,-896.54 184,-958.38 189.1,-962.69 194.96,-966.12 201.16,-968.84"/>
<polygon fill="#63b8ff" stroke="#63b8ff" points="81.72,-723.26 76.94,-713.81 74.79,-724.18 81.72,-723.26"/>
</a>
</g>
</g>
<!-- Node2 -->
<g id="Node000002" class="node">
<title>Node2</title>
<g id="a_Node000002"><a xlink:href="structdi_1_1reflection_1_1Enumerators.html" target="_top" xlink:title=" ">
<polygon fill="white" stroke="#666666" points="541.5,-962.12 396.5,-962.12 396.5,-928.62 541.5,-928.62 541.5,-962.12"/>
<text text-anchor="start" x="404.5" y="-948.62" font-family="Helvetica,sans-Serif" font-size="10.00">di::reflection::Enumerators</text>
<text text-anchor="middle" x="469" y="-935.88" font-family="Helvetica,sans-Serif" font-size="10.00">&lt; Es &gt;</text>
</a>
</g>
</g>
<!-- Node1&#45;&gt;Node2 -->
<g id="edge718_Node000001_Node000002" class="edge">
<title>Node1&#45;&gt;Node2</title>
<g id="a_edge718_Node000001_Node000002"><a xlink:title=" ">
<path fill="none" stroke="#63b8ff" d="M351.17,-941.78C365.98,-942.23 381.4,-942.71 396.01,-943.16"/>
<polygon fill="#63b8ff" stroke="#63b8ff" points="351.62,-938.29 341.51,-941.48 351.4,-945.28 351.62,-938.29"/>
</a>
</g>
</g>
<!-- Node5 -->
<g id="Node000005" class="node">
<title>Node5</title>
<g id="a_Node000005"><a xlink:href="structdi_1_1reflection_1_1Fields.html" target="_top" xlink:title=" ">
<polygon fill="white" stroke="#666666" points="524.62,-910.12 413.38,-910.12 413.38,-876.62 524.62,-876.62 524.62,-910.12"/>
<text text-anchor="start" x="421.38" y="-896.62" font-family="Helvetica,sans-Serif" font-size="10.00">di::reflection::Fields</text>
<text text-anchor="middle" x="469" y="-883.88" font-family="Helvetica,sans-Serif" font-size="10.00">&lt; Fs &gt;</text>
</a>
</g>
</g>
<!-- Node4&#45;&gt;Node5 -->
<g id="edge720_Node000004_Node000005" class="edge">
<title>Node4&#45;&gt;Node5</title>
<g id="a_edge720_Node000004_Node000005"><a xlink:title=" ">
<path fill="none" stroke="#63b8ff" d="M351.32,-897.57C371.97,-896.83 393.83,-896.04 412.97,-895.35"/>
<polygon fill="#63b8ff" stroke="#63b8ff" points="351.38,-894.06 341.51,-897.92 351.63,-901.06 351.38,-894.06"/>
</a>
</g>
</g>
<!-- Node3 -->
<g id="Node000003" class="node">
<title>Node3</title>
<g id="a_Node000003"><a xlink:href="classdi_1_1vocab_1_1TupleImpl.html" target="_top" xlink:title=" ">
<polygon fill="white" stroke="#666666" points="148,-655.5 0,-655.5 0,-609.25 148,-609.25 148,-655.5"/>
<text text-anchor="start" x="8" y="-642" font-family="Helvetica,sans-Serif" font-size="10.00">di::vocab::TupleImpl</text>
<text text-anchor="start" x="8" y="-629.25" font-family="Helvetica,sans-Serif" font-size="10.00">&lt; meta::IndexSequenceFor</text>
<text text-anchor="middle" x="74" y="-616.5" font-family="Helvetica,sans-Serif" font-size="10.00">&lt; Types... &gt;, Types... &gt;</text>
</a>
</g>
</g>
<!-- Node3&#45;&gt;Node1 -->
<g id="edge743_Node000003_Node000001" class="edge">
<title>Node3&#45;&gt;Node1</title>
<g id="a_edge743_Node000003_Node000001"><a xlink:title=" ">
<path fill="none" stroke="#63b8ff" d="M143.02,-663.38C144.82,-665.27 146.49,-667.26 148,-669.38 213.44,-760.59 107.96,-836.8 184,-919.38 189.68,-925.55 196.85,-930.01 204.63,-933.2"/>
<polygon fill="#63b8ff" stroke="#63b8ff" points="145.37,-660.78 135.56,-656.76 140.72,-666.02 145.37,-660.78"/>
</a>
</g>
</g>
<!-- Node3&#45;&gt;Node4 -->
<g id="edge744_Node000003_Node000004" class="edge">
<title>Node3&#45;&gt;Node4</title>
<g id="a_edge744_Node000003_Node000004"><a xlink:title=" ">
<path fill="none" stroke="#63b8ff" d="M142.95,-663.43C144.77,-665.3 146.46,-667.28 148,-669.38 204.69,-746.32 118,-812.25 184,-881.38 189.78,-887.43 197.01,-891.78 204.81,-894.86"/>
<polygon fill="#63b8ff" stroke="#63b8ff" points="145.27,-660.8 135.44,-656.85 140.66,-666.07 145.27,-660.8"/>
</a>
</g>
</g>
<!-- Node3&#45;&gt;Node6 -->
<g id="edge745_Node000003_Node000006" class="edge">
<title>Node3&#45;&gt;Node6</title>
<g id="a_edge745_Node000003_Node000006"><a xlink:title=" ">
<path fill="none" stroke="#63b8ff" d="M142.13,-663.07C144.23,-665.06 146.2,-667.16 148,-669.38 186.88,-717.25 143.97,-756.47 184,-803.38 188.31,-808.42 193.4,-812.85 198.93,-816.72"/>
<polygon fill="#63b8ff" stroke="#63b8ff" points="144.59,-660.56 134.63,-656.94 140.15,-665.98 144.59,-660.56"/>
</a>
</g>
</g>
<!-- Node3&#45;&gt;Node7 -->
<g id="edge746_Node000003_Node000007" class="edge">
<title>Node3&#45;&gt;Node7</title>
<g id="a_edge746_Node000003_Node000007"><a xlink:title=" ">
<path fill="none" stroke="#63b8ff" d="M141.07,-662.63C143.54,-664.75 145.86,-667 148,-669.38 178.18,-702.96 149.96,-734.71 184,-764.38 188.22,-768.05 192.97,-771.09 198.03,-773.6"/>
<polygon fill="#63b8ff" stroke="#63b8ff" points="143.52,-660.09 133.44,-656.83 139.28,-665.67 143.52,-660.09"/>
</a>
</g>
</g>
<!-- Node3&#45;&gt;Node8 -->
<g id="edge747_Node000003_Node000008" class="edge">
<title>Node3&#45;&gt;Node8</title>
<g id="a_edge747_Node000003_Node000008"><a xlink:title=" ">
<path fill="none" stroke="#63b8ff" d="M139.28,-662.29C142.34,-664.53 145.27,-666.89 148,-669.38 170.16,-689.54 159.46,-709.19 184,-726.38 188.7,-729.67 193.86,-732.4 199.26,-734.67"/>
<polygon fill="#63b8ff" stroke="#63b8ff" points="141.3,-659.43 131.04,-656.78 137.41,-665.25 141.3,-659.43"/>
</a>
</g>
</g>
<!-- Node3&#45;&gt;Node9 -->
<g id="edge748_Node000003_Node000009" class="edge">
<title>Node3&#45;&gt;Node9</title>
<g id="a_edge748_Node000003_Node000009"><a xlink:title=" ">
<path fill="none" stroke="#63b8ff" d="M143.98,-659.89C157.2,-664.89 170.98,-669.93 184,-674.38 192.83,-677.39 202.22,-680.39 211.45,-683.23"/>
<polygon fill="#63b8ff" stroke="#63b8ff" points="145.53,-656.73 134.94,-656.43 143.03,-663.27 145.53,-656.73"/>
</a>
</g>
</g>
<!-- Node3&#45;&gt;Node10 -->
<g id="edge749_Node000003_Node000010" class="edge">
<title>Node3&#45;&gt;Node10</title>
<g id="a_edge749_Node000003_Node000010"><a xlink:title=" ">
<path fill="none" stroke="#63b8ff" d="M159.71,-628.49C168.12,-628.1 176.66,-627.71 185.08,-627.33"/>
<polygon fill="#63b8ff" stroke="#63b8ff" points="159.7,-624.99 149.87,-628.94 160.02,-631.98 159.7,-624.99"/>
</a>
</g>
</g>
<!-- Node3&#45;&gt;Node11 -->
<g id="edge750_Node000003_Node000011" class="edge">
<title>Node3&#45;&gt;Node11</title>
<g id="a_edge750_Node000003_Node000011"><a xlink:title=" ">
<path fill="none" stroke="#63b8ff" d="M121.4,-603.11C140.26,-592.21 162.61,-580.53 184,-572.38 193.44,-568.78 203.71,-565.72 213.78,-563.15"/>
<polygon fill="#63b8ff" stroke="#63b8ff" points="119.74,-600.02 112.9,-608.11 123.29,-606.05 119.74,-600.02"/>
</a>
</g>
</g>
<!-- Node3&#45;&gt;Node12 -->
<g id="edge751_Node000003_Node000012" class="edge">
<title>Node3&#45;&gt;Node12</title>
<g id="a_edge751_Node000003_Node000012"><a xlink:title=" ">
<path fill="none" stroke="#63b8ff" d="M104.43,-600.84C125.22,-579.82 154.53,-552.64 184,-533.38 188.86,-530.2 194.02,-527.16 199.32,-524.28"/>
<polygon fill="#63b8ff" stroke="#63b8ff" points="102.15,-598.16 97.68,-607.76 107.17,-603.05 102.15,-598.16"/>
</a>
</g>
</g>
<!-- Node3&#45;&gt;Node13 -->
<g id="edge752_Node000003_Node000013" class="edge">
<title>Node3&#45;&gt;Node13</title>
<g id="a_edge752_Node000003_Node000013"><a xlink:title=" ">
<path fill="none" stroke="#63b8ff" d="M88.61,-598.5C105.73,-559.63 138.49,-496.16 184,-456.38 187.75,-453.1 191.82,-450.06 196.08,-447.23"/>
<polygon fill="#63b8ff" stroke="#63b8ff" points="85.53,-596.81 84.8,-607.38 91.96,-599.57 85.53,-596.81"/>
</a>
</g>
</g>
<!-- Node3&#45;&gt;Node14 -->
<g id="edge753_Node000003_Node000014" class="edge">
<title>Node3&#45;&gt;Node14</title>
<g id="a_edge753_Node000003_Node000014"><a xlink:title=" ">
<path fill="none" stroke="#63b8ff" d="M79.83,-597.8C89.39,-542.84 116.05,-435.99 184,-379.38 188.42,-375.69 193.38,-372.66 198.64,-370.16"/>
<polygon fill="#63b8ff" stroke="#63b8ff" points="76.4,-597.09 78.23,-607.52 83.3,-598.22 76.4,-597.09"/>
</a>
</g>
</g>
<!-- Node3&#45;&gt;Node15 -->
<g id="edge754_Node000003_Node000015" class="edge">
<title>Node3&#45;&gt;Node15</title>
<g id="a_edge754_Node000003_Node000015"><a xlink:title=" ">
<path fill="none" stroke="#63b8ff" d="M77.59,-597.51C84.12,-535.94 106.73,-408.07 184,-340.38 188.21,-336.69 192.96,-333.64 198.01,-331.13"/>
<polygon fill="#63b8ff" stroke="#63b8ff" points="74.12,-597.11 76.64,-607.4 81.09,-597.78 74.12,-597.11"/>
</a>
</g>
</g>
<!-- Node3&#45;&gt;Node16 -->
<g id="edge755_Node000003_Node000016" class="edge">
<title>Node3&#45;&gt;Node16</title>
<g id="a_edge755_Node000003_Node000016"><a xlink:title=" ">
<path fill="none" stroke="#63b8ff" d="M75.8,-597.79C79.32,-530.27 97.1,-380.57 184,-301.38 188.02,-297.71 192.57,-294.68 197.44,-292.16"/>
<polygon fill="#63b8ff" stroke="#63b8ff" points="72.31,-597.38 75.37,-607.52 79.31,-597.68 72.31,-597.38"/>
</a>
</g>
</g>
<!-- Node3&#45;&gt;Node17 -->
<g id="edge756_Node000003_Node000017" class="edge">
<title>Node3&#45;&gt;Node17</title>
<g id="a_edge756_Node000003_Node000017"><a xlink:title=" ">
<path fill="none" stroke="#63b8ff" d="M75.91,-597.38C79.58,-525.83 97.54,-361.26 184,-262.38 188.37,-257.38 193.5,-252.99 199.05,-249.15"/>
<polygon fill="#63b8ff" stroke="#63b8ff" points="72.42,-597.17 75.47,-607.32 79.41,-597.48 72.42,-597.17"/>
</a>
</g>
</g>
<!-- Node3&#45;&gt;Node18 -->
<g id="edge757_Node000003_Node000018" class="edge">
<title>Node3&#45;&gt;Node18</title>
<g id="a_edge757_Node000003_Node000018"><a xlink:title=" ">
<path fill="none" stroke="#63b8ff" d="M78.77,-597.74C89.75,-503.18 124.76,-243.8 184,-185.38 187.76,-181.66 192.06,-178.59 196.7,-176.04"/>
<polygon fill="#63b8ff" stroke="#63b8ff" points="75.32,-597.1 77.66,-607.43 82.27,-597.9 75.32,-597.1"/>
</a>
</g>
</g>
<!-- Node3&#45;&gt;Node19 -->
<g id="edge758_Node000003_Node000019" class="edge">
<title>Node3&#45;&gt;Node19</title>
<g id="a_edge758_Node000003_Node000019"><a xlink:title=" ">
<path fill="none" stroke="#63b8ff" d="M78.73,-597.7C90.01,-498.57 126.53,-216.65 184,-146.38 189.04,-140.21 195.26,-134.99 202.04,-130.57"/>
<polygon fill="#63b8ff" stroke="#63b8ff" points="75.29,-597.02 77.65,-607.35 82.24,-597.8 75.29,-597.02"/>
</a>
</g>
</g>
<!-- Node3&#45;&gt;Node20 -->
<g id="edge759_Node000003_Node000020" class="edge">
<title>Node3&#45;&gt;Node20</title>
<g id="a_edge759_Node000003_Node000020"><a xlink:title=" ">
<path fill="none" stroke="#63b8ff" d="M76.91,-597.29C83.66,-486.32 110.14,-145.79 184,-69.38 188.21,-65.02 193.17,-61.52 198.54,-58.73"/>
<polygon fill="#63b8ff" stroke="#63b8ff" points="73.42,-597.08 76.32,-607.26 80.4,-597.49 73.42,-597.08"/>
</a>
</g>
</g>
<!-- Node3&#45;&gt;Node21 -->
<g id="edge760_Node000003_Node000021" class="edge">
<title>Node3&#45;&gt;Node21</title>
<g id="a_edge760_Node000003_Node000021"><a xlink:title=" ">
<path fill="none" stroke="#63b8ff" d="M76.41,-597.57C81.83,-481.91 105.1,-113.01 184,-30.38 187.54,-26.67 191.62,-23.58 196.04,-21.02"/>
<polygon fill="#63b8ff" stroke="#63b8ff" points="72.93,-597.22 75.97,-607.36 79.92,-597.53 72.93,-597.22"/>
</a>
</g>
</g>
<!-- Node3&#45;&gt;Node22 -->
<g id="edge761_Node000003_Node000022" class="edge">
<title>Node3&#45;&gt;Node22</title>
<g id="a_edge761_Node000003_Node000022"><a xlink:title=" ">
<path fill="none" stroke="#63b8ff" d="M143.34,-663.36C145.04,-665.25 146.6,-667.26 148,-669.38 213.74,-768.76 106.66,-1113.73 184,-1204.38 188.34,-1209.46 193.68,-1213.4 199.57,-1216.44"/>
<polygon fill="#63b8ff" stroke="#63b8ff" points="145.98,-661.04 136.28,-656.78 141.21,-666.16 145.98,-661.04"/>
</a>
</g>
</g>
<!-- Node3&#45;&gt;Node23 -->
<g id="edge762_Node000003_Node000023" class="edge">
<title>Node3&#45;&gt;Node23</title>
<g id="a_edge762_Node000003_Node000023"><a xlink:title=" ">
<path fill="none" stroke="#63b8ff" d="M143.33,-663.37C145.03,-665.26 146.59,-667.26 148,-669.38 209.33,-761.57 111.46,-1082.71 184,-1166.38 186.74,-1169.54 189.88,-1172.24 193.29,-1174.56"/>
<polygon fill="#63b8ff" stroke="#63b8ff" points="145.96,-661.04 136.26,-656.79 141.2,-666.17 145.96,-661.04"/>
</a>
</g>
</g>
<!-- Node3&#45;&gt;Node24 -->
<g id="edge763_Node000003_Node000024" class="edge">
<title>Node3&#45;&gt;Node24</title>
<g id="a_edge763_Node000003_Node000024"><a xlink:title=" ">
<path fill="none" stroke="#63b8ff" d="M143.31,-663.39C145.01,-665.27 146.58,-667.27 148,-669.38 203.3,-751.75 121.54,-1037.29 184,-1114.38 189.97,-1121.74 197.93,-1127.09 206.63,-1130.95"/>
<polygon fill="#63b8ff" stroke="#63b8ff" points="145.93,-661.04 136.21,-656.82 141.18,-666.18 145.93,-661.04"/>
</a>
</g>
</g>
<!-- Node3&#45;&gt;Node25 -->
<g id="edge764_Node000003_Node000025" class="edge">
<title>Node3&#45;&gt;Node25</title>
<g id="a_edge764_Node000003_Node000025"><a xlink:title=" ">
<path fill="none" stroke="#63b8ff" d="M143.28,-663.41C144.99,-665.29 146.57,-667.27 148,-669.38 197.27,-741.93 128.43,-994.53 184,-1062.38 190.71,-1070.57 199.88,-1076.25 209.77,-1080.18"/>
<polygon fill="#63b8ff" stroke="#63b8ff" points="145.89,-661.05 136.16,-656.86 141.15,-666.2 145.89,-661.05"/>
</a>
</g>
</g>
<!-- Node3&#45;&gt;Node26 -->
<g id="edge765_Node000003_Node000026" class="edge">
<title>Node3&#45;&gt;Node26</title>
<g id="a_edge765_Node000003_Node000026"><a xlink:title=" ">
<path fill="none" stroke="#63b8ff" d="M143.23,-663.44C144.95,-665.31 146.55,-667.29 148,-669.38 231.47,-789.96 94.17,-881.45 184,-997.38 189.85,-1004.93 197.64,-1010.75 206.16,-1015.24"/>
<polygon fill="#63b8ff" stroke="#63b8ff" points="145.82,-661.06 136.07,-656.92 141.1,-666.24 145.82,-661.06"/>
</a>
</g>
</g>
<!-- Node3&#45;&gt;Node27 -->
<g id="edge766_Node000003_Node000027" class="edge">
<title>Node3&#45;&gt;Node27</title>
<g id="a_edge766_Node000003_Node000027"><a xlink:title=" ">
<path fill="none" stroke="#63b8ff" d="M143.19,-663.47C144.93,-665.33 146.54,-667.3 148,-669.38 222.45,-775.26 97.23,-862.33 184,-958.38 188.79,-963.68 194.68,-967.72 201.11,-970.79"/>
<polygon fill="#63b8ff" stroke="#63b8ff" points="145.76,-661.07 136,-656.96 141.07,-666.27 145.76,-661.07"/>
</a>
</g>
</g>
</g>
</svg>
