<?xml version="1.0" encoding="UTF-8" standalone="no"?>
<!DOCTYPE svg PUBLIC "-//W3C//DTD SVG 1.1//EN"
 "http://www.w3.org/Graphics/SVG/1.1/DTD/svg11.dtd">
<!-- Generated by graphviz version 10.0.1 (0)
 -->
<!-- Title: Graphical Class Hierarchy Pages: 1 -->
<svg width="316pt" height="68pt"
 viewBox="0.00 0.00 316.00 67.75" xmlns="http://www.w3.org/2000/svg" xmlns:xlink="http://www.w3.org/1999/xlink">
<g id="graph0" class="graph" transform="scale(1 1) rotate(0) translate(4 63.75)">
<title>Graphical Class Hierarchy</title>
<!-- Node0 -->
<g id="Node000000" class="node">
<title>Node0</title>
<g id="a_Node000000"><a xlink:title=" ">
<polygon fill="#e0e0e0" stroke="#999999" points="108.25,-59.75 0,-59.75 0,-39 108.25,-39 108.25,-59.75"/>
<text text-anchor="middle" x="54.12" y="-46.25" font-family="Helvetica,sans-Serif" font-size="10.00">detail::MethodImpl</text>
</a>
</g>
</g>
<!-- Node1 -->
<g id="Node000001" class="node">
<title>Node1</title>
<g id="a_Node000001"><a xlink:href="classdi_1_1any_1_1AnyT_1_1Type.html" target="_top" xlink:title=" ">
<polygon fill="white" stroke="#666666" points="308,-46.12 144.25,-46.12 144.25,-12.62 308,-12.62 308,-46.12"/>
<text text-anchor="start" x="152.25" y="-32.62" font-family="Helvetica,sans-Serif" font-size="10.00">di::any::AnyT&lt; UserInterface,</text>
<text text-anchor="middle" x="226.12" y="-19.88" font-family="Helvetica,sans-Serif" font-size="10.00"> Storage, VTablePolicy &gt;::Type</text>
</a>
</g>
</g>
<!-- Node0&#45;&gt;Node1 -->
<g id="edge6_Node000000_Node000001" class="edge">
<title>Node0&#45;&gt;Node1</title>
<g id="a_edge6_Node000000_Node000001"><a xlink:title=" ">
<path fill="none" stroke="#8b1a1a" d="M119.81,-41.76C127.72,-40.83 135.87,-39.88 143.97,-38.92"/>
<polygon fill="#8b1a1a" stroke="#8b1a1a" points="119.47,-38.28 109.95,-42.92 120.29,-45.23 119.47,-38.28"/>
</a>
</g>
</g>
<!-- Node2 -->
<g id="Node000002" class="node">
<title>Node2</title>
<g id="a_Node000002"><a xlink:title=" ">
<polygon fill="#e0e0e0" stroke="#999999" points="80.88,-20.75 27.37,-20.75 27.37,0 80.88,0 80.88,-20.75"/>
<text text-anchor="middle" x="54.12" y="-7.25" font-family="Helvetica,sans-Serif" font-size="10.00">Storage</text>
</a>
</g>
</g>
<!-- Node2&#45;&gt;Node1 -->
<g id="edge7_Node000002_Node000001" class="edge">
<title>Node2&#45;&gt;Node1</title>
<g id="a_edge7_Node000002_Node000001"><a xlink:title=" ">
<path fill="none" stroke="#63b8ff" d="M92.35,-14.54C107.62,-16.24 125.95,-18.29 144.04,-20.31"/>
<polygon fill="#63b8ff" stroke="#63b8ff" points="93.15,-11.1 82.82,-13.47 92.37,-18.06 93.15,-11.1"/>
</a>
</g>
</g>
</g>
</svg>
