<?xml version="1.0" encoding="UTF-8" standalone="no"?>
<!DOCTYPE svg PUBLIC "-//W3C//DTD SVG 1.1//EN"
 "http://www.w3.org/Graphics/SVG/1.1/DTD/svg11.dtd">
<!-- Generated by graphviz version 10.0.1 (0)
 -->
<!-- Title: Graphical Class Hierarchy Pages: 1 -->
<svg width="255pt" height="68pt"
 viewBox="0.00 0.00 254.50 67.75" xmlns="http://www.w3.org/2000/svg" xmlns:xlink="http://www.w3.org/1999/xlink">
<g id="graph0" class="graph" transform="scale(1 1) rotate(0) translate(4 63.75)">
<title>Graphical Class Hierarchy</title>
<!-- Node0 -->
<g id="Node000000" class="node">
<title>Node0</title>
<g id="a_Node000000"><a xlink:href="structiris_1_1acpi_1_1SDTHeader.html" target="_top" xlink:title="System Description Table Header.">
<polygon fill="white" stroke="#666666" points="118,-39.75 0,-39.75 0,-19 118,-19 118,-39.75"/>
<text text-anchor="middle" x="59" y="-26.25" font-family="Helvetica,sans-Serif" font-size="10.00">iris::acpi::SDTHeader</text>
</a>
</g>
</g>
<!-- Node1 -->
<g id="Node000001" class="node">
<title>Node1</title>
<g id="a_Node000001"><a xlink:href="structiris_1_1acpi_1_1MADT.html" target="_top" xlink:title="Multiple APIC Description Table.">
<polygon fill="white" stroke="#666666" points="246.5,-59.75 154,-59.75 154,-39 246.5,-39 246.5,-59.75"/>
<text text-anchor="middle" x="200.25" y="-46.25" font-family="Helvetica,sans-Serif" font-size="10.00">iris::acpi::MADT</text>
</a>
</g>
</g>
<!-- Node0&#45;&gt;Node1 -->
<g id="edge917_Node000000_Node000001" class="edge">
<title>Node0&#45;&gt;Node1</title>
<g id="a_edge917_Node000000_Node000001"><a xlink:title=" ">
<path fill="none" stroke="#63b8ff" d="M129.38,-39.34C137.57,-40.52 145.77,-41.69 153.52,-42.81"/>
<polygon fill="#63b8ff" stroke="#63b8ff" points="130.14,-35.91 119.75,-37.96 129.15,-42.84 130.14,-35.91"/>
</a>
</g>
</g>
<!-- Node2 -->
<g id="Node000002" class="node">
<title>Node2</title>
<g id="a_Node000002"><a xlink:href="structiris_1_1acpi_1_1RSDT.html" target="_top" xlink:title="Root System Description Table.">
<polygon fill="white" stroke="#666666" points="245,-20.75 155.5,-20.75 155.5,0 245,0 245,-20.75"/>
<text text-anchor="middle" x="200.25" y="-7.25" font-family="Helvetica,sans-Serif" font-size="10.00">iris::acpi::RSDT</text>
</a>
</g>
</g>
<!-- Node0&#45;&gt;Node2 -->
<g id="edge918_Node000000_Node000002" class="edge">
<title>Node0&#45;&gt;Node2</title>
<g id="a_edge918_Node000000_Node000002"><a xlink:title=" ">
<path fill="none" stroke="#63b8ff" d="M129.65,-19.87C138.35,-18.68 147.06,-17.5 155.22,-16.38"/>
<polygon fill="#63b8ff" stroke="#63b8ff" points="129.18,-16.4 119.75,-21.22 130.13,-23.34 129.18,-16.4"/>
</a>
</g>
</g>
</g>
</svg>
