<?xml version="1.0" encoding="UTF-8" standalone="no"?>
<!DOCTYPE svg PUBLIC "-//W3C//DTD SVG 1.1//EN"
 "http://www.w3.org/Graphics/SVG/1.1/DTD/svg11.dtd">
<!-- Generated by graphviz version 10.0.1 (0)
 -->
<!-- Title: Graphical Class Hierarchy Pages: 1 -->
<svg width="339pt" height="94pt"
 viewBox="0.00 0.00 339.25 93.50" xmlns="http://www.w3.org/2000/svg" xmlns:xlink="http://www.w3.org/1999/xlink">
<g id="graph0" class="graph" transform="scale(1 1) rotate(0) translate(4 89.5)">
<title>Graphical Class Hierarchy</title>
<!-- Node0 -->
<g id="Node000000" class="node">
<title>Node0</title>
<g id="a_Node000000"><a xlink:href="structdi_1_1parser_1_1detail_1_1AlternationParserMarker.html" target="_top" xlink:title=" ">
<polygon fill="white" stroke="#666666" points="164.5,-85.5 24.75,-85.5 24.75,-52 164.5,-52 164.5,-85.5"/>
<text text-anchor="start" x="32.75" y="-72" font-family="Helvetica,sans-Serif" font-size="10.00">di::parser::detail</text>
<text text-anchor="middle" x="94.62" y="-59.25" font-family="Helvetica,sans-Serif" font-size="10.00">::AlternationParserMarker</text>
</a>
</g>
</g>
<!-- Node1 -->
<g id="Node000001" class="node">
<title>Node1</title>
<g id="a_Node000001"><a xlink:href="classdi_1_1parser_1_1detail_1_1AlternationParser.html" target="_top" xlink:title=" ">
<polygon fill="white" stroke="#666666" points="331.25,-65.88 225.25,-65.88 225.25,-19.62 331.25,-19.62 331.25,-65.88"/>
<text text-anchor="start" x="233.25" y="-52.38" font-family="Helvetica,sans-Serif" font-size="10.00">di::parser::detail</text>
<text text-anchor="start" x="233.25" y="-39.62" font-family="Helvetica,sans-Serif" font-size="10.00">::AlternationParser</text>
<text text-anchor="middle" x="278.25" y="-26.88" font-family="Helvetica,sans-Serif" font-size="10.00">&lt; Parsers &gt;</text>
</a>
</g>
</g>
<!-- Node0&#45;&gt;Node1 -->
<g id="edge604_Node000000_Node000001" class="edge">
<title>Node0&#45;&gt;Node1</title>
<g id="a_edge604_Node000000_Node000001"><a xlink:title=" ">
<path fill="none" stroke="#63b8ff" d="M176.16,-57.22C192.7,-54.85 209.7,-52.42 224.93,-50.24"/>
<polygon fill="#63b8ff" stroke="#63b8ff" points="175.71,-53.75 166.31,-58.63 176.7,-60.68 175.71,-53.75"/>
</a>
</g>
</g>
<!-- Node2 -->
<g id="Node000002" class="node">
<title>Node2</title>
<g id="a_Node000002"><a xlink:href="classdi_1_1parser_1_1ParserBase.html" target="_top" xlink:title=" ">
<polygon fill="white" stroke="#666666" points="189.25,-33.5 0,-33.5 0,0 189.25,0 189.25,-33.5"/>
<text text-anchor="start" x="8" y="-20" font-family="Helvetica,sans-Serif" font-size="10.00">di::parser::ParserBase</text>
<text text-anchor="middle" x="94.62" y="-7.25" font-family="Helvetica,sans-Serif" font-size="10.00">&lt; AlternationParser&lt; Parsers... &gt; &gt;</text>
</a>
</g>
</g>
<!-- Node2&#45;&gt;Node1 -->
<g id="edge605_Node000002_Node000001" class="edge">
<title>Node2&#45;&gt;Node1</title>
<g id="a_edge605_Node000002_Node000001"><a xlink:title=" ">
<path fill="none" stroke="#63b8ff" d="M200.94,-31.83C209.18,-33.01 217.26,-34.16 224.89,-35.25"/>
<polygon fill="#63b8ff" stroke="#63b8ff" points="201.52,-28.37 191.13,-30.42 200.53,-35.3 201.52,-28.37"/>
</a>
</g>
</g>
</g>
</svg>
