<?xml version="1.0" encoding="UTF-8" standalone="no"?>
<!DOCTYPE svg PUBLIC "-//W3C//DTD SVG 1.1//EN"
 "http://www.w3.org/Graphics/SVG/1.1/DTD/svg11.dtd">
<!-- Generated by graphviz version 10.0.1 (0)
 -->
<!-- Title: Graphical Class Hierarchy Pages: 1 -->
<svg width="361pt" height="250pt"
 viewBox="0.00 0.00 361.00 249.50" xmlns="http://www.w3.org/2000/svg" xmlns:xlink="http://www.w3.org/1999/xlink">
<g id="graph0" class="graph" transform="scale(1 1) rotate(0) translate(4 245.5)">
<title>Graphical Class Hierarchy</title>
<!-- Node0 -->
<g id="Node000000" class="node">
<title>Node0</title>
<g id="a_Node000000"><a xlink:href="structdi_1_1bit_1_1BitEnum.html" target="_top" xlink:title=" ">
<polygon fill="white" stroke="#666666" points="111.25,-137.5 0,-137.5 0,-104 111.25,-104 111.25,-137.5"/>
<text text-anchor="start" x="8" y="-124" font-family="Helvetica,sans-Serif" font-size="10.00">di::bit::BitEnum&lt; T,</text>
<text text-anchor="middle" x="55.62" y="-111.25" font-family="Helvetica,sans-Serif" font-size="10.00"> index, bit_count &gt;</text>
</a>
</g>
</g>
<!-- Node1 -->
<g id="Node000001" class="node">
<title>Node1</title>
<g id="a_Node000001"><a xlink:href="structiris_1_1x86_1_1amd64_1_1ApicInterruptCommandDeliveryMode.html" target="_top" xlink:title=" ">
<polygon fill="white" stroke="#666666" points="332,-241.5 168.25,-241.5 168.25,-208 332,-208 332,-241.5"/>
<text text-anchor="start" x="176.25" y="-228" font-family="Helvetica,sans-Serif" font-size="10.00">iris::x86::amd64::ApicInterrupt</text>
<text text-anchor="middle" x="250.12" y="-215.25" font-family="Helvetica,sans-Serif" font-size="10.00">CommandDeliveryMode</text>
</a>
</g>
</g>
<!-- Node0&#45;&gt;Node1 -->
<g id="edge14_Node000000_Node000001" class="edge">
<title>Node0&#45;&gt;Node1</title>
<g id="a_edge14_Node000000_Node000001"><a xlink:title=" ">
<path fill="none" stroke="#63b8ff" d="M79.68,-145.98C96.76,-163.23 121.46,-185.32 147.25,-198.75 153.73,-202.12 160.66,-205.08 167.76,-207.66"/>
<polygon fill="#63b8ff" stroke="#63b8ff" points="82.45,-143.81 72.99,-139.05 77.42,-148.68 82.45,-143.81"/>
</a>
</g>
</g>
<!-- Node2 -->
<g id="Node000002" class="node">
<title>Node2</title>
<g id="a_Node000002"><a xlink:href="structiris_1_1x86_1_1amd64_1_1ApicInterruptCommandDestinationShorthand.html" target="_top" xlink:title=" ">
<polygon fill="white" stroke="#666666" points="336.12,-189.5 164.12,-189.5 164.12,-156 336.12,-156 336.12,-189.5"/>
<text text-anchor="start" x="172.12" y="-176" font-family="Helvetica,sans-Serif" font-size="10.00">iris::x86::amd64::ApicInterrupt</text>
<text text-anchor="middle" x="250.12" y="-163.25" font-family="Helvetica,sans-Serif" font-size="10.00">CommandDestinationShorthand</text>
</a>
</g>
</g>
<!-- Node0&#45;&gt;Node2 -->
<g id="edge15_Node000000_Node000002" class="edge">
<title>Node0&#45;&gt;Node2</title>
<g id="a_edge15_Node000000_Node000002"><a xlink:title=" ">
<path fill="none" stroke="#63b8ff" d="M122.51,-139.9C130.83,-142.24 139.23,-144.58 147.25,-146.75 158,-149.66 169.41,-152.66 180.55,-155.54"/>
<polygon fill="#63b8ff" stroke="#63b8ff" points="123.7,-136.6 113.12,-137.24 121.79,-143.33 123.7,-136.6"/>
</a>
</g>
</g>
<!-- Node3 -->
<g id="Node000003" class="node">
<title>Node3</title>
<g id="a_Node000003"><a xlink:href="structiris_1_1x86_1_1amd64_1_1ApicLvtEntryMessageType.html" target="_top" xlink:title=" ">
<polygon fill="white" stroke="#666666" points="318.5,-137.5 181.75,-137.5 181.75,-104 318.5,-104 318.5,-137.5"/>
<text text-anchor="start" x="189.75" y="-124" font-family="Helvetica,sans-Serif" font-size="10.00">iris::x86::amd64::ApicLvt</text>
<text text-anchor="middle" x="250.12" y="-111.25" font-family="Helvetica,sans-Serif" font-size="10.00">EntryMessageType</text>
</a>
</g>
</g>
<!-- Node0&#45;&gt;Node3 -->
<g id="edge16_Node000000_Node000003" class="edge">
<title>Node0&#45;&gt;Node3</title>
<g id="a_edge16_Node000000_Node000003"><a xlink:title=" ">
<path fill="none" stroke="#63b8ff" d="M123.04,-120.75C141.93,-120.75 162.52,-120.75 181.47,-120.75"/>
<polygon fill="#63b8ff" stroke="#63b8ff" points="123.04,-117.25 113.04,-120.75 123.04,-124.25 123.04,-117.25"/>
</a>
</g>
</g>
<!-- Node4 -->
<g id="Node000004" class="node">
<title>Node4</title>
<g id="a_Node000004"><a xlink:href="structiris_1_1x86_1_1amd64_1_1IoApicRedirectionTableEntryDeliveryMode.html" target="_top" xlink:title=" ">
<polygon fill="white" stroke="#666666" points="345.5,-85.5 154.75,-85.5 154.75,-52 345.5,-52 345.5,-85.5"/>
<text text-anchor="start" x="162.75" y="-72" font-family="Helvetica,sans-Serif" font-size="10.00">iris::x86::amd64::IoApic</text>
<text text-anchor="middle" x="250.12" y="-59.25" font-family="Helvetica,sans-Serif" font-size="10.00">RedirectionTableEntryDeliveryMode</text>
</a>
</g>
</g>
<!-- Node0&#45;&gt;Node4 -->
<g id="edge17_Node000000_Node000004" class="edge">
<title>Node0&#45;&gt;Node4</title>
<g id="a_edge17_Node000000_Node000004"><a xlink:title=" ">
<path fill="none" stroke="#63b8ff" d="M122.51,-101.6C130.83,-99.26 139.23,-96.92 147.25,-94.75 158,-91.84 169.41,-88.84 180.55,-85.96"/>
<polygon fill="#63b8ff" stroke="#63b8ff" points="121.79,-98.17 113.12,-104.26 123.7,-104.9 121.79,-98.17"/>
</a>
</g>
</g>
<!-- Node5 -->
<g id="Node000005" class="node">
<title>Node5</title>
<g id="a_Node000005"><a xlink:href="structiris_1_1x86_1_1amd64_1_1IoApicRedirectionTableEntryDestinationMode.html" target="_top" xlink:title=" ">
<polygon fill="white" stroke="#666666" points="353,-33.5 147.25,-33.5 147.25,0 353,0 353,-33.5"/>
<text text-anchor="start" x="155.25" y="-20" font-family="Helvetica,sans-Serif" font-size="10.00">iris::x86::amd64::IoApic</text>
<text text-anchor="middle" x="250.12" y="-7.25" font-family="Helvetica,sans-Serif" font-size="10.00">RedirectionTableEntryDestinationMode</text>
</a>
</g>
</g>
<!-- Node0&#45;&gt;Node5 -->
<g id="edge18_Node000000_Node000005" class="edge">
<title>Node0&#45;&gt;Node5</title>
<g id="a_edge18_Node000000_Node000005"><a xlink:title=" ">
<path fill="none" stroke="#63b8ff" d="M79.68,-95.52C96.76,-78.27 121.46,-56.18 147.25,-42.75 153.64,-39.42 160.49,-36.5 167.5,-33.94"/>
<polygon fill="#63b8ff" stroke="#63b8ff" points="77.42,-92.82 72.99,-102.45 82.45,-97.69 77.42,-92.82"/>
</a>
</g>
</g>
</g>
</svg>
