<?xml version="1.0" encoding="UTF-8" standalone="no"?>
<!DOCTYPE svg PUBLIC "-//W3C//DTD SVG 1.1//EN"
 "http://www.w3.org/Graphics/SVG/1.1/DTD/svg11.dtd">
<!-- Generated by graphviz version 10.0.1 (0)
 -->
<!-- Title: Graphical Class Hierarchy Pages: 1 -->
<svg width="313pt" height="94pt"
 viewBox="0.00 0.00 313.00 93.50" xmlns="http://www.w3.org/2000/svg" xmlns:xlink="http://www.w3.org/1999/xlink">
<g id="graph0" class="graph" transform="scale(1 1) rotate(0) translate(4 89.5)">
<title>Graphical Class Hierarchy</title>
<!-- Node0 -->
<g id="Node000000" class="node">
<title>Node0</title>
<g id="a_Node000000"><a xlink:href="structdi_1_1meta_1_1Constexpr.html" target="_top" xlink:title=" ">
<polygon fill="white" stroke="#666666" points="112,-59.5 0,-59.5 0,-26 112,-26 112,-59.5"/>
<text text-anchor="start" x="8" y="-46" font-family="Helvetica,sans-Serif" font-size="10.00">di::meta::Constexpr</text>
<text text-anchor="middle" x="56" y="-33.25" font-family="Helvetica,sans-Serif" font-size="10.00">&lt; 0zu &gt;</text>
</a>
</g>
</g>
<!-- Node1 -->
<g id="Node000001" class="node">
<title>Node1</title>
<g id="a_Node000001"><a xlink:href="structdi_1_1meta_1_1detail_1_1CountHelper_3_01T_00_01List_3_4_01_4.html" target="_top" xlink:title=" ">
<polygon fill="white" stroke="#666666" points="305,-85.5 148,-85.5 148,-52 305,-52 305,-85.5"/>
<text text-anchor="start" x="156" y="-72" font-family="Helvetica,sans-Serif" font-size="10.00">di::meta::detail::CountHelper</text>
<text text-anchor="middle" x="226.5" y="-59.25" font-family="Helvetica,sans-Serif" font-size="10.00">&lt; T, List&lt;&gt; &gt;</text>
</a>
</g>
</g>
<!-- Node0&#45;&gt;Node1 -->
<g id="edge373_Node000000_Node000001" class="edge">
<title>Node0&#45;&gt;Node1</title>
<g id="a_edge373_Node000000_Node000001"><a xlink:title=" ">
<path fill="none" stroke="#63b8ff" d="M123.55,-53.02C131.44,-54.24 139.55,-55.49 147.58,-56.73"/>
<polygon fill="#63b8ff" stroke="#63b8ff" points="124.09,-49.56 113.67,-51.49 123.02,-56.48 124.09,-49.56"/>
</a>
</g>
</g>
<!-- Node2 -->
<g id="Node000002" class="node">
<title>Node2</title>
<g id="a_Node000002"><a xlink:href="structdi_1_1meta_1_1detail_1_1LookupHelper.html" target="_top" xlink:title=" ">
<polygon fill="white" stroke="#666666" points="296,-33.5 157,-33.5 157,0 296,0 296,-33.5"/>
<text text-anchor="start" x="165" y="-20" font-family="Helvetica,sans-Serif" font-size="10.00">di::meta::detail::Lookup</text>
<text text-anchor="middle" x="226.5" y="-7.25" font-family="Helvetica,sans-Serif" font-size="10.00">Helper&lt; Needle, Types &gt;</text>
</a>
</g>
</g>
<!-- Node0&#45;&gt;Node2 -->
<g id="edge374_Node000000_Node000002" class="edge">
<title>Node0&#45;&gt;Node2</title>
<g id="a_edge374_Node000000_Node000002"><a xlink:title=" ">
<path fill="none" stroke="#63b8ff" d="M123.38,-32.51C134.31,-30.82 145.66,-29.07 156.65,-27.37"/>
<polygon fill="#63b8ff" stroke="#63b8ff" points="123.02,-29.02 113.67,-34.01 124.09,-35.94 123.02,-29.02"/>
</a>
</g>
</g>
</g>
</svg>
