<?xml version="1.0" encoding="UTF-8" standalone="no"?>
<!DOCTYPE svg PUBLIC "-//W3C//DTD SVG 1.1//EN"
 "http://www.w3.org/Graphics/SVG/1.1/DTD/svg11.dtd">
<!-- Generated by graphviz version 10.0.1 (0)
 -->
<!-- Title: Graphical Class Hierarchy Pages: 1 -->
<svg width="297pt" height="144pt"
 viewBox="0.00 0.00 296.50 144.00" xmlns="http://www.w3.org/2000/svg" xmlns:xlink="http://www.w3.org/1999/xlink">
<g id="graph0" class="graph" transform="scale(1 1) rotate(0) translate(4 140)">
<title>Graphical Class Hierarchy</title>
<!-- Node0 -->
<g id="Node000000" class="node">
<title>Node0</title>
<g id="a_Node000000"><a xlink:title=" ">
<polygon fill="#e0e0e0" stroke="#999999" points="87.25,-77.88 0,-77.88 0,-57.12 87.25,-57.12 87.25,-77.88"/>
<text text-anchor="middle" x="43.62" y="-64.38" font-family="Helvetica,sans-Serif" font-size="10.00">ClientOrServer</text>
</a>
</g>
</g>
<!-- Node1 -->
<g id="Node000001" class="node">
<title>Node1</title>
<g id="a_Node000001"><a xlink:href="structdi_1_1execution_1_1ipc__binary__ns_1_1ConnectionTokenT_1_1Type.html" target="_top" xlink:title=" ">
<polygon fill="white" stroke="#666666" points="284.38,-136 127.38,-136 127.38,-77 284.38,-77 284.38,-136"/>
<text text-anchor="start" x="135.38" y="-122.5" font-family="Helvetica,sans-Serif" font-size="10.00">di::execution::ipc</text>
<text text-anchor="start" x="135.38" y="-109.75" font-family="Helvetica,sans-Serif" font-size="10.00">_binary_ns::ConnectionToken</text>
<text text-anchor="start" x="135.38" y="-97" font-family="Helvetica,sans-Serif" font-size="10.00">T&lt; Proto, Read, Write, Alloc,</text>
<text text-anchor="middle" x="205.88" y="-84.25" font-family="Helvetica,sans-Serif" font-size="10.00"> ClientOrServer &gt;::Type</text>
</a>
</g>
</g>
<!-- Node0&#45;&gt;Node1 -->
<g id="edge4_Node000000_Node000001" class="edge">
<title>Node0&#45;&gt;Node1</title>
<g id="a_edge4_Node000000_Node000001"><a xlink:title=" ">
<path fill="none" stroke="#63b8ff" d="M98.52,-80.62C107.73,-82.86 117.47,-85.23 127.16,-87.59"/>
<polygon fill="#63b8ff" stroke="#63b8ff" points="99.58,-77.27 89.04,-78.31 97.93,-84.07 99.58,-77.27"/>
</a>
</g>
</g>
<!-- Node2 -->
<g id="Node000002" class="node">
<title>Node2</title>
<g id="a_Node000002"><a xlink:href="structdi_1_1execution_1_1ipc__binary__ns_1_1MessageAtIndexHelper.html" target="_top" xlink:title=" ">
<polygon fill="white" stroke="#666666" points="288.5,-59 123.25,-59 123.25,0 288.5,0 288.5,-59"/>
<text text-anchor="start" x="131.25" y="-45.5" font-family="Helvetica,sans-Serif" font-size="10.00">di::execution::ipc</text>
<text text-anchor="start" x="131.25" y="-32.75" font-family="Helvetica,sans-Serif" font-size="10.00">_binary_ns::MessageAtIndex</text>
<text text-anchor="start" x="131.25" y="-20" font-family="Helvetica,sans-Serif" font-size="10.00">Helper&lt; Proto, ClientOrServer,</text>
<text text-anchor="middle" x="205.88" y="-7.25" font-family="Helvetica,sans-Serif" font-size="10.00"> message_index &gt;</text>
</a>
</g>
</g>
<!-- Node0&#45;&gt;Node2 -->
<g id="edge5_Node000000_Node000002" class="edge">
<title>Node0&#45;&gt;Node2</title>
<g id="a_edge5_Node000000_Node000002"><a xlink:title=" ">
<path fill="none" stroke="#63b8ff" d="M98.68,-54.68C106.47,-52.83 114.64,-50.9 122.82,-48.96"/>
<polygon fill="#63b8ff" stroke="#63b8ff" points="97.96,-51.25 89.04,-56.97 99.58,-58.07 97.96,-51.25"/>
</a>
</g>
</g>
</g>
</svg>
