<?xml version="1.0" encoding="UTF-8" standalone="no"?>
<!DOCTYPE svg PUBLIC "-//W3C//DTD SVG 1.1//EN"
 "http://www.w3.org/Graphics/SVG/1.1/DTD/svg11.dtd">
<!-- Generated by graphviz version 10.0.1 (0)
 -->
<!-- Title: Graphical Class Hierarchy Pages: 1 -->
<svg width="341pt" height="68pt"
 viewBox="0.00 0.00 340.75 67.75" xmlns="http://www.w3.org/2000/svg" xmlns:xlink="http://www.w3.org/1999/xlink">
<g id="graph0" class="graph" transform="scale(1 1) rotate(0) translate(4 63.75)">
<title>Graphical Class Hierarchy</title>
<!-- Node0 -->
<g id="Node000000" class="node">
<title>Node0</title>
<g id="a_Node000000"><a xlink:title=" ">
<polygon fill="#e0e0e0" stroke="#999999" points="135.25,-39.75 0,-39.75 0,-19 135.25,-19 135.25,-39.75"/>
<text text-anchor="middle" x="67.62" y="-26.25" font-family="Helvetica,sans-Serif" font-size="10.00">di::IntrusiveTreeSetNode</text>
</a>
</g>
</g>
<!-- Node1 -->
<g id="Node000001" class="node">
<title>Node1</title>
<g id="a_Node000001"><a xlink:href="structiris_1_1mm_1_1BackedPhysicalPage.html" target="_top" xlink:title="A physical page of memory tracked by a backing object.">
<polygon fill="white" stroke="#666666" points="332.75,-59.75 171.25,-59.75 171.25,-39 332.75,-39 332.75,-59.75"/>
<text text-anchor="middle" x="252" y="-46.25" font-family="Helvetica,sans-Serif" font-size="10.00">iris::mm::BackedPhysicalPage</text>
</a>
</g>
</g>
<!-- Node0&#45;&gt;Node1 -->
<g id="edge371_Node000000_Node000001" class="edge">
<title>Node0&#45;&gt;Node1</title>
<g id="a_edge371_Node000000_Node000001"><a xlink:title=" ">
<path fill="none" stroke="#63b8ff" d="M146.68,-37.94C154.68,-38.81 162.81,-39.7 170.82,-40.58"/>
<polygon fill="#63b8ff" stroke="#63b8ff" points="147.33,-34.48 137,-36.87 146.56,-41.44 147.33,-34.48"/>
</a>
</g>
</g>
<!-- Node2 -->
<g id="Node000002" class="node">
<title>Node2</title>
<g id="a_Node000002"><a xlink:href="classiris_1_1mm_1_1Region.html" target="_top" xlink:title=" ">
<polygon fill="white" stroke="#666666" points="300.12,-20.75 203.88,-20.75 203.88,0 300.12,0 300.12,-20.75"/>
<text text-anchor="middle" x="252" y="-7.25" font-family="Helvetica,sans-Serif" font-size="10.00">iris::mm::Region</text>
</a>
</g>
</g>
<!-- Node0&#45;&gt;Node2 -->
<g id="edge372_Node000000_Node000002" class="edge">
<title>Node0&#45;&gt;Node2</title>
<g id="a_edge372_Node000000_Node000002"><a xlink:title=" ">
<path fill="none" stroke="#63b8ff" d="M146.75,-21.24C166.07,-19.22 186.18,-17.13 203.53,-15.32"/>
<polygon fill="#63b8ff" stroke="#63b8ff" points="146.59,-17.73 137,-22.25 147.31,-24.7 146.59,-17.73"/>
</a>
</g>
</g>
</g>
</svg>
