<?xml version="1.0" encoding="UTF-8" standalone="no"?>
<!DOCTYPE svg PUBLIC "-//W3C//DTD SVG 1.1//EN"
 "http://www.w3.org/Graphics/SVG/1.1/DTD/svg11.dtd">
<!-- Generated by graphviz version 10.0.1 (0)
 -->
<!-- Title: Graphical Class Hierarchy Pages: 1 -->
<svg width="413pt" height="170pt"
 viewBox="0.00 0.00 412.75 170.25" xmlns="http://www.w3.org/2000/svg" xmlns:xlink="http://www.w3.org/1999/xlink">
<g id="graph0" class="graph" transform="scale(1 1) rotate(0) translate(4 166.25)">
<title>Graphical Class Hierarchy</title>
<!-- Node0 -->
<g id="Node000000" class="node">
<title>Node0</title>
<g id="a_Node000000"><a xlink:href="classdi_1_1meta_1_1EnableBorrowedContainer.html" target="_top" xlink:title=" ">
<polygon fill="white" stroke="#666666" points="195.62,-162.25 28.88,-162.25 28.88,-128.75 195.62,-128.75 195.62,-162.25"/>
<text text-anchor="start" x="36.88" y="-148.75" font-family="Helvetica,sans-Serif" font-size="10.00">di::meta::EnableBorrowed</text>
<text text-anchor="middle" x="112.25" y="-136" font-family="Helvetica,sans-Serif" font-size="10.00">Container&lt; DirectoryIterator &gt;</text>
</a>
</g>
</g>
<!-- Node1 -->
<g id="Node000001" class="node">
<title>Node1</title>
<g id="a_Node000001"><a xlink:href="classdius_1_1filesystem_1_1DirectoryIterator.html" target="_top" xlink:title=" ">
<polygon fill="white" stroke="#666666" points="404.75,-110.25 260.5,-110.25 260.5,-76.75 404.75,-76.75 404.75,-110.25"/>
<text text-anchor="start" x="268.5" y="-96.75" font-family="Helvetica,sans-Serif" font-size="10.00">dius::filesystem::Directory</text>
<text text-anchor="middle" x="332.62" y="-84" font-family="Helvetica,sans-Serif" font-size="10.00">Iterator</text>
</a>
</g>
</g>
<!-- Node0&#45;&gt;Node1 -->
<g id="edge465_Node000000_Node000001" class="edge">
<title>Node0&#45;&gt;Node1</title>
<g id="a_edge465_Node000000_Node000001"><a xlink:title=" ">
<path fill="none" stroke="#63b8ff" d="M198.34,-125.69C207.17,-123.61 216.02,-121.52 224.5,-119.5 236.32,-116.68 248.87,-113.67 261.06,-110.72"/>
<polygon fill="#63b8ff" stroke="#63b8ff" points="197.58,-122.27 188.65,-127.97 199.18,-129.09 197.58,-122.27"/>
</a>
</g>
</g>
<!-- Node2 -->
<g id="Node000002" class="node">
<title>Node2</title>
<g id="a_Node000002"><a xlink:href="classdi_1_1meta_1_1EnableView.html" target="_top" xlink:title=" ">
<polygon fill="white" stroke="#666666" points="172,-110.25 52.5,-110.25 52.5,-76.75 172,-76.75 172,-110.25"/>
<text text-anchor="start" x="60.5" y="-96.75" font-family="Helvetica,sans-Serif" font-size="10.00">di::meta::EnableView</text>
<text text-anchor="middle" x="112.25" y="-84" font-family="Helvetica,sans-Serif" font-size="10.00">&lt; DirectoryIterator &gt;</text>
</a>
</g>
</g>
<!-- Node2&#45;&gt;Node1 -->
<g id="edge466_Node000002_Node000001" class="edge">
<title>Node2&#45;&gt;Node1</title>
<g id="a_edge466_Node000002_Node000001"><a xlink:title=" ">
<path fill="none" stroke="#63b8ff" d="M183.7,-93.5C208.13,-93.5 235.52,-93.5 260.03,-93.5"/>
<polygon fill="#63b8ff" stroke="#63b8ff" points="183.86,-90 173.86,-93.5 183.86,-97 183.86,-90"/>
</a>
</g>
</g>
<!-- Node3 -->
<g id="Node000003" class="node">
<title>Node3</title>
<g id="a_Node000003"><a xlink:href="structdi_1_1container_1_1IteratorBase.html" target="_top" xlink:title=" ">
<polygon fill="white" stroke="#666666" points="224.5,-59 0,-59 0,0 224.5,0 224.5,-59"/>
<text text-anchor="start" x="8" y="-45.5" font-family="Helvetica,sans-Serif" font-size="10.00">di::container::IteratorBase</text>
<text text-anchor="start" x="8" y="-32.75" font-family="Helvetica,sans-Serif" font-size="10.00">&lt; DirectoryIterator, di</text>
<text text-anchor="start" x="8" y="-20" font-family="Helvetica,sans-Serif" font-size="10.00">::InputIteratorTag, di::Expected</text>
<text text-anchor="middle" x="112.25" y="-7.25" font-family="Helvetica,sans-Serif" font-size="10.00">&lt; DirectoryEntry, di::GenericCode &gt;, i64 &gt;</text>
</a>
</g>
</g>
<!-- Node3&#45;&gt;Node1 -->
<g id="edge467_Node000003_Node000001" class="edge">
<title>Node3&#45;&gt;Node1</title>
<g id="a_edge467_Node000003_Node000001"><a xlink:title=" ">
<path fill="none" stroke="#63b8ff" d="M226.07,-62.56C242.3,-67.32 258.42,-72.05 273,-76.32"/>
<polygon fill="#63b8ff" stroke="#63b8ff" points="227.44,-59.32 216.86,-59.86 225.47,-66.04 227.44,-59.32"/>
</a>
</g>
</g>
</g>
</svg>
