<?xml version="1.0" encoding="UTF-8" standalone="no"?>
<!DOCTYPE svg PUBLIC "-//W3C//DTD SVG 1.1//EN"
 "http://www.w3.org/Graphics/SVG/1.1/DTD/svg11.dtd">
<!-- Generated by graphviz version 12.2.1 (0)
 -->
<!-- Title: Graphical Class Hierarchy Pages: 1 -->
<svg width="329pt" height="1156pt"
 viewBox="0.00 0.00 328.75 1156.25" xmlns="http://www.w3.org/2000/svg" xmlns:xlink="http://www.w3.org/1999/xlink">
<g id="graph0" class="graph" transform="scale(1 1) rotate(0) translate(4 1152.25)">
<title>Graphical Class Hierarchy</title>
<!-- Node0 -->
<g id="Node000000" class="node">
<title>Node0</title>
<g id="a_Node000000"><a xlink:title=" ">
<polygon fill="#e0e0e0" stroke="#999999" points="97,-577.5 0,-577.5 0,-556.75 97,-556.75 97,-577.5"/>
<text text-anchor="middle" x="48.5" y="-564" font-family="Helvetica,sans-Serif" font-size="10.00">ReceiverAdaptor</text>
</a>
</g>
</g>
<!-- Node1 -->
<g id="Node000001" class="node">
<title>Node1</title>
<g id="a_Node000001"><a xlink:href="structdi_1_1execution_1_1bulk__ns_1_1ReceiverT_1_1Type.html" target="_top" xlink:title=" ">
<polygon fill="white" stroke="#666666" points="292.62,-1148.25 161.12,-1148.25 161.12,-1102 292.62,-1102 292.62,-1148.25"/>
<text text-anchor="start" x="169.12" y="-1134.75" font-family="Helvetica,sans-Serif" font-size="10.00">di::execution::bulk</text>
<text text-anchor="start" x="169.12" y="-1122" font-family="Helvetica,sans-Serif" font-size="10.00">_ns::ReceiverT&lt; Shape,</text>
<text text-anchor="middle" x="226.88" y="-1109.25" font-family="Helvetica,sans-Serif" font-size="10.00"> Function, Rec &gt;::Type</text>
</a>
</g>
</g>
<!-- Node0&#45;&gt;Node1 -->
<g id="edge1171_Node000000_Node000001" class="edge">
<title>Node0&#45;&gt;Node1</title>
<g id="a_edge1171_Node000000_Node000001"><a xlink:title=" ">
<path fill="none" stroke="#63b8ff" d="M50.07,-589.39C52.8,-679.34 67.28,-1014.82 133,-1093.12 140.35,-1101.88 150.21,-1108.24 160.77,-1112.87"/>
<polygon fill="#63b8ff" stroke="#63b8ff" points="53.57,-589.37 49.79,-579.47 46.57,-589.57 53.57,-589.37"/>
</a>
</g>
</g>
<!-- Node2 -->
<g id="Node000002" class="node">
<title>Node2</title>
<g id="a_Node000002"><a xlink:href="structdi_1_1execution_1_1counting__scope__ns_1_1NestReceiverT_1_1Type.html" target="_top" xlink:title=" ">
<polygon fill="white" stroke="#666666" points="298.62,-1084.25 155.12,-1084.25 155.12,-1038 298.62,-1038 298.62,-1084.25"/>
<text text-anchor="start" x="163.12" y="-1070.75" font-family="Helvetica,sans-Serif" font-size="10.00">di::execution::counting</text>
<text text-anchor="start" x="163.12" y="-1058" font-family="Helvetica,sans-Serif" font-size="10.00">_scope_ns::NestReceiverT</text>
<text text-anchor="middle" x="226.88" y="-1045.25" font-family="Helvetica,sans-Serif" font-size="10.00">&lt; Alloc, Rec &gt;::Type</text>
</a>
</g>
</g>
<!-- Node0&#45;&gt;Node2 -->
<g id="edge1172_Node000000_Node000002" class="edge">
<title>Node0&#45;&gt;Node2</title>
<g id="a_edge1172_Node000000_Node000002"><a xlink:title=" ">
<path fill="none" stroke="#63b8ff" d="M50.6,-589.27C55.13,-671.98 74.95,-961.44 133,-1029.12 139,-1036.12 146.59,-1041.58 154.85,-1045.85"/>
<polygon fill="#63b8ff" stroke="#63b8ff" points="54.1,-589.16 50.08,-579.35 47.11,-589.52 54.1,-589.16"/>
</a>
</g>
</g>
<!-- Node3 -->
<g id="Node000003" class="node">
<title>Node3</title>
<g id="a_Node000003"><a xlink:href="structdi_1_1execution_1_1filter__ns_1_1FinalReceiverT_1_1Type.html" target="_top" xlink:title=" ">
<polygon fill="white" stroke="#666666" points="298.25,-1020.25 155.5,-1020.25 155.5,-974 298.25,-974 298.25,-1020.25"/>
<text text-anchor="start" x="163.5" y="-1006.75" font-family="Helvetica,sans-Serif" font-size="10.00">di::execution::filter</text>
<text text-anchor="start" x="163.5" y="-994" font-family="Helvetica,sans-Serif" font-size="10.00">_ns::FinalReceiverT&lt;</text>
<text text-anchor="middle" x="226.88" y="-981.25" font-family="Helvetica,sans-Serif" font-size="10.00"> Send, Fun, Rec, R &gt;::Type</text>
</a>
</g>
</g>
<!-- Node0&#45;&gt;Node3 -->
<g id="edge1173_Node000000_Node000003" class="edge">
<title>Node0&#45;&gt;Node3</title>
<g id="a_edge1173_Node000000_Node000003"><a xlink:title=" ">
<path fill="none" stroke="#63b8ff" d="M51.28,-589.05C57.79,-663.91 82.56,-907.94 133,-965.12 139.09,-972.03 146.75,-977.45 155.03,-981.7"/>
<polygon fill="#63b8ff" stroke="#63b8ff" points="54.79,-589 50.46,-579.33 47.82,-589.59 54.79,-589"/>
</a>
</g>
</g>
<!-- Node4 -->
<g id="Node000004" class="node">
<title>Node4</title>
<g id="a_Node000004"><a xlink:href="structdi_1_1execution_1_1filter__ns_1_1IntermediateReceiverT_1_1Type.html" target="_top" xlink:title=" ">
<polygon fill="white" stroke="#666666" points="302.38,-956.25 151.38,-956.25 151.38,-910 302.38,-910 302.38,-956.25"/>
<text text-anchor="start" x="159.38" y="-942.75" font-family="Helvetica,sans-Serif" font-size="10.00">di::execution::filter</text>
<text text-anchor="start" x="159.38" y="-930" font-family="Helvetica,sans-Serif" font-size="10.00">_ns::IntermediateReceiverT</text>
<text text-anchor="middle" x="226.88" y="-917.25" font-family="Helvetica,sans-Serif" font-size="10.00">&lt; Send, Fun, Rec, R &gt;::Type</text>
</a>
</g>
</g>
<!-- Node0&#45;&gt;Node4 -->
<g id="edge1174_Node000000_Node000004" class="edge">
<title>Node0&#45;&gt;Node4</title>
<g id="a_edge1174_Node000000_Node000004"><a xlink:title=" ">
<path fill="none" stroke="#63b8ff" d="M52.22,-588.9C60.93,-655.42 90.12,-854.35 133,-901.12 138.19,-906.78 144.42,-911.44 151.17,-915.27"/>
<polygon fill="#63b8ff" stroke="#63b8ff" points="55.73,-588.73 50.98,-579.26 48.78,-589.62 55.73,-588.73"/>
</a>
</g>
</g>
<!-- Node5 -->
<g id="Node000005" class="node">
<title>Node5</title>
<g id="a_Node000005"><a xlink:href="structdi_1_1execution_1_1filter__ns_1_1ItemReceiverT_1_1Type.html" target="_top" xlink:title=" ">
<polygon fill="white" stroke="#666666" points="300.88,-892.25 152.88,-892.25 152.88,-846 300.88,-846 300.88,-892.25"/>
<text text-anchor="start" x="160.88" y="-878.75" font-family="Helvetica,sans-Serif" font-size="10.00">di::execution::filter</text>
<text text-anchor="start" x="160.88" y="-866" font-family="Helvetica,sans-Serif" font-size="10.00">_ns::ItemReceiverT&lt; Send,</text>
<text text-anchor="middle" x="226.88" y="-853.25" font-family="Helvetica,sans-Serif" font-size="10.00"> Fun, Rec, R &gt;::Type</text>
</a>
</g>
</g>
<!-- Node0&#45;&gt;Node5 -->
<g id="edge1175_Node000000_Node000005" class="edge">
<title>Node0&#45;&gt;Node5</title>
<g id="a_edge1175_Node000000_Node000005"><a xlink:title=" ">
<path fill="none" stroke="#63b8ff" d="M49.9,-589.35C52.04,-640.24 64.38,-766.29 133,-837.12 138.58,-842.88 145.24,-847.6 152.39,-851.48"/>
<polygon fill="#63b8ff" stroke="#63b8ff" points="53.4,-589.25 49.6,-579.36 46.41,-589.47 53.4,-589.25"/>
</a>
</g>
</g>
<!-- Node6 -->
<g id="Node000006" class="node">
<title>Node6</title>
<g id="a_Node000006"><a xlink:href="structdi_1_1execution_1_1filter__ns_1_1ReceiverT_1_1Type.html" target="_top" xlink:title=" ">
<polygon fill="white" stroke="#666666" points="286.25,-828.25 167.5,-828.25 167.5,-782 286.25,-782 286.25,-828.25"/>
<text text-anchor="start" x="175.5" y="-814.75" font-family="Helvetica,sans-Serif" font-size="10.00">di::execution::filter</text>
<text text-anchor="start" x="175.5" y="-802" font-family="Helvetica,sans-Serif" font-size="10.00">_ns::ReceiverT&lt; Fun,</text>
<text text-anchor="middle" x="226.88" y="-789.25" font-family="Helvetica,sans-Serif" font-size="10.00"> Rec &gt;::Type</text>
</a>
</g>
</g>
<!-- Node0&#45;&gt;Node6 -->
<g id="edge1176_Node000000_Node000006" class="edge">
<title>Node0&#45;&gt;Node6</title>
<g id="a_edge1176_Node000000_Node000006"><a xlink:title=" ">
<path fill="none" stroke="#63b8ff" d="M52.36,-589.08C58.93,-630.79 78.94,-721.87 133,-773.12 142.53,-782.16 154.73,-788.65 167.13,-793.32"/>
<polygon fill="#63b8ff" stroke="#63b8ff" points="55.84,-588.71 50.94,-579.32 48.91,-589.72 55.84,-588.71"/>
</a>
</g>
</g>
<!-- Node7 -->
<g id="Node000007" class="node">
<title>Node7</title>
<g id="a_Node000007"><a xlink:href="structdi_1_1execution_1_1first__value__ns_1_1NextReceiverT_1_1Type.html" target="_top" xlink:title=" ">
<polygon fill="white" stroke="#666666" points="302.38,-764.25 151.38,-764.25 151.38,-718 302.38,-718 302.38,-764.25"/>
<text text-anchor="start" x="159.38" y="-750.75" font-family="Helvetica,sans-Serif" font-size="10.00">di::execution::first</text>
<text text-anchor="start" x="159.38" y="-738" font-family="Helvetica,sans-Serif" font-size="10.00">_value_ns::NextReceiverT</text>
<text text-anchor="middle" x="226.88" y="-725.25" font-family="Helvetica,sans-Serif" font-size="10.00">&lt; Seq, Rec, Next, R &gt;::Type</text>
</a>
</g>
</g>
<!-- Node0&#45;&gt;Node7 -->
<g id="edge1177_Node000000_Node000007" class="edge">
<title>Node0&#45;&gt;Node7</title>
<g id="a_edge1177_Node000000_Node000007"><a xlink:title=" ">
<path fill="none" stroke="#63b8ff" d="M56.65,-588.57C68.03,-619.51 93.13,-676.52 133,-709.12 138.54,-713.66 144.77,-717.57 151.3,-720.93"/>
<polygon fill="#63b8ff" stroke="#63b8ff" points="59.97,-587.45 53.35,-579.18 53.37,-589.77 59.97,-587.45"/>
</a>
</g>
</g>
<!-- Node8 -->
<g id="Node000008" class="node">
<title>Node8</title>
<g id="a_Node000008"><a xlink:href="structdi_1_1execution_1_1ignore__all__ns_1_1NextReceiverT_1_1Type.html" target="_top" xlink:title=" ">
<polygon fill="white" stroke="#666666" points="299.75,-699.62 154,-699.62 154,-640.62 299.75,-640.62 299.75,-699.62"/>
<text text-anchor="start" x="162" y="-686.12" font-family="Helvetica,sans-Serif" font-size="10.00">di::execution::ignore</text>
<text text-anchor="start" x="162" y="-673.38" font-family="Helvetica,sans-Serif" font-size="10.00">_all_ns::NextReceiverT</text>
<text text-anchor="start" x="162" y="-660.62" font-family="Helvetica,sans-Serif" font-size="10.00">&lt; Seq, Rec, Next, NextRec</text>
<text text-anchor="middle" x="226.88" y="-647.88" font-family="Helvetica,sans-Serif" font-size="10.00"> &gt;::Type</text>
</a>
</g>
</g>
<!-- Node0&#45;&gt;Node8 -->
<g id="edge1178_Node000000_Node000008" class="edge">
<title>Node0&#45;&gt;Node8</title>
<g id="a_edge1178_Node000000_Node000008"><a xlink:title=" ">
<path fill="none" stroke="#63b8ff" d="M70.19,-585.4C86.47,-599.17 110.15,-617.87 133,-631.12 139.66,-634.99 146.77,-638.67 153.98,-642.13"/>
<polygon fill="#63b8ff" stroke="#63b8ff" points="72.53,-582.8 62.67,-578.93 67.97,-588.11 72.53,-582.8"/>
</a>
</g>
</g>
<!-- Node9 -->
<g id="Node000009" class="node">
<title>Node9</title>
<g id="a_Node000009"><a xlink:href="structdi_1_1execution_1_1ignore__all__ns_1_1ReceiverT_1_1Type.html" target="_top" xlink:title=" ">
<polygon fill="white" stroke="#666666" points="295.25,-622.25 158.5,-622.25 158.5,-576 295.25,-576 295.25,-622.25"/>
<text text-anchor="start" x="166.5" y="-608.75" font-family="Helvetica,sans-Serif" font-size="10.00">di::execution::ignore</text>
<text text-anchor="start" x="166.5" y="-596" font-family="Helvetica,sans-Serif" font-size="10.00">_all_ns::ReceiverT&lt; Seq,</text>
<text text-anchor="middle" x="226.88" y="-583.25" font-family="Helvetica,sans-Serif" font-size="10.00"> Rec &gt;::Type</text>
</a>
</g>
</g>
<!-- Node0&#45;&gt;Node9 -->
<g id="edge1179_Node000000_Node000009" class="edge">
<title>Node0&#45;&gt;Node9</title>
<g id="a_edge1179_Node000000_Node000009"><a xlink:title=" ">
<path fill="none" stroke="#63b8ff" d="M108.55,-577.84C124.49,-580.73 141.87,-583.88 158.24,-586.85"/>
<polygon fill="#63b8ff" stroke="#63b8ff" points="109.18,-574.4 98.72,-576.05 107.93,-581.28 109.18,-574.4"/>
</a>
</g>
</g>
<!-- Node10 -->
<g id="Node000010" class="node">
<title>Node10</title>
<g id="a_Node000010"><a xlink:href="structdi_1_1execution_1_1into__result__ns_1_1ReceiverT_1_1Type.html" target="_top" xlink:title=" ">
<polygon fill="white" stroke="#666666" points="287.75,-558.25 166,-558.25 166,-512 287.75,-512 287.75,-558.25"/>
<text text-anchor="start" x="174" y="-544.75" font-family="Helvetica,sans-Serif" font-size="10.00">di::execution::into</text>
<text text-anchor="start" x="174" y="-532" font-family="Helvetica,sans-Serif" font-size="10.00">_result_ns::ReceiverT</text>
<text text-anchor="middle" x="226.88" y="-519.25" font-family="Helvetica,sans-Serif" font-size="10.00">&lt; Result, Rec &gt;::Type</text>
</a>
</g>
</g>
<!-- Node0&#45;&gt;Node10 -->
<g id="edge1180_Node000000_Node000010" class="edge">
<title>Node0&#45;&gt;Node10</title>
<g id="a_edge1180_Node000000_Node000010"><a xlink:title=" ">
<path fill="none" stroke="#63b8ff" d="M108.44,-556.43C126.89,-553.08 147.26,-549.39 165.79,-546.03"/>
<polygon fill="#63b8ff" stroke="#63b8ff" points="107.93,-552.97 98.72,-558.2 109.18,-559.85 107.93,-552.97"/>
</a>
</g>
</g>
<!-- Node11 -->
<g id="Node000011" class="node">
<title>Node11</title>
<g id="a_Node000011"><a xlink:href="structdi_1_1execution_1_1into__variant__ns_1_1ReceiverT_1_1Type.html" target="_top" xlink:title=" ">
<polygon fill="white" stroke="#666666" points="290.38,-494.25 163.38,-494.25 163.38,-448 290.38,-448 290.38,-494.25"/>
<text text-anchor="start" x="171.38" y="-480.75" font-family="Helvetica,sans-Serif" font-size="10.00">di::execution::into</text>
<text text-anchor="start" x="171.38" y="-468" font-family="Helvetica,sans-Serif" font-size="10.00">_variant_ns::ReceiverT</text>
<text text-anchor="middle" x="226.88" y="-455.25" font-family="Helvetica,sans-Serif" font-size="10.00">&lt; Value, Rec &gt;::Type</text>
</a>
</g>
</g>
<!-- Node0&#45;&gt;Node11 -->
<g id="edge1181_Node000000_Node000011" class="edge">
<title>Node0&#45;&gt;Node11</title>
<g id="a_edge1181_Node000000_Node000011"><a xlink:title=" ">
<path fill="none" stroke="#63b8ff" d="M69.67,-548.66C85.83,-534.64 109.6,-515.7 133,-503.12 142.47,-498.04 152.9,-493.52 163.25,-489.6"/>
<polygon fill="#63b8ff" stroke="#63b8ff" points="67.39,-546.01 62.23,-555.26 72.03,-551.24 67.39,-546.01"/>
</a>
</g>
</g>
<!-- Node12 -->
<g id="Node000012" class="node">
<title>Node12</title>
<g id="a_Node000012"><a xlink:href="structdi_1_1execution_1_1on__ns_1_1ReceiverT_1_1Type.html" target="_top" xlink:title=" ">
<polygon fill="white" stroke="#666666" points="293.38,-430.25 160.38,-430.25 160.38,-384 293.38,-384 293.38,-430.25"/>
<text text-anchor="start" x="168.38" y="-416.75" font-family="Helvetica,sans-Serif" font-size="10.00">di::execution::on_ns</text>
<text text-anchor="start" x="168.38" y="-404" font-family="Helvetica,sans-Serif" font-size="10.00">::ReceiverT&lt; Send, Rec,</text>
<text text-anchor="middle" x="226.88" y="-391.25" font-family="Helvetica,sans-Serif" font-size="10.00"> Sched &gt;::Type</text>
</a>
</g>
</g>
<!-- Node0&#45;&gt;Node12 -->
<g id="edge1182_Node000000_Node000012" class="edge">
<title>Node0&#45;&gt;Node12</title>
<g id="a_edge1182_Node000000_Node000012"><a xlink:title=" ">
<path fill="none" stroke="#63b8ff" d="M57.94,-546.17C70.33,-517.95 96.04,-467.95 133,-439.12 141.07,-432.83 150.46,-427.73 160.1,-423.61"/>
<polygon fill="#63b8ff" stroke="#63b8ff" points="54.84,-544.51 54.17,-555.09 61.29,-547.24 54.84,-544.51"/>
</a>
</g>
</g>
<!-- Node13 -->
<g id="Node000013" class="node">
<title>Node13</title>
<g id="a_Node000013"><a xlink:href="structdi_1_1execution_1_1on__ns_1_1ReceiverWithEnvT_1_1Type.html" target="_top" xlink:title=" ">
<polygon fill="white" stroke="#666666" points="301.62,-366.25 152.12,-366.25 152.12,-320 301.62,-320 301.62,-366.25"/>
<text text-anchor="start" x="160.12" y="-352.75" font-family="Helvetica,sans-Serif" font-size="10.00">di::execution::on_ns</text>
<text text-anchor="start" x="160.12" y="-340" font-family="Helvetica,sans-Serif" font-size="10.00">::ReceiverWithEnvT&lt; Send,</text>
<text text-anchor="middle" x="226.88" y="-327.25" font-family="Helvetica,sans-Serif" font-size="10.00"> Rec, Sched &gt;::Type</text>
</a>
</g>
</g>
<!-- Node0&#45;&gt;Node13 -->
<g id="edge1183_Node000000_Node000013" class="edge">
<title>Node0&#45;&gt;Node13</title>
<g id="a_edge1183_Node000000_Node000013"><a xlink:title=" ">
<path fill="none" stroke="#63b8ff" d="M53.02,-545.58C60.57,-506.2 81.94,-422.33 133,-375.12 138.64,-369.92 145.16,-365.55 152.08,-361.89"/>
<polygon fill="#63b8ff" stroke="#63b8ff" points="49.61,-544.75 51.3,-555.21 56.51,-545.98 49.61,-544.75"/>
</a>
</g>
</g>
<!-- Node14 -->
<g id="Node000014" class="node">
<title>Node14</title>
<g id="a_Node000014"><a xlink:href="structdi_1_1execution_1_1repeat__effect__until__ns_1_1ReceiverT_1_1Type.html" target="_top" xlink:title=" ">
<polygon fill="white" stroke="#666666" points="300.5,-302.25 153.25,-302.25 153.25,-256 300.5,-256 300.5,-302.25"/>
<text text-anchor="start" x="161.25" y="-288.75" font-family="Helvetica,sans-Serif" font-size="10.00">di::execution::repeat</text>
<text text-anchor="start" x="161.25" y="-276" font-family="Helvetica,sans-Serif" font-size="10.00">_effect_until_ns::ReceiverT</text>
<text text-anchor="middle" x="226.88" y="-263.25" font-family="Helvetica,sans-Serif" font-size="10.00">&lt; Send, Rec, Pred &gt;::Type</text>
</a>
</g>
</g>
<!-- Node0&#45;&gt;Node14 -->
<g id="edge1184_Node000000_Node000014" class="edge">
<title>Node0&#45;&gt;Node14</title>
<g id="a_edge1184_Node000000_Node000014"><a xlink:title=" ">
<path fill="none" stroke="#63b8ff" d="M50.34,-545.05C53.4,-496.13 67.55,-377.67 133,-311.12 138.74,-305.29 145.59,-300.52 152.94,-296.61"/>
<polygon fill="#63b8ff" stroke="#63b8ff" points="46.85,-544.74 49.84,-554.9 53.84,-545.1 46.85,-544.74"/>
</a>
</g>
</g>
<!-- Node15 -->
<g id="Node000015" class="node">
<title>Node15</title>
<g id="a_Node000015"><a xlink:href="structdi_1_1execution_1_1schedule__from__ns_1_1ReceiverT_1_1Type.html" target="_top" xlink:title=" ">
<polygon fill="white" stroke="#666666" points="304.62,-238.25 149.12,-238.25 149.12,-192 304.62,-192 304.62,-238.25"/>
<text text-anchor="start" x="157.12" y="-224.75" font-family="Helvetica,sans-Serif" font-size="10.00">di::execution::schedule</text>
<text text-anchor="start" x="157.12" y="-212" font-family="Helvetica,sans-Serif" font-size="10.00">_from_ns::ReceiverT&lt; Rec,</text>
<text text-anchor="middle" x="226.88" y="-199.25" font-family="Helvetica,sans-Serif" font-size="10.00"> Sched, Completions &gt;::Type</text>
</a>
</g>
</g>
<!-- Node0&#45;&gt;Node15 -->
<g id="edge1185_Node000000_Node000015" class="edge">
<title>Node0&#45;&gt;Node15</title>
<g id="a_edge1185_Node000000_Node000015"><a xlink:title=" ">
<path fill="none" stroke="#63b8ff" d="M48.61,-545.14C47.54,-488.12 52.66,-333.87 133,-247.12 137.64,-242.12 143.09,-237.9 148.99,-234.34"/>
<polygon fill="#63b8ff" stroke="#63b8ff" points="45.11,-544.93 48.89,-554.83 52.1,-544.73 45.11,-544.93"/>
</a>
</g>
</g>
<!-- Node16 -->
<g id="Node000016" class="node">
<title>Node16</title>
<g id="a_Node000016"><a xlink:href="structdi_1_1execution_1_1schedule__from__ns_1_1ScheduleReceiverT.html" target="_top" xlink:title=" ">
<polygon fill="white" stroke="#666666" points="320.75,-174.25 133,-174.25 133,-128 320.75,-128 320.75,-174.25"/>
<text text-anchor="start" x="141" y="-160.75" font-family="Helvetica,sans-Serif" font-size="10.00">di::execution::schedule</text>
<text text-anchor="start" x="141" y="-148" font-family="Helvetica,sans-Serif" font-size="10.00">_from_ns::ScheduleReceiverT</text>
<text text-anchor="middle" x="226.88" y="-135.25" font-family="Helvetica,sans-Serif" font-size="10.00">&lt; Rec, Sched, Completions &gt;::Type</text>
</a>
</g>
</g>
<!-- Node0&#45;&gt;Node16 -->
<g id="edge1186_Node000000_Node000016" class="edge">
<title>Node0&#45;&gt;Node16</title>
<g id="a_edge1186_Node000000_Node000016"><a xlink:title=" ">
<path fill="none" stroke="#63b8ff" d="M51.48,-545.04C58.48,-471.72 84.26,-237.97 133,-183.12 135.83,-179.94 139,-177.07 142.4,-174.48"/>
<polygon fill="#63b8ff" stroke="#63b8ff" points="48,-544.65 50.56,-554.93 54.97,-545.29 48,-544.65"/>
</a>
</g>
</g>
<!-- Node17 -->
<g id="Node000017" class="node">
<title>Node17</title>
<g id="a_Node000017"><a xlink:href="structdi_1_1execution_1_1transform__each__ns_1_1ReceiverT_1_1Type.html" target="_top" xlink:title=" ">
<polygon fill="white" stroke="#666666" points="300.5,-110.25 153.25,-110.25 153.25,-64 300.5,-64 300.5,-110.25"/>
<text text-anchor="start" x="161.25" y="-96.75" font-family="Helvetica,sans-Serif" font-size="10.00">di::execution::transform</text>
<text text-anchor="start" x="161.25" y="-84" font-family="Helvetica,sans-Serif" font-size="10.00">_each_ns::ReceiverT&lt; Fun,</text>
<text text-anchor="middle" x="226.88" y="-71.25" font-family="Helvetica,sans-Serif" font-size="10.00"> Rec &gt;::Type</text>
</a>
</g>
</g>
<!-- Node0&#45;&gt;Node17 -->
<g id="edge1187_Node000000_Node000017" class="edge">
<title>Node0&#45;&gt;Node17</title>
<g id="a_edge1187_Node000000_Node000017"><a xlink:title=" ">
<path fill="none" stroke="#63b8ff" d="M50.74,-544.87C55.71,-463.63 76.66,-184.46 133,-119.12 138.57,-112.67 145.51,-107.51 153.06,-103.4"/>
<polygon fill="#63b8ff" stroke="#63b8ff" points="47.25,-544.63 50.16,-554.82 54.24,-545.04 47.25,-544.63"/>
</a>
</g>
</g>
<!-- Node18 -->
<g id="Node000018" class="node">
<title>Node18</title>
<g id="a_Node000018"><a xlink:href="structdi_1_1execution_1_1with__env__ns_1_1ReceiverT_1_1Type.html" target="_top" xlink:title=" ">
<polygon fill="white" stroke="#666666" points="286.25,-46.25 167.5,-46.25 167.5,0 286.25,0 286.25,-46.25"/>
<text text-anchor="start" x="175.5" y="-32.75" font-family="Helvetica,sans-Serif" font-size="10.00">di::execution::with</text>
<text text-anchor="start" x="175.5" y="-20" font-family="Helvetica,sans-Serif" font-size="10.00">_env_ns::ReceiverT&lt;</text>
<text text-anchor="middle" x="226.88" y="-7.25" font-family="Helvetica,sans-Serif" font-size="10.00"> Rec, Env &gt;::Type</text>
</a>
</g>
</g>
<!-- Node0&#45;&gt;Node18 -->
<g id="edge1188_Node000000_Node000018" class="edge">
<title>Node0&#45;&gt;Node18</title>
<g id="a_edge1188_Node000000_Node000018"><a xlink:title=" ">
<path fill="none" stroke="#63b8ff" d="M50.16,-545.18C53.25,-457.2 68.89,-131.19 133,-55.12 141.79,-44.69 154.16,-37.66 167.01,-32.91"/>
<polygon fill="#63b8ff" stroke="#63b8ff" points="46.67,-544.95 49.84,-555.06 53.67,-545.18 46.67,-544.95"/>
</a>
</g>
</g>
</g>
</svg>
