<?xml version="1.0" encoding="UTF-8" standalone="no"?>
<!DOCTYPE svg PUBLIC "-//W3C//DTD SVG 1.1//EN"
 "http://www.w3.org/Graphics/SVG/1.1/DTD/svg11.dtd">
<!-- Generated by graphviz version 10.0.1 (0)
 -->
<!-- Title: Graphical Class Hierarchy Pages: 1 -->
<svg width="305pt" height="962pt"
 viewBox="0.00 0.00 304.75 961.75" xmlns="http://www.w3.org/2000/svg" xmlns:xlink="http://www.w3.org/1999/xlink">
<g id="graph0" class="graph" transform="scale(1 1) rotate(0) translate(4 957.75)">
<title>Graphical Class Hierarchy</title>
<!-- Node0 -->
<g id="Node000000" class="node">
<title>Node0</title>
<g id="a_Node000000"><a xlink:title=" ">
<polygon fill="#e0e0e0" stroke="#999999" points="83.5,-492.75 0,-492.75 0,-472 83.5,-472 83.5,-492.75"/>
<text text-anchor="middle" x="41.75" y="-479.25" font-family="Helvetica,sans-Serif" font-size="10.00">di::Dispatcher</text>
</a>
</g>
</g>
<!-- Node1 -->
<g id="Node000001" class="node">
<title>Node1</title>
<g id="a_Node000001"><a xlink:href="structiris_1_1FileHACKRawDataFunction.html" target="_top" xlink:title=" ">
<polygon fill="white" stroke="#666666" points="291.88,-953.75 124.38,-953.75 124.38,-933 291.88,-933 291.88,-953.75"/>
<text text-anchor="middle" x="208.12" y="-940.25" font-family="Helvetica,sans-Serif" font-size="10.00">iris::FileHACKRawDataFunction</text>
</a>
</g>
</g>
<!-- Node0&#45;&gt;Node1 -->
<g id="edge246_Node000000_Node000001" class="edge">
<title>Node0&#45;&gt;Node1</title>
<g id="a_edge246_Node000000_Node000001"><a xlink:title=" ">
<path fill="none" stroke="#63b8ff" d="M43.45,-504.23C46.49,-584.53 61.1,-861.85 119.5,-923.38 122.94,-927 126.88,-930.03 131.16,-932.55"/>
<polygon fill="#63b8ff" stroke="#63b8ff" points="46.96,-504.47 43.11,-494.6 39.97,-504.72 46.96,-504.47"/>
</a>
</g>
</g>
<!-- Node2 -->
<g id="Node000002" class="node">
<title>Node2</title>
<g id="a_Node000002"><a xlink:href="structiris_1_1FileMetadataFunction.html" target="_top" xlink:title=" ">
<polygon fill="white" stroke="#666666" points="279.12,-914.75 137.12,-914.75 137.12,-894 279.12,-894 279.12,-914.75"/>
<text text-anchor="middle" x="208.12" y="-901.25" font-family="Helvetica,sans-Serif" font-size="10.00">iris::FileMetadataFunction</text>
</a>
</g>
</g>
<!-- Node0&#45;&gt;Node2 -->
<g id="edge247_Node000000_Node000002" class="edge">
<title>Node0&#45;&gt;Node2</title>
<g id="a_edge247_Node000000_Node000002"><a xlink:title=" ">
<path fill="none" stroke="#63b8ff" d="M43.85,-504.2C48.13,-579.83 66.1,-829.03 119.5,-884.38 124.48,-889.54 130.51,-893.5 137.03,-896.51"/>
<polygon fill="#63b8ff" stroke="#63b8ff" points="47.36,-504.2 43.33,-494.4 40.37,-504.58 47.36,-504.2"/>
</a>
</g>
</g>
<!-- Node3 -->
<g id="Node000003" class="node">
<title>Node3</title>
<g id="a_Node000003"><a xlink:href="structiris_1_1FileTruncateFunction.html" target="_top" xlink:title=" ">
<polygon fill="white" stroke="#666666" points="276.5,-875.75 139.75,-875.75 139.75,-855 276.5,-855 276.5,-875.75"/>
<text text-anchor="middle" x="208.12" y="-862.25" font-family="Helvetica,sans-Serif" font-size="10.00">iris::FileTruncateFunction</text>
</a>
</g>
</g>
<!-- Node0&#45;&gt;Node3 -->
<g id="edge248_Node000000_Node000003" class="edge">
<title>Node0&#45;&gt;Node3</title>
<g id="a_edge248_Node000000_Node000003"><a xlink:title=" ">
<path fill="none" stroke="#63b8ff" d="M44.35,-504.35C49.97,-575.24 71.12,-796.21 119.5,-845.38 125.08,-851.05 131.92,-855.25 139.29,-858.35"/>
<polygon fill="#63b8ff" stroke="#63b8ff" points="47.85,-504.14 43.6,-494.44 40.87,-504.68 47.85,-504.14"/>
</a>
</g>
</g>
<!-- Node4 -->
<g id="Node000004" class="node">
<title>Node4</title>
<g id="a_Node000004"><a xlink:href="structiris_1_1InodeCreateNodeFunction.html" target="_top" xlink:title=" ">
<polygon fill="white" stroke="#666666" points="289.62,-836.75 126.62,-836.75 126.62,-816 289.62,-816 289.62,-836.75"/>
<text text-anchor="middle" x="208.12" y="-823.25" font-family="Helvetica,sans-Serif" font-size="10.00">iris::InodeCreateNodeFunction</text>
</a>
</g>
</g>
<!-- Node0&#45;&gt;Node4 -->
<g id="edge249_Node000000_Node000004" class="edge">
<title>Node0&#45;&gt;Node4</title>
<g id="a_edge249_Node000000_Node000004"><a xlink:title=" ">
<path fill="none" stroke="#63b8ff" d="M44.98,-504.53C52.05,-570.43 76.12,-763.35 119.5,-806.38 123.16,-810 127.33,-813.02 131.82,-815.54"/>
<polygon fill="#63b8ff" stroke="#63b8ff" points="48.46,-504.21 43.94,-494.63 41.5,-504.94 48.46,-504.21"/>
</a>
</g>
</g>
<!-- Node5 -->
<g id="Node000005" class="node">
<title>Node5</title>
<g id="a_Node000005"><a xlink:href="structiris_1_1InodeHACKRawDataFunction.html" target="_top" xlink:title=" ">
<polygon fill="white" stroke="#666666" points="296.75,-797.75 119.5,-797.75 119.5,-777 296.75,-777 296.75,-797.75"/>
<text text-anchor="middle" x="208.12" y="-784.25" font-family="Helvetica,sans-Serif" font-size="10.00">iris::InodeHACKRawDataFunction</text>
</a>
</g>
</g>
<!-- Node0&#45;&gt;Node5 -->
<g id="edge250_Node000000_Node000005" class="edge">
<title>Node0&#45;&gt;Node5</title>
<g id="a_edge250_Node000000_Node000005"><a xlink:title=" ">
<path fill="none" stroke="#63b8ff" d="M45.7,-504.21C54.26,-564.33 80.97,-730.31 119.5,-767.38 123.32,-771.05 127.68,-774.11 132.35,-776.64"/>
<polygon fill="#63b8ff" stroke="#63b8ff" points="49.2,-503.99 44.36,-494.57 42.27,-504.96 49.2,-503.99"/>
</a>
</g>
</g>
<!-- Node6 -->
<g id="Node000006" class="node">
<title>Node6</title>
<g id="a_Node000006"><a xlink:href="structiris_1_1InodeLookupFunction.html" target="_top" xlink:title=" ">
<polygon fill="white" stroke="#666666" points="278,-758.75 138.25,-758.75 138.25,-738 278,-738 278,-758.75"/>
<text text-anchor="middle" x="208.12" y="-745.25" font-family="Helvetica,sans-Serif" font-size="10.00">iris::InodeLookupFunction</text>
</a>
</g>
</g>
<!-- Node0&#45;&gt;Node6 -->
<g id="edge251_Node000000_Node000006" class="edge">
<title>Node0&#45;&gt;Node6</title>
<g id="a_edge251_Node000000_Node000006"><a xlink:title=" ">
<path fill="none" stroke="#63b8ff" d="M42.75,-504.4C44,-552.58 54.07,-667.86 119.5,-728.38 124.88,-733.35 131.24,-737.18 138.04,-740.11"/>
<polygon fill="#63b8ff" stroke="#63b8ff" points="46.25,-504.64 42.61,-494.69 39.25,-504.74 46.25,-504.64"/>
</a>
</g>
</g>
<!-- Node7 -->
<g id="Node000007" class="node">
<title>Node7</title>
<g id="a_Node000007"><a xlink:href="structiris_1_1InodeMetadataFunction.html" target="_top" xlink:title=" ">
<polygon fill="white" stroke="#666666" points="284,-719.75 132.25,-719.75 132.25,-699 284,-699 284,-719.75"/>
<text text-anchor="middle" x="208.12" y="-706.25" font-family="Helvetica,sans-Serif" font-size="10.00">iris::InodeMetadataFunction</text>
</a>
</g>
</g>
<!-- Node0&#45;&gt;Node7 -->
<g id="edge252_Node000000_Node000007" class="edge">
<title>Node0&#45;&gt;Node7</title>
<g id="a_edge252_Node000000_Node000007"><a xlink:title=" ">
<path fill="none" stroke="#63b8ff" d="M44.13,-504.21C48.07,-546.85 63.03,-641.31 119.5,-690.38 123.26,-693.64 127.45,-696.39 131.9,-698.7"/>
<polygon fill="#63b8ff" stroke="#63b8ff" points="47.64,-504.17 43.37,-494.48 40.66,-504.72 47.64,-504.17"/>
</a>
</g>
</g>
<!-- Node8 -->
<g id="Node000008" class="node">
<title>Node8</title>
<g id="a_Node000008"><a xlink:href="structiris_1_1InodeReadDirectoryFunction.html" target="_top" xlink:title=" ">
<polygon fill="white" stroke="#666666" points="275,-681.12 141.25,-681.12 141.25,-647.62 275,-647.62 275,-681.12"/>
<text text-anchor="start" x="149.25" y="-667.62" font-family="Helvetica,sans-Serif" font-size="10.00">iris::InodeReadDirectory</text>
<text text-anchor="middle" x="208.12" y="-654.88" font-family="Helvetica,sans-Serif" font-size="10.00">Function</text>
</a>
</g>
</g>
<!-- Node0&#45;&gt;Node8 -->
<g id="edge253_Node000000_Node000008" class="edge">
<title>Node0&#45;&gt;Node8</title>
<g id="a_edge253_Node000000_Node000008"><a xlink:title=" ">
<path fill="none" stroke="#63b8ff" d="M47.43,-503.76C55.9,-537.38 76.98,-602.48 119.5,-638.38 125.81,-643.7 133.17,-647.93 140.89,-651.3"/>
<polygon fill="#63b8ff" stroke="#63b8ff" points="50.92,-503.3 45.21,-494.38 44.1,-504.91 50.92,-503.3"/>
</a>
</g>
</g>
<!-- Node9 -->
<g id="Node000009" class="node">
<title>Node9</title>
<g id="a_Node000009"><a xlink:href="structiris_1_1InodeReadFunction.html" target="_top" xlink:title=" ">
<polygon fill="white" stroke="#666666" points="273.12,-629.75 143.12,-629.75 143.12,-609 273.12,-609 273.12,-629.75"/>
<text text-anchor="middle" x="208.12" y="-616.25" font-family="Helvetica,sans-Serif" font-size="10.00">iris::InodeReadFunction</text>
</a>
</g>
</g>
<!-- Node0&#45;&gt;Node9 -->
<g id="edge254_Node000000_Node000009" class="edge">
<title>Node0&#45;&gt;Node9</title>
<g id="a_edge254_Node000000_Node000009"><a xlink:title=" ">
<path fill="none" stroke="#63b8ff" d="M50.77,-503.57C61.98,-530.21 84.92,-575.34 119.5,-599.38 126.55,-604.27 134.61,-607.99 142.93,-610.81"/>
<polygon fill="#63b8ff" stroke="#63b8ff" points="54.1,-502.47 47.13,-494.49 47.6,-505.08 54.1,-502.47"/>
</a>
</g>
</g>
<!-- Node10 -->
<g id="Node000010" class="node">
<title>Node10</title>
<g id="a_Node000010"><a xlink:href="structiris_1_1InodeTruncateFunction.html" target="_top" xlink:title=" ">
<polygon fill="white" stroke="#666666" points="281.38,-590.75 134.88,-590.75 134.88,-570 281.38,-570 281.38,-590.75"/>
<text text-anchor="middle" x="208.12" y="-577.25" font-family="Helvetica,sans-Serif" font-size="10.00">iris::InodeTruncateFunction</text>
</a>
</g>
</g>
<!-- Node0&#45;&gt;Node10 -->
<g id="edge255_Node000000_Node000010" class="edge">
<title>Node0&#45;&gt;Node10</title>
<g id="a_edge255_Node000000_Node000010"><a xlink:title=" ">
<path fill="none" stroke="#63b8ff" d="M56.86,-502.14C70.75,-520.1 93.6,-545.93 119.5,-560.38 126.18,-564.1 133.51,-567.13 141,-569.6"/>
<polygon fill="#63b8ff" stroke="#63b8ff" points="59.8,-500.22 51.01,-494.31 54.19,-504.41 59.8,-500.22"/>
</a>
</g>
</g>
<!-- Node11 -->
<g id="Node000011" class="node">
<title>Node11</title>
<g id="a_Node000011"><a xlink:href="structiris_1_1ReadDirectoryFunction.html" target="_top" xlink:title=" ">
<polygon fill="white" stroke="#666666" points="282.12,-551.75 134.12,-551.75 134.12,-531 282.12,-531 282.12,-551.75"/>
<text text-anchor="middle" x="208.12" y="-538.25" font-family="Helvetica,sans-Serif" font-size="10.00">iris::ReadDirectoryFunction</text>
</a>
</g>
</g>
<!-- Node0&#45;&gt;Node11 -->
<g id="edge256_Node000000_Node000011" class="edge">
<title>Node0&#45;&gt;Node11</title>
<g id="a_edge256_Node000000_Node000011"><a xlink:title=" ">
<path fill="none" stroke="#63b8ff" d="M70.48,-498.55C84.75,-506.34 102.65,-515.28 119.5,-521.38 129.33,-524.93 140.02,-528 150.44,-530.59"/>
<polygon fill="#63b8ff" stroke="#63b8ff" points="72.55,-495.7 62.11,-493.88 69.14,-501.81 72.55,-495.7"/>
</a>
</g>
</g>
<!-- Node12 -->
<g id="Node000012" class="node">
<title>Node12</title>
<g id="a_Node000012"><a xlink:href="structiris_1_1ReadFileFunction.html" target="_top" xlink:title=" ">
<polygon fill="white" stroke="#666666" points="268.25,-512.75 148,-512.75 148,-492 268.25,-492 268.25,-512.75"/>
<text text-anchor="middle" x="208.12" y="-499.25" font-family="Helvetica,sans-Serif" font-size="10.00">iris::ReadFileFunction</text>
</a>
</g>
</g>
<!-- Node0&#45;&gt;Node12 -->
<g id="edge257_Node000000_Node000012" class="edge">
<title>Node0&#45;&gt;Node12</title>
<g id="a_edge257_Node000000_Node000012"><a xlink:title=" ">
<path fill="none" stroke="#63b8ff" d="M95.05,-488.74C111.8,-490.78 130.46,-493.05 147.68,-495.14"/>
<polygon fill="#63b8ff" stroke="#63b8ff" points="95.66,-485.29 85.31,-487.55 94.81,-492.24 95.66,-485.29"/>
</a>
</g>
</g>
<!-- Node13 -->
<g id="Node000013" class="node">
<title>Node13</title>
<g id="a_Node000013"><a xlink:href="structiris_1_1SeekFileFunction.html" target="_top" xlink:title=" ">
<polygon fill="white" stroke="#666666" points="267.88,-473.75 148.38,-473.75 148.38,-453 267.88,-453 267.88,-473.75"/>
<text text-anchor="middle" x="208.12" y="-460.25" font-family="Helvetica,sans-Serif" font-size="10.00">iris::SeekFileFunction</text>
</a>
</g>
</g>
<!-- Node0&#45;&gt;Node13 -->
<g id="edge258_Node000000_Node000013" class="edge">
<title>Node0&#45;&gt;Node13</title>
<g id="a_edge258_Node000000_Node000013"><a xlink:title=" ">
<path fill="none" stroke="#63b8ff" d="M95.11,-476.32C111.94,-474.38 130.71,-472.21 148,-470.21"/>
<polygon fill="#63b8ff" stroke="#63b8ff" points="94.84,-472.83 85.31,-477.46 95.64,-479.78 94.84,-472.83"/>
</a>
</g>
</g>
<!-- Node14 -->
<g id="Node000014" class="node">
<title>Node14</title>
<g id="a_Node000014"><a xlink:href="structiris_1_1TimerCalibrateFunction.html" target="_top" xlink:title=" ">
<polygon fill="white" stroke="#666666" points="283.62,-434.75 132.62,-434.75 132.62,-414 283.62,-414 283.62,-434.75"/>
<text text-anchor="middle" x="208.12" y="-421.25" font-family="Helvetica,sans-Serif" font-size="10.00">iris::TimerCalibrateFunction</text>
</a>
</g>
</g>
<!-- Node0&#45;&gt;Node14 -->
<g id="edge259_Node000000_Node000014" class="edge">
<title>Node0&#45;&gt;Node14</title>
<g id="a_edge259_Node000000_Node000014"><a xlink:title=" ">
<path fill="none" stroke="#63b8ff" d="M71.51,-466.12C85.63,-458.67 103.09,-450.22 119.5,-444.38 129.35,-440.87 140.04,-437.83 150.47,-435.25"/>
<polygon fill="#63b8ff" stroke="#63b8ff" points="69.91,-463.01 62.78,-470.84 73.24,-469.17 69.91,-463.01"/>
</a>
</g>
</g>
<!-- Node15 -->
<g id="Node000015" class="node">
<title>Node15</title>
<g id="a_Node000015"><a xlink:href="structiris_1_1TimerCapabilitiesFunction.html" target="_top" xlink:title=" ">
<polygon fill="white" stroke="#666666" points="290.38,-395.75 125.88,-395.75 125.88,-375 290.38,-375 290.38,-395.75"/>
<text text-anchor="middle" x="208.12" y="-382.25" font-family="Helvetica,sans-Serif" font-size="10.00">iris::TimerCapabilitiesFunction</text>
</a>
</g>
</g>
<!-- Node0&#45;&gt;Node15 -->
<g id="edge260_Node000000_Node000015" class="edge">
<title>Node0&#45;&gt;Node15</title>
<g id="a_edge260_Node000000_Node000015"><a xlink:title=" ">
<path fill="none" stroke="#63b8ff" d="M57.14,-462.58C71.1,-444.87 93.87,-419.57 119.5,-405.38 126.19,-401.67 133.53,-398.65 141.02,-396.19"/>
<polygon fill="#63b8ff" stroke="#63b8ff" points="54.53,-460.24 51.26,-470.32 60.1,-464.48 54.53,-460.24"/>
</a>
</g>
</g>
<!-- Node16 -->
<g id="Node000016" class="node">
<title>Node16</title>
<g id="a_Node000016"><a xlink:href="structiris_1_1TimerName.html" target="_top" xlink:title=" ">
<polygon fill="white" stroke="#666666" points="255.5,-356.75 160.75,-356.75 160.75,-336 255.5,-336 255.5,-356.75"/>
<text text-anchor="middle" x="208.12" y="-343.25" font-family="Helvetica,sans-Serif" font-size="10.00">iris::TimerName</text>
</a>
</g>
</g>
<!-- Node0&#45;&gt;Node16 -->
<g id="edge261_Node000000_Node000016" class="edge">
<title>Node0&#45;&gt;Node16</title>
<g id="a_edge261_Node000000_Node000016"><a xlink:title=" ">
<path fill="none" stroke="#63b8ff" d="M50.82,-461.36C62.08,-434.94 85.08,-390.2 119.5,-366.38 131.43,-358.12 146.26,-353.22 160.3,-350.33"/>
<polygon fill="#63b8ff" stroke="#63b8ff" points="47.69,-459.77 47.16,-470.35 54.17,-462.4 47.69,-459.77"/>
</a>
</g>
</g>
<!-- Node17 -->
<g id="Node000017" class="node">
<title>Node17</title>
<g id="a_Node000017"><a xlink:href="structiris_1_1TimerResolutionFunction.html" target="_top" xlink:title=" ">
<polygon fill="white" stroke="#666666" points="287.38,-317.75 128.88,-317.75 128.88,-297 287.38,-297 287.38,-317.75"/>
<text text-anchor="middle" x="208.12" y="-304.25" font-family="Helvetica,sans-Serif" font-size="10.00">iris::TimerResolutionFunction</text>
</a>
</g>
</g>
<!-- Node0&#45;&gt;Node17 -->
<g id="edge262_Node000000_Node000017" class="edge">
<title>Node0&#45;&gt;Node17</title>
<g id="a_edge262_Node000000_Node000017"><a xlink:title=" ">
<path fill="none" stroke="#63b8ff" d="M47.2,-460.81C55.37,-426.95 76.03,-361.65 119.5,-327.38 124.16,-323.7 129.36,-320.68 134.85,-318.2"/>
<polygon fill="#63b8ff" stroke="#63b8ff" points="43.86,-459.74 45.08,-470.27 50.69,-461.28 43.86,-459.74"/>
</a>
</g>
</g>
<!-- Node18 -->
<g id="Node000018" class="node">
<title>Node18</title>
<g id="a_Node000018"><a xlink:href="structiris_1_1TimerSetIntervalFunction.html" target="_top" xlink:title=" ">
<polygon fill="white" stroke="#666666" points="288.12,-278.75 128.12,-278.75 128.12,-258 288.12,-258 288.12,-278.75"/>
<text text-anchor="middle" x="208.12" y="-265.25" font-family="Helvetica,sans-Serif" font-size="10.00">iris::TimerSetIntervalFunction</text>
</a>
</g>
</g>
<!-- Node0&#45;&gt;Node18 -->
<g id="edge263_Node000000_Node000018" class="edge">
<title>Node0&#45;&gt;Node18</title>
<g id="a_edge263_Node000000_Node000018"><a xlink:title=" ">
<path fill="none" stroke="#63b8ff" d="M44.87,-460.37C49.99,-419.88 66.81,-333.6 119.5,-288.38 123.76,-284.72 128.56,-281.69 133.66,-279.19"/>
<polygon fill="#63b8ff" stroke="#63b8ff" points="41.42,-459.75 43.78,-470.08 48.37,-460.53 41.42,-459.75"/>
</a>
</g>
</g>
<!-- Node19 -->
<g id="Node000019" class="node">
<title>Node19</title>
<g id="a_Node000019"><a xlink:href="structiris_1_1TimerSetSingleShotFunction.html" target="_top" xlink:title=" ">
<polygon fill="white" stroke="#666666" points="274.62,-240.12 141.62,-240.12 141.62,-206.62 274.62,-206.62 274.62,-240.12"/>
<text text-anchor="start" x="149.62" y="-226.62" font-family="Helvetica,sans-Serif" font-size="10.00">iris::TimerSetSingleShot</text>
<text text-anchor="middle" x="208.12" y="-213.88" font-family="Helvetica,sans-Serif" font-size="10.00">Function</text>
</a>
</g>
</g>
<!-- Node0&#45;&gt;Node19 -->
<g id="edge264_Node000000_Node000019" class="edge">
<title>Node0&#45;&gt;Node19</title>
<g id="a_edge264_Node000000_Node000019"><a xlink:title=" ">
<path fill="none" stroke="#63b8ff" d="M43.51,-460.25C46.3,-414.27 59.3,-307.81 119.5,-249.38 125.76,-243.3 133.38,-238.63 141.48,-235.05"/>
<polygon fill="#63b8ff" stroke="#63b8ff" points="40.02,-459.86 43.03,-470.01 47.02,-460.2 40.02,-459.86"/>
</a>
</g>
</g>
<!-- Node20 -->
<g id="Node000020" class="node">
<title>Node20</title>
<g id="a_Node000020"><a xlink:href="structiris_1_1WriteFileFunction.html" target="_top" xlink:title=" ">
<polygon fill="white" stroke="#666666" points="269,-188.75 147.25,-188.75 147.25,-168 269,-168 269,-188.75"/>
<text text-anchor="middle" x="208.12" y="-175.25" font-family="Helvetica,sans-Serif" font-size="10.00">iris::WriteFileFunction</text>
</a>
</g>
</g>
<!-- Node0&#45;&gt;Node20 -->
<g id="edge265_Node000000_Node000020" class="edge">
<title>Node0&#45;&gt;Node20</title>
<g id="a_edge265_Node000000_Node000020"><a xlink:title=" ">
<path fill="none" stroke="#63b8ff" d="M45.68,-460.52C54.19,-400.34 80.77,-234.23 119.5,-197.38 127.17,-190.08 136.94,-185.32 147.17,-182.26"/>
<polygon fill="#63b8ff" stroke="#63b8ff" points="42.25,-459.79 44.35,-470.17 49.18,-460.74 42.25,-459.79"/>
</a>
</g>
</g>
<!-- Node21 -->
<g id="Node000021" class="node">
<title>Node21</title>
<g id="a_Node000021"><a xlink:href="structiris_1_1detail_1_1DisableIrqLine.html" target="_top" xlink:title=" ">
<polygon fill="white" stroke="#666666" points="278.38,-149.75 137.88,-149.75 137.88,-129 278.38,-129 278.38,-149.75"/>
<text text-anchor="middle" x="208.12" y="-136.25" font-family="Helvetica,sans-Serif" font-size="10.00">iris::detail::DisableIrqLine</text>
</a>
</g>
</g>
<!-- Node0&#45;&gt;Node21 -->
<g id="edge266_Node000000_Node000021" class="edge">
<title>Node0&#45;&gt;Node21</title>
<g id="a_edge266_Node000000_Node000021"><a xlink:title=" ">
<path fill="none" stroke="#63b8ff" d="M44.99,-460.29C52.08,-394.59 76.23,-202.26 119.5,-159.38 124.71,-154.21 130.96,-150.27 137.69,-147.28"/>
<polygon fill="#63b8ff" stroke="#63b8ff" points="41.51,-459.85 43.95,-470.16 48.48,-460.58 41.51,-459.85"/>
</a>
</g>
</g>
<!-- Node22 -->
<g id="Node000022" class="node">
<title>Node22</title>
<g id="a_Node000022"><a xlink:href="structiris_1_1detail_1_1EnableIrqLine.html" target="_top" xlink:title=" ">
<polygon fill="white" stroke="#666666" points="276.5,-110.75 139.75,-110.75 139.75,-90 276.5,-90 276.5,-110.75"/>
<text text-anchor="middle" x="208.12" y="-97.25" font-family="Helvetica,sans-Serif" font-size="10.00">iris::detail::EnableIrqLine</text>
</a>
</g>
</g>
<!-- Node0&#45;&gt;Node22 -->
<g id="edge267_Node000000_Node000022" class="edge">
<title>Node0&#45;&gt;Node22</title>
<g id="a_edge267_Node000000_Node000022"><a xlink:title=" ">
<path fill="none" stroke="#63b8ff" d="M44.36,-460.46C50.01,-389.76 71.23,-169.4 119.5,-120.38 125.08,-114.7 131.92,-110.5 139.29,-107.4"/>
<polygon fill="#63b8ff" stroke="#63b8ff" points="40.88,-460.1 43.6,-470.34 47.86,-460.64 40.88,-460.1"/>
</a>
</g>
</g>
<!-- Node23 -->
<g id="Node000023" class="node">
<title>Node23</title>
<g id="a_Node000023"><a xlink:href="structiris_1_1detail_1_1ResponsibleIrqLineRange.html" target="_top" xlink:title=" ">
<polygon fill="white" stroke="#666666" points="273.12,-72.12 143.12,-72.12 143.12,-38.62 273.12,-38.62 273.12,-72.12"/>
<text text-anchor="start" x="151.12" y="-58.62" font-family="Helvetica,sans-Serif" font-size="10.00">iris::detail::Responsible</text>
<text text-anchor="middle" x="208.12" y="-45.88" font-family="Helvetica,sans-Serif" font-size="10.00">IrqLineRange</text>
</a>
</g>
</g>
<!-- Node0&#45;&gt;Node23 -->
<g id="edge268_Node000000_Node000023" class="edge">
<title>Node0&#45;&gt;Node23</title>
<g id="a_edge268_Node000000_Node000023"><a xlink:title=" ">
<path fill="none" stroke="#63b8ff" d="M44.02,-460.22C48.8,-384.6 68.12,-138.13 119.5,-81.38 125.89,-74.32 134.1,-69.14 142.92,-65.35"/>
<polygon fill="#63b8ff" stroke="#63b8ff" points="40.54,-459.86 43.43,-470.05 47.53,-460.28 40.54,-459.86"/>
</a>
</g>
</g>
<!-- Node24 -->
<g id="Node000024" class="node">
<title>Node24</title>
<g id="a_Node000024"><a xlink:href="structiris_1_1detail_1_1SendEoiFunction.html" target="_top" xlink:title=" ">
<polygon fill="white" stroke="#666666" points="283.62,-20.75 132.62,-20.75 132.62,0 283.62,0 283.62,-20.75"/>
<text text-anchor="middle" x="208.12" y="-7.25" font-family="Helvetica,sans-Serif" font-size="10.00">iris::detail::SendEoiFunction</text>
</a>
</g>
</g>
<!-- Node0&#45;&gt;Node24 -->
<g id="edge269_Node000000_Node000024" class="edge">
<title>Node0&#45;&gt;Node24</title>
<g id="a_edge269_Node000000_Node000024"><a xlink:title=" ">
<path fill="none" stroke="#63b8ff" d="M43.32,-460.45C45.92,-378.61 59.22,-92.47 119.5,-29.38 123.26,-25.44 127.64,-22.22 132.38,-19.6"/>
<polygon fill="#63b8ff" stroke="#63b8ff" points="39.83,-460.15 43.04,-470.25 46.83,-460.36 39.83,-460.15"/>
</a>
</g>
</g>
</g>
</svg>
