<?xml version="1.0" encoding="UTF-8" standalone="no"?>
<!DOCTYPE svg PUBLIC "-//W3C//DTD SVG 1.1//EN"
 "http://www.w3.org/Graphics/SVG/1.1/DTD/svg11.dtd">
<!-- Generated by graphviz version 12.2.1 (0)
 -->
<!-- Title: Graphical Class Hierarchy Pages: 1 -->
<svg width="500pt" height="42pt"
 viewBox="0.00 0.00 500.00 41.50" xmlns="http://www.w3.org/2000/svg" xmlns:xlink="http://www.w3.org/1999/xlink">
<g id="graph0" class="graph" transform="scale(1 1) rotate(0) translate(4 37.5)">
<title>Graphical Class Hierarchy</title>
<!-- Node0 -->
<g id="Node000000" class="node">
<title>Node0</title>
<g id="a_Node000000"><a xlink:href="classdi_1_1meta_1_1EnableView.html" target="_top" xlink:title=" ">
<polygon fill="white" stroke="#666666" points="136,-33.5 0,-33.5 0,0 136,0 136,-33.5"/>
<text text-anchor="start" x="8" y="-20" font-family="Helvetica,sans-Serif" font-size="10.00">di::meta::EnableView</text>
<text text-anchor="middle" x="68" y="-7.25" font-family="Helvetica,sans-Serif" font-size="10.00">&lt; CycleView&lt; View &gt; &gt;</text>
</a>
</g>
</g>
<!-- Node1 -->
<g id="Node000001" class="node">
<title>Node1</title>
<g id="a_Node000001"><a xlink:href="classdi_1_1container_1_1ViewInterface.html" target="_top" xlink:title=" ">
<polygon fill="white" stroke="#666666" points="322.25,-33.5 172,-33.5 172,0 322.25,0 322.25,-33.5"/>
<text text-anchor="start" x="180" y="-20" font-family="Helvetica,sans-Serif" font-size="10.00">di::container::ViewInterface</text>
<text text-anchor="middle" x="247.12" y="-7.25" font-family="Helvetica,sans-Serif" font-size="10.00">&lt; CycleView&lt; View &gt; &gt;</text>
</a>
</g>
</g>
<!-- Node0&#45;&gt;Node1 -->
<g id="edge834_Node000000_Node000001" class="edge">
<title>Node0&#45;&gt;Node1</title>
<g id="a_edge834_Node000000_Node000001"><a xlink:title=" ">
<path fill="none" stroke="#63b8ff" d="M147.96,-16.75C155.87,-16.75 163.89,-16.75 171.75,-16.75"/>
<polygon fill="#63b8ff" stroke="#63b8ff" points="147.98,-13.25 137.98,-16.75 147.98,-20.25 147.98,-13.25"/>
</a>
</g>
</g>
<!-- Node2 -->
<g id="Node000002" class="node">
<title>Node2</title>
<g id="a_Node000002"><a xlink:href="classdi_1_1container_1_1CycleView.html" target="_top" xlink:title=" ">
<polygon fill="white" stroke="#666666" points="492,-33.5 358.25,-33.5 358.25,0 492,0 492,-33.5"/>
<text text-anchor="start" x="366.25" y="-20" font-family="Helvetica,sans-Serif" font-size="10.00">di::container::CycleView</text>
<text text-anchor="middle" x="425.12" y="-7.25" font-family="Helvetica,sans-Serif" font-size="10.00">&lt; View &gt;</text>
</a>
</g>
</g>
<!-- Node1&#45;&gt;Node2 -->
<g id="edge835_Node000001_Node000002" class="edge">
<title>Node1&#45;&gt;Node2</title>
<g id="a_edge835_Node000001_Node000002"><a xlink:title=" ">
<path fill="none" stroke="#63b8ff" d="M333.85,-16.75C341.91,-16.75 349.99,-16.75 357.82,-16.75"/>
<polygon fill="#63b8ff" stroke="#63b8ff" points="334.02,-13.25 324.02,-16.75 334.02,-20.25 334.02,-13.25"/>
</a>
</g>
</g>
</g>
</svg>
