<?xml version="1.0" encoding="UTF-8" standalone="no"?>
<!DOCTYPE svg PUBLIC "-//W3C//DTD SVG 1.1//EN"
 "http://www.w3.org/Graphics/SVG/1.1/DTD/svg11.dtd">
<!-- Generated by graphviz version 10.0.1 (0)
 -->
<!-- Title: Graphical Class Hierarchy Pages: 1 -->
<svg width="336pt" height="184pt"
 viewBox="0.00 0.00 335.50 183.50" xmlns="http://www.w3.org/2000/svg" xmlns:xlink="http://www.w3.org/1999/xlink">
<g id="graph0" class="graph" transform="scale(1 1) rotate(0) translate(4 179.5)">
<title>Graphical Class Hierarchy</title>
<!-- Node0 -->
<g id="Node000000" class="node">
<title>Node0</title>
<g id="a_Node000000"><a xlink:href="structiris_1_1acpi_1_1InterruptControllerStructureHeader.html" target="_top" xlink:title="Interrupt Controller Structure Header.">
<polygon fill="white" stroke="#666666" points="153.25,-107.5 0,-107.5 0,-74 153.25,-74 153.25,-107.5"/>
<text text-anchor="start" x="8" y="-94" font-family="Helvetica,sans-Serif" font-size="10.00">iris::acpi::InterruptController</text>
<text text-anchor="middle" x="76.62" y="-81.25" font-family="Helvetica,sans-Serif" font-size="10.00">StructureHeader</text>
</a>
</g>
</g>
<!-- Node1 -->
<g id="Node000001" class="node">
<title>Node1</title>
<g id="a_Node000001"><a xlink:href="structiris_1_1acpi_1_1InterruptSourceOverrideStructure.html" target="_top" xlink:title="Interrupt Source Override Structure.">
<polygon fill="white" stroke="#666666" points="327.5,-175.5 189.25,-175.5 189.25,-142 327.5,-142 327.5,-175.5"/>
<text text-anchor="start" x="197.25" y="-162" font-family="Helvetica,sans-Serif" font-size="10.00">iris::acpi::InterruptSource</text>
<text text-anchor="middle" x="258.38" y="-149.25" font-family="Helvetica,sans-Serif" font-size="10.00">OverrideStructure</text>
</a>
</g>
</g>
<!-- Node0&#45;&gt;Node1 -->
<g id="edge913_Node000000_Node000001" class="edge">
<title>Node0&#45;&gt;Node1</title>
<g id="a_edge913_Node000000_Node000001"><a xlink:title=" ">
<path fill="none" stroke="#63b8ff" d="M133.52,-111.89C158.76,-121.44 188.19,-132.58 212.03,-141.6"/>
<polygon fill="#63b8ff" stroke="#63b8ff" points="134.99,-108.71 124.4,-108.44 132.51,-115.26 134.99,-108.71"/>
</a>
</g>
</g>
<!-- Node2 -->
<g id="Node000002" class="node">
<title>Node2</title>
<g id="a_Node000002"><a xlink:href="structiris_1_1acpi_1_1IoApicStructure.html" target="_top" xlink:title="I/O APIC Structure.">
<polygon fill="white" stroke="#666666" points="327.12,-124.12 189.62,-124.12 189.62,-103.38 327.12,-103.38 327.12,-124.12"/>
<text text-anchor="middle" x="258.38" y="-110.62" font-family="Helvetica,sans-Serif" font-size="10.00">iris::acpi::IoApicStructure</text>
</a>
</g>
</g>
<!-- Node0&#45;&gt;Node2 -->
<g id="edge914_Node000000_Node000002" class="edge">
<title>Node0&#45;&gt;Node2</title>
<g id="a_edge914_Node000000_Node000002"><a xlink:title=" ">
<path fill="none" stroke="#63b8ff" d="M164.8,-101.91C173.06,-102.96 181.34,-104.02 189.38,-105.05"/>
<polygon fill="#63b8ff" stroke="#63b8ff" points="165.46,-98.46 155.1,-100.66 164.57,-105.4 165.46,-98.46"/>
</a>
</g>
</g>
<!-- Node3 -->
<g id="Node000003" class="node">
<title>Node3</title>
<g id="a_Node000003"><a xlink:href="structiris_1_1acpi_1_1LocalApicNmiStructure.html" target="_top" xlink:title="Local APIC NMI Structure.">
<polygon fill="white" stroke="#666666" points="323.38,-85.5 193.38,-85.5 193.38,-52 323.38,-52 323.38,-85.5"/>
<text text-anchor="start" x="201.38" y="-72" font-family="Helvetica,sans-Serif" font-size="10.00">iris::acpi::LocalApicNmi</text>
<text text-anchor="middle" x="258.38" y="-59.25" font-family="Helvetica,sans-Serif" font-size="10.00">Structure</text>
</a>
</g>
</g>
<!-- Node0&#45;&gt;Node3 -->
<g id="edge915_Node000000_Node000003" class="edge">
<title>Node0&#45;&gt;Node3</title>
<g id="a_edge915_Node000000_Node000003"><a xlink:title=" ">
<path fill="none" stroke="#63b8ff" d="M164.74,-80.09C174.27,-78.92 183.85,-77.75 193.03,-76.62"/>
<polygon fill="#63b8ff" stroke="#63b8ff" points="164.6,-76.58 155.1,-81.27 165.45,-83.53 164.6,-76.58"/>
</a>
</g>
</g>
<!-- Node4 -->
<g id="Node000004" class="node">
<title>Node4</title>
<g id="a_Node000004"><a xlink:href="structiris_1_1acpi_1_1ProcessorLocalApicStructure.html" target="_top" xlink:title="Processor Local APIC Structure.">
<polygon fill="white" stroke="#666666" points="326.38,-33.5 190.38,-33.5 190.38,0 326.38,0 326.38,-33.5"/>
<text text-anchor="start" x="198.38" y="-20" font-family="Helvetica,sans-Serif" font-size="10.00">iris::acpi::ProcessorLocal</text>
<text text-anchor="middle" x="258.38" y="-7.25" font-family="Helvetica,sans-Serif" font-size="10.00">ApicStructure</text>
</a>
</g>
</g>
<!-- Node0&#45;&gt;Node4 -->
<g id="edge916_Node000000_Node000004" class="edge">
<title>Node0&#45;&gt;Node4</title>
<g id="a_edge916_Node000000_Node000004"><a xlink:title=" ">
<path fill="none" stroke="#63b8ff" d="M126.87,-69.05C146.24,-60.66 168.72,-51.08 189.25,-42.75 196.41,-39.85 204.02,-36.85 211.47,-33.97"/>
<polygon fill="#63b8ff" stroke="#63b8ff" points="125.62,-65.78 117.85,-72.98 128.42,-72.2 125.62,-65.78"/>
</a>
</g>
</g>
</g>
</svg>
