<?xml version="1.0" encoding="UTF-8" standalone="no"?>
<!DOCTYPE svg PUBLIC "-//W3C//DTD SVG 1.1//EN"
 "http://www.w3.org/Graphics/SVG/1.1/DTD/svg11.dtd">
<!-- Generated by graphviz version 10.0.1 (0)
 -->
<!-- Title: Graphical Class Hierarchy Pages: 1 -->
<svg width="512pt" height="465pt"
 viewBox="0.00 0.00 512.00 464.88" xmlns="http://www.w3.org/2000/svg" xmlns:xlink="http://www.w3.org/1999/xlink">
<g id="graph0" class="graph" transform="scale(1 1) rotate(0) translate(4 460.88)">
<title>Graphical Class Hierarchy</title>
<!-- Node0 -->
<g id="Node000000" class="node">
<title>Node0</title>
<g id="a_Node000000"><a xlink:href="structdi_1_1util_1_1AddMemberGet.html" target="_top" xlink:title=" ">
<polygon fill="white" stroke="#666666" points="132.25,-264.5 0,-264.5 0,-231 132.25,-231 132.25,-264.5"/>
<text text-anchor="start" x="8" y="-251" font-family="Helvetica,sans-Serif" font-size="10.00">di::util::AddMemberGet</text>
<text text-anchor="middle" x="66.12" y="-238.25" font-family="Helvetica,sans-Serif" font-size="10.00">&lt; Variant&lt; Types... &gt; &gt;</text>
</a>
</g>
</g>
<!-- Node1 -->
<g id="Node000001" class="node">
<title>Node1</title>
<g id="a_Node000001"><a xlink:href="classdi_1_1vocab_1_1Variant.html" target="_top" xlink:title=" ">
<polygon fill="white" stroke="#666666" points="333.88,-456.88 205.38,-456.88 205.38,-410.62 333.88,-410.62 333.88,-456.88"/>
<text text-anchor="start" x="213.38" y="-443.38" font-family="Helvetica,sans-Serif" font-size="10.00">di::vocab::Variant</text>
<text text-anchor="start" x="213.38" y="-430.62" font-family="Helvetica,sans-Serif" font-size="10.00">&lt; Null, Bool, Number,</text>
<text text-anchor="middle" x="269.62" y="-417.88" font-family="Helvetica,sans-Serif" font-size="10.00"> String, Array, Object &gt;</text>
</a>
</g>
</g>
<!-- Node0&#45;&gt;Node1 -->
<g id="edge767_Node000000_Node000001" class="edge">
<title>Node0&#45;&gt;Node1</title>
<g id="a_edge767_Node000000_Node000001"><a xlink:title=" ">
<path fill="none" stroke="#63b8ff" d="M78.16,-275.12C93.4,-309.56 124.11,-368.25 168.25,-401.75 179.03,-409.93 191.97,-416.06 204.91,-420.63"/>
<polygon fill="#63b8ff" stroke="#63b8ff" points="81.51,-274.05 74.35,-266.24 75.07,-276.81 81.51,-274.05"/>
</a>
</g>
</g>
<!-- Node3 -->
<g id="Node000003" class="node">
<title>Node3</title>
<g id="a_Node000003"><a xlink:href="classdi_1_1vocab_1_1Variant.html" target="_top" xlink:title=" ">
<polygon fill="white" stroke="#666666" points="320,-392.5 219.25,-392.5 219.25,-359 320,-359 320,-392.5"/>
<text text-anchor="start" x="227.25" y="-379" font-family="Helvetica,sans-Serif" font-size="10.00">di::vocab::Variant</text>
<text text-anchor="middle" x="269.62" y="-366.25" font-family="Helvetica,sans-Serif" font-size="10.00">&lt; Iter, Sent &gt;</text>
</a>
</g>
</g>
<!-- Node0&#45;&gt;Node3 -->
<g id="edge769_Node000000_Node000003" class="edge">
<title>Node0&#45;&gt;Node3</title>
<g id="a_edge769_Node000000_Node000003"><a xlink:title=" ">
<path fill="none" stroke="#63b8ff" d="M85.98,-273.94C104.35,-297.53 134.41,-331.4 168.25,-350.75 183.61,-359.53 202.01,-365.25 218.83,-368.97"/>
<polygon fill="#63b8ff" stroke="#63b8ff" points="88.82,-271.89 79.99,-266.04 83.24,-276.12 88.82,-271.89"/>
</a>
</g>
</g>
<!-- Node4 -->
<g id="Node000004" class="node">
<title>Node4</title>
<g id="a_Node000004"><a xlink:href="classdi_1_1vocab_1_1Variant.html" target="_top" xlink:title=" ">
<polygon fill="white" stroke="#666666" points="356.38,-341.25 182.88,-341.25 182.88,-282.25 356.38,-282.25 356.38,-341.25"/>
<text text-anchor="start" x="190.88" y="-327.75" font-family="Helvetica,sans-Serif" font-size="10.00">di::vocab::Variant</text>
<text text-anchor="start" x="190.88" y="-315" font-family="Helvetica,sans-Serif" font-size="10.00">&lt; meta::ContainerIterator</text>
<text text-anchor="start" x="190.88" y="-302.25" font-family="Helvetica,sans-Serif" font-size="10.00">&lt; meta::MaybeConst&lt; is_const,</text>
<text text-anchor="middle" x="269.62" y="-289.5" font-family="Helvetica,sans-Serif" font-size="10.00"> Views &gt; &gt;... &gt;</text>
</a>
</g>
</g>
<!-- Node0&#45;&gt;Node4 -->
<g id="edge770_Node000000_Node000004" class="edge">
<title>Node0&#45;&gt;Node4</title>
<g id="a_edge770_Node000000_Node000004"><a xlink:title=" ">
<path fill="none" stroke="#63b8ff" d="M132.28,-268.44C148.37,-273.55 165.85,-279.11 182.75,-284.48"/>
<polygon fill="#63b8ff" stroke="#63b8ff" points="133.42,-265.13 122.83,-265.44 131.3,-271.81 133.42,-265.13"/>
</a>
</g>
</g>
<!-- Node5 -->
<g id="Node000005" class="node">
<title>Node5</title>
<g id="a_Node000005"><a xlink:href="classdi_1_1vocab_1_1Variant.html" target="_top" xlink:title=" ">
<polygon fill="white" stroke="#666666" points="338,-264.5 201.25,-264.5 201.25,-231 338,-231 338,-264.5"/>
<text text-anchor="start" x="209.25" y="-251" font-family="Helvetica,sans-Serif" font-size="10.00">di::vocab::Variant</text>
<text text-anchor="middle" x="269.62" y="-238.25" font-family="Helvetica,sans-Serif" font-size="10.00">&lt; PatternIter, InnerIter &gt;</text>
</a>
</g>
</g>
<!-- Node0&#45;&gt;Node5 -->
<g id="edge771_Node000000_Node000005" class="edge">
<title>Node0&#45;&gt;Node5</title>
<g id="a_edge771_Node000000_Node000005"><a xlink:title=" ">
<path fill="none" stroke="#63b8ff" d="M144,-247.75C162.69,-247.75 182.53,-247.75 200.76,-247.75"/>
<polygon fill="#63b8ff" stroke="#63b8ff" points="144.06,-244.25 134.06,-247.75 144.06,-251.25 144.06,-244.25"/>
</a>
</g>
</g>
<!-- Node6 -->
<g id="Node000006" class="node">
<title>Node6</title>
<g id="a_Node000006"><a xlink:href="classdi_1_1vocab_1_1Variant.html" target="_top" xlink:title=" ">
<polygon fill="white" stroke="#666666" points="371,-213.38 168.25,-213.38 168.25,-116.12 371,-116.12 371,-213.38"/>
<text text-anchor="start" x="176.25" y="-199.88" font-family="Helvetica,sans-Serif" font-size="10.00">di::vocab::Variant</text>
<text text-anchor="start" x="176.25" y="-187.12" font-family="Helvetica,sans-Serif" font-size="10.00">&lt; meta::ConnectResult</text>
<text text-anchor="start" x="176.25" y="-174.38" font-family="Helvetica,sans-Serif" font-size="10.00">&lt; meta::ScheduleResult</text>
<text text-anchor="start" x="176.25" y="-161.62" font-family="Helvetica,sans-Serif" font-size="10.00">&lt; Sched &gt;, Receiver&lt; Send,</text>
<text text-anchor="start" x="176.25" y="-148.88" font-family="Helvetica,sans-Serif" font-size="10.00"> Rec, Sched &gt; &gt;, meta::ConnectResult</text>
<text text-anchor="start" x="176.25" y="-136.12" font-family="Helvetica,sans-Serif" font-size="10.00">&lt; Send, ReceiverWithEnv&lt; Send, Rec,</text>
<text text-anchor="middle" x="269.62" y="-123.38" font-family="Helvetica,sans-Serif" font-size="10.00"> Sched &gt; &gt; &gt;</text>
</a>
</g>
</g>
<!-- Node0&#45;&gt;Node6 -->
<g id="edge772_Node000000_Node000006" class="edge">
<title>Node0&#45;&gt;Node6</title>
<g id="a_edge772_Node000000_Node000006"><a xlink:title=" ">
<path fill="none" stroke="#63b8ff" d="M119.39,-226.22C134.32,-220.07 151.11,-213.15 167.91,-206.24"/>
<polygon fill="#63b8ff" stroke="#63b8ff" points="118.19,-222.93 110.28,-229.98 120.85,-229.4 118.19,-222.93"/>
</a>
</g>
</g>
<!-- Node7 -->
<g id="Node000007" class="node">
<title>Node7</title>
<g id="a_Node000007"><a xlink:href="classdi_1_1vocab_1_1Variant.html" target="_top" xlink:title=" ">
<polygon fill="white" stroke="#666666" points="332,-97.88 207.25,-97.88 207.25,-51.62 332,-51.62 332,-97.88"/>
<text text-anchor="start" x="215.25" y="-84.38" font-family="Helvetica,sans-Serif" font-size="10.00">di::vocab::Variant</text>
<text text-anchor="start" x="215.25" y="-71.62" font-family="Helvetica,sans-Serif" font-size="10.00">&lt; di::types::Void, Op1,</text>
<text text-anchor="middle" x="269.62" y="-58.88" font-family="Helvetica,sans-Serif" font-size="10.00"> Op2 &gt;</text>
</a>
</g>
</g>
<!-- Node0&#45;&gt;Node7 -->
<g id="edge773_Node000000_Node000007" class="edge">
<title>Node0&#45;&gt;Node7</title>
<g id="a_edge773_Node000000_Node000007"><a xlink:title=" ">
<path fill="none" stroke="#63b8ff" d="M79.73,-220.79C95.9,-189.04 126.88,-136.83 168.25,-106.75 179.72,-98.41 193.44,-92.19 207,-87.57"/>
<polygon fill="#63b8ff" stroke="#63b8ff" points="76.79,-218.84 75.49,-229.35 83.06,-221.94 76.79,-218.84"/>
</a>
</g>
</g>
<!-- Node8 -->
<g id="Node000008" class="node">
<title>Node8</title>
<g id="a_Node000008"><a xlink:href="classdi_1_1vocab_1_1Variant.html" target="_top" xlink:title=" ">
<polygon fill="white" stroke="#666666" points="320,-33.5 219.25,-33.5 219.25,0 320,0 320,-33.5"/>
<text text-anchor="start" x="227.25" y="-20" font-family="Helvetica,sans-Serif" font-size="10.00">di::vocab::Variant</text>
<text text-anchor="middle" x="269.62" y="-7.25" font-family="Helvetica,sans-Serif" font-size="10.00">&lt; Types &gt;</text>
</a>
</g>
</g>
<!-- Node0&#45;&gt;Node8 -->
<g id="edge774_Node000000_Node000008" class="edge">
<title>Node0&#45;&gt;Node8</title>
<g id="a_edge774_Node000000_Node000008"><a xlink:title=" ">
<path fill="none" stroke="#63b8ff" d="M73.08,-219.58C83.98,-175.11 111.43,-88.98 168.25,-42.75 182.49,-31.16 201.32,-24.68 218.82,-21.08"/>
<polygon fill="#63b8ff" stroke="#63b8ff" points="69.69,-218.69 70.83,-229.22 76.51,-220.28 69.69,-218.69"/>
</a>
</g>
</g>
<!-- Node2 -->
<g id="Node000002" class="node">
<title>Node2</title>
<g id="a_Node000002"><a xlink:href="classdi_1_1serialization_1_1json_1_1Value.html" target="_top" xlink:title=" ">
<polygon fill="white" stroke="#666666" points="504,-450.5 407,-450.5 407,-417 504,-417 504,-450.5"/>
<text text-anchor="start" x="415" y="-437" font-family="Helvetica,sans-Serif" font-size="10.00">di::serialization::</text>
<text text-anchor="middle" x="455.5" y="-424.25" font-family="Helvetica,sans-Serif" font-size="10.00">json::Value</text>
</a>
</g>
</g>
<!-- Node1&#45;&gt;Node2 -->
<g id="edge768_Node000001_Node000002" class="edge">
<title>Node1&#45;&gt;Node2</title>
<g id="a_edge768_Node000001_Node000002"><a xlink:title=" ">
<path fill="none" stroke="#63b8ff" d="M345.48,-433.75C366.13,-433.75 387.97,-433.75 406.63,-433.75"/>
<polygon fill="#63b8ff" stroke="#63b8ff" points="345.68,-430.25 335.68,-433.75 345.68,-437.25 345.68,-430.25"/>
</a>
</g>
</g>
</g>
</svg>
