<?xml version="1.0" encoding="UTF-8" standalone="no"?>
<!DOCTYPE svg PUBLIC "-//W3C//DTD SVG 1.1//EN"
 "http://www.w3.org/Graphics/SVG/1.1/DTD/svg11.dtd">
<!-- Generated by graphviz version 10.0.1 (0)
 -->
<!-- Title: Graphical Class Hierarchy Pages: 1 -->
<svg width="339pt" height="302pt"
 viewBox="0.00 0.00 339.25 301.50" xmlns="http://www.w3.org/2000/svg" xmlns:xlink="http://www.w3.org/1999/xlink">
<g id="graph0" class="graph" transform="scale(1 1) rotate(0) translate(4 297.5)">
<title>Graphical Class Hierarchy</title>
<!-- Node0 -->
<g id="Node000000" class="node">
<title>Node0</title>
<g id="a_Node000000"><a xlink:href="classdi_1_1util_1_1NamedArgument.html" target="_top" xlink:title="A helper class to simulate a single named argument.">
<polygon fill="white" stroke="#666666" points="136,-163.5 0,-163.5 0,-130 136,-130 136,-163.5"/>
<text text-anchor="start" x="8" y="-150" font-family="Helvetica,sans-Serif" font-size="10.00">di::util::NamedArgument</text>
<text text-anchor="middle" x="68" y="-137.25" font-family="Helvetica,sans-Serif" font-size="10.00">&lt; Tag_, T &gt;</text>
</a>
</g>
</g>
<!-- Node1 -->
<g id="Node000001" class="node">
<title>Node1</title>
<g id="a_Node000001"><a xlink:href="structdi_1_1execution_1_1ipc_1_1Allocator.html" target="_top" xlink:title=" ">
<polygon fill="white" stroke="#666666" points="307.62,-293.5 195.62,-293.5 195.62,-260 307.62,-260 307.62,-293.5"/>
<text text-anchor="start" x="203.62" y="-280" font-family="Helvetica,sans-Serif" font-size="10.00">di::execution::ipc</text>
<text text-anchor="middle" x="251.62" y="-267.25" font-family="Helvetica,sans-Serif" font-size="10.00">::Allocator&lt; Alloc &gt;</text>
</a>
</g>
</g>
<!-- Node0&#45;&gt;Node1 -->
<g id="edge861_Node000000_Node000001" class="edge">
<title>Node0&#45;&gt;Node1</title>
<g id="a_edge861_Node000000_Node000001"><a xlink:title=" ">
<path fill="none" stroke="#63b8ff" d="M88.67,-172.68C107.67,-196.09 138.44,-229.95 172,-250.75 179.21,-255.22 187.27,-259.01 195.41,-262.19"/>
<polygon fill="#63b8ff" stroke="#63b8ff" points="91.65,-170.81 82.69,-165.15 86.17,-175.16 91.65,-170.81"/>
</a>
</g>
</g>
<!-- Node2 -->
<g id="Node000002" class="node">
<title>Node2</title>
<g id="a_Node000002"><a xlink:href="structdi_1_1execution_1_1ipc_1_1Receive.html" target="_top" xlink:title=" ">
<polygon fill="white" stroke="#666666" points="300.88,-241.5 202.38,-241.5 202.38,-208 300.88,-208 300.88,-241.5"/>
<text text-anchor="start" x="210.38" y="-228" font-family="Helvetica,sans-Serif" font-size="10.00">di::execution::ipc</text>
<text text-anchor="middle" x="251.62" y="-215.25" font-family="Helvetica,sans-Serif" font-size="10.00">::Receive&lt; F &gt;</text>
</a>
</g>
</g>
<!-- Node0&#45;&gt;Node2 -->
<g id="edge862_Node000000_Node000002" class="edge">
<title>Node0&#45;&gt;Node2</title>
<g id="a_edge862_Node000000_Node000002"><a xlink:title=" ">
<path fill="none" stroke="#63b8ff" d="M109.91,-169.16C128.55,-178.91 151.08,-190.07 172,-198.75 181.56,-202.72 191.96,-206.51 201.98,-209.91"/>
<polygon fill="#63b8ff" stroke="#63b8ff" points="111.8,-166.2 101.33,-164.62 108.53,-172.39 111.8,-166.2"/>
</a>
</g>
</g>
<!-- Node3 -->
<g id="Node000003" class="node">
<title>Node3</title>
<g id="a_Node000003"><a xlink:href="structdi_1_1execution_1_1ipc_1_1Receiver.html" target="_top" xlink:title=" ">
<polygon fill="white" stroke="#666666" points="312.5,-189.5 190.75,-189.5 190.75,-156 312.5,-156 312.5,-189.5"/>
<text text-anchor="start" x="198.75" y="-176" font-family="Helvetica,sans-Serif" font-size="10.00">di::execution::ipc</text>
<text text-anchor="middle" x="251.62" y="-163.25" font-family="Helvetica,sans-Serif" font-size="10.00">::Receiver&lt; Reader &gt;</text>
</a>
</g>
</g>
<!-- Node0&#45;&gt;Node3 -->
<g id="edge863_Node000000_Node000003" class="edge">
<title>Node0&#45;&gt;Node3</title>
<g id="a_edge863_Node000000_Node000003"><a xlink:title=" ">
<path fill="none" stroke="#63b8ff" d="M147.69,-158.02C161.95,-160.06 176.62,-162.16 190.25,-164.11"/>
<polygon fill="#63b8ff" stroke="#63b8ff" points="148.27,-154.56 137.87,-156.61 147.27,-161.49 148.27,-154.56"/>
</a>
</g>
</g>
<!-- Node4 -->
<g id="Node000004" class="node">
<title>Node4</title>
<g id="a_Node000004"><a xlink:href="structdi_1_1execution_1_1ipc_1_1ReceiverTransmitter.html" target="_top" xlink:title=" ">
<polygon fill="white" stroke="#666666" points="331.25,-137.5 172,-137.5 172,-104 331.25,-104 331.25,-137.5"/>
<text text-anchor="start" x="180" y="-124" font-family="Helvetica,sans-Serif" font-size="10.00">di::execution::ipc</text>
<text text-anchor="middle" x="251.62" y="-111.25" font-family="Helvetica,sans-Serif" font-size="10.00">::ReceiverTransmitter&lt; RW &gt;</text>
</a>
</g>
</g>
<!-- Node0&#45;&gt;Node4 -->
<g id="edge864_Node000000_Node000004" class="edge">
<title>Node0&#45;&gt;Node4</title>
<g id="a_edge864_Node000000_Node000004"><a xlink:title=" ">
<path fill="none" stroke="#63b8ff" d="M147.57,-135.5C155.57,-134.36 163.7,-133.19 171.71,-132.05"/>
<polygon fill="#63b8ff" stroke="#63b8ff" points="147.27,-132.01 137.87,-136.89 148.27,-138.94 147.27,-132.01"/>
</a>
</g>
</g>
<!-- Node5 -->
<g id="Node000005" class="node">
<title>Node5</title>
<g id="a_Node000005"><a xlink:href="structdi_1_1execution_1_1ipc_1_1Transmit.html" target="_top" xlink:title=" ">
<polygon fill="white" stroke="#666666" points="300.88,-85.5 202.38,-85.5 202.38,-52 300.88,-52 300.88,-85.5"/>
<text text-anchor="start" x="210.38" y="-72" font-family="Helvetica,sans-Serif" font-size="10.00">di::execution::ipc</text>
<text text-anchor="middle" x="251.62" y="-59.25" font-family="Helvetica,sans-Serif" font-size="10.00">::Transmit&lt; F &gt;</text>
</a>
</g>
</g>
<!-- Node0&#45;&gt;Node5 -->
<g id="edge865_Node000000_Node000005" class="edge">
<title>Node0&#45;&gt;Node5</title>
<g id="a_edge865_Node000000_Node000005"><a xlink:title=" ">
<path fill="none" stroke="#63b8ff" d="M109.91,-124.34C128.55,-114.59 151.08,-103.43 172,-94.75 181.56,-90.78 191.96,-86.99 201.98,-83.59"/>
<polygon fill="#63b8ff" stroke="#63b8ff" points="108.53,-121.11 101.33,-128.88 111.8,-127.3 108.53,-121.11"/>
</a>
</g>
</g>
<!-- Node6 -->
<g id="Node000006" class="node">
<title>Node6</title>
<g id="a_Node000006"><a xlink:href="structdi_1_1execution_1_1ipc_1_1Transmitter.html" target="_top" xlink:title=" ">
<polygon fill="white" stroke="#666666" points="316.62,-33.5 186.62,-33.5 186.62,0 316.62,0 316.62,-33.5"/>
<text text-anchor="start" x="194.62" y="-20" font-family="Helvetica,sans-Serif" font-size="10.00">di::execution::ipc</text>
<text text-anchor="middle" x="251.62" y="-7.25" font-family="Helvetica,sans-Serif" font-size="10.00">::Transmitter&lt; Writer &gt;</text>
</a>
</g>
</g>
<!-- Node0&#45;&gt;Node6 -->
<g id="edge866_Node000000_Node000006" class="edge">
<title>Node0&#45;&gt;Node6</title>
<g id="a_edge866_Node000000_Node000006"><a xlink:title=" ">
<path fill="none" stroke="#63b8ff" d="M88.67,-120.82C107.67,-97.41 138.44,-63.55 172,-42.75 177.38,-39.42 183.23,-36.46 189.23,-33.85"/>
<polygon fill="#63b8ff" stroke="#63b8ff" points="86.17,-118.34 82.69,-128.35 91.65,-122.69 86.17,-118.34"/>
</a>
</g>
</g>
</g>
</svg>
