<?xml version="1.0" encoding="UTF-8" standalone="no"?>
<!DOCTYPE svg PUBLIC "-//W3C//DTD SVG 1.1//EN"
 "http://www.w3.org/Graphics/SVG/1.1/DTD/svg11.dtd">
<!-- Generated by graphviz version 10.0.1 (0)
 -->
<!-- Title: dius::runtime::detail::FreeList Pages: 1 -->
<svg width="134pt" height="168pt"
 viewBox="0.00 0.00 133.50 167.75" xmlns="http://www.w3.org/2000/svg" xmlns:xlink="http://www.w3.org/1999/xlink">
<g id="graph0" class="graph" transform="scale(1 1) rotate(0) translate(4 163.75)">
<title>dius::runtime::detail::FreeList</title>
<!-- Node1 -->
<g id="Node000001" class="node">
<title>Node1</title>
<g id="a_Node000001"><a xlink:title=" ">
<polygon fill="#999999" stroke="#666666" points="119.88,-33.5 5.62,-33.5 5.62,0 119.88,0 119.88,-33.5"/>
<text text-anchor="start" x="13.62" y="-20" font-family="Helvetica,sans-Serif" font-size="10.00">dius::runtime::detail</text>
<text text-anchor="middle" x="62.75" y="-7.25" font-family="Helvetica,sans-Serif" font-size="10.00">::FreeList</text>
</a>
</g>
</g>
<!-- Node2 -->
<g id="Node000002" class="node">
<title>Node2</title>
<g id="a_Node000002"><a xlink:href="classdi_1_1container_1_1IntrusiveListNode.html" target="_top" xlink:title=" ">
<polygon fill="white" stroke="#666666" points="125.5,-103 0,-103 0,-69.5 125.5,-69.5 125.5,-103"/>
<text text-anchor="start" x="8" y="-89.5" font-family="Helvetica,sans-Serif" font-size="10.00">di::container::Intrusive</text>
<text text-anchor="middle" x="62.75" y="-76.75" font-family="Helvetica,sans-Serif" font-size="10.00">ListNode&lt; Tag &gt;</text>
</a>
</g>
</g>
<!-- Node2&#45;&gt;Node1 -->
<g id="edge1_Node000001_Node000002" class="edge">
<title>Node2&#45;&gt;Node1</title>
<g id="a_edge1_Node000001_Node000002"><a xlink:title=" ">
<path fill="none" stroke="#63b8ff" d="M62.75,-57.81C62.75,-49.59 62.75,-40.84 62.75,-33.63"/>
<polygon fill="#63b8ff" stroke="#63b8ff" points="59.25,-57.74 62.75,-67.74 66.25,-57.74 59.25,-57.74"/>
</a>
</g>
</g>
<!-- Node3 -->
<g id="Node000003" class="node">
<title>Node3</title>
<g id="a_Node000003"><a xlink:href="structdi_1_1util_1_1Immovable.html" target="_top" xlink:title=" ">
<polygon fill="white" stroke="#666666" points="116.88,-159.75 8.62,-159.75 8.62,-139 116.88,-139 116.88,-159.75"/>
<text text-anchor="middle" x="62.75" y="-146.25" font-family="Helvetica,sans-Serif" font-size="10.00">di::util::Immovable</text>
</a>
</g>
</g>
<!-- Node3&#45;&gt;Node2 -->
<g id="edge2_Node000002_Node000003" class="edge">
<title>Node3&#45;&gt;Node2</title>
<g id="a_edge2_Node000002_Node000003"><a xlink:title=" ">
<path fill="none" stroke="#8b1a1a" d="M62.75,-127.09C62.75,-119.35 62.75,-110.72 62.75,-103.48"/>
<polygon fill="#8b1a1a" stroke="#8b1a1a" points="59.25,-127.04 62.75,-137.04 66.25,-127.04 59.25,-127.04"/>
</a>
</g>
</g>
</g>
</svg>
