<?xml version="1.0" encoding="UTF-8" standalone="no"?>
<!DOCTYPE svg PUBLIC "-//W3C//DTD SVG 1.1//EN"
 "http://www.w3.org/Graphics/SVG/1.1/DTD/svg11.dtd">
<!-- Generated by graphviz version 12.2.1 (0)
 -->
<!-- Title: di::container::DefaultIntrusiveForwardListTag Pages: 1 -->
<svg width="647pt" height="54pt"
 viewBox="0.00 0.00 647.00 54.25" xmlns="http://www.w3.org/2000/svg" xmlns:xlink="http://www.w3.org/1999/xlink">
<g id="graph0" class="graph" transform="scale(1 1) rotate(0) translate(4 50.25)">
<title>di::container::DefaultIntrusiveForwardListTag</title>
<!-- Node1 -->
<g id="Node000001" class="node">
<title>Node1</title>
<g id="a_Node000001"><a xlink:title=" ">
<polygon fill="#999999" stroke="#666666" points="639,-39.88 477.5,-39.88 477.5,-6.38 639,-6.38 639,-39.88"/>
<text text-anchor="start" x="485.5" y="-26.38" font-family="Helvetica,sans-Serif" font-size="10.00">di::container::DefaultIntrusive</text>
<text text-anchor="middle" x="558.25" y="-13.62" font-family="Helvetica,sans-Serif" font-size="10.00">ForwardListTag</text>
</a>
</g>
</g>
<!-- Node2 -->
<g id="Node000002" class="node">
<title>Node2</title>
<g id="a_Node000002"><a xlink:href="structdi_1_1container_1_1IntrusiveForwardListTag.html" target="_top" xlink:title=" ">
<polygon fill="white" stroke="#666666" points="441.5,-46.25 262.75,-46.25 262.75,0 441.5,0 441.5,-46.25"/>
<text text-anchor="start" x="270.75" y="-32.75" font-family="Helvetica,sans-Serif" font-size="10.00">di::container::Intrusive</text>
<text text-anchor="start" x="270.75" y="-20" font-family="Helvetica,sans-Serif" font-size="10.00">ForwardListTag&lt; DefaultIntrusive</text>
<text text-anchor="middle" x="352.12" y="-7.25" font-family="Helvetica,sans-Serif" font-size="10.00">ForwardListTag &gt;</text>
</a>
</g>
</g>
<!-- Node2&#45;&gt;Node1 -->
<g id="edge1_Node000001_Node000002" class="edge">
<title>Node2&#45;&gt;Node1</title>
<g id="a_edge1_Node000001_Node000002"><a xlink:title=" ">
<path fill="none" stroke="#63b8ff" d="M453.09,-23.12C461.12,-23.12 469.17,-23.12 477.04,-23.12"/>
<polygon fill="#63b8ff" stroke="#63b8ff" points="453.28,-19.63 443.28,-23.13 453.28,-26.63 453.28,-19.63"/>
</a>
</g>
</g>
<!-- Node3 -->
<g id="Node000003" class="node">
<title>Node3</title>
<g id="a_Node000003"><a xlink:href="structdi_1_1container_1_1IntrusiveTagBase.html" target="_top" xlink:title=" ">
<polygon fill="white" stroke="#666666" points="226.75,-46.25 0,-46.25 0,0 226.75,0 226.75,-46.25"/>
<text text-anchor="start" x="8" y="-32.75" font-family="Helvetica,sans-Serif" font-size="10.00">di::container::Intrusive</text>
<text text-anchor="start" x="8" y="-20" font-family="Helvetica,sans-Serif" font-size="10.00">TagBase&lt; IntrusiveForwardList</text>
<text text-anchor="middle" x="113.38" y="-7.25" font-family="Helvetica,sans-Serif" font-size="10.00">Node&lt; DefaultIntrusiveForwardListTag &gt; &gt;</text>
</a>
</g>
</g>
<!-- Node3&#45;&gt;Node2 -->
<g id="edge2_Node000002_Node000003" class="edge">
<title>Node3&#45;&gt;Node2</title>
<g id="a_edge2_Node000002_Node000003"><a xlink:title=" ">
<path fill="none" stroke="#63b8ff" d="M238.54,-23.12C246.55,-23.12 254.53,-23.12 262.33,-23.12"/>
<polygon fill="#63b8ff" stroke="#63b8ff" points="238.72,-19.63 228.72,-23.13 238.72,-26.63 238.72,-19.63"/>
</a>
</g>
</g>
</g>
</svg>
