<?xml version="1.0" encoding="UTF-8" standalone="no"?>
<!DOCTYPE svg PUBLIC "-//W3C//DTD SVG 1.1//EN"
 "http://www.w3.org/Graphics/SVG/1.1/DTD/svg11.dtd">
<!-- Generated by graphviz version 10.0.1 (0)
 -->
<!-- Title: di::execution::RunLoop&lt; Lock &gt;::OperationStateT&lt; Receiver &gt;::Type Pages: 1 -->
<svg width="173pt" height="250pt"
 viewBox="0.00 0.00 172.50 250.00" xmlns="http://www.w3.org/2000/svg" xmlns:xlink="http://www.w3.org/1999/xlink">
<g id="graph0" class="graph" transform="scale(1 1) rotate(0) translate(4 246)">
<title>di::execution::RunLoop&lt; Lock &gt;::OperationStateT&lt; Receiver &gt;::Type</title>
<!-- Node1 -->
<g id="Node000001" class="node">
<title>Node1</title>
<g id="a_Node000001"><a xlink:title=" ">
<polygon fill="#999999" stroke="#666666" points="155.5,-46.25 9,-46.25 9,0 155.5,0 155.5,-46.25"/>
<text text-anchor="start" x="17" y="-32.75" font-family="Helvetica,sans-Serif" font-size="10.00">di::execution::RunLoop</text>
<text text-anchor="start" x="17" y="-20" font-family="Helvetica,sans-Serif" font-size="10.00">&lt; Lock &gt;::OperationStateT</text>
<text text-anchor="middle" x="82.25" y="-7.25" font-family="Helvetica,sans-Serif" font-size="10.00">&lt; Receiver &gt;::Type</text>
</a>
</g>
</g>
<!-- Node2 -->
<g id="Node000002" class="node">
<title>Node2</title>
<g id="a_Node000002"><a xlink:title=" ">
<polygon fill="white" stroke="#666666" points="164.5,-115.75 0,-115.75 0,-82.25 164.5,-82.25 164.5,-115.75"/>
<text text-anchor="start" x="8" y="-102.25" font-family="Helvetica,sans-Serif" font-size="10.00">di::execution::RunLoop</text>
<text text-anchor="middle" x="82.25" y="-89.5" font-family="Helvetica,sans-Serif" font-size="10.00">&lt; Lock &gt;::OperationStateBase</text>
</a>
</g>
</g>
<!-- Node2&#45;&gt;Node1 -->
<g id="edge1_Node000001_Node000002" class="edge">
<title>Node2&#45;&gt;Node1</title>
<g id="a_edge1_Node000001_Node000002"><a xlink:title=" ">
<path fill="none" stroke="#63b8ff" d="M82.25,-70.64C82.25,-62.71 82.25,-54.16 82.25,-46.57"/>
<polygon fill="#63b8ff" stroke="#63b8ff" points="78.75,-70.46 82.25,-80.46 85.75,-70.46 78.75,-70.46"/>
</a>
</g>
</g>
<!-- Node3 -->
<g id="Node000003" class="node">
<title>Node3</title>
<g id="a_Node000003"><a xlink:href="classdi_1_1container_1_1IntrusiveForwardListNode.html" target="_top" xlink:title=" ">
<polygon fill="white" stroke="#666666" points="150.62,-185.25 13.88,-185.25 13.88,-151.75 150.62,-151.75 150.62,-185.25"/>
<text text-anchor="start" x="21.88" y="-171.75" font-family="Helvetica,sans-Serif" font-size="10.00">di::container::Intrusive</text>
<text text-anchor="middle" x="82.25" y="-159" font-family="Helvetica,sans-Serif" font-size="10.00">ForwardListNode&lt; Tag &gt;</text>
</a>
</g>
</g>
<!-- Node3&#45;&gt;Node2 -->
<g id="edge2_Node000002_Node000003" class="edge">
<title>Node3&#45;&gt;Node2</title>
<g id="a_edge2_Node000002_Node000003"><a xlink:title=" ">
<path fill="none" stroke="#63b8ff" d="M82.25,-140.06C82.25,-131.84 82.25,-123.09 82.25,-115.88"/>
<polygon fill="#63b8ff" stroke="#63b8ff" points="78.75,-139.99 82.25,-149.99 85.75,-139.99 78.75,-139.99"/>
</a>
</g>
</g>
<!-- Node4 -->
<g id="Node000004" class="node">
<title>Node4</title>
<g id="a_Node000004"><a xlink:href="structdi_1_1util_1_1Immovable.html" target="_top" xlink:title=" ">
<polygon fill="white" stroke="#666666" points="136.38,-242 28.12,-242 28.12,-221.25 136.38,-221.25 136.38,-242"/>
<text text-anchor="middle" x="82.25" y="-228.5" font-family="Helvetica,sans-Serif" font-size="10.00">di::util::Immovable</text>
</a>
</g>
</g>
<!-- Node4&#45;&gt;Node3 -->
<g id="edge3_Node000003_Node000004" class="edge">
<title>Node4&#45;&gt;Node3</title>
<g id="a_edge3_Node000003_Node000004"><a xlink:title=" ">
<path fill="none" stroke="#8b1a1a" d="M82.25,-209.34C82.25,-201.6 82.25,-192.97 82.25,-185.73"/>
<polygon fill="#8b1a1a" stroke="#8b1a1a" points="78.75,-209.29 82.25,-219.29 85.75,-209.29 78.75,-209.29"/>
</a>
</g>
</g>
</g>
</svg>
