<?xml version="1.0" encoding="UTF-8" standalone="no"?>
<!DOCTYPE svg PUBLIC "-//W3C//DTD SVG 1.1//EN"
 "http://www.w3.org/Graphics/SVG/1.1/DTD/svg11.dtd">
<!-- Generated by graphviz version 10.0.1 (0)
 -->
<!-- Title: di::container::erase_ns::EraseFunction Pages: 1 -->
<svg width="125pt" height="193pt"
 viewBox="0.00 0.00 125.25 193.25" xmlns="http://www.w3.org/2000/svg" xmlns:xlink="http://www.w3.org/1999/xlink">
<g id="graph0" class="graph" transform="scale(1 1) rotate(0) translate(4 189.25)">
<title>di::container::erase_ns::EraseFunction</title>
<!-- Node1 -->
<g id="Node000001" class="node">
<title>Node1</title>
<g id="a_Node000001"><a xlink:title=" ">
<polygon fill="#999999" stroke="#666666" points="113.5,-33.5 3.75,-33.5 3.75,0 113.5,0 113.5,-33.5"/>
<text text-anchor="start" x="11.75" y="-20" font-family="Helvetica,sans-Serif" font-size="10.00">di::container::erase</text>
<text text-anchor="middle" x="58.62" y="-7.25" font-family="Helvetica,sans-Serif" font-size="10.00">_ns::EraseFunction</text>
</a>
</g>
</g>
<!-- Node2 -->
<g id="Node000002" class="node">
<title>Node2</title>
<g id="a_Node000002"><a xlink:href="structdi_1_1function_1_1curry__back__ns_1_1CurryBack.html" target="_top" xlink:title=" ">
<polygon fill="white" stroke="#666666" points="117.25,-115.75 0,-115.75 0,-69.5 117.25,-69.5 117.25,-115.75"/>
<text text-anchor="start" x="8" y="-102.25" font-family="Helvetica,sans-Serif" font-size="10.00">di::function::curry</text>
<text text-anchor="start" x="8" y="-89.5" font-family="Helvetica,sans-Serif" font-size="10.00">_back_ns::CurryBack</text>
<text text-anchor="middle" x="58.62" y="-76.75" font-family="Helvetica,sans-Serif" font-size="10.00">&lt; Self &gt;</text>
</a>
</g>
</g>
<!-- Node2&#45;&gt;Node1 -->
<g id="edge1_Node000001_Node000002" class="edge">
<title>Node2&#45;&gt;Node1</title>
<g id="a_edge1_Node000001_Node000002"><a xlink:title=" ">
<path fill="none" stroke="#63b8ff" d="M58.62,-57.64C58.62,-49.35 58.62,-40.86 58.62,-33.85"/>
<polygon fill="#63b8ff" stroke="#63b8ff" points="55.13,-57.55 58.63,-67.55 62.13,-57.55 55.13,-57.55"/>
</a>
</g>
</g>
<!-- Node3 -->
<g id="Node000003" class="node">
<title>Node3</title>
<g id="a_Node000003"><a xlink:href="structdi_1_1function_1_1pipeline_1_1EnablePipeline.html" target="_top" xlink:title=" ">
<polygon fill="white" stroke="#666666" points="116.5,-185.25 0.75,-185.25 0.75,-151.75 116.5,-151.75 116.5,-185.25"/>
<text text-anchor="start" x="8.75" y="-171.75" font-family="Helvetica,sans-Serif" font-size="10.00">di::function::pipeline</text>
<text text-anchor="middle" x="58.62" y="-159" font-family="Helvetica,sans-Serif" font-size="10.00">::EnablePipeline</text>
</a>
</g>
</g>
<!-- Node3&#45;&gt;Node2 -->
<g id="edge2_Node000002_Node000003" class="edge">
<title>Node3&#45;&gt;Node2</title>
<g id="a_edge2_Node000002_Node000003"><a xlink:title=" ">
<path fill="none" stroke="#63b8ff" d="M58.62,-140.14C58.62,-132.21 58.62,-123.66 58.62,-116.07"/>
<polygon fill="#63b8ff" stroke="#63b8ff" points="55.13,-139.96 58.63,-149.96 62.13,-139.96 55.13,-139.96"/>
</a>
</g>
</g>
</g>
</svg>
