<?xml version="1.0" encoding="UTF-8" standalone="no"?>
<!DOCTYPE svg PUBLIC "-//W3C//DTD SVG 1.1//EN"
 "http://www.w3.org/Graphics/SVG/1.1/DTD/svg11.dtd">
<!-- Generated by graphviz version 10.0.1 (0)
 -->
<!-- Title: di::container::detail::TreeMapTag&lt; Key, Value &gt; Pages: 1 -->
<svg width="172pt" height="193pt"
 viewBox="0.00 0.00 171.75 193.25" xmlns="http://www.w3.org/2000/svg" xmlns:xlink="http://www.w3.org/1999/xlink">
<g id="graph0" class="graph" transform="scale(1 1) rotate(0) translate(4 189.25)">
<title>di::container::detail::TreeMapTag&lt; Key, Value &gt;</title>
<!-- Node1 -->
<g id="Node000001" class="node">
<title>Node1</title>
<g id="a_Node000001"><a xlink:title=" ">
<polygon fill="#999999" stroke="#666666" points="158.5,-33.5 5.25,-33.5 5.25,0 158.5,0 158.5,-33.5"/>
<text text-anchor="start" x="13.25" y="-20" font-family="Helvetica,sans-Serif" font-size="10.00">di::container::detail</text>
<text text-anchor="middle" x="81.88" y="-7.25" font-family="Helvetica,sans-Serif" font-size="10.00">::TreeMapTag&lt; Key, Value &gt;</text>
</a>
</g>
</g>
<!-- Node2 -->
<g id="Node000002" class="node">
<title>Node2</title>
<g id="a_Node000002"><a xlink:href="structdi_1_1container_1_1OwningRBTreeTag.html" target="_top" xlink:title=" ">
<polygon fill="white" stroke="#666666" points="163.75,-115.75 0,-115.75 0,-69.5 163.75,-69.5 163.75,-115.75"/>
<text text-anchor="start" x="8" y="-102.25" font-family="Helvetica,sans-Serif" font-size="10.00">di::container::OwningRBTree</text>
<text text-anchor="start" x="8" y="-89.5" font-family="Helvetica,sans-Serif" font-size="10.00">Tag&lt; TreeMapTag&lt; Key, Value</text>
<text text-anchor="middle" x="81.88" y="-76.75" font-family="Helvetica,sans-Serif" font-size="10.00"> &gt;, Tuple&lt; Key, Value &gt; &gt;</text>
</a>
</g>
</g>
<!-- Node2&#45;&gt;Node1 -->
<g id="edge1_Node000001_Node000002" class="edge">
<title>Node2&#45;&gt;Node1</title>
<g id="a_edge1_Node000001_Node000002"><a xlink:title=" ">
<path fill="none" stroke="#63b8ff" d="M81.88,-57.64C81.88,-49.35 81.88,-40.86 81.88,-33.85"/>
<polygon fill="#63b8ff" stroke="#63b8ff" points="78.38,-57.55 81.88,-67.55 85.38,-57.55 78.38,-57.55"/>
</a>
</g>
</g>
<!-- Node3 -->
<g id="Node000003" class="node">
<title>Node3</title>
<g id="a_Node000003"><a xlink:href="structdi_1_1container_1_1IntrusiveTagBase.html" target="_top" xlink:title=" ">
<polygon fill="white" stroke="#666666" points="145.38,-185.25 18.37,-185.25 18.37,-151.75 145.38,-151.75 145.38,-185.25"/>
<text text-anchor="start" x="26.38" y="-171.75" font-family="Helvetica,sans-Serif" font-size="10.00">di::container::Intrusive</text>
<text text-anchor="middle" x="81.88" y="-159" font-family="Helvetica,sans-Serif" font-size="10.00">TagBase&lt; NodeType &gt;</text>
</a>
</g>
</g>
<!-- Node3&#45;&gt;Node2 -->
<g id="edge2_Node000002_Node000003" class="edge">
<title>Node3&#45;&gt;Node2</title>
<g id="a_edge2_Node000002_Node000003"><a xlink:title=" ">
<path fill="none" stroke="#63b8ff" d="M81.88,-140.14C81.88,-132.21 81.88,-123.66 81.88,-116.07"/>
<polygon fill="#63b8ff" stroke="#63b8ff" points="78.38,-139.96 81.88,-149.96 85.38,-139.96 78.38,-139.96"/>
</a>
</g>
</g>
</g>
</svg>
