<?xml version="1.0" encoding="UTF-8" standalone="no"?>
<!DOCTYPE svg PUBLIC "-//W3C//DTD SVG 1.1//EN"
 "http://www.w3.org/Graphics/SVG/1.1/DTD/svg11.dtd">
<!-- Generated by graphviz version 10.0.1 (0)
 -->
<!-- Title: di::types::RandomAccessIteratorTag Pages: 1 -->
<svg width="199pt" height="269pt"
 viewBox="0.00 0.00 198.75 268.50" xmlns="http://www.w3.org/2000/svg" xmlns:xlink="http://www.w3.org/1999/xlink">
<g id="graph0" class="graph" transform="scale(1 1) rotate(0) translate(4 264.5)">
<title>di::types::RandomAccessIteratorTag</title>
<!-- Node1 -->
<g id="Node000001" class="node">
<title>Node1</title>
<g id="a_Node000001"><a xlink:title=" ">
<polygon fill="#999999" stroke="#666666" points="190.75,-77.5 0,-77.5 0,-56.75 190.75,-56.75 190.75,-77.5"/>
<text text-anchor="middle" x="95.38" y="-64" font-family="Helvetica,sans-Serif" font-size="10.00">di::types::RandomAccessIteratorTag</text>
</a>
</g>
</g>
<!-- Node5 -->
<g id="Node000005" class="node">
<title>Node5</title>
<g id="a_Node000005"><a xlink:href="structdi_1_1types_1_1ContiguousIteratorTag.html" target="_top" xlink:title=" ">
<polygon fill="white" stroke="#666666" points="181,-20.75 9.75,-20.75 9.75,0 181,0 181,-20.75"/>
<text text-anchor="middle" x="95.38" y="-7.25" font-family="Helvetica,sans-Serif" font-size="10.00">di::types::ContiguousIteratorTag</text>
</a>
</g>
</g>
<!-- Node1&#45;&gt;Node5 -->
<g id="edge4_Node000001_Node000005" class="edge">
<title>Node1&#45;&gt;Node5</title>
<g id="a_edge4_Node000001_Node000005"><a xlink:title=" ">
<path fill="none" stroke="#63b8ff" d="M95.38,-44.88C95.38,-36.66 95.38,-27.68 95.38,-21.08"/>
<polygon fill="#63b8ff" stroke="#63b8ff" points="91.88,-44.82 95.38,-54.82 98.88,-44.82 91.88,-44.82"/>
</a>
</g>
</g>
<!-- Node2 -->
<g id="Node000002" class="node">
<title>Node2</title>
<g id="a_Node000002"><a xlink:href="structdi_1_1types_1_1BidirectionalIteratorTag.html" target="_top" xlink:title=" ">
<polygon fill="white" stroke="#666666" points="158.12,-147 32.62,-147 32.62,-113.5 158.12,-113.5 158.12,-147"/>
<text text-anchor="start" x="40.62" y="-133.5" font-family="Helvetica,sans-Serif" font-size="10.00">di::types::Bidirectional</text>
<text text-anchor="middle" x="95.38" y="-120.75" font-family="Helvetica,sans-Serif" font-size="10.00">IteratorTag</text>
</a>
</g>
</g>
<!-- Node2&#45;&gt;Node1 -->
<g id="edge1_Node000001_Node000002" class="edge">
<title>Node2&#45;&gt;Node1</title>
<g id="a_edge1_Node000001_Node000002"><a xlink:title=" ">
<path fill="none" stroke="#63b8ff" d="M95.38,-101.69C95.38,-93.21 95.38,-84.42 95.38,-77.97"/>
<polygon fill="#63b8ff" stroke="#63b8ff" points="91.88,-101.68 95.38,-111.68 98.88,-101.68 91.88,-101.68"/>
</a>
</g>
</g>
<!-- Node3 -->
<g id="Node000003" class="node">
<title>Node3</title>
<g id="a_Node000003"><a xlink:href="structdi_1_1types_1_1ForwardIteratorTag.html" target="_top" xlink:title=" ">
<polygon fill="white" stroke="#666666" points="173.12,-203.75 17.62,-203.75 17.62,-183 173.12,-183 173.12,-203.75"/>
<text text-anchor="middle" x="95.38" y="-190.25" font-family="Helvetica,sans-Serif" font-size="10.00">di::types::ForwardIteratorTag</text>
</a>
</g>
</g>
<!-- Node3&#45;&gt;Node2 -->
<g id="edge2_Node000002_Node000003" class="edge">
<title>Node3&#45;&gt;Node2</title>
<g id="a_edge2_Node000002_Node000003"><a xlink:title=" ">
<path fill="none" stroke="#63b8ff" d="M95.38,-171.09C95.38,-163.35 95.38,-154.72 95.38,-147.48"/>
<polygon fill="#63b8ff" stroke="#63b8ff" points="91.88,-171.04 95.38,-181.04 98.88,-171.04 91.88,-171.04"/>
</a>
</g>
</g>
<!-- Node4 -->
<g id="Node000004" class="node">
<title>Node4</title>
<g id="a_Node000004"><a xlink:href="structdi_1_1types_1_1InputIteratorTag.html" target="_top" xlink:title=" ">
<polygon fill="white" stroke="#666666" points="166,-260.5 24.75,-260.5 24.75,-239.75 166,-239.75 166,-260.5"/>
<text text-anchor="middle" x="95.38" y="-247" font-family="Helvetica,sans-Serif" font-size="10.00">di::types::InputIteratorTag</text>
</a>
</g>
</g>
<!-- Node4&#45;&gt;Node3 -->
<g id="edge3_Node000003_Node000004" class="edge">
<title>Node4&#45;&gt;Node3</title>
<g id="a_edge3_Node000003_Node000004"><a xlink:title=" ">
<path fill="none" stroke="#63b8ff" d="M95.38,-227.88C95.38,-219.66 95.38,-210.68 95.38,-204.08"/>
<polygon fill="#63b8ff" stroke="#63b8ff" points="91.88,-227.82 95.38,-237.82 98.88,-227.82 91.88,-227.82"/>
</a>
</g>
</g>
</g>
</svg>
