<?xml version="1.0" encoding="UTF-8" standalone="no"?>
<!DOCTYPE svg PUBLIC "-//W3C//DTD SVG 1.1//EN"
 "http://www.w3.org/Graphics/SVG/1.1/DTD/svg11.dtd">
<!-- Generated by graphviz version 10.0.1 (0)
 -->
<!-- Title: dius::linux::CloseSender::OperationStateT&lt; Rec &gt;::Type Pages: 1 -->
<svg width="178pt" height="237pt"
 viewBox="0.00 0.00 177.75 237.25" xmlns="http://www.w3.org/2000/svg" xmlns:xlink="http://www.w3.org/1999/xlink">
<g id="graph0" class="graph" transform="scale(1 1) rotate(0) translate(4 233.25)">
<title>dius::linux::CloseSender::OperationStateT&lt; Rec &gt;::Type</title>
<!-- Node1 -->
<g id="Node000001" class="node">
<title>Node1</title>
<g id="a_Node000001"><a xlink:title=" ">
<polygon fill="#999999" stroke="#666666" points="151.38,-46.25 18.38,-46.25 18.38,0 151.38,0 151.38,-46.25"/>
<text text-anchor="start" x="26.38" y="-32.75" font-family="Helvetica,sans-Serif" font-size="10.00">dius::linux::CloseSender</text>
<text text-anchor="start" x="26.38" y="-20" font-family="Helvetica,sans-Serif" font-size="10.00">::OperationStateT&lt; Rec</text>
<text text-anchor="middle" x="84.88" y="-7.25" font-family="Helvetica,sans-Serif" font-size="10.00"> &gt;::Type</text>
</a>
</g>
</g>
<!-- Node2 -->
<g id="Node000002" class="node">
<title>Node2</title>
<g id="a_Node000002"><a xlink:href="structdius_1_1linux_1_1OperationStateBase.html" target="_top" xlink:title=" ">
<polygon fill="white" stroke="#666666" points="169.75,-103 0,-103 0,-82.25 169.75,-82.25 169.75,-103"/>
<text text-anchor="middle" x="84.88" y="-89.5" font-family="Helvetica,sans-Serif" font-size="10.00">dius::linux::OperationStateBase</text>
</a>
</g>
</g>
<!-- Node2&#45;&gt;Node1 -->
<g id="edge1_Node000001_Node000002" class="edge">
<title>Node2&#45;&gt;Node1</title>
<g id="a_edge1_Node000001_Node000002"><a xlink:title=" ">
<path fill="none" stroke="#63b8ff" d="M84.88,-70.46C84.88,-62.87 84.88,-54.3 84.88,-46.61"/>
<polygon fill="#63b8ff" stroke="#63b8ff" points="81.38,-70.44 84.88,-80.44 88.38,-70.44 81.38,-70.44"/>
</a>
</g>
</g>
<!-- Node3 -->
<g id="Node000003" class="node">
<title>Node3</title>
<g id="a_Node000003"><a xlink:href="classdi_1_1container_1_1IntrusiveForwardListNode.html" target="_top" xlink:title=" ">
<polygon fill="white" stroke="#666666" points="153.25,-172.5 16.5,-172.5 16.5,-139 153.25,-139 153.25,-172.5"/>
<text text-anchor="start" x="24.5" y="-159" font-family="Helvetica,sans-Serif" font-size="10.00">di::container::Intrusive</text>
<text text-anchor="middle" x="84.88" y="-146.25" font-family="Helvetica,sans-Serif" font-size="10.00">ForwardListNode&lt; Tag &gt;</text>
</a>
</g>
</g>
<!-- Node3&#45;&gt;Node2 -->
<g id="edge2_Node000002_Node000003" class="edge">
<title>Node3&#45;&gt;Node2</title>
<g id="a_edge2_Node000002_Node000003"><a xlink:title=" ">
<path fill="none" stroke="#63b8ff" d="M84.88,-127.19C84.88,-118.71 84.88,-109.92 84.88,-103.47"/>
<polygon fill="#63b8ff" stroke="#63b8ff" points="81.38,-127.18 84.88,-137.18 88.38,-127.18 81.38,-127.18"/>
</a>
</g>
</g>
<!-- Node4 -->
<g id="Node000004" class="node">
<title>Node4</title>
<g id="a_Node000004"><a xlink:href="structdi_1_1util_1_1Immovable.html" target="_top" xlink:title=" ">
<polygon fill="white" stroke="#666666" points="139,-229.25 30.75,-229.25 30.75,-208.5 139,-208.5 139,-229.25"/>
<text text-anchor="middle" x="84.88" y="-215.75" font-family="Helvetica,sans-Serif" font-size="10.00">di::util::Immovable</text>
</a>
</g>
</g>
<!-- Node4&#45;&gt;Node3 -->
<g id="edge3_Node000003_Node000004" class="edge">
<title>Node4&#45;&gt;Node3</title>
<g id="a_edge3_Node000003_Node000004"><a xlink:title=" ">
<path fill="none" stroke="#8b1a1a" d="M84.88,-196.59C84.88,-188.85 84.88,-180.22 84.88,-172.98"/>
<polygon fill="#8b1a1a" stroke="#8b1a1a" points="81.38,-196.54 84.88,-206.54 88.38,-196.54 81.38,-196.54"/>
</a>
</g>
</g>
</g>
</svg>
