<?xml version="1.0" encoding="UTF-8" standalone="no"?>
<!DOCTYPE svg PUBLIC "-//W3C//DTD SVG 1.1//EN"
 "http://www.w3.org/Graphics/SVG/1.1/DTD/svg11.dtd">
<!-- Generated by graphviz version 10.0.1 (0)
 -->
<!-- Title: dius::runtime::detail::FreeListNode Pages: 1 -->
<svg width="145pt" height="168pt"
 viewBox="0.00 0.00 144.75 167.75" xmlns="http://www.w3.org/2000/svg" xmlns:xlink="http://www.w3.org/1999/xlink">
<g id="graph0" class="graph" transform="scale(1 1) rotate(0) translate(4 163.75)">
<title>dius::runtime::detail::FreeListNode</title>
<!-- Node1 -->
<g id="Node000001" class="node">
<title>Node1</title>
<g id="a_Node000001"><a xlink:title=" ">
<polygon fill="#999999" stroke="#666666" points="125.5,-33.5 11.25,-33.5 11.25,0 125.5,0 125.5,-33.5"/>
<text text-anchor="start" x="19.25" y="-20" font-family="Helvetica,sans-Serif" font-size="10.00">dius::runtime::detail</text>
<text text-anchor="middle" x="68.38" y="-7.25" font-family="Helvetica,sans-Serif" font-size="10.00">::FreeListNode</text>
</a>
</g>
</g>
<!-- Node2 -->
<g id="Node000002" class="node">
<title>Node2</title>
<g id="a_Node000002"><a xlink:href="classdi_1_1container_1_1IntrusiveForwardListNode.html" target="_top" xlink:title=" ">
<polygon fill="white" stroke="#666666" points="136.75,-103 0,-103 0,-69.5 136.75,-69.5 136.75,-103"/>
<text text-anchor="start" x="8" y="-89.5" font-family="Helvetica,sans-Serif" font-size="10.00">di::container::Intrusive</text>
<text text-anchor="middle" x="68.38" y="-76.75" font-family="Helvetica,sans-Serif" font-size="10.00">ForwardListNode&lt; Tag &gt;</text>
</a>
</g>
</g>
<!-- Node2&#45;&gt;Node1 -->
<g id="edge1_Node000001_Node000002" class="edge">
<title>Node2&#45;&gt;Node1</title>
<g id="a_edge1_Node000001_Node000002"><a xlink:title=" ">
<path fill="none" stroke="#63b8ff" d="M68.38,-57.81C68.38,-49.59 68.38,-40.84 68.38,-33.63"/>
<polygon fill="#63b8ff" stroke="#63b8ff" points="64.88,-57.74 68.38,-67.74 71.88,-57.74 64.88,-57.74"/>
</a>
</g>
</g>
<!-- Node3 -->
<g id="Node000003" class="node">
<title>Node3</title>
<g id="a_Node000003"><a xlink:href="structdi_1_1util_1_1Immovable.html" target="_top" xlink:title=" ">
<polygon fill="white" stroke="#666666" points="122.5,-159.75 14.25,-159.75 14.25,-139 122.5,-139 122.5,-159.75"/>
<text text-anchor="middle" x="68.38" y="-146.25" font-family="Helvetica,sans-Serif" font-size="10.00">di::util::Immovable</text>
</a>
</g>
</g>
<!-- Node3&#45;&gt;Node2 -->
<g id="edge2_Node000002_Node000003" class="edge">
<title>Node3&#45;&gt;Node2</title>
<g id="a_edge2_Node000002_Node000003"><a xlink:title=" ">
<path fill="none" stroke="#8b1a1a" d="M68.38,-127.09C68.38,-119.35 68.38,-110.72 68.38,-103.48"/>
<polygon fill="#8b1a1a" stroke="#8b1a1a" points="64.88,-127.04 68.38,-137.04 71.88,-127.04 64.88,-127.04"/>
</a>
</g>
</g>
</g>
</svg>
