<?xml version="1.0" encoding="UTF-8" standalone="no"?>
<!DOCTYPE svg PUBLIC "-//W3C//DTD SVG 1.1//EN"
 "http://www.w3.org/Graphics/SVG/1.1/DTD/svg11.dtd">
<!-- Generated by graphviz version 10.0.1 (0)
 -->
<!-- Title: di::container::DefaultIntrusiveForwardListTag Pages: 1 -->
<svg width="187pt" height="193pt"
 viewBox="0.00 0.00 186.75 193.25" xmlns="http://www.w3.org/2000/svg" xmlns:xlink="http://www.w3.org/1999/xlink">
<g id="graph0" class="graph" transform="scale(1 1) rotate(0) translate(4 189.25)">
<title>di::container::DefaultIntrusiveForwardListTag</title>
<!-- Node1 -->
<g id="Node000001" class="node">
<title>Node1</title>
<g id="a_Node000001"><a xlink:title=" ">
<polygon fill="#999999" stroke="#666666" points="170.12,-33.5 8.62,-33.5 8.62,0 170.12,0 170.12,-33.5"/>
<text text-anchor="start" x="16.62" y="-20" font-family="Helvetica,sans-Serif" font-size="10.00">di::container::DefaultIntrusive</text>
<text text-anchor="middle" x="89.38" y="-7.25" font-family="Helvetica,sans-Serif" font-size="10.00">ForwardListTag</text>
</a>
</g>
</g>
<!-- Node2 -->
<g id="Node000002" class="node">
<title>Node2</title>
<g id="a_Node000002"><a xlink:href="structdi_1_1container_1_1IntrusiveForwardListTag.html" target="_top" xlink:title=" ">
<polygon fill="white" stroke="#666666" points="178.75,-115.75 0,-115.75 0,-69.5 178.75,-69.5 178.75,-115.75"/>
<text text-anchor="start" x="8" y="-102.25" font-family="Helvetica,sans-Serif" font-size="10.00">di::container::Intrusive</text>
<text text-anchor="start" x="8" y="-89.5" font-family="Helvetica,sans-Serif" font-size="10.00">ForwardListTag&lt; DefaultIntrusive</text>
<text text-anchor="middle" x="89.38" y="-76.75" font-family="Helvetica,sans-Serif" font-size="10.00">ForwardListTag &gt;</text>
</a>
</g>
</g>
<!-- Node2&#45;&gt;Node1 -->
<g id="edge1_Node000001_Node000002" class="edge">
<title>Node2&#45;&gt;Node1</title>
<g id="a_edge1_Node000001_Node000002"><a xlink:title=" ">
<path fill="none" stroke="#63b8ff" d="M89.38,-57.64C89.38,-49.35 89.38,-40.86 89.38,-33.85"/>
<polygon fill="#63b8ff" stroke="#63b8ff" points="85.88,-57.55 89.38,-67.55 92.88,-57.55 85.88,-57.55"/>
</a>
</g>
</g>
<!-- Node3 -->
<g id="Node000003" class="node">
<title>Node3</title>
<g id="a_Node000003"><a xlink:href="structdi_1_1container_1_1IntrusiveTagBase.html" target="_top" xlink:title=" ">
<polygon fill="white" stroke="#666666" points="152.88,-185.25 25.87,-185.25 25.87,-151.75 152.88,-151.75 152.88,-185.25"/>
<text text-anchor="start" x="33.88" y="-171.75" font-family="Helvetica,sans-Serif" font-size="10.00">di::container::Intrusive</text>
<text text-anchor="middle" x="89.38" y="-159" font-family="Helvetica,sans-Serif" font-size="10.00">TagBase&lt; NodeType &gt;</text>
</a>
</g>
</g>
<!-- Node3&#45;&gt;Node2 -->
<g id="edge2_Node000002_Node000003" class="edge">
<title>Node3&#45;&gt;Node2</title>
<g id="a_edge2_Node000002_Node000003"><a xlink:title=" ">
<path fill="none" stroke="#63b8ff" d="M89.38,-140.14C89.38,-132.21 89.38,-123.66 89.38,-116.07"/>
<polygon fill="#63b8ff" stroke="#63b8ff" points="85.88,-139.96 89.38,-149.96 92.88,-139.96 85.88,-139.96"/>
</a>
</g>
</g>
</g>
</svg>
