<?xml version="1.0" encoding="UTF-8" standalone="no"?>
<!DOCTYPE svg PUBLIC "-//W3C//DTD SVG 1.1//EN"
 "http://www.w3.org/Graphics/SVG/1.1/DTD/svg11.dtd">
<!-- Generated by graphviz version 10.0.1 (0)
 -->
<!-- Title: di::meta::detail::CommonTypeHelper&lt; T, U &gt; Pages: 1 -->
<svg width="342pt" height="247pt"
 viewBox="0.00 0.00 341.50 246.50" xmlns="http://www.w3.org/2000/svg" xmlns:xlink="http://www.w3.org/1999/xlink">
<g id="graph0" class="graph" transform="scale(1 1) rotate(0) translate(4 242.5)">
<title>di::meta::detail::CommonTypeHelper&lt; T, U &gt;</title>
<!-- Node1 -->
<g id="Node000001" class="node">
<title>Node1</title>
<g id="a_Node000001"><a xlink:title=" ">
<polygon fill="#999999" stroke="#666666" points="333.5,-129.12 193,-129.12 193,-95.62 333.5,-95.62 333.5,-129.12"/>
<text text-anchor="start" x="201" y="-115.62" font-family="Helvetica,sans-Serif" font-size="10.00">di::meta::detail::Common</text>
<text text-anchor="middle" x="263.25" y="-102.88" font-family="Helvetica,sans-Serif" font-size="10.00">TypeHelper&lt; T, U &gt;</text>
</a>
</g>
</g>
<!-- Node2 -->
<g id="Node000002" class="node">
<title>Node2</title>
<g id="a_Node000002"><a xlink:href="structdi_1_1meta_1_1detail_1_1CommonTypeHelper.html" target="_top" xlink:title=" ">
<polygon fill="white" stroke="#666666" points="155.5,-238.5 1.5,-238.5 1.5,-192.25 155.5,-192.25 155.5,-238.5"/>
<text text-anchor="start" x="9.5" y="-225" font-family="Helvetica,sans-Serif" font-size="10.00">di::meta::detail::Common</text>
<text text-anchor="start" x="9.5" y="-212.25" font-family="Helvetica,sans-Serif" font-size="10.00">TypeHelper&lt; meta::Decay</text>
<text text-anchor="middle" x="78.5" y="-199.5" font-family="Helvetica,sans-Serif" font-size="10.00">&lt; T &gt;, meta::Decay&lt; U &gt; &gt;</text>
</a>
</g>
</g>
<!-- Node2&#45;&gt;Node1 -->
<g id="edge1_Node000001_Node000002" class="edge">
<title>Node2&#45;&gt;Node1</title>
<g id="a_edge1_Node000001_Node000002"><a xlink:title=" ">
<path fill="none" stroke="#63b8ff" d="M149.86,-187.07C152.29,-185.86 154.67,-184.62 157,-183.38 186.91,-167.32 218.92,-144.89 239.68,-129.56"/>
<polygon fill="#63b8ff" stroke="#63b8ff" points="148.59,-183.8 141.09,-191.27 151.62,-190.11 148.59,-183.8"/>
</a>
</g>
</g>
<!-- Node3 -->
<g id="Node000003" class="node">
<title>Node3</title>
<g id="a_Node000003"><a xlink:href="structdi_1_1meta_1_1TypeConstant.html" target="_top" xlink:title=" ">
<polygon fill="white" stroke="#666666" points="154.38,-174.5 2.62,-174.5 2.62,-128.25 154.38,-128.25 154.38,-174.5"/>
<text text-anchor="start" x="10.62" y="-161" font-family="Helvetica,sans-Serif" font-size="10.00">di::meta::TypeConstant</text>
<text text-anchor="start" x="10.62" y="-148.25" font-family="Helvetica,sans-Serif" font-size="10.00">&lt; CustomCommonType&lt; T,</text>
<text text-anchor="middle" x="78.5" y="-135.5" font-family="Helvetica,sans-Serif" font-size="10.00"> U &gt;::Type &gt;</text>
</a>
</g>
</g>
<!-- Node3&#45;&gt;Node1 -->
<g id="edge2_Node000001_Node000003" class="edge">
<title>Node3&#45;&gt;Node1</title>
<g id="a_edge2_Node000001_Node000003"><a xlink:title=" ">
<path fill="none" stroke="#63b8ff" d="M165.63,-132.99C174.71,-131.06 183.85,-129.11 192.7,-127.22"/>
<polygon fill="#63b8ff" stroke="#63b8ff" points="165.15,-129.52 156.1,-135.03 166.61,-136.36 165.15,-129.52"/>
</a>
</g>
</g>
<!-- Node4 -->
<g id="Node000004" class="node">
<title>Node4</title>
<g id="a_Node000004"><a xlink:href="structdi_1_1meta_1_1TypeConstant.html" target="_top" xlink:title=" ">
<polygon fill="white" stroke="#666666" points="149.88,-110.25 7.12,-110.25 7.12,-38.5 149.88,-38.5 149.88,-110.25"/>
<text text-anchor="start" x="15.12" y="-96.75" font-family="Helvetica,sans-Serif" font-size="10.00">di::meta::TypeConstant</text>
<text text-anchor="start" x="15.12" y="-84" font-family="Helvetica,sans-Serif" font-size="10.00">&lt; meta::Decay&lt; decltype</text>
<text text-anchor="start" x="15.12" y="-71.25" font-family="Helvetica,sans-Serif" font-size="10.00">(false ? util::declval&lt;</text>
<text text-anchor="start" x="15.12" y="-58.5" font-family="Helvetica,sans-Serif" font-size="10.00"> T &gt;() :util::declval&lt; U</text>
<text text-anchor="middle" x="78.5" y="-45.75" font-family="Helvetica,sans-Serif" font-size="10.00"> &gt;())&gt; &gt;</text>
</a>
</g>
</g>
<!-- Node4&#45;&gt;Node1 -->
<g id="edge3_Node000001_Node000004" class="edge">
<title>Node4&#45;&gt;Node1</title>
<g id="a_edge3_Node000001_Node000004"><a xlink:title=" ">
<path fill="none" stroke="#63b8ff" d="M161.4,-91.4C171.85,-93.58 182.46,-95.78 192.68,-97.91"/>
<polygon fill="#63b8ff" stroke="#63b8ff" points="162.14,-87.98 151.64,-89.37 160.72,-94.84 162.14,-87.98"/>
</a>
</g>
</g>
<!-- Node5 -->
<g id="Node000005" class="node">
<title>Node5</title>
<g id="a_Node000005"><a xlink:href="structdi_1_1meta_1_1TypeConstant.html" target="_top" xlink:title=" ">
<polygon fill="white" stroke="#666666" points="157,-20.75 0,-20.75 0,0 157,0 157,-20.75"/>
<text text-anchor="middle" x="78.5" y="-7.25" font-family="Helvetica,sans-Serif" font-size="10.00">di::meta::TypeConstant&lt; T &gt;</text>
</a>
</g>
</g>
<!-- Node5&#45;&gt;Node1 -->
<g id="edge4_Node000001_Node000005" class="edge">
<title>Node5&#45;&gt;Node1</title>
<g id="a_edge4_Node000001_Node000005"><a xlink:title=" ">
<path fill="none" stroke="#63b8ff" d="M146.73,-24.92C150.25,-26.28 153.7,-27.76 157,-29.38 191.92,-46.42 226.07,-76.55 245.6,-95.44"/>
<polygon fill="#63b8ff" stroke="#63b8ff" points="147.99,-21.66 137.39,-21.69 145.7,-28.27 147.99,-21.66"/>
</a>
</g>
</g>
</g>
</svg>
