<?xml version="1.0" encoding="UTF-8" standalone="no"?>
<!DOCTYPE svg PUBLIC "-//W3C//DTD SVG 1.1//EN"
 "http://www.w3.org/Graphics/SVG/1.1/DTD/svg11.dtd">
<!-- Generated by graphviz version 10.0.1 (0)
 -->
<!-- Title: di::container::DefaultIntrusiveListTag Pages: 1 -->
<svg width="193pt" height="181pt"
 viewBox="0.00 0.00 192.75 180.50" xmlns="http://www.w3.org/2000/svg" xmlns:xlink="http://www.w3.org/1999/xlink">
<g id="graph0" class="graph" transform="scale(1 1) rotate(0) translate(4 176.5)">
<title>di::container::DefaultIntrusiveListTag</title>
<!-- Node1 -->
<g id="Node000001" class="node">
<title>Node1</title>
<g id="a_Node000001"><a xlink:title=" ">
<polygon fill="#999999" stroke="#666666" points="173.12,-33.5 11.62,-33.5 11.62,0 173.12,0 173.12,-33.5"/>
<text text-anchor="start" x="19.62" y="-20" font-family="Helvetica,sans-Serif" font-size="10.00">di::container::DefaultIntrusive</text>
<text text-anchor="middle" x="92.38" y="-7.25" font-family="Helvetica,sans-Serif" font-size="10.00">ListTag</text>
</a>
</g>
</g>
<!-- Node2 -->
<g id="Node000002" class="node">
<title>Node2</title>
<g id="a_Node000002"><a xlink:href="structdi_1_1container_1_1IntrusiveListTag.html" target="_top" xlink:title=" ">
<polygon fill="white" stroke="#666666" points="184.75,-103 0,-103 0,-69.5 184.75,-69.5 184.75,-103"/>
<text text-anchor="start" x="8" y="-89.5" font-family="Helvetica,sans-Serif" font-size="10.00">di::container::Intrusive</text>
<text text-anchor="middle" x="92.38" y="-76.75" font-family="Helvetica,sans-Serif" font-size="10.00">ListTag&lt; DefaultIntrusiveListTag &gt;</text>
</a>
</g>
</g>
<!-- Node2&#45;&gt;Node1 -->
<g id="edge1_Node000001_Node000002" class="edge">
<title>Node2&#45;&gt;Node1</title>
<g id="a_edge1_Node000001_Node000002"><a xlink:title=" ">
<path fill="none" stroke="#63b8ff" d="M92.38,-57.81C92.38,-49.59 92.38,-40.84 92.38,-33.63"/>
<polygon fill="#63b8ff" stroke="#63b8ff" points="88.88,-57.74 92.38,-67.74 95.88,-57.74 88.88,-57.74"/>
</a>
</g>
</g>
<!-- Node3 -->
<g id="Node000003" class="node">
<title>Node3</title>
<g id="a_Node000003"><a xlink:href="structdi_1_1container_1_1IntrusiveTagBase.html" target="_top" xlink:title=" ">
<polygon fill="white" stroke="#666666" points="155.88,-172.5 28.87,-172.5 28.87,-139 155.88,-139 155.88,-172.5"/>
<text text-anchor="start" x="36.88" y="-159" font-family="Helvetica,sans-Serif" font-size="10.00">di::container::Intrusive</text>
<text text-anchor="middle" x="92.38" y="-146.25" font-family="Helvetica,sans-Serif" font-size="10.00">TagBase&lt; NodeType &gt;</text>
</a>
</g>
</g>
<!-- Node3&#45;&gt;Node2 -->
<g id="edge2_Node000002_Node000003" class="edge">
<title>Node3&#45;&gt;Node2</title>
<g id="a_edge2_Node000002_Node000003"><a xlink:title=" ">
<path fill="none" stroke="#63b8ff" d="M92.38,-127.31C92.38,-119.09 92.38,-110.34 92.38,-103.13"/>
<polygon fill="#63b8ff" stroke="#63b8ff" points="88.88,-127.24 92.38,-137.24 95.88,-127.24 88.88,-127.24"/>
</a>
</g>
</g>
</g>
</svg>
