<?xml version="1.0" encoding="UTF-8" standalone="no"?>
<!DOCTYPE svg PUBLIC "-//W3C//DTD SVG 1.1//EN"
 "http://www.w3.org/Graphics/SVG/1.1/DTD/svg11.dtd">
<!-- Generated by graphviz version 10.0.1 (0)
 -->
<!-- Title: dius::linux::ScheduleSender::OperationStateT&lt; Rec &gt;::Type Pages: 1 -->
<svg width="179pt" height="225pt"
 viewBox="0.00 0.00 178.50 224.50" xmlns="http://www.w3.org/2000/svg" xmlns:xlink="http://www.w3.org/1999/xlink">
<g id="graph0" class="graph" transform="scale(1 1) rotate(0) translate(4 220.5)">
<title>dius::linux::ScheduleSender::OperationStateT&lt; Rec &gt;::Type</title>
<!-- Node1 -->
<g id="Node000001" class="node">
<title>Node1</title>
<g id="a_Node000001"><a xlink:title=" ">
<polygon fill="#999999" stroke="#666666" points="170.5,-33.5 0,-33.5 0,0 170.5,0 170.5,-33.5"/>
<text text-anchor="start" x="8" y="-20" font-family="Helvetica,sans-Serif" font-size="10.00">dius::linux::ScheduleSender</text>
<text text-anchor="middle" x="85.25" y="-7.25" font-family="Helvetica,sans-Serif" font-size="10.00">::OperationStateT&lt; Rec &gt;::Type</text>
</a>
</g>
</g>
<!-- Node2 -->
<g id="Node000002" class="node">
<title>Node2</title>
<g id="a_Node000002"><a xlink:href="structdius_1_1linux_1_1OperationStateBase.html" target="_top" xlink:title=" ">
<polygon fill="white" stroke="#666666" points="170.12,-90.25 0.38,-90.25 0.38,-69.5 170.12,-69.5 170.12,-90.25"/>
<text text-anchor="middle" x="85.25" y="-76.75" font-family="Helvetica,sans-Serif" font-size="10.00">dius::linux::OperationStateBase</text>
</a>
</g>
</g>
<!-- Node2&#45;&gt;Node1 -->
<g id="edge1_Node000001_Node000002" class="edge">
<title>Node2&#45;&gt;Node1</title>
<g id="a_edge1_Node000001_Node000002"><a xlink:title=" ">
<path fill="none" stroke="#63b8ff" d="M85.25,-57.59C85.25,-49.85 85.25,-41.22 85.25,-33.98"/>
<polygon fill="#63b8ff" stroke="#63b8ff" points="81.75,-57.54 85.25,-67.54 88.75,-57.54 81.75,-57.54"/>
</a>
</g>
</g>
<!-- Node3 -->
<g id="Node000003" class="node">
<title>Node3</title>
<g id="a_Node000003"><a xlink:href="classdi_1_1container_1_1IntrusiveForwardListNode.html" target="_top" xlink:title=" ">
<polygon fill="white" stroke="#666666" points="153.62,-159.75 16.88,-159.75 16.88,-126.25 153.62,-126.25 153.62,-159.75"/>
<text text-anchor="start" x="24.88" y="-146.25" font-family="Helvetica,sans-Serif" font-size="10.00">di::container::Intrusive</text>
<text text-anchor="middle" x="85.25" y="-133.5" font-family="Helvetica,sans-Serif" font-size="10.00">ForwardListNode&lt; Tag &gt;</text>
</a>
</g>
</g>
<!-- Node3&#45;&gt;Node2 -->
<g id="edge2_Node000002_Node000003" class="edge">
<title>Node3&#45;&gt;Node2</title>
<g id="a_edge2_Node000002_Node000003"><a xlink:title=" ">
<path fill="none" stroke="#63b8ff" d="M85.25,-114.44C85.25,-105.96 85.25,-97.17 85.25,-90.72"/>
<polygon fill="#63b8ff" stroke="#63b8ff" points="81.75,-114.43 85.25,-124.43 88.75,-114.43 81.75,-114.43"/>
</a>
</g>
</g>
<!-- Node4 -->
<g id="Node000004" class="node">
<title>Node4</title>
<g id="a_Node000004"><a xlink:href="structdi_1_1util_1_1Immovable.html" target="_top" xlink:title=" ">
<polygon fill="white" stroke="#666666" points="139.38,-216.5 31.12,-216.5 31.12,-195.75 139.38,-195.75 139.38,-216.5"/>
<text text-anchor="middle" x="85.25" y="-203" font-family="Helvetica,sans-Serif" font-size="10.00">di::util::Immovable</text>
</a>
</g>
</g>
<!-- Node4&#45;&gt;Node3 -->
<g id="edge3_Node000003_Node000004" class="edge">
<title>Node4&#45;&gt;Node3</title>
<g id="a_edge3_Node000003_Node000004"><a xlink:title=" ">
<path fill="none" stroke="#8b1a1a" d="M85.25,-183.84C85.25,-176.1 85.25,-167.47 85.25,-160.23"/>
<polygon fill="#8b1a1a" stroke="#8b1a1a" points="81.75,-183.79 85.25,-193.79 88.75,-183.79 81.75,-183.79"/>
</a>
</g>
</g>
</g>
</svg>
