<?xml version="1.0" encoding="UTF-8" standalone="no"?>
<!DOCTYPE svg PUBLIC "-//W3C//DTD SVG 1.1//EN"
 "http://www.w3.org/Graphics/SVG/1.1/DTD/svg11.dtd">
<!-- Generated by graphviz version 10.0.1 (0)
 -->
<!-- Title: di::container::OwningHashNode&lt; T, Tag &gt; Pages: 1 -->
<svg width="152pt" height="237pt"
 viewBox="0.00 0.00 152.25 237.25" xmlns="http://www.w3.org/2000/svg" xmlns:xlink="http://www.w3.org/1999/xlink">
<g id="graph0" class="graph" transform="scale(1 1) rotate(0) translate(4 233.25)">
<title>di::container::OwningHashNode&lt; T, Tag &gt;</title>
<!-- Node1 -->
<g id="Node000001" class="node">
<title>Node1</title>
<g id="a_Node000001"><a xlink:title=" ">
<polygon fill="#999999" stroke="#666666" points="144.25,-33.5 0,-33.5 0,0 144.25,0 144.25,-33.5"/>
<text text-anchor="start" x="8" y="-20" font-family="Helvetica,sans-Serif" font-size="10.00">di::container::OwningHash</text>
<text text-anchor="middle" x="72.12" y="-7.25" font-family="Helvetica,sans-Serif" font-size="10.00">Node&lt; T, Tag &gt;</text>
</a>
</g>
</g>
<!-- Node2 -->
<g id="Node000002" class="node">
<title>Node2</title>
<g id="a_Node000002"><a xlink:href="structdi_1_1container_1_1HashNode.html" target="_top" xlink:title=" ">
<polygon fill="white" stroke="#666666" points="138.62,-103 5.62,-103 5.62,-69.5 138.62,-69.5 138.62,-103"/>
<text text-anchor="start" x="13.62" y="-89.5" font-family="Helvetica,sans-Serif" font-size="10.00">di::container::HashNode</text>
<text text-anchor="middle" x="72.12" y="-76.75" font-family="Helvetica,sans-Serif" font-size="10.00">&lt; Tag &gt;</text>
</a>
</g>
</g>
<!-- Node2&#45;&gt;Node1 -->
<g id="edge1_Node000001_Node000002" class="edge">
<title>Node2&#45;&gt;Node1</title>
<g id="a_edge1_Node000001_Node000002"><a xlink:title=" ">
<path fill="none" stroke="#63b8ff" d="M72.12,-57.81C72.12,-49.59 72.12,-40.84 72.12,-33.63"/>
<polygon fill="#63b8ff" stroke="#63b8ff" points="68.63,-57.74 72.13,-67.74 75.63,-57.74 68.63,-57.74"/>
</a>
</g>
</g>
<!-- Node3 -->
<g id="Node000003" class="node">
<title>Node3</title>
<g id="a_Node000003"><a xlink:href="classdi_1_1container_1_1IntrusiveForwardListNode.html" target="_top" xlink:title=" ">
<polygon fill="white" stroke="#666666" points="140.5,-172.5 3.75,-172.5 3.75,-139 140.5,-139 140.5,-172.5"/>
<text text-anchor="start" x="11.75" y="-159" font-family="Helvetica,sans-Serif" font-size="10.00">di::container::Intrusive</text>
<text text-anchor="middle" x="72.12" y="-146.25" font-family="Helvetica,sans-Serif" font-size="10.00">ForwardListNode&lt; Tag &gt;</text>
</a>
</g>
</g>
<!-- Node3&#45;&gt;Node2 -->
<g id="edge2_Node000002_Node000003" class="edge">
<title>Node3&#45;&gt;Node2</title>
<g id="a_edge2_Node000002_Node000003"><a xlink:title=" ">
<path fill="none" stroke="#63b8ff" d="M72.12,-127.31C72.12,-119.09 72.12,-110.34 72.12,-103.13"/>
<polygon fill="#63b8ff" stroke="#63b8ff" points="68.63,-127.24 72.13,-137.24 75.63,-127.24 68.63,-127.24"/>
</a>
</g>
</g>
<!-- Node4 -->
<g id="Node000004" class="node">
<title>Node4</title>
<g id="a_Node000004"><a xlink:href="structdi_1_1util_1_1Immovable.html" target="_top" xlink:title=" ">
<polygon fill="white" stroke="#666666" points="126.25,-229.25 18,-229.25 18,-208.5 126.25,-208.5 126.25,-229.25"/>
<text text-anchor="middle" x="72.12" y="-215.75" font-family="Helvetica,sans-Serif" font-size="10.00">di::util::Immovable</text>
</a>
</g>
</g>
<!-- Node4&#45;&gt;Node3 -->
<g id="edge3_Node000003_Node000004" class="edge">
<title>Node4&#45;&gt;Node3</title>
<g id="a_edge3_Node000003_Node000004"><a xlink:title=" ">
<path fill="none" stroke="#8b1a1a" d="M72.12,-196.59C72.12,-188.85 72.12,-180.22 72.12,-172.98"/>
<polygon fill="#8b1a1a" stroke="#8b1a1a" points="68.63,-196.54 72.13,-206.54 75.63,-196.54 68.63,-196.54"/>
</a>
</g>
</g>
</g>
</svg>
