<?xml version="1.0" encoding="UTF-8" standalone="no"?>
<!DOCTYPE svg PUBLIC "-//W3C//DTD SVG 1.1//EN"
 "http://www.w3.org/Graphics/SVG/1.1/DTD/svg11.dtd">
<!-- Generated by graphviz version 10.0.1 (0)
 -->
<!-- Title: di::meta::detail::SimpleCommonReference&lt; T, U &gt; Pages: 1 -->
<svg width="465pt" height="299pt"
 viewBox="0.00 0.00 465.25 298.50" xmlns="http://www.w3.org/2000/svg" xmlns:xlink="http://www.w3.org/1999/xlink">
<g id="graph0" class="graph" transform="scale(1 1) rotate(0) translate(4 294.5)">
<title>di::meta::detail::SimpleCommonReference&lt; T, U &gt;</title>
<!-- Node1 -->
<g id="Node000001" class="node">
<title>Node1</title>
<g id="a_Node000001"><a xlink:title=" ">
<polygon fill="#999999" stroke="#666666" points="457.25,-104.5 305.5,-104.5 305.5,-71 457.25,-71 457.25,-104.5"/>
<text text-anchor="start" x="313.5" y="-91" font-family="Helvetica,sans-Serif" font-size="10.00">di::meta::detail::Simple</text>
<text text-anchor="middle" x="381.38" y="-78.25" font-family="Helvetica,sans-Serif" font-size="10.00">CommonReference&lt; T, U &gt;</text>
</a>
</g>
</g>
<!-- Node2 -->
<g id="Node000002" class="node">
<title>Node2</title>
<g id="a_Node000002"><a xlink:href="structdi_1_1meta_1_1TypeConstant.html" target="_top" xlink:title=" ">
<polygon fill="white" stroke="#666666" points="269.5,-290.5 0,-290.5 0,-155 269.5,-155 269.5,-290.5"/>
<text text-anchor="start" x="8" y="-277" font-family="Helvetica,sans-Serif" font-size="10.00">di::meta::TypeConstant</text>
<text text-anchor="start" x="8" y="-264.25" font-family="Helvetica,sans-Serif" font-size="10.00">&lt; decltype(false ? util</text>
<text text-anchor="start" x="8" y="-251.5" font-family="Helvetica,sans-Serif" font-size="10.00">::declval&lt; UnionCV&lt; meta</text>
<text text-anchor="start" x="8" y="-238.75" font-family="Helvetica,sans-Serif" font-size="10.00">::RemoveReference&lt; T &gt;, meta</text>
<text text-anchor="start" x="8" y="-226" font-family="Helvetica,sans-Serif" font-size="10.00">::RemoveReference&lt; U &gt;, meta</text>
<text text-anchor="start" x="8" y="-213.25" font-family="Helvetica,sans-Serif" font-size="10.00">::RemoveReference&lt; T &gt; &gt;::Type</text>
<text text-anchor="start" x="8" y="-200.5" font-family="Helvetica,sans-Serif" font-size="10.00"> &amp; &gt;() :util::declval&lt; UnionCV</text>
<text text-anchor="start" x="8" y="-187.75" font-family="Helvetica,sans-Serif" font-size="10.00">&lt; meta::RemoveReference&lt; T &gt;, meta</text>
<text text-anchor="start" x="8" y="-175" font-family="Helvetica,sans-Serif" font-size="10.00">::RemoveReference&lt; U &gt;, meta::RemoveReference</text>
<text text-anchor="middle" x="134.75" y="-162.25" font-family="Helvetica,sans-Serif" font-size="10.00">&lt; U &gt; &gt;::Type &amp; &gt;())&gt;</text>
</a>
</g>
</g>
<!-- Node2&#45;&gt;Node1 -->
<g id="edge1_Node000001_Node000002" class="edge">
<title>Node2&#45;&gt;Node1</title>
<g id="a_edge1_Node000001_Node000002"><a xlink:title=" ">
<path fill="none" stroke="#63b8ff" d="M268.94,-149.25C299.05,-132.63 328.27,-116.51 349.23,-104.94"/>
<polygon fill="#63b8ff" stroke="#63b8ff" points="267.53,-146.03 260.46,-153.93 270.91,-152.16 267.53,-146.03"/>
</a>
</g>
</g>
<!-- Node3 -->
<g id="Node000003" class="node">
<title>Node3</title>
<g id="a_Node000003"><a xlink:href="structdi_1_1meta_1_1TypeConstant.html" target="_top" xlink:title=" ">
<polygon fill="white" stroke="#666666" points="212.12,-136.88 57.38,-136.88 57.38,-90.62 212.12,-90.62 212.12,-136.88"/>
<text text-anchor="start" x="65.38" y="-123.38" font-family="Helvetica,sans-Serif" font-size="10.00">di::meta::TypeConstant</text>
<text text-anchor="start" x="65.38" y="-110.62" font-family="Helvetica,sans-Serif" font-size="10.00">&lt; SimpleCommonReference</text>
<text text-anchor="middle" x="134.75" y="-97.88" font-family="Helvetica,sans-Serif" font-size="10.00">&lt; T &amp;, U &amp; &gt;::Type &gt;</text>
</a>
</g>
</g>
<!-- Node3&#45;&gt;Node1 -->
<g id="edge2_Node000001_Node000003" class="edge">
<title>Node3&#45;&gt;Node1</title>
<g id="a_edge2_Node000001_Node000003"><a xlink:title=" ">
<path fill="none" stroke="#63b8ff" d="M223.74,-104.4C250.41,-101.56 279.43,-98.48 305.17,-95.74"/>
<polygon fill="#63b8ff" stroke="#63b8ff" points="223.56,-100.9 213.98,-105.43 224.3,-107.86 223.56,-100.9"/>
</a>
</g>
</g>
<!-- Node4 -->
<g id="Node000004" class="node">
<title>Node4</title>
<g id="a_Node000004"><a xlink:href="structdi_1_1meta_1_1TypeConstant.html" target="_top" xlink:title=" ">
<polygon fill="white" stroke="#666666" points="213.25,-72.12 56.25,-72.12 56.25,-51.38 213.25,-51.38 213.25,-72.12"/>
<text text-anchor="middle" x="134.75" y="-58.62" font-family="Helvetica,sans-Serif" font-size="10.00">di::meta::TypeConstant&lt; T &gt;</text>
</a>
</g>
</g>
<!-- Node4&#45;&gt;Node1 -->
<g id="edge3_Node000001_Node000004" class="edge">
<title>Node4&#45;&gt;Node1</title>
<g id="a_edge3_Node000001_Node000004"><a xlink:title=" ">
<path fill="none" stroke="#63b8ff" d="M224.67,-71.2C251.14,-74.01 279.86,-77.07 305.35,-79.78"/>
<polygon fill="#63b8ff" stroke="#63b8ff" points="225.31,-67.75 214.99,-70.17 224.57,-74.71 225.31,-67.75"/>
</a>
</g>
</g>
<!-- Node5 -->
<g id="Node000005" class="node">
<title>Node5</title>
<g id="a_Node000005"><a xlink:href="structdi_1_1meta_1_1detail_1_1SimpleCommonReference.html" target="_top" xlink:title=" ">
<polygon fill="white" stroke="#666666" points="210.62,-33.5 58.88,-33.5 58.88,0 210.62,0 210.62,-33.5"/>
<text text-anchor="start" x="66.88" y="-20" font-family="Helvetica,sans-Serif" font-size="10.00">di::meta::detail::Simple</text>
<text text-anchor="middle" x="134.75" y="-7.25" font-family="Helvetica,sans-Serif" font-size="10.00">CommonReference&lt; U, T &gt;</text>
</a>
</g>
</g>
<!-- Node5&#45;&gt;Node1 -->
<g id="edge4_Node000001_Node000005" class="edge">
<title>Node5&#45;&gt;Node1</title>
<g id="a_edge4_Node000001_Node000005"><a xlink:title=" ">
<path fill="none" stroke="#63b8ff" d="M221.95,-30.95C237.89,-34.3 254.3,-38.23 269.5,-42.75 294.69,-50.23 322.06,-61.31 343.3,-70.6"/>
<polygon fill="#63b8ff" stroke="#63b8ff" points="222.98,-27.59 212.49,-29.03 221.59,-34.45 222.98,-27.59"/>
</a>
</g>
</g>
</g>
</svg>
