<?xml version="1.0" encoding="UTF-8" standalone="no"?>
<!DOCTYPE svg PUBLIC "-//W3C//DTD SVG 1.1//EN"
 "http://www.w3.org/Graphics/SVG/1.1/DTD/svg11.dtd">
<!-- Generated by graphviz version 10.0.1 (0)
 -->
<!-- Title: di::container::IntrusiveHashSetTag&lt; Self &gt; Pages: 1 -->
<svg width="175pt" height="193pt"
 viewBox="0.00 0.00 174.75 193.25" xmlns="http://www.w3.org/2000/svg" xmlns:xlink="http://www.w3.org/1999/xlink">
<g id="graph0" class="graph" transform="scale(1 1) rotate(0) translate(4 189.25)">
<title>di::container::IntrusiveHashSetTag&lt; Self &gt;</title>
<!-- Node1 -->
<g id="Node000001" class="node">
<title>Node1</title>
<g id="a_Node000001"><a xlink:title=" ">
<polygon fill="#999999" stroke="#666666" points="146.12,-33.5 20.62,-33.5 20.62,0 146.12,0 146.12,-33.5"/>
<text text-anchor="start" x="28.62" y="-20" font-family="Helvetica,sans-Serif" font-size="10.00">di::container::Intrusive</text>
<text text-anchor="middle" x="83.38" y="-7.25" font-family="Helvetica,sans-Serif" font-size="10.00">HashSetTag&lt; Self &gt;</text>
</a>
</g>
</g>
<!-- Node2 -->
<g id="Node000002" class="node">
<title>Node2</title>
<g id="a_Node000002"><a xlink:href="structdi_1_1container_1_1IntrusiveForwardListTag.html" target="_top" xlink:title=" ">
<polygon fill="white" stroke="#666666" points="148.38,-103 18.38,-103 18.38,-69.5 148.38,-69.5 148.38,-103"/>
<text text-anchor="start" x="26.38" y="-89.5" font-family="Helvetica,sans-Serif" font-size="10.00">di::container::Intrusive</text>
<text text-anchor="middle" x="83.38" y="-76.75" font-family="Helvetica,sans-Serif" font-size="10.00">ForwardListTag&lt; Self &gt;</text>
</a>
</g>
</g>
<!-- Node2&#45;&gt;Node1 -->
<g id="edge1_Node000001_Node000002" class="edge">
<title>Node2&#45;&gt;Node1</title>
<g id="a_edge1_Node000001_Node000002"><a xlink:title=" ">
<path fill="none" stroke="#63b8ff" d="M83.38,-57.81C83.38,-49.59 83.38,-40.84 83.38,-33.63"/>
<polygon fill="#63b8ff" stroke="#63b8ff" points="79.88,-57.74 83.38,-67.74 86.88,-57.74 79.88,-57.74"/>
</a>
</g>
</g>
<!-- Node3 -->
<g id="Node000003" class="node">
<title>Node3</title>
<g id="a_Node000003"><a xlink:href="structdi_1_1container_1_1IntrusiveTagBase.html" target="_top" xlink:title=" ">
<polygon fill="white" stroke="#666666" points="166.75,-185.25 0,-185.25 0,-139 166.75,-139 166.75,-185.25"/>
<text text-anchor="start" x="8" y="-171.75" font-family="Helvetica,sans-Serif" font-size="10.00">di::container::Intrusive</text>
<text text-anchor="start" x="8" y="-159" font-family="Helvetica,sans-Serif" font-size="10.00">TagBase&lt; IntrusiveForwardList</text>
<text text-anchor="middle" x="83.38" y="-146.25" font-family="Helvetica,sans-Serif" font-size="10.00">Node&lt; Self &gt; &gt;</text>
</a>
</g>
</g>
<!-- Node3&#45;&gt;Node2 -->
<g id="edge2_Node000002_Node000003" class="edge">
<title>Node3&#45;&gt;Node2</title>
<g id="a_edge2_Node000002_Node000003"><a xlink:title=" ">
<path fill="none" stroke="#63b8ff" d="M83.38,-127.14C83.38,-118.85 83.38,-110.36 83.38,-103.35"/>
<polygon fill="#63b8ff" stroke="#63b8ff" points="79.88,-127.05 83.38,-137.05 86.88,-127.05 79.88,-127.05"/>
</a>
</g>
</g>
</g>
</svg>
