<?xml version="1.0" encoding="UTF-8" standalone="no"?>
<!DOCTYPE svg PUBLIC "-//W3C//DTD SVG 1.1//EN"
 "http://www.w3.org/Graphics/SVG/1.1/DTD/svg11.dtd">
<!-- Generated by graphviz version 10.0.1 (0)
 -->
<!-- Title: di::function::function_ref_ns::SignatureAfterBindFrontHelper&lt; M G::*, T &gt; Pages: 1 -->
<svg width="405pt" height="118pt"
 viewBox="0.00 0.00 404.50 118.25" xmlns="http://www.w3.org/2000/svg" xmlns:xlink="http://www.w3.org/1999/xlink">
<g id="graph0" class="graph" transform="scale(1 1) rotate(0) translate(4 114.25)">
<title>di::function::function_ref_ns::SignatureAfterBindFrontHelper&lt; M G::*, T &gt;</title>
<!-- Node1 -->
<g id="Node000001" class="node">
<title>Node1</title>
<g id="a_Node000001"><a xlink:title=" ">
<polygon fill="#999999" stroke="#666666" points="396.5,-78.25 223,-78.25 223,-32 396.5,-32 396.5,-78.25"/>
<text text-anchor="start" x="231" y="-64.75" font-family="Helvetica,sans-Serif" font-size="10.00">di::function::function</text>
<text text-anchor="start" x="231" y="-52" font-family="Helvetica,sans-Serif" font-size="10.00">_ref_ns::SignatureAfterBindFront</text>
<text text-anchor="middle" x="309.75" y="-39.25" font-family="Helvetica,sans-Serif" font-size="10.00">Helper&lt; M G::*, T &gt;</text>
</a>
</g>
</g>
<!-- Node2 -->
<g id="Node000002" class="node">
<title>Node2</title>
<g id="a_Node000002"><a xlink:href="structdi_1_1meta_1_1TypeConstant.html" target="_top" xlink:title=" ">
<polygon fill="white" stroke="#666666" points="158.5,-110.25 28.5,-110.25 28.5,-64 158.5,-64 158.5,-110.25"/>
<text text-anchor="start" x="36.5" y="-96.75" font-family="Helvetica,sans-Serif" font-size="10.00">di::meta::TypeConstant</text>
<text text-anchor="start" x="36.5" y="-84" font-family="Helvetica,sans-Serif" font-size="10.00">&lt; meta::InvokeResult&lt;</text>
<text text-anchor="middle" x="93.5" y="-71.25" font-family="Helvetica,sans-Serif" font-size="10.00"> M G::*, T &gt; &gt;</text>
</a>
</g>
</g>
<!-- Node2&#45;&gt;Node1 -->
<g id="edge1_Node000001_Node000002" class="edge">
<title>Node2&#45;&gt;Node1</title>
<g id="a_edge1_Node000001_Node000002"><a xlink:title=" ">
<path fill="none" stroke="#63b8ff" d="M169.82,-75.87C186.92,-73.32 205.21,-70.59 222.71,-67.98"/>
<polygon fill="#63b8ff" stroke="#63b8ff" points="169.65,-72.36 160.28,-77.3 170.69,-79.28 169.65,-72.36"/>
</a>
</g>
</g>
<!-- Node3 -->
<g id="Node000003" class="node">
<title>Node3</title>
<g id="a_Node000003"><a xlink:href="structdi_1_1meta_1_1TypeConstant.html" target="_top" xlink:title=" ">
<polygon fill="white" stroke="#666666" points="187,-46.25 0,-46.25 0,0 187,0 187,-46.25"/>
<text text-anchor="start" x="8" y="-32.75" font-family="Helvetica,sans-Serif" font-size="10.00">di::meta::TypeConstant</text>
<text text-anchor="start" x="8" y="-20" font-family="Helvetica,sans-Serif" font-size="10.00">&lt; meta::RemoveFunctionQualifiers</text>
<text text-anchor="middle" x="93.5" y="-7.25" font-family="Helvetica,sans-Serif" font-size="10.00">&lt; M &gt; &gt;</text>
</a>
</g>
</g>
<!-- Node3&#45;&gt;Node1 -->
<g id="edge2_Node000001_Node000003" class="edge">
<title>Node3&#45;&gt;Node1</title>
<g id="a_edge2_Node000001_Node000003"><a xlink:title=" ">
<path fill="none" stroke="#63b8ff" d="M198.58,-38.67C206.64,-39.87 214.72,-41.08 222.64,-42.26"/>
<polygon fill="#63b8ff" stroke="#63b8ff" points="199.13,-35.21 188.72,-37.2 198.1,-42.14 199.13,-35.21"/>
</a>
</g>
</g>
</g>
</svg>
