<?xml version="1.0" encoding="UTF-8" standalone="no"?>
<!DOCTYPE svg PUBLIC "-//W3C//DTD SVG 1.1//EN"
 "http://www.w3.org/Graphics/SVG/1.1/DTD/svg11.dtd">
<!-- Generated by graphviz version 10.0.1 (0)
 -->
<!-- Title: di::meta::detail::MakeSignedHelper&lt; T &gt; Pages: 1 -->
<svg width="375pt" height="80pt"
 viewBox="0.00 0.00 374.50 80.12" xmlns="http://www.w3.org/2000/svg" xmlns:xlink="http://www.w3.org/1999/xlink">
<g id="graph0" class="graph" transform="scale(1 1) rotate(0) translate(4 76.12)">
<title>di::meta::detail::MakeSignedHelper&lt; T &gt;</title>
<!-- Node1 -->
<g id="Node000001" class="node">
<title>Node1</title>
<g id="a_Node000001"><a xlink:title=" ">
<polygon fill="#999999" stroke="#666666" points="366.5,-49.12 211,-49.12 211,-15.62 366.5,-15.62 366.5,-49.12"/>
<text text-anchor="start" x="219" y="-35.62" font-family="Helvetica,sans-Serif" font-size="10.00">di::meta::detail::MakeSigned</text>
<text text-anchor="middle" x="288.75" y="-22.88" font-family="Helvetica,sans-Serif" font-size="10.00">Helper&lt; T &gt;</text>
</a>
</g>
</g>
<!-- Node2 -->
<g id="Node000002" class="node">
<title>Node2</title>
<g id="a_Node000002"><a xlink:href="structdi_1_1meta_1_1detail_1_1MakeSignedHelper.html" target="_top" xlink:title=" ">
<polygon fill="white" stroke="#666666" points="175,-72.12 0,-72.12 0,-38.62 175,-38.62 175,-72.12"/>
<text text-anchor="start" x="8" y="-58.62" font-family="Helvetica,sans-Serif" font-size="10.00">di::meta::detail::MakeSigned</text>
<text text-anchor="middle" x="87.5" y="-45.88" font-family="Helvetica,sans-Serif" font-size="10.00">Helper&lt; UnderlyingType&lt; T &gt; &gt;</text>
</a>
</g>
</g>
<!-- Node2&#45;&gt;Node1 -->
<g id="edge1_Node000001_Node000002" class="edge">
<title>Node2&#45;&gt;Node1</title>
<g id="a_edge1_Node000001_Node000002"><a xlink:title=" ">
<path fill="none" stroke="#63b8ff" d="M186.65,-44.04C194.7,-43.12 202.75,-42.19 210.61,-41.28"/>
<polygon fill="#63b8ff" stroke="#63b8ff" points="186.35,-40.56 176.82,-45.18 187.15,-47.51 186.35,-40.56"/>
</a>
</g>
</g>
<!-- Node3 -->
<g id="Node000003" class="node">
<title>Node3</title>
<g id="a_Node000003"><a xlink:href="structdi_1_1meta_1_1TypeConstant.html" target="_top" xlink:title=" ">
<polygon fill="white" stroke="#666666" points="166,-20.75 9,-20.75 9,0 166,0 166,-20.75"/>
<text text-anchor="middle" x="87.5" y="-7.25" font-family="Helvetica,sans-Serif" font-size="10.00">di::meta::TypeConstant&lt; T &gt;</text>
</a>
</g>
</g>
<!-- Node3&#45;&gt;Node1 -->
<g id="edge2_Node000001_Node000003" class="edge">
<title>Node3&#45;&gt;Node1</title>
<g id="a_edge2_Node000001_Node000003"><a xlink:title=" ">
<path fill="none" stroke="#63b8ff" d="M177.73,-20.23C188.68,-21.44 199.81,-22.67 210.57,-23.85"/>
<polygon fill="#63b8ff" stroke="#63b8ff" points="178.22,-16.76 167.9,-19.14 177.45,-23.72 178.22,-16.76"/>
</a>
</g>
</g>
</g>
</svg>
