<?xml version="1.0" encoding="UTF-8" standalone="no"?>
<!DOCTYPE svg PUBLIC "-//W3C//DTD SVG 1.1//EN"
 "http://www.w3.org/Graphics/SVG/1.1/DTD/svg11.dtd">
<!-- Generated by graphviz version 10.0.1 (0)
 -->
<!-- Title: di::meta::Defer&lt; Fun, Args &gt; Pages: 1 -->
<svg width="164pt" height="181pt"
 viewBox="0.00 0.00 163.50 180.50" xmlns="http://www.w3.org/2000/svg" xmlns:xlink="http://www.w3.org/1999/xlink">
<g id="graph0" class="graph" transform="scale(1 1) rotate(0) translate(4 176.5)">
<title>di::meta::Defer&lt; Fun, Args &gt;</title>
<!-- Node1 -->
<g id="Node000001" class="node">
<title>Node1</title>
<g id="a_Node000001"><a xlink:title=" ">
<polygon fill="#999999" stroke="#666666" points="138.25,-33.5 17.25,-33.5 17.25,0 138.25,0 138.25,-33.5"/>
<text text-anchor="start" x="25.25" y="-20" font-family="Helvetica,sans-Serif" font-size="10.00">di::meta::Defer&lt; Fun,</text>
<text text-anchor="middle" x="77.75" y="-7.25" font-family="Helvetica,sans-Serif" font-size="10.00"> Args &gt;</text>
</a>
</g>
</g>
<!-- Node2 -->
<g id="Node000002" class="node">
<title>Node2</title>
<g id="a_Node000002"><a xlink:href="structdi_1_1meta_1_1detail_1_1DeferHelper_3_01Fun_00_01Args_8_8_8_01_4.html" target="_top" xlink:title=" ">
<polygon fill="white" stroke="#666666" points="155.5,-103 0,-103 0,-69.5 155.5,-69.5 155.5,-103"/>
<text text-anchor="start" x="8" y="-89.5" font-family="Helvetica,sans-Serif" font-size="10.00">di::meta::detail::DeferHelper</text>
<text text-anchor="middle" x="77.75" y="-76.75" font-family="Helvetica,sans-Serif" font-size="10.00">&lt; Fun, Args... &gt;</text>
</a>
</g>
</g>
<!-- Node2&#45;&gt;Node1 -->
<g id="edge1_Node000001_Node000002" class="edge">
<title>Node2&#45;&gt;Node1</title>
<g id="a_edge1_Node000001_Node000002"><a xlink:title=" ">
<path fill="none" stroke="#63b8ff" d="M77.75,-57.81C77.75,-49.59 77.75,-40.84 77.75,-33.63"/>
<polygon fill="#63b8ff" stroke="#63b8ff" points="74.25,-57.74 77.75,-67.74 81.25,-57.74 74.25,-57.74"/>
</a>
</g>
</g>
<!-- Node3 -->
<g id="Node000003" class="node">
<title>Node3</title>
<g id="a_Node000003"><a xlink:href="structdi_1_1meta_1_1TypeConstant.html" target="_top" xlink:title=" ">
<polygon fill="white" stroke="#666666" points="142,-172.5 13.5,-172.5 13.5,-139 142,-139 142,-172.5"/>
<text text-anchor="start" x="21.5" y="-159" font-family="Helvetica,sans-Serif" font-size="10.00">di::meta::TypeConstant</text>
<text text-anchor="middle" x="77.75" y="-146.25" font-family="Helvetica,sans-Serif" font-size="10.00">&lt; Fun&lt; Args... &gt; &gt;</text>
</a>
</g>
</g>
<!-- Node3&#45;&gt;Node2 -->
<g id="edge2_Node000002_Node000003" class="edge">
<title>Node3&#45;&gt;Node2</title>
<g id="a_edge2_Node000002_Node000003"><a xlink:title=" ">
<path fill="none" stroke="#63b8ff" d="M77.75,-127.31C77.75,-119.09 77.75,-110.34 77.75,-103.13"/>
<polygon fill="#63b8ff" stroke="#63b8ff" points="74.25,-127.24 77.75,-137.24 81.25,-127.24 74.25,-127.24"/>
</a>
</g>
</g>
</g>
</svg>
