<?xml version="1.0" encoding="UTF-8" standalone="no"?>
<!DOCTYPE svg PUBLIC "-//W3C//DTD SVG 1.1//EN"
 "http://www.w3.org/Graphics/SVG/1.1/DTD/svg11.dtd">
<!-- Generated by graphviz version 10.0.1 (0)
 -->
<!-- Title: di::container::DefaultIntrusiveTreeSetTag Pages: 1 -->
<svg width="170pt" height="193pt"
 viewBox="0.00 0.00 169.50 193.25" xmlns="http://www.w3.org/2000/svg" xmlns:xlink="http://www.w3.org/1999/xlink">
<g id="graph0" class="graph" transform="scale(1 1) rotate(0) translate(4 189.25)">
<title>di::container::DefaultIntrusiveTreeSetTag</title>
<!-- Node1 -->
<g id="Node000001" class="node">
<title>Node1</title>
<g id="a_Node000001"><a xlink:title=" ">
<polygon fill="#999999" stroke="#666666" points="161.5,-33.5 0,-33.5 0,0 161.5,0 161.5,-33.5"/>
<text text-anchor="start" x="8" y="-20" font-family="Helvetica,sans-Serif" font-size="10.00">di::container::DefaultIntrusive</text>
<text text-anchor="middle" x="80.75" y="-7.25" font-family="Helvetica,sans-Serif" font-size="10.00">TreeSetTag</text>
</a>
</g>
</g>
<!-- Node2 -->
<g id="Node000002" class="node">
<title>Node2</title>
<g id="a_Node000002"><a xlink:href="structdi_1_1container_1_1IntrusiveTreeSetTag.html" target="_top" xlink:title=" ">
<polygon fill="white" stroke="#666666" points="160,-115.75 1.5,-115.75 1.5,-69.5 160,-69.5 160,-115.75"/>
<text text-anchor="start" x="9.5" y="-102.25" font-family="Helvetica,sans-Serif" font-size="10.00">di::container::Intrusive</text>
<text text-anchor="start" x="9.5" y="-89.5" font-family="Helvetica,sans-Serif" font-size="10.00">TreeSetTag&lt; DefaultIntrusive</text>
<text text-anchor="middle" x="80.75" y="-76.75" font-family="Helvetica,sans-Serif" font-size="10.00">TreeSetTag &gt;</text>
</a>
</g>
</g>
<!-- Node2&#45;&gt;Node1 -->
<g id="edge1_Node000001_Node000002" class="edge">
<title>Node2&#45;&gt;Node1</title>
<g id="a_edge1_Node000001_Node000002"><a xlink:title=" ">
<path fill="none" stroke="#63b8ff" d="M80.75,-57.64C80.75,-49.35 80.75,-40.86 80.75,-33.85"/>
<polygon fill="#63b8ff" stroke="#63b8ff" points="77.25,-57.55 80.75,-67.55 84.25,-57.55 77.25,-57.55"/>
</a>
</g>
</g>
<!-- Node3 -->
<g id="Node000003" class="node">
<title>Node3</title>
<g id="a_Node000003"><a xlink:href="structdi_1_1container_1_1IntrusiveTagBase.html" target="_top" xlink:title=" ">
<polygon fill="white" stroke="#666666" points="144.25,-185.25 17.25,-185.25 17.25,-151.75 144.25,-151.75 144.25,-185.25"/>
<text text-anchor="start" x="25.25" y="-171.75" font-family="Helvetica,sans-Serif" font-size="10.00">di::container::Intrusive</text>
<text text-anchor="middle" x="80.75" y="-159" font-family="Helvetica,sans-Serif" font-size="10.00">TagBase&lt; NodeType &gt;</text>
</a>
</g>
</g>
<!-- Node3&#45;&gt;Node2 -->
<g id="edge2_Node000002_Node000003" class="edge">
<title>Node3&#45;&gt;Node2</title>
<g id="a_edge2_Node000002_Node000003"><a xlink:title=" ">
<path fill="none" stroke="#63b8ff" d="M80.75,-140.14C80.75,-132.21 80.75,-123.66 80.75,-116.07"/>
<polygon fill="#63b8ff" stroke="#63b8ff" points="77.25,-139.96 80.75,-149.96 84.25,-139.96 77.25,-139.96"/>
</a>
</g>
</g>
</g>
</svg>
