<?xml version="1.0" encoding="UTF-8" standalone="no"?>
<!DOCTYPE svg PUBLIC "-//W3C//DTD SVG 1.1//EN"
 "http://www.w3.org/Graphics/SVG/1.1/DTD/svg11.dtd">
<!-- Generated by graphviz version 10.0.1 (0)
 -->
<!-- Title: di::container::detail::NodeHashSetTag&lt; Value &gt; Pages: 1 -->
<svg width="162pt" height="193pt"
 viewBox="0.00 0.00 162.00 193.25" xmlns="http://www.w3.org/2000/svg" xmlns:xlink="http://www.w3.org/1999/xlink">
<g id="graph0" class="graph" transform="scale(1 1) rotate(0) translate(4 189.25)">
<title>di::container::detail::NodeHashSetTag&lt; Value &gt;</title>
<!-- Node1 -->
<g id="Node000001" class="node">
<title>Node1</title>
<g id="a_Node000001"><a xlink:title=" ">
<polygon fill="#999999" stroke="#666666" points="154,-33.5 0,-33.5 0,0 154,0 154,-33.5"/>
<text text-anchor="start" x="8" y="-20" font-family="Helvetica,sans-Serif" font-size="10.00">di::container::detail</text>
<text text-anchor="middle" x="77" y="-7.25" font-family="Helvetica,sans-Serif" font-size="10.00">::NodeHashSetTag&lt; Value &gt;</text>
</a>
</g>
</g>
<!-- Node2 -->
<g id="Node000002" class="node">
<title>Node2</title>
<g id="a_Node000002"><a xlink:href="structdi_1_1container_1_1OwningHashNodeTag.html" target="_top" xlink:title=" ">
<polygon fill="white" stroke="#666666" points="152.88,-115.75 1.12,-115.75 1.12,-69.5 152.88,-69.5 152.88,-115.75"/>
<text text-anchor="start" x="9.12" y="-102.25" font-family="Helvetica,sans-Serif" font-size="10.00">di::container::OwningHash</text>
<text text-anchor="start" x="9.12" y="-89.5" font-family="Helvetica,sans-Serif" font-size="10.00">NodeTag&lt; NodeHashSetTag</text>
<text text-anchor="middle" x="77" y="-76.75" font-family="Helvetica,sans-Serif" font-size="10.00">&lt; Value &gt;, Value &gt;</text>
</a>
</g>
</g>
<!-- Node2&#45;&gt;Node1 -->
<g id="edge1_Node000001_Node000002" class="edge">
<title>Node2&#45;&gt;Node1</title>
<g id="a_edge1_Node000001_Node000002"><a xlink:title=" ">
<path fill="none" stroke="#63b8ff" d="M77,-57.64C77,-49.35 77,-40.86 77,-33.85"/>
<polygon fill="#63b8ff" stroke="#63b8ff" points="73.5,-57.55 77,-67.55 80.5,-57.55 73.5,-57.55"/>
</a>
</g>
</g>
<!-- Node3 -->
<g id="Node000003" class="node">
<title>Node3</title>
<g id="a_Node000003"><a xlink:href="structdi_1_1container_1_1IntrusiveTagBase.html" target="_top" xlink:title=" ">
<polygon fill="white" stroke="#666666" points="140.5,-185.25 13.5,-185.25 13.5,-151.75 140.5,-151.75 140.5,-185.25"/>
<text text-anchor="start" x="21.5" y="-171.75" font-family="Helvetica,sans-Serif" font-size="10.00">di::container::Intrusive</text>
<text text-anchor="middle" x="77" y="-159" font-family="Helvetica,sans-Serif" font-size="10.00">TagBase&lt; NodeType &gt;</text>
</a>
</g>
</g>
<!-- Node3&#45;&gt;Node2 -->
<g id="edge2_Node000002_Node000003" class="edge">
<title>Node3&#45;&gt;Node2</title>
<g id="a_edge2_Node000002_Node000003"><a xlink:title=" ">
<path fill="none" stroke="#63b8ff" d="M77,-140.14C77,-132.21 77,-123.66 77,-116.07"/>
<polygon fill="#63b8ff" stroke="#63b8ff" points="73.5,-139.96 77,-149.96 80.5,-139.96 73.5,-139.96"/>
</a>
</g>
</g>
</g>
</svg>
