<?xml version="1.0" encoding="UTF-8" standalone="no"?>
<!DOCTYPE svg PUBLIC "-//W3C//DTD SVG 1.1//EN"
 "http://www.w3.org/Graphics/SVG/1.1/DTD/svg11.dtd">
<!-- Generated by graphviz version 10.0.1 (0)
 -->
<!-- Title: di::reflection::Enumerators&lt; Es &gt; Pages: 1 -->
<svg width="508pt" height="106pt"
 viewBox="0.00 0.00 507.50 105.88" xmlns="http://www.w3.org/2000/svg" xmlns:xlink="http://www.w3.org/1999/xlink">
<g id="graph0" class="graph" transform="scale(1 1) rotate(0) translate(4 101.88)">
<title>di::reflection::Enumerators&lt; Es &gt;</title>
<!-- Node1 -->
<g id="Node000001" class="node">
<title>Node1</title>
<g id="a_Node000001"><a xlink:title=" ">
<polygon fill="#999999" stroke="#666666" points="499.5,-62.5 354.5,-62.5 354.5,-29 499.5,-29 499.5,-62.5"/>
<text text-anchor="start" x="362.5" y="-49" font-family="Helvetica,sans-Serif" font-size="10.00">di::reflection::Enumerators</text>
<text text-anchor="middle" x="427" y="-36.25" font-family="Helvetica,sans-Serif" font-size="10.00">&lt; Es &gt;</text>
</a>
</g>
</g>
<!-- Node2 -->
<g id="Node000002" class="node">
<title>Node2</title>
<g id="a_Node000002"><a xlink:href="classdi_1_1vocab_1_1Tuple.html" target="_top" xlink:title=" ">
<polygon fill="white" stroke="#666666" points="318.5,-56.12 184,-56.12 184,-35.38 318.5,-35.38 318.5,-56.12"/>
<text text-anchor="middle" x="251.25" y="-42.62" font-family="Helvetica,sans-Serif" font-size="10.00">di::vocab::Tuple&lt; Es... &gt;</text>
</a>
</g>
</g>
<!-- Node2&#45;&gt;Node1 -->
<g id="edge1_Node000001_Node000002" class="edge">
<title>Node2&#45;&gt;Node1</title>
<g id="a_edge1_Node000001_Node000002"><a xlink:title=" ">
<path fill="none" stroke="#63b8ff" d="M330.36,-45.75C338.24,-45.75 346.21,-45.75 354.01,-45.75"/>
<polygon fill="#63b8ff" stroke="#63b8ff" points="330.44,-42.25 320.44,-45.75 330.44,-49.25 330.44,-42.25"/>
</a>
</g>
</g>
<!-- Node3 -->
<g id="Node000003" class="node">
<title>Node3</title>
<g id="a_Node000003"><a xlink:href="classdi_1_1vocab_1_1TupleImpl.html" target="_top" xlink:title=" ">
<polygon fill="white" stroke="#666666" points="148,-97.88 0,-97.88 0,-51.62 148,-51.62 148,-97.88"/>
<text text-anchor="start" x="8" y="-84.38" font-family="Helvetica,sans-Serif" font-size="10.00">di::vocab::TupleImpl</text>
<text text-anchor="start" x="8" y="-71.62" font-family="Helvetica,sans-Serif" font-size="10.00">&lt; meta::IndexSequenceFor</text>
<text text-anchor="middle" x="74" y="-58.88" font-family="Helvetica,sans-Serif" font-size="10.00">&lt; Types... &gt;, Types... &gt;</text>
</a>
</g>
</g>
<!-- Node3&#45;&gt;Node2 -->
<g id="edge2_Node000002_Node000003" class="edge">
<title>Node3&#45;&gt;Node2</title>
<g id="a_edge2_Node000002_Node000003"><a xlink:title=" ">
<path fill="none" stroke="#63b8ff" d="M159.44,-60.78C167.95,-59.37 176.5,-57.95 184.77,-56.59"/>
<polygon fill="#63b8ff" stroke="#63b8ff" points="159.09,-57.29 149.8,-62.37 160.24,-64.19 159.09,-57.29"/>
</a>
</g>
</g>
<!-- Node4 -->
<g id="Node000004" class="node">
<title>Node4</title>
<g id="a_Node000004"><a xlink:href="structdi_1_1util_1_1AddMemberGet.html" target="_top" xlink:title=" ">
<polygon fill="white" stroke="#666666" points="138.62,-33.5 9.38,-33.5 9.38,0 138.62,0 138.62,-33.5"/>
<text text-anchor="start" x="17.38" y="-20" font-family="Helvetica,sans-Serif" font-size="10.00">di::util::AddMemberGet</text>
<text text-anchor="middle" x="74" y="-7.25" font-family="Helvetica,sans-Serif" font-size="10.00">&lt; Tuple&lt; Types... &gt; &gt;</text>
</a>
</g>
</g>
<!-- Node4&#45;&gt;Node2 -->
<g id="edge3_Node000002_Node000004" class="edge">
<title>Node4&#45;&gt;Node2</title>
<g id="a_edge3_Node000002_Node000004"><a xlink:title=" ">
<path fill="none" stroke="#63b8ff" d="M149.79,-29.13C161.42,-31.05 173.36,-33.03 184.77,-34.91"/>
<polygon fill="#63b8ff" stroke="#63b8ff" points="150.7,-25.73 140.26,-27.55 149.55,-32.63 150.7,-25.73"/>
</a>
</g>
</g>
</g>
</svg>
