<?xml version="1.0" encoding="UTF-8" standalone="no"?>
<!DOCTYPE svg PUBLIC "-//W3C//DTD SVG 1.1//EN"
 "http://www.w3.org/Graphics/SVG/1.1/DTD/svg11.dtd">
<!-- Generated by graphviz version 12.2.1 (0)
 -->
<!-- Title: di::CurryBack&lt; Self &gt; Pages: 1 -->
<svg width="516pt" height="274pt"
 viewBox="0.00 0.00 515.75 273.88" xmlns="http://www.w3.org/2000/svg" xmlns:xlink="http://www.w3.org/1999/xlink">
<g id="graph0" class="graph" transform="scale(1 1) rotate(0) translate(4 269.88)">
<title>di::CurryBack&lt; Self &gt;</title>
<!-- Node1 -->
<g id="Node000001" class="node">
<title>Node1</title>
<g id="a_Node000001"><a xlink:title=" ">
<polygon fill="#999999" stroke="#666666" points="274.25,-143.5 151.75,-143.5 151.75,-122.75 274.25,-122.75 274.25,-143.5"/>
<text text-anchor="middle" x="213" y="-130" font-family="Helvetica,sans-Serif" font-size="10.00">di::CurryBack&lt; Self &gt;</text>
</a>
</g>
</g>
<!-- Node3 -->
<g id="Node000003" class="node">
<title>Node3</title>
<g id="a_Node000003"><a xlink:href="structdi_1_1container_1_1erase__ns_1_1EraseFunction.html" target="_top" xlink:title=" ">
<polygon fill="white" stroke="#666666" points="507.75,-265.88 310.25,-265.88 310.25,-232.38 507.75,-232.38 507.75,-265.88"/>
<text text-anchor="start" x="318.25" y="-252.38" font-family="Helvetica,sans-Serif" font-size="10.00">di::container::erase</text>
<text text-anchor="middle" x="409" y="-239.62" font-family="Helvetica,sans-Serif" font-size="10.00">_ns::EraseFunction&lt; EraseFunction &gt;</text>
</a>
</g>
</g>
<!-- Node1&#45;&gt;Node3 -->
<g id="edge2_Node000001_Node000003" class="edge">
<title>Node1&#45;&gt;Node3</title>
<g id="a_edge2_Node000001_Node000003"><a xlink:title=" ">
<path fill="none" stroke="#63b8ff" d="M229.63,-152.59C247.15,-173.11 277.43,-204.94 310.25,-223.12 316.24,-226.44 322.67,-229.35 329.28,-231.91"/>
<polygon fill="#63b8ff" stroke="#63b8ff" points="232.37,-150.4 223.28,-144.95 226.99,-154.88 232.37,-150.4"/>
</a>
</g>
</g>
<!-- Node4 -->
<g id="Node000004" class="node">
<title>Node4</title>
<g id="a_Node000004"><a xlink:href="structdi_1_1container_1_1erase__ns_1_1EraseIfFunction.html" target="_top" xlink:title=" ">
<polygon fill="white" stroke="#666666" points="465.75,-214.25 352.25,-214.25 352.25,-168 465.75,-168 465.75,-214.25"/>
<text text-anchor="start" x="360.25" y="-200.75" font-family="Helvetica,sans-Serif" font-size="10.00">di::container::erase</text>
<text text-anchor="start" x="360.25" y="-188" font-family="Helvetica,sans-Serif" font-size="10.00">_ns::EraseIfFunction</text>
<text text-anchor="middle" x="409" y="-175.25" font-family="Helvetica,sans-Serif" font-size="10.00">&lt; EraseIfFunction &gt;</text>
</a>
</g>
</g>
<!-- Node1&#45;&gt;Node4 -->
<g id="edge3_Node000001_Node000004" class="edge">
<title>Node1&#45;&gt;Node4</title>
<g id="a_edge3_Node000001_Node000004"><a xlink:title=" ">
<path fill="none" stroke="#63b8ff" d="M260.91,-147.15C288.33,-155.35 323.1,-165.74 351.95,-174.37"/>
<polygon fill="#63b8ff" stroke="#63b8ff" points="262.07,-143.84 251.49,-144.33 260.06,-150.55 262.07,-143.84"/>
</a>
</g>
</g>
<!-- Node5 -->
<g id="Node000005" class="node">
<title>Node5</title>
<g id="a_Node000005"><a xlink:href="structdi_1_1function_1_1BetweenExclusive.html" target="_top" xlink:title=" ">
<polygon fill="white" stroke="#666666" points="492,-149.88 326,-149.88 326,-116.38 492,-116.38 492,-149.88"/>
<text text-anchor="start" x="334" y="-136.38" font-family="Helvetica,sans-Serif" font-size="10.00">di::function::BetweenExclusive</text>
<text text-anchor="middle" x="409" y="-123.62" font-family="Helvetica,sans-Serif" font-size="10.00">&lt; BetweenExclusive &gt;</text>
</a>
</g>
</g>
<!-- Node1&#45;&gt;Node5 -->
<g id="edge4_Node000001_Node000005" class="edge">
<title>Node1&#45;&gt;Node5</title>
<g id="a_edge4_Node000001_Node000005"><a xlink:title=" ">
<path fill="none" stroke="#63b8ff" d="M285.84,-133.12C298.86,-133.12 312.53,-133.12 325.83,-133.12"/>
<polygon fill="#63b8ff" stroke="#63b8ff" points="286.1,-129.63 276.1,-133.13 286.1,-136.63 286.1,-129.63"/>
</a>
</g>
</g>
<!-- Node6 -->
<g id="Node000006" class="node">
<title>Node6</title>
<g id="a_Node000006"><a xlink:href="structdi_1_1function_1_1BetweenInclusive.html" target="_top" xlink:title=" ">
<polygon fill="white" stroke="#666666" points="490.5,-97.88 327.5,-97.88 327.5,-64.38 490.5,-64.38 490.5,-97.88"/>
<text text-anchor="start" x="335.5" y="-84.38" font-family="Helvetica,sans-Serif" font-size="10.00">di::function::BetweenInclusive</text>
<text text-anchor="middle" x="409" y="-71.62" font-family="Helvetica,sans-Serif" font-size="10.00">&lt; BetweenInclusive &gt;</text>
</a>
</g>
</g>
<!-- Node1&#45;&gt;Node6 -->
<g id="edge5_Node000001_Node000006" class="edge">
<title>Node1&#45;&gt;Node6</title>
<g id="a_edge5_Node000001_Node000006"><a xlink:title=" ">
<path fill="none" stroke="#63b8ff" d="M264.71,-119.39C279.4,-115.42 295.46,-111.09 310.25,-107.12 320.85,-104.28 332.1,-101.28 343.05,-98.36"/>
<polygon fill="#63b8ff" stroke="#63b8ff" points="264,-115.95 255.26,-121.94 265.82,-122.71 264,-115.95"/>
</a>
</g>
</g>
<!-- Node7 -->
<g id="Node000007" class="node">
<title>Node7</title>
<g id="a_Node000007"><a xlink:href="structdi_1_1function_1_1curry__back__ns_1_1CurryBackImpl.html" target="_top" xlink:title=" ">
<polygon fill="white" stroke="#666666" points="478.5,-46.25 339.5,-46.25 339.5,0 478.5,0 478.5,-46.25"/>
<text text-anchor="start" x="347.5" y="-32.75" font-family="Helvetica,sans-Serif" font-size="10.00">di::function::curry</text>
<text text-anchor="start" x="347.5" y="-20" font-family="Helvetica,sans-Serif" font-size="10.00">_back_ns::CurryBackImpl</text>
<text text-anchor="middle" x="409" y="-7.25" font-family="Helvetica,sans-Serif" font-size="10.00">&lt; F, max_arity_in &gt;</text>
</a>
</g>
</g>
<!-- Node1&#45;&gt;Node7 -->
<g id="edge6_Node000001_Node000007" class="edge">
<title>Node1&#45;&gt;Node7</title>
<g id="a_edge6_Node000001_Node000007"><a xlink:title=" ">
<path fill="none" stroke="#63b8ff" d="M232.65,-114.49C251.01,-97.04 280.54,-71.3 310.25,-55.12 319.27,-50.21 329.16,-45.89 339.09,-42.15"/>
<polygon fill="#63b8ff" stroke="#63b8ff" points="230.42,-111.78 225.67,-121.25 235.29,-116.81 230.42,-111.78"/>
</a>
</g>
</g>
<!-- Node2 -->
<g id="Node000002" class="node">
<title>Node2</title>
<g id="a_Node000002"><a xlink:href="structdi_1_1function_1_1pipeline_1_1EnablePipeline.html" target="_top" xlink:title=" ">
<polygon fill="white" stroke="#666666" points="115.75,-149.88 0,-149.88 0,-116.38 115.75,-116.38 115.75,-149.88"/>
<text text-anchor="start" x="8" y="-136.38" font-family="Helvetica,sans-Serif" font-size="10.00">di::function::pipeline</text>
<text text-anchor="middle" x="57.88" y="-123.62" font-family="Helvetica,sans-Serif" font-size="10.00">::EnablePipeline</text>
</a>
</g>
</g>
<!-- Node2&#45;&gt;Node1 -->
<g id="edge1_Node000001_Node000002" class="edge">
<title>Node2&#45;&gt;Node1</title>
<g id="a_edge1_Node000001_Node000002"><a xlink:title=" ">
<path fill="none" stroke="#63b8ff" d="M127.16,-133.12C135.22,-133.12 143.4,-133.12 151.34,-133.12"/>
<polygon fill="#63b8ff" stroke="#63b8ff" points="127.41,-129.63 117.41,-133.13 127.41,-136.63 127.41,-129.63"/>
</a>
</g>
</g>
</g>
</svg>
