<?xml version="1.0" encoding="UTF-8" standalone="no"?>
<!DOCTYPE svg PUBLIC "-//W3C//DTD SVG 1.1//EN"
 "http://www.w3.org/Graphics/SVG/1.1/DTD/svg11.dtd">
<!-- Generated by graphviz version 10.0.1 (0)
 -->
<!-- Title: di::vocab::IntrusiveRefCount&lt; T &gt; Pages: 1 -->
<svg width="535pt" height="352pt"
 viewBox="0.00 0.00 535.25 352.12" xmlns="http://www.w3.org/2000/svg" xmlns:xlink="http://www.w3.org/1999/xlink">
<g id="graph0" class="graph" transform="scale(1 1) rotate(0) translate(4 348.12)">
<title>di::vocab::IntrusiveRefCount&lt; T &gt;</title>
<!-- Node1 -->
<g id="Node000001" class="node">
<title>Node1</title>
<g id="a_Node000001"><a xlink:title=" ">
<polygon fill="#999999" stroke="#666666" points="326.75,-195.12 144.25,-195.12 144.25,-174.38 326.75,-174.38 326.75,-195.12"/>
<text text-anchor="middle" x="235.5" y="-181.62" font-family="Helvetica,sans-Serif" font-size="10.00">di::vocab::IntrusiveRefCount&lt; T &gt;</text>
</a>
</g>
</g>
<!-- Node3 -->
<g id="Node000003" class="node">
<title>Node3</title>
<g id="a_Node000003"><a xlink:href="classiris_1_1Inode.html" target="_top" xlink:title=" ">
<polygon fill="white" stroke="#666666" points="501.75,-344.12 388.25,-344.12 388.25,-323.38 501.75,-323.38 501.75,-344.12"/>
<text text-anchor="middle" x="445" y="-330.62" font-family="Helvetica,sans-Serif" font-size="10.00">iris::Inode&lt; Inode &gt;</text>
</a>
</g>
</g>
<!-- Node1&#45;&gt;Node3 -->
<g id="edge2_Node000001_Node000003" class="edge">
<title>Node1&#45;&gt;Node3</title>
<g id="a_edge2_Node000001_Node000003"><a xlink:title=" ">
<path fill="none" stroke="#63b8ff" d="M250.08,-204.38C270.92,-232.96 313.58,-285.68 362.75,-313.75 370.45,-318.14 379.09,-321.58 387.79,-324.26"/>
<polygon fill="#63b8ff" stroke="#63b8ff" points="253.18,-202.7 244.52,-196.59 247.48,-206.76 253.18,-202.7"/>
</a>
</g>
</g>
<!-- Node4 -->
<g id="Node000004" class="node">
<title>Node4</title>
<g id="a_Node000004"><a xlink:href="classiris_1_1TNode.html" target="_top" xlink:title=" ">
<polygon fill="white" stroke="#666666" points="506.25,-305.12 383.75,-305.12 383.75,-284.38 506.25,-284.38 506.25,-305.12"/>
<text text-anchor="middle" x="445" y="-291.62" font-family="Helvetica,sans-Serif" font-size="10.00">iris::TNode&lt; TNode &gt;</text>
</a>
</g>
</g>
<!-- Node1&#45;&gt;Node4 -->
<g id="edge3_Node000001_Node000004" class="edge">
<title>Node1&#45;&gt;Node4</title>
<g id="a_edge3_Node000001_Node000004"><a xlink:title=" ">
<path fill="none" stroke="#63b8ff" d="M256.54,-202.75C280.25,-223.12 321.72,-255.91 362.75,-274.75 370.67,-278.39 379.34,-281.42 387.98,-283.93"/>
<polygon fill="#63b8ff" stroke="#63b8ff" points="259.05,-200.3 249.22,-196.35 254.45,-205.57 259.05,-200.3"/>
</a>
</g>
</g>
<!-- Node5 -->
<g id="Node000005" class="node">
<title>Node5</title>
<g id="a_Node000005"><a xlink:href="classiris_1_1Task.html" target="_top" xlink:title=" ">
<polygon fill="white" stroke="#666666" points="496.5,-266.12 393.5,-266.12 393.5,-245.38 496.5,-245.38 496.5,-266.12"/>
<text text-anchor="middle" x="445" y="-252.62" font-family="Helvetica,sans-Serif" font-size="10.00">iris::Task&lt; Task &gt;</text>
</a>
</g>
</g>
<!-- Node1&#45;&gt;Node5 -->
<g id="edge4_Node000001_Node000005" class="edge">
<title>Node1&#45;&gt;Node5</title>
<g id="a_edge4_Node000001_Node000005"><a xlink:title=" ">
<path fill="none" stroke="#63b8ff" d="M269.79,-200.19C294.93,-211.42 330.5,-226.41 362.75,-236.75 372.54,-239.89 383.16,-242.75 393.38,-245.24"/>
<polygon fill="#63b8ff" stroke="#63b8ff" points="271.29,-197.02 260.73,-196.1 268.4,-203.4 271.29,-197.02"/>
</a>
</g>
</g>
<!-- Node6 -->
<g id="Node000006" class="node">
<title>Node6</title>
<g id="a_Node000006"><a xlink:href="classiris_1_1TaskArguments.html" target="_top" xlink:title=" ">
<polygon fill="white" stroke="#666666" points="501.75,-227.5 388.25,-227.5 388.25,-194 501.75,-194 501.75,-227.5"/>
<text text-anchor="start" x="396.25" y="-214" font-family="Helvetica,sans-Serif" font-size="10.00">iris::TaskArguments</text>
<text text-anchor="middle" x="445" y="-201.25" font-family="Helvetica,sans-Serif" font-size="10.00">&lt; TaskArguments &gt;</text>
</a>
</g>
</g>
<!-- Node1&#45;&gt;Node6 -->
<g id="edge5_Node000001_Node000006" class="edge">
<title>Node1&#45;&gt;Node6</title>
<g id="a_edge5_Node000001_Node000006"><a xlink:title=" ">
<path fill="none" stroke="#63b8ff" d="M334.36,-197.01C352.71,-199.31 371.3,-201.64 387.83,-203.71"/>
<polygon fill="#63b8ff" stroke="#63b8ff" points="334.86,-193.55 324.5,-195.78 333.99,-200.49 334.86,-193.55"/>
</a>
</g>
</g>
<!-- Node7 -->
<g id="Node000007" class="node">
<title>Node7</title>
<g id="a_Node000007"><a xlink:href="classiris_1_1TaskNamespace.html" target="_top" xlink:title=" ">
<polygon fill="white" stroke="#666666" points="504,-175.5 386,-175.5 386,-142 504,-142 504,-175.5"/>
<text text-anchor="start" x="394" y="-162" font-family="Helvetica,sans-Serif" font-size="10.00">iris::TaskNamespace</text>
<text text-anchor="middle" x="445" y="-149.25" font-family="Helvetica,sans-Serif" font-size="10.00">&lt; TaskNamespace &gt;</text>
</a>
</g>
</g>
<!-- Node1&#45;&gt;Node7 -->
<g id="edge6_Node000001_Node000007" class="edge">
<title>Node1&#45;&gt;Node7</title>
<g id="a_edge6_Node000001_Node000007"><a xlink:title=" ">
<path fill="none" stroke="#63b8ff" d="M334.21,-172.51C351.82,-170.3 369.65,-168.07 385.69,-166.06"/>
<polygon fill="#63b8ff" stroke="#63b8ff" points="333.99,-169.01 324.5,-173.72 334.86,-175.95 333.99,-169.01"/>
</a>
</g>
</g>
<!-- Node8 -->
<g id="Node000008" class="node">
<title>Node8</title>
<g id="a_Node000008"><a xlink:href="classiris_1_1TaskStatus.html" target="_top" xlink:title=" ">
<polygon fill="white" stroke="#666666" points="527.25,-124.12 362.75,-124.12 362.75,-103.38 527.25,-103.38 527.25,-124.12"/>
<text text-anchor="middle" x="445" y="-110.62" font-family="Helvetica,sans-Serif" font-size="10.00">iris::TaskStatus&lt; TaskStatus &gt;</text>
</a>
</g>
</g>
<!-- Node1&#45;&gt;Node8 -->
<g id="edge7_Node000001_Node000008" class="edge">
<title>Node1&#45;&gt;Node8</title>
<g id="a_edge7_Node000001_Node000008"><a xlink:title=" ">
<path fill="none" stroke="#63b8ff" d="M269.79,-169.31C294.93,-158.08 330.5,-143.09 362.75,-132.75 372.13,-129.74 382.26,-126.99 392.08,-124.58"/>
<polygon fill="#63b8ff" stroke="#63b8ff" points="268.4,-166.1 260.73,-173.4 271.29,-172.48 268.4,-166.1"/>
</a>
</g>
</g>
<!-- Node9 -->
<g id="Node000009" class="node">
<title>Node9</title>
<g id="a_Node000009"><a xlink:href="classiris_1_1mm_1_1AddressSpace.html" target="_top" xlink:title=" ">
<polygon fill="white" stroke="#666666" points="510.38,-85.5 379.62,-85.5 379.62,-52 510.38,-52 510.38,-85.5"/>
<text text-anchor="start" x="387.62" y="-72" font-family="Helvetica,sans-Serif" font-size="10.00">iris::mm::AddressSpace</text>
<text text-anchor="middle" x="445" y="-59.25" font-family="Helvetica,sans-Serif" font-size="10.00">&lt; AddressSpace &gt;</text>
</a>
</g>
</g>
<!-- Node1&#45;&gt;Node9 -->
<g id="edge8_Node000001_Node000009" class="edge">
<title>Node1&#45;&gt;Node9</title>
<g id="a_edge8_Node000001_Node000009"><a xlink:title=" ">
<path fill="none" stroke="#63b8ff" d="M257.16,-166.93C281.15,-146.99 322.6,-114.87 362.75,-94.75 369.24,-91.5 376.22,-88.54 383.27,-85.88"/>
<polygon fill="#63b8ff" stroke="#63b8ff" points="255.12,-164.07 249.73,-173.19 259.63,-169.42 255.12,-164.07"/>
</a>
</g>
</g>
<!-- Node10 -->
<g id="Node000010" class="node">
<title>Node10</title>
<g id="a_Node000010"><a xlink:href="classiris_1_1mm_1_1BackingObject.html" target="_top" xlink:title=" ">
<polygon fill="white" stroke="#666666" points="511.5,-33.5 378.5,-33.5 378.5,0 511.5,0 511.5,-33.5"/>
<text text-anchor="start" x="386.5" y="-20" font-family="Helvetica,sans-Serif" font-size="10.00">iris::mm::BackingObject</text>
<text text-anchor="middle" x="445" y="-7.25" font-family="Helvetica,sans-Serif" font-size="10.00">&lt; BackingObject &gt;</text>
</a>
</g>
</g>
<!-- Node1&#45;&gt;Node10 -->
<g id="edge9_Node000001_Node000010" class="edge">
<title>Node1&#45;&gt;Node10</title>
<g id="a_edge9_Node000001_Node000010"><a xlink:title=" ">
<path fill="none" stroke="#63b8ff" d="M249.27,-164.47C269.62,-133.76 312.29,-75.58 362.75,-42.75 367.84,-39.44 373.38,-36.52 379.1,-33.95"/>
<polygon fill="#63b8ff" stroke="#63b8ff" points="246.36,-162.53 243.85,-172.83 252.23,-166.34 246.36,-162.53"/>
</a>
</g>
</g>
<!-- Node2 -->
<g id="Node000002" class="node">
<title>Node2</title>
<g id="a_Node000002"><a xlink:href="structdi_1_1util_1_1Immovable.html" target="_top" xlink:title=" ">
<polygon fill="white" stroke="#666666" points="108.25,-195.12 0,-195.12 0,-174.38 108.25,-174.38 108.25,-195.12"/>
<text text-anchor="middle" x="54.12" y="-181.62" font-family="Helvetica,sans-Serif" font-size="10.00">di::util::Immovable</text>
</a>
</g>
</g>
<!-- Node2&#45;&gt;Node1 -->
<g id="edge1_Node000001_Node000002" class="edge">
<title>Node2&#45;&gt;Node1</title>
<g id="a_edge1_Node000001_Node000002"><a xlink:title=" ">
<path fill="none" stroke="#63b8ff" d="M119.8,-184.75C127.71,-184.75 135.89,-184.75 144.08,-184.75"/>
<polygon fill="#63b8ff" stroke="#63b8ff" points="119.97,-181.25 109.97,-184.75 119.97,-188.25 119.97,-181.25"/>
</a>
</g>
</g>
</g>
</svg>
