<?xml version="1.0" encoding="UTF-8" standalone="no"?>
<!DOCTYPE svg PUBLIC "-//W3C//DTD SVG 1.1//EN"
 "http://www.w3.org/Graphics/SVG/1.1/DTD/svg11.dtd">
<!-- Generated by graphviz version 10.0.1 (0)
 -->
<!-- Title: di::util::SelfPointer&lt; T &gt; Pages: 1 -->
<svg width="298pt" height="98pt"
 viewBox="0.00 0.00 298.00 98.25" xmlns="http://www.w3.org/2000/svg" xmlns:xlink="http://www.w3.org/1999/xlink">
<g id="graph0" class="graph" transform="scale(1 1) rotate(0) translate(4 94.25)">
<title>di::util::SelfPointer&lt; T &gt;</title>
<!-- Node1 -->
<g id="Node000001" class="node">
<title>Node1</title>
<g id="a_Node000001"><a xlink:title=" ">
<polygon fill="#999999" stroke="#666666" points="203.25,-90.25 68.75,-90.25 68.75,-69.5 203.25,-69.5 203.25,-90.25"/>
<text text-anchor="middle" x="136" y="-76.75" font-family="Helvetica,sans-Serif" font-size="10.00">di::util::SelfPointer&lt; T &gt;</text>
</a>
</g>
</g>
<!-- Node2 -->
<g id="Node000002" class="node">
<title>Node2</title>
<g id="a_Node000002"><a xlink:href="structdius_1_1PlatformThread.html" target="_top" xlink:title=" ">
<polygon fill="white" stroke="#666666" points="118,-33.5 0,-33.5 0,0 118,0 118,-33.5"/>
<text text-anchor="start" x="8" y="-20" font-family="Helvetica,sans-Serif" font-size="10.00">dius::PlatformThread</text>
<text text-anchor="middle" x="59" y="-7.25" font-family="Helvetica,sans-Serif" font-size="10.00">&lt; PlatformThread &gt;</text>
</a>
</g>
</g>
<!-- Node1&#45;&gt;Node2 -->
<g id="edge1_Node000001_Node000002" class="edge">
<title>Node1&#45;&gt;Node2</title>
<g id="a_edge1_Node000001_Node000002"><a xlink:title=" ">
<path fill="none" stroke="#63b8ff" d="M114.69,-61.96C103.69,-53.22 90.33,-42.62 79.45,-33.98"/>
<polygon fill="#63b8ff" stroke="#63b8ff" points="112.43,-64.64 122.44,-68.11 116.79,-59.15 112.43,-64.64"/>
</a>
</g>
</g>
<!-- Node3 -->
<g id="Node000003" class="node">
<title>Node3</title>
<g id="a_Node000003"><a xlink:href="classiris_1_1Processor.html" target="_top" xlink:title=" ">
<polygon fill="white" stroke="#666666" points="290,-27.12 136,-27.12 136,-6.38 290,-6.38 290,-27.12"/>
<text text-anchor="middle" x="213" y="-13.62" font-family="Helvetica,sans-Serif" font-size="10.00">iris::Processor&lt; Processor &gt;</text>
</a>
</g>
</g>
<!-- Node1&#45;&gt;Node3 -->
<g id="edge2_Node000001_Node000003" class="edge">
<title>Node1&#45;&gt;Node3</title>
<g id="a_edge2_Node000001_Node000003"><a xlink:title=" ">
<path fill="none" stroke="#63b8ff" d="M157.3,-61.96C171.25,-50.89 189,-36.81 200.66,-27.55"/>
<polygon fill="#63b8ff" stroke="#63b8ff" points="155.21,-59.15 149.56,-68.11 159.57,-64.64 155.21,-59.15"/>
</a>
</g>
</g>
</g>
</svg>
