<?xml version="1.0" encoding="UTF-8" standalone="no"?>
<!DOCTYPE svg PUBLIC "-//W3C//DTD SVG 1.1//EN"
 "http://www.w3.org/Graphics/SVG/1.1/DTD/svg11.dtd">
<!-- Generated by graphviz version 10.0.1 (0)
 -->
<!-- Title: di::execution::ipc_binary_ns::ReplyWaiterBase Pages: 1 -->
<svg width="695pt" height="80pt"
 viewBox="0.00 0.00 694.50 79.75" xmlns="http://www.w3.org/2000/svg" xmlns:xlink="http://www.w3.org/1999/xlink">
<g id="graph0" class="graph" transform="scale(1 1) rotate(0) translate(4 75.75)">
<title>di::execution::ipc_binary_ns::ReplyWaiterBase</title>
<!-- Node1 -->
<g id="Node000001" class="node">
<title>Node1</title>
<g id="a_Node000001"><a xlink:title=" ">
<polygon fill="#999999" stroke="#666666" points="463.5,-52.62 305.75,-52.62 305.75,-19.12 463.5,-19.12 463.5,-52.62"/>
<text text-anchor="start" x="313.75" y="-39.12" font-family="Helvetica,sans-Serif" font-size="10.00">di::execution::ipc</text>
<text text-anchor="middle" x="384.62" y="-26.38" font-family="Helvetica,sans-Serif" font-size="10.00">_binary_ns::ReplyWaiterBase</text>
</a>
</g>
</g>
<!-- Node4 -->
<g id="Node000004" class="node">
<title>Node4</title>
<g id="a_Node000004"><a xlink:href="structdi_1_1execution_1_1ipc__binary__ns_1_1WaitForReplyOperationT_1_1Type.html" target="_top" xlink:title=" ">
<polygon fill="white" stroke="#666666" points="686.5,-71.75 499.5,-71.75 499.5,0 686.5,0 686.5,-71.75"/>
<text text-anchor="start" x="507.5" y="-58.25" font-family="Helvetica,sans-Serif" font-size="10.00">di::execution::ipc</text>
<text text-anchor="start" x="507.5" y="-45.5" font-family="Helvetica,sans-Serif" font-size="10.00">_binary_ns::WaitForReplyOperation</text>
<text text-anchor="start" x="507.5" y="-32.75" font-family="Helvetica,sans-Serif" font-size="10.00">T&lt; Proto, Read, Write, Alloc,</text>
<text text-anchor="start" x="507.5" y="-20" font-family="Helvetica,sans-Serif" font-size="10.00"> ClientOrServer, message_index</text>
<text text-anchor="middle" x="593" y="-7.25" font-family="Helvetica,sans-Serif" font-size="10.00">_, Rec &gt;::Type</text>
</a>
</g>
</g>
<!-- Node1&#45;&gt;Node4 -->
<g id="edge3_Node000001_Node000004" class="edge">
<title>Node1&#45;&gt;Node4</title>
<g id="a_edge3_Node000001_Node000004"><a xlink:title=" ">
<path fill="none" stroke="#63b8ff" d="M475.4,-35.88C483.28,-35.88 491.28,-35.88 499.19,-35.88"/>
<polygon fill="#63b8ff" stroke="#63b8ff" points="475.45,-32.38 465.45,-35.88 475.45,-39.38 475.45,-32.38"/>
</a>
</g>
</g>
<!-- Node2 -->
<g id="Node000002" class="node">
<title>Node2</title>
<g id="a_Node000002"><a xlink:href="classdi_1_1container_1_1IntrusiveListNode.html" target="_top" xlink:title=" ">
<polygon fill="white" stroke="#666666" points="269.75,-52.62 144.25,-52.62 144.25,-19.12 269.75,-19.12 269.75,-52.62"/>
<text text-anchor="start" x="152.25" y="-39.12" font-family="Helvetica,sans-Serif" font-size="10.00">di::container::Intrusive</text>
<text text-anchor="middle" x="207" y="-26.38" font-family="Helvetica,sans-Serif" font-size="10.00">ListNode&lt;&gt;</text>
</a>
</g>
</g>
<!-- Node2&#45;&gt;Node1 -->
<g id="edge1_Node000001_Node000002" class="edge">
<title>Node2&#45;&gt;Node1</title>
<g id="a_edge1_Node000001_Node000002"><a xlink:title=" ">
<path fill="none" stroke="#63b8ff" d="M281.37,-35.88C289.29,-35.88 297.37,-35.88 305.34,-35.88"/>
<polygon fill="#63b8ff" stroke="#63b8ff" points="281.43,-32.38 271.43,-35.88 281.43,-39.38 281.43,-32.38"/>
</a>
</g>
</g>
<!-- Node3 -->
<g id="Node000003" class="node">
<title>Node3</title>
<g id="a_Node000003"><a xlink:href="structdi_1_1util_1_1Immovable.html" target="_top" xlink:title=" ">
<polygon fill="white" stroke="#666666" points="108.25,-46.25 0,-46.25 0,-25.5 108.25,-25.5 108.25,-46.25"/>
<text text-anchor="middle" x="54.12" y="-32.75" font-family="Helvetica,sans-Serif" font-size="10.00">di::util::Immovable</text>
</a>
</g>
</g>
<!-- Node3&#45;&gt;Node2 -->
<g id="edge2_Node000002_Node000003" class="edge">
<title>Node3&#45;&gt;Node2</title>
<g id="a_edge2_Node000002_Node000003"><a xlink:title=" ">
<path fill="none" stroke="#8b1a1a" d="M120.11,-35.88C127.97,-35.88 135.98,-35.88 143.8,-35.88"/>
<polygon fill="#8b1a1a" stroke="#8b1a1a" points="120.26,-32.38 110.26,-35.88 120.26,-39.38 120.26,-32.38"/>
</a>
</g>
</g>
</g>
</svg>
