<?xml version="1.0" encoding="UTF-8" standalone="no"?>
<!DOCTYPE svg PUBLIC "-//W3C//DTD SVG 1.1//EN"
 "http://www.w3.org/Graphics/SVG/1.1/DTD/svg11.dtd">
<!-- Generated by graphviz version 10.0.1 (0)
 -->
<!-- Title: iris::mm::PageStructurePhysicalPage Pages: 1 -->
<svg width="202pt" height="155pt"
 viewBox="0.00 0.00 201.75 155.00" xmlns="http://www.w3.org/2000/svg" xmlns:xlink="http://www.w3.org/1999/xlink">
<g id="graph0" class="graph" transform="scale(1 1) rotate(0) translate(4 151)">
<title>iris::mm::PageStructurePhysicalPage</title>
<!-- Node1 -->
<g id="Node000001" class="node">
<title>Node1</title>
<g id="a_Node000001"><a xlink:title="A physical page of memory used for the page tables themselves.">
<polygon fill="#999999" stroke="#666666" points="193.75,-20.75 0,-20.75 0,0 193.75,0 193.75,-20.75"/>
<text text-anchor="middle" x="96.88" y="-7.25" font-family="Helvetica,sans-Serif" font-size="10.00">iris::mm::PageStructurePhysicalPage</text>
</a>
</g>
</g>
<!-- Node2 -->
<g id="Node000002" class="node">
<title>Node2</title>
<g id="a_Node000002"><a xlink:href="classdi_1_1container_1_1IntrusiveListNode.html" target="_top" xlink:title=" ">
<polygon fill="white" stroke="#666666" points="159.62,-90.25 34.12,-90.25 34.12,-56.75 159.62,-56.75 159.62,-90.25"/>
<text text-anchor="start" x="42.12" y="-76.75" font-family="Helvetica,sans-Serif" font-size="10.00">di::container::Intrusive</text>
<text text-anchor="middle" x="96.88" y="-64" font-family="Helvetica,sans-Serif" font-size="10.00">ListNode&lt; Tag &gt;</text>
</a>
</g>
</g>
<!-- Node2&#45;&gt;Node1 -->
<g id="edge1_Node000001_Node000002" class="edge">
<title>Node2&#45;&gt;Node1</title>
<g id="a_edge1_Node000001_Node000002"><a xlink:title=" ">
<path fill="none" stroke="#63b8ff" d="M96.88,-44.94C96.88,-36.46 96.88,-27.67 96.88,-21.22"/>
<polygon fill="#63b8ff" stroke="#63b8ff" points="93.38,-44.93 96.88,-54.93 100.38,-44.93 93.38,-44.93"/>
</a>
</g>
</g>
<!-- Node3 -->
<g id="Node000003" class="node">
<title>Node3</title>
<g id="a_Node000003"><a xlink:href="structdi_1_1util_1_1Immovable.html" target="_top" xlink:title=" ">
<polygon fill="white" stroke="#666666" points="151,-147 42.75,-147 42.75,-126.25 151,-126.25 151,-147"/>
<text text-anchor="middle" x="96.88" y="-133.5" font-family="Helvetica,sans-Serif" font-size="10.00">di::util::Immovable</text>
</a>
</g>
</g>
<!-- Node3&#45;&gt;Node2 -->
<g id="edge2_Node000002_Node000003" class="edge">
<title>Node3&#45;&gt;Node2</title>
<g id="a_edge2_Node000002_Node000003"><a xlink:title=" ">
<path fill="none" stroke="#8b1a1a" d="M96.88,-114.34C96.88,-106.6 96.88,-97.97 96.88,-90.73"/>
<polygon fill="#8b1a1a" stroke="#8b1a1a" points="93.38,-114.29 96.88,-124.29 100.38,-114.29 93.38,-114.29"/>
</a>
</g>
</g>
</g>
</svg>
