<?xml version="1.0" encoding="UTF-8" standalone="no"?>
<!DOCTYPE svg PUBLIC "-//W3C//DTD SVG 1.1//EN"
 "http://www.w3.org/Graphics/SVG/1.1/DTD/svg11.dtd">
<!-- Generated by graphviz version 10.0.1 (0)
 -->
<!-- Title: di::meta::detail::RemoveAllExtentsHelper&lt; T &gt; Pages: 1 -->
<svg width="189pt" height="181pt"
 viewBox="0.00 0.00 189.00 180.50" xmlns="http://www.w3.org/2000/svg" xmlns:xlink="http://www.w3.org/1999/xlink">
<g id="graph0" class="graph" transform="scale(1 1) rotate(0) translate(4 176.5)">
<title>di::meta::detail::RemoveAllExtentsHelper&lt; T &gt;</title>
<!-- Node1 -->
<g id="Node000001" class="node">
<title>Node1</title>
<g id="a_Node000001"><a xlink:title=" ">
<polygon fill="#999999" stroke="#666666" points="158.88,-33.5 22.12,-33.5 22.12,0 158.88,0 158.88,-33.5"/>
<text text-anchor="start" x="30.12" y="-20" font-family="Helvetica,sans-Serif" font-size="10.00">di::meta::detail::Remove</text>
<text text-anchor="middle" x="90.5" y="-7.25" font-family="Helvetica,sans-Serif" font-size="10.00">AllExtentsHelper&lt; T &gt;</text>
</a>
</g>
</g>
<!-- Node2 -->
<g id="Node000002" class="node">
<title>Node2</title>
<g id="a_Node000002"><a xlink:href="structdi_1_1meta_1_1detail_1_1RemoveAllExtentsHelper.html" target="_top" xlink:title=" ">
<polygon fill="white" stroke="#666666" points="181,-115.75 0,-115.75 0,-69.5 181,-69.5 181,-115.75"/>
<text text-anchor="start" x="8" y="-102.25" font-family="Helvetica,sans-Serif" font-size="10.00">di::meta::detail::Remove</text>
<text text-anchor="start" x="8" y="-89.5" font-family="Helvetica,sans-Serif" font-size="10.00">AllExtentsHelper&lt; RemoveExtent</text>
<text text-anchor="middle" x="90.5" y="-76.75" font-family="Helvetica,sans-Serif" font-size="10.00">&lt; T &gt; &gt;</text>
</a>
</g>
</g>
<!-- Node2&#45;&gt;Node1 -->
<g id="edge1_Node000001_Node000002" class="edge">
<title>Node2&#45;&gt;Node1</title>
<g id="a_edge1_Node000001_Node000002"><a xlink:title=" ">
<path fill="none" stroke="#63b8ff" d="M90.5,-57.64C90.5,-49.35 90.5,-40.86 90.5,-33.85"/>
<polygon fill="#63b8ff" stroke="#63b8ff" points="87,-57.55 90.5,-67.55 94,-57.55 87,-57.55"/>
</a>
</g>
</g>
<!-- Node3 -->
<g id="Node000003" class="node">
<title>Node3</title>
<g id="a_Node000003"><a xlink:href="structdi_1_1meta_1_1TypeConstant.html" target="_top" xlink:title=" ">
<polygon fill="white" stroke="#666666" points="169,-172.5 12,-172.5 12,-151.75 169,-151.75 169,-172.5"/>
<text text-anchor="middle" x="90.5" y="-159" font-family="Helvetica,sans-Serif" font-size="10.00">di::meta::TypeConstant&lt; T &gt;</text>
</a>
</g>
</g>
<!-- Node3&#45;&gt;Node2 -->
<g id="edge2_Node000002_Node000003" class="edge">
<title>Node3&#45;&gt;Node2</title>
<g id="a_edge2_Node000002_Node000003"><a xlink:title=" ">
<path fill="none" stroke="#63b8ff" d="M90.5,-139.96C90.5,-132.37 90.5,-123.8 90.5,-116.11"/>
<polygon fill="#63b8ff" stroke="#63b8ff" points="87,-139.94 90.5,-149.94 94,-139.94 87,-139.94"/>
</a>
</g>
</g>
</g>
</svg>
