<?xml version="1.0" encoding="UTF-8" standalone="no"?>
<!DOCTYPE svg PUBLIC "-//W3C//DTD SVG 1.1//EN"
 "http://www.w3.org/Graphics/SVG/1.1/DTD/svg11.dtd">
<!-- Generated by graphviz version 10.0.1 (0)
 -->
<!-- Title: iris::acpi::SDTHeader Pages: 1 -->
<svg width="208pt" height="86pt"
 viewBox="0.00 0.00 208.00 85.50" xmlns="http://www.w3.org/2000/svg" xmlns:xlink="http://www.w3.org/1999/xlink">
<g id="graph0" class="graph" transform="scale(1 1) rotate(0) translate(4 81.5)">
<title>iris::acpi::SDTHeader</title>
<!-- Node1 -->
<g id="Node000001" class="node">
<title>Node1</title>
<g id="a_Node000001"><a xlink:title="System Description Table Header.">
<polygon fill="#999999" stroke="#666666" points="159.25,-77.5 41.25,-77.5 41.25,-56.75 159.25,-56.75 159.25,-77.5"/>
<text text-anchor="middle" x="100.25" y="-64" font-family="Helvetica,sans-Serif" font-size="10.00">iris::acpi::SDTHeader</text>
</a>
</g>
</g>
<!-- Node2 -->
<g id="Node000002" class="node">
<title>Node2</title>
<g id="a_Node000002"><a xlink:href="structiris_1_1acpi_1_1MADT.html" target="_top" xlink:title="Multiple APIC Description Table.">
<polygon fill="white" stroke="#666666" points="92.5,-20.75 0,-20.75 0,0 92.5,0 92.5,-20.75"/>
<text text-anchor="middle" x="46.25" y="-7.25" font-family="Helvetica,sans-Serif" font-size="10.00">iris::acpi::MADT</text>
</a>
</g>
</g>
<!-- Node1&#45;&gt;Node2 -->
<g id="edge1_Node000001_Node000002" class="edge">
<title>Node1&#45;&gt;Node2</title>
<g id="a_edge1_Node000001_Node000002"><a xlink:title=" ">
<path fill="none" stroke="#63b8ff" d="M82.67,-48.3C73.74,-39.25 63.25,-28.61 55.82,-21.08"/>
<polygon fill="#63b8ff" stroke="#63b8ff" points="80.02,-50.6 89.53,-55.26 85,-45.68 80.02,-50.6"/>
</a>
</g>
</g>
<!-- Node3 -->
<g id="Node000003" class="node">
<title>Node3</title>
<g id="a_Node000003"><a xlink:href="structiris_1_1acpi_1_1RSDT.html" target="_top" xlink:title="Root System Description Table.">
<polygon fill="white" stroke="#666666" points="200,-20.75 110.5,-20.75 110.5,0 200,0 200,-20.75"/>
<text text-anchor="middle" x="155.25" y="-7.25" font-family="Helvetica,sans-Serif" font-size="10.00">iris::acpi::RSDT</text>
</a>
</g>
</g>
<!-- Node1&#45;&gt;Node3 -->
<g id="edge2_Node000001_Node000003" class="edge">
<title>Node1&#45;&gt;Node3</title>
<g id="a_edge2_Node000001_Node000003"><a xlink:title=" ">
<path fill="none" stroke="#63b8ff" d="M118.16,-48.3C127.25,-39.25 137.94,-28.61 145.5,-21.08"/>
<polygon fill="#63b8ff" stroke="#63b8ff" points="115.77,-45.73 111.16,-55.27 120.71,-50.69 115.77,-45.73"/>
</a>
</g>
</g>
</g>
</svg>
