<?xml version="1.0" encoding="UTF-8" standalone="no"?>
<!DOCTYPE svg PUBLIC "-//W3C//DTD SVG 1.1//EN"
 "http://www.w3.org/Graphics/SVG/1.1/DTD/svg11.dtd">
<!-- Generated by graphviz version 10.0.1 (0)
 -->
<!-- Title: di::function::curry_back_ns::CurryBackImpl&lt; F, max_arity_in &gt; Pages: 1 -->
<svg width="147pt" height="206pt"
 viewBox="0.00 0.00 147.00 206.00" xmlns="http://www.w3.org/2000/svg" xmlns:xlink="http://www.w3.org/1999/xlink">
<g id="graph0" class="graph" transform="scale(1 1) rotate(0) translate(4 202)">
<title>di::function::curry_back_ns::CurryBackImpl&lt; F, max_arity_in &gt;</title>
<!-- Node1 -->
<g id="Node000001" class="node">
<title>Node1</title>
<g id="a_Node000001"><a xlink:title=" ">
<polygon fill="#999999" stroke="#666666" points="139,-46.25 0,-46.25 0,0 139,0 139,-46.25"/>
<text text-anchor="start" x="8" y="-32.75" font-family="Helvetica,sans-Serif" font-size="10.00">di::function::curry</text>
<text text-anchor="start" x="8" y="-20" font-family="Helvetica,sans-Serif" font-size="10.00">_back_ns::CurryBackImpl</text>
<text text-anchor="middle" x="69.5" y="-7.25" font-family="Helvetica,sans-Serif" font-size="10.00">&lt; F, max_arity_in &gt;</text>
</a>
</g>
</g>
<!-- Node2 -->
<g id="Node000002" class="node">
<title>Node2</title>
<g id="a_Node000002"><a xlink:href="structdi_1_1function_1_1curry__back__ns_1_1CurryBack.html" target="_top" xlink:title=" ">
<polygon fill="white" stroke="#666666" points="128.12,-128.5 10.88,-128.5 10.88,-82.25 128.12,-82.25 128.12,-128.5"/>
<text text-anchor="start" x="18.88" y="-115" font-family="Helvetica,sans-Serif" font-size="10.00">di::function::curry</text>
<text text-anchor="start" x="18.88" y="-102.25" font-family="Helvetica,sans-Serif" font-size="10.00">_back_ns::CurryBack</text>
<text text-anchor="middle" x="69.5" y="-89.5" font-family="Helvetica,sans-Serif" font-size="10.00">&lt; Self &gt;</text>
</a>
</g>
</g>
<!-- Node2&#45;&gt;Node1 -->
<g id="edge1_Node000001_Node000002" class="edge">
<title>Node2&#45;&gt;Node1</title>
<g id="a_edge1_Node000001_Node000002"><a xlink:title=" ">
<path fill="none" stroke="#63b8ff" d="M69.5,-70.59C69.5,-62.5 69.5,-54.07 69.5,-46.64"/>
<polygon fill="#63b8ff" stroke="#63b8ff" points="66,-70.51 69.5,-80.51 73,-70.51 66,-70.51"/>
</a>
</g>
</g>
<!-- Node3 -->
<g id="Node000003" class="node">
<title>Node3</title>
<g id="a_Node000003"><a xlink:href="structdi_1_1function_1_1pipeline_1_1EnablePipeline.html" target="_top" xlink:title=" ">
<polygon fill="white" stroke="#666666" points="127.38,-198 11.62,-198 11.62,-164.5 127.38,-164.5 127.38,-198"/>
<text text-anchor="start" x="19.62" y="-184.5" font-family="Helvetica,sans-Serif" font-size="10.00">di::function::pipeline</text>
<text text-anchor="middle" x="69.5" y="-171.75" font-family="Helvetica,sans-Serif" font-size="10.00">::EnablePipeline</text>
</a>
</g>
</g>
<!-- Node3&#45;&gt;Node2 -->
<g id="edge2_Node000002_Node000003" class="edge">
<title>Node3&#45;&gt;Node2</title>
<g id="a_edge2_Node000002_Node000003"><a xlink:title=" ">
<path fill="none" stroke="#63b8ff" d="M69.5,-152.89C69.5,-144.96 69.5,-136.41 69.5,-128.82"/>
<polygon fill="#63b8ff" stroke="#63b8ff" points="66,-152.71 69.5,-162.71 73,-152.71 66,-152.71"/>
</a>
</g>
</g>
</g>
</svg>
