<?xml version="1.0" encoding="UTF-8" standalone="no"?>
<!DOCTYPE svg PUBLIC "-//W3C//DTD SVG 1.1//EN"
 "http://www.w3.org/Graphics/SVG/1.1/DTD/svg11.dtd">
<!-- Generated by graphviz version 10.0.1 (0)
 -->
<!-- Title: di::function::curry_ns::CurryImpl&lt; F, max_arity_in &gt; Pages: 1 -->
<svg width="140pt" height="193pt"
 viewBox="0.00 0.00 139.50 193.25" xmlns="http://www.w3.org/2000/svg" xmlns:xlink="http://www.w3.org/1999/xlink">
<g id="graph0" class="graph" transform="scale(1 1) rotate(0) translate(4 189.25)">
<title>di::function::curry_ns::CurryImpl&lt; F, max_arity_in &gt;</title>
<!-- Node1 -->
<g id="Node000001" class="node">
<title>Node1</title>
<g id="a_Node000001"><a xlink:title=" ">
<polygon fill="#999999" stroke="#666666" points="131.5,-46.25 0,-46.25 0,0 131.5,0 131.5,-46.25"/>
<text text-anchor="start" x="8" y="-32.75" font-family="Helvetica,sans-Serif" font-size="10.00">di::function::curry</text>
<text text-anchor="start" x="8" y="-20" font-family="Helvetica,sans-Serif" font-size="10.00">_ns::CurryImpl&lt; F, max</text>
<text text-anchor="middle" x="65.75" y="-7.25" font-family="Helvetica,sans-Serif" font-size="10.00">_arity_in &gt;</text>
</a>
</g>
</g>
<!-- Node2 -->
<g id="Node000002" class="node">
<title>Node2</title>
<g id="a_Node000002"><a xlink:href="structdi_1_1function_1_1curry__ns_1_1Curry.html" target="_top" xlink:title=" ">
<polygon fill="white" stroke="#666666" points="118.75,-115.75 12.75,-115.75 12.75,-82.25 118.75,-82.25 118.75,-115.75"/>
<text text-anchor="start" x="20.75" y="-102.25" font-family="Helvetica,sans-Serif" font-size="10.00">di::function::curry</text>
<text text-anchor="middle" x="65.75" y="-89.5" font-family="Helvetica,sans-Serif" font-size="10.00">_ns::Curry&lt; Self &gt;</text>
</a>
</g>
</g>
<!-- Node2&#45;&gt;Node1 -->
<g id="edge1_Node000001_Node000002" class="edge">
<title>Node2&#45;&gt;Node1</title>
<g id="a_edge1_Node000001_Node000002"><a xlink:title=" ">
<path fill="none" stroke="#63b8ff" d="M65.75,-70.64C65.75,-62.71 65.75,-54.16 65.75,-46.57"/>
<polygon fill="#63b8ff" stroke="#63b8ff" points="62.25,-70.46 65.75,-80.46 69.25,-70.46 62.25,-70.46"/>
</a>
</g>
</g>
<!-- Node3 -->
<g id="Node000003" class="node">
<title>Node3</title>
<g id="a_Node000003"><a xlink:href="structdi_1_1function_1_1pipeline_1_1EnablePipeline.html" target="_top" xlink:title=" ">
<polygon fill="white" stroke="#666666" points="123.62,-185.25 7.88,-185.25 7.88,-151.75 123.62,-151.75 123.62,-185.25"/>
<text text-anchor="start" x="15.88" y="-171.75" font-family="Helvetica,sans-Serif" font-size="10.00">di::function::pipeline</text>
<text text-anchor="middle" x="65.75" y="-159" font-family="Helvetica,sans-Serif" font-size="10.00">::EnablePipeline</text>
</a>
</g>
</g>
<!-- Node3&#45;&gt;Node2 -->
<g id="edge2_Node000002_Node000003" class="edge">
<title>Node3&#45;&gt;Node2</title>
<g id="a_edge2_Node000002_Node000003"><a xlink:title=" ">
<path fill="none" stroke="#63b8ff" d="M65.75,-140.06C65.75,-131.84 65.75,-123.09 65.75,-115.88"/>
<polygon fill="#63b8ff" stroke="#63b8ff" points="62.25,-139.99 65.75,-149.99 69.25,-139.99 62.25,-139.99"/>
</a>
</g>
</g>
</g>
</svg>
