<?xml version="1.0" encoding="UTF-8" standalone="no"?>
<!DOCTYPE svg PUBLIC "-//W3C//DTD SVG 1.1//EN"
 "http://www.w3.org/Graphics/SVG/1.1/DTD/svg11.dtd">
<!-- Generated by graphviz version 10.0.1 (0)
 -->
<!-- Title: di::meta::detail::CommonErrorHelper&lt; T, U &gt; Pages: 1 -->
<svg width="352pt" height="198pt"
 viewBox="0.00 0.00 352.00 197.50" xmlns="http://www.w3.org/2000/svg" xmlns:xlink="http://www.w3.org/1999/xlink">
<g id="graph0" class="graph" transform="scale(1 1) rotate(0) translate(4 193.5)">
<title>di::meta::detail::CommonErrorHelper&lt; T, U &gt;</title>
<!-- Node1 -->
<g id="Node000001" class="node">
<title>Node1</title>
<g id="a_Node000001"><a xlink:title=" ">
<polygon fill="#999999" stroke="#666666" points="344,-111.5 203.5,-111.5 203.5,-78 344,-78 344,-111.5"/>
<text text-anchor="start" x="211.5" y="-98" font-family="Helvetica,sans-Serif" font-size="10.00">di::meta::detail::Common</text>
<text text-anchor="middle" x="273.75" y="-85.25" font-family="Helvetica,sans-Serif" font-size="10.00">ErrorHelper&lt; T, U &gt;</text>
</a>
</g>
</g>
<!-- Node2 -->
<g id="Node000002" class="node">
<title>Node2</title>
<g id="a_Node000002"><a xlink:href="structdi_1_1meta_1_1CustomCommonError.html" target="_top" xlink:title=" ">
<polygon fill="white" stroke="#666666" points="167.5,-189.5 0,-189.5 0,-156 167.5,-156 167.5,-189.5"/>
<text text-anchor="start" x="8" y="-176" font-family="Helvetica,sans-Serif" font-size="10.00">di::meta::CustomCommonError</text>
<text text-anchor="middle" x="83.75" y="-163.25" font-family="Helvetica,sans-Serif" font-size="10.00">&lt; T, U &gt;</text>
</a>
</g>
</g>
<!-- Node2&#45;&gt;Node1 -->
<g id="edge1_Node000001_Node000002" class="edge">
<title>Node2&#45;&gt;Node1</title>
<g id="a_edge1_Node000001_Node000002"><a xlink:title=" ">
<path fill="none" stroke="#63b8ff" d="M154.14,-151.82C158.69,-150.18 163.18,-148.49 167.5,-146.75 192.85,-136.58 220.49,-122.81 241.09,-111.99"/>
<polygon fill="#63b8ff" stroke="#63b8ff" points="153.19,-148.45 144.9,-155.04 155.49,-155.06 153.19,-148.45"/>
</a>
</g>
</g>
<!-- Node3 -->
<g id="Node000003" class="node">
<title>Node3</title>
<g id="a_Node000003"><a xlink:href="structdi_1_1meta_1_1TypeConstant.html" target="_top" xlink:title=" ">
<polygon fill="white" stroke="#666666" points="157.38,-137.5 10.12,-137.5 10.12,-104 157.38,-104 157.38,-137.5"/>
<text text-anchor="start" x="18.12" y="-124" font-family="Helvetica,sans-Serif" font-size="10.00">di::meta::TypeConstant</text>
<text text-anchor="middle" x="83.75" y="-111.25" font-family="Helvetica,sans-Serif" font-size="10.00">&lt; CommonType&lt; T, U &gt; &gt;</text>
</a>
</g>
</g>
<!-- Node3&#45;&gt;Node1 -->
<g id="edge2_Node000001_Node000003" class="edge">
<title>Node3&#45;&gt;Node1</title>
<g id="a_edge2_Node000001_Node000003"><a xlink:title=" ">
<path fill="none" stroke="#63b8ff" d="M169.04,-109.09C180.47,-107.51 192.1,-105.9 203.23,-104.36"/>
<polygon fill="#63b8ff" stroke="#63b8ff" points="168.63,-105.62 159.2,-110.45 169.59,-112.55 168.63,-105.62"/>
</a>
</g>
</g>
<!-- Node4 -->
<g id="Node000004" class="node">
<title>Node4</title>
<g id="a_Node000004"><a xlink:href="structdi_1_1meta_1_1TypeConstant.html" target="_top" xlink:title=" ">
<polygon fill="white" stroke="#666666" points="148,-85.5 19.5,-85.5 19.5,-52 148,-52 148,-85.5"/>
<text text-anchor="start" x="27.5" y="-72" font-family="Helvetica,sans-Serif" font-size="10.00">di::meta::TypeConstant</text>
<text text-anchor="middle" x="83.75" y="-59.25" font-family="Helvetica,sans-Serif" font-size="10.00">&lt; Error &gt;</text>
</a>
</g>
</g>
<!-- Node4&#45;&gt;Node1 -->
<g id="edge3_Node000001_Node000004" class="edge">
<title>Node4&#45;&gt;Node1</title>
<g id="a_edge3_Node000001_Node000004"><a xlink:title=" ">
<path fill="none" stroke="#63b8ff" d="M159.71,-79.12C174,-81.09 188.91,-83.16 203.04,-85.11"/>
<polygon fill="#63b8ff" stroke="#63b8ff" points="160.28,-75.66 149.9,-77.76 159.32,-82.6 160.28,-75.66"/>
</a>
</g>
</g>
<!-- Node5 -->
<g id="Node000005" class="node">
<title>Node5</title>
<g id="a_Node000005"><a xlink:href="structdi_1_1meta_1_1TypeConstant.html" target="_top" xlink:title=" ">
<polygon fill="white" stroke="#666666" points="148,-33.5 19.5,-33.5 19.5,0 148,0 148,-33.5"/>
<text text-anchor="start" x="27.5" y="-20" font-family="Helvetica,sans-Serif" font-size="10.00">di::meta::TypeConstant</text>
<text text-anchor="middle" x="83.75" y="-7.25" font-family="Helvetica,sans-Serif" font-size="10.00">&lt; Variant&lt; T, U &gt; &gt;</text>
</a>
</g>
</g>
<!-- Node5&#45;&gt;Node1 -->
<g id="edge4_Node000001_Node000005" class="edge">
<title>Node5&#45;&gt;Node1</title>
<g id="a_edge4_Node000001_Node000005"><a xlink:title=" ">
<path fill="none" stroke="#63b8ff" d="M154.14,-37.68C158.69,-39.32 163.18,-41.01 167.5,-42.75 192.85,-52.92 220.49,-66.69 241.09,-77.51"/>
<polygon fill="#63b8ff" stroke="#63b8ff" points="155.49,-34.44 144.9,-34.46 153.19,-41.05 155.49,-34.44"/>
</a>
</g>
</g>
</g>
</svg>
