<?xml version="1.0" encoding="UTF-8" standalone="no"?>
<!DOCTYPE svg PUBLIC "-//W3C//DTD SVG 1.1//EN"
 "http://www.w3.org/Graphics/SVG/1.1/DTD/svg11.dtd">
<!-- Generated by graphviz version 10.0.1 (0)
 -->
<!-- Title: di::meta::detail::LikeExpectedHelper&lt; vocab::Expected&lt; X, E &gt;, U &gt; Pages: 1 -->
<svg width="346pt" height="124pt"
 viewBox="0.00 0.00 345.62 123.75" xmlns="http://www.w3.org/2000/svg" xmlns:xlink="http://www.w3.org/1999/xlink">
<g id="graph0" class="graph" transform="scale(1 1) rotate(0) translate(4 119.75)">
<title>di::meta::detail::LikeExpectedHelper&lt; vocab::Expected&lt; X, E &gt;, U &gt;</title>
<!-- Node1 -->
<g id="Node000001" class="node">
<title>Node1</title>
<g id="a_Node000001"><a xlink:title=" ">
<polygon fill="#999999" stroke="#666666" points="249.75,-46.25 89,-46.25 89,0 249.75,0 249.75,-46.25"/>
<text text-anchor="start" x="97" y="-32.75" font-family="Helvetica,sans-Serif" font-size="10.00">di::meta::detail::LikeExpected</text>
<text text-anchor="start" x="97" y="-20" font-family="Helvetica,sans-Serif" font-size="10.00">Helper&lt; vocab::Expected&lt;</text>
<text text-anchor="middle" x="169.38" y="-7.25" font-family="Helvetica,sans-Serif" font-size="10.00"> X, E &gt;, U &gt;</text>
</a>
</g>
</g>
<!-- Node2 -->
<g id="Node000002" class="node">
<title>Node2</title>
<g id="a_Node000002"><a xlink:href="structdi_1_1meta_1_1TypeConstant.html" target="_top" xlink:title=" ">
<polygon fill="white" stroke="#666666" points="160.75,-115.75 0,-115.75 0,-82.25 160.75,-82.25 160.75,-115.75"/>
<text text-anchor="start" x="8" y="-102.25" font-family="Helvetica,sans-Serif" font-size="10.00">di::meta::TypeConstant</text>
<text text-anchor="middle" x="80.38" y="-89.5" font-family="Helvetica,sans-Serif" font-size="10.00">&lt; vocab::Expected&lt; U, E &gt; &gt;</text>
</a>
</g>
</g>
<!-- Node2&#45;&gt;Node1 -->
<g id="edge1_Node000001_Node000002" class="edge">
<title>Node2&#45;&gt;Node1</title>
<g id="a_edge1_Node000001_Node000002"><a xlink:title=" ">
<path fill="none" stroke="#63b8ff" d="M108.37,-74.76C119.21,-65.76 131.58,-55.49 142.34,-46.57"/>
<polygon fill="#63b8ff" stroke="#63b8ff" points="106.31,-71.92 100.85,-81 110.78,-77.31 106.31,-71.92"/>
</a>
</g>
</g>
<!-- Node3 -->
<g id="Node000003" class="node">
<title>Node3</title>
<g id="a_Node000003"><a xlink:href="structdi_1_1meta_1_1TypeConstant.html" target="_top" xlink:title=" ">
<polygon fill="white" stroke="#666666" points="337.62,-109.38 179.12,-109.38 179.12,-88.62 337.62,-88.62 337.62,-109.38"/>
<text text-anchor="middle" x="258.38" y="-95.88" font-family="Helvetica,sans-Serif" font-size="10.00">di::meta::TypeConstant&lt; U &gt;</text>
</a>
</g>
</g>
<!-- Node3&#45;&gt;Node1 -->
<g id="edge2_Node000001_Node000003" class="edge">
<title>Node3&#45;&gt;Node1</title>
<g id="a_edge2_Node000001_Node000003"><a xlink:title=" ">
<path fill="none" stroke="#63b8ff" d="M238.09,-81.16C225.72,-70.9 209.78,-57.66 196.36,-46.52"/>
<polygon fill="#63b8ff" stroke="#63b8ff" points="235.65,-83.68 245.58,-87.38 240.12,-78.3 235.65,-83.68"/>
</a>
</g>
</g>
</g>
</svg>
