<?xml version="1.0" encoding="UTF-8" standalone="no"?>
<!DOCTYPE svg PUBLIC "-//W3C//DTD SVG 1.1//EN"
 "http://www.w3.org/Graphics/SVG/1.1/DTD/svg11.dtd">
<!-- Generated by graphviz version 10.0.1 (0)
 -->
<!-- Title: di::execution::ForwardingQuery Pages: 1 -->
<svg width="361pt" height="430pt"
 viewBox="0.00 0.00 361.00 429.50" xmlns="http://www.w3.org/2000/svg" xmlns:xlink="http://www.w3.org/1999/xlink">
<g id="graph0" class="graph" transform="scale(1 1) rotate(0) translate(4 425.5)">
<title>di::execution::ForwardingQuery</title>
<!-- Node1 -->
<g id="Node000001" class="node">
<title>Node1</title>
<g id="a_Node000001"><a xlink:title=" ">
<polygon fill="#999999" stroke="#666666" points="138.25,-239.5 0,-239.5 0,-206 138.25,-206 138.25,-239.5"/>
<text text-anchor="start" x="8" y="-226" font-family="Helvetica,sans-Serif" font-size="10.00">di::execution::Forwarding</text>
<text text-anchor="middle" x="69.12" y="-213.25" font-family="Helvetica,sans-Serif" font-size="10.00">Query</text>
</a>
</g>
</g>
<!-- Node2 -->
<g id="Node000002" class="node">
<title>Node2</title>
<g id="a_Node000002"><a xlink:href="structdi_1_1execution_1_1GetCompletionScheduler.html" target="_top" xlink:title=" ">
<polygon fill="white" stroke="#666666" points="342.5,-421.5 184.75,-421.5 184.75,-388 342.5,-388 342.5,-421.5"/>
<text text-anchor="start" x="192.75" y="-408" font-family="Helvetica,sans-Serif" font-size="10.00">di::execution::GetCompletion</text>
<text text-anchor="middle" x="263.62" y="-395.25" font-family="Helvetica,sans-Serif" font-size="10.00">Scheduler&lt; CPO &gt;</text>
</a>
</g>
</g>
<!-- Node1&#45;&gt;Node2 -->
<g id="edge1_Node000001_Node000002" class="edge">
<title>Node1&#45;&gt;Node2</title>
<g id="a_edge1_Node000001_Node000002"><a xlink:title=" ">
<path fill="none" stroke="#63b8ff" d="M81.24,-250.09C96.85,-285.07 128.57,-345.15 174.25,-378.75 178.89,-382.16 183.97,-385.13 189.28,-387.71"/>
<polygon fill="#63b8ff" stroke="#63b8ff" points="84.52,-248.86 77.34,-241.07 78.1,-251.63 84.52,-248.86"/>
</a>
</g>
</g>
<!-- Node3 -->
<g id="Node000003" class="node">
<title>Node3</title>
<g id="a_Node000003"><a xlink:href="structdi_1_1execution_1_1detail_1_1GetAllocatorFunction.html" target="_top" xlink:title=" ">
<polygon fill="white" stroke="#666666" points="325.62,-369.5 201.62,-369.5 201.62,-336 325.62,-336 325.62,-369.5"/>
<text text-anchor="start" x="209.62" y="-356" font-family="Helvetica,sans-Serif" font-size="10.00">di::execution::detail</text>
<text text-anchor="middle" x="263.62" y="-343.25" font-family="Helvetica,sans-Serif" font-size="10.00">::GetAllocatorFunction</text>
</a>
</g>
</g>
<!-- Node1&#45;&gt;Node3 -->
<g id="edge2_Node000001_Node000003" class="edge">
<title>Node1&#45;&gt;Node3</title>
<g id="a_edge2_Node000001_Node000003"><a xlink:title=" ">
<path fill="none" stroke="#63b8ff" d="M89.59,-248.53C108.7,-272.13 139.91,-306.38 174.25,-326.75 182.64,-331.73 192.05,-335.81 201.52,-339.14"/>
<polygon fill="#63b8ff" stroke="#63b8ff" points="92.53,-246.61 83.58,-240.94 87.04,-250.96 92.53,-246.61"/>
</a>
</g>
</g>
<!-- Node4 -->
<g id="Node000004" class="node">
<title>Node4</title>
<g id="a_Node000004"><a xlink:href="structdi_1_1execution_1_1detail_1_1GetDelegateeSchedulerFunction.html" target="_top" xlink:title=" ">
<polygon fill="white" stroke="#666666" points="353,-317.5 174.25,-317.5 174.25,-284 353,-284 353,-317.5"/>
<text text-anchor="start" x="182.25" y="-304" font-family="Helvetica,sans-Serif" font-size="10.00">di::execution::detail</text>
<text text-anchor="middle" x="263.62" y="-291.25" font-family="Helvetica,sans-Serif" font-size="10.00">::GetDelegateeSchedulerFunction</text>
</a>
</g>
</g>
<!-- Node1&#45;&gt;Node4 -->
<g id="edge3_Node000001_Node000004" class="edge">
<title>Node1&#45;&gt;Node4</title>
<g id="a_edge3_Node000001_Node000004"><a xlink:title=" ">
<path fill="none" stroke="#63b8ff" d="M110.95,-245.24C129.86,-255.11 152.83,-266.33 174.25,-274.75 182.29,-277.91 190.87,-280.89 199.4,-283.64"/>
<polygon fill="#63b8ff" stroke="#63b8ff" points="112.72,-242.22 102.24,-240.64 109.45,-248.41 112.72,-242.22"/>
</a>
</g>
</g>
<!-- Node5 -->
<g id="Node000005" class="node">
<title>Node5</title>
<g id="a_Node000005"><a xlink:href="structdi_1_1execution_1_1detail_1_1GetSchedulerFunction.html" target="_top" xlink:title=" ">
<polygon fill="white" stroke="#666666" points="327.88,-265.5 199.38,-265.5 199.38,-232 327.88,-232 327.88,-265.5"/>
<text text-anchor="start" x="207.38" y="-252" font-family="Helvetica,sans-Serif" font-size="10.00">di::execution::detail</text>
<text text-anchor="middle" x="263.62" y="-239.25" font-family="Helvetica,sans-Serif" font-size="10.00">::GetSchedulerFunction</text>
</a>
</g>
</g>
<!-- Node1&#45;&gt;Node5 -->
<g id="edge4_Node000001_Node000005" class="edge">
<title>Node1&#45;&gt;Node5</title>
<g id="a_edge4_Node000001_Node000005"><a xlink:title=" ">
<path fill="none" stroke="#63b8ff" d="M149.75,-233.5C166.15,-235.72 183.2,-238.02 198.94,-240.15"/>
<polygon fill="#63b8ff" stroke="#63b8ff" points="150.41,-230.06 140.04,-232.19 149.48,-237 150.41,-230.06"/>
</a>
</g>
</g>
<!-- Node6 -->
<g id="Node000006" class="node">
<title>Node6</title>
<g id="a_Node000006"><a xlink:href="structdi_1_1execution_1_1detail_1_1GetStopTokenFunction.html" target="_top" xlink:title=" ">
<polygon fill="white" stroke="#666666" points="328.62,-213.5 198.62,-213.5 198.62,-180 328.62,-180 328.62,-213.5"/>
<text text-anchor="start" x="206.62" y="-200" font-family="Helvetica,sans-Serif" font-size="10.00">di::execution::detail</text>
<text text-anchor="middle" x="263.62" y="-187.25" font-family="Helvetica,sans-Serif" font-size="10.00">::GetStopTokenFunction</text>
</a>
</g>
</g>
<!-- Node1&#45;&gt;Node6 -->
<g id="edge5_Node000001_Node000006" class="edge">
<title>Node1&#45;&gt;Node6</title>
<g id="a_edge5_Node000001_Node000006"><a xlink:title=" ">
<path fill="none" stroke="#63b8ff" d="M149.63,-212.01C165.84,-209.82 182.7,-207.55 198.3,-205.44"/>
<polygon fill="#63b8ff" stroke="#63b8ff" points="149.48,-208.5 140.04,-213.31 150.41,-215.44 149.48,-208.5"/>
</a>
</g>
</g>
<!-- Node7 -->
<g id="Node000007" class="node">
<title>Node7</title>
<g id="a_Node000007"><a xlink:href="structdi_1_1execution_1_1get__sequence__cardinality__ns_1_1Function.html" target="_top" xlink:title=" ">
<polygon fill="white" stroke="#666666" points="326,-161.88 201.25,-161.88 201.25,-115.62 326,-115.62 326,-161.88"/>
<text text-anchor="start" x="209.25" y="-148.38" font-family="Helvetica,sans-Serif" font-size="10.00">di::execution::get</text>
<text text-anchor="start" x="209.25" y="-135.62" font-family="Helvetica,sans-Serif" font-size="10.00">_sequence_cardinality</text>
<text text-anchor="middle" x="263.62" y="-122.88" font-family="Helvetica,sans-Serif" font-size="10.00">_ns::Function</text>
</a>
</g>
</g>
<!-- Node1&#45;&gt;Node7 -->
<g id="edge6_Node000001_Node000007" class="edge">
<title>Node1&#45;&gt;Node7</title>
<g id="a_edge6_Node000001_Node000007"><a xlink:title=" ">
<path fill="none" stroke="#63b8ff" d="M112.05,-200.43C130.83,-190.78 153.41,-179.69 174.25,-170.75 182.8,-167.08 191.92,-163.46 200.94,-160.05"/>
<polygon fill="#63b8ff" stroke="#63b8ff" points="110.65,-197.21 103.38,-204.92 113.87,-203.43 110.65,-197.21"/>
</a>
</g>
</g>
<!-- Node8 -->
<g id="Node000008" class="node">
<title>Node8</title>
<g id="a_Node000008"><a xlink:href="structdi_1_1execution_1_1is__always__lockstop__sequence__ns_1_1Function.html" target="_top" xlink:title=" ">
<polygon fill="white" stroke="#666666" points="332,-97.88 195.25,-97.88 195.25,-51.62 332,-51.62 332,-97.88"/>
<text text-anchor="start" x="203.25" y="-84.38" font-family="Helvetica,sans-Serif" font-size="10.00">di::execution::is_always</text>
<text text-anchor="start" x="203.25" y="-71.62" font-family="Helvetica,sans-Serif" font-size="10.00">_lockstop_sequence_ns::</text>
<text text-anchor="middle" x="263.62" y="-58.88" font-family="Helvetica,sans-Serif" font-size="10.00">Function</text>
</a>
</g>
</g>
<!-- Node1&#45;&gt;Node8 -->
<g id="edge7_Node000001_Node000008" class="edge">
<title>Node1&#45;&gt;Node8</title>
<g id="a_edge7_Node000001_Node000008"><a xlink:title=" ">
<path fill="none" stroke="#63b8ff" d="M87.75,-196.5C106.46,-170.46 138.24,-131.04 174.25,-106.75 180.61,-102.46 187.61,-98.67 194.81,-95.34"/>
<polygon fill="#63b8ff" stroke="#63b8ff" points="85,-194.33 82.11,-204.53 90.73,-198.36 85,-194.33"/>
</a>
</g>
</g>
<!-- Node9 -->
<g id="Node000009" class="node">
<title>Node9</title>
<g id="a_Node000009"><a xlink:href="structdi_1_1execution_1_1is__debug__env__ns_1_1Function.html" target="_top" xlink:title=" ">
<polygon fill="white" stroke="#666666" points="327.5,-33.5 199.75,-33.5 199.75,0 327.5,0 327.5,-33.5"/>
<text text-anchor="start" x="207.75" y="-20" font-family="Helvetica,sans-Serif" font-size="10.00">di::execution::is_debug</text>
<text text-anchor="middle" x="263.62" y="-7.25" font-family="Helvetica,sans-Serif" font-size="10.00">_env_ns::Function</text>
</a>
</g>
</g>
<!-- Node1&#45;&gt;Node9 -->
<g id="edge8_Node000001_Node000009" class="edge">
<title>Node1&#45;&gt;Node9</title>
<g id="a_edge8_Node000001_Node000009"><a xlink:title=" ">
<path fill="none" stroke="#63b8ff" d="M78.76,-195.03C92.52,-155.39 123.23,-82.86 174.25,-42.75 181.67,-36.92 190.36,-32.39 199.35,-28.88"/>
<polygon fill="#63b8ff" stroke="#63b8ff" points="75.5,-193.72 75.65,-204.32 82.14,-195.94 75.5,-193.72"/>
</a>
</g>
</g>
</g>
</svg>
