<?xml version="1.0" encoding="UTF-8" standalone="no"?>
<!DOCTYPE svg PUBLIC "-//W3C//DTD SVG 1.1//EN"
 "http://www.w3.org/Graphics/SVG/1.1/DTD/svg11.dtd">
<!-- Generated by graphviz version 10.0.1 (0)
 -->
<!-- Title: di::execution::ipc_binary_ns::WaitForReplyOperationT&lt; Proto, Read, Write, Alloc, ClientOrServer, message_index_, Rec &gt;::Type Pages: 1 -->
<svg width="195pt" height="276pt"
 viewBox="0.00 0.00 195.00 275.50" xmlns="http://www.w3.org/2000/svg" xmlns:xlink="http://www.w3.org/1999/xlink">
<g id="graph0" class="graph" transform="scale(1 1) rotate(0) translate(4 271.5)">
<title>di::execution::ipc_binary_ns::WaitForReplyOperationT&lt; Proto, Read, Write, Alloc, ClientOrServer, message_index_, Rec &gt;::Type</title>
<!-- Node1 -->
<g id="Node000001" class="node">
<title>Node1</title>
<g id="a_Node000001"><a xlink:title=" ">
<polygon fill="#999999" stroke="#666666" points="187,-71.75 0,-71.75 0,0 187,0 187,-71.75"/>
<text text-anchor="start" x="8" y="-58.25" font-family="Helvetica,sans-Serif" font-size="10.00">di::execution::ipc</text>
<text text-anchor="start" x="8" y="-45.5" font-family="Helvetica,sans-Serif" font-size="10.00">_binary_ns::WaitForReplyOperation</text>
<text text-anchor="start" x="8" y="-32.75" font-family="Helvetica,sans-Serif" font-size="10.00">T&lt; Proto, Read, Write, Alloc,</text>
<text text-anchor="start" x="8" y="-20" font-family="Helvetica,sans-Serif" font-size="10.00"> ClientOrServer, message_index</text>
<text text-anchor="middle" x="93.5" y="-7.25" font-family="Helvetica,sans-Serif" font-size="10.00">_, Rec &gt;::Type</text>
</a>
</g>
</g>
<!-- Node2 -->
<g id="Node000002" class="node">
<title>Node2</title>
<g id="a_Node000002"><a xlink:href="structdi_1_1execution_1_1ipc__binary__ns_1_1ReplyWaiterBase.html" target="_top" xlink:title=" ">
<polygon fill="white" stroke="#666666" points="172.38,-141.25 14.62,-141.25 14.62,-107.75 172.38,-107.75 172.38,-141.25"/>
<text text-anchor="start" x="22.62" y="-127.75" font-family="Helvetica,sans-Serif" font-size="10.00">di::execution::ipc</text>
<text text-anchor="middle" x="93.5" y="-115" font-family="Helvetica,sans-Serif" font-size="10.00">_binary_ns::ReplyWaiterBase</text>
</a>
</g>
</g>
<!-- Node2&#45;&gt;Node1 -->
<g id="edge1_Node000001_Node000002" class="edge">
<title>Node2&#45;&gt;Node1</title>
<g id="a_edge1_Node000001_Node000002"><a xlink:title=" ">
<path fill="none" stroke="#63b8ff" d="M93.5,-96.34C93.5,-88.64 93.5,-80.15 93.5,-72.05"/>
<polygon fill="#63b8ff" stroke="#63b8ff" points="90,-96.1 93.5,-106.1 97,-96.1 90,-96.1"/>
</a>
</g>
</g>
<!-- Node3 -->
<g id="Node000003" class="node">
<title>Node3</title>
<g id="a_Node000003"><a xlink:href="classdi_1_1container_1_1IntrusiveListNode.html" target="_top" xlink:title=" ">
<polygon fill="white" stroke="#666666" points="156.25,-210.75 30.75,-210.75 30.75,-177.25 156.25,-177.25 156.25,-210.75"/>
<text text-anchor="start" x="38.75" y="-197.25" font-family="Helvetica,sans-Serif" font-size="10.00">di::container::Intrusive</text>
<text text-anchor="middle" x="93.5" y="-184.5" font-family="Helvetica,sans-Serif" font-size="10.00">ListNode&lt;&gt;</text>
</a>
</g>
</g>
<!-- Node3&#45;&gt;Node2 -->
<g id="edge2_Node000002_Node000003" class="edge">
<title>Node3&#45;&gt;Node2</title>
<g id="a_edge2_Node000002_Node000003"><a xlink:title=" ">
<path fill="none" stroke="#63b8ff" d="M93.5,-165.56C93.5,-157.34 93.5,-148.59 93.5,-141.38"/>
<polygon fill="#63b8ff" stroke="#63b8ff" points="90,-165.49 93.5,-175.49 97,-165.49 90,-165.49"/>
</a>
</g>
</g>
<!-- Node4 -->
<g id="Node000004" class="node">
<title>Node4</title>
<g id="a_Node000004"><a xlink:href="structdi_1_1util_1_1Immovable.html" target="_top" xlink:title=" ">
<polygon fill="white" stroke="#666666" points="147.62,-267.5 39.38,-267.5 39.38,-246.75 147.62,-246.75 147.62,-267.5"/>
<text text-anchor="middle" x="93.5" y="-254" font-family="Helvetica,sans-Serif" font-size="10.00">di::util::Immovable</text>
</a>
</g>
</g>
<!-- Node4&#45;&gt;Node3 -->
<g id="edge3_Node000003_Node000004" class="edge">
<title>Node4&#45;&gt;Node3</title>
<g id="a_edge3_Node000003_Node000004"><a xlink:title=" ">
<path fill="none" stroke="#8b1a1a" d="M93.5,-234.84C93.5,-227.1 93.5,-218.47 93.5,-211.23"/>
<polygon fill="#8b1a1a" stroke="#8b1a1a" points="90,-234.79 93.5,-244.79 97,-234.79 90,-234.79"/>
</a>
</g>
</g>
</g>
</svg>
