<?xml version="1.0" encoding="UTF-8" standalone="no"?>
<!DOCTYPE svg PUBLIC "-//W3C//DTD SVG 1.1//EN"
 "http://www.w3.org/Graphics/SVG/1.1/DTD/svg11.dtd">
<!-- Generated by graphviz version 10.0.1 (0)
 -->
<!-- Title: di::container::IntrusiveListTag&lt; Self &gt; Pages: 1 -->
<svg width="161pt" height="193pt"
 viewBox="0.00 0.00 161.25 193.25" xmlns="http://www.w3.org/2000/svg" xmlns:xlink="http://www.w3.org/1999/xlink">
<g id="graph0" class="graph" transform="scale(1 1) rotate(0) translate(4 189.25)">
<title>di::container::IntrusiveListTag&lt; Self &gt;</title>
<!-- Node1 -->
<g id="Node000001" class="node">
<title>Node1</title>
<g id="a_Node000001"><a xlink:title=" ">
<polygon fill="#999999" stroke="#666666" points="139.38,-103 13.88,-103 13.88,-69.5 139.38,-69.5 139.38,-103"/>
<text text-anchor="start" x="21.88" y="-89.5" font-family="Helvetica,sans-Serif" font-size="10.00">di::container::Intrusive</text>
<text text-anchor="middle" x="76.62" y="-76.75" font-family="Helvetica,sans-Serif" font-size="10.00">ListTag&lt; Self &gt;</text>
</a>
</g>
</g>
<!-- Node3 -->
<g id="Node000003" class="node">
<title>Node3</title>
<g id="a_Node000003"><a xlink:href="structdius_1_1runtime_1_1detail_1_1SizedTag.html" target="_top" xlink:title=" ">
<polygon fill="white" stroke="#666666" points="141.62,-33.5 11.62,-33.5 11.62,0 141.62,0 141.62,-33.5"/>
<text text-anchor="start" x="19.62" y="-20" font-family="Helvetica,sans-Serif" font-size="10.00">dius::runtime::detail</text>
<text text-anchor="middle" x="76.62" y="-7.25" font-family="Helvetica,sans-Serif" font-size="10.00">::SizedTag&lt; SizedTag &gt;</text>
</a>
</g>
</g>
<!-- Node1&#45;&gt;Node3 -->
<g id="edge2_Node000001_Node000003" class="edge">
<title>Node1&#45;&gt;Node3</title>
<g id="a_edge2_Node000001_Node000003"><a xlink:title=" ">
<path fill="none" stroke="#63b8ff" d="M76.62,-57.81C76.62,-49.59 76.62,-40.84 76.62,-33.63"/>
<polygon fill="#63b8ff" stroke="#63b8ff" points="73.13,-57.74 76.63,-67.74 80.13,-57.74 73.13,-57.74"/>
</a>
</g>
</g>
<!-- Node2 -->
<g id="Node000002" class="node">
<title>Node2</title>
<g id="a_Node000002"><a xlink:href="structdi_1_1container_1_1IntrusiveTagBase.html" target="_top" xlink:title=" ">
<polygon fill="white" stroke="#666666" points="153.25,-185.25 0,-185.25 0,-139 153.25,-139 153.25,-185.25"/>
<text text-anchor="start" x="8" y="-171.75" font-family="Helvetica,sans-Serif" font-size="10.00">di::container::Intrusive</text>
<text text-anchor="start" x="8" y="-159" font-family="Helvetica,sans-Serif" font-size="10.00">TagBase&lt; IntrusiveListNode</text>
<text text-anchor="middle" x="76.62" y="-146.25" font-family="Helvetica,sans-Serif" font-size="10.00">&lt; Self &gt; &gt;</text>
</a>
</g>
</g>
<!-- Node2&#45;&gt;Node1 -->
<g id="edge1_Node000001_Node000002" class="edge">
<title>Node2&#45;&gt;Node1</title>
<g id="a_edge1_Node000001_Node000002"><a xlink:title=" ">
<path fill="none" stroke="#63b8ff" d="M76.62,-127.14C76.62,-118.85 76.62,-110.36 76.62,-103.35"/>
<polygon fill="#63b8ff" stroke="#63b8ff" points="73.13,-127.05 76.63,-137.05 80.13,-127.05 73.13,-127.05"/>
</a>
</g>
</g>
</g>
</svg>
