<?xml version="1.0" encoding="UTF-8" standalone="no"?>
<!DOCTYPE svg PUBLIC "-//W3C//DTD SVG 1.1//EN"
 "http://www.w3.org/Graphics/SVG/1.1/DTD/svg11.dtd">
<!-- Generated by graphviz version 10.0.1 (0)
 -->
<!-- Title: dius::IoContext::OperationStateT&lt; Receiver &gt;::Type Pages: 1 -->
<svg width="152pt" height="237pt"
 viewBox="0.00 0.00 151.50 237.25" xmlns="http://www.w3.org/2000/svg" xmlns:xlink="http://www.w3.org/1999/xlink">
<g id="graph0" class="graph" transform="scale(1 1) rotate(0) translate(4 233.25)">
<title>dius::IoContext::OperationStateT&lt; Receiver &gt;::Type</title>
<!-- Node1 -->
<g id="Node000001" class="node">
<title>Node1</title>
<g id="a_Node000001"><a xlink:title=" ">
<polygon fill="#999999" stroke="#666666" points="143.5,-33.5 0,-33.5 0,0 143.5,0 143.5,-33.5"/>
<text text-anchor="start" x="8" y="-20" font-family="Helvetica,sans-Serif" font-size="10.00">dius::IoContext::Operation</text>
<text text-anchor="middle" x="71.75" y="-7.25" font-family="Helvetica,sans-Serif" font-size="10.00">StateT&lt; Receiver &gt;::Type</text>
</a>
</g>
</g>
<!-- Node2 -->
<g id="Node000002" class="node">
<title>Node2</title>
<g id="a_Node000002"><a xlink:title=" ">
<polygon fill="white" stroke="#666666" points="143.5,-103 0,-103 0,-69.5 143.5,-69.5 143.5,-103"/>
<text text-anchor="start" x="8" y="-89.5" font-family="Helvetica,sans-Serif" font-size="10.00">dius::IoContext::Operation</text>
<text text-anchor="middle" x="71.75" y="-76.75" font-family="Helvetica,sans-Serif" font-size="10.00">StateBase</text>
</a>
</g>
</g>
<!-- Node2&#45;&gt;Node1 -->
<g id="edge1_Node000001_Node000002" class="edge">
<title>Node2&#45;&gt;Node1</title>
<g id="a_edge1_Node000001_Node000002"><a xlink:title=" ">
<path fill="none" stroke="#63b8ff" d="M71.75,-57.81C71.75,-49.59 71.75,-40.84 71.75,-33.63"/>
<polygon fill="#63b8ff" stroke="#63b8ff" points="68.25,-57.74 71.75,-67.74 75.25,-57.74 68.25,-57.74"/>
</a>
</g>
</g>
<!-- Node3 -->
<g id="Node000003" class="node">
<title>Node3</title>
<g id="a_Node000003"><a xlink:href="classdi_1_1container_1_1IntrusiveForwardListNode.html" target="_top" xlink:title=" ">
<polygon fill="white" stroke="#666666" points="140.12,-172.5 3.38,-172.5 3.38,-139 140.12,-139 140.12,-172.5"/>
<text text-anchor="start" x="11.38" y="-159" font-family="Helvetica,sans-Serif" font-size="10.00">di::container::Intrusive</text>
<text text-anchor="middle" x="71.75" y="-146.25" font-family="Helvetica,sans-Serif" font-size="10.00">ForwardListNode&lt; Tag &gt;</text>
</a>
</g>
</g>
<!-- Node3&#45;&gt;Node2 -->
<g id="edge2_Node000002_Node000003" class="edge">
<title>Node3&#45;&gt;Node2</title>
<g id="a_edge2_Node000002_Node000003"><a xlink:title=" ">
<path fill="none" stroke="#63b8ff" d="M71.75,-127.31C71.75,-119.09 71.75,-110.34 71.75,-103.13"/>
<polygon fill="#63b8ff" stroke="#63b8ff" points="68.25,-127.24 71.75,-137.24 75.25,-127.24 68.25,-127.24"/>
</a>
</g>
</g>
<!-- Node4 -->
<g id="Node000004" class="node">
<title>Node4</title>
<g id="a_Node000004"><a xlink:href="structdi_1_1util_1_1Immovable.html" target="_top" xlink:title=" ">
<polygon fill="white" stroke="#666666" points="125.88,-229.25 17.62,-229.25 17.62,-208.5 125.88,-208.5 125.88,-229.25"/>
<text text-anchor="middle" x="71.75" y="-215.75" font-family="Helvetica,sans-Serif" font-size="10.00">di::util::Immovable</text>
</a>
</g>
</g>
<!-- Node4&#45;&gt;Node3 -->
<g id="edge3_Node000003_Node000004" class="edge">
<title>Node4&#45;&gt;Node3</title>
<g id="a_edge3_Node000003_Node000004"><a xlink:title=" ">
<path fill="none" stroke="#8b1a1a" d="M71.75,-196.59C71.75,-188.85 71.75,-180.22 71.75,-172.98"/>
<polygon fill="#8b1a1a" stroke="#8b1a1a" points="68.25,-196.54 71.75,-206.54 75.25,-196.54 68.25,-196.54"/>
</a>
</g>
</g>
</g>
</svg>
