<?xml version="1.0" encoding="UTF-8" standalone="no"?>
<!DOCTYPE svg PUBLIC "-//W3C//DTD SVG 1.1//EN"
 "http://www.w3.org/Graphics/SVG/1.1/DTD/svg11.dtd">
<!-- Generated by graphviz version 10.0.1 (0)
 -->
<!-- Title: di::bit::BitEnum&lt; T, index, bit_count &gt; Pages: 1 -->
<svg width="423pt" height="311pt"
 viewBox="0.00 0.00 423.25 311.25" xmlns="http://www.w3.org/2000/svg" xmlns:xlink="http://www.w3.org/1999/xlink">
<g id="graph0" class="graph" transform="scale(1 1) rotate(0) translate(4 307.25)">
<title>di::bit::BitEnum&lt; T, index, bit_count &gt;</title>
<!-- Node1 -->
<g id="Node000001" class="node">
<title>Node1</title>
<g id="a_Node000001"><a xlink:title=" ">
<polygon fill="#999999" stroke="#666666" points="111.25,-181.25 0,-181.25 0,-147.75 111.25,-147.75 111.25,-181.25"/>
<text text-anchor="start" x="8" y="-167.75" font-family="Helvetica,sans-Serif" font-size="10.00">di::bit::BitEnum&lt; T,</text>
<text text-anchor="middle" x="55.62" y="-155" font-family="Helvetica,sans-Serif" font-size="10.00"> index, bit_count &gt;</text>
</a>
</g>
</g>
<!-- Node2 -->
<g id="Node000002" class="node">
<title>Node2</title>
<g id="a_Node000002"><a xlink:href="structiris_1_1x86_1_1amd64_1_1ApicInterruptCommandDeliveryMode.html" target="_top" xlink:title=" ">
<polygon fill="white" stroke="#666666" points="415.25,-303.25 147.25,-303.25 147.25,-269.75 415.25,-269.75 415.25,-303.25"/>
<text text-anchor="start" x="155.25" y="-289.75" font-family="Helvetica,sans-Serif" font-size="10.00">iris::x86::amd64::ApicInterrupt</text>
<text text-anchor="middle" x="281.25" y="-277" font-family="Helvetica,sans-Serif" font-size="10.00">CommandDeliveryMode&lt; ApicMessageType, 8, 3 &gt;</text>
</a>
</g>
</g>
<!-- Node1&#45;&gt;Node2 -->
<g id="edge1_Node000001_Node000002" class="edge">
<title>Node1&#45;&gt;Node2</title>
<g id="a_edge1_Node000001_Node000002"><a xlink:title=" ">
<path fill="none" stroke="#63b8ff" d="M74.09,-190.64C90.36,-212.82 116.65,-243.64 147.25,-260.5 153.33,-263.85 159.77,-266.77 166.42,-269.32"/>
<polygon fill="#63b8ff" stroke="#63b8ff" points="77.07,-188.79 68.43,-182.67 71.37,-192.85 77.07,-188.79"/>
</a>
</g>
</g>
<!-- Node3 -->
<g id="Node000003" class="node">
<title>Node3</title>
<g id="a_Node000003"><a xlink:href="structiris_1_1x86_1_1amd64_1_1ApicInterruptCommandDestinationShorthand.html" target="_top" xlink:title=" ">
<polygon fill="white" stroke="#666666" points="378.88,-251.62 183.62,-251.62 183.62,-205.38 378.88,-205.38 378.88,-251.62"/>
<text text-anchor="start" x="191.62" y="-238.12" font-family="Helvetica,sans-Serif" font-size="10.00">iris::x86::amd64::ApicInterrupt</text>
<text text-anchor="start" x="191.62" y="-225.38" font-family="Helvetica,sans-Serif" font-size="10.00">CommandDestinationShorthand</text>
<text text-anchor="middle" x="281.25" y="-212.62" font-family="Helvetica,sans-Serif" font-size="10.00">&lt; ApicDestinationShorthand, 18, 2 &gt;</text>
</a>
</g>
</g>
<!-- Node1&#45;&gt;Node3 -->
<g id="edge2_Node000001_Node000003" class="edge">
<title>Node1&#45;&gt;Node3</title>
<g id="a_edge2_Node000001_Node000003"><a xlink:title=" ">
<path fill="none" stroke="#63b8ff" d="M113.03,-185.43C124.29,-189.32 136.1,-193.2 147.25,-196.5 158.86,-199.94 171.13,-203.28 183.32,-206.42"/>
<polygon fill="#63b8ff" stroke="#63b8ff" points="114.45,-182.22 103.86,-182.21 112.13,-188.82 114.45,-182.22"/>
</a>
</g>
</g>
<!-- Node4 -->
<g id="Node000004" class="node">
<title>Node4</title>
<g id="a_Node000004"><a xlink:href="structiris_1_1x86_1_1amd64_1_1ApicLvtEntryMessageType.html" target="_top" xlink:title=" ">
<polygon fill="white" stroke="#666666" points="385.62,-187.62 176.88,-187.62 176.88,-141.38 385.62,-141.38 385.62,-187.62"/>
<text text-anchor="start" x="184.88" y="-174.12" font-family="Helvetica,sans-Serif" font-size="10.00">iris::x86::amd64::ApicLvt</text>
<text text-anchor="start" x="184.88" y="-161.38" font-family="Helvetica,sans-Serif" font-size="10.00">EntryMessageType&lt; ApicMessageType,</text>
<text text-anchor="middle" x="281.25" y="-148.62" font-family="Helvetica,sans-Serif" font-size="10.00"> 8, 3 &gt;</text>
</a>
</g>
</g>
<!-- Node1&#45;&gt;Node4 -->
<g id="edge3_Node000001_Node000004" class="edge">
<title>Node1&#45;&gt;Node4</title>
<g id="a_edge3_Node000001_Node000004"><a xlink:title=" ">
<path fill="none" stroke="#63b8ff" d="M122.99,-164.5C139.83,-164.5 158.32,-164.5 176.53,-164.5"/>
<polygon fill="#63b8ff" stroke="#63b8ff" points="123.13,-161 113.13,-164.5 123.13,-168 123.13,-161"/>
</a>
</g>
</g>
<!-- Node5 -->
<g id="Node000005" class="node">
<title>Node5</title>
<g id="a_Node000005"><a xlink:href="structiris_1_1x86_1_1amd64_1_1IoApicRedirectionTableEntryDeliveryMode.html" target="_top" xlink:title=" ">
<polygon fill="white" stroke="#666666" points="369.5,-123.62 193,-123.62 193,-77.38 369.5,-77.38 369.5,-123.62"/>
<text text-anchor="start" x="201" y="-110.12" font-family="Helvetica,sans-Serif" font-size="10.00">iris::x86::amd64::IoApic</text>
<text text-anchor="start" x="201" y="-97.38" font-family="Helvetica,sans-Serif" font-size="10.00">RedirectionTableEntryDelivery</text>
<text text-anchor="middle" x="281.25" y="-84.62" font-family="Helvetica,sans-Serif" font-size="10.00">Mode&lt; ApicMessageType, 8, 3 &gt;</text>
</a>
</g>
</g>
<!-- Node1&#45;&gt;Node5 -->
<g id="edge4_Node000001_Node000005" class="edge">
<title>Node1&#45;&gt;Node5</title>
<g id="a_edge4_Node000001_Node000005"><a xlink:title=" ">
<path fill="none" stroke="#63b8ff" d="M113.03,-143.57C124.29,-139.68 136.1,-135.8 147.25,-132.5 161.82,-128.19 177.42,-124.03 192.63,-120.22"/>
<polygon fill="#63b8ff" stroke="#63b8ff" points="112.13,-140.18 103.86,-146.79 114.45,-146.78 112.13,-140.18"/>
</a>
</g>
</g>
<!-- Node6 -->
<g id="Node000006" class="node">
<title>Node6</title>
<g id="a_Node000006"><a xlink:href="structiris_1_1x86_1_1amd64_1_1IoApicRedirectionTableEntryDestinationMode.html" target="_top" xlink:title=" ">
<polygon fill="white" stroke="#666666" points="370.62,-59 191.88,-59 191.88,0 370.62,0 370.62,-59"/>
<text text-anchor="start" x="199.88" y="-45.5" font-family="Helvetica,sans-Serif" font-size="10.00">iris::x86::amd64::IoApic</text>
<text text-anchor="start" x="199.88" y="-32.75" font-family="Helvetica,sans-Serif" font-size="10.00">RedirectionTableEntryDestination</text>
<text text-anchor="start" x="199.88" y="-20" font-family="Helvetica,sans-Serif" font-size="10.00">Mode&lt; IoApicDestinationMode,</text>
<text text-anchor="middle" x="281.25" y="-7.25" font-family="Helvetica,sans-Serif" font-size="10.00"> 11, 1 &gt;</text>
</a>
</g>
</g>
<!-- Node1&#45;&gt;Node6 -->
<g id="edge5_Node000001_Node000006" class="edge">
<title>Node1&#45;&gt;Node6</title>
<g id="a_edge5_Node000001_Node000006"><a xlink:title=" ">
<path fill="none" stroke="#63b8ff" d="M75.06,-138.29C91.62,-116.61 117.8,-86.55 147.25,-68.5 160.79,-60.2 176.19,-53.59 191.59,-48.35"/>
<polygon fill="#63b8ff" stroke="#63b8ff" points="72.42,-135.97 69.27,-146.09 78.04,-140.15 72.42,-135.97"/>
</a>
</g>
</g>
</g>
</svg>
