<?xml version="1.0" encoding="UTF-8" standalone="no"?>
<!DOCTYPE svg PUBLIC "-//W3C//DTD SVG 1.1//EN"
 "http://www.w3.org/Graphics/SVG/1.1/DTD/svg11.dtd">
<!-- Generated by graphviz version 10.0.1 (0)
 -->
<!-- Title: di::container::IntrusiveForwardListTag&lt; Self &gt; Pages: 1 -->
<svg width="737pt" height="158pt"
 viewBox="0.00 0.00 737.25 157.88" xmlns="http://www.w3.org/2000/svg" xmlns:xlink="http://www.w3.org/1999/xlink">
<g id="graph0" class="graph" transform="scale(1 1) rotate(0) translate(4 153.88)">
<title>di::container::IntrusiveForwardListTag&lt; Self &gt;</title>
<!-- Node1 -->
<g id="Node000001" class="node">
<title>Node1</title>
<g id="a_Node000001"><a xlink:title=" ">
<polygon fill="#999999" stroke="#666666" points="332.75,-85.5 202.75,-85.5 202.75,-52 332.75,-52 332.75,-85.5"/>
<text text-anchor="start" x="210.75" y="-72" font-family="Helvetica,sans-Serif" font-size="10.00">di::container::Intrusive</text>
<text text-anchor="middle" x="267.75" y="-59.25" font-family="Helvetica,sans-Serif" font-size="10.00">ForwardListTag&lt; Self &gt;</text>
</a>
</g>
</g>
<!-- Node3 -->
<g id="Node000003" class="node">
<title>Node3</title>
<g id="a_Node000003"><a xlink:href="structdi_1_1container_1_1IntrusiveHashSetTag.html" target="_top" xlink:title=" ">
<polygon fill="white" stroke="#666666" points="531.75,-149.88 368.75,-149.88 368.75,-103.62 531.75,-103.62 531.75,-149.88"/>
<text text-anchor="start" x="376.75" y="-136.38" font-family="Helvetica,sans-Serif" font-size="10.00">di::container::Intrusive</text>
<text text-anchor="start" x="376.75" y="-123.62" font-family="Helvetica,sans-Serif" font-size="10.00">HashSetTag&lt; DefaultIntrusive</text>
<text text-anchor="middle" x="450.25" y="-110.88" font-family="Helvetica,sans-Serif" font-size="10.00">HashSetTag &gt;</text>
</a>
</g>
</g>
<!-- Node1&#45;&gt;Node3 -->
<g id="edge2_Node000001_Node000003" class="edge">
<title>Node1&#45;&gt;Node3</title>
<g id="a_edge2_Node000001_Node000003"><a xlink:title=" ">
<path fill="none" stroke="#63b8ff" d="M333.25,-89.47C347.02,-93.9 361.66,-98.61 375.74,-103.13"/>
<polygon fill="#63b8ff" stroke="#63b8ff" points="334.45,-86.19 323.86,-86.46 332.31,-92.85 334.45,-86.19"/>
</a>
</g>
</g>
<!-- Node5 -->
<g id="Node000005" class="node">
<title>Node5</title>
<g id="a_Node000005"><a xlink:href="structdi_1_1container_1_1IntrusiveHashSetTag.html" target="_top" xlink:title=" ">
<polygon fill="white" stroke="#666666" points="513,-85.5 387.5,-85.5 387.5,-52 513,-52 513,-85.5"/>
<text text-anchor="start" x="395.5" y="-72" font-family="Helvetica,sans-Serif" font-size="10.00">di::container::Intrusive</text>
<text text-anchor="middle" x="450.25" y="-59.25" font-family="Helvetica,sans-Serif" font-size="10.00">HashSetTag&lt; Self &gt;</text>
</a>
</g>
</g>
<!-- Node1&#45;&gt;Node5 -->
<g id="edge4_Node000001_Node000005" class="edge">
<title>Node1&#45;&gt;Node5</title>
<g id="a_edge4_Node000001_Node000005"><a xlink:title=" ">
<path fill="none" stroke="#63b8ff" d="M344.46,-68.75C358.73,-68.75 373.5,-68.75 387.29,-68.75"/>
<polygon fill="#63b8ff" stroke="#63b8ff" points="344.66,-65.25 334.66,-68.75 344.66,-72.25 344.66,-65.25"/>
</a>
</g>
</g>
<!-- Node6 -->
<g id="Node000006" class="node">
<title>Node6</title>
<g id="a_Node000006"><a xlink:href="structiris_1_1detail_1_1InternalObjectTag.html" target="_top" xlink:title=" ">
<polygon fill="white" stroke="#666666" points="520.5,-33.5 380,-33.5 380,0 520.5,0 520.5,-33.5"/>
<text text-anchor="start" x="388" y="-20" font-family="Helvetica,sans-Serif" font-size="10.00">iris::detail::InternalObject</text>
<text text-anchor="middle" x="450.25" y="-7.25" font-family="Helvetica,sans-Serif" font-size="10.00">Tag&lt; InternalObjectTag &gt;</text>
</a>
</g>
</g>
<!-- Node1&#45;&gt;Node6 -->
<g id="edge5_Node000001_Node000006" class="edge">
<title>Node1&#45;&gt;Node6</title>
<g id="a_edge5_Node000001_Node000006"><a xlink:title=" ">
<path fill="none" stroke="#63b8ff" d="M339.35,-48.41C355.96,-43.63 373.49,-38.58 389.56,-33.95"/>
<polygon fill="#63b8ff" stroke="#63b8ff" points="338.7,-44.96 330.06,-51.09 340.64,-51.68 338.7,-44.96"/>
</a>
</g>
</g>
<!-- Node2 -->
<g id="Node000002" class="node">
<title>Node2</title>
<g id="a_Node000002"><a xlink:href="structdi_1_1container_1_1IntrusiveTagBase.html" target="_top" xlink:title=" ">
<polygon fill="white" stroke="#666666" points="166.75,-91.88 0,-91.88 0,-45.62 166.75,-45.62 166.75,-91.88"/>
<text text-anchor="start" x="8" y="-78.38" font-family="Helvetica,sans-Serif" font-size="10.00">di::container::Intrusive</text>
<text text-anchor="start" x="8" y="-65.62" font-family="Helvetica,sans-Serif" font-size="10.00">TagBase&lt; IntrusiveForwardList</text>
<text text-anchor="middle" x="83.38" y="-52.88" font-family="Helvetica,sans-Serif" font-size="10.00">Node&lt; Self &gt; &gt;</text>
</a>
</g>
</g>
<!-- Node2&#45;&gt;Node1 -->
<g id="edge1_Node000001_Node000002" class="edge">
<title>Node2&#45;&gt;Node1</title>
<g id="a_edge1_Node000001_Node000002"><a xlink:title=" ">
<path fill="none" stroke="#63b8ff" d="M178.47,-68.75C186.57,-68.75 194.64,-68.75 202.42,-68.75"/>
<polygon fill="#63b8ff" stroke="#63b8ff" points="178.54,-65.25 168.54,-68.75 178.54,-72.25 178.54,-65.25"/>
</a>
</g>
</g>
<!-- Node4 -->
<g id="Node000004" class="node">
<title>Node4</title>
<g id="a_Node000004"><a xlink:href="structdi_1_1container_1_1DefaultIntrusiveHashSetTag.html" target="_top" xlink:title=" ">
<polygon fill="white" stroke="#666666" points="729.25,-143.5 567.75,-143.5 567.75,-110 729.25,-110 729.25,-143.5"/>
<text text-anchor="start" x="575.75" y="-130" font-family="Helvetica,sans-Serif" font-size="10.00">di::container::DefaultIntrusive</text>
<text text-anchor="middle" x="648.5" y="-117.25" font-family="Helvetica,sans-Serif" font-size="10.00">HashSetTag</text>
</a>
</g>
</g>
<!-- Node3&#45;&gt;Node4 -->
<g id="edge3_Node000003_Node000004" class="edge">
<title>Node3&#45;&gt;Node4</title>
<g id="a_edge3_Node000003_Node000004"><a xlink:title=" ">
<path fill="none" stroke="#63b8ff" d="M543.45,-126.75C551.44,-126.75 559.48,-126.75 567.36,-126.75"/>
<polygon fill="#63b8ff" stroke="#63b8ff" points="543.72,-123.25 533.72,-126.75 543.72,-130.25 543.72,-123.25"/>
</a>
</g>
</g>
</g>
</svg>
