<?xml version="1.0" encoding="UTF-8" standalone="no"?>
<!DOCTYPE svg PUBLIC "-//W3C//DTD SVG 1.1//EN"
 "http://www.w3.org/Graphics/SVG/1.1/DTD/svg11.dtd">
<!-- Generated by graphviz version 10.0.1 (0)
 -->
<!-- Title: di::meta::detail::CommonReferenceHelper&lt; T, U &gt; Pages: 1 -->
<svg width="391pt" height="272pt"
 viewBox="0.00 0.00 391.00 271.88" xmlns="http://www.w3.org/2000/svg" xmlns:xlink="http://www.w3.org/1999/xlink">
<g id="graph0" class="graph" transform="scale(1 1) rotate(0) translate(4 267.88)">
<title>di::meta::detail::CommonReferenceHelper&lt; T, U &gt;</title>
<!-- Node1 -->
<g id="Node000001" class="node">
<title>Node1</title>
<g id="a_Node000001"><a xlink:title=" ">
<polygon fill="#999999" stroke="#666666" points="383,-138.5 242.5,-138.5 242.5,-105 383,-105 383,-138.5"/>
<text text-anchor="start" x="250.5" y="-125" font-family="Helvetica,sans-Serif" font-size="10.00">di::meta::detail::Common</text>
<text text-anchor="middle" x="312.75" y="-112.25" font-family="Helvetica,sans-Serif" font-size="10.00">ReferenceHelper&lt; T, U &gt;</text>
</a>
</g>
</g>
<!-- Node2 -->
<g id="Node000002" class="node">
<title>Node2</title>
<g id="a_Node000002"><a xlink:href="structdi_1_1meta_1_1TypeConstant.html" target="_top" xlink:title=" ">
<polygon fill="white" stroke="#666666" points="180.62,-263.88 25.88,-263.88 25.88,-217.62 180.62,-217.62 180.62,-263.88"/>
<text text-anchor="start" x="33.88" y="-250.38" font-family="Helvetica,sans-Serif" font-size="10.00">di::meta::TypeConstant</text>
<text text-anchor="start" x="33.88" y="-237.62" font-family="Helvetica,sans-Serif" font-size="10.00">&lt; SimpleCommonReference</text>
<text text-anchor="middle" x="103.25" y="-224.88" font-family="Helvetica,sans-Serif" font-size="10.00">&lt; T, U &gt;::Type &gt;</text>
</a>
</g>
</g>
<!-- Node2&#45;&gt;Node1 -->
<g id="edge1_Node000001_Node000002" class="edge">
<title>Node2&#45;&gt;Node1</title>
<g id="a_edge1_Node000001_Node000002"><a xlink:title=" ">
<path fill="none" stroke="#63b8ff" d="M191.63,-215.98C196.75,-213.74 201.74,-211.33 206.5,-208.75 241.51,-189.76 275.9,-158.23 295.4,-138.79"/>
<polygon fill="#63b8ff" stroke="#63b8ff" points="190.31,-212.74 182.38,-219.77 192.96,-219.21 190.31,-212.74"/>
</a>
</g>
</g>
<!-- Node3 -->
<g id="Node000003" class="node">
<title>Node3</title>
<g id="a_Node000003"><a xlink:href="structdi_1_1meta_1_1TypeConstant.html" target="_top" xlink:title=" ">
<polygon fill="white" stroke="#666666" points="206.5,-199.62 0,-199.62 0,-127.88 206.5,-127.88 206.5,-199.62"/>
<text text-anchor="start" x="8" y="-186.12" font-family="Helvetica,sans-Serif" font-size="10.00">di::meta::TypeConstant</text>
<text text-anchor="start" x="8" y="-173.38" font-family="Helvetica,sans-Serif" font-size="10.00">&lt; CustomCommonReference</text>
<text text-anchor="start" x="8" y="-160.62" font-family="Helvetica,sans-Serif" font-size="10.00">&lt; T, U, ProjectQualifiers</text>
<text text-anchor="start" x="8" y="-147.88" font-family="Helvetica,sans-Serif" font-size="10.00">&lt; T &gt;::template Type, ProjectQualifiers</text>
<text text-anchor="middle" x="103.25" y="-135.12" font-family="Helvetica,sans-Serif" font-size="10.00">&lt; U &gt;::template Type &gt;::Type &gt;</text>
</a>
</g>
</g>
<!-- Node3&#45;&gt;Node1 -->
<g id="edge2_Node000001_Node000003" class="edge">
<title>Node3&#45;&gt;Node1</title>
<g id="a_edge2_Node000001_Node000003"><a xlink:title=" ">
<path fill="none" stroke="#63b8ff" d="M217.97,-140.73C226.15,-139.08 234.25,-137.44 242.05,-135.86"/>
<polygon fill="#63b8ff" stroke="#63b8ff" points="217.37,-137.28 208.27,-142.7 218.76,-144.14 217.37,-137.28"/>
</a>
</g>
</g>
<!-- Node4 -->
<g id="Node000004" class="node">
<title>Node4</title>
<g id="a_Node000004"><a xlink:href="structdi_1_1meta_1_1TypeConstant.html" target="_top" xlink:title=" ">
<polygon fill="white" stroke="#666666" points="177.62,-110.25 28.88,-110.25 28.88,-51.25 177.62,-51.25 177.62,-110.25"/>
<text text-anchor="start" x="36.88" y="-96.75" font-family="Helvetica,sans-Serif" font-size="10.00">di::meta::TypeConstant</text>
<text text-anchor="start" x="36.88" y="-84" font-family="Helvetica,sans-Serif" font-size="10.00">&lt; decltype(false ? __get</text>
<text text-anchor="start" x="36.88" y="-71.25" font-family="Helvetica,sans-Serif" font-size="10.00">_value&lt; T &gt;() :__get_value</text>
<text text-anchor="middle" x="103.25" y="-58.5" font-family="Helvetica,sans-Serif" font-size="10.00">&lt; U &gt;())&gt;</text>
</a>
</g>
</g>
<!-- Node4&#45;&gt;Node1 -->
<g id="edge3_Node000001_Node000004" class="edge">
<title>Node4&#45;&gt;Node1</title>
<g id="a_edge3_Node000001_Node000004"><a xlink:title=" ">
<path fill="none" stroke="#63b8ff" d="M189.13,-97.52C206.73,-101 225.08,-104.63 242.07,-107.98"/>
<polygon fill="#63b8ff" stroke="#63b8ff" points="189.96,-94.12 179.48,-95.61 188.61,-100.99 189.96,-94.12"/>
</a>
</g>
</g>
<!-- Node5 -->
<g id="Node000005" class="node">
<title>Node5</title>
<g id="a_Node000005"><a xlink:href="structdi_1_1meta_1_1TypeConstant.html" target="_top" xlink:title=" ">
<polygon fill="white" stroke="#666666" points="176.88,-33.5 29.62,-33.5 29.62,0 176.88,0 176.88,-33.5"/>
<text text-anchor="start" x="37.62" y="-20" font-family="Helvetica,sans-Serif" font-size="10.00">di::meta::TypeConstant</text>
<text text-anchor="middle" x="103.25" y="-7.25" font-family="Helvetica,sans-Serif" font-size="10.00">&lt; CommonType&lt; T, U &gt; &gt;</text>
</a>
</g>
</g>
<!-- Node5&#45;&gt;Node1 -->
<g id="edge4_Node000001_Node000005" class="edge">
<title>Node5&#45;&gt;Node1</title>
<g id="a_edge4_Node000001_Node000005"><a xlink:title=" ">
<path fill="none" stroke="#63b8ff" d="M188.06,-35.13C194.41,-37.41 200.63,-39.94 206.5,-42.75 240.3,-58.93 273.99,-86.8 293.84,-104.74"/>
<polygon fill="#63b8ff" stroke="#63b8ff" points="189.32,-31.86 178.73,-32.02 187.11,-38.5 189.32,-31.86"/>
</a>
</g>
</g>
</g>
</svg>
