<?xml version="1.0" encoding="UTF-8" standalone="no"?>
<!DOCTYPE svg PUBLIC "-//W3C//DTD SVG 1.1//EN"
 "http://www.w3.org/Graphics/SVG/1.1/DTD/svg11.dtd">
<!-- Generated by graphviz version 10.0.1 (0)
 -->
<!-- Title: di::meta::detail::CommonComparisonCategoryHelper&lt; strong_ordering, Types... &gt; Pages: 1 -->
<svg width="166pt" height="206pt"
 viewBox="0.00 0.00 165.75 206.00" xmlns="http://www.w3.org/2000/svg" xmlns:xlink="http://www.w3.org/1999/xlink">
<g id="graph0" class="graph" transform="scale(1 1) rotate(0) translate(4 202)">
<title>di::meta::detail::CommonComparisonCategoryHelper&lt; strong_ordering, Types... &gt;</title>
<!-- Node1 -->
<g id="Node000001" class="node">
<title>Node1</title>
<g id="a_Node000001"><a xlink:title=" ">
<polygon fill="#999999" stroke="#666666" points="157.75,-46.25 0,-46.25 0,0 157.75,0 157.75,-46.25"/>
<text text-anchor="start" x="8" y="-32.75" font-family="Helvetica,sans-Serif" font-size="10.00">di::meta::detail::Common</text>
<text text-anchor="start" x="8" y="-20" font-family="Helvetica,sans-Serif" font-size="10.00">ComparisonCategoryHelper</text>
<text text-anchor="middle" x="78.88" y="-7.25" font-family="Helvetica,sans-Serif" font-size="10.00">&lt; strong_ordering, Types... &gt;</text>
</a>
</g>
</g>
<!-- Node2 -->
<g id="Node000002" class="node">
<title>Node2</title>
<g id="a_Node000002"><a xlink:href="structdi_1_1meta_1_1detail_1_1CommonComparisonCategoryHelper.html" target="_top" xlink:title=" ">
<polygon fill="white" stroke="#666666" points="154.38,-128.5 3.38,-128.5 3.38,-82.25 154.38,-82.25 154.38,-128.5"/>
<text text-anchor="start" x="11.38" y="-115" font-family="Helvetica,sans-Serif" font-size="10.00">di::meta::detail::Common</text>
<text text-anchor="start" x="11.38" y="-102.25" font-family="Helvetica,sans-Serif" font-size="10.00">ComparisonCategoryHelper</text>
<text text-anchor="middle" x="78.88" y="-89.5" font-family="Helvetica,sans-Serif" font-size="10.00">&lt; Types... &gt;</text>
</a>
</g>
</g>
<!-- Node2&#45;&gt;Node1 -->
<g id="edge1_Node000001_Node000002" class="edge">
<title>Node2&#45;&gt;Node1</title>
<g id="a_edge1_Node000001_Node000002"><a xlink:title=" ">
<path fill="none" stroke="#63b8ff" d="M78.88,-70.59C78.88,-62.5 78.88,-54.07 78.88,-46.64"/>
<polygon fill="#63b8ff" stroke="#63b8ff" points="75.38,-70.51 78.88,-80.51 82.38,-70.51 75.38,-70.51"/>
</a>
</g>
</g>
<!-- Node3 -->
<g id="Node000003" class="node">
<title>Node3</title>
<g id="a_Node000003"><a xlink:href="structdi_1_1meta_1_1TypeConstant.html" target="_top" xlink:title=" ">
<polygon fill="white" stroke="#666666" points="143.12,-198 14.62,-198 14.62,-164.5 143.12,-164.5 143.12,-198"/>
<text text-anchor="start" x="22.62" y="-184.5" font-family="Helvetica,sans-Serif" font-size="10.00">di::meta::TypeConstant</text>
<text text-anchor="middle" x="78.88" y="-171.75" font-family="Helvetica,sans-Serif" font-size="10.00">&lt; void &gt;</text>
</a>
</g>
</g>
<!-- Node3&#45;&gt;Node2 -->
<g id="edge2_Node000002_Node000003" class="edge">
<title>Node3&#45;&gt;Node2</title>
<g id="a_edge2_Node000002_Node000003"><a xlink:title=" ">
<path fill="none" stroke="#63b8ff" d="M78.88,-152.89C78.88,-144.96 78.88,-136.41 78.88,-128.82"/>
<polygon fill="#63b8ff" stroke="#63b8ff" points="75.38,-152.71 78.88,-162.71 82.38,-152.71 75.38,-152.71"/>
</a>
</g>
</g>
</g>
</svg>
