<?xml version="1.0" encoding="UTF-8" standalone="no"?>
<!DOCTYPE svg PUBLIC "-//W3C//DTD SVG 1.1//EN"
 "http://www.w3.org/Graphics/SVG/1.1/DTD/svg11.dtd">
<!-- Generated by graphviz version 10.0.1 (0)
 -->
<!-- Title: di::meta::detail::MakeUnsignedHelper&lt; T &gt; Pages: 1 -->
<svg width="387pt" height="80pt"
 viewBox="0.00 0.00 387.25 80.12" xmlns="http://www.w3.org/2000/svg" xmlns:xlink="http://www.w3.org/1999/xlink">
<g id="graph0" class="graph" transform="scale(1 1) rotate(0) translate(4 76.12)">
<title>di::meta::detail::MakeUnsignedHelper&lt; T &gt;</title>
<!-- Node1 -->
<g id="Node000001" class="node">
<title>Node1</title>
<g id="a_Node000001"><a xlink:title=" ">
<polygon fill="#999999" stroke="#666666" points="379.25,-49.12 211,-49.12 211,-15.62 379.25,-15.62 379.25,-49.12"/>
<text text-anchor="start" x="219" y="-35.62" font-family="Helvetica,sans-Serif" font-size="10.00">di::meta::detail::MakeUnsigned</text>
<text text-anchor="middle" x="295.12" y="-22.88" font-family="Helvetica,sans-Serif" font-size="10.00">Helper&lt; T &gt;</text>
</a>
</g>
</g>
<!-- Node2 -->
<g id="Node000002" class="node">
<title>Node2</title>
<g id="a_Node000002"><a xlink:href="structdi_1_1meta_1_1detail_1_1MakeUnsignedHelper.html" target="_top" xlink:title=" ">
<polygon fill="white" stroke="#666666" points="175,-72.12 0,-72.12 0,-38.62 175,-38.62 175,-72.12"/>
<text text-anchor="start" x="8" y="-58.62" font-family="Helvetica,sans-Serif" font-size="10.00">di::meta::detail::MakeUnsigned</text>
<text text-anchor="middle" x="87.5" y="-45.88" font-family="Helvetica,sans-Serif" font-size="10.00">Helper&lt; UnderlyingType&lt; T &gt; &gt;</text>
</a>
</g>
</g>
<!-- Node2&#45;&gt;Node1 -->
<g id="edge1_Node000001_Node000002" class="edge">
<title>Node2&#45;&gt;Node1</title>
<g id="a_edge1_Node000001_Node000002"><a xlink:title=" ">
<path fill="none" stroke="#63b8ff" d="M186.74,-44.39C194.79,-43.49 202.88,-42.58 210.81,-41.69"/>
<polygon fill="#63b8ff" stroke="#63b8ff" points="186.46,-40.9 176.91,-45.49 187.24,-47.85 186.46,-40.9"/>
</a>
</g>
</g>
<!-- Node3 -->
<g id="Node000003" class="node">
<title>Node3</title>
<g id="a_Node000003"><a xlink:href="structdi_1_1meta_1_1TypeConstant.html" target="_top" xlink:title=" ">
<polygon fill="white" stroke="#666666" points="166,-20.75 9,-20.75 9,0 166,0 166,-20.75"/>
<text text-anchor="middle" x="87.5" y="-7.25" font-family="Helvetica,sans-Serif" font-size="10.00">di::meta::TypeConstant&lt; T &gt;</text>
</a>
</g>
</g>
<!-- Node3&#45;&gt;Node1 -->
<g id="edge2_Node000001_Node000003" class="edge">
<title>Node3&#45;&gt;Node1</title>
<g id="a_edge2_Node000001_Node000003"><a xlink:title=" ">
<path fill="none" stroke="#63b8ff" d="M177.62,-19.91C188.63,-21.09 199.86,-22.29 210.79,-23.46"/>
<polygon fill="#63b8ff" stroke="#63b8ff" points="178.06,-16.44 167.74,-18.85 177.31,-23.4 178.06,-16.44"/>
</a>
</g>
</g>
</g>
</svg>
