<?xml version="1.0" encoding="UTF-8" standalone="no"?>
<!DOCTYPE svg PUBLIC "-//W3C//DTD SVG 1.1//EN"
 "http://www.w3.org/Graphics/SVG/1.1/DTD/svg11.dtd">
<!-- Generated by graphviz version 10.0.1 (0)
 -->
<!-- Title: di::bit::BitField&lt; index, bit_count &gt; Pages: 1 -->
<svg width="359pt" height="598pt"
 viewBox="0.00 0.00 358.75 597.88" xmlns="http://www.w3.org/2000/svg" xmlns:xlink="http://www.w3.org/1999/xlink">
<g id="graph0" class="graph" transform="scale(1 1) rotate(0) translate(4 593.88)">
<title>di::bit::BitField&lt; index, bit_count &gt;</title>
<!-- Node1 -->
<g id="Node000001" class="node">
<title>Node1</title>
<g id="a_Node000001"><a xlink:title=" ">
<polygon fill="#999999" stroke="#666666" points="108.25,-317.5 0,-317.5 0,-284 108.25,-284 108.25,-317.5"/>
<text text-anchor="start" x="8" y="-304" font-family="Helvetica,sans-Serif" font-size="10.00">di::bit::BitField&lt;</text>
<text text-anchor="middle" x="54.12" y="-291.25" font-family="Helvetica,sans-Serif" font-size="10.00"> index, bit_count &gt;</text>
</a>
</g>
</g>
<!-- Node2 -->
<g id="Node000002" class="node">
<title>Node2</title>
<g id="a_Node000002"><a xlink:href="structiris_1_1x86_1_1amd64_1_1ApicExtendedFeatureExtendedLvtCount.html" target="_top" xlink:title=" ">
<polygon fill="white" stroke="#666666" points="331.25,-589.88 163.75,-589.88 163.75,-543.62 331.25,-543.62 331.25,-589.88"/>
<text text-anchor="start" x="171.75" y="-576.38" font-family="Helvetica,sans-Serif" font-size="10.00">iris::x86::amd64::ApicExtended</text>
<text text-anchor="start" x="171.75" y="-563.62" font-family="Helvetica,sans-Serif" font-size="10.00">FeatureExtendedLvtCount&lt;</text>
<text text-anchor="middle" x="247.5" y="-550.88" font-family="Helvetica,sans-Serif" font-size="10.00"> 16, 8 &gt;</text>
</a>
</g>
</g>
<!-- Node1&#45;&gt;Node2 -->
<g id="edge1_Node000001_Node000002" class="edge">
<title>Node1&#45;&gt;Node2</title>
<g id="a_edge1_Node000001_Node000002"><a xlink:title=" ">
<path fill="none" stroke="#63b8ff" d="M58,-329.24C64.46,-378.24 84.57,-478.58 144.25,-534.75 149.87,-540.04 156.36,-544.46 163.28,-548.14"/>
<polygon fill="#63b8ff" stroke="#63b8ff" points="61.49,-328.96 56.82,-319.46 54.54,-329.8 61.49,-328.96"/>
</a>
</g>
</g>
<!-- Node3 -->
<g id="Node000003" class="node">
<title>Node3</title>
<g id="a_Node000003"><a xlink:href="structiris_1_1x86_1_1amd64_1_1ApicInterruptCommandDestination.html" target="_top" xlink:title=" ">
<polygon fill="white" stroke="#666666" points="332,-525.5 163,-525.5 163,-492 332,-492 332,-525.5"/>
<text text-anchor="start" x="171" y="-512" font-family="Helvetica,sans-Serif" font-size="10.00">iris::x86::amd64::ApicInterrupt</text>
<text text-anchor="middle" x="247.5" y="-499.25" font-family="Helvetica,sans-Serif" font-size="10.00">CommandDestination&lt; 56, 8 &gt;</text>
</a>
</g>
</g>
<!-- Node1&#45;&gt;Node3 -->
<g id="edge2_Node000001_Node000003" class="edge">
<title>Node1&#45;&gt;Node3</title>
<g id="a_edge2_Node000001_Node000003"><a xlink:title=" ">
<path fill="none" stroke="#63b8ff" d="M61.06,-328.91C71.05,-369.21 95.14,-442.86 144.25,-482.75 149.79,-487.25 156.02,-490.99 162.6,-494.09"/>
<polygon fill="#63b8ff" stroke="#63b8ff" points="64.49,-328.19 58.8,-319.25 57.67,-329.79 64.49,-328.19"/>
</a>
</g>
</g>
<!-- Node4 -->
<g id="Node000004" class="node">
<title>Node4</title>
<g id="a_Node000004"><a xlink:href="structiris_1_1x86_1_1amd64_1_1ApicInterruptCommandRemoteReadStatus.html" target="_top" xlink:title=" ">
<polygon fill="white" stroke="#666666" points="350.75,-473.5 144.25,-473.5 144.25,-440 350.75,-440 350.75,-473.5"/>
<text text-anchor="start" x="152.25" y="-460" font-family="Helvetica,sans-Serif" font-size="10.00">iris::x86::amd64::ApicInterrupt</text>
<text text-anchor="middle" x="247.5" y="-447.25" font-family="Helvetica,sans-Serif" font-size="10.00">CommandRemoteReadStatus&lt; 16, 2 &gt;</text>
</a>
</g>
</g>
<!-- Node1&#45;&gt;Node4 -->
<g id="edge3_Node000001_Node000004" class="edge">
<title>Node1&#45;&gt;Node4</title>
<g id="a_edge3_Node000001_Node000004"><a xlink:title=" ">
<path fill="none" stroke="#63b8ff" d="M66.48,-327.72C80.41,-357.5 106.88,-404.66 144.25,-430.75 149.06,-434.1 154.26,-437.03 159.68,-439.57"/>
<polygon fill="#63b8ff" stroke="#63b8ff" points="69.84,-326.66 62.54,-318.99 63.46,-329.54 69.84,-326.66"/>
</a>
</g>
</g>
<!-- Node5 -->
<g id="Node000005" class="node">
<title>Node5</title>
<g id="a_Node000005"><a xlink:href="structiris_1_1x86_1_1amd64_1_1ApicInterruptCommandVector.html" target="_top" xlink:title=" ">
<polygon fill="white" stroke="#666666" points="329.38,-421.5 165.62,-421.5 165.62,-388 329.38,-388 329.38,-421.5"/>
<text text-anchor="start" x="173.62" y="-408" font-family="Helvetica,sans-Serif" font-size="10.00">iris::x86::amd64::ApicInterrupt</text>
<text text-anchor="middle" x="247.5" y="-395.25" font-family="Helvetica,sans-Serif" font-size="10.00">CommandVector&lt; 0, 8 &gt;</text>
</a>
</g>
</g>
<!-- Node1&#45;&gt;Node5 -->
<g id="edge4_Node000001_Node000005" class="edge">
<title>Node1&#45;&gt;Node5</title>
<g id="a_edge4_Node000001_Node000005"><a xlink:title=" ">
<path fill="none" stroke="#63b8ff" d="M77.72,-326C94.48,-343.26 118.76,-365.35 144.25,-378.75 150.9,-382.24 158.04,-385.29 165.34,-387.93"/>
<polygon fill="#63b8ff" stroke="#63b8ff" points="80.58,-323.93 71.16,-319.08 75.49,-328.75 80.58,-323.93"/>
</a>
</g>
</g>
<!-- Node6 -->
<g id="Node000006" class="node">
<title>Node6</title>
<g id="a_Node000006"><a xlink:href="structiris_1_1x86_1_1amd64_1_1ApicLvtEntryVector.html" target="_top" xlink:title=" ">
<polygon fill="white" stroke="#666666" points="315.88,-369.5 179.12,-369.5 179.12,-336 315.88,-336 315.88,-369.5"/>
<text text-anchor="start" x="187.12" y="-356" font-family="Helvetica,sans-Serif" font-size="10.00">iris::x86::amd64::ApicLvt</text>
<text text-anchor="middle" x="247.5" y="-343.25" font-family="Helvetica,sans-Serif" font-size="10.00">EntryVector&lt; 0, 8 &gt;</text>
</a>
</g>
</g>
<!-- Node1&#45;&gt;Node6 -->
<g id="edge5_Node000001_Node000006" class="edge">
<title>Node1&#45;&gt;Node6</title>
<g id="a_edge5_Node000001_Node000006"><a xlink:title=" ">
<path fill="none" stroke="#63b8ff" d="M119.24,-319.74C127.64,-322.15 136.14,-324.54 144.25,-326.75 155.38,-329.79 167.23,-332.91 178.76,-335.88"/>
<polygon fill="#63b8ff" stroke="#63b8ff" points="120.33,-316.41 109.75,-317.01 118.39,-323.14 120.33,-316.41"/>
</a>
</g>
</g>
<!-- Node7 -->
<g id="Node000007" class="node">
<title>Node7</title>
<g id="a_Node000007"><a xlink:href="structiris_1_1x86_1_1amd64_1_1ApicMaxLvtEntry.html" target="_top" xlink:title=" ">
<polygon fill="white" stroke="#666666" points="318.88,-317.5 176.12,-317.5 176.12,-284 318.88,-284 318.88,-317.5"/>
<text text-anchor="start" x="184.12" y="-304" font-family="Helvetica,sans-Serif" font-size="10.00">iris::x86::amd64::ApicMax</text>
<text text-anchor="middle" x="247.5" y="-291.25" font-family="Helvetica,sans-Serif" font-size="10.00">LvtEntry&lt; 16, 8 &gt;</text>
</a>
</g>
</g>
<!-- Node1&#45;&gt;Node7 -->
<g id="edge6_Node000001_Node000007" class="edge">
<title>Node1&#45;&gt;Node7</title>
<g id="a_edge6_Node000001_Node000007"><a xlink:title=" ">
<path fill="none" stroke="#63b8ff" d="M120.19,-300.75C138.08,-300.75 157.56,-300.75 175.76,-300.75"/>
<polygon fill="#63b8ff" stroke="#63b8ff" points="120.2,-297.25 110.2,-300.75 120.2,-304.25 120.2,-297.25"/>
</a>
</g>
</g>
<!-- Node8 -->
<g id="Node000008" class="node">
<title>Node8</title>
<g id="a_Node000008"><a xlink:href="structiris_1_1x86_1_1amd64_1_1ApicVersion.html" target="_top" xlink:title=" ">
<polygon fill="white" stroke="#666666" points="326.38,-265.5 168.62,-265.5 168.62,-232 326.38,-232 326.38,-265.5"/>
<text text-anchor="start" x="176.62" y="-252" font-family="Helvetica,sans-Serif" font-size="10.00">iris::x86::amd64::ApicVersion</text>
<text text-anchor="middle" x="247.5" y="-239.25" font-family="Helvetica,sans-Serif" font-size="10.00">&lt; 0, 8 &gt;</text>
</a>
</g>
</g>
<!-- Node1&#45;&gt;Node8 -->
<g id="edge7_Node000001_Node000008" class="edge">
<title>Node1&#45;&gt;Node8</title>
<g id="a_edge7_Node000001_Node000008"><a xlink:title=" ">
<path fill="none" stroke="#63b8ff" d="M119.24,-281.76C127.64,-279.35 136.14,-276.96 144.25,-274.75 154.94,-271.83 166.29,-268.84 177.39,-265.98"/>
<polygon fill="#63b8ff" stroke="#63b8ff" points="118.39,-278.36 109.75,-284.49 120.33,-285.09 118.39,-278.36"/>
</a>
</g>
</g>
<!-- Node9 -->
<g id="Node000009" class="node">
<title>Node9</title>
<g id="a_Node000009"><a xlink:href="structiris_1_1x86_1_1amd64_1_1IoApicMaxRedirectionEntry.html" target="_top" xlink:title=" ">
<polygon fill="white" stroke="#666666" points="329.75,-213.5 165.25,-213.5 165.25,-180 329.75,-180 329.75,-213.5"/>
<text text-anchor="start" x="173.25" y="-200" font-family="Helvetica,sans-Serif" font-size="10.00">iris::x86::amd64::IoApic</text>
<text text-anchor="middle" x="247.5" y="-187.25" font-family="Helvetica,sans-Serif" font-size="10.00">MaxRedirectionEntry&lt; 16, 8 &gt;</text>
</a>
</g>
</g>
<!-- Node1&#45;&gt;Node9 -->
<g id="edge8_Node000001_Node000009" class="edge">
<title>Node1&#45;&gt;Node9</title>
<g id="a_edge8_Node000001_Node000009"><a xlink:title=" ">
<path fill="none" stroke="#63b8ff" d="M77.72,-275.5C94.48,-258.24 118.76,-236.15 144.25,-222.75 150.74,-219.34 157.69,-216.36 164.81,-213.76"/>
<polygon fill="#63b8ff" stroke="#63b8ff" points="75.49,-272.75 71.16,-282.42 80.58,-277.57 75.49,-272.75"/>
</a>
</g>
</g>
<!-- Node10 -->
<g id="Node000010" class="node">
<title>Node10</title>
<g id="a_Node000010"><a xlink:href="structiris_1_1x86_1_1amd64_1_1IoApicRedirectionTableEntryDestination.html" target="_top" xlink:title=" ">
<polygon fill="white" stroke="#666666" points="336.88,-161.88 158.12,-161.88 158.12,-115.62 336.88,-115.62 336.88,-161.88"/>
<text text-anchor="start" x="166.12" y="-148.38" font-family="Helvetica,sans-Serif" font-size="10.00">iris::x86::amd64::IoApic</text>
<text text-anchor="start" x="166.12" y="-135.62" font-family="Helvetica,sans-Serif" font-size="10.00">RedirectionTableEntryDestination</text>
<text text-anchor="middle" x="247.5" y="-122.88" font-family="Helvetica,sans-Serif" font-size="10.00">&lt; 56, 8 &gt;</text>
</a>
</g>
</g>
<!-- Node1&#45;&gt;Node10 -->
<g id="edge9_Node000001_Node000010" class="edge">
<title>Node1&#45;&gt;Node10</title>
<g id="a_edge9_Node000001_Node000010"><a xlink:title=" ">
<path fill="none" stroke="#63b8ff" d="M67.16,-273.28C81.44,-243.8 107.96,-197.58 144.25,-170.75 148.51,-167.6 153.09,-164.75 157.87,-162.18"/>
<polygon fill="#63b8ff" stroke="#63b8ff" points="64,-271.78 62.93,-282.32 70.34,-274.75 64,-271.78"/>
</a>
</g>
</g>
<!-- Node11 -->
<g id="Node000011" class="node">
<title>Node11</title>
<g id="a_Node000011"><a xlink:href="structiris_1_1x86_1_1amd64_1_1IoApicRedirectionTableEntryVector.html" target="_top" xlink:title="IO APIC Redirection Table Entry.">
<polygon fill="white" stroke="#666666" points="324.12,-97.88 170.88,-97.88 170.88,-51.62 324.12,-51.62 324.12,-97.88"/>
<text text-anchor="start" x="178.88" y="-84.38" font-family="Helvetica,sans-Serif" font-size="10.00">iris::x86::amd64::IoApic</text>
<text text-anchor="start" x="178.88" y="-71.62" font-family="Helvetica,sans-Serif" font-size="10.00">RedirectionTableEntryVector</text>
<text text-anchor="middle" x="247.5" y="-58.88" font-family="Helvetica,sans-Serif" font-size="10.00">&lt; 0, 8 &gt;</text>
</a>
</g>
</g>
<!-- Node1&#45;&gt;Node11 -->
<g id="edge10_Node000001_Node000011" class="edge">
<title>Node1&#45;&gt;Node11</title>
<g id="a_edge10_Node000001_Node000011"><a xlink:title=" ">
<path fill="none" stroke="#63b8ff" d="M60.47,-272.64C69.94,-230.54 93.62,-151.31 144.25,-106.75 151.93,-99.99 161.03,-94.66 170.58,-90.45"/>
<polygon fill="#63b8ff" stroke="#63b8ff" points="57.09,-271.72 58.44,-282.23 63.94,-273.18 57.09,-271.72"/>
</a>
</g>
</g>
<!-- Node12 -->
<g id="Node000012" class="node">
<title>Node12</title>
<g id="a_Node000012"><a xlink:href="structiris_1_1x86_1_1amd64_1_1IoApicVersion.html" target="_top" xlink:title="IO APIC Version Register.">
<polygon fill="white" stroke="#666666" points="312.88,-33.5 182.12,-33.5 182.12,0 312.88,0 312.88,-33.5"/>
<text text-anchor="start" x="190.12" y="-20" font-family="Helvetica,sans-Serif" font-size="10.00">iris::x86::amd64::IoApic</text>
<text text-anchor="middle" x="247.5" y="-7.25" font-family="Helvetica,sans-Serif" font-size="10.00">Version&lt; 0, 8 &gt;</text>
</a>
</g>
</g>
<!-- Node1&#45;&gt;Node12 -->
<g id="edge11_Node000001_Node000012" class="edge">
<title>Node1&#45;&gt;Node12</title>
<g id="a_edge11_Node000001_Node000012"><a xlink:title=" ">
<path fill="none" stroke="#63b8ff" d="M56.46,-272.41C60.54,-219.27 77.1,-104.5 144.25,-42.75 154.63,-33.2 168.02,-27.05 181.66,-23.11"/>
<polygon fill="#63b8ff" stroke="#63b8ff" points="52.99,-271.93 55.82,-282.14 59.97,-272.39 52.99,-271.93"/>
</a>
</g>
</g>
</g>
</svg>
