<?xml version="1.0" encoding="UTF-8" standalone="no"?>
<!DOCTYPE svg PUBLIC "-//W3C//DTD SVG 1.1//EN"
 "http://www.w3.org/Graphics/SVG/1.1/DTD/svg11.dtd">
<!-- Generated by graphviz version 10.0.1 (0)
 -->
<!-- Title: di::meta::detail::CompareThreeWayResultHelper&lt; T, U &gt; Pages: 1 -->
<svg width="425pt" height="106pt"
 viewBox="0.00 0.00 424.75 105.88" xmlns="http://www.w3.org/2000/svg" xmlns:xlink="http://www.w3.org/1999/xlink">
<g id="graph0" class="graph" transform="scale(1 1) rotate(0) translate(4 101.88)">
<title>di::meta::detail::CompareThreeWayResultHelper&lt; T, U &gt;</title>
<!-- Node1 -->
<g id="Node000001" class="node">
<title>Node1</title>
<g id="a_Node000001"><a xlink:title=" ">
<polygon fill="#999999" stroke="#666666" points="416.75,-75.25 247,-75.25 247,-41.75 416.75,-41.75 416.75,-75.25"/>
<text text-anchor="start" x="255" y="-61.75" font-family="Helvetica,sans-Serif" font-size="10.00">di::meta::detail::Compare</text>
<text text-anchor="middle" x="331.88" y="-49" font-family="Helvetica,sans-Serif" font-size="10.00">ThreeWayResultHelper&lt; T, U &gt;</text>
</a>
</g>
</g>
<!-- Node2 -->
<g id="Node000002" class="node">
<title>Node2</title>
<g id="a_Node000002"><a xlink:href="structdi_1_1meta_1_1TypeConstant.html" target="_top" xlink:title=" ">
<polygon fill="white" stroke="#666666" points="184,-97.88 27,-97.88 27,-77.12 184,-77.12 184,-97.88"/>
<text text-anchor="middle" x="105.5" y="-84.38" font-family="Helvetica,sans-Serif" font-size="10.00">di::meta::TypeConstant&lt; T &gt;</text>
</a>
</g>
</g>
<!-- Node2&#45;&gt;Node1 -->
<g id="edge1_Node000001_Node000002" class="edge">
<title>Node2&#45;&gt;Node1</title>
<g id="a_edge1_Node000001_Node000002"><a xlink:title=" ">
<path fill="none" stroke="#63b8ff" d="M195.34,-76.02C212.25,-73.83 229.9,-71.55 246.66,-69.38"/>
<polygon fill="#63b8ff" stroke="#63b8ff" points="195.32,-72.49 185.85,-77.24 196.21,-79.43 195.32,-72.49"/>
</a>
</g>
</g>
<!-- Node3 -->
<g id="Node000003" class="node">
<title>Node3</title>
<g id="a_Node000003"><a xlink:href="structdi_1_1meta_1_1TypeConstant.html" target="_top" xlink:title=" ">
<polygon fill="white" stroke="#666666" points="211,-59 0,-59 0,0 211,0 211,-59"/>
<text text-anchor="start" x="8" y="-45.5" font-family="Helvetica,sans-Serif" font-size="10.00">di::meta::TypeConstant</text>
<text text-anchor="start" x="8" y="-32.75" font-family="Helvetica,sans-Serif" font-size="10.00">&lt; meta::Type&lt; concepts</text>
<text text-anchor="start" x="8" y="-20" font-family="Helvetica,sans-Serif" font-size="10.00">::detail::DefinitelyThreeWayComparable</text>
<text text-anchor="middle" x="105.5" y="-7.25" font-family="Helvetica,sans-Serif" font-size="10.00">With&lt; T, U &gt; &gt; &gt;</text>
</a>
</g>
</g>
<!-- Node3&#45;&gt;Node1 -->
<g id="edge2_Node000001_Node000003" class="edge">
<title>Node3&#45;&gt;Node1</title>
<g id="a_edge2_Node000001_Node000003"><a xlink:title=" ">
<path fill="none" stroke="#63b8ff" d="M222.77,-44.53C230.76,-45.56 238.73,-46.59 246.5,-47.6"/>
<polygon fill="#63b8ff" stroke="#63b8ff" points="223.33,-41.07 212.96,-43.26 222.43,-48.01 223.33,-41.07"/>
</a>
</g>
</g>
</g>
</svg>
