<?xml version="1.0" encoding="UTF-8" standalone="no"?>
<!DOCTYPE svg PUBLIC "-//W3C//DTD SVG 1.1//EN"
 "http://www.w3.org/Graphics/SVG/1.1/DTD/svg11.dtd">
<!-- Generated by graphviz version 10.0.1 (0)
 -->
<!-- Title: di::bit::BitFlag&lt; index &gt; Pages: 1 -->
<svg width="384pt" height="1106pt"
 viewBox="0.00 0.00 383.50 1105.88" xmlns="http://www.w3.org/2000/svg" xmlns:xlink="http://www.w3.org/1999/xlink">
<g id="graph0" class="graph" transform="scale(1 1) rotate(0) translate(4 1101.88)">
<title>di::bit::BitFlag&lt; index &gt;</title>
<!-- Node1 -->
<g id="Node000001" class="node">
<title>Node1</title>
<g id="a_Node000001"><a xlink:title=" ">
<polygon fill="#999999" stroke="#666666" points="133.75,-571.5 0,-571.5 0,-550.75 133.75,-550.75 133.75,-571.5"/>
<text text-anchor="middle" x="66.88" y="-558" font-family="Helvetica,sans-Serif" font-size="10.00">di::bit::BitFlag&lt; index &gt;</text>
</a>
</g>
</g>
<!-- Node2 -->
<g id="Node000002" class="node">
<title>Node2</title>
<g id="a_Node000002"><a xlink:href="structiris_1_1x86_1_1amd64_1_1ApicExtendedControlExtendId.html" target="_top" xlink:title=" ">
<polygon fill="white" stroke="#666666" points="356.38,-1097.88 188.88,-1097.88 188.88,-1064.38 356.38,-1064.38 356.38,-1097.88"/>
<text text-anchor="start" x="196.88" y="-1084.38" font-family="Helvetica,sans-Serif" font-size="10.00">iris::x86::amd64::ApicExtended</text>
<text text-anchor="middle" x="272.62" y="-1071.62" font-family="Helvetica,sans-Serif" font-size="10.00">ControlExtendId&lt; 2 &gt;</text>
</a>
</g>
</g>
<!-- Node1&#45;&gt;Node2 -->
<g id="edge1_Node000001_Node000002" class="edge">
<title>Node1&#45;&gt;Node2</title>
<g id="a_edge1_Node000001_Node000002"><a xlink:title=" ">
<path fill="none" stroke="#63b8ff" d="M69.37,-583.05C75.7,-669.49 103.11,-985.31 169.75,-1055.12 175.17,-1060.8 181.64,-1065.31 188.66,-1068.87"/>
<polygon fill="#63b8ff" stroke="#63b8ff" points="72.88,-583.05 68.68,-573.33 65.9,-583.55 72.88,-583.05"/>
</a>
</g>
</g>
<!-- Node3 -->
<g id="Node000003" class="node">
<title>Node3</title>
<g id="a_Node000003"><a xlink:href="structiris_1_1x86_1_1amd64_1_1ApicExtendedControlInterruptEnable.html" target="_top" xlink:title=" ">
<polygon fill="white" stroke="#666666" points="356.38,-1045.88 188.88,-1045.88 188.88,-1012.38 356.38,-1012.38 356.38,-1045.88"/>
<text text-anchor="start" x="196.88" y="-1032.38" font-family="Helvetica,sans-Serif" font-size="10.00">iris::x86::amd64::ApicExtended</text>
<text text-anchor="middle" x="272.62" y="-1019.62" font-family="Helvetica,sans-Serif" font-size="10.00">ControlInterruptEnable&lt; 0 &gt;</text>
</a>
</g>
</g>
<!-- Node1&#45;&gt;Node3 -->
<g id="edge2_Node000001_Node000003" class="edge">
<title>Node1&#45;&gt;Node3</title>
<g id="a_edge2_Node000001_Node000003"><a xlink:title=" ">
<path fill="none" stroke="#63b8ff" d="M69.94,-583.04C77.97,-663.56 109.68,-941.64 169.75,-1003.12 175.23,-1008.74 181.75,-1013.2 188.8,-1016.74"/>
<polygon fill="#63b8ff" stroke="#63b8ff" points="73.45,-582.99 69,-573.38 66.49,-583.67 73.45,-582.99"/>
</a>
</g>
</g>
<!-- Node4 -->
<g id="Node000004" class="node">
<title>Node4</title>
<g id="a_Node000004"><a xlink:href="structiris_1_1x86_1_1amd64_1_1ApicExtendedControlSpecificEoi.html" target="_top" xlink:title=" ">
<polygon fill="white" stroke="#666666" points="356.38,-993.88 188.88,-993.88 188.88,-960.38 356.38,-960.38 356.38,-993.88"/>
<text text-anchor="start" x="196.88" y="-980.38" font-family="Helvetica,sans-Serif" font-size="10.00">iris::x86::amd64::ApicExtended</text>
<text text-anchor="middle" x="272.62" y="-967.62" font-family="Helvetica,sans-Serif" font-size="10.00">ControlSpecificEoi&lt; 1 &gt;</text>
</a>
</g>
</g>
<!-- Node1&#45;&gt;Node4 -->
<g id="edge3_Node000001_Node000004" class="edge">
<title>Node1&#45;&gt;Node4</title>
<g id="a_edge3_Node000001_Node000004"><a xlink:title=" ">
<path fill="none" stroke="#63b8ff" d="M70.63,-582.81C80.47,-656.82 116.16,-897.83 169.75,-951.12 175.19,-956.53 181.58,-960.86 188.47,-964.33"/>
<polygon fill="#63b8ff" stroke="#63b8ff" points="74.15,-582.67 69.38,-573.21 67.2,-583.58 74.15,-582.67"/>
</a>
</g>
</g>
<!-- Node5 -->
<g id="Node000005" class="node">
<title>Node5</title>
<g id="a_Node000005"><a xlink:href="structiris_1_1x86_1_1amd64_1_1ApicExtendedFeatureExtendedId.html" target="_top" xlink:title=" ">
<polygon fill="white" stroke="#666666" points="356.38,-941.88 188.88,-941.88 188.88,-908.38 356.38,-908.38 356.38,-941.88"/>
<text text-anchor="start" x="196.88" y="-928.38" font-family="Helvetica,sans-Serif" font-size="10.00">iris::x86::amd64::ApicExtended</text>
<text text-anchor="middle" x="272.62" y="-915.62" font-family="Helvetica,sans-Serif" font-size="10.00">FeatureExtendedId&lt; 2 &gt;</text>
</a>
</g>
</g>
<!-- Node1&#45;&gt;Node5 -->
<g id="edge4_Node000001_Node000005" class="edge">
<title>Node1&#45;&gt;Node5</title>
<g id="a_edge4_Node000001_Node000005"><a xlink:title=" ">
<path fill="none" stroke="#63b8ff" d="M67.57,-583.23C68,-643.32 77.81,-811.04 169.75,-899.12 175.29,-904.43 181.75,-908.69 188.68,-912.11"/>
<polygon fill="#63b8ff" stroke="#63b8ff" points="71.07,-583.34 67.59,-573.33 64.07,-583.32 71.07,-583.34"/>
</a>
</g>
</g>
<!-- Node6 -->
<g id="Node000006" class="node">
<title>Node6</title>
<g id="a_Node000006"><a xlink:href="structiris_1_1x86_1_1amd64_1_1ApicExtendedFeatureInterruptEnable.html" target="_top" xlink:title=" ">
<polygon fill="white" stroke="#666666" points="356.38,-889.88 188.88,-889.88 188.88,-856.38 356.38,-856.38 356.38,-889.88"/>
<text text-anchor="start" x="196.88" y="-876.38" font-family="Helvetica,sans-Serif" font-size="10.00">iris::x86::amd64::ApicExtended</text>
<text text-anchor="middle" x="272.62" y="-863.62" font-family="Helvetica,sans-Serif" font-size="10.00">FeatureInterruptEnable&lt; 0 &gt;</text>
</a>
</g>
</g>
<!-- Node1&#45;&gt;Node6 -->
<g id="edge5_Node000001_Node000006" class="edge">
<title>Node1&#45;&gt;Node6</title>
<g id="a_edge5_Node000001_Node000006"><a xlink:title=" ">
<path fill="none" stroke="#63b8ff" d="M68.96,-583.02C72.83,-636.53 90.42,-774.8 169.75,-847.12 175.28,-852.17 181.65,-856.26 188.45,-859.58"/>
<polygon fill="#63b8ff" stroke="#63b8ff" points="72.47,-583.14 68.36,-573.38 65.49,-583.57 72.47,-583.14"/>
</a>
</g>
</g>
<!-- Node7 -->
<g id="Node000007" class="node">
<title>Node7</title>
<g id="a_Node000007"><a xlink:href="structiris_1_1x86_1_1amd64_1_1ApicExtendedFeatureSpecificEoi.html" target="_top" xlink:title=" ">
<polygon fill="white" stroke="#666666" points="356.38,-837.88 188.88,-837.88 188.88,-804.38 356.38,-804.38 356.38,-837.88"/>
<text text-anchor="start" x="196.88" y="-824.38" font-family="Helvetica,sans-Serif" font-size="10.00">iris::x86::amd64::ApicExtended</text>
<text text-anchor="middle" x="272.62" y="-811.62" font-family="Helvetica,sans-Serif" font-size="10.00">FeatureSpecificEoi&lt; 1 &gt;</text>
</a>
</g>
</g>
<!-- Node1&#45;&gt;Node7 -->
<g id="edge6_Node000001_Node000007" class="edge">
<title>Node1&#45;&gt;Node7</title>
<g id="a_edge6_Node000001_Node000007"><a xlink:title=" ">
<path fill="none" stroke="#63b8ff" d="M70.92,-583.06C78.57,-629.54 102.98,-738.31 169.75,-795.12 175.38,-799.92 181.78,-803.84 188.56,-807.06"/>
<polygon fill="#63b8ff" stroke="#63b8ff" points="74.42,-582.79 69.45,-573.43 67.5,-583.85 74.42,-582.79"/>
</a>
</g>
</g>
<!-- Node8 -->
<g id="Node000008" class="node">
<title>Node8</title>
<g id="a_Node000008"><a xlink:href="structiris_1_1x86_1_1amd64_1_1ApicExtendedRegisterPresent.html" target="_top" xlink:title=" ">
<polygon fill="white" stroke="#666666" points="356.38,-785.88 188.88,-785.88 188.88,-752.38 356.38,-752.38 356.38,-785.88"/>
<text text-anchor="start" x="196.88" y="-772.38" font-family="Helvetica,sans-Serif" font-size="10.00">iris::x86::amd64::ApicExtended</text>
<text text-anchor="middle" x="272.62" y="-759.62" font-family="Helvetica,sans-Serif" font-size="10.00">RegisterPresent&lt; 31 &gt;</text>
</a>
</g>
</g>
<!-- Node1&#45;&gt;Node8 -->
<g id="edge7_Node000001_Node000008" class="edge">
<title>Node1&#45;&gt;Node8</title>
<g id="a_edge7_Node000001_Node000008"><a xlink:title=" ">
<path fill="none" stroke="#63b8ff" d="M73.75,-582.58C85.38,-620.92 115.08,-701.12 169.75,-743.12 175.47,-747.52 181.85,-751.17 188.54,-754.22"/>
<polygon fill="#63b8ff" stroke="#63b8ff" points="77.16,-581.79 71.02,-573.16 70.44,-583.74 77.16,-581.79"/>
</a>
</g>
</g>
<!-- Node9 -->
<g id="Node000009" class="node">
<title>Node9</title>
<g id="a_Node000009"><a xlink:href="structiris_1_1x86_1_1amd64_1_1ApicInterruptCommandDeliveryStatus.html" target="_top" xlink:title=" ">
<polygon fill="white" stroke="#666666" points="359,-733.88 186.25,-733.88 186.25,-700.38 359,-700.38 359,-733.88"/>
<text text-anchor="start" x="194.25" y="-720.38" font-family="Helvetica,sans-Serif" font-size="10.00">iris::x86::amd64::ApicInterrupt</text>
<text text-anchor="middle" x="272.62" y="-707.62" font-family="Helvetica,sans-Serif" font-size="10.00">CommandDeliveryStatus&lt; 12 &gt;</text>
</a>
</g>
</g>
<!-- Node1&#45;&gt;Node9 -->
<g id="edge8_Node000001_Node000009" class="edge">
<title>Node1&#45;&gt;Node9</title>
<g id="a_edge8_Node000001_Node000009"><a xlink:title=" ">
<path fill="none" stroke="#63b8ff" d="M78.28,-581.67C94.04,-610.63 126.73,-663.06 169.75,-691.12 174.87,-694.47 180.4,-697.38 186.13,-699.92"/>
<polygon fill="#63b8ff" stroke="#63b8ff" points="81.55,-580.36 73.79,-573.15 75.36,-583.63 81.55,-580.36"/>
</a>
</g>
</g>
<!-- Node10 -->
<g id="Node000010" class="node">
<title>Node10</title>
<g id="a_Node000010"><a xlink:href="structiris_1_1x86_1_1amd64_1_1ApicInterruptCommandDestinationMode.html" target="_top" xlink:title=" ">
<polygon fill="white" stroke="#666666" points="364.62,-681.88 180.62,-681.88 180.62,-648.38 364.62,-648.38 364.62,-681.88"/>
<text text-anchor="start" x="188.62" y="-668.38" font-family="Helvetica,sans-Serif" font-size="10.00">iris::x86::amd64::ApicInterrupt</text>
<text text-anchor="middle" x="272.62" y="-655.62" font-family="Helvetica,sans-Serif" font-size="10.00">CommandDestinationMode&lt; 11 &gt;</text>
</a>
</g>
</g>
<!-- Node1&#45;&gt;Node10 -->
<g id="edge9_Node000001_Node000010" class="edge">
<title>Node1&#45;&gt;Node10</title>
<g id="a_edge9_Node000001_Node000010"><a xlink:title=" ">
<path fill="none" stroke="#63b8ff" d="M87,-579.63C106.36,-597.37 137.91,-623.68 169.75,-639.12 176.57,-642.43 183.85,-645.35 191.27,-647.92"/>
<polygon fill="#63b8ff" stroke="#63b8ff" points="89.56,-577.23 79.87,-572.95 84.78,-582.34 89.56,-577.23"/>
</a>
</g>
</g>
<!-- Node11 -->
<g id="Node000011" class="node">
<title>Node11</title>
<g id="a_Node000011"><a xlink:href="structiris_1_1x86_1_1amd64_1_1ApicInterruptCommandLevel.html" target="_top" xlink:title=" ">
<polygon fill="white" stroke="#666666" points="354.5,-629.88 190.75,-629.88 190.75,-596.38 354.5,-596.38 354.5,-629.88"/>
<text text-anchor="start" x="198.75" y="-616.38" font-family="Helvetica,sans-Serif" font-size="10.00">iris::x86::amd64::ApicInterrupt</text>
<text text-anchor="middle" x="272.62" y="-603.62" font-family="Helvetica,sans-Serif" font-size="10.00">CommandLevel&lt; 14 &gt;</text>
</a>
</g>
</g>
<!-- Node1&#45;&gt;Node11 -->
<g id="edge10_Node000001_Node000011" class="edge">
<title>Node1&#45;&gt;Node11</title>
<g id="a_edge10_Node000001_Node000011"><a xlink:title=" ">
<path fill="none" stroke="#63b8ff" d="M121,-574.68C146.42,-581.17 177.15,-589.01 204.2,-595.92"/>
<polygon fill="#63b8ff" stroke="#63b8ff" points="122.11,-571.36 111.56,-572.27 120.38,-578.14 122.11,-571.36"/>
</a>
</g>
</g>
<!-- Node12 -->
<g id="Node000012" class="node">
<title>Node12</title>
<g id="a_Node000012"><a xlink:href="structiris_1_1x86_1_1amd64_1_1ApicInterruptCommandTriggerMode.html" target="_top" xlink:title=" ">
<polygon fill="white" stroke="#666666" points="354.5,-577.88 190.75,-577.88 190.75,-544.38 354.5,-544.38 354.5,-577.88"/>
<text text-anchor="start" x="198.75" y="-564.38" font-family="Helvetica,sans-Serif" font-size="10.00">iris::x86::amd64::ApicInterrupt</text>
<text text-anchor="middle" x="272.62" y="-551.62" font-family="Helvetica,sans-Serif" font-size="10.00">CommandTriggerMode&lt; 15 &gt;</text>
</a>
</g>
</g>
<!-- Node1&#45;&gt;Node12 -->
<g id="edge11_Node000001_Node000012" class="edge">
<title>Node1&#45;&gt;Node12</title>
<g id="a_edge11_Node000001_Node000012"><a xlink:title=" ">
<path fill="none" stroke="#63b8ff" d="M145.19,-561.12C160.01,-561.12 175.56,-561.12 190.49,-561.12"/>
<polygon fill="#63b8ff" stroke="#63b8ff" points="145.54,-557.63 135.54,-561.13 145.54,-564.63 145.54,-557.63"/>
</a>
</g>
</g>
<!-- Node13 -->
<g id="Node000013" class="node">
<title>Node13</title>
<g id="a_Node000013"><a xlink:href="structiris_1_1x86_1_1amd64_1_1ApicLvtEntryDeliveryStatus.html" target="_top" xlink:title=" ">
<polygon fill="white" stroke="#666666" points="346.62,-525.88 198.62,-525.88 198.62,-492.38 346.62,-492.38 346.62,-525.88"/>
<text text-anchor="start" x="206.62" y="-512.38" font-family="Helvetica,sans-Serif" font-size="10.00">iris::x86::amd64::ApicLvt</text>
<text text-anchor="middle" x="272.62" y="-499.62" font-family="Helvetica,sans-Serif" font-size="10.00">EntryDeliveryStatus&lt; 12 &gt;</text>
</a>
</g>
</g>
<!-- Node1&#45;&gt;Node13 -->
<g id="edge12_Node000001_Node000013" class="edge">
<title>Node1&#45;&gt;Node13</title>
<g id="a_edge12_Node000001_Node000013"><a xlink:title=" ">
<path fill="none" stroke="#63b8ff" d="M121,-547.57C146.42,-541.08 177.15,-533.24 204.2,-526.33"/>
<polygon fill="#63b8ff" stroke="#63b8ff" points="120.38,-544.11 111.56,-549.98 122.11,-550.89 120.38,-544.11"/>
</a>
</g>
</g>
<!-- Node14 -->
<g id="Node000014" class="node">
<title>Node14</title>
<g id="a_Node000014"><a xlink:href="structiris_1_1x86_1_1amd64_1_1ApicLvtEntryMask.html" target="_top" xlink:title=" ">
<polygon fill="white" stroke="#666666" points="341,-473.88 204.25,-473.88 204.25,-440.38 341,-440.38 341,-473.88"/>
<text text-anchor="start" x="212.25" y="-460.38" font-family="Helvetica,sans-Serif" font-size="10.00">iris::x86::amd64::ApicLvt</text>
<text text-anchor="middle" x="272.62" y="-447.62" font-family="Helvetica,sans-Serif" font-size="10.00">EntryMask&lt; 16 &gt;</text>
</a>
</g>
</g>
<!-- Node1&#45;&gt;Node14 -->
<g id="edge13_Node000001_Node000014" class="edge">
<title>Node1&#45;&gt;Node14</title>
<g id="a_edge13_Node000001_Node000014"><a xlink:title=" ">
<path fill="none" stroke="#63b8ff" d="M87,-542.62C106.36,-524.88 137.91,-498.57 169.75,-483.12 180.43,-477.95 192.25,-473.72 203.94,-470.3"/>
<polygon fill="#63b8ff" stroke="#63b8ff" points="84.78,-539.91 79.87,-549.3 89.56,-545.02 84.78,-539.91"/>
</a>
</g>
</g>
<!-- Node15 -->
<g id="Node000015" class="node">
<title>Node15</title>
<g id="a_Node000015"><a xlink:href="structiris_1_1x86_1_1amd64_1_1ApicLvtEntryRemoteIrr.html" target="_top" xlink:title=" ">
<polygon fill="white" stroke="#666666" points="341,-421.88 204.25,-421.88 204.25,-388.38 341,-388.38 341,-421.88"/>
<text text-anchor="start" x="212.25" y="-408.38" font-family="Helvetica,sans-Serif" font-size="10.00">iris::x86::amd64::ApicLvt</text>
<text text-anchor="middle" x="272.62" y="-395.62" font-family="Helvetica,sans-Serif" font-size="10.00">EntryRemoteIrr&lt; 14 &gt;</text>
</a>
</g>
</g>
<!-- Node1&#45;&gt;Node15 -->
<g id="edge14_Node000001_Node000015" class="edge">
<title>Node1&#45;&gt;Node15</title>
<g id="a_edge14_Node000001_Node000015"><a xlink:title=" ">
<path fill="none" stroke="#63b8ff" d="M78.28,-540.58C94.04,-511.62 126.73,-459.19 169.75,-431.12 179.99,-424.44 191.85,-419.48 203.78,-415.79"/>
<polygon fill="#63b8ff" stroke="#63b8ff" points="75.36,-538.62 73.79,-549.1 81.55,-541.89 75.36,-538.62"/>
</a>
</g>
</g>
<!-- Node16 -->
<g id="Node000016" class="node">
<title>Node16</title>
<g id="a_Node000016"><a xlink:href="structiris_1_1x86_1_1amd64_1_1ApicLvtEntryTimerMode.html" target="_top" xlink:title=" ">
<polygon fill="white" stroke="#666666" points="341,-369.88 204.25,-369.88 204.25,-336.38 341,-336.38 341,-369.88"/>
<text text-anchor="start" x="212.25" y="-356.38" font-family="Helvetica,sans-Serif" font-size="10.00">iris::x86::amd64::ApicLvt</text>
<text text-anchor="middle" x="272.62" y="-343.62" font-family="Helvetica,sans-Serif" font-size="10.00">EntryTimerMode&lt; 17 &gt;</text>
</a>
</g>
</g>
<!-- Node1&#45;&gt;Node16 -->
<g id="edge15_Node000001_Node000016" class="edge">
<title>Node1&#45;&gt;Node16</title>
<g id="a_edge15_Node000001_Node000016"><a xlink:title=" ">
<path fill="none" stroke="#63b8ff" d="M73.75,-539.67C85.38,-501.33 115.08,-421.13 169.75,-379.12 179.74,-371.45 191.74,-366.02 203.95,-362.19"/>
<polygon fill="#63b8ff" stroke="#63b8ff" points="70.44,-538.51 71.02,-549.09 77.16,-540.46 70.44,-538.51"/>
</a>
</g>
</g>
<!-- Node17 -->
<g id="Node000017" class="node">
<title>Node17</title>
<g id="a_Node000017"><a xlink:href="structiris_1_1x86_1_1amd64_1_1ApicLvtEntryTriggerMode.html" target="_top" xlink:title=" ">
<polygon fill="white" stroke="#666666" points="341,-317.88 204.25,-317.88 204.25,-284.38 341,-284.38 341,-317.88"/>
<text text-anchor="start" x="212.25" y="-304.38" font-family="Helvetica,sans-Serif" font-size="10.00">iris::x86::amd64::ApicLvt</text>
<text text-anchor="middle" x="272.62" y="-291.62" font-family="Helvetica,sans-Serif" font-size="10.00">EntryTriggerMode&lt; 15 &gt;</text>
</a>
</g>
</g>
<!-- Node1&#45;&gt;Node17 -->
<g id="edge16_Node000001_Node000017" class="edge">
<title>Node1&#45;&gt;Node17</title>
<g id="a_edge16_Node000001_Node000017"><a xlink:title=" ">
<path fill="none" stroke="#63b8ff" d="M70.92,-539.19C78.57,-492.71 102.98,-383.94 169.75,-327.12 179.48,-318.84 191.51,-313.15 203.85,-309.24"/>
<polygon fill="#63b8ff" stroke="#63b8ff" points="67.5,-538.4 69.45,-548.82 74.42,-539.46 67.5,-538.4"/>
</a>
</g>
</g>
<!-- Node18 -->
<g id="Node000018" class="node">
<title>Node18</title>
<g id="a_Node000018"><a xlink:href="structiris_1_1x86_1_1amd64_1_1IoApicRedirectionTableEntryDeliveryStatus.html" target="_top" xlink:title=" ">
<polygon fill="white" stroke="#666666" points="354.5,-266.25 190.75,-266.25 190.75,-220 354.5,-220 354.5,-266.25"/>
<text text-anchor="start" x="198.75" y="-252.75" font-family="Helvetica,sans-Serif" font-size="10.00">iris::x86::amd64::IoApic</text>
<text text-anchor="start" x="198.75" y="-240" font-family="Helvetica,sans-Serif" font-size="10.00">RedirectionTableEntryDelivery</text>
<text text-anchor="middle" x="272.62" y="-227.25" font-family="Helvetica,sans-Serif" font-size="10.00">Status&lt; 12 &gt;</text>
</a>
</g>
</g>
<!-- Node1&#45;&gt;Node18 -->
<g id="edge17_Node000001_Node000018" class="edge">
<title>Node1&#45;&gt;Node18</title>
<g id="a_edge17_Node000001_Node000018"><a xlink:title=" ">
<path fill="none" stroke="#63b8ff" d="M69.24,-539.16C73.73,-486.02 92.58,-349.43 169.75,-275.12 175.76,-269.34 182.8,-264.6 190.33,-260.71"/>
<polygon fill="#63b8ff" stroke="#63b8ff" points="65.76,-538.78 68.51,-549.01 72.74,-539.3 65.76,-538.78"/>
</a>
</g>
</g>
<!-- Node19 -->
<g id="Node000019" class="node">
<title>Node19</title>
<g id="a_Node000019"><a xlink:href="structiris_1_1x86_1_1amd64_1_1IoApicRedirectionTableEntryMask.html" target="_top" xlink:title=" ">
<polygon fill="white" stroke="#666666" points="364.25,-201.88 181,-201.88 181,-168.38 364.25,-168.38 364.25,-201.88"/>
<text text-anchor="start" x="189" y="-188.38" font-family="Helvetica,sans-Serif" font-size="10.00">iris::x86::amd64::IoApic</text>
<text text-anchor="middle" x="272.62" y="-175.62" font-family="Helvetica,sans-Serif" font-size="10.00">RedirectionTableEntryMask&lt; 16 &gt;</text>
</a>
</g>
</g>
<!-- Node1&#45;&gt;Node19 -->
<g id="edge18_Node000001_Node000019" class="edge">
<title>Node1&#45;&gt;Node19</title>
<g id="a_edge18_Node000001_Node000019"><a xlink:title=" ">
<path fill="none" stroke="#63b8ff" d="M67.3,-539.06C66.96,-477.6 74.83,-302.93 169.75,-211.12 173.29,-207.7 177.22,-204.71 181.41,-202.09"/>
<polygon fill="#63b8ff" stroke="#63b8ff" points="63.8,-538.93 67.45,-548.88 70.8,-538.82 63.8,-538.93"/>
</a>
</g>
</g>
<!-- Node20 -->
<g id="Node000020" class="node">
<title>Node20</title>
<g id="a_Node000020"><a xlink:href="structiris_1_1x86_1_1amd64_1_1IoApicRedirectionTableEntryPolarity.html" target="_top" xlink:title=" ">
<polygon fill="white" stroke="#666666" points="369.88,-149.88 175.38,-149.88 175.38,-116.38 369.88,-116.38 369.88,-149.88"/>
<text text-anchor="start" x="183.38" y="-136.38" font-family="Helvetica,sans-Serif" font-size="10.00">iris::x86::amd64::IoApic</text>
<text text-anchor="middle" x="272.62" y="-123.62" font-family="Helvetica,sans-Serif" font-size="10.00">RedirectionTableEntryPolarity&lt; 13 &gt;</text>
</a>
</g>
</g>
<!-- Node1&#45;&gt;Node20 -->
<g id="edge19_Node000001_Node000020" class="edge">
<title>Node1&#45;&gt;Node20</title>
<g id="a_edge19_Node000001_Node000020"><a xlink:title=" ">
<path fill="none" stroke="#63b8ff" d="M70.47,-539.28C79.9,-463.61 114.69,-214.28 169.75,-159.12 173.1,-155.77 176.83,-152.82 180.81,-150.24"/>
<polygon fill="#63b8ff" stroke="#63b8ff" points="67.01,-538.75 69.28,-549.1 73.96,-539.6 67.01,-538.75"/>
</a>
</g>
</g>
<!-- Node21 -->
<g id="Node000021" class="node">
<title>Node21</title>
<g id="a_Node000021"><a xlink:href="structiris_1_1x86_1_1amd64_1_1IoApicRedirectionTableEntryRemoteIrr.html" target="_top" xlink:title=" ">
<polygon fill="white" stroke="#666666" points="375.5,-97.88 169.75,-97.88 169.75,-64.38 375.5,-64.38 375.5,-97.88"/>
<text text-anchor="start" x="177.75" y="-84.38" font-family="Helvetica,sans-Serif" font-size="10.00">iris::x86::amd64::IoApic</text>
<text text-anchor="middle" x="272.62" y="-71.62" font-family="Helvetica,sans-Serif" font-size="10.00">RedirectionTableEntryRemoteIrr&lt; 14 &gt;</text>
</a>
</g>
</g>
<!-- Node1&#45;&gt;Node21 -->
<g id="edge20_Node000001_Node000021" class="edge">
<title>Node1&#45;&gt;Node21</title>
<g id="a_edge20_Node000001_Node000021"><a xlink:title=" ">
<path fill="none" stroke="#63b8ff" d="M69.8,-539.16C77.44,-457.18 108.18,-170.52 169.75,-107.12 173.06,-103.72 176.74,-100.74 180.7,-98.13"/>
<polygon fill="#63b8ff" stroke="#63b8ff" points="66.33,-538.71 68.91,-548.99 73.3,-539.35 66.33,-538.71"/>
</a>
</g>
</g>
<!-- Node22 -->
<g id="Node000022" class="node">
<title>Node22</title>
<g id="a_Node000022"><a xlink:href="structiris_1_1x86_1_1amd64_1_1IoApicRedirectionTableEntryTriggerMode.html" target="_top" xlink:title=" ">
<polygon fill="white" stroke="#666666" points="350.38,-46.25 194.88,-46.25 194.88,0 350.38,0 350.38,-46.25"/>
<text text-anchor="start" x="202.88" y="-32.75" font-family="Helvetica,sans-Serif" font-size="10.00">iris::x86::amd64::IoApic</text>
<text text-anchor="start" x="202.88" y="-20" font-family="Helvetica,sans-Serif" font-size="10.00">RedirectionTableEntryTrigger</text>
<text text-anchor="middle" x="272.62" y="-7.25" font-family="Helvetica,sans-Serif" font-size="10.00">Mode&lt; 15 &gt;</text>
</a>
</g>
</g>
<!-- Node1&#45;&gt;Node22 -->
<g id="edge21_Node000001_Node000022" class="edge">
<title>Node1&#45;&gt;Node22</title>
<g id="a_edge21_Node000001_Node000022"><a xlink:title=" ">
<path fill="none" stroke="#63b8ff" d="M69.36,-539.34C75.75,-452.06 103.56,-128.71 169.75,-55.12 176.57,-47.54 185.16,-41.74 194.45,-37.31"/>
<polygon fill="#63b8ff" stroke="#63b8ff" points="65.88,-538.92 68.67,-549.15 72.87,-539.42 65.88,-538.92"/>
</a>
</g>
</g>
</g>
</svg>
