<?xml version="1.0" encoding="UTF-8" standalone="no"?>
<!DOCTYPE svg PUBLIC "-//W3C//DTD SVG 1.1//EN"
 "http://www.w3.org/Graphics/SVG/1.1/DTD/svg11.dtd">
<!-- Generated by graphviz version 10.0.1 (0)
 -->
<!-- Title: di::function::curry_back_ns::CurryBack&lt; Self &gt; Pages: 1 -->
<svg width="511pt" height="170pt"
 viewBox="0.00 0.00 510.50 169.88" xmlns="http://www.w3.org/2000/svg" xmlns:xlink="http://www.w3.org/1999/xlink">
<g id="graph0" class="graph" transform="scale(1 1) rotate(0) translate(4 165.88)">
<title>di::function::curry_back_ns::CurryBack&lt; Self &gt;</title>
<!-- Node1 -->
<g id="Node000001" class="node">
<title>Node1</title>
<g id="a_Node000001"><a xlink:title=" ">
<polygon fill="#999999" stroke="#666666" points="269,-110.25 151.75,-110.25 151.75,-64 269,-64 269,-110.25"/>
<text text-anchor="start" x="159.75" y="-96.75" font-family="Helvetica,sans-Serif" font-size="10.00">di::function::curry</text>
<text text-anchor="start" x="159.75" y="-84" font-family="Helvetica,sans-Serif" font-size="10.00">_back_ns::CurryBack</text>
<text text-anchor="middle" x="210.38" y="-71.25" font-family="Helvetica,sans-Serif" font-size="10.00">&lt; Self &gt;</text>
</a>
</g>
</g>
<!-- Node3 -->
<g id="Node000003" class="node">
<title>Node3</title>
<g id="a_Node000003"><a xlink:href="structdi_1_1container_1_1erase__ns_1_1EraseFunction.html" target="_top" xlink:title=" ">
<polygon fill="white" stroke="#666666" points="502.5,-161.88 305,-161.88 305,-128.38 502.5,-128.38 502.5,-161.88"/>
<text text-anchor="start" x="313" y="-148.38" font-family="Helvetica,sans-Serif" font-size="10.00">di::container::erase</text>
<text text-anchor="middle" x="403.75" y="-135.62" font-family="Helvetica,sans-Serif" font-size="10.00">_ns::EraseFunction&lt; EraseFunction &gt;</text>
</a>
</g>
</g>
<!-- Node1&#45;&gt;Node3 -->
<g id="edge2_Node000001_Node000003" class="edge">
<title>Node1&#45;&gt;Node3</title>
<g id="a_edge2_Node000001_Node000003"><a xlink:title=" ">
<path fill="none" stroke="#63b8ff" d="M279.76,-111.11C288.23,-113.9 296.79,-116.63 305,-119.12 314.83,-122.11 325.27,-125.09 335.53,-127.9"/>
<polygon fill="#63b8ff" stroke="#63b8ff" points="281.14,-107.88 270.54,-108.04 278.92,-114.52 281.14,-107.88"/>
</a>
</g>
</g>
<!-- Node4 -->
<g id="Node000004" class="node">
<title>Node4</title>
<g id="a_Node000004"><a xlink:href="structdi_1_1container_1_1erase__ns_1_1EraseIfFunction.html" target="_top" xlink:title=" ">
<polygon fill="white" stroke="#666666" points="460.5,-110.25 347,-110.25 347,-64 460.5,-64 460.5,-110.25"/>
<text text-anchor="start" x="355" y="-96.75" font-family="Helvetica,sans-Serif" font-size="10.00">di::container::erase</text>
<text text-anchor="start" x="355" y="-84" font-family="Helvetica,sans-Serif" font-size="10.00">_ns::EraseIfFunction</text>
<text text-anchor="middle" x="403.75" y="-71.25" font-family="Helvetica,sans-Serif" font-size="10.00">&lt; EraseIfFunction &gt;</text>
</a>
</g>
</g>
<!-- Node1&#45;&gt;Node4 -->
<g id="edge3_Node000001_Node000004" class="edge">
<title>Node1&#45;&gt;Node4</title>
<g id="a_edge3_Node000001_Node000004"><a xlink:title=" ">
<path fill="none" stroke="#63b8ff" d="M280.77,-87.12C302.43,-87.12 326.03,-87.12 346.65,-87.12"/>
<polygon fill="#63b8ff" stroke="#63b8ff" points="280.83,-83.63 270.83,-87.13 280.83,-90.63 280.83,-83.63"/>
</a>
</g>
</g>
<!-- Node5 -->
<g id="Node000005" class="node">
<title>Node5</title>
<g id="a_Node000005"><a xlink:href="structdi_1_1function_1_1curry__back__ns_1_1CurryBackImpl.html" target="_top" xlink:title=" ">
<polygon fill="white" stroke="#666666" points="473.25,-46.25 334.25,-46.25 334.25,0 473.25,0 473.25,-46.25"/>
<text text-anchor="start" x="342.25" y="-32.75" font-family="Helvetica,sans-Serif" font-size="10.00">di::function::curry</text>
<text text-anchor="start" x="342.25" y="-20" font-family="Helvetica,sans-Serif" font-size="10.00">_back_ns::CurryBackImpl</text>
<text text-anchor="middle" x="403.75" y="-7.25" font-family="Helvetica,sans-Serif" font-size="10.00">&lt; F, max_arity_in &gt;</text>
</a>
</g>
</g>
<!-- Node1&#45;&gt;Node5 -->
<g id="edge4_Node000001_Node000005" class="edge">
<title>Node1&#45;&gt;Node5</title>
<g id="a_edge4_Node000001_Node000005"><a xlink:title=" ">
<path fill="none" stroke="#63b8ff" d="M279.9,-63.59C288.35,-60.72 296.87,-57.85 305,-55.12 314.31,-52.01 324.14,-48.75 333.82,-45.57"/>
<polygon fill="#63b8ff" stroke="#63b8ff" points="279.04,-60.18 270.7,-66.72 281.3,-66.81 279.04,-60.18"/>
</a>
</g>
</g>
<!-- Node2 -->
<g id="Node000002" class="node">
<title>Node2</title>
<g id="a_Node000002"><a xlink:href="structdi_1_1function_1_1pipeline_1_1EnablePipeline.html" target="_top" xlink:title=" ">
<polygon fill="white" stroke="#666666" points="115.75,-103.88 0,-103.88 0,-70.38 115.75,-70.38 115.75,-103.88"/>
<text text-anchor="start" x="8" y="-90.38" font-family="Helvetica,sans-Serif" font-size="10.00">di::function::pipeline</text>
<text text-anchor="middle" x="57.88" y="-77.62" font-family="Helvetica,sans-Serif" font-size="10.00">::EnablePipeline</text>
</a>
</g>
</g>
<!-- Node2&#45;&gt;Node1 -->
<g id="edge1_Node000001_Node000002" class="edge">
<title>Node2&#45;&gt;Node1</title>
<g id="a_edge1_Node000001_Node000002"><a xlink:title=" ">
<path fill="none" stroke="#63b8ff" d="M127.52,-87.12C135.61,-87.12 143.8,-87.12 151.71,-87.12"/>
<polygon fill="#63b8ff" stroke="#63b8ff" points="127.72,-83.63 117.72,-87.13 127.72,-90.63 127.72,-83.63"/>
</a>
</g>
</g>
</g>
</svg>
