<?xml version="1.0" encoding="UTF-8" standalone="no"?>
<!DOCTYPE svg PUBLIC "-//W3C//DTD SVG 1.1//EN"
 "http://www.w3.org/Graphics/SVG/1.1/DTD/svg11.dtd">
<!-- Generated by graphviz version 10.0.1 (0)
 -->
<!-- Title: dius::linux::OperationStateBase Pages: 1 -->
<svg width="701pt" height="274pt"
 viewBox="0.00 0.00 701.25 273.88" xmlns="http://www.w3.org/2000/svg" xmlns:xlink="http://www.w3.org/1999/xlink">
<g id="graph0" class="graph" transform="scale(1 1) rotate(0) translate(4 269.88)">
<title>dius::linux::OperationStateBase</title>
<!-- Node1 -->
<g id="Node000001" class="node">
<title>Node1</title>
<g id="a_Node000001"><a xlink:title=" ">
<polygon fill="#999999" stroke="#666666" points="486.75,-131.12 317,-131.12 317,-110.38 486.75,-110.38 486.75,-131.12"/>
<text text-anchor="middle" x="401.88" y="-117.62" font-family="Helvetica,sans-Serif" font-size="10.00">dius::linux::OperationStateBase</text>
</a>
</g>
</g>
<!-- Node4 -->
<g id="Node000004" class="node">
<title>Node4</title>
<g id="a_Node000004"><a xlink:href="structdius_1_1linux_1_1CloseSender_1_1OperationStateT_1_1Type.html" target="_top" xlink:title=" ">
<polygon fill="white" stroke="#666666" points="674.5,-265.88 541.5,-265.88 541.5,-219.62 674.5,-219.62 674.5,-265.88"/>
<text text-anchor="start" x="549.5" y="-252.38" font-family="Helvetica,sans-Serif" font-size="10.00">dius::linux::CloseSender</text>
<text text-anchor="start" x="549.5" y="-239.62" font-family="Helvetica,sans-Serif" font-size="10.00">::OperationStateT&lt; Rec</text>
<text text-anchor="middle" x="608" y="-226.88" font-family="Helvetica,sans-Serif" font-size="10.00"> &gt;::Type</text>
</a>
</g>
</g>
<!-- Node1&#45;&gt;Node4 -->
<g id="edge3_Node000001_Node000004" class="edge">
<title>Node1&#45;&gt;Node4</title>
<g id="a_edge3_Node000001_Node000004"><a xlink:title=" ">
<path fill="none" stroke="#63b8ff" d="M423.19,-138.84C446.1,-158.54 485.09,-190 522.75,-210.75 528.64,-214 534.93,-217.05 541.32,-219.9"/>
<polygon fill="#63b8ff" stroke="#63b8ff" points="425.66,-136.36 415.83,-132.42 421.07,-141.63 425.66,-136.36"/>
</a>
</g>
</g>
<!-- Node5 -->
<g id="Node000005" class="node">
<title>Node5</title>
<g id="a_Node000005"><a xlink:href="structdius_1_1linux_1_1OpenSender_1_1OperationStateT_1_1Type.html" target="_top" xlink:title=" ">
<polygon fill="white" stroke="#666666" points="673.75,-201.88 542.25,-201.88 542.25,-155.62 673.75,-155.62 673.75,-201.88"/>
<text text-anchor="start" x="550.25" y="-188.38" font-family="Helvetica,sans-Serif" font-size="10.00">dius::linux::OpenSender</text>
<text text-anchor="start" x="550.25" y="-175.62" font-family="Helvetica,sans-Serif" font-size="10.00">::OperationStateT&lt; Rec</text>
<text text-anchor="middle" x="608" y="-162.88" font-family="Helvetica,sans-Serif" font-size="10.00"> &gt;::Type</text>
</a>
</g>
</g>
<!-- Node1&#45;&gt;Node5 -->
<g id="edge4_Node000001_Node000005" class="edge">
<title>Node1&#45;&gt;Node5</title>
<g id="a_edge4_Node000001_Node000005"><a xlink:title=" ">
<path fill="none" stroke="#63b8ff" d="M451.55,-134.58C478.62,-142.27 512.67,-151.95 541.99,-160.28"/>
<polygon fill="#63b8ff" stroke="#63b8ff" points="452.82,-131.3 442.25,-131.94 450.91,-138.04 452.82,-131.3"/>
</a>
</g>
</g>
<!-- Node6 -->
<g id="Node000006" class="node">
<title>Node6</title>
<g id="a_Node000006"><a xlink:href="structdius_1_1linux_1_1ReadSomeSender_1_1OperationStateT_1_1Type.html" target="_top" xlink:title=" ">
<polygon fill="white" stroke="#666666" points="693.25,-137.5 522.75,-137.5 522.75,-104 693.25,-104 693.25,-137.5"/>
<text text-anchor="start" x="530.75" y="-124" font-family="Helvetica,sans-Serif" font-size="10.00">dius::linux::ReadSomeSender</text>
<text text-anchor="middle" x="608" y="-111.25" font-family="Helvetica,sans-Serif" font-size="10.00">::OperationStateT&lt; Rec &gt;::Type</text>
</a>
</g>
</g>
<!-- Node1&#45;&gt;Node6 -->
<g id="edge5_Node000001_Node000006" class="edge">
<title>Node1&#45;&gt;Node6</title>
<g id="a_edge5_Node000001_Node000006"><a xlink:title=" ">
<path fill="none" stroke="#63b8ff" d="M498.34,-120.75C506.35,-120.75 514.41,-120.75 522.33,-120.75"/>
<polygon fill="#63b8ff" stroke="#63b8ff" points="498.59,-117.25 488.59,-120.75 498.59,-124.25 498.59,-117.25"/>
</a>
</g>
</g>
<!-- Node7 -->
<g id="Node000007" class="node">
<title>Node7</title>
<g id="a_Node000007"><a xlink:href="structdius_1_1linux_1_1ScheduleSender_1_1OperationStateT_1_1Type.html" target="_top" xlink:title=" ">
<polygon fill="white" stroke="#666666" points="693.25,-85.5 522.75,-85.5 522.75,-52 693.25,-52 693.25,-85.5"/>
<text text-anchor="start" x="530.75" y="-72" font-family="Helvetica,sans-Serif" font-size="10.00">dius::linux::ScheduleSender</text>
<text text-anchor="middle" x="608" y="-59.25" font-family="Helvetica,sans-Serif" font-size="10.00">::OperationStateT&lt; Rec &gt;::Type</text>
</a>
</g>
</g>
<!-- Node1&#45;&gt;Node7 -->
<g id="edge6_Node000001_Node000007" class="edge">
<title>Node1&#45;&gt;Node7</title>
<g id="a_edge6_Node000001_Node000007"><a xlink:title=" ">
<path fill="none" stroke="#63b8ff" d="M456.1,-107.19C481.57,-100.7 512.35,-92.86 539.45,-85.96"/>
<polygon fill="#63b8ff" stroke="#63b8ff" points="455.46,-103.74 446.64,-109.6 457.19,-110.52 455.46,-103.74"/>
</a>
</g>
</g>
<!-- Node8 -->
<g id="Node000008" class="node">
<title>Node8</title>
<g id="a_Node000008"><a xlink:href="structdius_1_1linux_1_1WriteSomeSender_1_1OperationStateT_1_1Type.html" target="_top" xlink:title=" ">
<polygon fill="white" stroke="#666666" points="693.25,-33.5 522.75,-33.5 522.75,0 693.25,0 693.25,-33.5"/>
<text text-anchor="start" x="530.75" y="-20" font-family="Helvetica,sans-Serif" font-size="10.00">dius::linux::WriteSomeSender</text>
<text text-anchor="middle" x="608" y="-7.25" font-family="Helvetica,sans-Serif" font-size="10.00">::OperationStateT&lt; Rec &gt;::Type</text>
</a>
</g>
</g>
<!-- Node1&#45;&gt;Node8 -->
<g id="edge7_Node000001_Node000008" class="edge">
<title>Node1&#45;&gt;Node8</title>
<g id="a_edge7_Node000001_Node000008"><a xlink:title=" ">
<path fill="none" stroke="#63b8ff" d="M425.57,-103.22C448.88,-85.9 486.75,-59.62 522.75,-42.75 529.68,-39.5 537.12,-36.53 544.6,-33.85"/>
<polygon fill="#63b8ff" stroke="#63b8ff" points="423.61,-100.32 417.73,-109.13 427.82,-105.91 423.61,-100.32"/>
</a>
</g>
</g>
<!-- Node2 -->
<g id="Node000002" class="node">
<title>Node2</title>
<g id="a_Node000002"><a xlink:href="classdi_1_1container_1_1IntrusiveForwardListNode.html" target="_top" xlink:title=" ">
<polygon fill="white" stroke="#666666" points="281,-137.5 144.25,-137.5 144.25,-104 281,-104 281,-137.5"/>
<text text-anchor="start" x="152.25" y="-124" font-family="Helvetica,sans-Serif" font-size="10.00">di::container::Intrusive</text>
<text text-anchor="middle" x="212.62" y="-111.25" font-family="Helvetica,sans-Serif" font-size="10.00">ForwardListNode&lt; Tag &gt;</text>
</a>
</g>
</g>
<!-- Node2&#45;&gt;Node1 -->
<g id="edge1_Node000001_Node000002" class="edge">
<title>Node2&#45;&gt;Node1</title>
<g id="a_edge1_Node000001_Node000002"><a xlink:title=" ">
<path fill="none" stroke="#63b8ff" d="M292.87,-120.75C300.73,-120.75 308.72,-120.75 316.62,-120.75"/>
<polygon fill="#63b8ff" stroke="#63b8ff" points="293,-117.25 283,-120.75 293,-124.25 293,-117.25"/>
</a>
</g>
</g>
<!-- Node3 -->
<g id="Node000003" class="node">
<title>Node3</title>
<g id="a_Node000003"><a xlink:href="structdi_1_1util_1_1Immovable.html" target="_top" xlink:title=" ">
<polygon fill="white" stroke="#666666" points="108.25,-131.12 0,-131.12 0,-110.38 108.25,-110.38 108.25,-131.12"/>
<text text-anchor="middle" x="54.12" y="-117.62" font-family="Helvetica,sans-Serif" font-size="10.00">di::util::Immovable</text>
</a>
</g>
</g>
<!-- Node3&#45;&gt;Node2 -->
<g id="edge2_Node000002_Node000003" class="edge">
<title>Node3&#45;&gt;Node2</title>
<g id="a_edge2_Node000002_Node000003"><a xlink:title=" ">
<path fill="none" stroke="#8b1a1a" d="M119.91,-120.75C127.79,-120.75 135.86,-120.75 143.78,-120.75"/>
<polygon fill="#8b1a1a" stroke="#8b1a1a" points="120.06,-117.25 110.06,-120.75 120.06,-124.25 120.06,-117.25"/>
</a>
</g>
</g>
</g>
</svg>
