<?xml version="1.0" encoding="UTF-8" standalone="no"?>
<!DOCTYPE svg PUBLIC "-//W3C//DTD SVG 1.1//EN"
 "http://www.w3.org/Graphics/SVG/1.1/DTD/svg11.dtd">
<!-- Generated by graphviz version 10.0.1 (0)
 -->
<!-- Title: di::container::detail::NodeHashMapTag&lt; Key, Value &gt; Pages: 1 -->
<svg width="506pt" height="67pt"
 viewBox="0.00 0.00 506.00 67.00" xmlns="http://www.w3.org/2000/svg" xmlns:xlink="http://www.w3.org/1999/xlink">
<g id="graph0" class="graph" transform="scale(1 1) rotate(0) translate(4 63)">
<title>di::container::detail::NodeHashMapTag&lt; Key, Value &gt;</title>
<!-- Node1 -->
<g id="Node000001" class="node">
<title>Node1</title>
<g id="a_Node000001"><a xlink:title=" ">
<polygon fill="#999999" stroke="#666666" points="498,-52.62 356,-52.62 356,-6.38 498,-6.38 498,-52.62"/>
<text text-anchor="start" x="364" y="-39.12" font-family="Helvetica,sans-Serif" font-size="10.00">di::container::detail</text>
<text text-anchor="start" x="364" y="-26.38" font-family="Helvetica,sans-Serif" font-size="10.00">::NodeHashMapTag&lt; Key,</text>
<text text-anchor="middle" x="427" y="-13.62" font-family="Helvetica,sans-Serif" font-size="10.00"> Value &gt;</text>
</a>
</g>
</g>
<!-- Node2 -->
<g id="Node000002" class="node">
<title>Node2</title>
<g id="a_Node000002"><a xlink:href="structdi_1_1container_1_1OwningHashNodeTag.html" target="_top" xlink:title=" ">
<polygon fill="white" stroke="#666666" points="320,-59 163,-59 163,0 320,0 320,-59"/>
<text text-anchor="start" x="171" y="-45.5" font-family="Helvetica,sans-Serif" font-size="10.00">di::container::OwningHash</text>
<text text-anchor="start" x="171" y="-32.75" font-family="Helvetica,sans-Serif" font-size="10.00">NodeTag&lt; NodeHashMapTag</text>
<text text-anchor="start" x="171" y="-20" font-family="Helvetica,sans-Serif" font-size="10.00">&lt; Key, Value &gt;, Tuple&lt; Key,</text>
<text text-anchor="middle" x="241.5" y="-7.25" font-family="Helvetica,sans-Serif" font-size="10.00"> Value &gt; &gt;</text>
</a>
</g>
</g>
<!-- Node2&#45;&gt;Node1 -->
<g id="edge1_Node000001_Node000002" class="edge">
<title>Node2&#45;&gt;Node1</title>
<g id="a_edge1_Node000001_Node000002"><a xlink:title=" ">
<path fill="none" stroke="#63b8ff" d="M331.65,-29.5C339.7,-29.5 347.78,-29.5 355.63,-29.5"/>
<polygon fill="#63b8ff" stroke="#63b8ff" points="331.83,-26 321.83,-29.5 331.83,-33 331.83,-26"/>
</a>
</g>
</g>
<!-- Node3 -->
<g id="Node000003" class="node">
<title>Node3</title>
<g id="a_Node000003"><a xlink:href="structdi_1_1container_1_1IntrusiveTagBase.html" target="_top" xlink:title=" ">
<polygon fill="white" stroke="#666666" points="127,-46.25 0,-46.25 0,-12.75 127,-12.75 127,-46.25"/>
<text text-anchor="start" x="8" y="-32.75" font-family="Helvetica,sans-Serif" font-size="10.00">di::container::Intrusive</text>
<text text-anchor="middle" x="63.5" y="-20" font-family="Helvetica,sans-Serif" font-size="10.00">TagBase&lt; NodeType &gt;</text>
</a>
</g>
</g>
<!-- Node3&#45;&gt;Node2 -->
<g id="edge2_Node000002_Node000003" class="edge">
<title>Node3&#45;&gt;Node2</title>
<g id="a_edge2_Node000002_Node000003"><a xlink:title=" ">
<path fill="none" stroke="#63b8ff" d="M138.32,-29.5C146.4,-29.5 154.63,-29.5 162.75,-29.5"/>
<polygon fill="#63b8ff" stroke="#63b8ff" points="138.56,-26 128.56,-29.5 138.56,-33 138.56,-26"/>
</a>
</g>
</g>
</g>
</svg>
